<svg aria-hidden="true" style="position: absolute; width: 0; height: 0; overflow: hidden;" version="1.1" xmlns="http://www.w3.org/2000/svg" xmlns:xlink="http://www.w3.org/1999/xlink">
<defs>
<symbol id="icon-glass" viewBox="0 0 28 28">
<path d="M26.547 2.906c0 0.453-0.359 0.906-0.672 1.219l-9.875 9.875v12h5c0.547 0 1 0.453 1 1s-0.453 1-1 1h-14c-0.547 0-1-0.453-1-1s0.453-1 1-1h5v-12l-9.875-9.875c-0.313-0.313-0.672-0.766-0.672-1.219 0-0.766 0.969-0.906 1.547-0.906h22c0.578 0 1.547 0.141 1.547 0.906z"></path>
</symbol>
<symbol id="icon-coffee" viewBox="0 0 29 28">
<path d="M26 10c0-1.656-1.344-3-3-3h-1v6h1c1.656 0 3-1.344 3-3zM0 22h28c0 2.203-1.797 4-4 4h-20c-2.203 0-4-1.797-4-4zM29 10c0 3.313-2.688 6-6 6h-1v0.5c0 1.922-1.578 3.5-3.5 3.5h-11c-1.922 0-3.5-1.578-3.5-3.5v-11.5c0-0.547 0.453-1 1-1h18c3.313 0 6 2.688 6 6z"></path>
</symbol>
<symbol id="icon-beer" viewBox="0 0 27 28">
<path d="M10 14v-6h-4v4c0 1.109 0.891 2 2 2h2zM26 21v3h-18v-3l2-3h-2c-3.313 0-6-2.688-6-6v-5l-1-1 0.5-2h7.5l0.5-2h15l0.5 3-1 0.5v12.5z"></path>
</symbol>
<symbol id="icon-snowflake-o" viewBox="0 0 26 28">
<path d="M24.469 17.453l-2.609 0.516 2.906 1.672c0.469 0.266 0.641 0.891 0.359 1.359s-0.891 0.641-1.359 0.359l-2.906-1.656 0.859 2.5c0.438 1.25-1.469 1.891-1.891 0.656l-1.594-4.688-4.234-2.438v4.891l3.25 3.719c0.875 0.984-0.641 2.312-1.5 1.313l-1.75-2v3.344c0 0.547-0.453 1-1 1s-1-0.453-1-1v-3.344l-1.75 2c-0.859 1-2.375-0.328-1.5-1.313l3.25-3.719v-4.891l-4.234 2.438-1.594 4.688c-0.422 1.234-2.328 0.594-1.891-0.656l0.859-2.5-2.906 1.656c-0.469 0.281-1.078 0.109-1.359-0.359s-0.109-1.094 0.359-1.359l2.906-1.672-2.609-0.516c-1.297-0.266-0.906-2.219 0.391-1.969l4.844 0.969 4.234-2.453-4.234-2.453-4.844 0.969c-0.063 0.016-0.141 0.016-0.203 0.016-1.188 0-1.359-1.75-0.187-1.984l2.609-0.516-2.906-1.672c-0.469-0.266-0.641-0.891-0.359-1.359 0.281-0.484 0.891-0.641 1.359-0.359l2.906 1.656-0.859-2.5c-0.438-1.25 1.469-1.891 1.891-0.656l1.594 4.688 4.234 2.438v-4.891l-3.25-3.719c-0.875-0.984 0.641-2.312 1.5-1.313l1.75 2v-3.344c0-0.547 0.453-1 1-1s1 0.453 1 1v3.344l1.75-2c0.859-1 2.375 0.328 1.5 1.313l-3.25 3.719v4.891l4.234-2.438 1.594-4.688c0.422-1.234 2.328-0.594 1.891 0.656l-0.859 2.5 2.906-1.656c0.469-0.281 1.078-0.109 1.359 0.359s0.109 1.094-0.359 1.359l-2.906 1.672 2.609 0.516c1.172 0.234 1 1.984-0.187 1.984-0.063 0-0.141 0-0.203-0.016l-4.844-0.969-4.234 2.453 4.234 2.453 4.844-0.969c1.297-0.25 1.687 1.703 0.391 1.969z"></path>
</symbol>
<symbol id="icon-coffee1" viewBox="0 0 24 24">
<path d="M19 15v-6c0.829 0 1.577 0.335 2.121 0.879s0.879 1.292 0.879 2.121-0.335 1.577-0.879 2.121-1.292 0.879-2.121 0.879zM2 7c-0.552 0-1 0.448-1 1v9c0 1.38 0.561 2.632 1.464 3.536s2.156 1.464 3.536 1.464h8c1.38 0 2.632-0.561 3.536-1.464s1.464-2.156 1.464-3.536c1.38 0 2.632-0.561 3.536-1.464s1.464-2.156 1.464-3.536-0.561-2.632-1.464-3.536-2.156-1.464-3.536-1.464h-1zM3 9h14v8c0 0.829-0.335 1.577-0.879 2.121s-1.292 0.879-2.121 0.879h-8c-0.829 0-1.577-0.335-2.121-0.879s-0.879-1.292-0.879-2.121zM5 1v3c0 0.552 0.448 1 1 1s1-0.448 1-1v-3c0-0.552-0.448-1-1-1s-1 0.448-1 1zM9 1v3c0 0.552 0.448 1 1 1s1-0.448 1-1v-3c0-0.552-0.448-1-1-1s-1 0.448-1 1zM13 1v3c0 0.552 0.448 1 1 1s1-0.448 1-1v-3c0-0.552-0.448-1-1-1s-1 0.448-1 1z"></path>
</symbol>
<symbol id="icon-drink" viewBox="0 0 24 24">
<path d="M7 18c0 0.552 0.448 1 1 1s1-0.448 1-1c0-0.552-0.448-1-1-1s-1 0.448-1 1zM10 18c0 0.552 0.448 1 1 1s1-0.448 1-1c0-0.552-0.448-1-1-1s-1 0.448-1 1zM13 18c0 0.552 0.448 1 1 1s1-0.448 1-1c0-0.552-0.448-1-1-1s-1 0.448-1 1zM6 15.5c0 0.276 0.224 0.5 0.5 0.5s0.5-0.224 0.5-0.5c0-0.276-0.224-0.5-0.5-0.5s-0.5 0.224-0.5 0.5zM8 15.5c0 0.276 0.224 0.5 0.5 0.5s0.5-0.224 0.5-0.5c0-0.276-0.224-0.5-0.5-0.5s-0.5 0.224-0.5 0.5zM10 15.5c0 0.276 0.224 0.5 0.5 0.5s0.5-0.224 0.5-0.5c0-0.276-0.224-0.5-0.5-0.5s-0.5 0.224-0.5 0.5zM12 15.5c0 0.276 0.224 0.5 0.5 0.5s0.5-0.224 0.5-0.5c0-0.276-0.224-0.5-0.5-0.5s-0.5 0.224-0.5 0.5zM14 15.5c0 0.276 0.224 0.5 0.5 0.5s0.5-0.224 0.5-0.5c0-0.276-0.224-0.5-0.5-0.5s-0.5 0.224-0.5 0.5zM15 13.5c0 0.276 0.224 0.5 0.5 0.5s0.5-0.224 0.5-0.5c0-0.276-0.224-0.5-0.5-0.5s-0.5 0.224-0.5 0.5zM13 13.5c0 0.276 0.224 0.5 0.5 0.5s0.5-0.224 0.5-0.5c0-0.276-0.224-0.5-0.5-0.5s-0.5 0.224-0.5 0.5zM11 13.5c0 0.276 0.224 0.5 0.5 0.5s0.5-0.224 0.5-0.5c0-0.276-0.224-0.5-0.5-0.5s-0.5 0.224-0.5 0.5zM9 13.5c0 0.276 0.224 0.5 0.5 0.5s0.5-0.224 0.5-0.5c0-0.276-0.224-0.5-0.5-0.5s-0.5 0.224-0.5 0.5zM7 13.5c0 0.276 0.224 0.5 0.5 0.5s0.5-0.224 0.5-0.5c0-0.276-0.224-0.5-0.5-0.5s-0.5 0.224-0.5 0.5zM5 13.5c0 0.276 0.224 0.5 0.5 0.5s0.5-0.224 0.5-0.5c0-0.276-0.224-0.5-0.5-0.5s-0.5 0.224-0.5 0.5zM19.596 6.368l0.895-1.789-7.030-3.696-2.461 6.116h-8v15.001h2v2h10v-2h3v-15.001h-5l1.628-3.296 4.968 2.665zM14 22h-7v-1h7v1zM16 8.999v11.001h-11v-1c0.553 0 1-0.447 1-1s-0.447-1-1-1v-8.001h11z"></path>
</symbol>
<symbol id="icon-coffee3" viewBox="0 0 24 24">
<path d="M21.276 7l-1.666-5h-2.613v-1h-6v1h-6.828l-1.666 5h1.498l2 17h11.777l2-17h1.498zM5.611 4h7.387v-1h2v1h3.172l0.334 1h-13.226l0.333-1zM6.369 10h11.044l-0.588 5h-9.868l-0.588-5zM7.78 22l-0.706-6h9.632l-0.705 6h-8.221zM17.53 9h-11.28l-0.235-2h11.75l-0.235 2z"></path>
</symbol>
<symbol id="icon-mug" viewBox="0 0 24 24">
<path d="M15.992 8v9h1v-9h-1zM5.992 2v4h-4v14h4v1c0 0.55 0.492 1 1.041 1h13.959v-20h-15zM6.992 16h-1v-6h1v6zM18.992 18h-1v1h1v1h-11v-1h1v-1h-1v-9h-3v8h2v1h-3v-10h4v-1h11v11zM18.992 6h-11v-2h11v2zM16.992 19h-1v-1h1v1zM14.992 19h-1v-1h1v1zM12.992 19h-1v-1h1v1zM10.992 19h-1v-1h1v1zM13.992 8v9h1v-9h-1z"></path>
</symbol>
<symbol id="icon-wine" viewBox="0 0 24 24">
<path d="M17.568 9.432c0-2.55-0.906-5.592-0.944-5.72-0.128-0.423-0.517-0.712-0.958-0.712h-7.332c-0.441 0-0.83 0.289-0.958 0.712-0.038 0.128-0.944 3.17-0.944 5.72 0 2.735 1.984 5.011 4.587 5.477-0.003 0.030-0.019 0.059-0.019 0.091v4h-1c-0.553 0-1 0.447-1 1s0.447 1 1 1h4c0.553 0 1-0.447 1-1s-0.447-1-1-1h-1v-4c0-0.032-0.016-0.061-0.019-0.092 2.603-0.466 4.587-2.741 4.587-5.476zM12 13c-1.773 0-3.236-1.303-3.511-3h7.021c-0.274 1.697-1.737 3-3.51 3zM8.445 9c0.062-1.468 0.422-3.093 0.653-4h5.803c0.231 0.907 0.591 2.532 0.653 4h-7.109z"></path>
</symbol>
<symbol id="icon-coffee4" viewBox="0 0 24 24">
<path d="M17 19h-12c-0.553 0-1-0.447-1-1s0.447-1 1-1h12c0.553 0 1 0.447 1 1s-0.447 1-1 1z"></path>
<path d="M17.5 5h-12.5v9c0 1.1 0.9 2 2 2h8c1.1 0 2-0.9 2-2v-2h0.5c1.93 0 3.5-1.57 3.5-3.5s-1.57-3.5-3.5-3.5zM15 14h-8v-7h8v7zM17.5 10h-1.5v-3h1.5c0.827 0 1.5 0.673 1.5 1.5s-0.673 1.5-1.5 1.5z"></path>
</symbol>
<symbol id="icon-beer1" viewBox="0 0 24 24">
<path d="M10 16.5c0 0.275-0.225 0.5-0.5 0.5s-0.5-0.225-0.5-0.5v-6c0-0.275 0.225-0.5 0.5-0.5s0.5 0.225 0.5 0.5v6z"></path>
<path d="M12 16.5c0 0.275-0.225 0.5-0.5 0.5s-0.5-0.225-0.5-0.5v-6c0-0.275 0.225-0.5 0.5-0.5s0.5 0.225 0.5 0.5v6z"></path>
<path d="M14 16.5c0 0.275-0.225 0.5-0.5 0.5s-0.5-0.225-0.5-0.5v-6c0-0.275 0.225-0.5 0.5-0.5s0.5 0.225 0.5 0.5v6z"></path>
<path d="M18.5 6h-0.5v-1c0-1.104-0.896-2-2-2h-9c-1.104 0-2 0.896-2 2v13c0 1.656 1.344 3 3 3h7c1.656 0 3-1.344 3-3h0.5c1.93 0 3.5-1.57 3.5-3.5v-5c0-1.93-1.57-3.5-3.5-3.5zM7 5h9v1h-4.444l-0.118 0.332c-0.164 0.458-0.663 0.73-1.117 0.648l-0.348-0.058-0.173 0.307c-0.267 0.475-0.765 0.771-1.3 0.771-0.827 0-1.5-0.673-1.5-1.5v-1.5zM16 18c0 0.552-0.448 1-1 1h-7c-0.552 0-1-0.448-1-1v-9.51c0.419 0.317 0.936 0.51 1.5 0.51 0.784 0 1.521-0.376 1.989-1 0.728 0 1.383-0.391 1.736-1h3.775v11zM20 14.5c0 0.827-0.673 1.5-1.5 1.5h-1.5v-8h1.5c0.827 0 1.5 0.673 1.5 1.5v5z"></path>
</symbol>
<symbol id="icon-coffee11" viewBox="0 0 24 24">
<path d="M17 19h-12c-0.553 0-1-0.447-1-1s0.447-1 1-1h12c0.553 0 1 0.447 1 1s-0.447 1-1 1z"></path>
<path d="M17.5 5h-12.5v9c0 1.1 0.9 2 2 2h8c1.1 0 2-0.9 2-2v-2h0.5c1.93 0 3.5-1.57 3.5-3.5s-1.57-3.5-3.5-3.5zM15 14h-8v-7h8v7zM17.5 10h-1.5v-3h1.5c0.827 0 1.5 0.673 1.5 1.5s-0.673 1.5-1.5 1.5z"></path>
</symbol>
<symbol id="icon-coffee111" viewBox="0 0 24 24">
<path d="M19 15v-6c0.829 0 1.577 0.335 2.121 0.879s0.879 1.292 0.879 2.121-0.335 1.577-0.879 2.121-1.292 0.879-2.121 0.879zM2 7c-0.552 0-1 0.448-1 1v9c0 1.38 0.561 2.632 1.464 3.536s2.156 1.464 3.536 1.464h8c1.38 0 2.632-0.561 3.536-1.464s1.464-2.156 1.464-3.536c1.38 0 2.632-0.561 3.536-1.464s1.464-2.156 1.464-3.536-0.561-2.632-1.464-3.536-2.156-1.464-3.536-1.464h-1zM3 9h14v8c0 0.829-0.335 1.577-0.879 2.121s-1.292 0.879-2.121 0.879h-8c-0.829 0-1.577-0.335-2.121-0.879s-0.879-1.292-0.879-2.121zM5 1v3c0 0.552 0.448 1 1 1s1-0.448 1-1v-3c0-0.552-0.448-1-1-1s-1 0.448-1 1zM9 1v3c0 0.552 0.448 1 1 1s1-0.448 1-1v-3c0-0.552-0.448-1-1-1s-1 0.448-1 1zM13 1v3c0 0.552 0.448 1 1 1s1-0.448 1-1v-3c0-0.552-0.448-1-1-1s-1 0.448-1 1z"></path>
</symbol>
<symbol id="icon-local_bar" viewBox="0 0 24 24">
<path d="M7.453 6.984h9.094l1.781-1.969h-12.656zM21 5.016l-8.016 9v4.969h5.016v2.016h-12v-2.016h5.016v-4.969l-8.016-9v-2.016h18v2.016z"></path>
</symbol>
<symbol id="icon-local_cafe" viewBox="0 0 24 24">
<path d="M3.984 18.984h16.031v2.016h-16.031v-2.016zM20.016 8.016v-3h-2.016v3h2.016zM20.016 3q0.844 0 1.406 0.586t0.563 1.43v3q0 0.844-0.563 1.406t-1.406 0.563h-2.016v3q0 1.641-1.172 2.836t-2.813 1.195h-6q-1.641 0-2.836-1.195t-1.195-2.836v-9.984h16.031z"></path>
</symbol>
<symbol id="icon-local_drink" viewBox="0 0 24 24">
<path d="M18.328 8.016l0.422-4.031h-13.5l0.422 4.031h12.656zM12 18.984q1.219 0 2.109-0.891t0.891-2.109q0-0.891-0.75-2.25t-1.5-2.25l-0.75-0.891q-3 3.375-3 5.391 0 1.219 0.891 2.109t2.109 0.891zM3 2.016h18l-2.016 18.234q-0.094 0.75-0.656 1.242t-1.313 0.492h-10.031q-0.75 0-1.313-0.492t-0.656-1.242z"></path>
</symbol>
<symbol id="icon-emoji_food_beverage" viewBox="0 0 24 24">
<path d="M3.984 18.984h16.031v2.016h-16.031v-2.016zM20.016 8.016v-3h-2.016v3h2.016zM20.016 3q0.844 0 1.406 0.586t0.563 1.43v3q0 0.844-0.563 1.406t-1.406 0.563h-2.016v3q0 1.641-1.172 2.836t-2.813 1.195h-6q-1.641 0-2.836-1.195t-1.195-2.836v-9.984h4.031v2.391l-1.828 1.453q-0.188 0.141-0.188 0.375v4.266q0 0.516 0.516 0.516h3.984q0.516 0 0.516-0.516v-4.266q0-0.234-0.188-0.375l-1.828-1.453v-2.391h11.016z"></path>
</symbol>
<symbol id="icon-icecream" viewBox="0 0 24 24">
<path d="M6.844 12.984q-1.172-0.094-2.016-0.961t-0.844-2.039q0-1.078 0.727-1.922t1.805-1.031q0.188-2.109 1.758-3.563t3.727-1.453 3.727 1.453 1.758 3.563q1.078 0.188 1.805 1.031t0.727 1.922q0 1.172-0.82 2.039t-1.992 0.961l-5.156 10.031zM8.813 12.422l3.234 6.188 3.188-6.188q-0.047-0.047-0.164-0.141t-0.164-0.141q-1.359 0.844-2.906 0.844t-2.906-0.844q-0.047 0.047-0.094 0.117t-0.094 0.117-0.094 0.047z"></path>
</symbol>
<symbol id="icon-no_drinks" viewBox="0 0 24 24">
<path d="M5.813 3h15.188v2.016l-6.188 6.938-4.969-4.969h6.703l1.781-1.969h-10.5zM19.781 22.594l-1.781-1.781v0.188h-12v-2.016h5.016v-4.969l-1.406-1.547-8.203-8.25 1.406-1.406 18.375 18.375zM16.172 18.984l-3.188-3.141v3.141h3.188z"></path>
</symbol>
<symbol id="icon-wine_bar" viewBox="0 0 24 24">
<path d="M6 3v6q0 1.5 0.656 2.742t1.781 2.086 2.578 1.078v4.078h-3v2.016h7.969v-2.016h-3v-4.078q1.453-0.234 2.578-1.078t1.781-2.086 0.656-2.742v-6h-12zM15.984 8.016h-7.969v-3h7.969v3z"></path>
</symbol>
<symbol id="icon-bowl" viewBox="0 0 20 20">
<path d="M16.949 7.472c-2.176 2.902-4.095 3.002-7.046 3.152h-0.101c-3.591-0.002-6.138-1.336-6.138-1.832-0.002-0.471 2.298-1.697 5.605-1.819l0.59-1.473c-0.019 0-0.037-0.002-0.057-0.002-4.908 0-7.791 1.562-7.791 3.051v2c0 0.918 0.582 8.949 7.582 8.949s8-8.031 8-8.949v-2c0-0.391-0.201-0.787-0.584-1.158l-0.060 0.081zM17.589 2.702c-0.441-0.33-1.069-0.242-1.399 0.201l-3.608 4.809 2.336-5.838c0.206-0.512-0.044-1.094-0.557-1.301-0.508-0.205-1.096 0.043-1.3 0.559l-3.259 8.142c2.882-0.147 4.277-0.227 6.067-2.611 1.789-2.387 1.919-2.561 1.919-2.561 0.332-0.441 0.243-1.068-0.199-1.4z"></path>
</symbol>
<symbol id="icon-cup" viewBox="0 0 20 20">
<path d="M10 1c-4.279 0-6.94 1.41-6.795 2.555l1.442 13.467c0.058 0.46 2.221 1.976 5.353 1.978 3.131-0.002 5.295-1.518 5.351-1.979l1.442-13.467c0.145-1.144-2.514-2.554-6.793-2.554zM10 5.291c-3.132-0.002-5.353-1.117-5.353-1.535-0.001-0.414 2.222-1.531 5.353-1.529 3.131-0.002 5.354 1.115 5.351 1.529 0 0.418-2.22 1.533-5.351 1.535z"></path>
</symbol>
<symbol id="icon-drink1" viewBox="0 0 20 20">
<path d="M17.538 2.639c0.394-0.545 0.462-1.639 0.462-1.639h-16c0 0 0.068 1.094 0.462 1.639l6.538 8.361v6h-2c-2 0-2 2-2 2h10c0 0 0-2-2-2h-2v-6l6.538-8.361zM9.4 6c0-0.885 0.716-1.6 1.6-1.6s1.6 0.715 1.6 1.6c0 0.883-0.716 1.6-1.6 1.6s-1.6-0.717-1.6-1.6z"></path>
</symbol>
<symbol id="icon-beverage" viewBox="0 0 20 20">
<path d="M9 18v-7l-9-9v-2h20v2l-9 9v7l5 1v1h-12v-1l5-1zM11 8c1.105 0 2-0.895 2-2s-0.895-2-2-2v0c-1.105 0-2 0.895-2 2s0.895 2 2 2v0z"></path>
</symbol>
<symbol id="icon-coffee5" viewBox="0 0 20 20">
<path d="M4 11h-2c-1.105 0-2-0.895-2-2v0-4c0-1.1 0.9-2 2-2h2v-2h14v10c0 2.209-1.791 4-4 4v0h-6c-2.209 0-4-1.791-4-4v0zM4 9v-4h-2v4h2zM2 17v-1h18v1l-4 2h-10l-4-2z"></path>
</symbol>
<symbol id="icon-coffee1111" viewBox="0 0 20 20">
<path d="M4 11h-2c-1.105 0-2-0.895-2-2v0-4c0-1.1 0.9-2 2-2h2v-2h14v10c0 2.209-1.791 4-4 4v0h-6c-2.209 0-4-1.791-4-4v0zM4 9v-4h-2v4h2zM2 17v-1h18v1l-4 2h-10l-4-2z"></path>
</symbol>
<symbol id="icon-drink2" viewBox="0 0 32 32">
<path d="M23.055 8.906c0.557 0 1.008 0.451 1.008 1.008l-1.827 20.093c0 0.557-0.451 1.008-1.008 1.008h-10.457c-0.557 0-1.008-0.451-1.008-1.008l-1.825-20.093c0-0.557 0.451-1.008 1.008-1.008h9.010l1.066-5.436 4.839-2.485-0.348 1.298-3.592 1.801-0.938 4.822h4.072zM17.514 15.961h4.029l-1.134 13.038h-8.818l-1.134-13.038h6.029l1.259-6.047h-8.8l1.826 20.093h10.456l1.827-20.093h-4.282l-1.258 6.047z"></path>
</symbol>
<symbol id="icon-drink3" viewBox="0 0 32 32">
<path d="M24.462 8.981h-17.969l0.018-1.934h1.436l3.039-2.995h9.109l2.977 2.995h1.436l-0.046 1.934zM17.037 6.049h-2.995v0.998h2.995v-0.998zM22.857 17.030h-3.377c-0.745-1.451-2.239-2.454-3.982-2.454s-3.237 1.003-3.981 2.454h-3.318l-0.646-6.988h15.973l-0.669 6.988zM13.044 19.026c0-1.378 1.117-2.496 2.496-2.496 1.378 0 2.495 1.118 2.495 2.496s-1.117 2.496-2.495 2.496c-1.379 0-2.496-1.118-2.496-2.496zM15.498 23.561c1.794 0 3.33-1.059 4.050-2.579h2.931l-0.762 7.966h-12.416l-0.736-7.966h2.884c0.72 1.52 2.255 2.579 4.049 2.579z"></path>
</symbol>
<symbol id="icon-drink4" viewBox="0 0 32 32">
<path d="M25 8.918h-18.045l0.018-1.942h1.441l3.052-3.007h9.148l2.989 3.007h1.441l-0.044 1.942zM17.544 5.974h-3.008v1.002h3.008v-1.002zM23.656 13.994h-15.246l-0.39-4.010h16.040l-0.404 4.010zM23.245 22.953h-14.474l-0.751-7.957h16.040l-0.815 7.957zM22.243 28.029c0 0.553-0.449 1.002-1.003 1.002h-10.463c-0.554 0-1.003-0.449-1.003-1.002l-0.396-4.073h13.274l-0.409 4.073z"></path>
</symbol>
<symbol id="icon-drink5" viewBox="0 0 32 32">
<path d="M26.562 8.021l-10.496 9.213v11.939l5.841 2.827h-13.689l5.842-2.826v-11.94l-10.622-9.213h16.202l3.243-5.619 0.872 0.503-2.953 5.115h5.76zM24.111 8.965l-3.863 0.015-1.19 2.062h2.745l2.308-2.077zM16.066 15.069c0.591 0 1.069-0.479 1.069-1.070s-0.479-1.070-1.069-1.070-1.070 0.479-1.070 1.070c0 0.592 0.48 1.070 1.070 1.070zM5.89 8.965l2.327 2.077h9.679l1.188-2.057-13.194-0.020z"></path>
</symbol>
<symbol id="icon-coffee6" viewBox="0 0 32 32">
<path d="M29.984 15.548c-0.378-3.639-4.063-3.618-5.977-3.553 0.009-0.553 0.015-0.999 0.015-0.999l-22.027-0.007c0 0 0 3.014 0 3.089 0 4.281 2.445 7.984 6.011 9.809v1.068h10.019v-1.068c1-0.512 1.897-1.184 2.691-1.961 4.915-1.176 10.070-2.873 9.268-6.378zM22.25 20.066c1.123-1.725 1.786-3.775 1.786-5.988 0 0.017 0.001-0.029 0.002-0.116 1.785-0.059 3.755-0.237 4.201 1.54 0.448 1.955-2.817 3.547-5.989 4.564zM8.83 6.99c0 1-1.64 2.065-1.64 2.065s3.214-0.574 3.214-2.074-3.187-0.5-3.187-1.625 1.577-2.19 1.577-2.19-3.025 0.637-3.025 2.199 3.061 0.625 3.061 1.625zM13.83 7.99c0 1-1.64 2.065-1.64 2.065s3.214-0.574 3.214-2.074-3.187-0.5-3.187-1.625 1.577-2.19 1.577-2.19-3.026 0.637-3.026 2.199 3.062 0.625 3.062 1.625zM17.83 6.99c0 1-1.64 2.065-1.64 2.065s3.214-0.574 3.214-2.074-3.187-0.5-3.187-1.625 1.577-2.19 1.577-2.19-3.026 0.637-3.026 2.199 3.062 0.625 3.062 1.625zM1.933 25.928c0 1.381 4.925 2.5 11 2.5s11-1.119 11-2.5c0 0.029-22 0.029-22 0z"></path>
</symbol>
<symbol id="icon-mug1" viewBox="0 0 32 32">
<path d="M25.761 25.005h-2.724v2.164c0 1.546-1.378 2.798-2.924 2.798h-10.308c-1.546 0-2.799-1.252-2.799-2.798v-15.1h2.998v14.905h1.988l0.002-14.905c0.534 0.385 1.334 0.671 2.008 0.823v14.083h1.988v-14.025c0.745-0.123 1.428-0.403 2.016-0.807v14.832h1.988v-14.906h5.766c1.236 0 2.239 1.002 2.239 2.239v8.457c0.001 1.237-1.002 2.24-2.238 2.24zM25.991 14.010h-2.955v8.985h2.955v-8.985zM21.222 11.142c-0.979 0-1.863-0.391-2.517-1.021-0.812 1.147-2.142 1.902-3.653 1.902-1.457 0-2.738-0.707-3.557-1.784-0.648 0.599-1.508 0.973-2.46 0.973-1.755 0-3.219-1.243-3.562-2.896-0.534-0.35-0.887-0.952-0.887-1.637 0-1.082 0.877-1.959 1.959-1.959 0.080 0 0.157 0.014 0.234 0.023 0.605-0.481 1.359-0.785 2.189-0.801 0.373-1.106 1.408-1.909 2.641-1.909 0.949 0 1.784 0.475 2.291 1.197 0.368-0.1 0.751-0.162 1.151-0.162 0.418 0 0.816 0.070 1.199 0.179 0.505-0.732 1.348-1.214 2.304-1.214 1.207 0 2.226 0.768 2.619 1.838 0.017 0 0.031-0.005 0.048-0.005 2.010 0 3.639 1.629 3.639 3.638s-1.629 3.638-3.638 3.638z"></path>
</symbol>
<symbol id="icon-icecream1" viewBox="0 0 32 32">
<path d="M20.804 10.742c1.448-3.62-1.789-4.217-1.789-4.174 1.022-2.556-1.022-4.26-2.896-4.26s-1.789 0.853-1.789 0.853 1.022-0.213 1.022 0.596c0 0.81-0.938 0.767-1.874 1.704-0.938 0.937-0.49 0.81-0.554 0.81 1.948-0.128 3.088 1.885 5.239 1.149-2.13 1.065-2.641-0.628-4.941-0.713-0.298 0-2.002-0.33-2.002 2.928 2.492 0.288 3.578 2.002 6.943 1.619-3.791 1.405-8.54-4.409-9.2 1.959 0 1.363 1.021 2.048 1.021 2.048s11.799 0 11.757 0c2.342-1.022 1.193-4.732-0.937-4.519zM16.072 31l5.328-15.069h-10.773l5.445 15.069z"></path>
</symbol>
<symbol id="icon-cake" viewBox="0 0 32 32">
<path d="M25.5 9c-0.295 0-0.58 0.037-0.857 0.097-0.123-1.821-1.624-3.264-3.476-3.264-0.415 0-0.808 0.085-1.177 0.218-1.15-1.828-3.172-3.051-5.49-3.051-3.522 0-6.373 2.807-6.48 6.303-0.469-0.193-0.981-0.303-1.52-0.303-2.209 0-4 1.791-4 4 0 2.152 1.703 3.894 3.833 3.982l1.604-1.604 1.622 1.622h0.758l1.621-1.622 1.621 1.622h0.758l1.621-1.622 1.621 1.622h0.758l1.621-1.622 1.621 1.622h0.758l1.621-1.622 1.616 1.616c2.183-0.029 3.946-1.803 3.946-3.994 0-2.209-1.791-4-4-4zM24 16.566l-1.434 1.434h-1.258l-1.371-1.371-1.371 1.371h-1.258l-1.371-1.371-1.371 1.371h-1.258l-1.371-1.371-1.371 1.371h-1.257l-1.371-1.371-1.372 1.371h-0.066l2.65 11h13.625l2.725-11h-0.066l-1.434-1.434zM11.5 28l-2.083-9h1l2.083 9h-1zM13.5 28l-1.062-9h1l1.062 9h-1zM16.5 28h-1v-9h1v9zM17.5 28l1.062-9h1l-1.062 9h-1zM20.5 28h-1l2.062-9h1l-2.062 9z"></path>
</symbol>
<symbol id="icon-wine1" viewBox="0 0 23 32">
<path d="M22.802 7.661c0-2.253-0.687-5.534-1.999-7.444-0.093-0.136-0.247-0.217-0.412-0.217h-17.98c-0.165 0-0.319 0.081-0.412 0.217-1.312 1.912-1.999 5.192-1.999 7.444 0 5.932 4.73 12.529 11 12.869v8.47h-4.099c-1.141-0.075-2 0.784-2 1.925v0.575c0 0.276 0.224 0.5 0.5 0.5h12c0.276 0 0.5-0.224 0.5-0.5v-0.5c0-1.164-0.879-2.075-2-2h-3.901v-8.47c6.27-0.34 10.802-6.937 10.802-12.869zM16.901 31h-11v-0.075c0-0.589 0.411-1 1-1h9c0.571 0 1 0.462 1 1.075zM2.682 1h17.438c1.053 1.692 1.631 4.47 1.673 6.428-0.845-0.196-1.746-0.31-2.77-0.31-3.161 0-4.759 0.921-6.305 1.812-1.497 0.863-2.911 1.678-5.804 1.678s-4.305-0.817-5.801-1.68l-0.030-0.018c-0.050-0.419-0.083-0.837-0.083-1.249 0-1.963 0.588-4.902 1.682-6.661zM1.311 10.188c1.357 0.749 2.913 1.418 5.604 1.418 3.16 0 4.758-0.921 6.304-1.812 1.497-0.862 2.911-1.678 5.805-1.678 1.025 0 1.919 0.11 2.739 0.32-0.397 5.312-4.777 11.125-10.361 11.125-4.974 0.001-8.989-4.612-10.091-9.373z"></path>
</symbol>
<symbol id="icon-cup1" viewBox="0 0 32 32">
<path d="M28.111 5.022l-1.215-3.655c-0.271-0.817-1.035-1.367-1.896-1.367h-18c-0.862 0-1.625 0.55-1.898 1.367l-1.225 3.657c-1.044 0.067-1.877 0.915-1.877 1.976v3c0 1.104 0.896 2 2 2h1.034c0 0.075-0.030 0.146-0.021 0.221l2 18c0.112 1.011 0.967 1.779 1.987 1.779h14c1.020 0 1.875-0.768 1.986-1.779l2-18c0.010-0.075-0.021-0.146-0.021-0.221h1.035c1.104 0 2-0.896 2-2v-3c0-1.065-0.84-1.917-1.889-1.978zM7 2h18l1 3h-20l1-3zM9 30l-0.333-3h14.666l-0.333 3h-14zM23.443 26h-14.888l-1.111-10h17.111l-1.112 10zM24.666 15h-17.333l-0.333-3h18l-0.334 3zM28 10h-24v-3h24v3z"></path>
</symbol>
<symbol id="icon-coffee7" viewBox="0 0 32 32">
<path d="M29.984 15.548c-0.378-3.639-4.063-3.618-5.977-3.553 0.009-0.553 0.015-0.999 0.015-0.999l-22.027-0.007c0 0 0 3.014 0 3.089 0 4.281 2.445 7.984 6.011 9.809v1.068h10.019v-1.068c1-0.512 1.897-1.184 2.691-1.961 4.915-1.176 10.070-2.873 9.268-6.378zM22.25 20.066c1.123-1.725 1.786-3.775 1.786-5.988 0 0.017 0.001-0.029 0.002-0.116 1.785-0.059 3.755-0.237 4.201 1.54 0.448 1.955-2.817 3.547-5.989 4.564zM8.83 6.99c0 1-1.64 2.065-1.64 2.065s3.214-0.574 3.214-2.074-3.187-0.5-3.187-1.625 1.577-2.19 1.577-2.19-3.025 0.637-3.025 2.199 3.061 0.625 3.061 1.625zM13.83 7.99c0 1-1.64 2.065-1.64 2.065s3.214-0.574 3.214-2.074-3.187-0.5-3.187-1.625 1.577-2.19 1.577-2.19-3.026 0.637-3.026 2.199 3.062 0.625 3.062 1.625zM17.83 6.99c0 1-1.64 2.065-1.64 2.065s3.214-0.574 3.214-2.074-3.187-0.5-3.187-1.625 1.577-2.19 1.577-2.19-3.026 0.637-3.026 2.199 3.062 0.625 3.062 1.625zM1.933 25.928c0 1.381 4.925 2.5 11 2.5s11-1.119 11-2.5c0 0.029-22 0.029-22 0z"></path>
</symbol>
<symbol id="icon-drink6" viewBox="0 0 48 48">
<path d="M0 33.85c0 5.61 4.54 10.15 10.15 10.15h16.7c5.61 0 10.15-4.54 10.15-10.15v-2.030c4.13-3.14 11-5.43 11-11.82 0-4.42-3.58-8-8-8-1.061 0-2.070 0.2-3 0.58v-3.58c0-2.21-1.79-4-4-4h-29c-2.21 0-4 1.79-4 4v24.85zM37 26.1v-6.1c0-1.66 1.34-3 3-3s3 1.34 3 3c0 3.090-3.12 4.29-6 6.1zM9 12v20c0 1.1-0.9 2-2 2s-2-0.9-2-2l-0-20c0-1.1 0.9-2 2-2s2 0.9 2 2z"></path>
</symbol>
<symbol id="icon-mug2" viewBox="0 0 48 48">
<path d="M37 36.42c0.93 0.37 1.939 0.58 3 0.58 4.42 0 8-3.58 8-8v-15c0-4.42-3.58-8-8-8-1.061 0-2.070 0.21-3 0.58v-2.58c0-2.21-1.79-4-4-4h-29c-2.21 0-4 1.79-4 4v33.85c0 5.61 4.54 10.15 10.15 10.15h16.7c5.61 0 10.15-4.54 10.15-10.15v-1.43zM9 7v29c0 1.1-0.9 2-2 2s-2-0.9-2-2l-0-29c0-1.1 0.9-2 2-2s2 0.9 2 2zM43 29c0 1.66-1.34 3-3 3s-3-1.34-3-3v-15c0-1.66 1.34-3 3-3s3 1.34 3 3v15z"></path>
</symbol>
<symbol id="icon-cup2" viewBox="0 0 48 48">
<path d="M6 16.5c0 8.82 6.52 16.11 15 17.32v7.18c0 1.1-0.9 2-2 2h-5.5c-1.38 0-2.5 1.12-2.5 2.5s1.12 2.5 2.5 2.5h20c1.38 0 2.5-1.12 2.5-2.5s-1.12-2.5-2.5-2.5h-5.5c-1.1 0-2-0.9-2-2v-7.18c8.48-1.21 15-8.5 15-17.32l-0-12.5c0-2.21-1.79-4-4-4h-27c-2.21 0-4 1.79-4 4v12.5zM13.2 5h20.6c1.22 0 2.2 0.98 2.2 2.2v5.6c0 1.22-0.98 2.2-2.2 2.2h-20.6c-1.22 0-2.2-0.98-2.2-2.2v-5.6c0-1.22 0.98-2.2 2.2-2.2z"></path>
</symbol>
<symbol id="icon-drink7" viewBox="0 0 48 48">
<path d="M16 30v11c0 1.1-0.9 2-2 2l-5.5 0c-1.38 0-2.5 1.12-2.5 2.5s1.12 2.5 2.5 2.5h20c1.38 0 2.5-1.12 2.5-2.5s-1.12-2.5-2.5-2.5h-5.5c-1.1 0-2-0.9-2-2v-11l8.090-8.189c1.96 1.378 4.34 2.189 6.91 2.189 6.63 0 12-5.37 12-12s-5.37-12-12-12c-6.29 0-11.45 4.84-11.96 11h-22.060c-1.090 0-1.98 0.9-1.98 2 0 0.561 0.23 1.070 0.6 1.431l15.4 15.569zM32.7 18.181l3.72-3.771c0.359-0.36 0.58-0.86 0.58-1.41 0-1.1-0.891-2-1.98-2h-5.95c0.491-3.39 3.4-6 6.931-6 3.87 0 7 3.13 7 7s-3.13 7-7 7c-1.19-0-2.321-0.3-3.301-0.819z"></path>
</symbol>
<symbol id="icon-mug3" viewBox="0 0 48 48">
<path d="M37 38.42c0.93 0.37 1.939 0.58 3 0.58 4.42 0 8-3.58 8-8v-15c0-4.42-3.58-8-8-8-1.061 0-2.070 0.21-3 0.58v-4.58c0-2.21-1.79-4-4-4h-29c-2.21 0-4 1.79-4 4v40c0 2.21 1.79 4 4 4h29c2.21 0 4-1.79 4-4v-5.58zM7.2 5h22.6c1.22 0 2.2 0.98 2.2 2.2v5.6c0 1.22-0.98 2.2-2.2 2.2h-22.6c-1.22 0-2.2-0.98-2.2-2.2v-5.6c0-1.22 0.98-2.2 2.2-2.2zM43 31c0 1.66-1.34 3-3 3s-3-1.34-3-3v-15c0-1.66 1.34-3 3-3s3 1.34 3 3v15z"></path>
</symbol>
<symbol id="icon-coffee8" viewBox="0 0 32 32">
<path d="M24 12.998v-2c0-0.553-0.447-1-1-1h-22c-0.553 0-1 0.447-1 1v14.001c0 0.18 0.061 0.339 0.143 0.485 0.697 3.708 3.947 6.516 7.857 6.516h8c2.521 0 4.756-1.177 6.221-3h1.779c4.418 0 8-3.583 8-8.001 0-4.419-3.582-8.001-8-8.001zM24 24.999v-8.001c2.209 0 4 1.791 4 4.001 0 2.209-1.791 4-4 4zM5.198 8.504c-0.149 0.27-0.132 0.493 0.152 0.493 0.282 0 0.669-0.224 0.766-0.491 0.993-2.589-4.222-4.694-1.071-7.887 0.323-0.331 0.454-0.617 0.168-0.619-0.287-0.003-0.876 0.27-1.186 0.592-3.036 3.119 2.583 5.311 1.171 7.912zM8.975 8.516c-0.037 0.258 0.121 0.481 0.402 0.481 0.279 0 0.55-0.223 0.578-0.479 0.221-1.854-1.261-3.555-0.371-5.159 0.014-0.29-0.327-0.578-0.769-0.617s-0.834 0.179-0.849 0.467c-0.107 2.092 1.27 3.427 1.009 5.307zM13.402 8.997c0.279 0 0.5-0.223 0.553-0.47 0.507-2.396 4.648-3.134 1.526-7.413-0.334-0.442-0.927-0.848-1.214-0.852-0.288-0.005-0.313 0.39-0.122 0.827 3.107 2.932 0.124 5.036-1.197 7.438-0.044 0.247 0.176 0.47 0.454 0.47zM17.429 8.997c0.28 0 0.468-0.225 0.549-0.488 0.76-2.543 9.339-4.187 2.125-7.687-0.752-0.356-1.728-0.654-1.941-0.642-0.217 0.015 0.294 0.384 0.936 0.787 5.897 3.865 0.402 2.699-2.119 7.55-0.082 0.255 0.171 0.48 0.45 0.48z"></path>
</symbol>
<symbol id="icon-glass1" viewBox="0 0 32 32">
<path d="M24.306 0.527c-0.174-0.324-0.513-0.527-0.881-0.527h-14.85c-0.368 0-0.707 0.202-0.881 0.527-1.108 2.063-1.694 4.474-1.694 6.973 0 3.294 1.012 6.401 2.849 8.748 1.42 1.814 3.203 3.017 5.151 3.505v10.247h-3c-0.552 0-1 0.448-1 1s0.448 1 1 1h10c0.552 0 1-0.448 1-1s-0.448-1-1-1h-3v-10.247c1.949-0.488 3.732-1.691 5.151-3.505 1.837-2.347 2.849-5.454 2.849-8.748 0-2.499-0.586-4.91-1.694-6.973zM9.191 2h13.619c0.78 1.653 1.191 3.542 1.191 5.5 0 0.168-0.003 0.334-0.009 0.5h-15.981c-0.006-0.166-0.009-0.332-0.009-0.5-0-1.958 0.41-3.847 1.191-5.5z"></path>
</symbol>
<symbol id="icon-glass2" viewBox="0 0 32 32">
<path d="M27.786 5.618c0.236-0.301 0.28-0.711 0.113-1.055s-0.517-0.563-0.899-0.563h-22c-0.383 0-0.732 0.219-0.899 0.563s-0.123 0.754 0.113 1.055l9.786 12.455v11.927h-3c-0.552 0-1 0.448-1 1s0.448 1 1 1h10c0.552 0 1-0.448 1-1s-0.448-1-1-1h-3v-11.927l9.786-12.455zM24.943 6l-3.143 4h-11.599l-3.143-4h17.885z"></path>
</symbol>
<symbol id="icon-mug4" viewBox="0 0 32 32">
<path d="M30 10h-6v-3c0-2.761-5.373-5-12-5s-12 2.239-12 5v20c0 2.761 5.373 5 12 5s12-2.239 12-5v-3h6c1.105 0 2-0.895 2-2v-10c0-1.105-0.895-2-2-2zM5.502 8.075c-1.156-0.381-1.857-0.789-2.232-1.075 0.375-0.286 1.075-0.694 2.232-1.075 1.811-0.597 4.118-0.925 6.498-0.925s4.688 0.329 6.498 0.925c1.156 0.381 1.857 0.789 2.232 1.075-0.375 0.286-1.076 0.694-2.232 1.075-1.811 0.597-4.118 0.925-6.498 0.925s-4.688-0.329-6.498-0.925zM28 20h-4v-6h4v6z"></path>
</symbol>
<symbol id="icon-mug4" viewBox="0 0 32 32">
<path d="M30 10h-6v-3c0-2.761-5.373-5-12-5s-12 2.239-12 5v20c0 2.761 5.373 5 12 5s12-2.239 12-5v-3h6c1.105 0 2-0.895 2-2v-10c0-1.105-0.895-2-2-2zM5.502 8.075c-1.156-0.381-1.857-0.789-2.232-1.075 0.375-0.286 1.075-0.694 2.232-1.075 1.811-0.597 4.118-0.925 6.498-0.925s4.688 0.329 6.498 0.925c1.156 0.381 1.857 0.789 2.232 1.075-0.375 0.286-1.076 0.694-2.232 1.075-1.811 0.597-4.118 0.925-6.498 0.925s-4.688-0.329-6.498-0.925zM28 20h-4v-6h4v6z"></path>
</symbol>
<symbol id="icon-buymeacoffee" viewBox="0 0 32 32">
<path fill="#ff813f" style="fill: var(--color1, #ff813f)" d="M9.197 0l-1.621 3.732h-2.407v3.364h0.927l0.94 5.971h-1.473l1.947 10.973 1.251-0.013 1.256 7.973h11.891l0.083-0.533 1.173-7.44 1.184 0.013 1.947-10.975h-1.408l0.94-5.969h1.008v-3.363h-2.557l-1.623-3.733zM9.901 1.073h12.057l1.028 2.373h-14.117zM6.235 4.803h19.525v1.227h-19.525zM6.839 14.133h18.18l-1.568 8.827-7.532-0.080-7.515 0.080z"></path>
</symbol>
<symbol id="icon-coffeescript" viewBox="0 0 32 32">
<path d="M6.187 9.96c2.8 0.707 6.373 1.067 10.68 1.067 4.4 0 7.893-0.36 10.68-1.067 2.973-0.693 4.4-1.627 4.4-2.507 0-0.627-0.64-1.24-1.8-1.707 0.267 0.173 0.467 0.467 0.467 0.787 0 0.893-1.347 1.627-4.053 2.24-2.507 0.547-5.707 0.933-9.6 0.933-3.76 0-7.107-0.387-9.52-0.907-2.6-0.64-3.96-1.333-3.96-2.24 0-0.373 0.173-0.693 0.693-1.067-1.627 0.627-2.507 1.16-2.507 1.96 0.093 0.907 1.547 1.813 4.52 2.507zM12.44 7.080c3.027-0.267 3.907-2.213 7.453-2.533 1.747-0.133 2.853 0.213 2.973 0.827 0.107 0.573-0.76 0.96-1.813 1.040-1.453 0.147-2.053-0.373-2.173-0.867-1.080 0.12-1.253 0.573-1.2 0.893 0.12 0.613 1.427 1.227 3.667 1.013 2.533-0.2 3.387-1.2 3.173-2.2-0.267-1.307-2.213-2.4-5.707-2.067-4.48 0.4-4.453 2.48-7.507 2.733-1.253 0.12-1.947-0.173-2.067-0.667-0.080-0.493 0.533-0.733 1.253-0.787 0.667-0.067 1.48 0.053 1.867 0.267 0.28-0.147 0.373-0.293 0.347-0.467-0.133-0.467-1.053-0.667-2.213-0.587-2.267 0.2-2.267 1.213-2.187 1.667 0.227 1.16 1.973 1.933 4.133 1.733zM27.667 12.2c-2.8 0.653-6.373 1.080-10.68 1.080-4.4 0-7.987-0.453-10.773-1.067-2.507-0.64-3.84-1.347-4.307-2.080 0.24 1.64 0.653 3.227 1.187 4.733-0.64 0.4-1.213 0.893-1.733 1.56-0.852 1.032-1.368 2.367-1.368 3.823 0 0.109 0.003 0.217 0.009 0.325l-0.001-0.015c0.103 1.43 0.818 2.674 1.882 3.485l0.012 0.009c1.16 0.907 2.413 1.173 3.84 0.907 0.547-0.093 1.16-0.373 1.72-0.56-1.173 0-2.16-0.373-3.147-1.16-1.058-0.742-1.792-1.884-1.984-3.201l-0.003-0.026c-0.267-1.253 0-2.413 0.707-3.44 0.16-0.2 0.333-0.373 0.52-0.533 0.4 0.973 0.827 1.933 1.307 2.827 1.080 1.64 2.16 3.067 3.24 4.613 0.467 0.907 0.773 1.8 0.987 2.693 0.715 0.979 1.744 1.692 2.937 1.992l0.036 0.008c1.533 0.533 3.133 0.773 4.773 0.68h0.173c0.177 0.008 0.385 0.013 0.594 0.013 1.548 0 3.035-0.259 4.421-0.735l-0.096 0.029c1.179-0.352 2.166-1.049 2.87-1.973l0.010-0.014h0.093c0.173-0.893 0.467-1.787 0.893-2.693 1.067-1.56 2.16-2.973 3.227-4.613 1.39-2.52 2.432-5.45 2.963-8.554l0.023-0.166c-0.573 0.8-1.92 1.507-4.333 2.053z"></path>
</symbol>
<symbol id="icon-gitea" viewBox="0 0 32 32">
<path fill="#609926" style="fill: var(--color2, #609926)" d="M5.581 7.228c-2.46-0.005-5.755 1.559-5.573 5.48 0.284 6.125 6.56 6.693 9.068 6.743 0.275 1.149 3.227 5.112 5.412 5.32h9.573c5.741-0.381 10.040-17.363 6.853-17.427-5.271 0.248-8.395 0.373-11.073 0.395v5.3l-0.835-0.369-0.005-4.928c-3.075-0.001-5.781-0.144-10.919-0.397-0.643-0.004-1.539-0.113-2.501-0.116zM5.929 9.395h0.293c0.349 3.14 0.917 4.976 2.067 7.781-2.933-0.347-5.429-1.199-5.888-4.38-0.237-1.647 0.563-3.365 3.528-3.401zM17.339 12.481c0.2 0.003 0.404 0.040 0.596 0.128l0.999 0.431-0.716 1.305c-0.002 0-0.004-0-0.007-0-0.113 0-0.221 0.019-0.321 0.053l0.006-0.002c-0.349 0.114-0.593 0.406-0.593 0.749 0 0.097 0.019 0.189 0.055 0.275l-0.002-0.006c0.037 0.089 0.088 0.166 0.151 0.233l-0.001-0.001-1.235 2.248c-0.107 0.002-0.208 0.020-0.302 0.052l0.006-0.002c-0.349 0.114-0.593 0.406-0.593 0.749 0 0.097 0.019 0.189 0.055 0.275l-0.002-0.006c0.128 0.31 0.457 0.527 0.843 0.527 0.109 0 0.213-0.017 0.31-0.049l-0.006 0.002c0.348-0.114 0.592-0.406 0.592-0.749 0-0.097-0.020-0.19-0.056-0.277l0.002 0.006c-0.048-0.115-0.119-0.213-0.211-0.293l-0-0 1.203-2.189c0.029 0.003 0.062 0.005 0.095 0.005 0.106 0 0.207-0.016 0.302-0.046l-0.006 0.002c0.109-0.036 0.204-0.087 0.285-0.15l-0.001 0.001c0.464 0.195 0.844 0.353 1.117 0.488 0.411 0.203 0.556 0.337 0.6 0.487 0.044 0.147-0.004 0.429-0.236 0.925-0.173 0.369-0.46 0.893-0.799 1.511-0.006-0-0.013-0-0.020-0-0.113 0-0.222 0.019-0.321 0.053l0.006-0.002c-0.349 0.114-0.593 0.406-0.593 0.749 0 0.097 0.019 0.189 0.055 0.275l-0.002-0.006c0.128 0.31 0.457 0.527 0.843 0.527 0.109 0 0.213-0.017 0.31-0.049l-0.006 0.002c0.348-0.114 0.592-0.406 0.592-0.749 0-0.097-0.019-0.19-0.055-0.275l0.002 0.006c-0.043-0.104-0.105-0.194-0.183-0.27l0.001 0.001c0.335-0.611 0.623-1.136 0.808-1.531 0.251-0.536 0.381-0.935 0.267-1.32s-0.467-0.636-0.933-0.867c-0.307-0.151-0.689-0.311-1.147-0.503 0.001-0.015 0.002-0.033 0.002-0.050 0-0.096-0.019-0.188-0.054-0.274l0.002 0.006c-0.045-0.108-0.11-0.201-0.194-0.279l0 0 0.704-1.284 3.899 1.684c0.704 0.305 0.995 1.053 0.653 1.68l-2.68 4.907c-0.343 0.625-1.184 0.884-1.888 0.58l-5.516-2.384c-0.704-0.304-0.996-1.053-0.653-1.68l2.68-4.905c0.235-0.431 0.707-0.687 1.207-0.707z"></path>
</symbol>
<symbol id="icon-glassdoor" viewBox="0 0 32 32">
<path fill="#0caa41" style="fill: var(--color3, #0caa41)" d="M22.859 27.429h-18.285c0 2.524 2.044 4.571 4.568 4.571h13.715c2.524 0 4.571-2.047 4.571-4.571v-18.773c0-0.093-0.072-0.167-0.165-0.167h-4.24c-0.089 0-0.164 0.075-0.164 0.168zM22.859 0c2.523 0 4.569 2.047 4.569 4.573h-18.284v18.771c0 0.091-0.075 0.167-0.167 0.167h-4.239c-0.093 0-0.167-0.076-0.167-0.167v-18.773c0.001-2.523 2.045-4.571 4.569-4.571h13.716z"></path>
</symbol>
<symbol id="icon-ko-fi" viewBox="0 0 32 32">
<path fill="#f16061" style="fill: var(--color4, #f16061)" d="M31.841 11.931c-1.031-5.447-6.479-6.124-6.479-6.124h-24.399c-0.805 0-0.905 1.064-0.905 1.064s-0.109 9.765-0.029 15.763c0.219 3.232 3.448 3.563 3.448 3.563s11.023-0.031 15.955-0.065c3.251-0.568 3.577-3.421 3.544-4.979 5.803 0.32 9.896-3.775 8.865-9.221zM17.092 16.612c-1.661 1.937-5.348 5.301-5.348 5.301s-0.161 0.159-0.413 0.031c-0.101-0.076-0.144-0.12-0.144-0.12-0.591-0.588-4.491-4.065-5.379-5.272-0.945-1.287-1.388-3.6-0.121-4.947 1.268-1.347 4.007-1.448 5.817 0.543 0 0 2.087-2.376 4.624-1.284 2.539 1.093 2.443 4.015 0.964 5.748zM25.323 17.249c-1.237 0.155-2.243 0.037-2.243 0.037v-7.575h2.36c0 0 2.628 0.735 2.628 3.517 0 2.551-1.313 3.556-2.745 4.020z"></path>
</symbol>
<symbol id="icon-smugmug" viewBox="0 0 32 32">
<path fill="#6db944" style="fill: var(--color5, #6db944)" d="M24.413 0l-0.467 0.013c-2.067 0.173-3.28 1.6-3.467 3.040-0.2 1.6 0.867 3.2 3.44 3.040 2.867-0.16 4.12-1.6 4.133-3.040 0.027-1.533-1.333-3.040-3.64-3.053zM9.613 0.453c-0.008-0-0.018-0-0.027-0-1.771 0-3.238 1.297-3.504 2.993l-0.003 0.020c-0.2 1.507 0.747 3.027 3.253 3 2.973-0.053 4.413-1.827 4.213-3.427-0.16-1.333-1.453-2.56-3.933-2.587zM26.080 12.067c-0.197 0.004-0.383 0.014-0.567 0.029l0.033-0.002c-7.040 0.72-7.387 0.8-20.347 1.093-5.467 0.013-4.373 18.813 7.307 18.813 10.933 0 24.16-20.2 13.573-19.933zM24.613 15.667c4.24-0.093-3.867 12.707-11.733 12.747-9.947 0-8.587-11.733-6.907-11.8 11.56-0.467 14.507-0.853 18.64-0.947z"></path>
</symbol>
</defs>
</svg>
