<?xml version="1.0" encoding="UTF-8"?><svg id="Layer_2" xmlns="http://www.w3.org/2000/svg" viewBox="0 0 121.67 135.12"><g id="Layer_1-2"><path d="M69.45,121.73l.14,2.47c5.81-.2,14.63-5.86,19.7-8.33,0,0,2.51-4,2.51-4,2.2-1.03,5.01-3.14,5.31-4.36,0,0-3.04-5.9-3.04-5.9l4.72-1.35c-.07.61.79,2.29,1.27,2.56l4.66,2.59,1.14,5.22c1.23,5.65-13.86,13.46-24.32,14.26l-1.78,2.24c2.98-.64,10.37-2.1,13.25-2.89,0,0,1.29.58,1.29.58,0,0-2.18,2.71-2.18,2.71-26.17,7.37-65.04,8.66-86.86-9.54-9.9-10.98,6.87-20.47,16.58-22.09,2.52,7.42,7.05,11.55,11.48,17.08,1.52,1.9,1.8,5.3,5.03,6.37,10.27,3.39,20.96,5.32,31.1,2.41ZM11.63,104.86c-2.31-.14-3.99,1.83-2.71,3.87l2.71-3.87ZM15.15,118.72l-.75,1.61,4.75,2.21.75-1.61-4.75-2.21ZM34.39,124.85l-14.42-2.96c4.51,3.25,9.41,4.12,14.29,5.01l.13-2.05Z" fill="#f6f1e7"/><path d="M77.07,45.73c-14.79-3.23-30.98-2.59-46.13,2-6.96,2.11-14.23,7.14-11.88,11.59.1,1.35-1.13,3.22-1.13,4.96.12,3.89,1.35,12.49,1.98,16.4.71,5.14,2.93,10.33,4.33,15.17,2.85,9.13,10.71,16.87,20.01,19.46-.02.31.07,1.29-.23,1.32,0,0-1.81.15-1.81.15l-1.06,1.26c3.66,1.22,7.89,2.75,11.85,2.77,8.41.1,19.45.71,25.99-5.56-3.6,1-9.85,3.58-13.59,3.73-2.43,0-13.38.09-15.55-.19,0,0-.5-1.82-.5-1.82l7.58.35c8.92.52,17.51-1.41,24.26-6.6,0,0,5.04-2.8,5.04-2.8l-4.33,5.78c-.77,2.01-2.79,5.29-5,5.92-13.26,4.8-24.93,4.51-38.54-.28-3.24-1.07-3.51-4.46-5.03-6.36-4.43-5.53-8.96-9.65-11.48-17.08-6.03,1.26-11.92,3.93-16.4,8.14-10.29,10.84,6.31,20.08,15.68,23.16,23.44,7.05,47.46,7.2,71,.34l2.18-2.71c7.81-.35,12.64-3.17,17.18-9.49,4.25-6.03-1.37-9.65-1.21-13.56,5.55,2.86,6.02,9.76,3.15,14.65-18.76,24.44-88.86,24.73-110.57,2.19-9.41-13.2,6.49-21.7,17.97-24.78-3.14-10.82-4.69-21.87-4.76-33.36-.02-4.14,1.28-7.8,4.9-9.97,16.83-10.47,40.45-10.04,59.01-6.58.6.09,2.08,2.48,1.56,2.03,0,0-4.46-.19-4.46-.19ZM41.76,116.26l-3.33.06,2.19,1.57,1.14-1.63Z" fill="#565552"/><path d="M77.07,45.73l-.23,2.89-4.52,2.44c-1.59.92-1.42,1.05-.95,2.56-9.09-1.98-18.88-.83-27.99.28,0,0-6.21,1.2-6.21,1.2,0,0-8.08,2.72-8.08,2.72l1.89-7.02c-5.83,1.31-8.74,2.3-9.09,8.59-.7.08-2.11.01-2.82-.07-2.35-4.44,4.91-9.48,11.88-11.59,15.15-4.59,31.33-5.23,46.13-2Z" fill="#efeadf"/><path d="M107.66,59.56s.08,1.83.08,1.83c-1.81,0-5.71,1.27-6.82,2.84-.69.97.12,4.85.69,5.27,16.63-11.45,17.3,20.69-5.89,23.16,0,0-2.56,6.74-2.56,6.74,13.03-2.15,25.98-12.21,26.21-24.15,0,0,2.01.55,2.01.55-2.46,11.37-4.01,12.78-12.93,19.94-.7.59-1.04,2.6-1.28,4.61,0,0-3.54-1.57-3.54-1.57-1.18-.52-3.61,1.12-4.83,1.47-3.09.8-7.64,1.92-9.61,4.71,0,0-1.19,1.56-1.19,1.56-.22.29-1.57-.49-1.4-.8.41-.73,1.64-2.29,1.31-2.82l2.39-3.28c3.75-5.94,5.24-12.73,6.29-19.7.8-4.45,1.88-13.46,2.12-17.97,0,0-5.21,2.54-5.21,2.54.01-.55-.09-1.67-.29-2.04,3.9-.45,6.17-4.78,4.7-8.38,0,0,1.56-.2,1.56-.2,0,0,1.79,7.08,1.79,7.08l6.42-1.4ZM111.89,72.99c-.24-3-3.74-4.48-6.43-3.26-1.96.89-5.44,4.13-5.86,6.27l-2.82,14.49c9.18-1.7,15.79-9.06,15.11-17.49Z" fill="#514f4c"/><path d="M71.36,53.62l15.28,3.28,2.83,2.46,2.43,3.81s-5.18,1.19-5.18,1.19l1.21-2.58c-3.71-1.68-4.87-1.87-5.99-4.45-1,.59-2.24,1.32-.89,1.46l-.73,2.5-7.33-2.46,1.09-1.03s5.16-.63,5.16-.63c-9.23-2.72-19.9-3.74-29.14-2.27-5.49.84-13.23,1.17-18.15,3.58,0,0-5.24,2.65-5.24,2.65-.51.26-.88,2.19-.51,2.41,0,0-1.42-2.12-1.42-2.12.84-1.23,3.01-3.16,4.3-3.59l8.08-2.72,6.21-1.2c9.11-1.11,18.88-2.26,27.99-.28Z" fill="#565552"/><path d="M97.89,54.07c1.47,3.6-.8,7.94-4.7,8.38-.63-1.14-2.46-2.42-3.73-3.1l-2.83-2.46.48-3.28,4.76-3.3c1.49.86,4.64,2.75,6.01,3.76Z" fill="#efeadf"/><path d="M106.81,115.22c-3.45,3.77-9.09,6.92-13.8,9-2.9.78-10.23,2.27-13.25,2.89,0,0,1.78-2.24,1.78-2.24,10.46-.8,25.55-8.61,24.32-14.26l-1.14-5.22c.9.5,3.07,1.96,2.98,2.99l-.89,6.84Z" fill="#5e5d5d"/><path d="M58,29.03l-2.34,1.61,1.32-4.12C60.68,13.72,47.97,17.09,58.06,0c0,0,1.55,1.76,1.55,1.76l-2.49,4.63c-4.28,7.96,6.92,11.19.87,22.64Z" fill="#6f6e6e"/><path d="M111.49,115.31c-4.54,6.3-9.37,9.14-17.18,9.49,0,0-1.29-.58-1.29-.58,4.72-2.09,10.34-5.23,13.8-9,0,0,4.68.09,4.68.09Z" fill="#d9d8d5"/><path d="M121.37,75.81l-2.01-.55c.12-6.35-1.31-9.95-6.19-13.07l.16-1.85c6.39,1.71,9.34,10.33,8.04,15.47Z" fill="#5e5d5d"/><path d="M99.45,53.88l-1.56.2-2.41-1.63-3.6-2.13c-1.17-.52-7.92-3.51-8.94-3.95-2.54-1.1,2.96-2.51,14.19,4.43.71.44,2.12,2.29,2.32,3.08Z" fill="#5e5d5d"/><path d="M63.57,27.99l-.15-2.24c2.16-3.63.26-7.79-.33-11.63,4.39,2.86,5.24,10.72.48,13.87Z" fill="#6f6e6e"/><path d="M53.25,25.92l-2.33.41c-1.21-3.44-4.38-9.49-.21-12.03.09,2.2.05,4.98.55,6.31l1.99,5.31Z" fill="#7b7c7d"/><path d="M113.33,60.33l-.16,1.85c-.56-.36-2.37-.8-3.05-.8l-.4-2.02,3.6.97Z" fill="#514f4c"/><path d="M109.73,59.37l.4,2.02h-2.38s-.08-1.83-.08-1.83c.27-.2,1.17-.89,1.2-.9.02,0,.87.71.87.71Z" fill="#5e5d5d"/><path d="M84.82,95.74l-3.02,7.08c1.14-.64,3.16-2.05,3.47-2.93l2.64,3.02c.33.53-.9,2.09-1.31,2.82-.17.31,1.18,1.08,1.4.8,1.34-2.04,3.68-4.22,6.08-4.91,0,0,3.04,5.9,3.04,5.9-.31,1.21-3.11,3.33-5.31,4.36l-2.51,4c-5.09,2.47-13.87,8.12-19.7,8.33,0,0-.14-2.47-.14-2.47l7.44-2.13c2.2-.63,4.23-3.91,5-5.92l4.33-5.78c-1.93,1.03-6.26,3.47-7.99,4.74,0,0-3.58-2.21-3.58-2.21.77-2.17,1.48-5.08,2.5-6.65l4.46-6.9c.4-.61,2.77-1.06,3.21-1.14ZM80.54,104.05l-.63.1c.57.13,1.35.13,1.92,0-.32-.07-.96-.12-1.29-.1Z" fill="#ece1cf"/><path d="M34.39,124.85l-.13,2.05c-4.88-.89-9.78-1.76-14.29-5.01l14.42,2.96Z" fill="#686868"/><rect x="16.26" y="118.01" width="1.78" height="5.24" transform="translate(-99.48 85.38) rotate(-65.1)" fill="#a9aaaa"/><path d="M11.63,104.86l-2.71,3.87c-1.28-2.04.41-4.01,2.71-3.87Z" fill="#a9aaaa"/><path d="M20.26,60.86c-.26,3.85,10.26,7.41,16.99,8.55,19.99,3.07,44.22,2.9,61.45-7.46,0,0-.74,8.81-.74,8.81-1.7,10.97-2.6,23.39-10.05,32.14,0,0-2.64-3.02-2.64-3.02l1.86-5.42c.62-1.82,4.51-4.09,5.29-5.87,2.78-6.41,3.83-12.33,2.53-19.37-1.03-1.77-6.49-1.22-7.56.58,0,0-1.22,12.54-1.22,12.54-.43,4.43-4.73,9.65-.63,11.74,0,0-.71,1.66-.71,1.66-.45.08-2.82.53-3.21,1.14,0,0-4.46,6.9-4.46,6.9-1.01,1.57-1.73,4.48-2.5,6.65l3.58,2.21c-5.9,3.87-13.78,5.02-21.31,4.67l-7.58-.35s.5,1.82.5,1.82l3.22.19s-.07,1.83-.07,1.83c-4.16,0-8.53-1.72-12.37-2.91,0,0-2.19-1.57-2.19-1.57l3.33-.06s.45.51.45.51c0,0,1.81-.15,1.81-.15.3-.03.21-1.01.23-1.32,0,0,.58-7.52.58-7.52.12-1.54-2.82-4.45-3.38-6.02-2.27-6.36-4.02-13.33-4.84-20.07,0,0-1.12-9.17-1.12-9.17,0,0-7.94-1.26-7.94-1.26-3.57,2.82-5.69.87-9.08-.25,0,0-.55-6.74-.55-6.74-.07-.85.79-3.36,1-3.65l1.32.23Z" fill="#f6f1e7"/><path d="M44.25,115.3l-4.31-1.54s-5.3-3.11-5.3-3.11c-6.52-5.05-10.17-12.52-12.14-20.29,0,0,4.72-1.52,4.72-1.52l-.12-7.19c-.01-.75-2.04-2.26-2.79-2.06l-4.4,1.09-1.42-9.66c3.41,1.13,5.5,3.06,9.08.25,0,0,7.94,1.26,7.94,1.26l1.12,9.17c.82,6.73,2.57,13.71,4.84,20.07.56,1.57,3.5,4.48,3.38,6.02,0,0-.58,7.52-.58,7.52Z" fill="#f8f7f5"/><path d="M22.51,90.35c-1.08-2.87-2.11-6.39-2.6-9.68l4.4-1.09c.76-.2,2.78,1.31,2.79,2.06l.12,7.19-4.72,1.52Z" fill="#f6f1e7"/><path d="M53,120.8s.07-1.83.07-1.83c4.06-.09,14.3.53,18-1.18,0,0,7.92-2.55,7.92-2.55-6.53,6.25-17.58,5.69-25.99,5.56Z" fill="#cbc9c3"/><polygon points="20.26 60.86 18.94 60.62 19.06 59.32 20.64 59.44 20.26 60.86" fill="#d9d8d5"/><path d="M21.88,59.38l1.18,1.69c.3.43,1.45.37,1.72.34l1.42,2.12c.7,1.05,3.8.91,4.73.07,1.17-1.06,2.08-2.16,2.89-2.3l-1.75,4.43,7.49,1.72c8.56,2.47,20.04,1.67,28.94,1.14,4.28-.21,8.79-1.39,12.52-2.66,0,0,.94-4.34.94-4.34l4.77,2.77,5.18-1.19s-2.43-3.81-2.43-3.81c1.98,1.14,4.35,2.6,4.02,5.14-2.26,1.1-5.11,2.5-8.01,3.37-13.29,3.98-33.91,3.97-48.23,1.55-7.15-1.5-18.94-4.55-16.6-9.97,0,0,1.24-.06,1.24-.06Z" fill="#342316"/><path d="M29.08,57.82c-1.29.44-3.46,2.36-4.3,3.59-.27.02-1.42.09-1.72-.34l-1.18-1.69c.1-1.17.68-4.55,1.6-5.5,1.5-1.55,5.01-2.57,7.49-3.09l-1.89,7.02Z" fill="#d9d8d5"/><path d="M107.74,61.39c7.89-.71,12.1,6.1,11.63,13.87-.23,11.93-13.18,21.99-26.21,24.15,0,0,2.56-6.74,2.56-6.74,12.3-.96,21.49-14.23,16.86-22.74-2.06-3.79-7.46-3.74-10.98-.42-.57-.42-1.38-4.3-.69-5.27,1.11-1.57,5.02-2.84,6.82-2.84Z" fill="#efeadf"/><path d="M111.89,72.99c.68,8.43-5.93,15.79-15.11,17.49l2.82-14.49c.42-2.14,3.9-5.39,5.86-6.27,2.69-1.22,6.19.26,6.43,3.26Z" fill="#efede9"/><path d="M66.46,56.37l.99.14,2.5,1.5c.63.38,2.42.69,3.03.81l7.33,2.46.73-2.5,1.71.02c.63,1.13,2.47,1.72,5.17,2.98l-1.21,2.58s-4.77-2.77-4.77-2.77l-.94,4.34c-6.65,2.83-17.83,2.94-25.14,3.27-7.93.47-16.2-1.71-23.81-3.46,0,0,1.75-4.43,1.75-4.43l1.94-.34,1.74.71,1.2-.54-.02-2.22,7.05-1.51-2.71,3.27,6.86-1.16.12-2.86,9.91-.94s6.56.66,6.56.66Z" fill="#4c3928"/><path d="M50.1,54.89c-.06,1.06-.2,3.55-.22,4.63,0,0-6.86,1.16-6.86,1.16l2.71-3.27-7.05,1.51.02,2.22-2.95-.17-1.94.34c-.8.14-1.72,1.24-2.89,2.3-.92.84-4.03.97-4.73-.07-.37-.22,0-2.16.51-2.41l5.24-2.65c4.93-2.41,12.65-2.75,18.15-3.58Z" fill="#7b7c7d"/><path d="M72.98,58.82c-.61-.12-2.39-.43-3.03-.81l-2.5-1.5c-.4-.1-6.92-.73-7.54-.79,0,0-9.91.94-9.91.94,0,0,.11-1.77.11-1.77,9.23-1.47,19.91-.45,29.14,2.27,0,0-5.16.63-5.16.63l-1.09,1.03Z" fill="#a9aaaa"/><path d="M82.75,58.8c-1.64,0-3.73.14-.82-1.48,0,0,.82,1.48.82,1.48Z" fill="#a9aaaa"/><path d="M85.26,99.88c-.3.88-2.33,2.29-3.47,2.93l3.02-7.08.71-1.66,1.6.39-1.86,5.42Z" fill="#5e5d5d"/><path d="M80.54,104.05c.33-.02.97.03,1.29.1-.57.13-1.35.13-1.92,0,0,0,.63-.1.63-.1Z" fill="#5e5d5d"/><path d="M87.12,94.46c-6.4-.84-1.64-7.21-.97-12.12,0,0,1.22-12.54,1.22-12.54,1.07-1.8,6.54-2.36,7.56-.58,1.3,7.04.25,12.97-2.53,19.37-.77,1.78-4.66,4.05-5.29,5.87Z" fill="#ece1cf"/><polygon points="38.7 61.13 37.5 61.67 35.76 60.96 38.7 61.13" fill="#342316"/><path d="M67.45,56.51l-.99-.14.99.14Z" fill="#7b7c7d"/></g></svg>