<?xml version="1.0" encoding="UTF-8"?><svg id="Layer_2" xmlns="http://www.w3.org/2000/svg" viewBox="0 0 127.56 165.26"><g id="Layer_1-2"><path d="M107.79,132.7l-1.61.04c-.37.02-.56,1.56-.45,1.64l2.12.31s-1.37,5.01-1.37,5.01l3.46,1.99c-2.83,4.25-9.64,6.38-14.19,7.99,0,0-10.33,2.93-10.33,2.93-2.65.33-16.47,2.41-18.87,2.25,0,0-6.72-4.17-6.72-4.17-.82-.42-2.13-1.54-2.78-2.15,0,0,2.69-2.36,2.69-2.36h6.63s.06,1.34.06,1.34c.08.65,7.76,1.61,13.04-.46l12.77-5c2.05-.8,4.57-3.83,5.17-5.41l3.93-2.01c-2.38-1.51-4.52-2.59-6.13-2.85l.43-3.06,9.49,1.51c.58.11,1.95.74,2.37,1.07.28.22.26,1.03.28,1.39Z" fill="#f1ede4"/><path d="M25.8,57.95c-.88.41-2.22,2.5-2.09,3.53l1.04,8.23c1.16,10.17,5.25,39.08,6.72,49.63.09.62.64,2.39,1.2,2.48,1.29.21,4.25.67,5.56.88,0,0,4.12,2.15,4.12,2.15l4.96-5.46,4.99-2.42c.52-.25,2.11-.41,2.6-.25s1.54,1.56,1.58,2.12l.66,10.86c14.72,3.17,11.01,7.79,11.15,7.99-1.69,1.18-5.96,4.38-7.59,5.75-.43.34-1.38,1.24-1.11,1.54,0,0-3.9.36-3.9.36,0,0,.79-2.15.79-2.15,3.72-2.06,7.25-3.65,9.89-7.58-5.37-4.44-11.19-4.78-15.94-.33-1.99.71-1.27,1.61.67,1.32,2.7-.13,2.32,1.47.32,1.71-1.01.14-2.34.27-2.33.64l.36,1.35c-.68.06-2.02.26-2.69.33-.35.04-.67,1.15-.73,1.5l-.34,2.13c-.07.41-1.24-.58-1.48-.94,0,0-1.36-2.07-1.36-2.07l-2.17,2.95-1.42-.32,1.51-3.71-4.11,1.35c-.36.12-.92-1.22-.61-1.28l1.92-.41,1.57-1.54c1.56.15,3.78,1.31,5.21,2,.49.23,1.6-.87,2.02-1.54.52-.84.4-3.29-.42-3.84s-3.03-.16-3.84.46l-1.57,1.2-2.58-4.31c.5-.12,1.55-.39,2.06-.5,0,0,1.49,1.07,1.49,1.07.25.18.51-1.14.42-1.44-.81-5.49-6.68-9.04-11.73-6.54,0,0,.27,5.96.27,5.96l-5.09.26-1.74-2.36,4.56.98c.08-3.71.41-5.35,1.21-7.69-1.7-12.43-5.01-36.37-6.41-48.59-.38-3.77-1.52-11.78-2.3-15.47.27.22,1.22-1,1.2-1.27,0,0-.32-4.94-.32-4.94-.02-.33-.3-1.35-.08-1.59l1.68.09c-.39,2.41,1.21,5.62,2.28,7.71ZM48.48,134.44c6.9-5.46,9.08-6.29,5.55-16.07-7.17,2.34-11.25,7.31-9.09,14.14l1.71-1.15c.25-.97,1.84-2.82,2.13-2.37l-.31,5.44Z" fill="#565552"/><path d="M23.05,127.95l-1.26.95-4.37-2.97c-.76-.52-1.75-2.43-2.57-3.85,0,0,.11,3.71.11,3.71,4.01,3.14,8.92,7.84,14.14,9.12,0,0-3.36-3.82-3.36-3.82l5.09-.26c.04.96,1.41,2.73,2.19,3.61,1.44,1.04,4.84,2.19,6.46,3.04,0,0,.02.82.02.82l-5.04-.39c-4.42-.34-8.73,4-9.93,8.21l3.52,1.01-.09,2.32-7.1-2.98c-2.12-.89-7-1.03-9.1-.55-.73.16-1.84,2.51-2.26,3.19-.55.91-3.32.87-4.09.14-3.19-4.08,2.7-8.23,6.06-8.62,0,0,3.77-.37,3.77-.37l.16,1.25-7.71,2.91c3.33-.66,14.18-.41,16.86-2.88,0,0-7-1.22-7-1.22l-4.96-1.95c-4.64-1.26-10.74-3.34-12.52-8.42-.27-.76.38-3.09,1.05-3.49s2.63-.52,3.04.15l2.04,3.34,10.97,3.44,7.18,2.26c-2.33-2.37-4.38-3.3-6.86-4.12l-2.48-2.36c-3.1-2.64-3.6-10.64,1.74-10.37,0,0,2.23,1.39,2.23,1.39l-1.2,3.41,5.27,4.34Z" fill="#4c3928"/><path d="M102.13,48.76l-.29,3.27,2.63.18-1.33,5.07c-5.23,2.31-11.26,5.25-16.7,6.22,0,0-5.89,1.14-5.89,1.14l-6.34.62-9.78.51.2-6.44c8.72-2.92,26.45-.25,30.83-11.19,0,0,3.6-.83,3.6-.83.97.07,2.52.77,3.06,1.46Z" fill="#efeadf"/><path d="M89.49,43.51l4.29.88.93,2.59-2.1,5.35-5.62,1.38c-7.26,2.67-8.22-1.25-8.64-.99-2.42,1.83-6.44,3.41-9.49,3.35,1.61-2.1,5.18-6.11,5.49-8.71,0,0,3.39-1.07,3.39-1.07l4.92-1.55-.42-2.26,1.02-.81c1.62,1.12,4.31,1.84,6.23,1.84Z" fill="#efeadf"/><path d="M106.95,54.89c-1.38.18-.8,1.58-.96,2.43,0,0-.26,8.15-.26,8.15,0,0-.05,1.47-.05,1.47-.01.34,1.26.8,1.43.51l.58-.98,3.71-.67.07,1.7-6.29,2.08-.82,4.87,1.27,1.68,1.37-.19c-1.13,1.11-3.38,3.83-3.65,5.65l-3.78,25.55c4.59-.49,6.81-1.42,10.87-3.77l1.07,1.61c-4.02,2.32-7.6,3.73-12.39,4.89l-1.11,6.1s5.94-1.62,5.94-1.62l.11,1.9-4.5,1.58c-.57.2-1.79.92-2.25,1.25s.16,2,.67,2.24c0,0,3.71,1.73,3.71,1.73l-.21,1.74s-4.82-1.54-4.82-1.54c0,0-1.03,5.48-1.03,5.48l-.43,3.06c-.57-.09-2.03-.92-2.08-1.43l5.21-27.9c1.48-9.66,5.34-35.35,6.37-44.72,0,0-2.1.77-2.1.77.56-.93,1.57-5.24,1.87-6.31.07-.25-.41-.99-.57-1.2l1.95-.73,1.09,4.61Z" fill="#494949"/><path d="M104.06,116.26s-.11-1.9-.11-1.9c0,0,5.17-2.21,5.17-2.21,16.52-4.8,25.67-45.9,2.36-44.65,0,0-.07-1.7-.07-1.7,26.67-2.49,17.55,47.66-7.35,50.46Z" fill="#5e5d5d"/><path d="M36.55,44.04l-2.37,1.32-3.02-.5c.36-.89,1.32-2.24,2.11-2.61l6.01-2.79c4.41-2.05,8.66-2.6,13.8-2.68,4.86-.08,10.97-5.82,17.79-.09l-3.3,2.94c-3.07-1.04-6.38-.06-8.73.85-8.57-2.06-15.14-2.35-22.3,3.56Z" fill="#686868"/><path d="M56.48,143.2s-.79,2.15-.79,2.15c4.23-.38,10.24-1.01,14.5-1.11,0,0,0,1.94,0,1.94-4.54,0-11.1.01-15.64.02,0,0,2.52,2.36,2.52,2.36.65.61,1.95,1.73,2.78,2.15l-.32,1.45-1.24-.36-.79,1.03c3.23,2.77,8.7,6.38,13.66,7.74l-6-5.58c.94-.08,4.1-.25,5.1-.29.43,2.8-.52,3.68,2.96,4.17.04.09.82,3.41.89,3.64,0,0-2.32,2.46-2.32,2.46l-2.65-3.11-.75-.25c-1.05-.5-4.38-1.98-5.37-2.45-.99-.4-3.89-1.5-4.68-2.21,0,0-4.26-.21-4.26-.21.1-.36-1.34-1.96-1.98-2.07l-4.95-.9c.57-1.05,3.17-4,3.13-5.57l-.17-6.71,6.37,1.72ZM57.79,151.32l-2.67-.55,1.86,1.62.81-1.07Z" fill="#4c3928"/><polygon points="50.11 141.49 48.04 140.48 49.44 140.31 50.11 141.49" fill="#4c3928"/><path d="M73.21,158.86c-3.46-.49-2.53-1.35-2.96-4.17,0,0,15.17-2.07,15.17-2.07,7.7-2.53,19.25-4.12,24.52-10.92,0,0,2.51-3.43,2.51-3.43l1.31.28c-.58,1.41-2.04,5.21-3.5,6.31-4.53,3.41-9.82,6.63-15.25,7.7l-21.26,4.18s-.55,2.13-.55,2.13Z" fill="#494949"/><path d="M92.61,52.33c-8.3,6.27-19.3,4.34-27.96,6.99-3.35-.44-10.11-1.32-13.46-1.76,0,0-4.87-2.52-4.87-2.52l.07-1.54c.15-2.23,4.22,2.14,9.02,2.25l13.46.31c3.04.06,7.07-1.51,9.49-3.35.42-.26,1.39,3.66,8.64.99l5.62-1.38Z" fill="#edc393"/><path d="M95.47,48.13c-.53,1.56-1.71,3.46-2.87,4.2l2.1-5.35.77,1.14Z" fill="#edc393"/><path d="M39.24,143.9l1.42.32c-2.35,3.2-.98,8.72,2.36,10.89l4.12-1.34,4.95.9c.63.11,2.07,1.71,1.98,2.07l-7.75.14c-8.68,1.07-4-3.35-11.61-4.46-1.96-.4-5.06-2.26-6.75-2.97,0,0,.09-2.32.09-2.32l7.12-.47,4.06-2.76Z" fill="#494949"/><path d="M66.77,14.06c3.41,4.89,2.38,11.26-1.68,15.38-1-4.54,4.26-8.6.02-14.26-4.03-4.95-1.13-10.41,1.35-15.17,0,0,2.05,1.04,2.05,1.04-2.36,3.94-4.95,8.65-1.74,13.02Z" fill="#6f6e6e"/><path d="M93.77,44.39l-4.29-.88c-5.47-6.68-13.8-2.22-15.85-6.6,11.6-.02,11.26.53,21.52,5.68.44.22.92,1.62.46,1.66l-1.84.14Z" fill="#686868"/><path d="M82.24,42.47l.42,2.26-4.92,1.55-3.39,1.07-4.32-.65c1.76-2,2.67-3.05,3.56-6.19,2.15.49,6.49,1.47,8.64,1.96Z" fill="#d9b68b"/><path d="M58.4,48.74l-7.78-.94-6.46-2.21-2.02-.7c-.41-.14.95-1.31,1.36-1.35l6.49-.75-1.51,2.68,8.42,1.13c.37.05,1.34.18,1.37.52l.13,1.61Z" fill="#d9b68b"/><path d="M51.18,57.56l-1.35,4.68-6.67-1.13.1-5.11c.3.1,1.15-.01,1.39-.23l.63-1.05c.68,0,5.22,2.51,5.91,2.83Z" fill="#f8f2e7"/><path d="M23.05,127.95c.83.47,2.14,2.39,2.69,3.14,0,0,3.36,3.82,3.36,3.82-5.2-1.26-10.15-6.02-14.14-9.12,0,0-.11-3.71-.11-3.71.82,1.42,1.81,3.33,2.57,3.85l4.37,2.97,1.26-.95Z" fill="#753d14"/><path d="M113.77,138.55l-1.31-.28c.16-4.18-1.96-7.8-5.59-10.56.8-3.65,8.3,2.62,7.72,9.85l-.82,1Z" fill="#5e5d5d"/><path d="M61.77,23.85l-2,1.16c-.9-3.29-4.25-10.03-.78-12.45.42,4.44,1.39,7.58,2.78,11.29Z" fill="#6f6e6e"/><path d="M73.39,25.73c-.94-.31-1.98-.64-1.56-.5,1.18-3.62,1.47-5.26.86-7.85l-1.01-4.27c4.94,3.4,4.15,8.77,1.71,12.63Z" fill="#686868"/><path d="M36.54,51.2c1.42,1.56,6.69,2.87,8.74,3.53,0,0-.63,1.05-.63,1.05-.24.22-1.09.32-1.39.23l-6.62-2.13c-.95-.31-2.38-2.84-2.19-3.76l2.09,1.08Z" fill="#edc393"/><path d="M23.52,50.25l-1.68-.09,4.99-5.6c1.94.72,1.79.61,1.79.69l.02,2.25-5.12,2.75Z" fill="#6f6e6e"/><path d="M105.86,50.27l-1.95.73-1.78-2.25c-.55-.69-2.1-1.39-3.06-1.46-.1-.1.69-2.19,1.16-2.08,1.88.43,5.19,3.2,5.63,5.06Z" fill="#6f6e6e"/><path d="M36.55,44.04l-.22,1.95-3.54,3.26-3.88.74c.69-1.23,1.58-2.56,2.27-2.95,1.32-.74,4.06-2.27,5.37-3Z" fill="#7b7c7d"/><path d="M36.54,51.2c-.92-.48-2.84-1.47-3.75-1.95,0,0,3.54-3.26,3.54-3.26l2.14.83c.71.99-1.38,3.41-1.93,4.38Z" fill="#f8f2e7"/><path d="M17.16,133.39l.33-1.86c2.48.82,4.53,1.75,6.86,4.12l-7.18-2.26Z" fill="#a9aaaa"/><path d="M21.93,51.75l.32,4.94c.02.27-.93,1.48-1.2,1.27l-.94-4.01c-.15-.63,1.4-2.46,1.81-2.2Z" fill="#6f6e6e"/><path d="M17.55,140.32c-1.4-.16-4.65.13-6.07.31,0,0,1.11-2.26,1.11-2.26l4.96,1.95Z" fill="#a9aaaa"/><polygon points="101.48 124.8 101.69 123.06 104.81 124.22 104.36 125.96 101.48 124.8" fill="#6f6e6e"/><path d="M71.78,164.96l2.32-2.46-.8-3.25,3.01,3.17c-.79.61-2.55,2.79-3.59,2.84,0,0-.95-.3-.95-.3Z" fill="#494949"/><path d="M107.7,66.46l-.58.98c-.17.29-1.44-.17-1.43-.51l.05-1.47,1.97,1Z" fill="#6f6e6e"/><path d="M105.99,57.31l.06-1.69c.01-.34.21-.56.9-.73.15.16,1,1.16.64,1.41l-1.6,1.02Z" fill="#6f6e6e"/><path d="M107.79,132.7c.32,2.7.2,1.91-2.05,1.69-.11-.08.08-1.62.45-1.64l1.61-.04Z" fill="#a9aaaa"/><path d="M59.6,157.77l-1.28-.82,1.28.82Z" fill="#494949"/><path d="M64.46,159.82l-1.46-.67,1.46.67Z" fill="#494949"/><path d="M69.12,161.85l-.75-.25.75.25Z" fill="#494949"/><path d="M95.21,131.8c1.61.26,3.75,1.35,6.13,2.85-5.94,2.86-2.03,2.22-6.78-.21-.97-.38-2.7,1.15-3.44,1.83l-3.59,2.54c-4.42,2.73-10.19,5.47-15.37,5.41-1.33-.03-5.23.14-6.61.22,0,0-5.96.54-5.96.54-.27-.3.68-1.2,1.11-1.54l4.88-3.83,2.72-1.92,1.44,2.06c.4.58,1.82,2.2,2.52,2.03l10.22-2.56c1.06-.26,2.36-2.74,2.44-3.56,3.21-2.4,6.61-6.28,7.26-10.84,0,0,1.47-10.36,1.47-10.36.99-5.77,2.97-12.5,2.01-18.32.47-.9,1.89-3.71,2.09-5.08l1.68-11.29s-9.4,4.22-9.4,4.22c.2-3.39.8-11.2,1.15-14.52-.46-.19-2.69-.37-2.9.21l-1.31,3.63c-.51,1.4-4.13.2-5.57-1.42,0,0-6.81.89-6.81.89-6.07-.02-24.46-2.88-30.85-3.27,0,0-11.41-3.6-11.41-3.6l1.45-2.31s4.75.98,4.75.98c11.79,3.48,24.36,4.49,36.47,2.83,0,0,11.26-1.83,11.26-1.83,0,0,13.91-4.8,13.91-4.8.84-.29,2.12-1.54,2.44-2.29l2.1-.77s-1.84,14.45-1.84,14.45c-1.97,14.59-6.78,43.8-9.74,58.18.06.5,1.52,1.33,2.08,1.43ZM97,66.55l-1.23,12.17,2.17.22,1.23-12.17-2.17-.22Z" fill="#ece1cf"/><path d="M97.41,136.66c-.6,1.58-3.12,4.61-5.17,5.41l-12.77,5c-5.28,2.07-12.96,1.11-13.04.46l-.06-1.35h3.81c7.1-.34,18.83-2.81,20.94-9.91,2.46-2.48,4.04-2.44,6.29.38Z" fill="#d9d8d5"/><polygon points="66.55 154.88 65.15 154.98 59.51 152.16 59.83 150.71 66.55 154.88" fill="#494949"/><polygon points="59.74 146.2 57.06 148.56 54.54 146.2 59.74 146.2" fill="#d9d8d5"/><path d="M84.91,135.67c-4.85,2.05-9.75,3.43-15.17,4.09,0,0-1.44-2.06-1.44-2.06-.14-.2,3.57-4.82-11.15-7.99l-.66-10.86c-.03-.55-1.08-1.96-1.58-2.12s-2.08,0-2.6.25l-4.99,2.42c-1.15-7.58-2.76-23.04-3.29-30.72,0,0-1.93-3.37-1.93-3.37,2.9.79,8.12,2.35,11.1,2.24,0,0,.18,1.84.18,1.84l11.13.31s15.14-.9,15.14-.9c.42-.03,1.67-.67,1.76-1.01,0,0,.3-1.32.3-1.32,5.32-.58,12.86-4.6,17.74-6.69,0,0-1.68,11.29-1.68,11.29-.2,1.37-1.62,4.18-2.09,5.08.98,5.8-1.02,12.56-2.01,18.32-1.25,8.49-.94,15.83-8.73,21.21ZM88.67,124.09l-2.01-.36-3.04,8.2c2.95-1.3,3.87-3.44,5.04-7.84Z" fill="#f8dfbd"/><path d="M33.78,63.62l-1.45,2.31,11.41,3.6c6.44.4,24.75,3.25,30.85,3.27,0,0,6.81-.89,6.81-.89,1.44,1.62,5.06,2.82,5.57,1.42l1.31-3.63c.21-.59,2.44-.41,2.9-.21,0,0-.52,5.62-.52,5.62l-.63,8.91c-2.34,1.05-5.76,2.14-8.33,2.46,0,0-7.78.97-7.78.97l-9.39.39c-3.24-.2-12.79,0-15.84-.76,0,0-6.6-1.75-6.6-1.75,0,0,1.93,3.37,1.93,3.37,0,0,1.4,16.14,1.4,16.14,0,0,1.89,14.58,1.89,14.58l-4.96,5.46s-4.12-2.15-4.12-2.15c.22.15,1.64-2.14,1.57-2.73-.57-5.06-1.86-15.3-2.64-20.28,0,0-1.94-16.86-1.94-16.86l-6.82-4.11c.84,5.03,2.32,19.1,2.85,24.37.73,4.52,2.5,14.72,3.61,19.09-2.42-.36-2.8-.08-3.39-2.83-1.49-10.73-5.52-39.26-6.72-49.63,0,0,3.26-5.09,3.26-5.09,1.18-.23,4.55-1.35,5.77-1Z" fill="#f8f2e7"/><path d="M38.23,122.71l-3.37-.54c-2.52-9.94-4.44-25.24-5.35-35.52,0,0-1.11-7.93-1.11-7.93l6.82,4.11c.65,5.96,2.32,20.27,3.26,26.02,0,0,1.33,11.12,1.33,11.12.07.59-1.35,2.88-1.57,2.73Z" fill="#f8dfbd"/><path d="M56.48,143.2l-6.37-1.72-.66-1.18-.36-1.35c0-.37,1.33-.51,2.33-.64,2-.24,2.38-1.84-.32-1.71-1.94.29-2.65-.61-.67-1.32,4.75-4.45,10.58-4.11,15.94.33-2.64,3.93-6.16,5.53-9.89,7.58Z" fill="#f8dfbd"/><path d="M48.04,140.48l2.07,1.01.17,6.71c.04,1.57-2.56,4.52-3.13,5.57l-4.12,1.34c-3.34-2.17-4.71-7.69-2.36-10.89l2.17-2.95,1.36,2.07c.24.36,1.41,1.35,1.48.94l.34-2.13c.06-.34.38-1.45.73-1.5l1.29-.16Z" fill="#f8dfbd"/><path d="M42.06,130.63l-1.68,1.14c-.51.11-1.56.37-2.06.5,0,0-2.7,3.47-2.7,3.47-.62-.28-2.16-.82-2.6-1.3-.78-.88-2.15-2.65-2.19-3.61,0,0-.27-5.96-.27-5.96,4.4-2.41,10.72.78,11.5,5.77Z" fill="#ece1cf"/><path d="M36.09,61.79l-7.15-2.77c-.39-.15-2.09-.21-1.98.15l.75,1.9-1.56.97c-.35.22-.13,1.41.28,1.44h1.6c0,.25.09.95-.01,1.15l-3.26,5.09-1.04-8.23c-.13-1.03,1.21-3.12,2.09-3.53.37-.05,1.83-.27,1.56-.23l.1-5.91c2.62,7.9,8.85,7.25,8.89,8.55l-.28,1.43Z" fill="#efeadf"/><path d="M39.51,138.3l-.02-.82,1.42-.89c1.27-1.19,3.7-2.56,5.41-1.66.83.55.95,3,.42,3.84-.42.67-1.53,1.77-2.02,1.54-1.43-.68-3.65-1.86-5.21-2Z" fill="#d09256"/><polygon points="38.32 132.27 40.9 136.58 39.48 137.47 35.62 135.74 38.32 132.27" fill="#f8dfbd"/><path d="M40.38,131.77l1.68-1.14.23.77c.09.3-.17,1.62-.42,1.44l-1.49-1.07Z" fill="#f8dfbd"/><path d="M48.48,134.44l.31-5.44c-.29-.45-1.88,1.39-2.13,2.37l-1.71,1.15c-2.16-6.83,1.92-11.8,9.09-14.14,3.53,9.8,1.34,10.61-5.55,16.07Z" fill="#f8dfbd"/><path d="M39.51,138.3l-1.57,1.54-1.92.41c-.31.07.25,1.4.61,1.28l4.11-1.35-1.51,3.71-4.06,2.76-7.12.47-3.52-1.01c1.2-4.21,5.51-8.55,9.93-8.21l5.04.39Z" fill="#f8dfbd"/><path d="M17.55,140.32l7,1.22c-2.61,2.45-13.6,2.24-16.86,2.88,0,0,7.71-2.91,7.71-2.91l-.16-1.25,2.3.06Z" fill="#965d2f"/><path d="M60.55,65.84c7.96-.19,18.12-.54,25.9-2.35,0,0-.18,2.11-.18,2.11l-11.26,1.83c-11.07,1.8-21.99.29-33.04-1.67,0,0-3.43-1.17-3.43-1.17,0,0,0-1.42,0-1.42l22.02,2.66Z" fill="#565552"/><path d="M64.64,59.32l-.2,6.44-3.89.08c.05-1.11-1.72-2.41-2.88-2.56l-7.83-1.03,1.35-4.68,6.79.89,6.67.87Z" fill="#f8f7f5"/><path d="M102.61,58.52c-.32.75-1.6,2-2.44,2.29l-13.91,4.8.18-2.11c5.44-.97,11.47-3.92,16.7-6.22,0,0-.54,1.25-.54,1.25Z" fill="#686868"/><path d="M103.9,51.01c.16.2.63.95.57,1.2l-2.63-.18.29-3.27,1.78,2.25Z" fill="#f8f7f5"/><path d="M111.47,67.5c23.31-1.25,14.17,39.84-2.36,44.65,0,0-5.17,2.21-5.17,2.21,0,0-5.94,1.62-5.94,1.62,0,0,1.11-6.1,1.11-6.1,4.8-1.16,8.38-2.57,12.39-4.89l-1.07-1.61c-4.06,2.35-6.27,3.29-10.87,3.77l3.78-25.55c.27-1.82,2.51-4.54,3.65-5.65,0,0,8.88-.76,8.88-.76,0,0-.07-1.49-.07-1.49-4.39-.85-8.02-1.06-10.18,2.44l-1.27-1.68.82-4.87,6.29-2.08ZM116.59,93.82l-3.36,7.45c3.29-1.56,4.22-4.28,5.05-7.11,2.16-7.37,1.63-16.06.5-16.52l-1.79-.72c.06,3.75,1.47,13.51-.4,16.9Z" fill="#efede9"/><path d="M107,75.95l-1.37.19c2.16-3.5,5.79-3.29,10.18-2.44l.07,1.49-8.88.76Z" fill="#5e5d5d"/><path d="M59.51,152.16l5.64,2.82,6,5.58c-5.27-1.48-10.7-5.14-14.17-8.17,0,0-1.86-1.62-1.86-1.62l2.67.55c.14.03.23.13.49.48l1.24.36Z" fill="#965d2f"/><polygon points="72.16 144.24 72.2 146.17 70.18 146.18 70.19 144.24 72.16 144.24" fill="#565552"/><path d="M43.16,61.12l6.67,1.13,7.83,1.03c1.16.15,2.93,1.45,2.88,2.56l-22.02-2.66-.32-1.5c1.12-.37,3.69-.78,4.96-.56Z" fill="#efeadf"/><path d="M84.91,135.67c-.08.82-1.38,3.29-2.44,3.56l-10.22,2.56c-.69.17-2.11-1.45-2.52-2.03,5.42-.65,10.33-2.04,15.17-4.09Z" fill="#5e5d5d"/><path d="M91.12,136.28c-1.31,5.05-8.42,7.95-14.1,9,0,0-.15-1.6-.15-1.6,4.68-1.37,10.38-4.28,14.25-7.4Z" fill="#5e5d5d"/><path d="M36.09,61.79c.47.18,1.74-.05,2.11-.11l.32,1.5v1.42s-4.74-.98-4.74-.98c-.41-.08-1.33-.04-1.59-.03l-3.98-2.63c-.09-.05-.4.03-.5.09l-.75-1.9c-.11-.35,1.59-.3,1.98-.15l7.15,2.77Z" fill="#686868"/><rect x="91.36" y="71.65" width="12.23" height="2.18" transform="translate(15.3 162.42) rotate(-84.23)" fill="#5e5d5d"/><path d="M76.87,143.68l.15,1.6-4.82.89-.03-1.93c1.18,0,3.54-.18,4.71-.56Z" fill="#4c3928"/><path d="M81.7,86.47l-.3,1.32c-.08.34-1.34.99-1.76,1.01l-15.14.9-11.13-.31-.18-1.84c8.49.39,20.13.33,28.51-1.08Z" fill="#edc393"/><path d="M88.67,124.09c-1.17,4.4-2.09,6.54-5.04,7.84l3.04-8.2,2.01.36Z" fill="#686868"/><path d="M32.19,63.6l-4.18,1.02c.05-.73.09-2.87.2-3.65,0,0,3.98,2.63,3.98,2.63Z" fill="#ece1cf"/><path d="M28.22,60.97l-.19,2.52h-1.6c-.41-.04-.63-1.23-.28-1.45.34-.15,1.68-1.22,2.07-1.07Z" fill="#f8f2e7"/><path d="M118.28,94.16l-1.69-.34c.47-1.04,1.13-3.99,1.06-5.25l-.66-11.65,1.79.72c1.13.46,1.66,9.15-.5,16.52Z" fill="#5e5d5d"/><path d="M116.59,93.82l1.69.34c-.83,2.83-1.76,5.54-5.05,7.11l3.36-7.45Z" fill="#6f6e6e"/></g></svg>