<?xml version="1.0" encoding="UTF-8"?><svg id="Layer_2" xmlns="http://www.w3.org/2000/svg" viewBox="0 0 122.24 135.13"><g id="Layer_1-2"><path d="M19.64,23.93l-.75,1.84c-.1.48,1.32,1.71,1.92,1.9,0,0,13.26,4.06,13.26,4.06.65,3.4.93,13.16,1.01,16.76,0,0-7.69-1.39-7.69-1.39l-.24-1.03c-.36-1.03-2.88-.17-4.99-2.81,0,0-1.19-1.49-1.19-1.49-.22-.28-1.18.83-1.13,1.18,0,0,1.61,12.22,1.61,12.22.05.39.83,2.17,1.26,1.71.95,12.26,4.19,33.09,5.45,45.45.47,3.85,6.77,8.64,11.65,10l7.13,1.98c8.42,2.42,18.3-.18,26.86-.92-1.88.88-6.22,2.16-8.41,2.66-.35.08-1.12,1.95-.77,1.93,3.98.29,9.89-1.68,11.58-5.06.14-.48.12-1.96.58-2.14l2.39-.92,3.95,1.76c-.99,1.84-3.46,4.31-5.69,5.22-21.61,10.89-57.25-3.25-36.17-.19-.18.5.8-1.3.46-1.43l-1.66-.64-5.4-1.7-.47,3.51s-6.39-3.73-6.39-3.73c-.45.25.46,3.52,1.43,4.06,8.27,4.6,17.82,6.53,26.9,6.4l.22,4.63-12.52-.84c-1.94-.13-3.79-1.4-5.53.74,19.31,4.62,39,1.04,57-5.42,0,0,1.81.52,1.81.52,0,0,.18.66.18.66,0,0,.24,1.1.24,1.1,0,0-4.51,2.06-4.51,2.06-15.43,9.89-94.68,10-91.02-18.36,3.6-7.83,12.46-11.32,20.31-13.8,0,0,2.18,13.3,2.18,13.3.14.83,2.26,2.38,2.5,2.07l-2.22-13.68s-3.01-21.38-3.01-21.38l-1.93.46-.22-.5s1.39-5.11,1.39-5.11c0,0-6.23-48.07-6.23-48.07l4.88,2.44ZM8.57,110.73c-.22-2.11,2.84-6.22,4.82-6.91l4.69-3.42c-4.63.14-8.06,2.73-10.22,6.09-2,3.11-1.91,7.2,1.23,9.33l-.52-5.09ZM53.32,117.54v1.92h7.68v-1.92h-7.68Z" fill="#f1ede4"/><path d="M.32,107.88s1.67.32,1.67.32c-1.59,3.28.88,8.93,4.01,11.53,20.91,16.51,69.04,16.85,91.52,4.77,0,0,1.02-.1,1.02-.1l2.92-1.73c4.13-2.89,8.7-5.89,9.08-11.98.3-7.34-9.69-13.44-16.96-15.18l-.99-2.01c5.63,1.71,12.45,4.04,16.46,8.49,14.64,20.04-20.44,29.8-35.51,31.82-17.9,3.95-78.49.09-73.21-25.93Z" fill="#565552"/><path d="M94.67,19.84c-8.81,8.25-35.76,10.45-48.06,8.72-8.1-1.04-19.59-1.52-26.11-6.49.03-1.52.73-2.62-1.52-2.52,0,0-.15-3.74-.15-3.74l2.71-.27c-.29,3.5,3.21,6.59,6.44,7.27l10.66,2.22c9.26,1.93,18.77,3.04,28.1,1.21l11.03-2.17,10.6-3.9c1-.37,2.45-1.4,2.51-2.24l.29-4.03c1.61,1.46,2.81,3.98,3.5,5.93Z" fill="#edc393"/><path d="M2,108.2l-1.67-.32c2.37-8.16,11.81-12.59,21.69-15.56l-2.19-17.15,1.93-.46c1.12,8.38,3.8,26.9,5.23,35.06-.24.31-2.36-1.24-2.5-2.07l-2.18-13.3c-7.85,2.48-16.71,5.97-20.31,13.8Z" fill="#5e5d5d"/><path d="M37.13,7.44c-.39,2.86.12,2.38,2.4,2.86,0,0-5.64,4.49-5.64,4.49,2.19.81,6.86,2.47,9.06,3.16,0,0-.33,1.73-.33,1.73-3.66-.7-7.55-1.98-11.09-3.87l-.35-5.28c-3.95.75-7.35,2.4-9.62,5.01,0,0-2.71.27-2.71.27,3.54-6.25,11.12-8.41,18.29-8.38Z" fill="#ece1cf"/><path d="M99.61,14.4s-1.69.57-1.69.57c-4.6-8.14-17-9.32-25.15-11.69,0,0-.07-1.99-.07-1.99,8.21,1.75,25.28,5.13,26.91,13.11Z" fill="#5e5d5d"/><path d="M56.69,7.37l.79-1.94,4.2.4c4.21.5,12.68,1.53,16.88,2.05,0,0,.11,2.73.11,2.73-2.56-.92-6.56-1.73-9.05-1.61,0,0,1.7,2.64,1.7,2.64.27.43-.14,1.64-.3,2.06l-1.78-1.09c-1.93-4.92-8.18-4.72-12.53-5.24Z" fill="#f8dfbd"/><path d="M60.73,22.35l-2.73-.34c-.37-.05.94-1.57,1.31-1.65l16.86-3.56c1.1-.23,2.5-2.6,3.4-4.09l2.02,2.13c-1.44,2.5-3.37,4.58-5.94,5.01l-14.91,2.5Z" fill="#edc393"/><path d="M63.45,1.86l-22.22.94c-.17-.18,1.54-2.07,2.31-2.1l17.99-.7,1.97.3c.36.05.02,1.85-.04,1.56Z" fill="#494949"/><path d="M121.51,46.37l-1.81.33c-1.17-4.84-3.62-8.84-8.39-11l.47-1.76c5.04,1.26,8.87,7.21,9.73,12.42Z" fill="#5e5d5d"/><path d="M60.55,14.56l-10.82-.41-.02-1.96,7.23-.55c.99-.07,3.43.69,4.85,1.02.56-.85-.88,1.91-1.25,1.9Z" fill="#f8dfbd"/><path d="M36.59,3.94l-12.64,2.51c4.05-4,8.38-3.66,12.86-4.33l-.22,1.82Z" fill="#565552"/><path d="M57.48,5.43l-.79,1.94c-3.25.35-10.86.69-14.2.8,0,0,2.1-1.95,2.1-1.95,3.21-.18,9.67-.59,12.88-.8Z" fill="#aaae63"/><path d="M42.62,19.68l.33-1.73c1.29.24,6.87,1.3,8.05,1.52.32.06.24,1.15-.05,1.3l-1.55.8-6.77-1.89Z" fill="#edc393"/><path d="M21.9,7.18c-1.06,2.52-3.39,3.73-6.19,3.69,1.11-2.39,3.34-3.69,6.19-3.69Z" fill="#6f6e6e"/><path d="M39.53,10.31c-2.29-.48-2.79-.01-2.4-2.86,0,0,5.51,1.4,5.51,1.4l-3.11,1.47Z" fill="#aaae63"/><path d="M20.5,22.07l-3.27-2.28c.84-.06,3.07-.68,3.4.38,0,0-.13,1.9-.13,1.9Z" fill="#ece1cf"/><path d="M27.39,47.08c6.02,1,14.18,2.78,20.12,4.05,0,0,.71.99.71.99.27.28,1.48.35,2.42.31,0,0,20.41-.94,20.41-.94.9-.04,2.97-2.01,2.33-2.13,1.65-.25,4.99-.88,6.62-1.22,0,0,.62,5.99.62,5.99-1.01,9.32-4.01,37.36-5.24,46.19.19.32.75,1.24,1.3,1.25,0,0-.92,1.79-.92,1.79l-2.54-.02s1.14,1.7,1.14,1.7l.3,2.15c-.74,1.14-2.38,2.73-3.63,3.08l-5.39,1.51c-3.8,1.06-11.05,2.41-14.49.42-3.7-2.14-6.59-4-10.69-3.08l-.64,3.16c-4.88-1.36-11.18-6.15-11.65-10-1.11-9.81-3.75-30.43-5.06-40.07-.52-3.48-.39-12.71-.44-16.31,0,0,4.73,1.16,4.73,1.16ZM34.72,103.85c.4,2.75,5.39,4.14,6.32,2.38l-2.63-26.11-2.58-28.82s-7.64-.78-7.64-.78c.34,3.32,1.03,9.96,1.38,13.27.97,10,3.57,30.11,5.14,40.06Z" fill="#edc393"/><path d="M62.9,34.1l6.59-.11s.64,1.93.64,1.93c.21.5,2.26.1,2.34-.44l.12-1.4c1.72.03,5.88.6,7.63.84,2.19.41,3.19-.38,2.75,2.78,0,0-.78,9.35-.78,9.35l-2.19,1.1c-4.34,1.15-15.9,2.21-20.5,2.71,0,0-11.98.28-11.98.28l-6.1-1.29-6.34-1.37c-.08-3.71-.35-13.21-1.01-16.75,8.9,2.71,19.2,2.13,28.83,2.38Z" fill="#f8f2e7"/><path d="M91.04,43.47s.47-.34.47-.34c-.04.57.36,2.03.5,2.57l-1.34,1.13s-1.9.35-1.9.35l-1.45,10.2c-1.12.09-1.09.25.02.69,0,0-1.86,14.86-1.86,14.86-.07.59,1.18,2.76,1.71,2.3.78,3.27-.17,8.24-2.01,11.62-.5.92-1.39,2.86-1.57,3.97l-1.38,8.71-1.52,6.63.33,1.02-1.89,2.66-2.39.92c-.46.18-.44,1.66-.58,2.14l-2.4.47c-8.56.73-18.44,3.34-26.86.92,0,0-7.13-1.98-7.13-1.98l.64-3.16c4.1-.92,6.99.94,10.69,3.08,3.44,1.99,10.69.64,14.49-.42l5.39-1.51c1.24-.35,2.88-1.94,3.63-3.08,3.01-1.68,5.15-5.39,5.79-9.89l-1.04-2.09-2.73,6.34c-.54-.01-1.11-.93-1.3-1.25,1.22-8.71,4.25-37.01,5.24-46.19,0,0-.62-5.99-.62-5.99,3.02-1.61,7.9-3.35,11.05-4.68Z" fill="#d9b68b"/><path d="M88.64,103.21s6.36-.96,6.36-.96c2.82-.57,6.41,1.61,7.56,4.43l-5.39.68c-4.75,5.68-10.34,10.81-17.38,13.53,0,0-.76,4.51-.76,4.51-3.48.66-10.57,1.76-14.1,2.01,0,0-8.57.32-8.57.32,0,0-.22-4.63-.22-4.63,10.56-.15,26.6-2.79,29.49-12.08,0,0-2.5.58-2.5.58,0,0-3.95-1.76-3.95-1.76l1.89-2.66c.55-.56,2.11-2.1,2.24-2.97l1.61-10.39.28-6.97c1.84-3.38,2.79-8.34,2.01-11.62l-.17-2.68.86-1.01,1.35-.28c1.15-.83.47-3.67.34-4.91-.04-.32-.36-.22-1.28-.26l.27-2.13,1.44-.35c.33-.15.49-1.16.59-1.66l1.51-7.66c.88-3.94.06-7.73-.61-11.16,0,0,.98-13.51.98-13.51,0,0,1.33-3.29,1.33-3.29.24-.58-2.31-1.44-2.47-1.64l5.9-3.1c-2.25,22.53-6.09,49.54-9.24,71.94,0,0-2.14,13.14-2.14,13.14-.24-.18.94.7,1.5,1.12l1.26-4.58Z" fill="#ece1cf"/><path d="M91.35,24.69c.16.2,2.7,1.06,2.47,1.64l-1.33,3.29c.04-.44-1.85.23-1.91.71,0,0-1.34,11.21-1.34,11.21l1.8,1.92c-2.11.87-6.71,2.7-8.86,3.58,0,0,.78-9.35.78-9.35.43-3.12-.5-2.38-2.75-2.78,0,0-4.9-.64-4.9-.64l.96-3-11.28,1.63c-.54.08-2.57,1.07-2.09,1.2l-4.78-.07c-8.3-.12-16.53-.01-24.05-2.31,0,0-13.26-4.06-13.26-4.06-.6-.18-2.02-1.41-1.92-1.9l.75-1.84c7.44,3.72,16.07,6.01,24.85,6.34,16.31,1.21,31.81.73,46.86-5.58ZM83.81,32.54l-1.74.04c0,1.83,1.44,2.56,1.74-.04Z" fill="#f8dfbd"/><path d="M56.13,123.11c-9.08.13-18.63-1.8-26.9-6.4-.97-.54-1.88-3.81-1.43-4.06l6.39,3.73.47-3.51c1.28.41,5.93,1.82,7.06,2.34.33.13-.64,1.93-.46,1.43-3.08-.44-3.85-.96-7.01-.02,13.45,6.18,29.14,5.96,43.18.21,2.24-.92,4.7-3.38,5.69-5.22,0,0,2.5-.58,2.5-.58-2.89,9.29-18.93,11.94-29.49,12.08Z" fill="#5e5d5d"/><path d="M104.28,120.66l-.97.72s-1.41.28-1.41.28c-.28.1-.42.34-.43,1,0,0-2.92,1.73-2.92,1.73l-1.26-1-.18-.66,1.18-1.42-2.99.91c-6.25,1.9-13.2,4.72-20.09,5.66l-9.45,1.29s-.85-1.75-.85-1.75c3.54-.28,10.62-1.31,14.1-2.01,0,0,15.01-4.7,15.01-4.7l6.02-3.6c2.7-1.61,3.47-5.44,4.16-8.63,3.06,5.05-3.38,10.59-1.67,11.44l1.73.74ZM100.84,119.46l-.48.48.48.48.48-.48-.48-.48Z" fill="#686868"/><path d="M56.35,127.73l8.57-.32.85,1.75c-8.96,1.22-18.04.57-27.47-1.53,1.74-2.14,3.6-.87,5.53-.74l12.52.84Z" fill="#514f4c"/><path d="M27.39,47.08l-4.73-1.16.06,10.93c-.43.47-1.21-1.31-1.26-1.71l-1.61-12.22c-.05-.35.91-1.46,1.13-1.18l1.19,1.49c2.69,3.23,5.12,1.1,5.23,3.85Z" fill="#aaae63"/><path d="M8.57,110.73l.52,5.09c-3.14-2.12-3.23-6.22-1.23-9.33,2.16-3.36,5.59-5.95,10.22-6.09l-4.69,3.42c-1.98.69-5.04,4.8-4.82,6.91Z" fill="#5e5d5d"/><path d="M76.2,112.9c-1.16,2.44-5.7,4.81-8.91,4.94l-2.67.11c-.36.02.42-1.85.77-1.93,3.35-.62,7.62-2.62,10.81-3.12Z" fill="#686868"/><rect x="53.32" y="117.54" width="7.68" height="1.92" fill="#a9aaaa"/><polygon points="97.11 122.73 95.3 122.21 98.29 121.31 97.11 122.73" fill="#efeadf"/><polygon points="98.55 124.39 97.53 124.5 97.29 123.39 98.55 124.39" fill="#efeadf"/><path d="M111.31,35.7c13.91,7.34,9.77,27.87,3.1,39.32-1.64,2.65-8.62,8.51-10.73,9.18,0,0-12.5,3.97-12.5,3.97l.83-7.5c6.28.41,10.24-1.08,13.34-5.38l-9.59,3.51c-.79.29-3.8-.22-3.66-.99.3-.57,3.85-27.05,4.08-28.41,0,0,2.34-3.5,2.34-3.5,3.57-1.4,5.46-2.68,10.27-1.72-.08.11.38-.5,1.35-1.75-4.78-1.27-9.01-.8-12.36,2.05-.85-1.64-.86-6.22.81-7.32,3.59-2.38,9.34-2.99,12.72-1.46ZM113.98,51.8l-.65-4.79-2.13-.26c2.22,8.76.43,16.44-3.21,24.68,3.98.46,6.77-13.83,5.99-19.63Z" fill="#efede9"/><path d="M93.59,95.51c13.19,3.12,24.32,15.5,10.69,25.15,0,0-1.73-.74-1.73-.74-1.71-.85,4.73-6.39,1.67-11.44-.69,3.19-1.46,7.02-4.16,8.63l-6.02,3.6-15.01,4.7s.76-4.51.76-4.51c5.21-2.22,9.81-5.19,13.57-9.34l3.8-4.19,5.39-.68c-2.99-6.24-8.67-4.24-13.92-3.47,0,0,1.34-8.56,1.34-8.56,0,0,3.61.86,3.61.86Z" fill="#f1ede4"/><path d="M98.53,45.9l-.74-1.42c3.35-2.85,7.58-3.32,12.36-2.05-.96,1.26-1.43,1.86-1.35,1.75-4.81-.95-6.7.31-10.27,1.72Z" fill="#686868"/><path d="M103.31,121.38l-1.84,1.28c-.12-1.33,1.07-1.03,1.84-1.28Z" fill="#efeadf"/><path d="M34.72,103.85c-1.57-9.96-4.18-30.04-5.14-40.06-.35-3.3-1.05-9.97-1.38-13.27,0,0,7.64.78,7.64.78l2.58,28.82,2.63,26.11c-.93,1.77-5.92.37-6.32-2.38Z" fill="#f8dfbd"/><path d="M73.38,49.37c.65.11-1.43,2.09-2.33,2.13l-20.41.94c-.94.04-2.15-.03-2.42-.31l-.71-.99,11.98-.28,13.88-1.48Z" fill="#d09256"/><path d="M74.64,107.21l-.3-2.15,1.4-1.69.92-1.79,2.73-6.34,1.04,2.09c-.64,4.49-2.79,8.21-5.79,9.89Z" fill="#4c3928"/><polygon points="75.75 103.37 74.35 105.05 73.21 103.35 75.75 103.37" fill="#d9b68b"/><path d="M75.32,34.27c-3.37-.36-8.99-.26-12.42-.17-.48-.13,1.55-1.12,2.09-1.2l11.28-1.63-.96,3Z" fill="#edc393"/><path d="M72.59,34.08l-.12,1.4c-.08.53-2.13.93-2.34.44l-.64-1.93,3.1.09Z" fill="#f8dfbd"/><path d="M90.67,46.83c-.62,5.35-2.53,19.55-2.77,24.71,0,0-.86,1.01-.86,1.01l.17,2.68c-.53.46-1.79-1.71-1.71-2.3l1.86-14.86-.02-.69,1.45-10.2,1.9-.35Z" fill="#514f4c"/><path d="M88.58,63.96l2.09-17.12,1.34-1.13c.61,2.11.64,5.9.11,8.58l-1.51,7.66c-.28,1.82-.46,1.66-2.03,2.01Z" fill="#f8dfbd"/><path d="M81.06,107.18l-.33-1.02,1.52-6.63c.55-2.9,1.18-10.26,2.95-12.68,0,0-.28,6.97-.28,6.97l-1.61,10.39c-.13.87-1.7,2.42-2.24,2.97Z" fill="#d09256"/><path d="M92.49,29.62l-.97,13.51-.47.34-1.8-1.92,1.34-11.21c.06-.48,1.95-1.15,1.91-.71Z" fill="#5e5d5d"/><path d="M87.35,58.07c-1.11-.44-1.14-.6-.02-.69l.02.69Z" fill="#edc393"/><path d="M87.9,71.54l.42-5.45c.92.04,1.24-.06,1.28.26l.31,2.35c.07.55-.11,2.44-.66,2.56l-1.35.28Z" fill="#f8dfbd"/><path d="M87.04,72.55l.86-1.01-.86,1.01Z" fill="#d9b68b"/><path d="M83.81,32.54c-.3,2.6-1.74,1.88-1.74.04l1.74-.04Z" fill="#f8f2e7"/><rect x="100.5" y="119.61" width=".68" height=".68" transform="translate(-55.28 106.44) rotate(-45)" fill="#efeadf"/><path d="M113.98,51.8c.78,5.81-2,20.09-5.99,19.63,3.64-8.24,5.43-15.92,3.21-24.68l2.13.26.65,4.79Z" fill="#565552"/><path d="M17.23,19.79c8.62,7.23,18.57,7.5,29.38,8.77,8.58,1.32,18.08.29,26.5-.9,8.18-1.15,23.08-4.43,24.81-12.7,0,0,1.69-.57,1.69-.57.62,5.35-.74,14.02-1.42,19.81,0,0,8.99-1.22,8.99-1.22,1.04-.14,3.52.69,4.59.96,0,0-.47,1.76-.47,1.76-3.38-1.54-9.13-.93-12.72,1.46-2.1,1.75-1.55,6.7-.06,8.75,0,0-2.34,3.5-2.34,3.5l-3.61,25.93s-.46,2.48-.46,2.48c-.14.76,2.87,1.27,3.66.99,0,0,9.59-3.51,9.59-3.51-3.1,4.29-7.06,5.79-13.34,5.38,0,0-.83,7.5-.83,7.5s12.5-3.97,12.5-3.97c13.08-6.18,19-23.97,16.01-37.49,0,0,1.81-.33,1.81-.33,0,0,.71,4.3.71,4.3.47,23.22-8.27,34.42-30.65,39.99-.82.26.52,3.11,1.03,2.84l.99,2.01s-3.61-.86-3.61-.86l-1.34,8.56s-1.26,4.58-1.26,4.58c-.55-.42-1.74-1.3-1.5-1.12,4.37-27.04,8.48-57.82,11.37-85.08-11.51,6.36-24.68,9.46-38.15,9.22-12.73-.2-28.34-.66-39.46-6.88,0,0-4.88-2.44-4.88-2.44,0,0,6.23,48.07,6.23,48.07,0,0-1.39,5.11-1.39,5.11,0,0-6.57-51.14-6.57-51.14,0,0-.5-9.95-.5-9.95,0,0,2.01-.06,2.01-.06.57,2.99,1.2,5.23,2.69,6.27Z" fill="#514f4c"/></g></svg>