<?xml version="1.0" encoding="UTF-8"?><svg id="Layer_2" xmlns="http://www.w3.org/2000/svg" viewBox="0 0 120.05 130.57"><g id="Layer_1-2"><path d="M26.86,110.81l1.53,3.29c3.42,1.38,10.54,3.7,14.11,4.68,0,0,.58,2.03.58,2.03l7.28,1.96c4.44-.26,13.94-.9,18.31-1.41,1.22-.11,3.98.7,4.66,1.79l1.9,4.06c-21.33,3.5-50.62.65-69.26-10.79,0,0-2.05-2.78-2.05-2.78-.73-.99-1.29-3.57-1.34-4.81.97.12,2.9-.38,3.62-.81,0,0,3.01-1.8,3.01-1.8,1.82-1.12,5.18-2.64,5.66-4.99,0,0,1.01-4.72,1.01-4.72h2.15c2.16.1,2.19,8.75,8.83,14.31ZM34.82,122.71c-5.53-2.49-10.13-3.61-15.5-4.09,4.81,3.12,10.21,4.57,15.5,4.09Z" fill="#f1ede4"/><path d="M30.95,43.93l1,1.56s-9.1,3.3-9.1,3.3c-2.56.93-5.56,3.57-6.24,6.36,1.17,2.2,4.27,3.68,6.15,4.75,4.13-3.17,9.12-4.51,13.79-5.76,8.25-2.39,17.1-2.89,26.21-2.01,8.67.65,18.36,2,26.4,5.02.85.3,2.2,2.25,2.93,2.04,0,0,3.58-1.03,3.58-1.03-1.73,1.67-5.32,4.9-7.17,6.45-1.24-.01-3.5.9-4.53,1.5l-3.91-.02c-.21-.36,1.32-2,2-2.18l6.51-1.68c4.24-1.1-1.23-4.88-8.44-6.11l-9.78-1.68-22.1-.19c-7.93,1.25-16.84,1.84-23.84,6.72,5.91,2.78,12.09,4.59,18.01,4.68,1.24.02,4.17-1.94,5.06-1.16,1.18,1.03,3.95,2.47,5.39,2.42l11.84-.42s13.3-.79,13.3-.79c0,0-.09,1.23-.09,1.23-.08.33-1.45.9-1.8.91l-19.04.74s-12.64-.01-12.64-.01l-1.67,6.75s-1.64-.2-1.64-.2c.09-.52.5-2.33.41-2.82,0,0-.02-2.78-.02-2.78,0-.27-.6-.89-.86-.97-1.29-.41-4.6-1.35-5.92-1.48,0,0-18.2-7.22-18.2-7.22l.95,16.36c.69,11.75,3.74,24.24,9.88,33.1l-.51,1.49c-6.64-5.56-6.67-14.22-8.83-14.31,0,0-2.15,0-2.15,0,0,0,2.11-3.01,2.11-3.01-2.62-13.48-3.88-26.39-3.04-40.25,1.11-2.58,5.49-6.04,7.98-6.82,0,0,8.02-2.5,8.02-2.5Z" fill="#565552"/><path d="M101.14,123.1l8.81-5.16c.41-.24.76-1.9.92-2.19.8-.22,2.64-1.1,2.9-1.87l1.61-5.11c.2-.05,2.34.69,2.35,1.26.11,6.73-7.95,11.69-15.64,14.11l-.95-1.03Z" fill="#d9d8d5"/><path d="M113.75,105.07c0,3.47-1.53,7.45-2.88,10.67-3.89,1.07-4.52,3.83-9.67,4.18,0,0-.06-1.68-.06-1.68l1.78-2.71c4.74-1.74,5.15-3.98,5.17-9.54l1.75-2.93,3.91,2.01Z" fill="#d9d8d5"/><path d="M105.98,105.79c.12,1.62-.05,4.78-.85,6.05l-2.21,3.69c-3.53,1.48-14.88,4.97-18.71,6.15,0,0,.7.84.7.84l-3.47,1.52c-.8.35-2.27,1.75-2.14,2.47l-4.05.68-1.9-4.06c-.69-1.09-3.44-1.91-4.66-1.79-4.41.5-13.83,1.16-18.31,1.41,0,0-7.28-1.96-7.28-1.96,0,0-.58-2.03-.58-2.03l8.1,1.12,11.15.31,9.32-1.75c1.12-.21,3.56.21,4.13.63.89.9,1.15,1.16.67.65,1.39-2.12,1.4-2.68,4.27-2.28,8.27,1.44,15.3-7.53,15.99-13.35l9.84,1.68Z" fill="#d9d8d5"/><path d="M115.38,108.76l-1.61,5.11c-.27.77-2.1,1.65-2.9,1.87.83-2.19,2.36-5.62,2.62-7.86,0,0,1.89.88,1.89.88Z" fill="#494949"/><path d="M110.87,115.74c-.16.29-.51,1.95-.92,2.19-12.17,7.93-26.67,12.11-41.41,12.47,0,0-20.23.16-20.23.16l-9.48-.95c-9.7-2.26-26.98-4.63-33.57-12.2,0,0,.72-1.01.72-1.01,0,0,3.94,2.14,3.94,2.14,24.24,12.71,57.66,11.86,83.53,5.13.66-.15,2.1-2.17,2.03-2.3l.88-1.12s4.83-.34,4.83-.34c5.14-.36,5.78-3.12,9.67-4.18Z" fill="#494949"/><path d="M100.94,55.97l-2.02.05c-3.25-16.14-54.33-14.8-66.97-10.52,0,0-1-1.56-1-1.56,9.28-4.1,27.36-2.96,37.57-2.94,7.69.33,32.43,4.23,32.41,14.97Z" fill="#5e5d5d"/><path d="M100.94,55.97c-.1,1.99-.06,6.14.06,8.06,0,0-1.09,6.21-1.09,6.21.03-.06-.27.53-.71,1.41l2.07-1.16,1.75-1.43c3.51-2.36,9.15-1.29,9.43,4.03,0,0-3.13-2.23-3.13-2.23-3.42-2.44-8.79.64-9.61,4.78l-2.13,10.78c-.24,2.08-1.03,6.16-1.63,8.16-.25,1.02,1.68,3.22,2.69,3.05.8-.14,2.55-.55,3.27-.9,0,0,.13,1.6.13,1.6l-3.15,1.54c-.9.44-2.37,1.08-2.46,1.82-.05,7.09-6.84,17.05-16.28,15.77,0,0-.31-1.44-.31-1.44,9.93.08,14.28-7.45,15.15-18.09l-12.12,4.09-2.63,3.03s-2.17,1.88-2.17,1.88l-2.08-.93c-.68-3.47-4.25-6.72-8.98-7.15-.49,3.48-.72,7.67.27,11.39,0,0,4.07,5.51,4.07,5.51l-.25,2.71s-9.32,1.75-9.32,1.75l-11.15-.31-8.1-1.12c-3.53-1-10.72-3.28-14.11-4.68,0,0-1.53-3.29-1.53-3.29,0,0,.51-1.49.51-1.49l2.69,1.74c9.2,7.66,28.35,9,40.6,5.56-1.79-1.55-4.3-3.37-4.86-4.87-1.68-4.5-1.32-10.19-.26-15.57,5.16.46,10.05,3.82,11.53,7.82l1.18,1.17,2.75-3.9,6.74-3.74c8.72,1.77,8.98-20.7,10.89-29.83.06-2.14.36-9.62.28-11.69,0,0,2.02-.05,2.02-.05Z" fill="#514f4c"/><path d="M102.03,98.32s-.13-1.6-.13-1.6c2.31-1.14,6.34-3.38,8.54-5.34,9.98-8.9,9.21-24.94,2.28-27.72-4-1.6-8.03-.84-11.72.36l-.13-3.09,3.92-.28c21.92-2.78,17.87,28.98,2.74,35.33,0,0-2.08,2.83-2.08,2.83l-3.42-.5Z" fill="#5e5d5d"/><path d="M60.79,29.9s-.26.12-2.26,1.06l1.65-5.75c.73-2.52.76-5.51-.86-7.92-5.24-7.81,1.31-10.45,1.85-17.29l1.34.11c1.27,6.84-6.45,9.11-1.73,15.8,3.82,5.86,1.79,8.31,0,13.98Z" fill="#5e5d5d"/><path d="M2.58,108.83c.05,1.23.61,3.81,1.34,4.81l2.05,2.78-.72,1.01c-10.91-5.26-2.98-19.95,7.08-19.62,0,0-7.77,5.65-7.77,5.65-1.24.9-2.04,3.99-1.98,5.38Z" fill="#5e5d5d"/><path d="M66.57,27.71c-3.43.53,1.41-1.45-.97-10.31l-.51-1.91c-.07-.27,1.08-.61,1.23-.37l1.01,1.57c2.15,3.33,2.25,7.94-.76,11.02Z" fill="#7b7c7d"/><path d="M56.13,25.92c.14.49-2.8,1.58-1.94,1.04-.83-3.5-2.82-8.83-1.78-12.36,1.76.67,2.43.92,1.72.65-.09,4.13.99,7.08,2,10.67Z" fill="#6f6e6e"/><path d="M102.92,115.53l-1.78,2.71-4.8,1.3-.93.89-1.01.34-9.49,1.75-.7-.84c3.92-1.21,15.08-4.64,18.71-6.15Z" fill="#5e5d5d"/><path d="M108.09,106c-.02,5.56-.43,7.79-5.17,9.54l2.21-3.69c.79-1.28.96-4.43.85-6.05l2.11.21Z" fill="#5e5d5d"/><path d="M14.88,101.22c-.49,2.37-3.85,3.87-5.67,4.99.57-2.4,3.08-4.37,5.67-4.99Z" fill="#6f6e6e"/><path d="M113.75,105.07l-3.91-2.01c.35-.58.7-2.62,1.32-2.33,1.28.6,2.7,3.1,2.59,4.34Z" fill="#686868"/><path d="M34.82,122.71c-5.29.47-10.69-.98-15.5-4.09,5.37.48,9.97,1.6,15.5,4.09Z" fill="#686868"/><path d="M80.07,66.09l3.91.02s-1.04,3.26-1.04,3.26c0,0-7.59,1.04-7.59,1.04-.93-.22-1.06,2.16-.08,1.93l7.64-1.45c.11.21,1.16,2.84,1.07,3.66l-1.95,16.88c-.7,6.04-5.56,8.33-3.7,8.98l2.69.86-2.75,3.9-1.18-1.17c-1.48-4-6.37-7.36-11.53-7.82-1.06,5.38-1.42,11.07.26,15.57-2.52.49-7.95,2.43-10.37,3.38-.78.29-1.46,2.41-1.24,3.19-8.29-.66-19.01-2.24-24.13-7.27,2.06-1.72,6.67-4.22,6.33-7.37,0,0,12.99.82,12.99.82,1.34.08,3.26-1.86,3.24-3.44l-.15-15.83c-.01-1.44-2.25-4.3-3.59-4.47,0,0-4.91-.59-4.91-.59l-1.21-4.86,1.67-6.75s12.64.01,12.64.01c0,0,19.04-.74,19.04-.74.36-.01,1.72-.58,1.8-.91l.09-1.23s2.05.38,2.05.38Z" fill="#f6f1e7"/><path d="M98.92,56.02c.07,2.13-.21,9.44-.28,11.69,0,0-1.28,8.65-1.28,8.65-1.61,10.87-2.84,22.28-9.61,21.18.57-3.03.36-2.8,3.99-3.49,3.44-6.64-.76-9.67-.05-11.05l3.52-6.78.99-11.52-7.69-.08c1.82-1.55,5.45-4.78,7.17-6.45,0,0-3.58,1.03-3.58,1.03-.73.21-2.08-1.73-2.93-2.04-5.93-2.13-12.97-3.72-19.43-4.35-10.99-1.33-22.93-1.82-33.17,1.34.39-1-.16-4.47-1.32-5.09-1.69-.9-6-1.16-7.56-.31l-6.24,3.42s-.09,6.92-.09,6.92c-1.22-.48-4.07-2.47-4.73-3.93.68-2.79,3.68-5.43,6.24-6.36l9.1-3.3c12.52-4.26,63.73-5.63,66.97,10.52Z" fill="#f1ede4"/><path d="M34.74,67.07l-1.43,2.59c-.74,1.21,1.31,5.13,2.73,5.2l5.09.26,1.64.2,1.21,4.86c-.92-.06-6.14-.14-7.18-.16-2.04.29-4.13,2.34-4.58,4.37,0,0-.01,14.73-.01,14.73-.06,3.43.88,4.4,4.19,4.58.37,3.12-4.33,5.67-6.33,7.37,0,0-2.69-1.74-2.69-1.74-9.41-12.89-10.12-33.43-10.84-49.47,0,0,18.2,7.22,18.2,7.22Z" fill="#faf7f1"/><path d="M80.07,66.09c-.88-.77-14.02.41-15.35.41,0,0-11.84.42-11.84.42-1.44.05-4.22-1.39-5.39-2.42-.89-.78-3.82,1.18-5.06,1.16-5.92-.09-12.11-1.9-18.01-4.68,4.6-2.85,8.58-4.38,13.4-5.12l10.43-1.6,22.1.19,9.78,1.68c7.21,1.24,12.68,5.01,8.44,6.11l-6.51,1.68c-.69.18-2.21,1.82-2,2.18ZM42.57,57.96v1.92h7.68v-1.92h-7.68ZM68.34,62.94l6.69-.8c.11-.12-.12-1.93-.66-1.87l-1.85.18-8.97,1.35-1.97.4c-.42.09.76,1.45,1.2,1.39l5.55-.66Z" fill="#ece1cf"/><path d="M36.56,54.15l-6.64,1.92c-2.34.68-4.57,2.2-7.15,3.84l-1.42-.82.09-6.92,6.24-3.42c1.56-.85,5.87-.59,7.56.31,1.16.62,1.71,4.09,1.32,5.09Z" fill="#ece1cf"/><path d="M36.82,67.44l.11,1.99,4.59.09.02,2.78-1.92.61,1.92.05-.41,2.16-5.09-.26c-1.42-.07-3.47-3.99-2.73-5.2l1.43-2.59,2.08.37Z" fill="#f6f1e7"/><path d="M41.52,69.52l-4.59-.09-.11-1.99,3.84,1.11c.27.08.86.7.86.97Z" fill="#faf7f1"/><polygon points="41.53 72.3 41.54 72.97 39.61 72.92 41.53 72.3" fill="#faf7f1"/><path d="M79.83,116.01l.31,1.44c-.7-.12-2.57-.22-2.95.34l-1.31,1.94c-.83-1.16-3.12-1.45-4.8-1.28,0,0,.25-2.71.25-2.71l3.7-.17c-1.76-2.84-2.58-3.95-1.89-8.05l2.93,4.63c.09-1.43.22-4.56-.09-6.16l2.08.93,2.17-1.88-1.46,6.95,3.1-4.5c.84-2.37,1.44-1.02.98.55-.59.93-1.37,2.07-1.01,2.18l2.05.62c.41.12,1.57,1.22,1.16,1.35l-2.4.79c-1.1.36-2.66,1.96-2.83,3.03Z" fill="#342316"/><path d="M95.49,121.38c.06.14-1.37,2.15-2.03,2.3l-8.44,1.88-5.72.96c.11-2.08,4.04-3.24,5.61-4,0,0,9.49-1.75,9.49-1.75l1.09.61Z" fill="#f1ede4"/><path d="M75.21,119.09l.67.65c.48.51.22.25-.67-.65Z" fill="#514f4c"/><path d="M101.14,118.25l.06,1.68c-.71.06-5.22.3-5.79.5,0,0,.93-.89.93-.89l4.8-1.3Z" fill="#a9aaaa"/><path d="M96.37,120.26l-.88,1.12-1.09-.61c.48-.19,1.46-.45,1.97-.51Z" fill="#d9d8d5"/><path d="M101.9,96.73c-.72.35-2.47.76-3.27.9-1.01.17-2.94-2.03-2.69-3.05.6-2,1.4-6.09,1.63-8.16,0,0,2.13-10.78,2.13-10.78.82-4.14,6.19-7.22,9.61-4.78l3.13,2.23c-.14-2.06-1.46-4.2-2.97-4.81-2.93-1.08-6.3.18-8.2,2.21,0,0-1.36-.25-1.36-.25l1.09-6.21c3.69-1.2,7.72-1.96,11.72-.36,6.93,2.78,7.7,18.81-2.28,27.72-2.2,1.96-6.23,4.2-8.54,5.34ZM100.78,89.88l-3.2,1.46c3.79,1.27,8-1.85,11.12-4.59,0,0-1.17-1.62-1.17-1.62-1.37,1.06-5.23,4.06-6.75,4.75Z" fill="#efede9"/><path d="M88.51,64.61l7.69.08-.99,11.52-3.52,6.78c-.72,1.38,3.49,4.41.05,11.05-1.6.33-3.34.54-3.5,1.25l-.49,2.24-6.74,3.74-2.69-.86c-1.86-.65,3-2.94,3.7-8.98l1.95-16.88c.1-.82-.96-3.45-1.07-3.66l.04-1.52,1.04-3.26c1.03-.6,3.3-1.51,4.53-1.5ZM87.21,65.63l-.48.5.48.48.48-.48-.48-.5Z" fill="#efeadf"/><path d="M79.83,116.01c.51-2.26,3.22-3.29,5.23-3.82.41-.14-.75-1.23-1.16-1.35-2.15-.8-2.9,0-1.04-2.8.45-1.57-.14-2.92-.98-.55l-3.1,4.5,1.46-6.95,2.63-3.03s12.12-4.09,12.12-4.09c-.87,10.64-5.22,18.17-15.15,18.09ZM91.57,99.63l-4.23,4.49,1.43,1.35,4.23-4.49-1.43-1.35Z" fill="#aaae63"/><path d="M101.27,70.49l-2.07,1.16c.44-.88.74-1.47.71-1.41l1.36.25Z" fill="#5e5d5d"/><path d="M75.97,106c.31,1.6.19,4.74.09,6.16l-2.93-4.63c-.68,4.1.14,5.21,1.89,8.05l-3.7.17-4.07-5.51c-.99-3.73-.76-7.91-.27-11.39,4.73.44,8.3,3.69,8.98,7.15ZM71.99,106.8c.4-.38.01-3.2-.73-3.17l-2.63.12c1.24,1.76,2.26,2.72,3.35,3.05Z" fill="#aaae63"/><path d="M65.8,111.76c.56,1.5,3.07,3.32,4.86,4.87-5.71,1.61-11.12,2.13-16.48,1.7-.22-.78.46-2.9,1.24-3.19l6.26-2.31,4.11-1.08Z" fill="#d9d8d5"/><path d="M36.39,103.7c-3.31-.19-4.25-1.12-4.19-4.58,0,0,.01-14.73.01-14.73,0-.68,1.24-2.43,1.62-2.83,0,0,.77,1.45.77,1.45l-.5,18.65c4.5.2,11.8.88,16.29.27,0,0,.01-16.3.01-16.3,0-1.78-4.43-3.86-5.68-3.55l-2.24-1.95s1.48.06,1.48.06c0,0,4.91.59,4.91.59,1.34.16,3.58,3.02,3.59,4.47l.15,15.83c.01,1.57-1.9,3.52-3.24,3.44l-12.99-.82Z" fill="#514f4c"/><path d="M82.94,69.37l-.04,1.52-7.64,1.45c-.98.23-.85-2.15.08-1.93l7.59-1.04Z" fill="#a9aaaa"/><path d="M78.26,105.18l-1.18-1.17,1.18,1.17Z" fill="#efeadf"/><path d="M42.49,80.12l2.24,1.95-2.24,1.81c-2.2-1.77-5.14-2.19-7.88-.88l-.77-1.45c.48-.5,2.24-1.55,2.95-1.53l5.7.1Z" fill="#5e5d5d"/><path d="M68.34,62.94l-5.55.66c-.44.05-1.62-1.31-1.2-1.39l1.97-.4,8.97-1.35,1.85-.18c.54-.05.76,1.75.66,1.87l-6.69.8Z" fill="#7b7c7d"/><rect x="42.57" y="57.96" width="7.68" height="1.92" fill="#7b7c7d"/><path d="M100.85,91.58l-.07-1.7,2.15-1.26,4.61-3.5,1.17,1.62c-2.09,1.86-5.64,4.41-7.85,4.83Z" fill="#5e5d5d"/><path d="M100.78,89.88l.07,1.7c-.72.14-3.18-.19-3.28-.24l3.2-1.46Z" fill="#514f4c"/><polygon points="87.21 65.63 87.69 66.12 87.21 66.6 86.73 66.12 87.21 65.63" fill="#f6f1e7"/><rect x="87.09" y="101.57" width="6.17" height="1.96" transform="translate(-46.3 97.85) rotate(-46.7)" fill="#4c3928"/><path d="M71.99,106.8c-1.09-.33-2.11-1.29-3.35-3.05l2.63-.12c.74-.03,1.12,2.79.73,3.17Z" fill="#4c3928"/><path d="M42.49,83.88l.19,1.77-2.55,1.53,2.5,1.44c-1.87-.28-4.93-.11-5.72,2.11-.22,1,3.01,1.71,3.64,1.19-.69,1.71-2.52,5.03-2.99,6.98.01,1.25,2.23,2.43,3.13,3.14,0,0-6.57-.38-6.57-.38,0,0,.5-18.65.5-18.65,2.74-1.32,5.68-.89,7.88.88Z" fill="#ece1cf"/><path d="M48.21,102.2s-7.53-.15-7.53-.15c-.9-.71-3.11-1.89-3.13-3.14,0,0,.57-1.71.57-1.71l3.12-1.45,1.13,1.6c.3.43,1.04-1.21,1.38-1.71l2.96-3.34c.2.23,1.34,1.82,1.37,2.39l.12,7.52Z" fill="#d9b68b"/><path d="M48.21,102.2l-.12-7.52c-.03-.57-1.17-2.16-1.37-2.39l-.27-2.89c-.06-.69.06-2.4-.57-2.67l-3.2-1.07-.19-1.77,2.24-1.81c1.25-.31,5.68,1.77,5.68,3.55v16.3s-2.2.27-2.2.27Z" fill="#edc393"/><path d="M42.63,88.63l3.81.77.27,2.89-2.96,3.34c-.35.5-1.08,2.13-1.38,1.71l-1.13-1.6-3.12,1.45,1.58-3.49c.37-.81.83-1.35.84-1.77l.04-3.42,2.04.12Z" fill="#514f4c"/><path d="M46.44,89.4l-3.81-.77-2.5-1.44,2.55-1.53,3.2,1.07c.63.27.5,1.98.57,2.67Z" fill="#d9b68b"/><path d="M40.59,88.51l-.04,3.42c-.63.52-3.86-.19-3.64-1.19.29-1.3,2.61-2.29,3.68-2.23Z" fill="#4c3928"/></g></svg>