<?xml version="1.0" encoding="UTF-8"?><svg id="Layer_2" xmlns="http://www.w3.org/2000/svg" viewBox="0 0 118.31 132"><g id="Layer_1-2"><path d="M44.36,1.39c1.43,1.11,8.88,1.28,10.73,1.62,5.97.61,8.24,3.25,11.66,1.15l.61.1c-.53.49.9,1.97,1.55,2.27l7.9,3.63c2.82,1.29,2.71,5.47,1.3,7.26l-1.92,1.92s-2.15-.65-2.15-.65l-4.76.72c-.64.1-2.03,1.54-2.03,1.75-.04.12-.43,1.52-.8,1.59-1.41-.08-5.41-.35-6.74-.17,0,0-21.16-.16-21.16-.16l-10.51-1.94-4.45-1.77s-4.22.23-4.22.23l-5.68-9.77s8.87-.75,8.87-.75c-3.73-1.31-6.12-1.41-10.33-1.92,7.85-4.27,17.67-3.82,26.65-5.01.98-.1,2.9-.88,3.85-1.49-.05-.05,1.1.93,1.64,1.39ZM54.9,7.11c-1.21-1.23-2.14-1.88-2.82-1.94l-7.83-.68-10.41-.43-2.08,1.86c5.65.18,17.6.73,23.15,1.19ZM23.7,9.02l-.48.48.48.48.48-.48-.48-.48ZM54.53,18.2l-6.32-.63,1.29,2.12,7.2.62-.39-2.27c6.66-2.15,13.19.96,18.25-2.78-16,.53-31.97-1.57-47.2-6.29,0,0-1.42,1.74-1.42,1.74l18.73,4.55,9.76,1.46s.11,1.47.11,1.47ZM75.32,12.73c-2.43-2.1-2.93-2.32-6.57-4.3l-1.28,2.1,7.85,2.2ZM22.13,12.66c-.15-.62-2.93-.53-2.85.09.19,1.31,3.16,1.17,2.85-.09Z" fill="#efeadf"/><path d="M93.61,30.17l-.36,1.59c-3.54-.55-8.4,2.32-12.46,5.2,4.33,7.73,12.33,28.2,15.51,36.7,10.25-2.7,11.64-15.07,8.72-25.98l1.87-.48c2.87,12.32,2.15,25.66-10.56,28.6l1.35,7.05c3.2-.69,12.36-3.64,10.49-5.73,0,0-3.77.58-3.77.58l-.13-1.35,3.97-2.6s.48,2.93.48,2.93l.73.54c8.19-7.71,7.58-22.98,5.47-34.29,0,0,1.43-.3,1.43-.3,3.82,14.11,2.8,32.31-9.56,39.27-2.49,1.4-5.74,2.02-9.36,3-.06,11.02-3.87,22.98-12.4,29.37-.91.75-2.04,2.93-2.35,4.04,0,0-1.8.13-1.8.13,0,0-.28-1.49-.28-1.49-.14-1.16,1.25-2.66,2.59-3.78,16.17-13.53,13.95-37.07,5-55.78l-9.05-18.92c-1.72-3.59-1.08-9.59-1.22-13.24l.89-.19.71,2.19.65,7.08c5.13-2.77,8.81-4.25,13.44-4.15Z" fill="#514f4c"/><path d="M18.79,34.13l-.42,2.76c-1.2,3.12-12.19,28.72-13.77,32.49-7.19,16.27-.58,44.91,20.06,48.9,0,0,5.2,1.9,5.2,1.9l.92,2.39-12.81-4.07-1.09.84c1.2,1.28,3.69,3.82,5.38,4.45l-.71,1.37c-3.94-1.01-7.35-4.33-7.25-9.12C-6.9,101.1-1.04,70.99,9.54,50.87c.57-1.5,7.95-15.54,7.71-16.94,0,0,1.54.21,1.54.21ZM16.58,118.6c.08-.11.85-1.18.77-1.07l-.77,1.07Z" fill="#514f4c"/><path d="M78.7,19.62s.75,2.73.75,2.73l2.23-.2s.03,1.4.03,1.4c-.82.22-2.16,1.04-2.91,1.5-.12-.23-8.83,3.33-9.23,3.45-9.53,2.48-20.19,2.95-29.85,2.18,0,0-5.73-.71-5.73-.71,0,0-2.12-.66-2.12-.66,0,0,2.47-1.59,2.47-1.59,0,0-.42-2.43-.42-2.43l9.08.76-2.07-1.95c-2.53.09-2.27.11-2.4-1.68,0,0,21.16.16,21.16.16l-.03,1.69-2.91.84c1.83.15,4.84.11,6.86-.35l6.84-1.53-3.22-2.08c0-.21,1.39-1.65,2.03-1.75l4.76-.72,1.41,3.66-.39,1.62c-.09.37,2.07.55,2,.16l-.87-4.79,1.92-1.92.61,2.2ZM55.51,26.04c-4.37-3.58-7.84-1.05-11.24.16l11.24-.16Z" fill="#342316"/><path d="M46.19,130.02l11.84-.08c3.79-.2,9.13-2.05,12.88-3,5.43-1.51,10.43-3.74,11.77-8.62.31-1.12,1.44-3.3,2.35-4.04l3.32-2.72c15.57,8.86.16,16.17-13.32,18.34,0,0-13.33,1.69-13.33,1.69l-15.2.42-.3-1.99Z" fill="#cbc9c3"/><path d="M38.54,22.42c.13,1.79-.13,1.77,2.4,1.68,0,0,2.07,1.95,2.07,1.95l-9.08-.76.42,2.43-2.47,1.59-4.88-.44c-1.54-.7-6.21-2.88-7.82-3.61,0,0-.38,8.88-.38,8.88l-1.54-.21c0-3.56-.03-10.84-.05-14.42,0,0,2.16-.57,2.16-.57l4.22-.23,4.45,1.77,10.51,1.94ZM32.58,24.63c.87-.78,1.59-1.42.9-.8l-7.52-1.8,1.94,4.36c.29.64,2.42.93,2.89.38l1.8-2.13Z" fill="#2e2f30"/><path d="M42.72,0c-2.27,1.71-7.16,1.78-9.8,2.09-7.46.76-14.37.94-20.7,4.41,4.21.51,6.6.61,10.33,1.92l-8.87.75,5.68,9.77-2.16.57c0-1.31-1.24-4.07-2.26-5.06l-4.51-4.37c-.79-.76-1.3-3.83-.28-4.53C18.99-.69,32.4.91,42.72,0Z" fill="#514f4c"/><path d="M116.35,42.62l-1.43.3c-6.52-16.94-14.28-25.58-33.2-19.37,0,0-.03-1.4-.03-1.4.02-.37.98-1.39,1.4-1.43l11.13-1.09c12.45-.76,19.55,12.8,22.14,23Z" fill="#5e5d5d"/><path d="M67.44,126.33l2.54-.49s.93,1.1.93,1.1c-3.77.96-9.07,2.81-12.88,3.01-5.24.1-16.02.06-21.2-.26-2.57-.33-10.03-2.27-12.64-2.91,0,0-2.63-1.6-2.63-1.6l.71-1.37c12.48,5.32,28.02,4.76,41.47,3.44,0,0,3.71-.91,3.71-.91Z" fill="#494949"/><path d="M78.7,19.62l-.61-2.2c1.41-1.79,1.52-5.96-1.3-7.26l-7.9-3.63c-.65-.3-2.08-1.78-1.55-2.27,3.22.53,8.05,2.82,11.49,4.78,2.53,1.44,2.99,5.51,1.95,7.68l-2.09,2.9Z" fill="#5e5d5d"/><path d="M36.83,129.68l-1.94,1.69-8.16-2.08c-.7-.18-2.19-.37-2.29-.95,0,0-.26-1.58-.26-1.58,2.6.66,10.09,2.57,12.64,2.91Z" fill="#cbc9c3"/><path d="M66.75,4.16c-3.42,2.1-5.69-.54-11.66-1.15-1.87-.37-9.28-.47-10.73-1.62,0,0,6.82.18,6.82.18,3.74.39,11.83,1.83,15.57,2.59Z" fill="#514f4c"/><path d="M56.3,18.04c-.43.14-1.27.21-1.77.16l-.11-1.47-9.76-1.46-18.73-4.55,1.42-1.74,12.08,3.15c11.55,3.01,23.09,3.13,35.12,3.14-5.05,3.74-11.59.63-18.25,2.78Z" fill="#686868"/><path d="M54.9,7.11c-5.52-.46-17.53-1.01-23.15-1.19,0,0,2.08-1.86,2.08-1.86l10.41.43,7.83.68c.68.06,1.62.71,2.82,1.94Z" fill="#686868"/><path d="M54.53,18.2c.5.05,1.34-.02,1.77-.16l.39,2.27-7.2-.62-1.29-2.12,6.32.63Z" fill="#7b7c7d"/><path d="M59.67,24.27c1.31-.49,5.35-1.25,6.77-1.52.37-.07.75-1.48.8-1.59l3.22,2.08-6.84,1.53c-2.02.45-5.03.5-6.86.35l2.91-.84Z" fill="#514f4c"/><path d="M75.32,12.73l-7.85-2.2,1.28-2.1c3.65,1.98,4.15,2.2,6.57,4.3Z" fill="#6f6e6e"/><path d="M76.18,19.33l.87,4.79c.07.39-2.09.21-2-.16l.39-1.62-1.41-3.66,2.15.65Z" fill="#514f4c"/><path d="M22.13,12.66c.31,1.26-2.66,1.4-2.85.09-.09-.62,2.69-.7,2.85-.09Z" fill="#7b7c7d"/><polygon points="66.44 22.75 61.72 23.67 61.64 22.49 66.44 22.75" fill="#342316"/><polygon points="61.64 22.49 61.72 23.67 59.67 24.27 59.7 22.58 61.64 22.49" fill="#2e2f30"/><rect x="23.36" y="9.16" width=".68" height=".68" transform="translate(.23 19.54) rotate(-45)" fill="#686868"/><path d="M77.92,25.23c.14,3.64-.5,9.64,1.22,13.24,0,0,9.05,18.92,9.05,18.92,8.95,18.71,11.17,42.25-5,55.78-1.34,1.12-2.73,2.63-2.59,3.78,0,0-.52.09-.52.09.36.17-1.33-.89-1.58-.78,0,0-7.45,3.42-7.45,3.42l-8.53,1.5c-7.74,1.29-15.05,1.21-23.5.44-1.75-.35-1.54,1.51-.08,2.1,3.63-.07,24.5-.25,27.6-.73,0,0-.07,1.05-.07,1.05l.98,2.28-3.71.91s-13.7.91-13.7.91c-9.9.41-26.76-.93-33.15-8.79,0,0-.3-.75-.3-.75.08-.11.85-1.18.77-1.07.47.75.66,1.05.62.99,0,0,12.81,4.07,12.81,4.07l-.92-2.39s-5.2-1.9-5.2-1.9c0,0-.32-2.98-.32-2.98,22.47,7.29,60.05,7.1,66-21.99,2.08-9.7.12-21.94-4.66-29.59,0,0-1.74-4.05-1.74-4.05.07-2.38-.91-4.71-2.7-6.8,0,0-2.31-4.21-2.31-4.21-.97,2.02-2.72,6.26-3.49,8.37,0,0,.49,1.26.49,1.26,0,0-6.62-.42-6.62-.42-.11-.61-1.35-1.53-1.98-1.66l-5.71-1.15c-5.17.07-28.1-.32-32.74.92,1.08-3.19,3.25-10.38,4.32-13.53,0,0,15.9,1.2,15.9,1.2,0,0,11.98-.29,11.98-.29-.77-1.65-1.1-2.33-.98-2.08l-10.03.44s-16.3-1.09-16.3-1.09c0,0,.23-10.67.23-10.67,0,0,5.73.71,5.73.71,0,0,.63,2.42.63,2.42,1.31,1.89,6.81.95,8.77,1.08,0,0,10.61-.13,10.61-.13,0,0,1.29-.7,1.29-.7l-.4-3.16c5.36-.07,12.41-2.91,17.29-4.95ZM71.66,31.53l2.03,3.79.58-5.12-2.51-.3c-1.19-.14-3.49,1.46-3.41,2.71l3.3-1.08ZM74.9,39.72l-.16-2.07-11.95,4.1c4.85.83,8.07-.7,12.11-2.03ZM77.22,48.46c1-2.46.16-3.5-1.25-3.81l1.25,3.81Z" fill="#f1ede4"/><path d="M114.91,42.92c3.14,16.42,2.33,36.68-17.24,39.91,0,0-1.35-7.05-1.35-7.05,12.71-2.94,13.43-16.28,10.56-28.6-3.74-16.54-12.38-21.39-26.73-12.87,0,0-.65-7.09-.65-7.09,0,0-.71-2.19-.71-2.19,1.62-1.33,5.02-2.06,6.98-2.58,16.64-4.39,23.76,6.53,29.12,20.46ZM108.72,76.68l-.48-2.93-3.97,2.6.13,1.35,3.77-.58.55-.43Z" fill="#efede9"/><path d="M93.25,31.75c6.56,1.02,9.78,8.44,11.77,15.92,2.91,10.91,1.53,23.28-8.72,25.98l-9.28-23.83-6.23-12.87c4.06-2.88,8.92-5.75,12.46-5.2Z" fill="#f8f7f5"/><path d="M106.89,47.19l-1.87.48c-1.99-7.47-5.21-14.9-11.77-15.92l.36-1.59c7.28.16,11.39,8.89,13.28,17.02Z" fill="#5e5d5d"/><path d="M82.68,118.32c-1.34,4.88-6.34,7.11-11.77,8.62l-.93-1.1,7.32-3.36c1.17-.53,2.61-2.75,2.7-3.93.09-.21.61-.08.87-.09l1.8-.13Z" fill="#5e5d5d"/><path d="M80.08,117.05l-.07,1.49-4.56,1.38c-1.63,3.04-5.66,5.12-8.98,4.13l.07-1.05c1.33-.73,3.7-1.98,4.52-3.31,0,0,7.45-3.42,7.45-3.42.25-.11,1.94.95,1.58.78Z" fill="#5e5d5d"/><path d="M80.01,118.54c-.1,1.18-1.54,3.4-2.7,3.93l-7.32,3.36-2.54.49-.98-2.28c3.32.99,7.35-1.09,8.98-4.13l4.56-1.38Z" fill="#cbc9c3"/><path d="M80.87,118.45c-.26,0-.78-.12-.87.09l.07-1.49.52-.09.28,1.49Z" fill="#cbc9c3"/><path d="M31.87,29.31l2.12.66s-.23,10.67-.23,10.67c-1.76,5.66-4.35,13.39-6,19.1-.2.68-1.15,1.97-.7,2.51l1.94,2.3c-.56.15-2.74.61-2.91,1.14l-1.26,4.78-3.04,1.48s-4.95-1.48-4.95-1.48l-.71-2.15,3.02-7.78,3.43-.74,1.95-.3c.49-.08.61-1.98.52-2.09-1.74.36-8.63,1.54-10.51,1.86,0,0-1.02-1.42-1.02-1.42l2.23-4.45c-2.84-.06-3.98,3.16-3.19,4.49.2.34.8,1.34.57,1.64l-1.61,2.09c-.24.31-1.18,1.42-.85,1.61l1.23.53.64,2.32c-2.83.96-4.82,4.17-3.18,6.14,0,0,1.46.14,1.46.14l.28,2.09-1.59,1.83-1.99-3.43c-2.44,7.93-3.34,17.1.07,23.64,2.58,7.86,9.21,16.34,16.78,18.83,0,0,.32,2.98.32,2.98-3.02-.76-6.49-2.11-9.5-4.19C1.7,104.77-1.04,82.64,4.6,69.39c1.67-3.95,12.45-29.15,13.77-32.49,0,0,7.6-2.69,7.6-2.69l1.02-5.34,4.88.44ZM22.83,37.45l-.68,2.36,5.89,1.7.68-2.36-5.89-1.7Z" fill="#f8f7f5"/><path d="M26.99,28.87l-1.02,5.34-7.6,2.69c.5-1.81.71-9.64.81-11.64,1.62.76,6.27,2.89,7.82,3.61Z" fill="#efeadf"/><path d="M60.63,30.18l.4,3.16-1.29.7-.96-1.06-18.43.11-.63-2.42c6.8.84,13.92.13,20.9-.5Z" fill="#efeadf"/><path d="M55.51,26.04l-11.24.16c3.39-1.21,6.86-3.74,11.24-.16Z" fill="#514f4c"/><path d="M32.58,24.63l-1.8,2.13c-.47.55-2.6.27-2.89-.38l-1.94-4.36,7.52,1.8c.69-.62-.03.02-.9.8Z" fill="#7b7c7d"/><path d="M24.34,115.31c-6.55-2.15-12.96-9.28-15.7-16.13l1.05-1.06-2.13-1.64-.96-2.31c.92-.03,1.08-2.42,1-3.48l-.6-8.2,1.3,4.92h.8s.94-5.69.94-5.69l1.04-7.26-.28-2.09s1.63-2.33,1.63-2.33c.44-.61,2.48.13,2.73.49l-.08,4.45c-.58,5.69-2.08,11.08-.66,16.52s3.99,10.26,7.54,14.03l4.53-1.09-2.54-6.98-1.45-3.97c.29-4.9,1.16-15.5,1.6-20.47.65-.29,2.73-.82,3.66-.57l6.05,1.62c.44.37,1.92,1.05,2.75,1.13l8.85.81,10.29.05c5.15-.54,12.86-1.42,17.43-3.56,3.55-1.6,10.97-3.88,13.58-7.02,4,7.29,5.55,19.03,3.64,27.87-5.97,29.1-43.52,29.27-66,21.99ZM76.02,105.64c-2.03-.53-2.28-.63-3.92,1.1,0,0-3.19,1.95-3.19,1.95-4.15,3.01-13.25,4.14-18.16,5.23,4.66,1.15,8.84.78,13.58-.6l7.86-2.29c.66-.19,1.7-2.09,2.08-3.1,12.59-3.81,14.22-17.99,12.62-29.92-3.34-9.16-.51,6.82-2.56,14.87-1.51,6.1-3.48,9.69-8.31,12.76ZM64.16,89.18v3.47h3.31v-3.47h-3.31ZM49.62,103.25l3.33-3.12c.35-.32.29-1.89.18-2.34s-1.51-.51-1.78-.18l-2.97,4.11,1.23,1.52Z" fill="#753d14"/><path d="M69.31,57.89c-1.34-1.6-29.32-.64-31.68-.91,0,0-7.34,1.28-7.34,1.28l-2.53,1.48,1.11-3.75c4.54-1.23,27.65-.85,32.74-.92,0,0,5.71,1.15,5.71,1.15.64.13,1.88,1.05,1.98,1.66Z" fill="#4c3928"/><path d="M71.05,119.68c-.8,1.32-3.21,2.6-4.52,3.31-2.98.49-24.09.64-27.59.73-1.46-.59-1.67-2.45.08-2.1,11.27,1.28,21.4.25,32.03-1.94Z" fill="#514f4c"/><path d="M33.19,42.47l.57-1.82,16.3,1.09,10.03-.44c-.12-.25.21.43.98,2.08l-11.98.29-15.9-1.2Z" fill="#5e5d5d"/><path d="M83.94,59.69c-2.05-.67-6.47-2.05-8.5-2.64,0,0,1.76-4.52,1.76-4.52l1.73-3.85,2.31,4.21c1.79,2.08,2.78,4.42,2.7,6.8Z" fill="#d9d8d5"/><path d="M85.68,63.73c.08.18.11.6.14.87l-3.3,1.94-3.51,1.37c-.28-.93-1.9-6.56-2.2-7.34,0,0,6.7,1.23,6.7,1.23.58.13,2.07,1.75,2.17,1.92Z" fill="#753d14"/><path d="M86.7,65.45c-2.68,3.15-9.93,5.39-13.58,7.02,0,0-1.92-.18-1.92-.18l.24-1.84,7.58-2.52,3.51-1.37,3.3-1.94s.88.85.88.85Z" fill="#d9b68b"/><path d="M74.9,39.72c-4.04,1.34-7.26,2.87-12.11,2.03l11.95-4.1.16,2.07Z" fill="#6f6e6e"/><path d="M75.92,58.31c.31.8,1.08,2.73,1.3,3.54,0,0-7.32-.58-7.32-.58l-.6-3.37,6.62.42Z" fill="#d9b68b"/><path d="M83.94,59.69l1.74,4.05c-.1-.17-1.58-1.79-2.17-1.92l-6.7-1.23-.89-2.27-.49-1.26c2.02.57,6.47,1.98,8.5,2.64Z" fill="#4c3928"/><path d="M59.74,34.05c-3.74.04-12.77.16-16.41.25-.79.02-2.71-.58-2.98-1.2l18.43-.11.96,1.06Z" fill="#565552"/><path d="M71.76,29.9c-.02.21-.28,1.29-.1,1.63l-3.3,1.08c-.09-1.25,2.22-2.85,3.41-2.71Z" fill="#cbc9c3"/><path d="M71.66,31.53c-.18-.34.09-1.42.1-1.63l2.51.3-.58,5.12-2.03-3.79Z" fill="#565552"/><path d="M77.22,48.46l-1.25-3.81c1.41.31,2.25,1.35,1.25,3.81Z" fill="#7b7c7d"/><path d="M69.31,57.89s.6,3.37.6,3.37l7.32.58s1.79,6.07,1.79,6.07l-7.58,2.52c-4.28.72-13.57,2.24-17.8,2.67-7.99.9-20.75-1.93-28.8-2.65,0,0,1.26-4.78,1.26-4.78.17-.53,2.36-.99,2.91-1.14l-1.94-2.3c-.45-.54.5-1.83.7-2.51l2.53-1.48,7.34-1.28c2.48.27,30.21-.7,31.68.91ZM64.31,69.17c-3.15-3.27-6.15-1.62-8.52.28l8.52-.28Z" fill="#965d2f"/><path d="M21.79,71.95l2.3,1.06c-.45,4.99-1.3,15.54-1.6,20.47.9,2.47,3.07,8.42,3.99,10.95,0,0-4.53,1.09-4.53,1.09-3.55-3.77-6.17-8.76-7.54-14.03-1.76-6.75,1.09-13.94.75-20.96,0,0,1.67-.04,1.67-.04,0,0,4.95,1.48,4.95,1.48Z" fill="#d09256"/><path d="M11.08,74.45c-.44,3.21-1.42,9.8-1.98,12.95,0,0-.8,0-.8,0l-1.3-4.92c-.15,1.7,1.69,11.19-.39,11.68-2.29-5.53-1.24-14.54.88-21.32,0,0,1.99,3.43,1.99,3.43,0,0,1.59-1.83,1.59-1.83Z" fill="#965d2f"/><path d="M19.14,60.53l-3.02,7.78.71,2.15-1.67.04c-.26-.36-2.29-1.1-2.73-.49l-1.63,2.33c-1.68-.12-1.93.07-2.01-2.18-.02-1.57,1.71-3.29,3.73-4.09l-.64-2.32c-.16-.59,1.12-1.91,1.73-2.04l5.53-1.18Z" fill="#965d2f"/><path d="M40.25,72.45l.26,1.83-6.71-.23-6.05-1.62c-.92-.25-3.01.28-3.66.57l-2.3-1.06,3.04-1.48,15.42,1.98Z" fill="#cbc9c3"/><path d="M22.38,57.91l.19,1.89c-2.05.45-6.86,1.47-8.96,1.92-.6.13-1.89,1.45-1.73,2.04l-1.23-.53c-.33-.19.61-1.3.85-1.61l1.61-2.09c.24-.31-.37-1.31-.57-1.64l.96-.04,1.02,1.42,7.86-1.36Z" fill="#565552"/><rect x="24.21" y="36.41" width="2.45" height="6.13" transform="translate(-19.55 52.95) rotate(-73.87)" fill="#6f6e6e"/><path d="M13.5,57.84l-.96.04c-.79-1.33.35-4.56,3.19-4.49l-2.23,4.45Z" fill="#7b7c7d"/><path d="M22.57,59.8l-.19-1.89,2.65-.5c.1.12-.02,2.02-.52,2.09l-1.95.3Z" fill="#a9aaaa"/><polygon points="8.64 99.18 7.56 96.48 9.69 98.12 8.64 99.18" fill="#965d2f"/><path d="M76.01,107.25s.02-1.62.02-1.62c0,0,3.2-2.47,3.2-2.47,9.08-7.44,4.27-32.42,6.84-27.14.18.37.8,1.58.83,1.98,1.5,10.96.19,24.96-10.89,29.25Z" fill="#342316"/><path d="M72.1,106.74l2.17,1.18c-.38,1.02-1.42,2.91-2.08,3.1-6.71,1.93-14.57,4.93-21.44,2.89,0,0,10.82-2.19,10.82-2.19,3.65-.73,7.44-3.05,10.53-4.99Z" fill="#342316"/><path d="M71.19,72.29l1.92.18c-7.82,3.4-19.2,3.77-27.72,3.51-2.02-.35-10.1-.34-11.6-1.93,0,0,6.71.23,6.71.23l17.22-.03c3.29-.58,10.17-1.64,13.47-1.97Z" fill="#342316"/><path d="M49.62,103.25l-1.23-1.52,2.97-4.11c.27-.34,1.66-.27,1.78.18s.17,2.02-.18,2.34l-3.33,3.12Z" fill="#342316"/><rect x="64.16" y="89.18" width="3.31" height="3.47" fill="#342316"/><path d="M76.02,105.64l-.02,1.62-1.73.67-2.17-1.18c1.65-1.73,1.89-1.63,3.92-1.1Z" fill="#d09256"/><path d="M71.43,70.44l-.24,1.84-5.9.73-7.56,1.24-17.22.03s-.26-1.83-.26-1.83c9.85,2.11,21.4-.4,31.18-2Z" fill="#aaae63"/><path d="M64.31,69.17l-8.52.28c2.36-1.89,5.36-3.55,8.52-.28Z" fill="#4c3928"/></g></svg>