<?xml version="1.0" encoding="UTF-8"?><svg id="Layer_2" xmlns="http://www.w3.org/2000/svg" viewBox="0 0 128.97 135.6"><g id="Layer_1-2"><path d="M97.74,46.88s1.24-.11,1.24-.11c0,0,2.23,3.53,2.23,3.53,0,0,2.61,3.23,2.61,3.23,0,0-.55,5.88-.55,5.88l.77,3.21-1.68,13.56-.11,3.69s0,.33,0,.33c0,0-1.67.57-1.67.57-4.77,16.5-17.57,33.12-34.03,33.98,0,0-11.71.61-11.71.61-2.39-.39-8.32-.78-10.64-1.26,0,0-4.39-2.33-4.39-2.33,0,0-6.5-3.93-6.5-3.93l5.19-2.16s5.14.59,5.14.59c-.85-5.22-5.51-8.54-7.42-16.89,0,0-2.34-10.21-2.34-10.21-1.28-5.58-5.22-3.72-5.29-8.63,22.65,6.72,48.62,6.04,68.08-3.77.88-.34,2.04-2.28,2.28-3.1,1.16-3.89,3.15-9.14-.51-12.53-5.98-5.71-14.42-8.08-22.43-9.24,0,0-8.17-.86-8.17-.86-3.01-.85-6.35-.74-9.74.48,0,0-2.67-1.24-2.67-1.24l-7.39.86c-4.25.64-9.99.76-13.97,2.26,0,0-7.84,3.08-7.84,3.08,0,0-2.88.67-2.88.67l-.29-2.02s7.11-2.6,7.11-2.6c4.49-.96,15.32-3.21,19.74-3.65,8.75-1.53,18.82.09,27.59,1.21,0,0,10.18,2.77,10.18,2.77,0,0,10.08,4.03,10.08,4.03ZM88.24,89.43c.69.67,4.17,1.36,4.67.6l2.86-4.36,1.65-15.04c-4.51.21-7.4.86-11.16,2.18l1.75,4.29c1.6,3.92-2.43,9.75.24,12.34ZM80.53,106.7l6.21-7.37-1.53-1.38-6.28,7.49,1.61,1.27Z" fill="#f6f1e7"/><path d="M29.89,108.32c-1.48,3.84-2.18,6.9,2.57,8.95,0,0,8.72,3.5,8.72,3.5.44.18,2.05-.98,2.15-1.15l5.13.76c3.84.36,13.96,1.42,17.67,1.34.81.03,2.84.96,3.69.74,8.85-2.1,12.8-2.73,19.95-8.78,0,0,10.41-3.47,10.41-3.47-1.78-4.44-5.37-5.81-9.24-6.41.56-.5,2-1.68,2.73-1.82l7.91-1.57c-.04.77.17,1.84.76,1.98,3.23.62,3.18.57,3.78,4.08,1.18,4.77,1.53,6.49-2.17,11.22,0,0,.97,1.06.97,1.06,4.57-3.17,4.74-7.24,3.66-11.32l4.03-1.05c3.54,2.39,1.21,10.19-1.43,12.13l-8.38,6.18c-2.31-.56-4.17-.07-6.73,1.02-6.98,2.97-14.47,4.57-22.06,6.03-11.84,1.9-24.07,2.11-35.85-.05-15.57-1.57-48.87-13.27-30.78-29.27,0,0,7.52-4.34,7.52-4.34.41-.24,1.52-1.09,1.36-1.5.57-.07,3.78.41,4.41.51,1.01,1.31,8.34,10.31,9.23,11.24ZM9.91,107.23l3.77-3.53-2.82,1.05-.95,2.48ZM101.73,118.99l-4.8,2.88,1.02,1.69,4.8-2.88-1.02-1.69ZM37.75,127.8c-3.9-2.61-8.31-2.97-12.55-4.11,0,0,.17,2.21.17,2.21l12.38,1.9Z" fill="#f6f1e7"/><path d="M67.83,41.02c-.32.6-.01,2.84-.13,1.96l17.91,3.63,6.54,2.29c4.94,1.26,8.51,7.47,5.54,11.91,0,0-1.44,2.97-1.44,2.97-17.37,11.43-44.33,10.99-64.07,5.82-5.8-1.51-10.93-5.04-15.92-7.99-.56-1.98-1.48-6.57-.12-8.04l4.71-5.11c1.15-1.16,3.83-1.65,5.36-2,0,0,.78,2.18.78,2.18l-4.68,3.36c-.11-.06.71.37,1.55.8,0,0,6.46-4.72,6.46-4.72,4.31-3.16,12.1-4.03,17.45-5.06,0,0,.26-1.9.26-1.9l7.39-.86,2.67,1.24c3.38-1.23,6.73-1.34,9.74-.48ZM59.88,46.18l3.64-3.05-10.04-.04,3.36,2.85c.6.51,2.46.73,3.04.25ZM71.9,56.49c1.63-.83,2.54-5.69,1.46-7.05-1.92-2.41-6.42-3.39-9.13-2.58-2.04.6-4.3,2.92-6.63,5.24-1.76-3.61-4.68-5.59-8.7-5.4-7.82.57-10.55,7.44-2.71,11.44,1.76.76,10.5,4.32,11.94,5.24.51.26,1.7-.71,2.28-1.01l11.5-5.89ZM34.76,49.24c-7.97.76-9.58,10.24-2.73,14.37,0,0,9.89,3.17,9.89,3.17,3.17,1.02,7.31.95,10.63.71,1.42.7,4.35,2.57,5.79,2.34,8.48-1.57,18.7-1.8,25.86-6.85,0,0,3.72-4.09,3.72-4.09,2.34-2.57-.7-8.15-7.77-10.35l-2.71-.98s-.85,2.64-.85,2.64c-.18.55,1.31,1.39,1.76,1.82,1.72,1.62-.79,6.06-7.08,8.43l-7.83,2.95-5.11,3.16-4.13-2.63-12.03-4.62c-2.18-.84-4.27-4.77-3.86-6.74,0,0,1.07-5.11,1.07-5.11,0,0-4.62,1.77-4.62,1.77Z" fill="#d9b68b"/><path d="M101.57,100.42l-7.91,1.57c-.72.14-2.17,1.32-2.73,1.82,0,0-8.28,7.47-8.28,7.47l-2.19,4.61c-4.48,2.6-9.63,3.71-14.33,5.84-3.67.13-13.9-1.01-17.67-1.34,0,0-5.13-.76-5.13-.76-3.81-1.42-7.88-3.86-9.05-8.14,0,0-4.38-3.17-4.38-3.17-.93-.89-8.21-10.02-9.23-11.24,0,0-3.43-.49-3.43-.49l1.18-2.93c.17-.43-.63-1.51-.85-1.73l-1.61-3.98c-.94-2.51-2.53-8-3.31-10.59,0,0,1.73-1.06,1.73-1.06l1.49,4.46c4.41,14.55,10.33,23.82,23.94,31,0,0,4.39,2.33,4.39,2.33l-1.68.52-3.61-.53-.52.5c5.92,5.55,30.51,7.27,39.84-.02-9.61,1.55-25.58,5.86-30.26.06l6.87.74,11.71-.61c16.45-.85,29.26-17.48,34.03-33.98l1.67-.57s-.34,2.59-.34,2.59c0,0-2.39,7.63-2.39,7.63l8.45-1.28c-.24-.47.48.93.49,1.17-1.18.55-3.75,1.74-5.04,1.86l-5.42.52-4.18,7.54,12.05-3.17c24.76-5.88,28.58-40.03,6.19-37.14,0,0-4.84,1.13-4.84,1.13l-.05-1.46,6.13-1.8c7.06-1.7,14.1,3.66,15.32,10.93,1.92,11.46-4.6,22.32-14.98,27.36l-6.28,3.05-5.81,1.28ZM37.62,113.87l.57-.5-.57.5ZM79.2,113.11l-.48.48.48.48.48-.48-.48-.48Z" fill="#565552"/><path d="M16.25,96.58c.16.41-.95,1.27-1.36,1.5-5.51,3.25-12.95,6.04-12.71,13.89,3.55,20,54.28,23.69,71.81,19.77,7.58-1.45,15.07-3.06,22.06-6.03,2.56-1.09,4.42-1.58,6.73-1.02,0,0-.23,1.88-.23,1.88-.5.92-10.19,4.07-11.33,4.55-24.99,7.07-71.96,7.92-89.71-13.77-5.73-9.42,6.11-20.92,14.74-20.78Z" fill="#494949"/><path d="M97.74,46.88l-10.08-4.03-10.18-2.77-10.26-1.28c-11.9-1.84-25.41,1.27-37.07,3.72,0,0-7.11,2.6-7.11,2.6l-.84-1.37c-.63-1.03,12.98-5.61,21.7-6.49l11.28-1.14c10.52-1.06,38.05,2.7,42.56,10.75Z" fill="#5e5d5d"/><path d="M96.24,63.79l2.7-.14c-.24.83-1.4,2.76-2.28,3.1l-12.33,4.83c-13.07,5.12-40.27,3.93-55.75-1.06-5.37-1.73-11.09-4.52-12.32-8.9l4.14,2.46c19.64,12.27,56.55,12.23,75.84-.29Z" fill="#514f4c"/><path d="M14.02,73.67c.75,1.54-1.19,2.97-1.97,1.54l-1.83-15.82c-.66-5.73,2.28-10.49,7.64-13.27l1.16,1.36c-8.89,5.33-6.54,14.25-5,26.2Z" fill="#5e5d5d"/><path d="M102.55,126.58s.23-1.88.23-1.88l8.38-6.18c2.64-1.95,4.97-9.74,1.43-12.13l-1.78-4.42c3.66-.59,6.44,6.96,5.65,10.54-1.62,8.23-7.16,10.97-13.92,14.07Z" fill="#565552"/><path d="M59.48,24.35c-.29.69-.82,1.9-.82,1.9-.06,0-.99-.06-1.31-.1-1.53-2.32,4.07-6.59-.88-12.75-3.38-4.19.29-9.03,1.39-12.98.15-.53,2.17-.57,2.12-.03-.4,4.38-5.41,7.37-1.31,12.66,2.66,3.43,2.58,7.13.8,11.29Z" fill="#6f6e6e"/><path d="M105.72,53.56c.23,1.1,1.73,6.46,1.51,7.48,0,0-1.24,4.73-1.24,4.73l-.66,3.04-.99.76c-.33.25.36,2.17.75,2.03l1.49-.46-2.27,3.92-2.07,4.8s.11-3.69.11-3.69l1.68-13.56-.77-3.21.55-5.88,1.9.03Z" fill="#494949"/><path d="M108.56,107.44c1.08,4.08.91,8.16-3.66,11.32l-.97-1.06c1.85-2.37,3.4-5.26,3.04-7.01l-.87-4.21,2.46.96Z" fill="#7b7c7d"/><path d="M66.27,22.08l-.82,2.24c-.03.09-1.06-.02-1.42-.06-1.27-.15,2.44-4.56-.46-9.87l1.51-1.26c1.62,2.94,2.18,6.23,1.19,8.96Z" fill="#7b7c7d"/><path d="M53.44,19.66c.91,2.75.93,2.56-1.01,3.72,0,0-2.39-6.73-2.39-6.73-.41-1.16.45-4.11,1.39-4.57l2.01,7.58Z" fill="#6f6e6e"/><path d="M105.72,53.56l-1.9-.03-2.61-3.23-2.23-3.53c2.43-.21,5.86,3.16,6.74,6.79Z" fill="#5e5d5d"/><polygon points="17.56 91.94 12.69 90.49 15.95 87.96 17.56 91.94" fill="#f6f1e7"/><path d="M109.72,89.71s-1.26.59-1.26.59c-.02-.24-.73-1.64-.49-1.17,0,0-8.45,1.28-8.45,1.28.56-1.85,2.8-8.36,2.73-10.21,0,0,0-.33,0-.33l2.07-4.8,2.27-3.92s4.74-2.64,4.74-2.64c12.06-2.75,8.42,14.38-1.92,19.2,0,0,.32,2.01.32,2.01Z" fill="#efede9"/><path d="M88.24,89.43c-2.66-2.58,1.36-8.42-.24-12.34l-1.75-4.29c3.77-1.32,6.66-1.97,11.16-2.18l-1.65,15.04-2.86,4.36c-.5.76-3.98.08-4.67-.6Z" fill="#ece1cf"/><path d="M44.19,114.1l3.77.52c4.68,5.8,20.65,1.5,30.26-.06-9.84,7.35-34.55,5.85-40.6-.69,0,0,.57-.5.57-.5,0,0,.71.71.71.71l3.61.53,1.68-.52Z" fill="#cbc9c3"/><path d="M98.94,63.65l-2.7.14,1.44-2.97c2.96-4.44-.58-10.64-5.54-11.91,0,0-6.54-2.29-6.54-2.29l-17.91-3.63c.12.87-.19-1.36.13-1.96,10.54.91,22.63,2.46,30.6,10.1,3.66,3.39,1.67,8.64.51,12.53Z" fill="#d09256"/><path d="M48.03,41.13l-.26,1.9-7.05,1.28c-3.52.64-7.84,1.9-10.4,3.78-.98-.15-2.65.08-3.33.57l-.78-2.18,7.84-3.08c3.99-1.49,9.71-1.66,13.98-2.26Z" fill="#d09256"/><polygon points="80.53 106.7 78.92 105.44 85.21 97.95 86.74 99.33 80.53 106.7" fill="#6f6e6e"/><path d="M66.12,121.73c4.7-2.13,9.85-3.24,14.33-5.84,0,0,2.19-4.61,2.19-4.61l8.28-7.47c3.87.6,7.46,1.96,9.24,6.41l-10.41,3.47c-7.16,6.05-11.09,6.68-19.95,8.78-.85.22-2.88-.71-3.69-.74Z" fill="#ece1cf"/><path d="M43.32,119.63c-.1.17-1.71,1.33-2.15,1.15l-8.72-3.5c-4.73-2.04-4.06-5.11-2.57-8.95,0,0,4.38,3.17,4.38,3.17,1.17,4.27,5.24,6.72,9.05,8.14Z" fill="#ece1cf"/><path d="M37.75,127.8l-12.38-1.9s-.17-2.21-.17-2.21c4.25,1.14,8.64,1.49,12.55,4.11Z" fill="#5e5d5d"/><rect x="97.04" y="120.29" width="5.6" height="1.98" transform="translate(-48.17 68.65) rotate(-30.96)" fill="#d9d8d5"/><polygon points="9.91 107.23 10.86 104.75 13.68 103.7 9.91 107.23" fill="#7b7c7d"/><path d="M34.76,49.24c-1.39,2.4-4.22,6.26-3.01,9.23,1.6,3.14,12.44,8.69,18.73,7.29l-6.44-2.52c-2.53-.99-6.71-2.21-8.62-3.57-1.04-.74-2.03-4.13-1.34-5.1.79-1.11,2.88-2.47,4.24-1.99-.41,1.96,1.68,5.9,3.86,6.74l12.03,4.62,4.13,2.63,5.11-3.16,7.83-2.95c6.29-2.37,8.79-6.81,7.08-8.43,1.72-.43,4.32,1.55,4.33,3.4s-1.58,4.26-3.01,4.97l-8.81,4.41c5.23.5,10.33-1.85,13.26-5.89,1.04-1.43.84-6.11-.6-7.09l-3.37-3.29c7.07,2.2,10.11,7.77,7.77,10.35l-3.72,4.09c-7.16,5.05-17.39,5.28-25.86,6.85-1.43.22-4.37-1.64-5.79-2.34-3.32.24-7.46.3-10.63-.71l-9.89-3.17c-6.82-4.11-5.27-13.6,2.73-14.37Z" fill="#f8f2e7"/><path d="M71.9,56.49l-11.5,5.89c-.57.29-1.76,1.27-2.28,1.01-1.39-.9-10.24-4.5-11.94-5.24-7.82-3.99-5.13-10.87,2.71-11.44,4.02-.19,6.94,1.79,8.7,5.4,2.32-2.32,4.59-4.64,6.63-5.24,2.71-.8,7.22.18,9.13,2.58,1.08,1.36.17,6.21-1.46,7.05Z" fill="#faf7f1"/><path d="M38.31,52.58c-1.36-.48-3.45.88-4.24,1.99-.69.97.31,4.36,1.34,5.1,1.91,1.36,6.09,2.58,8.62,3.57l6.44,2.52c-6.29,1.41-17.13-4.14-18.73-7.29-1.2-2.97,1.62-6.83,3.01-9.23,0,0,4.62-1.77,4.62-1.77l-1.07,5.11Z" fill="#f8dfbd"/><path d="M80.15,48.55l3.37,3.29c5.21,7.44-5.7,13.95-12.66,12.97,0,0,8.81-4.41,8.81-4.41,1.43-.72,3.03-3.1,3.01-4.97s-2.61-3.84-4.33-3.4c-.46-.43-1.94-1.27-1.76-1.82l.85-2.64s2.71.98,2.71.98Z" fill="#f8dfbd"/><path d="M59.88,46.18c-.58.49-2.44.26-3.04-.25l-3.36-2.85,10.04.04-3.64,3.05Z" fill="#f6f1e7"/><path d="M30.32,48.09l-6.46,4.72c-.84-.43-1.66-.86-1.55-.8l4.68-3.36c.68-.49,2.35-.71,3.33-.57Z" fill="#965d2f"/><path d="M108.46,90.3c8.03-2.66,17.69-16.07,9.07-23.4-3.84-2.18-8.67.45-12.19,1.92.34-1.84,1.41-5.93,1.9-7.77,0,0,4.84-1.13,4.84-1.13,22.39-2.89,18.56,31.27-6.19,37.14,0,0-12.05,3.17-12.05,3.17l4.18-7.54,5.42-.52c1.28-.12,3.86-1.32,5.04-1.86Z" fill="#efeadf"/><rect x="78.86" y="113.26" width=".68" height=".68" transform="translate(-57.13 89.28) rotate(-45)" fill="#cbc9c3"/><path d="M109.72,89.71l-.32-2.01c13.79-7.37,12.26-26.99-2.82-16.56,0,0-1.49.46-1.49.46-.39.15-1.08-1.77-.75-2.03.6-.75,3.81-1.91,4.68-2.29,16.3-6.55,14.76,16.52.7,22.42Z" fill="#5e5d5d"/></g></svg>