<?xml version="1.0" encoding="UTF-8"?><svg id="Layer_2" xmlns="http://www.w3.org/2000/svg" viewBox="0 0 103.53 137.6"><g id="Layer_1-2"><path d="M61.45,45.68l1.15.36c-.02,1.79-6.05,4.04-7.34,4.95,0,0,2.92,3.43,2.92,3.43-1.9-.07-3.49-.16-4.23-.81l.25-4.61,7.24-3.32Z" fill="#4c3928"/><path d="M41.51,37.29l.82.07-.07,2.83c-.63,7.16,4.99,6.06,9.4,10.63,0,0,2.29,2.79,2.29,2.79-.08,1.38.53,3.85,1.03,5.13l1.04-1.18c.84-.86,8.29-5.67,9.45-6.47-.36-3.14-1.57-4.86-2.87-7.18,0,0-1.2-2.73-1.2-2.73l3.86,4.15s.23,1.49.23,1.49l.84,2.17c.19.48,1.05,1.26,1.49,1.53,1.22.77,6.16,3.9,7.29,4.63.34.22-.17,1.1-.64,2.07,0,0,.92,1.42.92,1.42-.34,2.64-2.65,5.61-4.94,7.42,0,0-1.7-.14-1.7-.14.32-1.2,1.24-3.65,1.75-4.8-13.82,4.59-29.2,6.01-43.23,4.09,0,0-1.38-1.03-1.38-1.03,0,0,4.01-.2,4.01-.2l13.63-.12c-10.09-.41-13.72-4.83-17.24-4.33l-7.01,1,2.07,1.79,1.09,1.78c-3.58-.85-10.85-2.35-14.47-2.95,0,0,3.41,5.4,3.41,5.4,1.67,6.16.74,12.81,1.98,18.78.22.66,1.99.93,2.68.88.52-.04.96-2.23.46-2.39,0,0-1.98-.61-1.98-.61.07-2.26,1.32-6.5,1.91-8.71.76-2.86,4.02-6.22,7-3.81l3.67,2.97.3,9.5-1.49.19-.95-6.63c-.21-1.46-2.1-4.78-3.55-4.85-1.76-.08-3.22,3.08-3.15,4.44,0,0,.46,9.17.46,9.17.08,1.52-3.01,3.81-4.47,3.61-1.28-.18-3.67-2.38-3.63-3.74l.2-7.89c.89-10.61-2.8-9.68-4.82-17.09.22-.7.57-1.64.28-2.17-.67-1.26-1.67-4.17-1.78-5.3,7.02-1.2,7.38-1.98,10.13-7.18,0,0,.65-2.86.65-2.86l1.4.04h1.64c-1.07,1.88-3.63,6.82-4.69,8.79,0,0,2,1.88,2,1.88.84.16,2.81.61,3.6,1.01l4.58,2.35-4.74.16c-.48-.92.18.74.7,1.91l4.79-.98,1.27-1.93c-.47-1.26-.83-2.31-.31-2.34l1.74-.13,2.73,1.93s.64-6.86.64-6.86l2.81,2.9c1.15-1.88,3.87-6.12,5.19-7.85,0,0,.29,4.71.29,4.71-1.55,1.53-4.76,4.88-6.27,6.49,0,0,2.71.25,2.71.25l.66,5.39,6.23.61c.59.06,2.3-1.61,2.36-1.88l1.2,2.35s3.57-3.28,3.57-3.28c.31-.29,1.33-.32,2.37-.33-.21.55.58-.79.45-1.13-1.44-5.92-5.63-9.69-12.34-8.76,0,0,.57-6.14.57-6.14.08-1.37-2.13-4.12-3.16-4.71,0,0,1.3-.25,1.3-.25l2.94.24ZM14.44,57.79c.09.64.02,2.4.71,2.43,0,0,3.33-.21,3.33-.21l-1.86-1.91.93-1.53-3.43-1.38-2.99-1.96c-.78-.51-3.14,1.38-3.39,2.37-.32,1.28,2.64,4.24,3.79,3.62l2.91-1.43ZM67.15,55.7l-2.98-1.45-6.46,4.96c3.81-.33,6.19-1.44,9.45-3.5ZM55.57,59.21l1.36-.44-1.36.44Z" fill="#4c3928"/><path d="M73.75,121.66c-3.67,9.75-8.95,9.76-17.03,14.44,0,0-8.56,1.03-8.56,1.03,0,0,0-1.96,0-1.96,0,0,4.12-.67,4.12-.67,0,0,8.22-2.45,8.22-2.45,5.91-2.21,10.79-6.44,11.36-13.07,1.43-12.96,3.81-32.62,4.91-45.6.1-1.1,1.47-3.42,2.15-3.45.06.58.05,3.11.08,3.75,0,0,.03,2.15.03,2.15l2.18-2.07,8.39-1.38c1.42.93,2.16,1.48,4.26,3.84l-4.8-1.61c-3.44-1.16-10.17,1.48-10.71,6.03l-2.43,20.39c11.35.53,19.13-9,17.68-21.18l1.98-1.19c1.62,13.45-5.51,23.7-19.58,24.71l-1.06,6.66c7.77-1.96,16.47-4.4,21.32-11.33,10.94-15.46,4.65-39.48-17.45-29.85-.35-.1-1.41-1.89-1.35-2.61l.61-7.07-2.95.52.24-1.05,1.6-1.64c5.46-6.8-6.7-11.45-11.73-11.68,0,0-3.86-4.15-3.86-4.15l-6.21-4.35c-2.9-2.03-5.47-3.76-9.04-1.69l-3.83,2.22-.82-.07s3.36-3.49,3.36-3.49c1.25-1.05,5.22-2.5,6.6-1.6l9.83,6.42c1.95,1.27,3.27,3.98,6.16,4.62,6.4,1.42,13.26,5.79,13.05,10.38l-.54,11.79c8.91-1.86,19.07-1.18,22.28,8.68,4.75,15.8-3.88,32.41-20.86,36.31-1.43.33-4.9,1.27-5.69,2.38-1.47,2.06-1.91,6.59-1.94,8.86Z" fill="#565552"/><path d="M3.06,70.78l4.83,48.91c.57,5.73,4.59,9.5,9.85,10.55l5.69,2.9,8.61,1.96s-.14,2.06-.14,2.06c-28.04-4.57-25.59-12.32-28.02-36.86-.44-4.34-1.35-13.12-1.78-17.46,0,0-1.05-12.05-1.05-12.05h2.03Z" fill="#5e5d5d"/><path d="M56.72,136.1c8.08-4.68,13.36-4.68,17.03-14.44,2.51-.18,5.94,1.18,7.25,4,.82,1.76-1.24,5.75-3.43,6.38l-17.66,5.05c-.78.22-2.98-.72-3.2-.98Z" fill="#d9d8d5"/><path d="M15.3,42.84l-.65,2.86c-.2-1.02-1.75-.18-2.37-.18-3.59.69-7.79,3.14-9.85,6.4-1.65,2.6,1.73,6.3,3.87,6.27.28.53-.06,1.48-.28,2.17l-4.05-1.51.38,4.28H.29S0,52.76,0,52.76c-.12-4.17,10.45-10.06,15.3-9.92Z" fill="#5e5d5d"/><path d="M41.77,12.64c3.02,5.51,4.14,5.77.64,14.01l-1.96-1.4c2.78-4.49,2.51-7.3-.04-11.02-3.38-4.92,1.42-8.5.81-14.23,5.46,1.72-2.07,7.85.55,12.64Z" fill="#6f6e6e"/><path d="M48.16,135.17v1.96c-5.31.64-10.98.6-16.28.03l.14-2.06c5.12,1.17,10.95,1.02,16.14.07Z" fill="#494949"/><path d="M49.12,21.74l-.86,2.58c-.17.52-2.22.04-2.07-.49.38-1.36,1.39-4.49,1.12-5.75l-1.2-5.64,2.38,1.22c.74,2.92,1.29,6.03.61,8.08Z" fill="#6f6e6e"/><path d="M38.57,37.05l-1.3.25-5.51-1.98c-.61-.22-2.6.53-2.66.71-1.31,0-3.15-.55-4.39.48,0,0-1.48,1.91-1.48,1.91.39-.52.3-2.25.12-2.7l3.02-2.9,1.84-.55,8.31,2.9c.52.18,2.15,1.69,2.05,1.87Z" fill="#565552"/><path d="M36.96,17.23l1.15,5.73c-2.39.06-4.08-5.56-3.66-9.69.31-.08,2.86-.75,1.64-.43l.88,4.38Z" fill="#686868"/><polygon points="2.35 63.13 3.06 70.78 1.03 70.8 .29 63.13 2.35 63.13" fill="#494949"/><path d="M23.36,35.73c1.13,3.1-2.98,5.51-5.02,7.14,0,0-1.64.01-1.64.01,1.42-1.8,5-5.51,6.66-7.15Z" fill="#5e5d5d"/><path d="M26.38,32.83l1.84-.55-1.84.55Z" fill="#5e5d5d"/><path d="M6.01,60.36c.41,2.43,1.7,4.42,3.59,7.23,2.28,4.29.88,12.77,1.04,17.75-.03,1.36,2.36,3.56,3.63,3.74,1.46.21,4.54-2.09,4.47-3.61,0,0-.46-9.17-.46-9.17-.07-1.36,1.39-4.51,3.15-4.44,1.46.06,3.35,3.39,3.55,4.85l.95,6.63c.25,3.2.3,10.05.23,13.3,0,0-1.06,14.75-1.06,14.75-.12,1.66,2.21,4.93,3.95,5.07,2.74.22,5.01-2.8,4.88-5.19l-1.08-19.48c-.74-8.05,1.75-22.55,8.55-13.99,2.11,8.86-1.14,14.44,1.53,18.12.83,1.14,4.78,1.38,5.72.32,5.37-6.05-3.63-21.87,9.28-24.62.86.65,2.5,3.34,2.46,4.72,0,0-.14,5.84-.14,5.84-.02.75.31,2.82,1,3.07l3.3.96c-.37,4.39-1.92,19.44-2.39,24.08-.57,3.5-2.3,15.16-3.3,18.4,0,0-10.32,2.99-10.32,2.99-.21.86-.37,2.61-.37,3.49-7.95,1.87-17.01-.03-24.74-2.03,0,0-5.69-2.9-5.69-2.9-5.25-1.04-9.28-4.81-9.85-10.55l-4.83-48.91c-.17-2.66-.92-9.33-1.09-11.94,0,0,4.04,1.51,4.04,1.51Z" fill="#f6f1e7"/><path d="M78.83,68.84s.1,1.08.1,1.08c-.68.03-2.05,2.35-2.15,3.45-.41,5.61-2.4,23.33-3.05,29.19,0,0-1.86,16.41-1.86,16.41-.39,3.46-1.73,6.58-4.17,8.66l-2.32-.03-.15-1.99-6.38,3.07c.98-3.15,2.75-14.94,3.3-18.4.48-4.73,2.01-19.6,2.39-24.08,7.26-1.88,1.07-10.77,5.9-20.15,1.9-1.46,4.23-4.36,4.7-6.37l2.95-.52s-.61,7.07-.61,7.07c-.06.72.99,2.51,1.35,2.61Z" fill="#ece1cf"/><path d="M69.43,63.76c-.51,2.47-2.78,5.01-2.89,7.95,0,0-.21,10.36-.21,10.36-.01.71-1.78,2.67-2.07,2.08l-.86-1.69,1.03-3.29c.14-.81-1.29-2.12-1.82-2.59,0,0-.95-3.08-.95-3.08-1.3-3.16-7.28-3.43-10.07-4.14-.07,4.38-3.31,5.34-3.45,15.88,0,0-.11,8.16-.11,8.16-.01.75-2.74,2.19-3.05,1.5l-.86-1.92,1.51-3.79c.85-1.82-.28-7.83-.41-9.81-.07-.59,0-1.79-.37-1.82,0,0-1.45.02-1.45.02l-.02-.9c-.07-2.85-.65-2.54-3-2.99-1.2-.24-4.23-.19-5.27.52-2.18,1.49-4.03,6.27-4.04,8.96l-.02,13.58.96,11.69c.12,1.42-.9,4.63-1.82,5.66-.38.42-2.27-.87-2.36-1.43,0,0-.24-1.5-.24-1.5,0,0,1.9,0,1.9,0,.32,0-.38-1.36-.38-1.73-.2-3.66-.04-27.82-.04-32.06-.08-2.79-3.71-5.15-5.61-6.7-2.98-2.41-6.23.95-7,3.81l-1.35,5.07-1.54-1.81c.3-2.72-.52-10.91,1.31-13.1,0,0,5.85,1.8,5.85,1.8l6.41.71,20.18.56c7.69.22,15.07-2.12,22.12-3.98Z" fill="#753d14"/><path d="M29.1,36.04l1.42,3.21-.68,2.63,3.12-1.01,5.3-.43s.38,3.28.38,3.28c-1.31,1.74-4.03,5.95-5.19,7.85-.92-.95-3.25-3.41-4.32-4.13,0,0-2.13,2.06-2.13,2.06l-1.32.24c-.33.06-.89,1.27-.57,1.38l1.89.66.27,1.83c-1.97.18-2.54-.34-1.43,2.47,0,0-1.27,1.93-1.27,1.93l-4.79.98c-.52-1.18-1.18-2.84-.7-1.91l4.74-.16c-2.06-1.11-5.83-3.15-8.17-3.36.44-3.47-.35-3.65,3.65-4.23.05.16-2.34-2.1-1.79-2.49l3.38-2.39c.71.72,2.99,2.2,3.7,1.6l2.68-2.29-3.14-2.97,3.1-4.86,1.88.11Z" fill="#965d2f"/><path d="M51.56,55.22l.64,1.7c.13.34-.66,1.68-.45,1.13-1.04,0-2.06.04-2.37.33l-3.57,3.28-1.2-2.35-.44-3.43-2.21,3.61c-.32.52-2.91-.06-3.14-.63l-1.57-4.52c1.07-1.31,3.36-3.55,5.44-4.53,1.31-.61,4.41,1.69,5.41,2.74l3.45,2.68Z" fill="#753d14"/><path d="M69.43,63.76c-7.05,1.87-14.42,4.2-22.12,3.98l-20.18-.56.14-1.97c14.03,1.91,29.41.5,43.23-4.09,0,0-1.07,2.65-1.07,2.65Z" fill="#d9b68b"/><path d="M70.45,66.06c-4.84,9.38,1.35,18.27-5.9,20.15l-3.3-.96c-1.77-1.4-.67-6.93-.86-8.9.03-1.38-1.6-4.06-2.46-4.72l-.34-1.05c1.27.26,3.68,1.71,4.06,2.92l.95,3.08.08,3.88c.16,1.13,1.08,2.67,1.57,3.69.3.59,2.06-1.38,2.07-2.08l.21-10.36c.04-1.75,1.43-4.78,2.22-5.79l1.7.14Z" fill="#342316"/><path d="M61.41,41.18c.51,1.31,1.76,3.87,2.5,5.06,0,0-1.3-.2-1.3-.2l-1.15-.36c.3-.17-1.16-1.8-1.77-1.83-.88-.05-3.28.5-4.07.86l-4.95,2.22,2.68-2.69,4.41-3.62-5.05-3.3-1.11.62,3.34,3.02c.15-.11-4.68,3.44-5.36,3.94,0,0-5.38-3.65-5.38-3.65l-1.93-1.06.07-2.83,3.83-2.22c3.57-2.07,6.14-.35,9.04,1.69l6.21,4.35ZM49.46,36.09l1.51-.57-1.51.57ZM51.62,36.21l-.58.55.34.68.72-.73-.48-.51Z" fill="#d09256"/><path d="M75.39,58.64s-.92-1.42-.92-1.42c1.41-2.54.56-1.94-1.07-3.17,0,0-5.58-3.53-5.58-3.53l-.58-3.84-1.74.13-.23-1.49c4.59.32,8.86,2.15,12.45,5.79,1.31,1.33.46,4.89-.72,5.89l-1.6,1.64Z" fill="#d9d8d5"/><path d="M25.89,64.18l-3.45-.08-1.09-1.78-2.07-1.79,7.01-1c3.51-.5,7.14,3.92,17.24,4.33-2.96.04-14.92.06-17.64.32Z" fill="#753d14"/><path d="M14.64,45.7l-2.34,4.09c-.96,1.68-4.44,2.5-7.8,3.1.11,1.13,1.11,4.04,1.78,5.3-2.14.02-5.51-3.67-3.87-6.27,2.06-3.26,6.26-5.71,9.85-6.4.62,0,2.16-.83,2.37.18Z" fill="#d9d8d5"/><path d="M50.66,46.93c2.32-1.01,6.41-3.19,9.02-3.08.61.03,2.07,1.65,1.77,1.83l-7.24,3.32-.25,4.61-2.29-2.79c-3.5-3.98-9.19-3.5-9.35-8.81l3.51,2.66c.99,1,3.57,2.83,4.83,2.26Z" fill="#965d2f"/><path d="M53.96,53.61c.74.65,2.33.73,4.23.81l-2.92-3.43,5.63-2.99c.61-.32,1.97-1.61,1.71-1.96l1.3.2c.76,1.11,1.28,2.86,1.57,4.85-1.2.82-8.57,5.58-9.45,6.47,0,0,.91,1.21.91,1.21l-1.36.44c-1.34-.97-1.51-4.07-1.61-5.6Z" fill="#965d2f"/><path d="M51.56,55.22c-6.88-5.07-7.61-8.58-14.31-.88,0,0-1.88.84-1.88.84l-2.71-.25c1.53-1.62,4.71-4.95,6.27-6.49,5.5-1.61,11.46,1.5,12.63,6.78Z" fill="#d9b68b"/><path d="M27.58,111.18c.17-4.44.47-17.57.57-22.21,0,0-.73-5.82-.73-5.82l-.3-9.5c.79.64,1.94,2.72,1.94,3.73,0,4.43-.17,28.2.04,32.06,0,.37.71,1.74.38,1.73,0,0-1.9,0-1.9,0Z" fill="#d09256"/><path d="M37.28,37.31c1.03.59,3.24,3.34,3.16,4.71l-.57,6.14s-.93.28-.93.28c-.1-1.95-.38-6.09-.67-7.99,0,0-5.3.43-5.3.43,0,0-.19-2.8-.19-2.8l-2.26,1.17-1.42-3.21c.06-.18,2.05-.94,2.66-.71l5.51,1.98Z" fill="#d09256"/><path d="M14.99,62.45l-.12,2.22c-.47.63-1.14,2.8-1.16,4.04l-.14,9.06,1.54,1.81-.35,1.81-2-.97c0-4.46-.36-9.3-1.36-13.86l-3.41-5.4,7.01,1.3Z" fill="#d09256"/><path d="M27.23,35.93l-3.1,4.86-3.24,3.66-3.38,2.39c-.55.39,1.84,2.65,1.79,2.49-.82.16-3.21.41-3.32,1.18l-.34,3.04-2-1.88c1.07-2.02,3.62-6.86,4.69-8.81,1.45-.94,3.85-3.07,4.89-4.44l1.48-1.91c.46-.53,2.12-.74,2.51-.59Z" fill="#d9b68b"/><polygon points="22.44 64.1 25.89 64.18 27.27 65.2 27.13 67.18 20.72 66.46 14.87 64.66 14.99 62.45 22.44 64.1" fill="#f8dfbd"/><path d="M37.25,54.33l1.57,4.52c.23.57,2.82,1.15,3.14.63l2.21-3.61.44,3.43c-.06.27-1.76,1.94-2.36,1.88l-6.23-.61-.66-5.39,1.88-.84Z" fill="#d09256"/><path d="M14.13,55.19l.31,2.61-2.91,1.43c-1.15.62-4.11-2.35-3.79-3.62.25-.99,2.61-2.88,3.39-2.37l2.99,1.96Z" fill="#753d14"/><path d="M30.64,48.68l-.64,6.86-2.73-1.93c-.23-1-.32-3.08-.27-4.11,0,0,2.13-2.06,2.13-2.06l1.51,1.23Z" fill="#d09256"/><path d="M67.15,55.7c-3.26,2.07-5.63,3.17-9.45,3.5l6.46-4.96,2.98,1.45Z" fill="#d09256"/><polygon points="28.15 88.97 26.2 89.05 25.93 83.34 27.42 83.15 28.15 88.97" fill="#514f4c"/><path d="M14.75,81.38l-.21,1.83-1.17,2.12c-.41-1.2-.62-3.4-.62-4.92l2,.97Z" fill="#edc393"/><path d="M16.63,58.1l-2.16.03c.02-.08-.33-2.77-.34-2.95,0,0,3.43,1.38,3.43,1.38l-.93,1.53Z" fill="#965d2f"/><path d="M13.37,85.33l1.17-2.12,1.98.61c.5.15.06,2.35-.46,2.39-.7.05-2.46-.22-2.68-.88Z" fill="#753d14"/><path d="M16.63,58.1l1.86,1.91-3.33.21c-.6.04-.64-1.49-.69-2.09l2.16-.03Z" fill="#753d14"/><path d="M67.82,50.52c-.43-.27-1.3-1.05-1.49-1.53l-.84-2.17,1.74-.13.58,3.84Z" fill="#565552"/><path d="M50.66,46.93c-1.26.57-3.83-1.27-4.83-2.26l-3.51-2.66-.06-1.82c1.35.57,6.02,3.84,7.31,4.71.68-.5,5.5-4.05,5.36-3.94,0,0-3.34-3.02-3.34-3.02-.11-.29-.42-.9-.56-1.18,0,0-1.57-.67-1.57-.67l1.51-.57c.28.3.86.9,1.13,1.2.07.39,5.24,3.6,5.65,3.9-1.81,1.41-5.6,4.6-7.09,6.31Z" fill="#753d14"/><path d="M89.61,72.37l-.42-1.9c-.12-.53-2.01-1.01-2.59-.93l-7.63,1.31c0-.5-.08-1.52-.14-2.02,0,0,6.88-2.03,6.88-2.03,4.8-1.22,10.48,1.19,13.01,5.26,4.92,7.9,2.98,18.98-2.44,26.62-4.85,6.93-13.55,9.37-21.32,11.33,0,0,1.06-6.66,1.06-6.66,14.07-1,21.19-11.26,19.58-24.71l-1.98,1.19c1.45,12.19-6.33,21.72-17.68,21.18l2.43-20.39c.54-4.55,7.27-7.18,10.71-6.03l4.8,1.61c-2.11-2.36-2.85-2.91-4.26-3.84Z" fill="#efede9"/><path d="M89.61,72.37c-1.63.23-9.08,1.71-10.6,1.3,0,0-.05-2.82-.05-2.82l7.63-1.31c.58-.08,2.48.4,2.59.93l.42,1.9Z" fill="#ece1cf"/><path d="M67.7,127.64c-3.42,3.7-10.64,5.5-15.42,6.86,0,0-4.12.67-4.12.67,0,0,.09-1.94.09-1.94l13.12-3.08c1.15-.29,3.4-1.96,4-2.54l2.32.03Z" fill="#cbc9c3"/><polygon points="81.22 73.75 79.04 75.82 79.02 73.67 81.22 73.75" fill="#efede9"/><path d="M57.59,70.57s.34,1.05.34,1.05c-12.91,2.75-3.91,18.57-9.28,24.62-.94,1.06-4.89.82-5.72-.32-2.67-3.68.58-9.26-1.53-18.12-.28-1.17-3.05-2.91-4.17-2.61-7.78,3.56-3.02,28.05-3.3,36.07.13,2.4-2.14,5.41-4.88,5.19-1.74-.14-4.07-3.41-3.95-5.07l1.06-14.75.04-7.6,1.95-.08-.35,15.31c0,1.03-.4,7.51.03,8.39.09.56,1.98,1.85,2.36,1.43.92-1.03,1.93-4.24,1.82-5.66l-.96-11.69.02-13.58c0-2.69,1.85-7.47,4.04-8.96,1.04-.71,4.07-.76,5.27-.52l3,2.99c-.12.46.65,5.3.7,5.9,0,0,.37,6.39.37,6.39-.33.32-1.27,1.2-1.12,1.66.32,1.1,1.14,3.26,1.65,4.28.31.69,3.04-.76,3.05-1.5,0,0,.11-8.16.11-8.16.14-10.54,3.38-11.5,3.45-15.88l6.01,1.21Z" fill="#4c3928"/><path d="M65.38,127.61c-.61.57-2.85,2.24-4,2.54l-13.12,3.08.28-1.55,10.32-2.99,6.38-3.07.15,1.99Z" fill="#686868"/><path d="M45.63,89.19s-1.19-.22-1.19-.22l-.37-6.39-.67-4.99c1.82-.04,1.73-.31,1.83,1.79.14,2.01,1.25,7.95.41,9.81Z" fill="#965d2f"/><path d="M63.39,82.46c-.94-1.29-.74-4.39-.79-5.88.54.47,1.96,1.78,1.82,2.59l-1.03,3.29Z" fill="#aaae63"/><path d="M45.63,89.19l-1.51,3.79-.79-2.35c-.15-.46.79-1.33,1.12-1.66l1.19.22Z" fill="#cbc9c3"/><path d="M43.37,76.69l-3-2.99c2.35.46,2.92.13,3,2.99Z" fill="#965d2f"/><path d="M20.89,44.45l3.24-3.66,3.14,2.97c-2.85,2.31-2.81,3.63-6.37.69Z" fill="#d09256"/><polygon points="32.96 40.88 29.84 41.89 30.52 39.25 32.77 38.08 32.96 40.88" fill="#4c3928"/><path d="M27,49.5v2.28s-1.89-.66-1.89-.66c-.31-.11.25-1.32.57-1.38l1.32-.24Z" fill="#4c3928"/></g></svg>