<?xml version="1.0" encoding="UTF-8"?><svg id="Layer_2" xmlns="http://www.w3.org/2000/svg" viewBox="0 0 138.65 155.03"><g id="Layer_1-2"><path d="M114.11,117.39l6.39.67.53,4.23c.46,3.63,4.46,10.13-.89,13.44-2.12,1.31-2.83,2.27-4.46,4.66-1.44,2.12-6.21,4.53-8.82,4.89l-5.91.8c-.5.07-1.55.42-1.75.86-.27.56-.78,1.7-1.1,2.24-15.71,3.44-32.54,5.4-48.95,3.68-1.38-.13-8.55-.88-9.82-.77,0,0-.05-.72-.05-.72.24,0,2.13-.59,1.98-1.13,0,0-.78-2.78-.78-2.78,0,0-.5-1.78-.5-1.78l-5.28-1.11-.5-4.69c-2.83-5.72-8.34-5.08-12.26-.48-3.25,3.96-8.17,1.3-8.3.46l-.38-2.47-2.25-5.74,8.29-.91c7.81-1.42.63-6.1,4.47-9.88,0,0,11.42,12.44,11.42,12.44,2.71,2.95,4.59,6.19,8.98,7.32,9.25,2.38,18.72,2.78,27.93,1.55l.17,2.47c8.13-.59,17.29-4.82,23.87-9.36.79-.55,1.61-3.46,1.91-4.46.93-3.06,5.06-.54,9.56-3.69l-8.94-4.94c1.5-5.34,4.47-5.97,10.36-6.92,2.1,1.1,3.84,1.98,5.07,2.11ZM87.37,147.69c8.86-2.13,18.72-4.03,25.82-10.21,4.09-3.38,4.15-10.94.55-11.49.19,2.27.8,5.78.04,7.3-1.42,2.84-5.17,6.2-8.27,7.1l-20.12,5.84,1.99,1.45ZM47.18,146.71l-.04,2.25,19.13.36.04-2.25-19.13-.36Z" fill="#f1ede4"/><path d="M87.37,42.6l.11,1.27c-.57-.04-1.91-.31-2.57-.52,0,0-7.16-2.36-7.16-2.36l-15.58-2.98c-3.33-.64-8.02,1.63-11.29,2.26l-9.88,1.93-7.34,2.18c-6.57,1.52-15.47,2.73-19.81,8.39-.62.7-1.81,2.43-1.67,3.35l.72,4.82c-.03.08-1.46,2.43-1.42,3.09,0,0,.62,12.12.62,12.12l5.56,27.27s1.23,1.86,1.23,1.86c3.92,10.96,9.87,21.88,21,27.35,11.78,5.76,25.91,5.56,38.24,2.52,2.69-.61,5.99-2.88,8.39-4.17,0,0,2.76-1.99,2.76-1.99,0,0,1.02,1.36,1.02,1.36,0,0-2.83,2.56-2.83,2.56-.08,5.65-8.68,8.41-15.37,9.3-9.21,1.23-18.68.83-27.93-1.55-4.39-1.13-6.27-4.37-8.98-7.32l-11.42-12.44-3.52-5.27s-6.95,1.95-6.95,1.95c.43-.99,1.41-2.37,2.05-2.69,0,0,3.67-1.89,3.67-1.89-4.39-10.95-7.15-21.32-8.52-32.75,0,0-1.07-24.8-1.07-24.8-.1-2.3,3.85-5.9,5.8-7.03,10.52-5.86,24.05-7.55,35.58-10.51,5.31-1.21,10.36-3.13,15.82-1.04,6.88,2.63,12.89.26,20.74,5.76ZM75.19,137.58c-15.95,3.37-16.95,1.97-32.25-1.49,0,0-4.62-.98-4.62-.98,5.89,4.86,12.42,4.96,19.17,5.87,5.85,1.46,16.32-1.52,22.11-2.54,1.68-.33,4.04-2.18,4.81-3.28l-9.22,2.42Z" fill="#514f4c"/><path d="M114.15,63.61c.48-.04,1.59-.36,2.06-.63,0,0,.26,1.54.26,1.54-.84.25-2.6,2-2.63,2.86,0,0-.25,7.21-.25,7.21l4.34-2.51s1.13,1.31,1.13,1.31-3.91,2.82-3.91,2.82c-.9.65-2.22,3.03-2.46,4.18l-4.75,22.92c4.01,1.08,8.71-1.15,11.81-3.79l1.51.59c-4.53,3.25-8.58,5.54-14.67,6.24,0,0-2.7,6.69-2.7,6.69-.26.65,1.81.94,2.54.75l6.32-1.69,1.39,1.43-.02,3.87c-1.23-.13-2.98-1.01-5.07-2.11-5.9.95-8.87,1.58-10.36,6.92,0,0-2.79,2.84-2.79,2.84,0,0-5.58,5.28-5.58,5.28l-1.02-1.36c16.9-12.52,20.85-44.18,22.88-65.34,0,0,1.99-.01,1.99-.01Z" fill="#494949"/><path d="M114.14,113.52s-1.39-1.43-1.39-1.43c6.7-1.79,12.8-6.21,16.98-11.69,11.95-15.27,8.35-42.8-13.26-35.87,0,0-.26-1.54-.26-1.54,31.64-10.76,28.8,43.15-2.07,50.53Z" fill="#565552"/><path d="M36.37,151.18l.14,2.17c-17.3-2.81-43.39-12.85-34.83-28.76,3.5-6.5,9.87-6.35,7.92-4.75,0,0-1.38,1.13-1.38,1.13-14.85,10.88,1.36,22.98,14.72,26.69,0,0,13.43,3.51,13.43,3.51Z" fill="#514f4c"/><path d="M98.1,149.19s0,1.48,0,1.48c.08-.09-.55.61-.73.81l-20.23,3.55-30.1-.09,2.11-2.06c16.42,1.72,33.23-.25,48.95-3.68Z" fill="#565552"/><path d="M89.3,42.58c9.6,3.95,26.18,7.27,22.19,17.25,0,0,.68,3.79.68,3.79l-.49,4.88-4.53-.77c-.62-.14-2.04-.52-2.55-.34.14-.48-.09-1.66-.58-1.62l-2.18.6c.25-.77.69-1.92,1.11-2.22l3.73-2.63c3.53-3.27.87-9.11-3.56-9.54-.04-.45-1.66-2.22-2.49-2.49l-6.66-2.17c-1.62-.8-4.93-2.55-6.5-3.44,0,0-.11-1.27-.11-1.27,0,0,1.93-.01,1.93-.01Z" fill="#efeadf"/><path d="M98.1,150.67s0-1.48,0-1.48c0,0,.56-1.07.56-1.07l2.08-.38c.33-.12.3-1.31.22-1.65l5.91-.8c2.61-.35,7.38-2.77,8.82-4.89,1.63-2.39,2.34-3.35,4.46-4.66,5.35-3.31,1.34-9.81.89-13.44,4.8,1.39,4.97,10.84,1.49,15.01-5.89,7.64-15.4,11.09-24.42,13.37Z" fill="#494949"/><path d="M66.15,27.06l-.53,1.92c-.1.35-1.8.58-1.82.22-.21-3.78,4.66-8.96.34-13.92-5.59-6.41.9-15.28,1.26-15.28-.03,0,.51.04,1.91.2-9.6,15.05,5.83,13.35-1.15,26.86Z" fill="#6f6e6e"/><path d="M114.15,63.61h-1.99s-.68-3.78-.68-3.78c3.99-9.98-12.59-13.3-22.19-17.25-.06-.03,1.77-.91,2.16-.79,11.26,3.63,26.37,6.27,22.69,21.81Z" fill="#565552"/><path d="M34.69,144.58l5.28,1.11.5,1.78-13.19-2.59c-.86-.19-2.3-1.26-3.35-2.57l10.76,2.27Z" fill="#5e5d5d"/><path d="M73.51,26.4l-2.58.2c3.85-6.55-1.04-14,.75-12.74,3.44,2.45,3.73,6.98,1.84,12.54Z" fill="#686868"/><path d="M58.48,18.74l2.07,5.59c-.64,1.18-.57,1.3-.9,1.42-.37.14-1.85.74-1.05.42-.95-3.69-2.91-9.34-2.51-12.98,0,0,1.52.48,1.52.48.32,2.58.47,3.98.88,5.07Z" fill="#7b7c7d"/><polygon points="19.05 121.43 11.59 126.96 10.24 125.2 17.63 120.23 19.05 121.43" fill="#7b7c7d"/><polygon points="49.15 152.88 47.03 154.93 41.35 154.13 41.34 152.14 49.15 152.88" fill="#514f4c"/><path d="M11,131.66l2.25,5.74c-2.88-.69-4.61-3.68-4.4-6.86l1.94.57c.21.06.19.34.21.55Z" fill="#7b7c7d"/><path d="M39.28,151.38c.05.47.11,1.94.13,2.44,0,0-2.9-.47-2.9-.47l-.14-2.17,2.91.21Z" fill="#2e2f30"/><polygon points="41.34 152.14 41.35 154.13 39.41 153.82 39.33 152.1 41.34 152.14" fill="#565552"/><path d="M72.1,142.18c6.69-.89,15.29-3.65,15.37-9.3,1.83-1.6,6.6-6.1,8.42-7.84,0,0,2.79-2.84,2.79-2.84,0,0,8.94,4.94,8.94,4.94-4.5,3.15-8.63.63-9.56,3.69-.3.99-1.13,3.91-1.91,4.46-6.57,4.55-15.74,8.77-23.87,9.36l-.17-2.47Z" fill="#ece1cf"/><path d="M87.37,147.69l-1.99-1.45,20.12-5.84c3.1-.9,6.84-4.25,8.27-7.1.76-1.52.15-5.03-.04-7.3,3.6.55,3.55,8.11-.54,11.49-7.09,6.18-16.97,8.08-25.82,10.21Z" fill="#5e5d5d"/><rect x="55.6" y="138.44" width="2.25" height="19.14" transform="translate(-92.32 201.95) rotate(-88.93)" fill="#565552"/><path d="M100.95,146.09c.09.34.12,1.53-.22,1.65l-2.08.38.54-1.17c.21-.45,1.25-.79,1.75-.86Z" fill="#565552"/><path d="M92.15,71.83s-.9,4.38-.9,4.38l4.87-.23c2.54.29,2.79,1.34,2.66,3.68,0,0-.76,5.98-.76,5.98,0,0-2.34,11.6-2.34,11.6-1.95,9.65-8.07,14.76-4.8,19.31,0,0-2.34,2.99-2.34,2.99-3.99-.58-8.28,3.77-8.83,6.18,0,2.18,2.39,5.29,3.21,7.28-1.1.63-3.54,1.89-4.81,2.12-12.33,3.03-26.45,3.25-38.24-2.52-6.76-3.24-11.83-8.78-15.12-14.87l5.35-2.38,8.91,9c.63.64,3.21,1.33,4.23,1.43.72.07.86-2.48.53-3.21,0,0-3.83-8.25-3.83-8.25l-2.57-8.22s-3.06-19.28-3.06-19.28c0,0-.85-8.69-.85-8.69,0,0,.32-6.13.32-6.13l22.03,2.61c12.11,1.4,24.31-1.23,36.32-2.79Z" fill="#f8f2e7"/><path d="M15.39,55.81l-.39,3.52c1.73,1.59,3.29,3.1,4.12,4.48l-4.17.13,2.47,2.89-1.58,3.19c-.48.98.46,3.81,1.29,4.65.89.89,4.23.19,5.02-.8s1.76-3.01,1.89-4.53l9.76,2.67-.32,6.13.85,8.69,3.06,19.28,2.57,8.22,3.83,8.25c.34.72.2,3.28-.53,3.21-1.03-.11-3.6-.8-4.23-1.43l-8.91-9-5.35,2.38c-1.71-2.53-3.3-5.5-4.34-8.31l5.45-.87c.84-.13,1.1-2.89.37-3.32s-2.57-.92-3.42-.74l-3.94.78-1.23-1.86-5.56-27.27-.62-12.12c-.03-.66,1.39-3.01,1.42-3.09l-.72-4.82,3.21-.3ZM22.34,91.33c1.37-3.15.71-5.76-.9-7.8-1.06-1.35-5.32-.56-4.96,1.09.65,3.03,3.2,5.84,5.86,6.71Z" fill="#faf7f1"/><path d="M104.59,67.4c.51-.18,1.93.2,2.55.34l4.53.77c-1.98,19.75-6.81,49.21-22.39,60.46-1.45,1.18-4.69,3.17-6.35,4.05-.83-2.01-3.22-5.11-3.21-7.28.55-2.41,4.85-6.77,8.83-6.18l-1.47,3.19s2.6.02,2.6.02l6.79-12.98c-1.65.49-2.74,1.17-3.11,1.9l-2.47,4.88c-3.28-4.54,2.85-9.66,4.8-19.31.82-3.86,2.84-13.75,3.1-17.59.12-2.26-.07-3.41-2.66-3.68,0,0-4.87.23-4.87.23l.9-4.38c2.57-.99,9.78-3.43,12.44-4.43ZM105.51,71.37c-2.1,3.7-1.73,6.68-1.21,9.8,1.21-3.43,1.85-6.18,1.21-9.8Z" fill="#ece1cf"/><path d="M87.48,43.87c1.58.9,4.86,2.63,6.5,3.44.2.62.87,1.78,1.41,2.06h-1.7s-.32,2.77-.32,2.77l-1.91.25s-1.04-4.2-1.04-4.2l-7.8-2.56c-.8-.26-3.53.19-3.67.35l-1.26.45-3.27-2.51c-5.13-1.8-12.2-6.49-17.54-3.09,0,0-14.19,3.15-14.19,3.15l-5.73,2.96-7.14,1.62-.39-1.5,2.49-1.35,1.75-1.33s7.34-2.18,7.34-2.18l9.88-1.93c3.27-.64,7.95-2.9,11.29-2.26l15.58,2.98c1.76.54,7.97,2.83,9.73,2.89Z" fill="#edc393"/><path d="M75.19,137.58l9.22-2.42c-.77,1.1-3.13,2.95-4.81,3.28-5.84,1.03-16.21,3.99-22.11,2.54-6.75-.91-13.28-1.02-19.17-5.87l4.62.98c15.36,3.48,16.3,4.86,32.25,1.49Z" fill="#cbc9c3"/><path d="M33.67,44.37l-1.75,1.33-2.49,1.35-6.84,2.73c-.74.29-2.44,1.88-2.43,2.39l-3.79.82-2.51-.24c2.24-2.5,5.89-5.14,9.63-6.01l10.18-2.37Z" fill="#faf7f1"/><path d="M20.43,109.43l-1.54-4.16,3.94-.78c.86-.18,2.69.3,3.42.74s.47,3.19-.37,3.32l-5.45.87Z" fill="#f8f2e7"/><path d="M16.36,52.99l-.97,2.82-3.21.3c-.14-.92,1.05-2.65,1.67-3.35l2.51.24Z" fill="#f8f2e7"/><path d="M112.74,112.09l-6.32,1.69c-.73.19-2.8-.1-2.54-.75l2.7-6.69c3.78-.69,7.1-1.3,9.7-3,0,0,4.97-3.24,4.97-3.24.63-.41,1.24-1.62,1.55-3.2,0,0-3.06,2.61-3.06,2.61-3.1,2.64-7.8,4.87-11.81,3.79l4.75-22.92c.24-1.15,1.56-3.54,2.46-4.18l3.91-2.82c2.37-1.71,6.46-.62,8.02,2.78,1.4,3.06.94,8.15-.23,11.38l-2.03,5.6,1.96.31c3.09-6.52,3.35-13.76,2.41-20.73,0,0-5.14-1.66-5.14-1.66-1.47-.47-4.78.24-6.1,1.01l-4.34,2.51s.25-7.21.25-7.21c.03-.86,1.79-2.61,2.63-2.86,31.04-7.93,23.3,41.64-3.72,47.57Z" fill="#efede9"/><path d="M19.12,63.81c.32.41,1.12,2.08,1.73,2.27l9.2,2.94c15.09,3.64,30.72,5.18,46.46,3.02,8.54-.82,17.52-2.47,25.33-5.68,0,0,2.18-.6,2.18-.6.49-.04.72,1.14.58,1.62l-8.47,3.02-3.97,1.42s-6.93.98-6.93.98c-9.78,1.39-19.52,2.97-29.39,1.8l-22.03-2.61-9.76-2.67s-6.62-2.51-6.62-2.51l-2.47-2.89s4.17-.13,4.17-.13Z" fill="#494949"/><path d="M101.84,66.37c-6.81,2.77-14.58,4.47-22.05,5.31l-.95-1.26-8.71.11c-.47,0-1.74-.24-1.83-.59l-.21-1.23,9.82-.65c.52-.84,1.9-2.98,2.59-2.69l4.05,1.68,8.84-2.23c1.29-.33,3.46-1.03,4.6-.99,3.73.14,8.37-2.77,8.95-7.69l.72-1.2c1.12,1.69.66,5.4-.98,6.56l-3.73,2.63c-.42.3-.86,1.45-1.11,2.22Z" fill="#d9b68b"/><path d="M103.12,51.97c1.56.14,3.49,1.39,4.54,2.98l-.72,1.2c-.58,4.91-5.22,7.82-8.95,7.69,3.15-5.61,3.32-6.63.93-12.62.94.49,2.87.64,4.19.76Z" fill="#f8dfbd"/><path d="M103.12,51.97c-1.32-.12-3.26-.27-4.19-.76l-3.53-1.84c-.54-.28-1.22-1.45-1.41-2.06l6.66,2.17c.82.27,2.45,2.04,2.49,2.49Z" fill="#5e5d5d"/><path d="M88.55,119.54l2.34-2.99,2.47-4.88c.37-.73,1.46-1.41,3.11-1.9l-6.79,12.98-2.6-.02,1.47-3.19Z" fill="#5e5d5d"/><path d="M26.46,51.47c-1.69,1.47-3.64,3.38-5.15,5.38,1.93,4.74,5.28,7.56,10.05,8.41l10.86,1.92,15.03,2.16c1.15.17,3.92,1.21,5.03.92l5.8-1.55.21,1.23c.09.34,1.36.59,1.83.59l8.71-.11.95,1.26s-3.28.37-3.28.37c-4.32.83-35.9,2.29-35.41-2.11,0,0-8.08-1.74-8.08-1.74-1.75-.48-12.25-4.51-13.9-4.39-.82-1.38-2.38-2.9-4.12-4.48,0,0,.39-3.52.39-3.52,0,0,.97-2.82.97-2.82,2.94-.72,7.06-1.47,10.09-1.52Z" fill="#edc393"/><path d="M24.04,69.34c-.13,1.52-1.08,3.52-1.89,4.53s-4.13,1.69-5.02.8c-.83-.83-1.77-3.67-1.29-4.65l1.58-3.19,6.62,2.51Z" fill="#f8f2e7"/><path d="M22.34,91.33c-2.66-.87-5.2-3.68-5.86-6.71-.36-1.65,3.9-2.44,4.96-1.09,1.61,2.04,2.27,4.65.9,7.8Z" fill="#f8f2e7"/><path d="M105.51,71.37c.64,3.62,0,6.38-1.21,9.8-.52-3.12-.9-6.1,1.21-9.8Z" fill="#686868"/><path d="M77.69,46.43c.21-.08.55,2.69-.09,2.83l-12.31,2.75c-.75.17-2.2,2.58-1.83,2.6l11.49-2.63,6.69-2.13s-2.69-3.88-2.69-3.88c.14-.16,2.87-.61,3.67-.35l7.8,2.56s1.04,4.2,1.04,4.2c-.59,2.33-2.88,4.5-5.6,5.11l-10.88,2.45-11.59,1.52c.17,2.63.42,1.91,2.31,1.86,9.52-.69,18.31-2.55,26.87-6.83l.81-4.36.32-2.76h1.7s3.53,1.84,3.53,1.84l1.36,3.85c1.15,2.8-1.01,6.4-2.29,8.77-2.87.3-10.43,2.56-13.44,3.21,0,0-4.05-1.68-4.05-1.68-.69-.29-2.07,1.86-2.59,2.69,0,0-9.82.65-9.82.65,0,0-5.8,1.55-5.8,1.55-1.1.29-3.87-.75-5.03-.92l-15.03-2.16c-7.82-1.68-17.64-1.03-20.91-10.33,2.35-3.19,5.66-5.79,8.51-8.3,0,0,7.14-1.62,7.14-1.62l5.73-2.96,14.19-3.15c5.33-3.41,12.43,1.29,17.54,3.09,0,0,3.27,2.51,3.27,2.51ZM57.62,45.1c-2.2-2.57-6.24-1.9-6.92,1.22l6.92-1.22ZM70.14,44.99c-.61-.15-3.9-.08-3.94.09.3,2.03,3.91,2.01,3.94-.09ZM49.09,50.47l-8.92-1.21c-2.7.32-2.08.81-2.23,2.98,0,0,4.23-.99,4.23-.99,2.32.69,4.04,1.12,6.92-.79ZM57.39,52.8l-7.42-1.66c1.58,2.64,4.36,4.09,7.42,1.66ZM35.88,57.69l-3.94-2.76c-.58-.4-2.5-.84-2.48-.2.01.48.14,2.26.61,2.31l5.81.65ZM58.77,61.12l-15.02-1.61-6.34-2.24c-.14.44,1.27,2.77,2.21,2.93l19.9,3.34-.75-2.41Z" fill="#faf7f1"/><path d="M93.37,52.14s-.81,4.36-.81,4.36c-9.06,4.56-18.56,6.35-28.64,6.96-.35.03-.44-1.05-.53-1.99l11.59-1.52,10.88-2.45c2.73-.61,5.02-2.79,5.6-5.11l1.91-.25Z" fill="#f8dfbd"/><path d="M77.69,46.43l1.26-.45s2.69,3.88,2.69,3.88c-4.01,1.55-13.89,3.85-18.17,4.76-.38-.02,1.08-2.44,1.83-2.6l12.31-2.75c.64-.14.3-2.91.09-2.83Z" fill="#f8dfbd"/><path d="M29.43,47.06l.39,1.5-3.36,2.92-3.84.27-2.46.43c0-.51,1.69-2.09,2.43-2.39l6.84-2.73Z" fill="#6f6e6e"/><path d="M119.06,73.38s-1.13-1.31-1.13-1.31c1.32-.77,4.63-1.48,6.1-1.01l5.14,1.66c.94,6.97.68,14.21-2.41,20.73,0,0-1.96-.31-1.96-.31,1.93-4.93,4.57-11.85,2.27-16.98-1.56-3.4-5.65-4.49-8.02-2.78Z" fill="#565552"/><path d="M121.26,100.1l-1.51-.59,3.06-2.61c-.31,1.57-.92,2.79-1.55,3.2Z" fill="#5e5d5d"/><path d="M41.39,71.31l-11.34-2.28-9.2-2.94c-.61-.19-1.42-1.86-1.73-2.27,1.63-.13,12.15,3.91,13.9,4.39,0,0,8.08,1.74,8.08,1.74l.29,1.37Z" fill="#ece1cf"/><path d="M58.77,61.12l.75,2.41-19.9-3.34c-.94-.16-2.34-2.49-2.21-2.93l6.34,2.24,15.02,1.61Z" fill="#f8dfbd"/><path d="M49.09,50.47c-2.89,1.91-4.6,1.47-6.92.79l-4.23.99c.16-2.18-.47-2.66,2.23-2.98,0,0,8.92,1.21,8.92,1.21Z" fill="#f8dfbd"/><path d="M35.88,57.69l-5.81-.65c-.47-.05-.59-1.84-.61-2.31-.02-.64,1.9-.2,2.48.2l3.94,2.76Z" fill="#f8dfbd"/><path d="M57.39,52.8c-3.06,2.43-5.85.98-7.42-1.66l7.42,1.66Z" fill="#f8dfbd"/><path d="M57.62,45.1l-6.92,1.22c.67-3.13,4.72-3.8,6.92-1.22Z" fill="#f8dfbd"/><path d="M70.14,44.99c-.03,2.11-3.64,2.12-3.94.09.04-.17,3.33-.25,3.94-.09Z" fill="#edc393"/></g></svg>