<?xml version="1.0" encoding="UTF-8"?><svg id="Layer_2" xmlns="http://www.w3.org/2000/svg" viewBox="0 0 152.14 132.4"><g id="Layer_1-2"><path d="M104.06,55.65l2.78,4.01-.96,3.82c-.16.06-1.09,1.25-.78,1.56l3.17,3.23s.44-1.79.44-1.79c.94-.02,2.71-.27,3-1.14,4.98,4.71,8.34,10.94,10.42,17.49,6.25,17.92.47,36.01-16.26,42.46,0,0-.95-2.2-.95-2.2,0,0,.03-1.52.03-1.52l7.16-2.96s2.85-4.74,2.85-4.74c6.3-8.29,8.49-21.07,2.77-29.61-.85-1.42-1.6-1.71-3.22-1.54,0,0,2.18-3.17,2.18-3.17l-11.51-4.04.8,2.85c-.19.31-1.51,1.68-1.97,1.48l-5.99-2.57-14.56-1.41c-1.35-1.9-3.61-2.57-5.21-2.18l-7.71,1.88c-2.21.54-6.15.49-8.27.46-.01-.79-1.57-2.07-2.32-2.05l-3.12.1s1.42-6.57,1.42-6.57c.22-.84.34-2.35.32-3.14s-3.42-1.41-3.99-.87l-8.39,8.08c-4.67-4.76-7.49-9.55-3.97-10.29,0,0,4.15-1.46,4.15-1.46l6.55-1.11,4.09,1.06c1.14,1.36,3.58,1.19,5.42,1.25,8.4.28,17.22,1.58,25.9,0l9.64-1.77c.63-.12,2.2-.42,2.43-.91,0,0,.82-2.53.82-2.53,0,0,2.82-.16,2.82-.16Z" fill="#efeadf"/><path d="M41.87,86.99s-1.5,6.89-1.5,6.89l-2.84.38-1.25.17c-1.68.23-1.57,10.67,2.23,11.89,3.06.98,5.32,4.05,4.92,6.96-.1.7-.64,2.67.05,2.6,3.16-.28,5.49-1.75,8.85-.81-.38,1.37.65,3.64,1.73,4.29,3.42,2.02,8.73,1.79,12.46.67,1.37-.32,4.28-1.61,5.86-1.45l9.42.97c4.48,2.67,11.79,3.77,14.62.86.17-.05.95-.3,1.13-.54,0,0,.77-1.52.77-1.52,6.29,1.22,15.28-3.07,11.83-10.78.04.08-1.72.3-1.62.28l1.29-2.4c2.13-4.39.5-12.18-.85-17.05,0,0-.16-.8-.16-.8l5-1.86,3.92-1.5c2.99,4.48,4.06,11.41,2.82,17.7-1.25,6.17-5.45,11.26-8.43,16.65,0,0-7.16,2.96-7.16,2.96-1.64.23-6.07-.06-7.14,1.42,0,0-.46,1.79-.46,1.79-3.17.7-12.13,1.41-15.48,1.66,0,0-14.67-.43-14.67-.43,0,0-9.16-1.51-9.16-1.51-.07-.35-.03-.54-.34-.64l-1.87-.61-8.83-3.65-5.88-1.74c-5.53-4.54-9.9-11.55-9.52-18.81,1.4-1.98,2.71-11.43,3.28-14.05,0,0,6.99,2.02,6.99,2.02ZM118.41,94.46l-.91-7.08c-1.64,0-2.38-.01-1.72-.01,1.8,8.24.67,13.23-1.84,19.4-2.24,5.5,6.02-.21,4.47-12.31ZM69.4,121.07v1.92h9.6v-1.92h-9.6Z" fill="#aaae63"/><path d="M105.99,78.36l7.41,1.36.22,3.03c-1.03.65-4.49,1.67-4.88,2.81,0,0-5.21.37-5.21.37l-5.49,1.5s-2.08,1.18-2.08,1.18l-12.12.8c.08-.14-.77-.75-1.04-.95l-15.19-.09c-2.78-.25-12.86-2.48-15.74-3.08.08-.81,1.54-7.72,1.47-8.32,0,0,2.44-2.29,2.44-2.29-.23.42,1.5,1.26,2.09,1.27,0,0,4.42.07,4.42.07,2.12.03,6.06.08,8.27-.46l7.71-1.88c1.59-.39,3.86.28,5.21,2.18l14.56,1.41s5.99,2.57,5.99,2.57c.46.2,1.78-1.17,1.97-1.48ZM85.59,79.62c-.16-.64-2.94-.55-2.85.07.19,1.27,3.15,1.12,2.85-.07ZM64.57,81.58l8.69-1.48-11.4-.4c-.94-.03-3.6,1.4-4.04,1.76,1.95.17,5.28.38,6.75.12ZM90.26,85.53c.32,0,2.58-2,2.24-1.82l-18.94-.12c-1.49-.32-1.59,2.37.22,1.98l16.48-.04Z" fill="#aaae63"/><path d="M127.81,53.81l.43,1.94c-5.7-.02-10.59,3.11-13.78,8.05l3.19,4.9,2.69-3.59c2.03-2.71,7.26-4.03,10.76-3.56l.45,1.89c-2.55-.54-6.09.43-8.57,1.88-1.87,1.09-3.85,5.6-2.83,7.59,3.04,5.97,5.42,12.42,6.11,19.14l.65,6.28c5.47-1.24,8.41-3.5,12.29-8.07l1.15,1.59c-6.47,8.49-13.27,7.15-13.75,9.99,0,0-.87,5.16-.87,5.16l7.16-2.43c22.19-7.02,23.65-44.19-.31-48.8,0,0-.73-1.91-.73-1.91,27.8,2.39,28.51,51.24-7.05,55.14,0,0-2.78,6.27-2.78,6.27l-2.24,2.56c-1.67,1.91-4.01,4.8-6.38,5.85,0,0-13.44,5.99-13.44,5.99,0,0-1.87,1-1.87,1,0,0-8.49.93-8.49.93l-.11-1.99c34.58-3.72,44.71-31.58,25.89-60.27,0,0-3.66-4-3.66-4,1.58-6.7,9.81-11.42,16.1-11.53Z" fill="#565552"/><path d="M108.97,88.41s.97,3.95.97,3.95c0,0-1.2.84-1.2.84v11.59s1.08.68,1.08.68c-.65,1.52-2.84,4.78-3.75,6.19,0,0-.98-1.44-.98-1.44l-4.39-1.96c2.18-4.66,3.81-9.63,2.43-15.95l-13.51,8.97c-.65-2.41-1.81-5.55-3.11-6.9-5.64,1.38-8.64,6.8-9.66,12.46-2.55-3.45-5.21-6.16-9.02-8.21l-6.05-3.25c-.37-.2-2.28.22-2.21.62l.49,3.1-3.03-.03s-1.98-4.31-1.98-4.31c.12-.06-1.45-.1-1.55.34,0,0-.38,1.71-.38,1.71-.88.08-2.84.84-3.4,1.72,0,0-1.19,1.63-1.19,1.63l.97-8.36c.07-.6,1.28-2,1.52-2.55l6.88,1.06,21.09,1.08c7.42-.76,22.79-1.67,29.98-2.97ZM74.31,97.07c.02-1.39-2.16-1.39-2.14,0-.02,1.39,2.16,1.39,2.14,0Z" fill="#d9b68b"/><path d="M17.05,51.76c2.63,3.25,5.71,8.38,7.96,13.01,3.48,7.17,7.85,7.43,6.91,11.1l-1.57,2.63c-1.33,2.44-1.64,7-2.02,9.89-1.28-.07-2.29,1.83-2.78,2.83-3.4.35-4.15-5.7-5.05-7.94-2.47-7.3-3.17-9.35.35-16.23,0,0-4.59-2.27-4.59-2.27l-3.55-6.98c-.55-1.07-1.55-4.86-.4-5.16,0,0,4.72-.87,4.72-.87Z" fill="#efeadf"/><path d="M98.08,130.67c.56-.51,14.18-6.46,15.31-6.99,3.41-1.69,6.06-5.71,8.62-8.41,1.79,1,6.77,2.6,7.79,4.55,1.31,2.17-2.65,6.44-7.29,7.41l-21.13,4.46c-.88.19-3.15-.81-3.3-1.03Z" fill="#d9d8d5"/><path d="M31.92,75.87c.94-3.66-3.43-3.92-6.91-11.1-2.25-4.63-5.33-9.76-7.96-13.01-.6-.74-2.41-1.91-3.24-1.71l-9.65,2.35,2.8,3.2-1.16,1.3s-5.04-3.83-5.04-3.83c-3.68-2.8,6.85-9.1,13.65-6.2,6.2,2.83,10.21,13.36,13.44,18.86.97,1.81,3.02,3.94,4.88,5.71l5.94-6.34c-.19,1.53-.53,3.37-.97,4.08l-3.04,4.86c-.41.65-2.09,1.58-2.75,1.84ZM10.61,47.99l-5.69,1.46c2.33.93,3.94.58,5.69-1.46Z" fill="#5e5d5d"/><path d="M98.12,43.36l-.35.98-13.61-3.58c-1-.26-3.91,3.98-11.42,2.31-1.73-1.76-4.12-2.53-6.04-2.03l-9.85,2.57-.85-1.11,3.09-1.56,10.43-2.51c-.19-1.2-.72-4.14-.41-5.3,1.34-4.9,12.71-4.95,14.82-.84.62,1.2.06,4.72-.1,6.21l12.73,3.18c.36.09,1.45,1.5,1.57,1.68ZM81.37,32.64l-1.26-1.1-6.63.19c-.64.02-2.55,1.19-2.39,1.77.43,1.91,1.86,6.01,2.56,7.87,0,0,5.93-.04,5.93-.04.53-2.03,3.4-6.69,1.79-8.68Z" fill="#494949"/><path d="M40.37,93.88l-.59,5.06c-.13,1.11.88,4.62,1.99,4.71l6.66.29,1.58,3.68c.2.46.63,1.77,1.12,1.79l2.94.17c-.4,1.08-1.24,4.9-1.74,5.46-2.07-.54-4.43-.27-6.1.34-.11-.52-.42-1.4-.88-1.57l-1.92-.55c.4-2.9-1.86-5.97-4.92-6.96l-.98-12.06s2.84-.38,2.84-.38Z" fill="#d9b68b"/><path d="M53.11,96.79c1.02.74,2,2.33,3.27,2.66.17.06.44-.24.64-.4l3.03.03,3.05,10.31-1.43.11c-.53-.28-2.98-1.68-3.98-1.71l-7.68-.16-1.58-3.68.09-3.8,1.19-1.63c.56-.88,2.53-1.64,3.4-1.72Z" fill="#aaae63"/><path d="M89.49,129.61l.11,1.99-19.3.8c-2.33-.52-18.57-2.28-20.23-3.76,0,0,.25-1.8.25-1.8l20.97,3.4c6.14,1,12.56.22,18.19-.63Z" fill="#494949"/><path d="M15.58,89.28l2.48,4.42c1.13,1.47,6.11,6.54,7.47,7.96,0,0,.24-6.52.24-6.52,0,0,1.84.08,1.84.08-.25,2.34.03,6.06.48,8.31l-1.72.21c-11.88-6.43-13.96-14.86-15.58-27.79-.92-5.44-.89-15.32-4.98-19.06,0,0,1.16-1.3,1.16-1.3,7.62,8.7,3.93,23.88,8.61,33.69Z" fill="#514f4c"/><path d="M28.09,103.53c2.06,11.54,11.85,18.8,22.23,23.31,0,0-.26,1.8-.26,1.8-11.28-2.81-22.01-12.32-23.7-24.9,0,0,1.72-.21,1.72-.21Z" fill="#565552"/><path d="M79.58,15.91l-3.09,9.33c-3.54-1.26,2.39-5.15-1.22-10.54-3.57-4.95-1.03-10.17,1.6-14.7.85,1.3,1.03,4.02.19,4.83-2.6,2.53-1.61,7.8.56,8.85.42.21,2.49-1.03,2.73-.62,1.89,2.56,3.26,6.7.96,9.27,0,0-1.74-6.43-1.74-6.43Z" fill="#6f6e6e"/><polygon points="83.84 89.41 95.96 88.61 97.33 89.78 78.98 91.38 57.9 90.3 51.01 89.24 51.84 87.37 56.93 88.4 62.89 89.3 83.84 89.41" fill="#4c3928"/><path d="M55.99,42.51l.85,1.11-3.13,2.44c-1.53,1.16-4.2,2.19-5.99,2.89-1.55.62,2.55,5.93-1.33,10.86l-4.15,1.46,2.5-3.35c2.93-3.93-2.68-9.55,3.91-12.32l7.34-3.09Z" fill="#5e5d5d"/><path d="M44.54,78.78l-6.16,1.38-2.77,1.85,6.78,3.11,4.53,1.16c6.46,4.03-3.62,1.12-5.05.71,0,0-6.99-2.02-6.99-2.02v-1.59s.86-3.71.86-3.71c1.39-.49,2.87-1.83,3.43-2.95,2.31-.03,5.87-.27,8.19.35,0,0-2.83,1.71-2.83,1.71Z" fill="#565552"/><path d="M106.84,59.66l-2.78-4.01,1.47-4.86c.26-.9-1.31-2.79-2.24-3.01-4.53-1.1-4.1-3.06-5.52-3.43l.35-.98c4.51,1.71,11.49,2.73,9.07,9.43-1.43,4.94,4.36,6.76-.35,6.87Z" fill="#514f4c"/><path d="M58.04,124.48c-.25.17-1.46.77-1.82.67l-6.38-1.89c-3.61-1.07-6.23-3.38-8.72-5.42l5.88,1.74,8.83,3.65,1.87.61c.3.1.27.29.34.64Z" fill="#565552"/><path d="M83.84,89.41l-20.95-.11c-2.76-.37-8.36-1.31-11.06-1.93,0,0,.03-2.08.03-2.08l11.74,2.48c2.62.87,16.24.63,19.19.7.28.2,1.13.81,1.04.95Z" fill="#d9b68b"/><path d="M71.61,17.53l1.32,5.48c-2.1-1.14-2.34-1.27-2.21-1.2l-2.33-5.6c-.45-1.08.7-3.87,1.71-4.25l1.5,5.57Z" fill="#6f6e6e"/><path d="M34.88,84.98c-.71,2.63-1.69,12.09-3.28,14.05.06-5.13.22-11.48,3.29-15.64,0,0,0,1.59,0,1.59Z" fill="#514f4c"/><path d="M39.17,76.72c-.56,1.13-2.04,2.47-3.43,2.95.67-1.77,2.95-6.9,3.74-8.7,0,0,1.77,1.58,1.77,1.58l-2.08,4.17Z" fill="#5e5d5d"/><polygon points="44.54 78.78 42.74 83.42 38.38 80.17 44.54 78.78" fill="#aaae63"/><path d="M104.95,121.56l-.03,1.52-7.57,1.68.46-1.79c1.03-1.5,5.56-1.15,7.14-1.42Z" fill="#5e5d5d"/><path d="M28.34,88.39l-.73,6.83s-1.84-.08-1.84-.08l-.22-3.93c.49-1,1.5-2.89,2.78-2.83Z" fill="#565552"/><path d="M62.29,76.02l-4.42-.07c-1.4-.28-3.25-1.27-1.02-1.87,0,0,3.12-.1,3.12-.1.74-.02,2.3,1.26,2.32,2.05Z" fill="#565552"/><path d="M53.34,76.97l-.13,1.17-4.94-.72c1.7-2.52,3.01-2.56,5.08-.45Z" fill="#6f6e6e"/><polygon points="131.84 53.86 132.58 55.76 128.25 55.75 127.81 53.81 131.84 53.86" fill="#2e2f30"/><path d="M108.71,66.48l-.44,1.79-3.17-3.23c-.3-.31.62-1.5.78-1.56.6.86,1.67,3,2.84,3Z" fill="#cbc9c3"/><path d="M80.16,22.08l-.95.86c.75-.68,2.07-1.86.95-.86Z" fill="#686868"/><polygon points="38.38 80.17 42.74 83.42 42.39 85.12 35.61 82.02 38.38 80.17" fill="#cbc9c3"/><path d="M97.77,44.34c1.41.37.99,2.33,5.52,3.43.94.23,2.51,2.11,2.24,3.01l-1.47,4.86c-1.21.06-3.62.22-4.8.28,0,0-.2-3.25-.2-3.25,0,0,3.57-1.67,3.57-1.67l-1.55-1.73s-5.85,2.51-5.85,2.51l-3-2.61-4.7.83c-2.59,0-19.51-.02-21.66-.03,0,0-.12,3.14-.12,3.14,0,0-6.71.14-6.71.14,2.05,1.02,3.57,1.67,4.55,1.71l19.29.8c3.01-.6,9.2-1.6,12.26-2.02,0,0,1.32,3.47,1.32,3.47-.05.05-2,1.35-2.7,1.4l-16.47,1.11-14.62-.43-.21,1.73c-1.84-.06-4.28.1-5.42-1.25l-1.73-2.07c-.4-.48-1.71.89-2.36,1,0,0-6.55,1.11-6.55,1.11,3.88-4.94-.21-10.24,1.33-10.86,1.81-.7,4.44-1.73,5.99-2.89,0,0,3.13-2.44,3.13-2.44l9.85-2.57c1.92-.5,4.31.27,6.04,2.03,7.51,1.66,10.42-2.58,11.42-2.31,0,0,13.61,3.58,13.61,3.58ZM89.52,43.1l-1.15,1.89,3.27,2,1.15-1.89-3.27-2ZM59.49,53.56l-6.96-4.19-1.43,2.83,8.39,1.36Z" fill="#f1ede4"/><path d="M101.24,55.81c-.87,2.37-.27,2.99-3.25,3.43,0,0-9.64,1.77-9.64,1.77-8.68,1.59-17.5.29-25.9,0,0,0,.21-1.73.21-1.73l14.62.43,16.47-1.11c.7-.05,2.65-1.35,2.7-1.4l2.8-1.28,1.98-.12Z" fill="#565552"/><polygon points="114.52 82.71 113.62 82.75 113.41 79.72 105.99 78.36 105.19 75.51 116.7 79.55 114.52 82.71" fill="#514f4c"/><path d="M117.73,84.25c-2.16.84-6.73,2.55-8.93,3.36,0,0-.06-2.05-.06-2.05,1.99-.34,5.15-1.61,6.76-2.88,1.03-.06,1.75.8,2.23,1.57Z" fill="#514f4c"/><path d="M57.03,59.76l-4.09-1.06c.65-.11,1.96-1.48,2.36-1l1.73,2.07Z" fill="#7b7c7d"/><path d="M115.5,82.68c-4,2.93-11.52,4.28-1.88.07.46-.02,1.41-.05,1.88-.07Z" fill="#d9b68b"/><path d="M105.09,110.21c-3.8-.05-7.85,1.57-10.41,4.4,0,0,5.83-.59,5.83-.59.44.52,3.01,1.77,3.53.93,1.06-1.78,3.34-5.36,4.49-7.09-.1.02,1.66-.2,1.62-.28,3.42,7.71-5.49,12-11.83,10.78-3.09-.57-12.67-2-15.94-2.46,12.06-4.07,18.05-3.83,19.23-18.93,0,0-2.84-1.01-2.84-1.01-1.36,1.44-2.19,2.2-2.46,2.95l-4.9,3.12c-2.56,2-3.73,6.73-4.78,9.64,0,0,3.98-.33,3.98-.33,0,0-2.56,1.35-2.56,1.35l-6.6,1.74c1.57-1.73,3.4-3.71,4.08-5.6,2.79-7.68.32-12.79-.39-12.08-4.13,4.08-8.37,8.23-6.64,15.06,3.28-3.36,1.76-7.85,5.98-11.29l-.58,5.77-1.49,4c-.39,1.04-2.35,2.65-3.38,3.01-.93.32-2.63.39-3.9.27-1.43-.98-4.33-3.49-5.64-4.67,0,0-1.34-3.53-1.34-3.53l-.44-.13-.63-.79c-.38-.47-.99-1.14-1.39-1.6,0,0,.58-.93.58-.93.53.49,1.27,1.19,1.79,1.67.89.48,3.73,5.08,4.35,5.93.37.56,1.95,1.54,2.82,1.86.66-6.43-5.39-10.34-13.25-12.79l2.83,10.22c.12.43,1.72,1.54,1.85,1.57l.28,2.95-2.97.14-7.82.37c-.58.03-2.31,1.4-2.22,1.93l.32,1.93-.2,1.62c-1.07-.65-2.11-2.92-1.73-4.29.1.13.72-1.76.88-2.57,1.59-.17,10.18-1.1,11.54-1.24,0,0-1.65-1.85-1.65-1.85-.62-2.19-3.51-11.26-3.54-13.41-.06-.4,1.84-.82,2.21-.62l6.05,3.25c3.81,2.05,6.47,4.76,9.02,8.21,1.01-5.66,4.02-11.08,9.66-12.46,1.3,1.35,2.46,4.49,3.11,6.9l13.51-8.97c1.38,6.32-.25,11.28-2.43,15.95l4.39,1.96Z" fill="#4c3928"/><path d="M93.79,105.96c-.23,2.11-1.13,5.07-3.18,5.38l-.37-1.32-.47-1.39.71-.99.93-1.06,2.38-.62Z" fill="#4c3928"/><path d="M98.32,118.35l-.77,1.52c-.18.24-.96.49-1.13.54.13-.61-1.39-.98-1.87-1.09-1.69.35-4.91.72-6.38.39l-6.29-1.33c-4.25-8.04-3.11-2.69.54-8.06,0,0,1.49-4,1.49-4l1.63,2.53c-.68,1.88-2.51,3.87-4.08,5.6l6.6-1.74,2.56-1.35c2.05-.31,2.95-3.27,3.18-5.38.62-1.75,1.89-5.3,2.51-7.05.27-.75,1.1-1.51,2.46-2.95,0,0,2.84,1.01,2.84,1.01-.29,5.85-2.43,13.33-8.28,15.28l-10.95,3.65c3.35.47,12.76,1.87,15.94,2.46Z" fill="#965d2f"/><path d="M89.77,108.64c.24.66.67,2.02.84,2.71,0,0-3.98.33-3.98.33l1.52-4.45,1.62,1.41Z" fill="#965d2f"/><path d="M66.94,113.36c1.78.02,3.74,1.7,4.98,2.85.42.37,2.17-.47,1.89-.58l1.31-2.04c1.27.11,2.97.05,3.9-.27l2.84,5.06-.08,1.17-9.42-.97c-1.58-.16-4.5,1.12-5.86,1.45l.21-1.85,1.24-.25c.34-.07.96-1.11.64-1.24-1.08-.51-3.9-1.39-5.07-1.74,0,0,.43-1.45.43-1.45l2.97-.14Z" fill="#342316"/><path d="M118.41,94.46c1.55,12.1-6.7,17.81-4.47,12.31,2.51-6.17,3.64-11.16,1.84-19.4-.66,0,.08,0,1.72.01l.91,7.08Z" fill="#4c3928"/><path d="M108.74,85.56c0,.58.05,2.32.22,2.85-1.62.5-9.8,1.18-11.64,1.37,0,0-1.37-1.17-1.37-1.17l2.08-1.18,5.49-1.5,5.21-.37Z" fill="#ece1cf"/><path d="M96.41,120.41c-2.83,2.91-10.14,1.81-14.62-.86l.08-1.17,6.29,1.33c1.47.33,4.69-.04,6.38-.39.48.11,2,.48,1.87,1.09Z" fill="#4c3928"/><path d="M37.52,94.26l.98,12.06c-3.79-1.22-3.91-11.66-2.23-11.89l1.25-.17Z" fill="#4c3928"/><path d="M64.57,118.49l.02,1.99c-3.08.73-7.83.51-10.53-1.13l.2-1.62c3.41.68,7.08,1.08,10.32.76Z" fill="#342316"/><path d="M109.81,105.46l-1.07-.68v-11.59s1.2-.84,1.2-.84c.92,3.72,1.46,10.14-.13,13.1Z" fill="#cbc9c3"/><rect x="69.4" y="121.07" width="9.6" height="1.92" fill="#342316"/><path d="M46.22,115.39c-.63.23-1.77.38-2.75.48-.69.07-.15-1.9-.05-2.6l1.92.55c.46.16.77,1.05.88,1.57Z" fill="#4c3928"/><polygon points="66.72 118.17 66.51 120.02 64.59 120.48 64.57 118.49 66.72 118.17" fill="#4c3928"/><path d="M90.26,85.53l-16.48.04c-1.81.39-1.71-2.3-.22-1.98l18.94.12c.34-.18-1.92,1.82-2.24,1.82Z" fill="#4c3928"/><path d="M64.57,81.58c-1.47.25-4.81.04-6.75-.12.44-.36,3.1-1.79,4.04-1.76l11.4.4-8.69,1.48Z" fill="#514f4c"/><path d="M85.59,79.62c.31,1.19-2.66,1.34-2.85.07-.09-.62,2.68-.71,2.85-.07Z" fill="#514f4c"/><path d="M128.25,55.75c5.29-.41,9.96.82,14.21,4.79,13.59,12.41,8.18,38.38-9.57,44.03-1.37-1.94-4.08-2.61-6.28-2.73.48-2.84,7.28-1.51,13.75-9.99l-1.15-1.59c-3.88,4.57-6.83,6.83-12.29,8.07-.5-8.77-2.55-17.69-6.76-25.41-1.01-1.99.96-6.5,2.83-7.59,2.48-1.45,6.03-2.42,8.57-1.88,8.99,1.89,11.94,13.88,9.13,23.6.4.11,1.65.33,1.75,0,3.79-9.96-.53-24.03-11.33-25.49-3.49-.47-8.73.85-10.76,3.56l-2.69,3.59-3.19-4.9c3.19-4.94,8.08-8.08,13.78-8.05Z" fill="#efede9"/><path d="M131.56,63.44l-.45-1.89c10.79,1.47,15.11,15.53,11.33,25.49-.1.34-1.35.11-1.75,0,2.81-9.73-.13-21.71-9.13-23.6Z" fill="#6f6e6e"/><path d="M132.89,104.57l-7.16,2.43.87-5.16c2.2.11,4.91.79,6.28,2.73Z" fill="#d9d8d5"/><path d="M105.09,110.21l.98,1.44-2.03,3.3c-.52.84-3.08-.41-3.53-.93l-5.83.59c2.56-2.83,6.6-4.45,10.41-4.4Z" fill="#aaae63"/><path d="M57.03,99.06c-.52.68-1.09.26-1.62-.05-.53-.55-1.72-1.73-2.3-2.21,0,0,.38-1.71.38-1.71.1-.43,1.67-.4,1.55-.34l1.98,4.31Z" fill="#6f6e6e"/><path d="M74.31,97.07c.02,1.39-2.16,1.39-2.14,0-.02-1.39,2.16-1.39,2.14,0Z" fill="#aaae63"/><path d="M17.05,51.76l-4.72.87c-2.23,2.13,3.04,9.8,3.95,12.14,0,0,4.59,2.27,4.59,2.27l-2.03,4.69c-1.36,3.14.62,8.25,1.68,11.54.89,2.22,1.65,8.29,5.05,7.94.29,2.42.11,7.97-.02,10.44,0,0-5.7-5.91-5.7-5.91.79-.24,1.6-2.72,1.5-3.54-.24-2.06-4.08-3.55-5.76-2.92-5.3-12.18-.03-26.58-11.41-36.88,0,0,9.65-2.35,9.65-2.35.82-.2,2.64.97,3.24,1.71Z" fill="#faf7f1"/><path d="M10.61,47.99c-1.75,2.05-3.37,2.4-5.69,1.46l5.69-1.46Z" fill="#a9aaaa"/><path d="M80.1,31.54c-1.23.73-4.63,2.74-5.94,3.19,0,0,6.22.66,6.22.66l.98-2.74c.64.56.54,2.57.22,3.39l-2.02,5.29s-5.93.04-5.93.04c-.7-1.87-2.12-5.95-2.56-7.87-.16-.58,1.75-1.75,2.38-1.77l6.63-.19Z" fill="#efeadf"/><path d="M81.37,32.64l-.98,2.74-6.22-.66c1.28-.43,4.73-2.47,5.94-3.19,0,0,1.26,1.1,1.26,1.1Z" fill="#6f6e6e"/><path d="M61.66,109.5l-.1.96c-2.07-.25-8.46-1.04-10.44-1.05-.49-.03-.92-1.33-1.12-1.79l7.68.16c1.01.04,3.46,1.43,3.98,1.71Z" fill="#4c3928"/><path d="M61.56,110.47c.36.04,1.18.72,1.12,1l-9.47,1.02.85-2.89,7.5.88Z" fill="#aaae63"/><path d="M62.68,111.47c.06-.28-.76-.96-1.12-1l.1-.96,1.43-.11,1.65,1.85-2.07.22Z" fill="#965d2f"/><path d="M55.4,99l-1.36-1.38,1.36,1.38Z" fill="#d9b68b"/><path d="M19.83,95.75l-1.77-2.04-2.48-4.42c1.68-.63,5.52.86,5.76,2.92.09.82-.71,3.3-1.5,3.54Z" fill="#efeadf"/><path d="M69.45,49.98s.14,2.08.14,2.08l18.92-.31,5.13-.62c-1.44,1.4-3.48,2.09-5.16,2.74-4.57,0-18.45.17-22.75-.76,0,0,.12-3.14.12-3.14h3.59Z" fill="#a9aaaa"/><path d="M65.74,53.11c4.24.93,18.24.77,22.75.76,0,0,.06.86.06.86l-5.68,1.04-19.29-.8c-.98-.04-2.5-.69-4.55-1.71l6.71-.14Z" fill="#494949"/><path d="M99.06,52.68c-2.37,1.12-7.91,1.59-10.51,2.05,0,0-.06-.86-.06-.86,1.7-.66,3.69-1.34,5.16-2.74,0,0-5.13.62-5.13.62l-18.92.31s-.14-2.08-.14-2.08l18.07.02,4.7-.83,3,2.61,5.85-2.51,1.55,1.73-3.57,1.67Z" fill="#5e5d5d"/><polygon points="59.49 53.56 51.1 52.2 52.53 49.37 59.49 53.56" fill="#5e5d5d"/><path d="M99.06,52.68l.2,3.25-2.8,1.28c-1.97-5.18-1.69-2.64,2.61-4.54Z" fill="#efeadf"/><rect x="89.48" y="43.13" width="2.21" height="3.84" transform="translate(4.92 98.86) rotate(-58.58)" fill="#a9aaaa"/><path d="M69.49,108.92l-2.83,1.49c-.12-.04-1.73-1.15-1.85-1.57l-2.83-10.22c7.86,2.45,13.91,6.36,13.25,12.79-.87-.32-2.45-1.3-2.82-1.86l-3.31-4.92-.94.76,1.34,3.53ZM65.69,102.87l.58-.93-.58.93ZM67.08,102.7l-.86.77.61.69.82-.94-.56-.53ZM68.05,103.61l-.98.86.63.79.94-1.08-.6-.56Z" fill="#aaae63"/><path d="M63.97,113.5l-.43,1.45c1.16.35,4,1.22,5.07,1.74.32.13-.3,1.17-.64,1.24l-1.24.25c-4.03.77-8.28.39-12.47-.45,0,0-.32-1.93-.32-1.93-.09-.53,1.64-1.91,2.22-1.93l7.82-.37Z" fill="#965d2f"/><path d="M85.53,108.83l-1.63-2.53.58-5.77c-4.23,3.44-2.7,7.92-5.98,11.29-1.73-6.84,2.51-10.98,6.64-15.06.7-.71,3.18,4.41.39,12.08Z" fill="#aaae63"/><path d="M69.49,108.92l3.29,2.88,2.35,1.79-1.31,2.04c.28.11-1.47.95-1.89.58l-1.48-1.29c-.75-.65-2.52-1.61-3.5-1.56l-.28-2.95,2.83-1.49Z" fill="#965d2f"/><path d="M93.79,105.96l-2.38.62c-.31.15-.72.78-.93,1.06l-.71.99-1.62-1.41c.48-1.42,1.99-4.35,3.26-5.19l4.9-3.12c-.63,1.75-1.89,5.29-2.51,7.05Z" fill="#aaae63"/><path d="M90.48,107.65c.21-.28.62-.91.93-1.06l-.93,1.06Z" fill="#965d2f"/></g></svg>