<?xml version="1.0" encoding="UTF-8"?><svg id="Layer_2" xmlns="http://www.w3.org/2000/svg" viewBox="0 0 151.98 107.75"><g id="Layer_1-2"><path d="M131.35,78l.12,1.69-6.95,1.79s-4,7.47-4,7.47l-3.82,4.69c-5.1,6.28-13.26,9.02-20.72,11.62,0,0-9.5,1.32-9.5,1.32,0,0-.16-1.75-.16-1.75l11.85-2.75c25.87-6.15,32.35-36.49,18.61-57.13-.89-1.3-3.47-4.71-3.9-6.21,0,0-.73-2.65-.73-2.65,0,0,1.33-.46,1.33-.46.22-.03.57-.05.7-.15l3.23,6.23c3.79-7.97,17.41-11.17,21.49-2.23-5.82-3.1-10.46-5.12-15.84-1.72-1.85,1.16-4.01,5.83-3.09,7.86,3.88,8.59,5.64,15.8,6.37,25.22l10.53-3.85c-2.53,3.54-5.86,5.03-10.42,5.73l-1.89,5.34,1.23,1.64,5.56-1.71Z" fill="#514f4c"/><path d="M50.9,102.11l-.97,1.75c-11.72-3.3-22.36-12.92-25.28-25.89-7.2-4.3-13.26-10.89-13.96-19.47-.79-8.59-.93-21.38-5-28.9,0,0,.97-1.04.97-1.04,4.24,4.78,5.15,13.73,5.09,21.28-.07,10.03,3.88,20.42,11.82,24.33.06-9.4,1.73-23.76,5.48-21.7-6.17,15.97-3.61,35.72,11.99,44.62,2.29,1.27,7.44,4.07,9.86,5.02Z" fill="#565552"/><path d="M109.52,33.99l-2.27-.87-2.83-3.26c-2.14-2.47,1.39-8.55-.09-8.96l-4.16-1.15c-3.98-4.44-11.44-6.34-18.35-7.06-4.08,3.48-9.5,3.56-13.05-.07-7.84.47-12.89,1.95-19,7.17-1.14.26-4.12,1.03-4.07,2.07.07,1.48.67,5.27.35,6.63l-1.77.05-.9-5.06c-.34-1.46,1.1-4.55,2.43-5.17l4.81-2.23c5.96-2.76,11.56-5.03,18.12-5.09l.24-2.17,1.26-.25,1.93,4.33,6.14.3c.57-1.74,2.87-7.15,2.81-8.95-.18-1.05-2.35-.78-3.21-.7,0,0-.2-3.25-.2-3.25,2.21-.39,5.48,1.59,5.52,4.59.02,1.41-1.03,4.19-1.56,5.45,4.39.94,9.99,1.84,13.68,3.7l8.49,4.27c5.7,2.86-.14,7.75,3.18,11.68,0,0,2.49,4.01,2.49,4.01Z" fill="#565552"/><path d="M131.48,79.69s-.12-1.69-.12-1.69c14.17-5.55,22.06-20.04,17.49-34.78-3.64-13.59-20.37-19.82-31.33-10.41-.46.25-3.45,3.09-4.04,2.83,4.48-9.54,18.24-12.35,27.85-6,18.12,11.63,12.01,44.91-9.85,50.05Z" fill="#5e5d5d"/><path d="M95.98,105.26c11.03-3.64,17.67-6.6,24.54-16.31,24.41,10.5-8.66,16.37-23.5,17.77,0,0-1.04-1.46-1.04-1.46Z" fill="#d9d8d5"/><path d="M44.27,28.54s1.77-.05,1.77-.05c-.45,1.93-4.21,4.43-5.43,6.1,0,0-8.49,11.56-8.49,11.56-8.85-4.28-8.96-15.81-17.27-23.92l-10.97,3.2,2.78,3.14s-.97,1.04-.97,1.04l-4.98-3.36c-.62-.42-1.02-3.01-.41-3.41,3.34-2.71,10.23-5.44,14.31-3.04,7.45,5.47,10.17,14.79,14.47,22.43,0,0,3-.19,3-.19,3.96-5.32,7.86-9.58,12.18-13.49ZM7.65,21.51l3.89.22-3.89-.22ZM5.47,22.41l-.63.1c.57.13,1.35.13,1.92,0-.32-.07-.96-.12-1.29-.1Z" fill="#5e5d5d"/><path d="M77.91,3.54l-3.13.26c-.49-.24-.4,2.09.05,2.05l3.33-.23c.63-.04.9-1.58.92-2.17,2.88-.13,1.96,1.45,1.56,3.36,0,0-2.34,6.39-2.34,6.39l-6.14-.3c-1.14-2.46-3.07-6.45-2.75-9.2,0,0,3.79-2.15,3.79-2.15.37-.11,4.24-1.28,4.51-1.26,0,0,.2,3.25.2,3.25Z" fill="#d9d8d5"/><path d="M85.27,105.02l1.06-.19.16,1.75-5.04.61c-10.61,1.47-21.43-.03-31.52-3.32,0,0,.97-1.75.97-1.75,11.06,3.04,22.81,4.43,34.37,2.91Z" fill="#494949"/><path d="M73,0l.2,1.54-3.79,2.15c-.09,1.12.31,3.73.82,4.87l-1.26.25c-.21.3-1.49-1.02-1.62-1.43-.4-1.25.2-4.52,1.13-5.44S71.66-.05,73,0Z" fill="#686868"/><polygon points="109.52 33.99 112.15 36.1 112.88 38.75 108.27 38.51 106.3 36.43 107.24 33.11 109.52 33.99" fill="#efede9"/><polygon points="77.11 .4 73.2 1.54 73 0 77.11 .4" fill="#565552"/><path d="M131.35,78l-5.56,1.71-1.23-1.64,1.89-5.34c4.56-.7,7.89-2.19,10.42-5.73l-10.53,3.85c-.73-9.42-2.49-16.63-6.37-25.22-.92-2.03,1.25-6.7,3.09-7.86,5.38-3.39,10.02-1.38,15.84,1.72-4.08-8.94-17.7-5.74-21.49,2.23,0,0-3.23-6.23-3.23-6.23l3.34-2.68c10.96-9.41,27.68-3.19,31.33,10.41,4.56,14.74-3.33,29.23-17.49,34.78ZM141.38,41.63c-1.21.4-2.32.75-1.54.5,1.45,5.92,1.93,9.27,1.86,14.66.02,2.32,4.87-2.97-.32-15.17ZM139.41,66.1l3.62-8.47c-1.93.36-2.82.53-2.08.39l-3.77,7.17c-.16-.07.46.19,2.23.91Z" fill="#efede9"/><path d="M112.58,94.61c-.34-.88-1.69-1.66-2.23-1.48.06-.72,1.14-2.55,1.74-3.13,6.36-6.09,9.05-15.53,8.19-24.16,0,0-1.82-8.49-1.82-8.49-.12-.57-1.57-1.8-1.92-2.1l-1.06-1.3c-.09-.7-.11-2.07-.37-2.73-.36-.79-1.22-1.66-1.8-2.29,0,0-.04-1.24-.04-1.24l2.77-.08c.61-.07.55-2.39.74-2.65,9.91,14.74,10.04,37.89-4.2,49.66Z" fill="#f8f7f5"/><path d="M112.58,94.61c-6.75,6.56-18.38,8.5-27.32,10.41,0,0,1.01-2.68,1.01-2.68,1.07-1.89,5.12-1.78,7.09-2.09,0,0,5.65-1.4,5.65-1.4,3.31-1.95,7.54-4.68,11.35-5.73.54-.17,1.89.61,2.23,1.48Z" fill="#ece1cf"/><path d="M116.79,44.95c-.52,3.52-.2,2.48-3.5,2.73-.04-1.44-1.27-3.98-2.15-5.2l2.86-1.55,2.8,4.02Z" fill="#f1ede4"/><path d="M112.88,38.75c.14.5.76,1.69,1.11,2.18l-2.86,1.55-2.86-3.97,4.61.23Z" fill="#f8f7f5"/><path d="M100.16,19.74s-.18,2.32-.18,2.32c0,0-7.5,2.18-7.5,2.18l-.21-1.25c-.03-.29-.93-1.12-1.22-1.1-7.89.54-17.13,1.2-24.8-.18,0,0-.42,2.07-.42,2.07l.48,1.79-15.69-2.85s-.69,1.09-.69,1.09c2.64,1.12,7.02,2.85,10.51,2.96,3.56.07,24.01.98,27.08.51,0,0-.09,4.41-.09,4.41,0,0-27.03-.3-27.03-.3,0,0,2.01,2.06,2.01,2.06,0,0,23.06.3,23.06.3,1.28.02,3.82-1.32,3.9-2.09.5,0,.92,1.29,1.19,1.94,1.12,2.68,4.58-.44,8.94,3.57l3.28-1,7.81,8.44c.5.57.9,3.47.63,3.73l-5.9-1.78c-2.37-.6-1.54.06-1.51,1.67,0,0-7.25-.61-7.25-.61-1.79-1.05-3.69-1.72-5.11-1.71.06-.48-2.23-1.89-3.22-1.89l-18.14.09-14.79,1.01c-1.42.49-2.04,3-2.41,4.27-.15.49.04,1.55.09,1.99-.42.02-2.45.96-2.62,1.65l-.95,4.44-2.51,1.21s-11.62-4.59-11.62-4.59c-4.83-1.63-4.8,9.48-5.72,12.32-.23,1.26,1.1,3.43,1.76,4.34-4.31,7.62,5.77,21.41,13.79,24.93l8.4,3.69c3.16,1.62,10.06,1.7,13.67,2.26.06.09,1.73,1.07,2.19,1.07,3.03-.03,11.73-.06,14.62-.59,0,0,2.33.19,2.33.19,0,0-1.01,2.68-1.01,2.68-11.56,1.52-23.31.14-34.37-2.91-2.46-.92-7.53-3.74-9.86-5.02-15.59-8.91-18.16-28.64-11.99-44.62-3.75-2.06-5.42,12.29-5.48,21.7-18.19-9.81-6.81-32.95-16.91-45.61,0,0-2.78-3.14-2.78-3.14,0,0,10.97-3.2,10.97-3.2,8.3,8.11,8.41,19.64,17.27,23.92l8.49-11.56c1.23-1.67,4.98-4.18,5.43-6.1.32-1.35-.27-5.14-.35-6.63-.05-1.04,2.93-1.81,4.07-2.07,6.11-5.22,11.14-6.7,19-7.17,3.55,3.63,8.97,3.55,13.05.07,6.91.72,14.37,2.63,18.35,7.06ZM87.13,14.74l-.79,1.95,4.05,1.64.79-1.95-4.05-1.64ZM50.45,22.22l-1.71-2.11.51,3.16,1.2-1.05ZM63.07,22.41l-.63.1c.57.13,1.35.13,1.92,0-.32-.07-.96-.12-1.29-.1ZM54.45,30.25l-4.74-.61c2,2.09,1.69,3.25,4.74.61ZM36.45,51.99c-.06.29,2.97,3.2,4,2.66,2.23-1.51,3.77-5.94,5.05-8.41,0,0-8.15,1.86-8.15,1.86l1.71-5.13c-.82.28-2.47,1.71-2.84,2.57l-2.74,6.34,2.97.12Z" fill="#f1ede4"/><path d="M107.24,33.11l-.94,3.32c-.68-.72-2.75-.68-3.55-.24l-3.28,1c-4.36-4.01-7.82-.89-8.94-3.57-.83-2.4-1.03-1.92-3.13-1.92,0,0,.09-4.41.09-4.41,2.41-.53,9.9-2.31,12.42-2.92.3-.07,1.17-1.48.93-1.67l-.86-.65.18-2.32s4.16,1.15,4.16,1.15c1.48.41-2.05,6.49.09,8.96l2.83,3.26ZM92.38,32.66l8.19-2.45c-.65-1.34-1.24-2.55-1.07-2.19l-7.31,2.75c-.87-.33-.65,1.81.19,1.9Z" fill="#ece1cf"/><path d="M77.91,3.54l1.17-.09c-.02.59-.28,2.12-.92,2.17l-3.33.23c-.45.05-.54-2.29-.05-2.05l3.13-.26Z" fill="#5e5d5d"/><path d="M11.54,21.73l-3.89-.22,3.89.22Z" fill="#a9aaaa"/><path d="M5.47,22.41c.33-.02.97.03,1.29.1-.57.13-1.35.13-1.92,0,0,0,.63-.1.63-.1Z" fill="#a9aaaa"/><path d="M106.3,36.43c1.34,1.18,3.81,4.56,4.83,6.05,1.22,1.7,2.37,4.39,2.19,6.44,0,0-2.12-.56-2.12-.56.27-.26-.13-3.17-.63-3.73l-7.81-8.44c.79-.43,2.86-.48,3.55.24Z" fill="#7b7c7d"/><path d="M141.38,41.63c5.19,12.2.34,17.49.32,15.17.07-5.4-.41-8.74-1.86-14.66-.78.25.33-.1,1.54-.5Z" fill="#686868"/><path d="M139.41,66.1c-1.77-.72-2.4-.97-2.23-.91l3.77-7.17c-.73.14.16-.03,2.08-.39l-3.62,8.47Z" fill="#5e5d5d"/><path d="M91.42,45.94c1.42-.02,3.32.66,5.11,1.71l7.25.61,4.29,1.1c.85.21,5.87,2.77,6.48,1.93,0,0,.57-.07.57-.07.12.27.2.86.23,1.15l-.71,2.04-3.18,1.14c-1.82-1.19-3.53.87-6.4-1.46-1.37,3.01-5.62,4.63-8.9,3.72l-.59-1.2c-.12-.4.41-.67,1.56-1.7.08-.59-1.86-3.76-3.08-3.91-2.09-.27-6.36-.98-8.25-.6-2.74.67-8.8,1.42-11.14,2.87,0,0,6.03.54,6.03.54.64.06,2.3,1.31,2.01,1.8l-2.01-.02v1.07c3.49.36,10.61,1.22,14.06,1.72-2.46.46-10.2,1.17-12.2,1.93-.37.2-1.56,1.07-2.07,1.07l-12.16.06-.33-1.72c-6.51-.2-12.6-.88-18.6-2.21,0,0,.95-4.44.95-4.44.16-.7,2.2-1.63,2.62-1.65,1.02.45,2.93,2.05,4.01,1.85,0,0,1.79-1.22,1.79-1.22l5.88-1.08c3.54-.65,7.29.94,11.1-1.58-8.2-.61-15.27,1.29-22.87.04,0,0,.75-2.4.75-2.4,7.5-.88,29.95-1.03,37.81-1.09ZM62.44,54.67v1.92h5.76v-1.92h-5.76Z" fill="#d09256"/><path d="M110.36,93.13c-2.25.72-6.35,2.53-8.32,3.85,0,0-6.52.23-6.52.23,0,0,.14-1.64.14-1.64,8.63-2.14,17.18-7.56,19.8-15.65l1.47-4.54c.32-1-1.29-2.56-2.6-3.57,0,0-1.28,8.89-1.28,8.89,0,0-2.08-1.45-2.08-1.45.92-4,2.14-8.05,4.73-11.7.89-1.89.55-6.37.34-8.86l-3.15-.02c2.92,14.35-.7,3.9-7.35,2.95-2.57-.28-6.25,1.54-8.61,2.68-7.06-.62-13.2,2.41-15.64,9.63-.47-.05-2.77-.32-2.2-.25.91-1.88,1.88-4.31,1.8-5.18-4.6-1.09-1.54,4.64-5.68,5.57l-7.75,1.74-2.11-5.75c-.16-.43-1.82-.98-1.98-.98,0,0-.83-.99-.83-.99-.06-.29-.12-1.08-.4-1.25-2.11-1.11-4.74-3.99-7.29-4.11,0,0-6.96-.25-6.96-.25.94-5.35,7.51-.73,18.38-1.01.02.34,2.34,1.85,3.14,1.83,4.28.02,12.84-.38,17.07-.9,2.63-.23,4.92-.83,7.98-1.8,5.39-1.72,9.57-.53,13.26-1.83,0,0,8.83-3.5,8.83-3.5.36.3,1.8,1.53,1.92,2.1l1.82,8.49c.85,8.64-1.83,18.07-8.19,24.16-.6.58-1.68,2.4-1.74,3.13ZM67.39,66.53l-.18,2.99,2.77.17.18-2.99-2.77-.17Z" fill="#db5130"/><path d="M59.57,67.2l2.97.88.83.99.08,3.21c-.67-.3-2.37.12-3.01.56l-4.01,2.81c-.18-.16,1.44,1.3,1.52,1.38l2.79-.81-2.34,4.35-2.88,8.11-3.28-.47.07,2.06-1.72-.36s-.06-3.5-.06-3.5c-.02-.82-1.64-1.88-2.47-1.88-.4-3.35-1.12-8.09-1.24-11.45,2-1.19,4.52-3.77,6.59-4.43,0,0,2.34-.71,2.34-.71l-.76-1.22.56-1.18.79,1.39,3.21.26ZM56.2,71.95c-.13.57-.13,1.35,0,1.92.13-.57.13-1.35,0-1.92Z" fill="#db5130"/><path d="M111.2,48.37l2.12.56.89.98.34,1.38c-.7.83-5.52-1.68-6.48-1.93,0,0-4.29-1.1-4.29-1.1-.04-1.65-.82-2.26,1.51-1.67,0,0,5.9,1.78,5.9,1.78Z" fill="#514f4c"/><path d="M116.55,55.25l-8.83,3.5.04-1.59c.11-.36,1.09-.65,1.51-.81,1.26-.48,4.07-1.49,5.37-1.95,0,0,.85-.46.85-.46,0,0,1.06,1.3,1.06,1.3Z" fill="#4c3928"/><path d="M115.12,51.22l-.57.07-.34-1.38c.29.31.73.93.9,1.32Z" fill="#f1ede4"/><polygon points="115.49 53.95 114.64 54.41 115.35 52.37 115.49 53.95" fill="#f1ede4"/><path d="M31.63,66.79s4.63-.58,4.63-.58c.93,5.19.75,10.71-.14,16.62-.22,2.01,3.39,4.79,5.12,5.71,4.31,4.34,8.4,6.22,14.18,3.31,0,0,3.95-1.9,3.95-1.9.26,5.04,2.22,7.99,6.59,9.34,8,2.47,16.2,2.29,21.05-2.99l1.6.1.77-.27.16,1.12c.36.77,3.41.43,3.59,1.23,0,0,.25,1.78.25,1.78,0,0-3.26.35-3.26.35-1.19.13-3.47.73-3.83,1.74l-2.33-.19c-1.92-.63-14.54-.42-16.81-.48,0,0-7.76-.84-7.76-.84l.12-2.03-6.03.61-8.4-3.69c-8.02-3.52-18.1-17.31-13.79-24.93-.66-.91-1.98-3.07-1.76-4.34l2.1.34ZM53.8,94.99v1.92h4.8v-1.92h-4.8Z" fill="#db5130"/><path d="M102.04,96.98c-.66.44-2.23,1.68-3.03,1.88l-5.65,1.4s-.25-1.78-.25-1.78c-.18-.8-3.23-.46-3.59-1.23,0,0-.16-1.12-.16-1.12l8.74-3.57c-1.38-.23-2.86-.47-3.56-.32l.37-1.51,4.04.46c3.65.4,5.55-3.49,7.16-6,0,0,1.45.22,1.45.22l-.72.98c-.15.2.43,1.05.68,1.09.52.07,2.41-1.02,2.1-1.45l-1.18-1.69,2.51-5.08s2.08,1.45,2.08,1.45l1.28-8.89c1.3,1.02,2.92,2.57,2.6,3.57,0,0-1.47,4.54-1.47,4.54-2.62,8.09-11.16,13.52-19.8,15.65l-.14,1.64,6.52-.23Z" fill="#753d14"/><path d="M46.86,58.72s.2.77.2.77l-7.24-.98-1.08,5c.12.81-.91,12.4-.14,12.71,0,0,1.18.75,1.18.75l1.56,5.42-1.1,1.07.99,5.08c-1.73-.92-5.34-3.7-5.12-5.71.89-5.9,1.07-11.42.14-16.62l-4.63.58,2.35-5.23c.78-2.19.84-1.93,2.85-1.58.46.07,1.84-.7,1.58-1.11s-1.07-1.48-1.47-1.78l-3.83-2.86c.35-.27,1.69-.27,2.14-.09l11.62,4.59Z" fill="#753d14"/><path d="M66.29,25.58h15.23s7.93-.73,7.93-.73c2.1-.26,8.42-2.18,10.53-2.79,0,0,.86.65.86.65.24.18-.63,1.59-.93,1.67l-8.71,2.08s-3.7.84-3.7.84l-4.88.21-22.19-.72c-3.49-.11-7.87-1.84-10.51-2.96-.15-.06-.64-.43-.66-.56l-.51-3.16s1.71,2.11,1.71,2.11c0,0,.15.52.15.52l15.69,2.85Z" fill="#5e5d5d"/><path d="M91.42,45.94l-26.17.3-11.64.79c.14-.45,1.2-1.84,1.66-1.87,8.06-.84,24.77-1.24,32.93-1.1.99,0,3.28,1.41,3.22,1.89Z" fill="#514f4c"/><path d="M87.41,31.71l1.94-.02c-.08.77-2.62,2.11-3.9,2.09l-23.06-.3-2.01-2.06,27.03.3Z" fill="#5e5d5d"/><path d="M33.11,54.22c1.26,1.01,4.61,3.14,5.3,4.64.26.41-1.12,1.19-1.58,1.11l-1.68-.26c-.51-.08-.96,1.3-1.17,1.84l-2.35,5.23-2.1-.34c.73-2.89,1.09-10.36,3.58-12.23Z" fill="#d09256"/><path d="M92.26,23l-9.7,1.26c-3.97.2-12.72-.19-16.75-.47,0,0,.42-2.07.42-2.07l6.65.75c4.99.53,12.91-.4,18.16-.57.29-.02,1.2.81,1.22,1.1Z" fill="#514f4c"/><path d="M68.31,61.44c-9.31.61-18.7-3.43-20.27-.15-.24-.5-1.17-2.01-1.17-2.57,0,0,2.51-1.21,2.51-1.21,6,1.33,12.09,2.01,18.6,2.21,0,0,.33,1.72.33,1.72Z" fill="#f8dfbd"/><path d="M92.26,23l.21,1.25c-6.53,1.68-19.4,1.33-26.18,1.33,0,0-.48-1.79-.48-1.79,4.06.28,12.75.66,16.75.47,0,0,9.7-1.26,9.7-1.26Z" fill="#a9aaaa"/><path d="M44.08,49.22l-5.5.81c-.65.17-2.39,1.36-2.13,1.97l-2.97-.12,2.74-6.34c.37-.86,2.02-2.3,2.84-2.57l-1.71,5.13,8.15-1.86-1.42,2.99Z" fill="#5e5d5d"/><path d="M44.08,49.22c-.73,1.61-2.3,4.71-3.64,5.43-1.02.55-4.06-2.37-4-2.66-.26-.6,1.48-1.79,2.13-1.97l5.5-.81Z" fill="#d09256"/><path d="M58.85,49.9l-.11,2.15-1.79,1.22c-1.06.21-3.01-1.42-4.01-1.85-.05-.44-.24-1.51-.09-1.99l5.99.47Z" fill="#f8dfbd"/><path d="M83.95,102.15c-2.86.52-11.6.57-14.62.59-.46,0-2.13-.98-2.19-1.07,2.37.05,14.76-.15,16.81.48Z" fill="#ece1cf"/><path d="M59.39,100.83c-2.17-.24-4.24-.68-5.91-1.42l6.03-.61-.12,2.03Z" fill="#965d2f"/><rect x="87.71" y="14.35" width="2.11" height="4.37" transform="translate(40.2 92.65) rotate(-68.01)" fill="#565552"/><path d="M54.45,30.25c-3.06,2.65-2.75,1.47-4.74-.61,0,0,4.74.61,4.74.61Z" fill="#7b7c7d"/><path d="M63.07,22.41c.33-.02.97.03,1.29.1-.57.13-1.35.13-1.92,0,0,0,.63-.1.63-.1Z" fill="#514f4c"/><path d="M92.38,32.66c-.84-.09-1.06-2.23-.19-1.9l7.31-2.75c-.18-.36.42.86,1.07,2.19l-8.19,2.45Z" fill="#5e5d5d"/><path d="M96.15,57.8l-1.42.59-6.4-.86-.16-1.87-5.48-.05c.29-.49-1.36-1.74-2.01-1.8l-6.03-.54c2.3-1.44,8.44-2.2,11.14-2.87,1.89-.39,6.16.33,8.25.6,1.22.16,3.16,3.33,3.08,3.91-1.94,1.59-1.76,1.37-.97,2.89Z" fill="#965d2f"/><path d="M111.46,55.54c-.89.45-3.13.88-3.7,1.62,0,0-.04,1.59-.04,1.59-3.69,1.3-7.87.11-13.26,1.83-3.06.98-5.36,1.57-7.98,1.8l-3.94-2.07c.83-.43,2.15-.5,3.95-.76,1.13-.22,8.91-1.02,9.67-1.76,3.28.91,7.54-.71,8.9-3.72,2.87,2.33,4.58.27,6.4,1.46Z" fill="#edc393"/><path d="M86.47,62.39c-4.21.52-12.81.92-17.07.9-.8.02-3.12-1.5-3.14-1.83.98,0,12.86-.06,14.2-.07.51,0,1.7-.87,2.07-1.07l3.94,2.07Z" fill="#342316"/><path d="M58.74,52.05l.11-2.15c5.16.24,10.88-1.2,16.88-.51-3.81,2.52-7.56.93-11.1,1.58l-5.88,1.08Z" fill="#4c3928"/><polygon points="82.69 55.61 88.17 55.66 88.34 57.53 80.68 56.67 80.68 55.59 82.69 55.61" fill="#753d14"/><rect x="62.44" y="54.67" width="5.76" height="1.92" fill="#753d14"/><path d="M80.68,56.67v-1.07s0,1.07,0,1.07Z" fill="#965d2f"/><path d="M110.97,79.24c-.49.97-2.57,5.54-3.4,6.15,0,0-1.45-.22-1.45-.22,3.11-4.85,5.09-10.7,4.86-16.83-.23-5.56-8.19-7.2-10.49-2.44,0,0-7.58,1.52-7.58,1.52-2.53.51-6.17,1.21-7.56,3.26-3.34,4.95.06,7.51.23,7.91l-1.04,1.44c-3.48-4.57-9.03-4.91-14.09-2.97-6.54,2.5-11.56,10.51-8.33,16.28,3.81,6.55,15.95,7.68,22.76,2.25,1.08-.86,2.4-3.81,2.44-5.04l.09-2.91.89-.1c1.33,1.91,4.34,3.12,6.62,3.18,0,0-.37,1.51-.37,1.51-1.7.36-4.94,1.23-6.06,2.45-5.03,6.69-13.61,7.4-22.54,4.61-4.37-1.35-6.33-4.3-6.59-9.34l-3.95,1.9c-5.8,2.91-9.84,1.04-14.17-3.31,0,0-.99-5.08-.99-5.08l1.1-1.07c.19.67,1.17,1.77,1.57,2.23.05.78.73,3.59,1.71,4.12l5.2,2.79c.52.28,2.43-.97,2.51-1.25l-.07-2.06c8.85,1.78,4.74-.81,12.2-8.85,1.58-1.59.52-5.47-1.01-7.08l-.08-3.21c.15,0,1.82.56,1.98.98l2.11,5.75,7.75-1.74c4.14-.93,1.09-6.65,5.68-5.57.08.87-.89,3.3-1.8,5.18-.57-.07,1.73.2,2.2.25,2.44-7.21,8.58-10.25,15.64-9.63,7.52-4.01,10.39-3.57,16.96,2.48,0-3.04-.32-5.62-.99-8.11l3.15.02c.2,2.49.55,6.97-.34,8.86-2.59,3.64-3.81,7.71-4.73,11.7Z" fill="#342316"/><path d="M63.37,69.07l-.83-.99.83.99Z" fill="#342316"/><path d="M62.54,68.08l-2.97-.88.97-1.35,1.6.98c.28.17.35.96.4,1.25Z" fill="#342316"/><path d="M47.07,59.49l.97,1.81-.15,1.17-.91,5.03-.14,5.59.16,2.75h-5.81s3.03-5.47,3.03-5.47c-1.61-.03-4.61,3.45-5.94,4.46,0,0,.47-11.31.47-11.31l1.08-5,7.24.98Z" fill="#efeadf"/><path d="M60.54,65.85l-.97,1.35-3.21-.26-.6,1.01c-2.61.51-5.28,2.15-7.36,4.09,0,0-1.56,1.04-1.56,1.04l.14-5.59.91-5.03,6.96.25c1.65-.02,4.55,2.08,5.69,3.13ZM50.83,67.66c1.89-1.36,1.11-3.53-1.37-1.59-.1-.11.44.51,1.37,1.59ZM55.56,65.56l-.56,1.18.56-1.18Z" fill="#4c3928"/><rect x="67.18" y="66.73" width="3" height="2.77" transform="translate(-3.54 132.47) rotate(-86.47)" fill="#753d14"/><path d="M94.55,92.23c.7-.15,2.18.09,3.56.32-.59.22-9.09,3.76-9.51,3.84,0,0-.11-1.72-.11-1.72,1.12-1.22,4.36-2.09,6.06-2.45Z" fill="#965d2f"/><rect x="53.8" y="94.99" width="4.8" height="1.92" fill="#753d14"/><polygon points="88.6 96.4 87 96.3 88.49 94.68 88.6 96.4" fill="#753d14"/><path d="M106.11,85.17l-2.01,3.14c.02-.14-1.55.02-1.93.07-.32.04-.23-.36-.13-.91l2.81-3.85c.45-.49,1.52-1.41,1.5-2.1l-.08-3.12-.15-.57-.71-.46c-.32-.15-1.61-1.23-1.91-1.46,0,0,2.46.1,2.46.1.2.05.6,1,.76,1.21,0,0,.42.28.42.28l1.22-1.53c.43-.53-1.29-1.6-1.83-2.08l-1.91-1.71,2.84-.86c.81-.3.79-2.74.38-3.72-.86-1.77-1.21-1.31-1.01.12-.44,1.22-.6,1.92-.91,2.02l-1.14.37.6-3.62c.07-.94-2.74-.77-3.57-.35l-1.33-.25c.22-.81,2.1-2.4,3.23-2.69,12.35-1.3,6.21,16.43,2.4,21.96Z" fill="#d9b68b"/><path d="M90.03,86.29l1.01,1.85c.18.33,1.37.47,1.47.45l.54-.83-.59-1.83,6.23,3.4.27,1.84c-1.41-.16-4.83-.54-6.18-.77-1.39-.2-3.71-1.75-4.48-2.87.03-.24.2-1.04.14-1.27,0,0,1.6.02,1.6.02ZM94.05,87.91l-.66,1.36.66-1.36Z" fill="#d9b68b"/><path d="M102.05,87.46c-.1.55-.19.95.13.91.38-.05,1.95-.21,1.93-.07-1.03,1.61-3.02,3.11-5.15,2.87-.17-.89-.36-2.68-.36-3.58,0,0,3.46-.13,3.46-.13Z" fill="#aaae63"/><path d="M107.57,85.39l.89-1.07,1.18,1.69c.3.43-1.58,1.52-2.1,1.45-.25-.03-.83-.88-.68-1.09l.72-.98Z" fill="#d09256"/><path d="M47,75.84c.25,2.16.79,6.54,1.08,8.7,0,0-5.17.07-5.17.07-.4-.46-1.37-1.56-1.57-2.23l-1.56-5.42,1.4-1.12h5.81Z" fill="#d9b68b"/><path d="M41.19,75.85l-1.4,1.12-1.18-.75c-.23-.15-.34-1.11-.33-1.39,1.34-1.01,4.33-4.49,5.94-4.46,0,0-3.03,5.48-3.03,5.48Z" fill="#7b7c7d"/><path d="M100.49,65.9l1.33.25c-1.38.73-4.49,2.3-5.89,2.89-.88.4-1.27,2.07-1.08,3.27l-1.95-.28-.25-.59c-.64.22-1.9,1.36-2.23.61,0,0-1.01-2.5-1.01-2.5l-4.23,5.71c.05,1.38,2.55,1.83,2.22.26.29-1.45.5-2.32.46-2.39.57-.03,2.07.46,2.67.68-2.56,2.46-3.19,5.3-1.02,9.25l1.98-1.27,2.8-3.22,2.9-3.68c.91-.9,3.38-1.63,4.38-.58-.48.26-8.6,7.51-9.29,8.09,0,0-1.99,1.74-1.99,1.74-.43.38-.37,1.54-.25,2.15l-1.6-.02c-.84-1.59-2.27-5.93-2.85-7.68-.17-.4-3.58-2.96-.23-7.91,1.39-2.06,5.03-2.76,7.56-3.26l7.58-1.52Z" fill="#d09256"/><path d="M84.54,80.03l2.74,3.6c.06,1.68.16,5.26.04,6.92,0,0-1.79-2.19-1.79-2.19.23-3.91-.16-7.2-4.37-9.43-1.35-.77-4.45-1.34-5.28-1.11l.12,3.62-1.18.02-2.67.47-.61-3.81c-2.34,2.02-1.5,1.81-.44,3.69,0,0-2.75.29-2.75.29-1.99.21-3.12,5.43-2.99,7.74l-3.22,3.48c-3.23-5.77,1.8-13.78,8.33-16.28,5.06-1.93,10.6-1.59,14.09,2.97Z" fill="#d09256"/><path d="M63.45,72.29c1.52,1.61,2.59,5.49,1.01,7.08-5.87,5.89-4.31,9.99-8.93,9.32l2.88-8.11,2.34-4.35-2.79.81c-.09-.08-1.7-1.54-1.52-1.38,1.64-.98,4.88-4.15,7.02-3.37Z" fill="#753d14"/><path d="M88.43,86.27c.06.23-.1,1.03-.14,1.27l-.89.1-.13-4.01,1.15,2.64Z" fill="#753d14"/><polygon points="87.28 83.63 84.54 80.03 85.58 78.59 87.28 83.63" fill="#753d14"/><path d="M50.83,67.66c-.94-1.09-1.47-1.7-1.37-1.59,2.49-1.94,3.26.23,1.37,1.59Z" fill="#db5130"/><path d="M85.51,86.5l-1.84,1.41-3.01.39c-.72.09-2.37,2.19-1.71,2.49l3.03,1.56-1.34.84c-3.19,2-6.62.29-6.72,1.37l-.17,1.86c-.04.44,1.93.66,2.39.47,4.13-1.84,9.35-2.76,9.38-8.53,0,0,1.79,2.19,1.79,2.19-.04,1.23-1.36,4.18-2.44,5.04-6.82,5.43-18.95,4.29-22.76-2.25l3.22-3.48c-.13-2.31,1-7.54,2.99-7.74.78-.08,3.07-.4,3.81-.17,0,0,2.67-.47,2.67-.47-.14,1.06,1.7,3.17,2.71,2.88.49-.62-.67-2.92-1.52-2.9l-.12-3.62c4.57-.6,10.59,3.77,9.64,8.68ZM72.15,88.94c.48-.19.94-2.4.42-2.41l-1.73-.05c-.51-.01-.38,1.42-.37,2.04,0,.34,1.34.55,1.67.42Z" fill="#db5130"/><path d="M48.07,84.54c.83,0,2.46,1.06,2.47,1.88l.06,3.5,1.72.36c-.08.28-1.99,1.53-2.51,1.25l-5.2-2.79c-.98-.52-1.66-3.33-1.71-4.12l5.17-.07Z" fill="#d09256"/><path d="M104.64,72.19l1.91,1.71c.54.48,2.25,1.55,1.83,2.08l-1.22,1.53-.87.9.08,3.12-4.42-4.62-2.04,1.29c-.43.27.5,3.94,4.96,5.43l-2.81,3.85-3.46.13.09,1.74-6.23-3.4.59,1.83,1.01.14c-.79,1.55-.41,1.57-1.54.69-.1.02-1.29-.12-1.47-.45l-1.01-1.85c-.12-.61-.18-1.77.25-2.15l1.99-1.74c.71-.63,8.8-7.79,9.29-8.09,0-.06-.83-.49-.94-.54l-.12-1.94c.83-.16,3.29.26,4.14.36ZM105.97,76.01l-2.46-.1,1.47,1.17.98-1.08ZM106.26,76.39l-.83.98.71.46.6-.61-.48-.83ZM94.35,83.92l4.53-1.87-.11-2.43c-.94.71-3.68,2.77-4.57,3.45-.31.23.49,1.76.15.85Z" fill="#753d14"/><path d="M104.79,70.11c-.15.26-.26.56-.43.37l-1.22-1.37-1.41,2.68-1.23.03-2.33-3.8,3.65-1.87c.83-.43,3.64-.59,3.57.35l-.6,3.62Z" fill="#965d2f"/><path d="M106.37,81.52c.02.68-1.06,1.6-1.5,2.1-4.46-1.49-5.39-5.16-4.96-5.43l2.04-1.29,4.42,4.62Z" fill="#d09256"/><path d="M104.64,72.19l-2.91-.39,1.41-2.68,1.22,1.37c.17.19.28-.11.43-.37l1.14-.37c.31-.1.47-.8.91-2.02-.21-1.43.15-1.88,1.01-.12.42.99.43,3.43-.38,3.72l-2.84.86Z" fill="#4c3928"/><path d="M56.2,71.95c.13.57.13,1.35,0,1.92-.13-.57-.13-1.35,0-1.92Z" fill="#753d14"/><path d="M74.81,81.46l1.18-.02c.85-.02,2.01,2.28,1.52,2.9-1.01.29-2.84-1.81-2.71-2.88Z" fill="#753d14"/><path d="M72.14,81.93l-1.05-.12-1.11-1.77c-.16-.33.54-.98,1.55-1.92l.61,3.81Z" fill="#753d14"/><path d="M98.17,68.02l2.33,3.8.12,1.94c-.86-.08-2.88.42-3.44,1.12l-2.9,3.68-1.82-.11.44-6.43,1.95.28,1.8,1.15c.52.33,2.13-1.65,1.71-2.1-.54-.64-1.74-1.85-2.43-2.32,0,0,2.24-1.02,2.24-1.02Z" fill="#4c3928"/><path d="M92.89,72.03l-.44,6.43,1.82.11-2.8,3.22c-2.03-2.78-3.1-3.08-.48-6.57,0,0-.47-1.4-.47-1.4l-1.47-.49,1.35-1.27c.12.19.36.36.56.26l1.68-.87.25.59Z" fill="#965d2f"/><path d="M94.85,72.31c-.18-1.2.2-2.87,1.08-3.27.69.47,1.89,1.68,2.43,2.32.42.46-1.19,2.44-1.71,2.1l-1.8-1.15Z" fill="#965d2f"/><path d="M91.48,81.79l-1.98,1.27c-2.17-3.94-1.54-6.78,1.02-9.25l.47,1.4c-2.63,3.49-1.54,3.8.48,6.57Z" fill="#4c3928"/><path d="M90.4,72.06l-1.35,1.27c-.09-.02-1.24-.25-1.21-.19.04.06-.17.94-.46,2.39.32,1.57-2.18,1.12-2.22-.26l4.23-5.71,1.01,2.5Z" fill="#753d14"/><path d="M81.94,94.43l-5.8,2.45c-.46.19-2.43-.03-2.39-.47l.17-1.86c.1-1.09,3.53.63,6.72-1.37l1.29,1.25Z" fill="#753d14"/><path d="M85.53,88.36c.02,2.39-1.5,5.19-3.59,6.08l-1.29-1.25,1.34-.84,1.69-4.44,1.84-1.41.02,1.86Z" fill="#342316"/><path d="M83.67,87.9l-1.69,4.44-3.03-1.56c-.67-.3.99-2.4,1.71-2.49l3.01-.39Z" fill="#965d2f"/><path d="M72.15,88.94c-.33.13-1.66-.09-1.67-.42-.02-.62-.14-2.05.37-2.04l1.73.05c.52.01.06,2.22-.42,2.41Z" fill="#753d14"/><path d="M94.35,83.92c.34.91-.46-.61-.15-.85.88-.67,3.65-2.75,4.57-3.45,0,0,.11,2.43.11,2.43l-4.53,1.87Z" fill="#d09256"/></g></svg>