<?xml version="1.0" encoding="UTF-8"?><svg id="Layer_2" xmlns="http://www.w3.org/2000/svg" viewBox="0 0 101.87 145.06"><g id="Layer_1-2"><path d="M58.33,37.34c.94.59,2.88,1.47,3.98,1.37.63,2.13,3.01,3.57,5.43,3.78,0,0,6.19.51,6.19.51.66.05,2.25.14,2.34.7.27,1.77.58,4.6,1.83,5.96.42.45,2.29-.2,2.52-.76l1.09-2.68s4.97,2.61,4.97,2.61c.42.22,2.36-.34,2.15-.93,2.35,1.32,4.3,3.79,3.6,6.34,0,0-1.8,3.05-1.8,3.05-.07.32-1.53,2.02-.79,2.11,0,0,2.51-.49,2.51-.49,0,0-5.98,35.51-5.98,35.51,0,0,.04,2.91.04,2.91-.38.06-.9.54-.94.93l-.45,4.27-2.24-4.98,1.95-7.74s1.53-8.25,1.53-8.25c-2.08.95-6.92,2.96-9.05,3.91.2-2.29,1.49-6.84-.25-8.74-1.81-1.03-6.2-.47-8.42.32l-.98-4.15c-5.2-.48-17.14-1.42-22.46-1.77,0,0,.19-2.74.19-2.74,9.16.88,18.85-.37,28.69-1.9-.55-.88-1.32-2.1-1.14-1.82-12.42,2.16-25.96,2.63-38.2.56-4.03-.78-12.59-3.36-16.54-4.66,0,0,.76-2.48.76-2.48l8.47,2.69,6.41,1.73,7.6.95,13.6.93,6.42-.66s1.67,1.09,1.67,1.09l.25-2.34c1.73-.94,8.64-.53,10.65-.66,1.24-.01,2.84-4.15,1.71-4.5-2.08-.41-6.32-1.03-8.42-1.12,0,0-2.19-.19-2.19-.19-.4-.03-.54-.38-.69-1,1.66-.35,5.02-1.55,6.59-2.22-.97-.79-3.64-1.85-3.59-3.43,0,0,1.59-3.81,1.59-3.81l-10,3.9c-.52.2-1.71,1.85-1.31,2.16-1.4.3-4.27-.03-5.88-.3,0,0-5.47-.93-5.47-.93l-.19-1.82,5.66.85c.56.08,2.31-.53,2.44-1.03l.49-1.98,7.09-1.28c.35-.07,1.24-.9,1.41-1.21s.03-1.52-.28-1.36c0,0-1.84.93-1.84.93-.95.48-2.46,1.1-3.32,1.3.1-.61-.01-2.15-.64-2.15-1.73.16-9.03-.64-10.88-.81,0,0,.67-2.96.67-2.96,0,0-3.36,1.11-3.36,1.11,0,0-1.34-2.57-1.34-2.57,7.21-1.47,7.91-5.22,11.68-2.84,0,0,4.44,2.8,4.44,2.8ZM84.86,62.28c-3.43-.89-6.47-.3-8.44,2.96,3.08-.52,5.86-1.47,8.44-2.96ZM85.8,77.47l1.5-9.62s-.89-.74-1.74-1.44l-1.97,13.68c.92-.46,2.08-1.77,2.21-2.61ZM71.93,70.6l-5.02.26c1.4,2.89,4.44,1.68,5.02-.26Z" fill="#ece1cf"/><path d="M70.22,138.48l.9-.76.94.97,4.77-1.25c.78-.21,2.31-1.33,2.97-1.81,2.65-1.89,7.39-1.95,9.67-4.69,0,0,2.2-1.18,2.2-1.18,0,0,1.23,4.1,1.23,4.1,4.75-3.01,8.53-8.66,7.09-11.74,0,0,1.9.16,1.9.16-.3,27.48-69.98,26.03-87.2,16.71,0,0-8.51-4.65-8.51-4.65-6.43-3.52-8.37-12.34-3.16-17.76.94-.98,2.29-2.11,2.64-2.93,0,0,3.14.09,3.14.09,0,0-5.12,5.51-5.12,5.51-4.25,4.57-.07,12.49,8.2,16.15,18.33,8.1,38.41,9.05,58.11,6.1,0,0,.27-3.02.27-3.02ZM90.69,132.67l-5.22,3.13,1.02,1.69,5.22-3.13-1.02-1.69ZM82.83,137.86c1.64-.39,2.01-.85.27-1.29l-6.32,2.83c2.15-.25,3.83-.71,6.04-1.54ZM74.61,139.92l-.63.1c.57.13,1.35.13,1.92,0-.32-.07-.96-.12-1.29-.1Z" fill="#565552"/><path d="M21.2,43.55s.19.79.19.79c-3.31,1.78-8.84,4.78-9.29,8.75-.06.79.8,2.36,1.21,2.93l-.57,4.14c-.23,3.18.96,8.1,1.37,11.26.67,4.21,2.28,13.03,3.29,17.12.07.34.64.85.9,1.08l-.02.97v3.85c.02.79.52,2.2.84,2.91l.1,2.75.11,3.06c.02.53-1.81.76-2.2.72-1.59-10.87-5.63-36.71-7.39-47.82-1.08-6.85,5.69-12.55,11.48-12.5Z" fill="#494949"/><path d="M88.02,94.51s-1.64-.1-1.64-.1l5.98-35.51-2.51.49c-.29.06-.24-.38-.09-.64.57-.96,2.1-3.54,2.67-4.53.69-2.55-1.24-5.03-3.6-6.34,0,0-3.1-1.91-3.1-1.91-.34-.21.51-1.74.91-1.63,2.52.68,7.79,3.92,8.03,6.86.4,4.7-.27,8.91-1.04,13.3-1.17,6.73-4.12,23.53-5.61,30.01Z" fill="#565552"/><path d="M82.79,97.54l2.24,4.98.45-4.27,1.75.95.6,2.7,7.15-1.27.45,2.79c-.69,1.58-1.8,4.83-2.21,6.49,0,0-3.23.9-3.23.9l.02,1.26c.73,1.08,1.76,2.34,2.75,2.71s3.8-1.59,3.15-2.36l-1.52-2.34,3.74,1.18.5,2.64-.99,1.39-.65.92-4.42.5-1.45.35c.05-.34-.65-1.72-.78-2.05-.1-.25-.51-1.49-.78-1.6-2.59-1.06-6.55-2.98-9.39-2.72,0,0-.85-2.99-.85-2.99l5.22,1.02-1.08-4.56c-.54-2.32-2.47-4.97-3.6-7.02,0,0,2.95.38,2.95.38ZM88.52,108.78c-1.21.02,1.15-.01,2.55-.03l2.51-5.89-6.93,1.1c-.73.12-1.21,3.18-1.07,3.95l3.28-2.69c.46-.2.5.48-.35,3.57Z" fill="#342316"/><path d="M58.33,37.34l-4.44-2.8c-3.77-2.38-4.47,1.37-11.68,2.84-1.63.33-4.27,1.42-4.83,2.78l-1.26,3.08-5.69.74,4.68-3.15-1.84-1.17-5.13,1.45-.19-1.61c1.68-1.1,6.9-1.89,8.93-2.29,4.28-2.95,6.75-.84,12.22-5.27,1.41-1.14,5.34-.55,6.58.93,0,0,2.66,4.48,2.66,4.48Z" fill="#5e5d5d"/><path d="M56.63,24.69l-.76,2.06c-5.04.62,3.06-5.12-1.93-12.1-3.17-4.36-.19-10.32,1.22-14.65,4.27,3.81-3.65,7.52.93,14.32,2.05,3.05,1.87,6.75.54,10.36Z" fill="#6f6e6e"/><path d="M64.97,38.47l-2.66.24c-1.08-3.06,8.76-3.78,17,2.29l.79,1.35c.17.28.35,1.24.04,1.14-5.1-1.75-7.79-5.68-15.18-5.02Z" fill="#5e5d5d"/><path d="M60.88,25.44c.19-2.07,1.05-5.23.8-6.62l-1.08-6.09c4.14,3.64,4.44,9.29.29,12.71Z" fill="#6f6e6e"/><path d="M21.38,100.17l.11,4.75c-1.38.38-1.58.34-.1.63l.56,2.23c-1.56.14-4.04.74-5.51,1.25,0,0,.67-5.16.67-5.16.39.04,2.22-.19,2.2-.72l-.11-3.06,2.17.07Z" fill="#f1ede4"/><path d="M50.26,20.46l.56,2.41c.14.59-1.8.38-1.97-.19-.6-2.05-1.82-6.19-2.42-8.24,0,0,2.02-1.66,2.02-1.66l1.8,7.69Z" fill="#7b7c7d"/><path d="M27.93,39.5l.19,1.61-4.29,6.45c-.46-.12-1.52-.25-2-.28,0,0-.43-2.93-.43-2.93l-.19-.79c.74,0,2.18-.39,2.74-.84l3.99-3.21Z" fill="#6f6e6e"/><path d="M19.21,110.03c-1.78.41-9.02,3.09-10.87,3.75,0,0,3.38-3.79,3.38-3.79,2.12.39,5.37-1.35,7.57-1.8,0,0-.07,1.84-.07,1.84Z" fill="#7b7c7d"/><path d="M94.37,110.09l1.52,2.34c.65.77-2.15,2.74-3.15,2.36s-2.02-1.63-2.75-2.71l-.02-1.26,3.23-.9,1.16.17Z" fill="#6f6e6e"/><path d="M101.87,122.29l-1.9-.16-2.99-5.9.65-.92c2.16,1.34,3.95,4.36,4.24,6.99Z" fill="#686868"/><path d="M11.72,109.99s-3.38,3.79-3.38,3.79c1.94-.7,9.02-3.31,10.87-3.75-.45.06,1.72,10.14,1.75,10.55,0,0,2.35.18,2.35.18l-2.13-9.89,1.51-.18c3.66,8.93.11,8.29,11.41,14.61,0,0-2.36.08-2.36.08.11.36.65,1.85.99,1.95l6.6,2.03-.11-2.8c2.55-.22,7.1.88,9.6,1.43,0,0-.19,1.3-.19,1.3,0,0,2.3.52,2.3.52l3.46.42s-.09,1.88-.09,1.88c-10.37,1.73-22.72-.01-29.88-8.83l-1.34,1.61c6.89,9.24,20.53,10.14,31.67,9.95.25,1.52,2.94,3.77,4.5,3.76l10.97-.15s-.27,3.02-.27,3.02c-19.69,2.95-39.78,2-58.11-6.1-8.27-3.65-12.44-11.58-8.2-16.15,0,0,5.12-5.51,5.12-5.51l-3.14-.09s2.09-4.97,2.09-4.97c0,0,4,1.3,4,1.3ZM7.93,127.25c2.17,1.66,2.62,1.22.95-.95l-.95.95ZM10.12,128.03l-.55.49.59,1.42.43-.47-.47-1.45ZM12.28,130.45l-1.31-.02q-.83,0,1.31.02ZM28.08,138.01c.65.21,1.68-1.49,1.15-1.65l-14.55-4.48c-.18-.02,1.22,2.16,1.68,2.31l11.72,3.82Z" fill="#f1ede4"/><path d="M87.42,97.23c.2.29.85,1.27.97,1.39.1.1-1.02.7-1.16.58l-1.75-.95c.14-.88,1.22-1.01,1.94-1.02Z" fill="#565552"/><path d="M98.62,113.91l-.5-2.64,1.31.48c.34.13.8,1.18.49,1.37l-1.3.79Z" fill="#686868"/><path d="M95.42,103.42c-.38-2.95-1.29-3.69,2.2-1.47,0,0-2.2,1.47-2.2,1.47Z" fill="#565552"/><polygon points="87.42 97.23 86.42 97.32 86.38 94.41 88.02 94.51 87.42 97.23" fill="#342316"/><path d="M82.79,97.54l-2.95-.38-1.78-1.72c-.59-.57-2.4,1.34-2.51,2.16,0,0-.63,4.55-.63,4.55-14.12.56-17.63,11.81-21.03,24.96l-5.08.88c-2.51-.61-7.06-1.61-9.6-1.43-3.06.21-6.6-2.09-9.07-3.6-7.5-4.42-4.6-7.09-7.45-12.28-.29-1.27-1.01-3.88-1.29-5.13.27-.17-.09-5.02-.01-5.38-.02-.8-.65-2.28-.95-2.93l-.34-2.84-.85-3.78c-.07-.33-.69-.79-.95-1.01s-.82-.74-.9-1.08l.93-.75.04-3.84,4.79-.88,2.22,2.3,1.82,15.22,2.79,14.83c.6,3.18,4.33,4.73,7.04,3.43l-.7-6.1-2.92-25.07,10.79,1.05c8.12.85,15.95-.28,24.05-.94,3.48-.28,6.41-1.12,9-2.33,2.08-.9,6.99-3.02,9.05-3.91-.64,4.06-2.36,12.05-3.49,15.99Z" fill="#f3ad9d"/><path d="M34.66,65.2c.2,1.57-.04,1.97,1.8,2.28,2.19.24,6.68.68,8.85.89,0,0-.19,2.74-.19,2.74l13.74,1.01,8.72.76.98,4.15c2.22-.79,6.62-1.35,8.42-.32,1.74,1.87.46,6.48.25,8.74-2.59,1.21-5.52,2.05-9,2.33-8.11.65-15.94,1.79-24.05.94,0,0-10.79-1.05-10.79-1.05l-.04-.88-2.02-16.78-4.18-.97-1.1-2.66v-1.13s1.73-.38,1.73-.38c.26-.1.18-.44.2-1.26,0,0,6.68,1.6,6.68,1.6Z" fill="#f8f2e7"/><path d="M42.2,37.38c.79,1.65,1.97,4.14,4.04,4.42,0,0,8.37.8,8.37.8h2.51c.63.01.74,1.56.64,2.16-.96.22-2.83.7-3.06,1.62l-.49,1.98c-.13.5-1.88,1.11-2.44,1.03l-5.66-.85-6.39-1.49,2.49-1.31c-.65-.51-1.78-1.43-2.23-1.15l-2.08,1.28c-.56.35-1.66.13-3.51.06-.01.66,1.31,2.87,2.26,3.09l6.98,1.62,2.69-.29c3.14.45,8.3,1.74,11.35,1.23,2.32-.5,7.47-1.62,9.72-2.25-.04,1.6,2.62,2.61,3.59,3.43,0,0-3.69,1.43-3.69,1.43-1.22.31-3.72,1.03-4.92,1.32,0,0-7.46-.17-7.46-.17-1.77,0-5.99,2.02-7.66,1.48l-9.52-3.09c-2.75.85-4.76.83-6.78-.49-1.68-1.24-6.35-3.62-7.1-5.67,0,0,4.29-6.45,4.29-6.45l5.13-1.45,1.84,1.17-4.68,3.15s5.69-.74,5.69-.74c1.3-3.61,1.93-4.89,6.1-5.86Z" fill="#f8f7f5"/><path d="M21.82,47.28c-1.2-.12-2.76,1.22-3.79,2.87l3.97-1.07,1.65,3.81,5.92,3.14c1.28.68,4.58,1.07,5.89,1.21,5.87-1.75,9.48,2.92,17.44,2.76,6.18-.12,12.34-1.25,18.18-3.49l4.6.78c1.13.35-.47,4.48-1.71,4.5,0,0-7.79.09-7.79.09-1.89-.05-3.41.82-4.78,1.83,0,0-6.42.66-6.42.66-4.93-.31-16.46-1.08-21.2-1.89-3.65-.88-11.28-3.22-14.88-4.42-.33,1.13-1.06,3.46-1.4,4.58-.21.7-.46,2.28-1.17,2.47,0,0-3.12.62-3.12.62-.21-1.33-.65-4.18-.45-5.57l.57-4.14c2.56-.18,2.91.57,3.49-2.43,0,0,.47-1.95.47-1.95-.62-1.02-4.33,1.26-5.17,1.45.46-3.96,5.98-6.98,9.29-8.75,0,0,.43,2.93.43,2.93Z" fill="#f8f7f5"/><path d="M45.31,68.37c-2.17-.2-6.67-.66-8.85-.89-.39-.04-1.52-.37-1.6-.72l-.2-1.56c9.09,1.23,18.57,2.04,27.96.8l10.23-1.36c-.18-.28.59.95,1.14,1.82-9.84,1.53-19.53,2.79-28.69,1.9Z" fill="#565552"/><path d="M46.1,48.53l.19,1.82-2.69.29-6.98-1.62c-.95-.22-2.27-2.43-2.26-3.09,1.85.07,2.95.28,3.51-.06,2.08-1.15,2.02-2.11,4.32-.13,0,0-2.49,1.31-2.49,1.31l6.39,1.49Z" fill="#cbc9c3"/><path d="M64.36,54.98c.15.63.29.97.69,1l2.19.19,3.82.34c-5.84,2.24-12,3.37-18.18,3.49-.11-.34.52-.64,1.11-.9l6.55-1.04c.74-.12,1.89-2.14,1.79-2.54l2.02-.54Z" fill="#a9aaaa"/><path d="M85.8,77.47c-.13.84-1.29,2.15-2.21,2.61l1.97-13.68c.85.7,1.78,1.47,1.74,1.44l-1.5,9.62Z" fill="#686868"/><path d="M67.36,49.33c-2.26.62-7.38,1.76-9.72,2.25-.4-.31.79-1.95,1.31-2.16l10-3.9-1.59,3.81Z" fill="#cbc9c3"/><path d="M27.98,63.6c-.01.82.06,1.16-.2,1.26l-1.73.38-2.73-.9-5.84-1.7.64-2.1,9.85,3.06Z" fill="#514f4c"/><path d="M54.7,46.38c.23-.92,2.09-1.4,3.06-1.62,1.51-.34,3.69-1.47,5.16-2.23.32-.16.46,1.05.28,1.36s-1.06,1.14-1.41,1.21l-7.09,1.28Z" fill="#a9aaaa"/><path d="M84.86,62.28c-2.59,1.49-5.36,2.44-8.44,2.96,1.97-3.26,5.01-3.85,8.44-2.96Z" fill="#5e5d5d"/><path d="M64.97,38.47l2.78,4.01c-2.42-.2-4.8-1.65-5.43-3.78l2.66-.24Z" fill="#a9aaaa"/><path d="M71.93,70.6c-.58,1.94-3.62,3.15-5.02.26l5.02-.26Z" fill="#d9b68b"/><path d="M46.23,41.8c-.88-.08-2.21-1.12-2.69-1.85l3.36-1.11-.67,2.96Z" fill="#a9aaaa"/><polygon points="63.31 62.45 63.06 64.79 61.39 63.71 63.31 62.45" fill="#d9b68b"/><path d="M92.44,54.23l.13-1.29-.13,1.29Z" fill="#f8f7f5"/><path d="M79.85,97.16c1.12,2.06,3.06,4.69,3.6,7.02,0,0-5.84.26-5.84.26l1.7,3.28.85,2.99-2.73.46-.95-5.89c-16.49-6.32-25.68,30.43-17.69,31.38,0,0,11.01-.27,11.01-.27l9.34-2.14c2.26-.52,10.19-5.68,10.88-10.09l1.1-7.09,1.45-.35-.36,4.82c-.45,5.67-3.48,8.99-7.58,12.13-1.65.42-3.69,1.13-4.83,1.96,0,0-8.67,2.08-8.67,2.08l-.9.76s-10.97.15-10.97.15c-1.55.01-4.24-2.24-4.5-3.76l-.46-2.74c.09-.81.09-2.45.04-3.24,0,0-5.72.41-5.72.41l.19-1.3,5.08-.88c3.4-13.15,6.91-24.41,21.03-24.96l.63-4.55c.11-.82,1.92-2.73,2.51-2.16l1.78,1.72Z" fill="#4c3928"/><path d="M96.98,116.22l2.99,5.9c1.44,3.08-2.34,8.73-7.09,11.74l-1.23-4.1-2.2,1.18-1.26-.36c2.03-1.66,3.85-6.13,4.01-9.04l.36-4.82,4.42-.5ZM93.24,127.95c2.19-.65,3.12-3.67.35-5.1l-.35,5.1Z" fill="#d9d8d5"/><rect x="85.54" y="134.1" width="6.09" height="1.98" transform="translate(-56.88 64.83) rotate(-30.96)" fill="#cbc9c3"/><path d="M88.19,130.59l1.26.36c-1.1,1.26-3.2,2.31-4.84,2.73l3.58-3.09Z" fill="#7b7c7d"/><path d="M82.83,137.86c-2.22.82-3.89,1.29-6.04,1.54l6.32-2.83-.27,1.29Z" fill="#7b7c7d"/><path d="M79.79,135.63c-.66.48-2.19,1.6-2.97,1.81l-4.77,1.25-.94-.97,8.67-2.08Z" fill="#7b7c7d"/><path d="M74.61,139.92c.33-.02.97.03,1.29.1-.57.13-1.35.13-1.92,0,0,0,.63-.1.63-.1Z" fill="#7b7c7d"/><path d="M82.83,137.86l.27-1.29c1.74.43,1.37.9-.27,1.29Z" fill="#cbc9c3"/><path d="M33.35,86.79l-7.98-1.42-2.22-2.3c-.73-1.81-3.53-3-5.6-2.47l.81,3.35-.04,3.84-.93.75c-1.01-4.08-2.61-12.92-3.29-17.12,0,0,7.89,2.05,7.89,2.05l1.48-5.47,1.72.25c.49.01.85-1.38.85-1.87l1.1,2.66,4.18.97,2.02,16.78Z" fill="#f8f7f5"/><path d="M23.32,64.35l.16,3.65-1.48,5.47-7.89-2.05-.91-5.69,3.12-.62c.72-.2.96-1.77,1.17-2.47l5.84,1.7Z" fill="#f8f2e7"/><path d="M13.31,56.03c-.42-.58-1.27-2.15-1.21-2.93.83-.19,4.58-2.47,5.17-1.45,0,0-.47,1.95-.47,1.95-.14.58-.46,2.32-1.04,2.34l-2.45.09Z" fill="#ece1cf"/><path d="M21.38,100.17l-2.17-.07-.1-2.75,1.32-.1c.3.64.93,2.12.95,2.93Z" fill="#f8f7f5"/><polygon points="20.09 94.4 18.29 94.44 18.28 90.58 19.24 90.63 20.09 94.4" fill="#f8f7f5"/><path d="M20.09,94.4l.34,2.84-1.32.1c-.32-.72-.82-2.12-.83-2.91l1.8-.03Z" fill="#f1ede4"/><path d="M19.24,90.63l-.97-.04.02-.97c.26.23.88.68.95,1.01Z" fill="#f1ede4"/><path d="M80.16,110.71c2.84-.27,6.8,1.67,9.39,2.72.42.98,1.41,2.6,1.56,3.65,0,0-1.1,7.09-1.1,7.09-.69,4.41-8.62,9.57-10.88,10.09l-9.34,2.14s-11.01.27-11.01.27c-8-.94,1.2-37.71,17.69-31.38,0,0,.95,5.89.95,5.89l2.73-.46ZM63.31,114.48c-2.9,2.18-4.14,9.07-5.2,12.3.11.9,2.37,1.28,2.15.16l2.44-7.48,1.84-4.56c3.9-1.86,2.5-6.59,8.02-7.35v-.97c-6.1,0-8.24,4.25-9.23,7.9ZM77.18,116.96c-.47.14-.12,2.14.33,1.98l1.65-.61c.46-.17.48-2.09.02-1.95l-2,.59ZM70.24,118.49c-.23-.26-2.42.3-2.44.81l-.08,2.14c2.03-.63,3.34.16,2.53-2.95ZM89.46,118.95h-2.17c-.59,3.24,2.76,3.25,2.17,0ZM84.2,128.36l3.4-5.56-5.6,3.2,2.2,2.35ZM63.51,135.81c5.1-.02,13.82-4.34,18.47-6.06,0,0-2.11-1.6-2.11-1.6l-6.28,3.37c-2.19.87-8.33,2.45-10.08,4.29ZM62.32,130.73c-.18-.65-2.91-.52-2.83.11.14,1.08,3.17,1.13,2.83-.11Z" fill="#db5130"/><path d="M88.52,108.78c.85-3.08.81-3.77.35-3.57l-3.28,2.69c-.14-.77.34-3.83,1.07-3.95l6.93-1.1-2.51,5.89c-1.4.02-3.76.05-2.55.03Z" fill="#965d2f"/><polygon points="83.44 104.18 84.53 108.74 79.31 107.72 77.61 104.44 83.44 104.18" fill="#aaae63"/><path d="M90,112.07l-.02-1.26.02,1.26Z" fill="#4c3928"/><path d="M90.33,115.03l-.78-1.6c.27.11.69,1.35.78,1.6Z" fill="#4c3928"/><path d="M21.96,107.78l.73,2.9c-.85.12-2.69.28-3.56.34.07-.62.14-2.2.16-2.84,0,0,2.67-.4,2.67-.4Z" fill="#f8f7f5"/><path d="M21.4,105.55c-1.48-.29-1.28-.25.1-.63l-.1.63Z" fill="#f8f7f5"/><path d="M62.34,55.51c.1.4-1.06,2.42-1.79,2.54l-6.55,1.04c-.58.27-1.22.57-1.11.9-7.96.16-11.57-4.51-17.44-2.76-1.31-.14-4.6-.53-5.89-1.21l-5.92-3.14-1.65-3.81,1.03-1.68.8.16c.76,2.03,5.4,4.46,7.1,5.67,2.02,1.32,4.02,1.33,6.78.49l9.52,3.09c1.67.54,5.89-1.47,7.66-1.48l7.46.17Z" fill="#cbc9c3"/><path d="M21.82,47.28l1.21.12-1.03,1.68-3.97,1.07c1.03-1.65,2.59-2.99,3.79-2.87Z" fill="#a9aaaa"/><path d="M33.35,86.79l.04.88,2.92,25.07.7,6.1c-2.71,1.3-6.44-.24-7.04-3.43l-2.79-14.83-1.82-15.22,7.98,1.42Z" fill="#f8dfbd"/><path d="M34.1,125.3c1.22.72,3.68,1.3,5.12,1.27l.11,2.8-6.6-2.03c-.34-.1-.88-1.6-.99-1.95l2.36-.08Z" fill="#565552"/><path d="M23.15,83.07l-4.79.88-.81-3.35c2.07-.53,4.86.65,5.6,2.47Z" fill="#a9aaaa"/><path d="M26.05,65.25c.03.8.04,2.73-.84,2.99,0,0-1.72-.25-1.72-.25l-.16-3.65,2.73.9Z" fill="#ece1cf"/><path d="M54.3,132.12l.46,2.74-4.82-.06c-9.9.06-20.99-2.1-26.85-9.89l1.34-1.61c7.15,8.81,19.51,10.55,29.88,8.83Z" fill="#565552"/><path d="M28.08,138.01l-11.72-3.82c-.46-.15-1.86-2.33-1.68-2.31l14.55,4.48c.53.16-.5,1.87-1.15,1.65Z" fill="#686868"/><polygon points="21.18 110.87 23.31 120.76 20.96 120.58 19.13 111.03 21.18 110.87" fill="#686868"/><path d="M54.39,130.24c-1.41-.14-4.43-.55-5.76-.95,0,0,5.72-.41,5.72-.41,0,0,.05,1.35.05,1.35Z" fill="#565552"/><path d="M7.93,127.25c2.17,1.66,2.62,1.22.95-.95l1.23,1.74.47,1.45,1.69.97q-2.15-.03-1.31-.02c-1.04-.3-1.02-1.13-1.39-1.89,0,0-1.64-1.28-1.64-1.28Z" fill="#7b7c7d"/><path d="M93.24,127.95l.35-5.1c2.77,1.43,1.84,4.44-.35,5.1Z" fill="#5e5d5d"/><path d="M63.51,135.81c1.71-1.82,7.91-3.43,10.08-4.29,0,0,6.28-3.37,6.28-3.37,0,0,2.11,1.6,2.11,1.6-4.69,1.73-13.32,6.03-18.47,6.06Z" fill="#753d14"/><path d="M64.53,114.91l-1.22-.42c.99-3.65,3.14-7.91,9.24-7.9v.97c-5.52.76-4.12,5.49-8.02,7.35Z" fill="#f3ad9d"/><path d="M62.69,119.47l-2.44,7.48c.22,1.11-2.05.74-2.15-.16l2.38-8.08,2.21.77Z" fill="#edc393"/><polygon points="84.2 128.36 82.01 126 87.6 122.8 84.2 128.36" fill="#753d14"/><path d="M64.53,114.91l-1.84,4.56-2.21-.77c.4-1.36,1.9-3.36,2.83-4.22l1.22.42Z" fill="#753d14"/><path d="M70.24,118.49c.82,3.11-.5,2.32-2.53,2.95,0,0,.08-2.14.08-2.14.02-.51,2.21-1.07,2.44-.81Z" fill="#753d14"/><path d="M77.18,116.96l2-.59c.47-.14.45,1.78-.02,1.95l-1.65.61c-.45.17-.81-1.84-.33-1.98Z" fill="#753d14"/><path d="M62.32,130.73c.34,1.25-2.69,1.19-2.83.11-.08-.64,2.65-.77,2.83-.11Z" fill="#753d14"/><path d="M89.46,118.95c.59,3.25-2.76,3.24-2.17,0h2.17Z" fill="#753d14"/></g></svg>