<?xml version="1.0" encoding="UTF-8"?><svg id="Layer_2" xmlns="http://www.w3.org/2000/svg" viewBox="0 0 87.5 85.71"><g id="Layer_1-2"><path d="M68.07,9.1c.58,5.95-.67,16.12-1.4,22.02,0,0-.63,4.93-.63,4.93l-1.2-.84c.14-3.86,1.08-12.32,1.66-16.2-3.75,1.28-9.48,3.11-13.27,2.12,0,0-.03-2.41-.03-2.41l-12.06,1.05-16.13.07,1.88,1.77,17.89.27,6.84-.8.11,2.44s-5.94-.07-5.94-.07l-6.01.3c.2.63,1.51,2.58,2.19,2.79l6.79,2.09c2.19-1.19,7.71-4.01,9.85-5.16,0,0-2.01,15.06-2.01,15.06-3.15,1.27-7.52,1.75-10.96,2.09-9.02,1.09-17.84-.26-26.46-1.83,0,0-5.02-3.6-5.02-3.6l-.85,2.52-1.19,2.23c-.85-5.05-2.21-16.67-2.84-21.85-.12-.98,1.22-3.95,1.26-3.88-.49-2.33-.74-4.16-.32-6.33,1.73-1.1,6.02-2.81,7.97-3.5,0,0,4.82-1.14,4.82-1.14,0,0,2.03,4.04,2.03,4.04l-3.09.9s-7.78,3.8-7.78,3.8c.8,1.63.9,1.84.89,1.83,1.51-.87,5.63-3.19,6.91-4.25,0,0,10-1.19,10-1.19,3.64-.34,12.49.02,15.91-1.44-4.65-.99-9.15-1.33-13.83-.78,0,0-5.12.6-5.12.6l.58-2.38s.98-2.43.98-2.43l8.68-.52c10.32.33,20.62,1.21,28.91,7.69ZM63.61,13.75c.42.59-.48-2.78-1.18-3.05l-7.14-2.78c-.07.59-.22,1.97-.22,1.93,1.36.04,7.2,3.26,8.54,3.9ZM44.47,12.63l-9.98-.27c1.42,3.08,6.53,3.2,9.98.27ZM36.09,16.23l-7.69-2.52c.31-.34-.74.8-1.17,1.26l8.59,2.62.27-1.36ZM48.51,16.39c.48.03.81-1.24.88-1.72.05-.32-1.46-.86-1.68-.67-1.7,2.11-2.47,2.27.8,2.39ZM25.78,19.58l-9.17-3.51-1.83,1.51c4.18,1.98,6.35,3.35,11,2ZM61.66,16.43c-2.17-.17-4.97.96-7.14,2.72,2.36.44,4.67.91,7.14-2.72Z" fill="#f1ede4"/><path d="M12.26,56.99c1.94,1.4,5.16,8.98,6.32,11.13,3.59,10.86,23.15,9.83,32.11,7.29,6.94-1.36,9.41-10.32,12.34-15.67.41-.83,1.97-2.05,2.59-2.16l2.2,2.35.55,3.17,4.36-.39c4.62,2.9,3.25,8.08.08,11.66,0,0-4.35,2.62-4.35,2.62-15.23,9.17-49.45,9.59-64.23-3.21-2.05-1.78-3.24-6.5-1.76-8.75,3.09-4.68,6.11-5.05,6.72-7.63,0,0,3.06-.4,3.06-.4ZM12.35,75.13l-5.72-5.03c-.02,3.67,2.47,5.71,5.72,5.03ZM16.73,76.53l-.42,1.89,6.84,1.52.42-1.89-6.84-1.52Z" fill="#f1ede4"/><path d="M10.22,7.88c-.42,2.17-.17,4,.32,6.33-.04-.06-1.38,2.9-1.26,3.88l1.6,13.28c1.71,9.14,2.78,30.92,11.14,36.02,0,0,7.76,3.5,7.76,3.5,0,0-2.84,2.54-2.84,2.54,8.74,1.58,21.92,4.29,28.34-3.88.55-.88,1.19-2.86,1.49-3.8,1.23-.95,3.63-3.23,4.03-5.12l5.24-24.58c.86-5.69,1.79-15.62,2.26-21.43,0,0-.23-5.52-.23-5.52-.01-.34.39-.74.91-.91,2.43,3.23.86,6.05,1.04,10.49l3.65-.67.46,1.64s-4.07,1.07-4.07,1.07c0,0-.16,4.94-.16,4.94,11.76-7.25,14.83,10.43,7.42,16.17,0,0,1.29-3.99,1.29-3.99,1.03-3.19,1.67-8.02-.63-11.03-1.81-2.38-8.31-.03-8.75,2.69l-3.05,18.88c3.74-1.29,5.99-2.24,8.23-3.77l3.13-1.72c.4,1.93-5.45,6.67-11.92,7.37,0,0-.65,4.44-.65,4.44,11.5-2.25,18.47-8,20.25-18.85l1.7.36c-1.07,10.09-9.24,17.47-19.4,20.2-.06,0-1.24-.03-1.19-.1.09-.13-.73,1.3-.71,1.28-.63.11-2.19,1.33-2.59,2.16-2.95,5.32-5.39,14.33-12.34,15.67-9.6,2.54-18.99,2.54-28.14-1.77-1.89-.89-3.01-3.58-3.96-5.51l-4.11-8.31c-.41-.82-1.74-2.37-2.21-2.82,0,0-.25-6.17-.25-6.17l-3.11-19.05c-.82-4.91-1.53-15.96-1.84-21.01-.08-1.17,2.28-2.42,3.17-2.89ZM23.28,70.64l-.48.48.48.48.48-.48-.48-.48ZM25.35,71.98l-.63.1c.57.13,1.35.13,1.92,0-.32-.07-.96-.12-1.29-.1Z" fill="#514f4c"/><path d="M9.19,57.39c-.61,2.58-3.63,2.94-6.72,7.63-1.49,2.25-.29,6.98,1.76,8.75,14.78,12.81,49.01,12.38,64.23,3.21l4.35-2.62s.76,1.29.76,1.29c-4.13,4.97-14.92,8.21-22.83,9.23-13.38,2.68-58.28-.47-49.64-21.69,1.61-2.79,5.39-5.45,8.1-5.81Z" fill="#5e5d5d"/><path d="M68.98,8.2c-.51.17-.92.57-.91.91-5.56-4-12.06-6.61-19.26-7.07l-9.65-.61-8.68.52-2.95-.19.9-1.64c12.08.19,31.67-2.15,40.55,8.09Z" fill="#5e5d5d"/><path d="M86.91,36.2l-1.7-.36c.43-2.64.28-6.23-.21-9.2-.85-5.19-6.77-8.07-10.88-6.99,0,0-.46-1.64-.46-1.64,11.51-2.26,15.46,8.45,13.24,18.19Z" fill="#5e5d5d"/><path d="M21.97,9.56s-.02-1.38-.02-1.38c3.39-1.24,8.53-1.57,12.1-2.03,4.68-.55,9.18-.21,13.83.78-3.35,1.49-12.33,1.05-15.91,1.44,0,0-10,1.19-10,1.19Z" fill="#565552"/><path d="M73.57,75.66l-.76-1.29c3.17-3.58,4.55-8.76-.08-11.66,0,0,1.07-1.95,1.07-1.95,5.12,3.35,4.95,11.66-.23,14.9Z" fill="#686868"/><path d="M23.01,3.24l-4.82,1.14-5.01,1.93c-.22-.17.27-2.05.72-2.22l6.86-2.58c.36-.14,1.94.09,2,.45l.24,1.28Z" fill="#686868"/><path d="M67.51,56.4l3.97,2.93-3.67.59-2.2-2.35s.8-1.41.71-1.28c-.05.07,1.14.1,1.19.1Z" fill="#7b7c7d"/><path d="M51.5,56.91l-6.52-.85c-.94-.37-3.16-.76-4.19-.41l-3.52,1.57s-7.39-.32-7.39-.32c-.78-.03-2.87-1.06-3.22-1.24l-.29-4.11-.96-9.78c4.69-.22,22.44,3.74,24.38-1.62,4.45-.36,10.83-3.2,14.97-4.71,0,0-3.04,15.64-3.04,15.64-2.07,1.25-8.1,4.92-10.21,5.83ZM59.35,46.62c2.11-.87,3.26-3.39.35-5.32l-.35,5.32Z" fill="#965d2f"/><path d="M66.05,36.06l-5.24,24.58c-.4,1.89-2.81,4.18-4.03,5.12l-2.26.03-.92-2.37c-1.07,1.06-2.03,2.37-1.86,3.14l.58,2.22-4.46,1.32c-.04-2.33,1.08-4,3.4-5.83l.26-7.35c2.05-.87,8.21-4.62,10.21-5.83,0,0,3.04-15.64,3.04-15.64l-8.15,3.09,2.01-15.06c-2.15,1.09-7.64,4.03-9.85,5.16,0,0-6.79-2.09-6.79-2.09-.68-.21-1.99-2.16-2.19-2.79l6.01-.3c-.46,3.46,3.85,1.93,5.75,1.66.38-.07.19-1.2.19-1.59l-.11-2.44c2.78.1,6.33.69,9.38-.36,0,0,5.5-1.71,5.5-1.71-.58,3.93-1.54,12.3-1.66,16.2,0,0,1.2.84,1.2.84Z" fill="#ece1cf"/><path d="M25.49,39.85c-.24,3.86,1.09,11.99,1.16,15.82-1.81-.26-4.31-.88-5.98-1.53.11-2.36-1.22-12.81-1.5-15.35,0,0,6.31,1.06,6.31,1.06Z" fill="#d9b68b"/><path d="M19.18,38.79c.28,2.58,1.6,12.94,1.5,15.35,0,0-4.76-1.86-4.76-1.86-.8-4.18-1.56-10.45-2.61-14.57,0,0,.85-2.52.85-2.52l5.02,3.6Z" fill="#965d2f"/><path d="M53.25,21.13c-1.04-.31-7.29.68-8.45.75,0,0-17.89-.27-17.89-.27l-1.88-1.77,16.13-.07,12.06-1.05.03,2.41Z" fill="#5e5d5d"/><path d="M49.78,40.16c-1.97,5.37-19.69,1.39-24.38,1.62,0,0,.09-1.92.09-1.92,7.7,1.4,16.26,1.46,24.29.3Z" fill="#753d14"/><path d="M15.92,52.28l-1.75-.05-2.04-12.29,1.19-2.23.73,3.18c.43,2.8,1.38,8.63,1.88,11.39Z" fill="#cbc9c3"/><path d="M25.78,19.58c-4.64,1.35-6.82-.02-11-2l1.83-1.51,9.17,3.51Z" fill="#6f6e6e"/><path d="M63.61,13.75c-1.38-.65-7.15-3.85-8.54-3.9,0,.04.15-1.34.22-1.93l7.14,2.78c.7.27,1.6,3.65,1.18,3.05Z" fill="#6f6e6e"/><path d="M44.47,12.63c-3.45,2.93-8.56,2.81-9.98-.27l9.98.27Z" fill="#7b7c7d"/><path d="M36.09,16.23l-.27,1.36-8.59-2.62c.43-.46,1.49-1.6,1.17-1.26l7.69,2.52Z" fill="#cbc9c3"/><path d="M21.95,8.18l.02,1.38c-1.24,1.03-5.45,3.42-6.91,4.25,0,.01-.09-.2-.89-1.83l7.78-3.8Z" fill="#7b7c7d"/><path d="M61.66,16.43c-2.47,3.63-4.78,3.16-7.14,2.72,2.17-1.76,4.97-2.89,7.14-2.72Z" fill="#686868"/><path d="M51.74,23.53c0,.39.19,1.52-.19,1.59-1.35.25-3.82.86-5.14.33-.53-.28-.66-1.38-.61-1.99l5.94.07Z" fill="#cbc9c3"/><path d="M48.51,16.39c-3.28-.12-2.5-.28-.8-2.39.22-.19,1.73.35,1.68.67-.07.48-.41,1.75-.88,1.72Z" fill="#a9aaaa"/><rect x="18.97" y="74.73" width="1.94" height="7.01" transform="translate(-60.76 80.7) rotate(-77.46)" fill="#686868"/><path d="M12.35,75.13c-3.25.68-5.74-1.36-5.72-5.03l5.72,5.03Z" fill="#5e5d5d"/><path d="M15.92,52.28c3.16,1.26,7.33,2.98,10.73,3.39.35.18,2.44,1.2,3.22,1.24l7.39.32,6.73.03s.98-1.19.98-1.19l6.52.85-.26,7.35c-2.31,1.83-3.44,3.5-3.4,5.83l-8.19,1.38-1.77,1.62,7.76-.17s.24,1.8.24,1.8c-6.49.7-12.9.12-18.96-1.29l2.84-2.54c-9.42-4.11-11.09-4.09-14.45-14.67,0,0-1.17-3.98-1.17-3.98l1.75.05Z" fill="#f6f1e7"/><path d="M74.12,19.65c10.19-1.37,12.31,7.8,11.09,16.19-1.79,10.85-8.75,16.6-20.25,18.85l.65-4.44c6.99-1.04,13.03-5.35,11.7-8.42,4.34-3.54,5.56-11.45,1.82-16.19-2.01-2.56-6.5-1.73-9.24.02l.16-4.94,4.07-1.07Z" fill="#efeadf"/><path d="M77.31,41.82l.22,1.05-3.13,1.72c-2.25,1.52-4.49,2.47-8.23,3.77l3.05-18.88c.44-2.72,6.94-5.07,8.75-2.69,3.18,4.46.82,10.5-.66,15.02Z" fill="#efede9"/><path d="M56.77,65.76c-.3.94-.94,2.91-1.49,3.79l-1.77-.75-1.21-.03-.58-2.22,2.78-.76,2.26-.03Z" fill="#f6f1e7"/><path d="M45.89,74.72l-.24-1.8c3.44-.08,8.12-1.61,7.86-4.12l1.77.75c-1.74,2.8-6.02,4.81-9.39,5.17Z" fill="#ece1cf"/><path d="M25.35,71.98c.33-.02.97.03,1.29.1-.57.13-1.35.13-1.92,0,0,0,.63-.1.63-.1Z" fill="#f6f1e7"/><rect x="22.94" y="70.78" width=".68" height=".68" transform="translate(-43.47 37.29) rotate(-45)" fill="#f6f1e7"/><path d="M44.98,56.06l-.98,1.19-6.73-.03,3.52-1.57c1.04-.35,3.25.04,4.19.41Z" fill="#4c3928"/><path d="M59.35,46.62l.35-5.32c2.91,1.93,1.76,4.45-.35,5.32Z" fill="#4c3928"/><path d="M54.51,65.79l-2.78.76c-.16-.77.8-2.07,1.86-3.14l.92,2.37Z" fill="#6f6e6e"/><path d="M52.3,68.77l1.21.03c-.33,5.07-11.63,4.04-15.62,4.29,0,0,1.77-1.62,1.77-1.62l8.19-1.38,4.46-1.32Z" fill="#5e5d5d"/></g></svg>