<?xml version="1.0" encoding="UTF-8"?><svg id="Layer_2" xmlns="http://www.w3.org/2000/svg" viewBox="0 0 106.83 151.17"><g id="Layer_1-2"><path d="M87.58,67.86l-.28,7.07c29.82-8.37,21.07,36.48,3.12,41.42-1.98.62-10.6,3.62-12.52,3.77,0,0-1.98.34-1.98.34,0,0-2.43,3.19-2.43,3.19l-1.05-1.26c4.82-9.98,9.09-21.67,9.47-32.56.39-.03,1.04-.75,1.09-1.13.41-3.04,1.76-12.9,2.02-15.81,0,0,.54-5.28.54-5.28l2.03.25ZM94.6,103.84c1.73-6.28,5.88-15.93,1.22-20.04-2.52-2.35-8.12-.46-10.56,4.41l-5.41,22.06c4.71-.4,8.82-2.84,12.66-5.17-1.97,5.4-7.55,6.56-13.8,7.25,0,0-1.72,5.86-1.72,5.86,5.95-1.25,11.3-2.43,16.03-5.69,14.57-10.04,15.11-32.57,4.72-36.25-3.88-1.37-8.21-.48-11.38,1.7l.15,4.93c2.37-1.05,5.16-1.96,7.21-1.98,8.53-.09,7.09,19.2.88,22.93Z" fill="#565552"/><path d="M80.68,119.54l-.87,1.92-1.26.04c-.35.01-.51,1.76-.35,1.91l2.83.94c-.04.29-.04,1.85.49,1.88l2.27.16,2.57,4.78c-.77,5.61-6.41,11.27-11.46,10.41l5.79-4.87c.86-.72,1.43-3.6,1.16-4.58-4,8.41-17.56,10.72-28.47,11.97-.72.08-2.58,1.15-2.15,1.86l-9.9-.04-.5-1.58c-2.54-.4-7.72-.83-10.29-.9,0,0,.54-3.79.54-3.79,7.71,2.89,27.17,2.2,35.08-3.91.38-1.05,1.16-3.56,1.76-4.39,1.6-2.24,6.32-8.84,7.97-10.9,0,0,.6,2.34.6,2.34l1.39-2.68,2.78-.58Z" fill="#ece1cf"/><path d="M1.98,127.62s1.45.74,1.45.74c-2.22,2.71-.55,7.6,2.23,9.87,13.32,10.39,38.6,12.41,55.23,8.28,3.39-.95,9.34-.82,11.68-4.08,0,0-12.27,2.65-12.27,2.65l-9.03.89c-.43-.71,1.43-1.78,2.15-1.86,10.91-1.25,24.46-3.56,28.47-11.97.27.99-.3,3.86-1.16,4.58l-5.79,4.87c5.05.86,10.69-4.8,11.46-10.41l-2.57-4.78c1.7-4.1,7.59,5.83,2.05,11.67-4.36,5.02-11.87,7.46-18.03,9.57,0,0-13.79,2.54-13.79,2.54-11.1,2.55-23.69-.35-34.6-2.81,0,0-8.91-3.48-8.91-3.48-6.16-2.15-13.15-9.83-8.55-16.26Z" fill="#565552"/><path d="M47.69,32.16c-2.14.92-4.77,3.7-6.5,5.39-.91.93-6.28,6.12-6.94,7-.26.29-1.87-.04-1.73-.4l1.24-3.11c-2.88-.92-6.33,1.33-8.06,4.46-7.27-1.7-12.7,3.32-10.06,11.22,0,0-4.85,1.02-4.85,1.02,0-.65.14-.84,1.74-3.21,0,0-1.19-1.54-1.19-1.54l-8.74,6.28-1.46.03c.41-.94,1.31-3.32,2.25-3.84l9.2-5.07c3.92-9.02,8.87-5.14,15.07-10.17,2.97-2.23,8.37-.86,14.16-5.46l1.6-5.45s4.25,2.84,4.25,2.84Z" fill="#5e5d5d"/><path d="M87.58,67.86c-.82-.1-2.52-.28-3.27-.6-.47-.13-.6-1.73-.33-2.18,0,0,2.25-3.71,2.25-3.71-1.04-1.69-3.12-4.11-4.87-5.83,0,0-1.58,1.5-1.58,1.5l.05,2.3-3.4-.8c-.75-2.58-.47-6.62-2.22-8.73-2.61-2.66-7.48-3.35-10.72-2.01-.15-4.8-4.17-8.46-8.92-8.6l-2.52-3.33c6.36,1.92,8.4,1.94,12.71,7.8.77.99,3.77,1.46,5.43,1.7,3.45.5,5.31,4.16,7.73,6.19,8.27,5.18,11.26,5.04,9.66,16.3Z" fill="#5e5d5d"/><polygon points="2.62 59.27 3.39 64.44 2.74 71.45 4.8 85.13 6.04 92.74 3.96 92.72 0 61.97 1.16 59.31 2.62 59.27" fill="#2e2f30"/><path d="M6.04,92.74c2.44,12.14,6.55,25.21,14.53,35.39,2.18,2.62,2.69,5.62,5.02,7.6,3.95,1.69,9.58,3.29,13.92,3.43l8.42.27c6.17-.68,13.32-.99,17.29-6.92,0,0,7.22-10.13,7.22-10.13l1.05,1.26s-5.54,7.71-5.54,7.71c-.6.83-1.38,3.34-1.76,4.39-11.55,7.76-31.31,6.69-42.26,1.22-1.55-.58-2.71-4.19-3.65-5.6,0,0-6.17-9.27-6.17-9.27l-2.51-.51-.16-.9c1.44-2.36-7.08-25.14-7.49-27.95,0,0,2.07.02,2.07.02Z" fill="#514f4c"/><path d="M49.84,14.51c2.21,3.23,1.88,8.92-1.15,12.32-.32.36-.81-1.42-.57-1.92,4.61-10.18-4.88-9.88-1.17-18.73,0,0,2.42-6.17,2.42-6.17,4.01,3.85-4.52,7.22.46,14.51Z" fill="#5e5d5d"/><path d="M52.05,35.88l2.52,3.33c.38,1.41.21,4.36-.5,5.87-.62,1.34-3.36,2.2-4.71,2.77l-.05-1.2.7-1.74,1.53-.34c.73-.16,1.58-5.19-.74-7.67l-.09,6.8-1.56-.08c-.43-2.47-.82-3.86-1.58-5.73l-1.44-4.87,1.55-.87c1.37.75,3.28,2.3,4.36,3.72Z" fill="#4c3928"/><polygon points="45.28 23.92 43.38 24.3 41.53 17.95 40.94 13.67 42.86 13.42 44.05 19.02 45.28 23.92" fill="#7b7c7d"/><path d="M56.51,16.19c1.57,3.16,1.05,7.75-2.51,9.43,1.14-3.84,1.51-7.15.07-10.85-.36.09,1.23-1.01,1.39-.69l1.05,2.11Z" fill="#6f6e6e"/><path d="M11.45,120.68l.16.9-1.36,1.23c-2.35,1.51-5.16,3.51-6.83,5.55l-1.45-.74c.56-.85,1.85-2.99,2.84-3.57l6.63-3.37Z" fill="#6f6e6e"/><path d="M79.82,121.46l1.23,2.89-2.83-.94c-.16-.15,0-1.9.35-1.91l1.26-.04Z" fill="#686868"/><path d="M92.5,105.1c8.25-2.49,10.46-23.83,1.21-24.19-2.05.02-4.84.94-7.21,1.98l-.15-4.93c20.33-11.54,25.74,21.63,6.65,34.55-4.73,3.26-10.08,4.44-16.03,5.69l1.72-5.86c6.25-.69,11.83-1.86,13.8-7.25Z" fill="#efeadf"/><path d="M94.6,103.84c-4.59,2.7-9.18,5.94-14.76,6.43,0,0,5.41-22.06,5.41-22.06,2.44-4.87,8.04-6.76,10.56-4.41,4.65,4.12.51,13.77-1.22,20.04Z" fill="#efede9"/><path d="M81.92,92.86c-1.66,9.68-4.81,20.55-9.48,29.53l-7.22,10.13c-2.7,3.78-6.75,5.64-10.83,6.14,0,0,.09-1.29.09-1.29l4.98-1.45.09-1.86s-4.71.98-4.71.98c0,0,1.84-1.24,1.84-1.24,12.08-4.9,17.07-16.54,19.51-28.44.13-.42,1.13-3.42,1.02-3.81.34-.09.77-.77.78-1.18,0,0,.01-1.89.01-1.89.19.37.79-.84.86-1.16l1.14-4.58-.07-2.09.88-.15s1.13,2.35,1.13,2.35Z" fill="#cbc9c3"/><path d="M85.56,67.61l-.54,5.28-1.6-3.01-3.86,1.31-.32,2.63-1.38-.04-2-2.07,2.91-1.39c.5-.23-.55-2.27-.93-2.17l-2.48.88.83-2.37c.66-.15,2.65-1.56,2.23-2.32l-1.98-3.64v-2.14s3.4.8,3.4.8l.76.74c.26.25,1.61-.22,1.45-.54s-.66-1.31-.92-1.53l-1.35-.96,1.58-1.5c1.75,1.71,3.83,4.14,4.87,5.83l-2.25,3.71c-.27.45-.14,2.05.33,2.18l1.24.35Z" fill="#f6f1e7"/><path d="M85.02,72.89c-.26,2.91-1.61,12.76-2.02,15.81,0,0-2.05.16-2.05.16.11-.82.02-2.46-.58-3.02l-1.62-1.53,1.55-9.15-1.07-1.34.32-2.63s3.86-1.31,3.86-1.31l1.6,3.01Z" fill="#ece1cf"/><polygon points="77.9 120.12 76.52 122.81 75.92 120.46 77.9 120.12" fill="#f8f7f5"/><path d="M81.92,92.86c-.17-.52-1.44-2.46-1.1-3.04,0,0,1.08,0,1.08,0l.02,3.03Z" fill="#ece1cf"/><path d="M83,88.7c-.05.39-.71,1.1-1.09,1.13h-1.08s.13-.97.13-.97l2.05-.16Z" fill="#cbc9c3"/><path d="M31.11,139.66l-.54,3.79c-2.71-.42-9.94-2.4-12.68-3.14,0,0-8.31-3.75-8.31-3.75l-.69,1.1s8.68,4.22,8.68,4.22l11.31,2.97c2.88.29,9.66.99,12.49,1.08,0,0,9.9.04,9.9.04l9.03-.89,12.27-2.65c-2.28,3.25-8.32,3.14-11.68,4.08,0,0-3.15-.09-3.15-.09,0,0-.94,1.16-.94,1.16-15.58,2.23-39.08.53-51.14-9.34-2.77-2.27-4.45-7.16-2.23-9.87,2.01-2.62,5.71-4.48,8.19-6.79,0,0,2.51.51,2.51.51l6.17,9.27c.94,1.41,2.09,5.02,3.64,5.6l7.17,2.69ZM8.46,136.46c.04,1.12.03.93-.05-1.23l.05,1.23Z" fill="#efeadf"/><path d="M30.57,143.45c2.58.07,7.75.5,10.29.9,0,0,.5,1.58.5,1.58-2.8-.09-9.63-.77-12.49-1.08,0,0-11.31-2.97-11.31-2.97l.32-1.57c2.77.76,9.94,2.7,12.68,3.14Z" fill="#5e5d5d"/><polygon points="60.88 146.51 56.79 147.58 57.73 146.42 60.88 146.51" fill="#ece1cf"/><path d="M46.15,33.03c.91,3.55,2.39,6.77,3.02,10.59,0,0,1.56.08,1.56.08,0,.28-.53,1.12-.71,1.21l-.7,1.74-5.05.61c-.43.06-1.24,1.51-.91,1.8s1.92,1.07,2.26.88l3.74-2.09c5.14-1.61,5.86-3.62,5.21-8.65,4.75.14,8.77,3.81,8.92,8.6l-3.6,5.47c-1.52,2.21-1.54,1.91,1.2,1.02,0,0,6.49-1.51,6.49-1.51.5-.87.49-4.07.09-5.74,5.07.52,8.26,3.03,8.18,8.49,0,0-.95.21-.95.21-2.05-.56-4.49.43-5.54,2.37l-6.05.83s-.02-1.33-.03-1.68c0-.29-.99-.62-1.3-.61-2.21.44-.9,1.33-.41,2.55,0,0,0,3.62,0,3.62l-1.75,2.86-2.86.87-2.22,1.45s-4.49-.21-4.49-.21l-1.17-2.12c-.36-.53-.84,2.69-.6,2.56,0,0-1.66.73-1.66.73-.6.26-.48,2.23-.2,2.8,0,0-11.78.14-11.78.14-.23-.63.85-2.5,1.55-2.58l4.15-.49,3.8.11c.19-.37-.31-2.61-.84-2.68l-2.84-.36c-.48-.06-1.19-.74-1.43-1.01,3.73-.49,9.14-.43,12.93-2.66,0,0-11.53.4-11.53.4-3.14.11-2.58-4.38-7.96-3.15l-.36,2.2-4.67-1.2-8.9-4.49.77,3.29-3.87-.44c-.55-.06-1.4,2.12-1.26,2.07l-3.57-.66-.02-2.53,4.85-1.02c-1.19-4.5-.83-7.29,1.81-9.78,1.99-1.88,5.57-1.94,8.25-1.44,1.72-3.13,5.18-5.38,8.06-4.46l-1.24,3.11c-.14.36,1.47.69,1.73.4.67-.89,6.05-6.1,6.94-7,1.08-1.01,3.79-3.82,4.95-4.52ZM43.1,42.09l-3.26.25c-.88.07-1.13,2.97-.26,3.02.74.04,2.29-.14,2.91-.46.51-.26,1.17-2.86.62-2.82ZM59.14,47.31c1.1-.66-1.63-4.24-2.67-3.38-1.3,1.08.92,3.96,2.67,3.38ZM22.06,50.6l.55,2.17c.48,1.89,4.15-1.05,6.15-.23l5.09,2.09c5.59,2.29,9.41-2.79,11.51-.43l1.73,4.13c.37.61,2.89.98,3.14.32l.93-2.42c.2-.51-.14-2.44-.68-2.56l-2.08-.46-.84-1.57c-.17-.31-1.79.21-2.24.21-3.47.04-10.48-.3-13.95-.63-2.15-.16-4.45-1.62-5.86-1.31-.96-1.33-2.3-2.07-3.98-2.56,0,0,.53,3.26.53,3.26ZM53.73,61.43l-.63.1c.57.13,1.35.13,1.92,0-.32-.07-.96-.12-1.29-.1Z" fill="#efeadf"/><path d="M10.8,57.75c.16,1.53-.27,5.03-.52,6.57-.09.69,3,.48,3.26-.17l.85-3.21c-.14.05.71-2.13,1.26-2.07l3.87.44c3.66,1.74,8.43,3.28,12.63,4.14l7.08,1.46c.24.27.96.95,1.43,1.01,0,0-.12,2.93-.12,2.93l-4.15.49c-.7.08-1.78,1.95-1.55,2.58l-9.1-1.13c-1.2-.03-2.59,1.91.58,1.52l.31,3.21-4.4-.77-.63-2.57-8.77-2.08,1,2.18,4.88,1.85c-.14,2.9-.69,2.73,2.48,4.11,0,0,.35,12.1.35,12.1-1-.48-4.75-.54-5.88-.59,0,0-1-.07-1-.07l-.69-1.84-.99-8.48s-3.03.31-3.03.31c-1.27.76-.78,4.29-.98,5.63,0,0-1.94-.24-1.94-.24,0,0-2.25.07-2.25.07l-2.06-13.68.66-7.01-.78-5.17s8.74-6.28,8.74-6.28c0,0,1.19,1.54,1.19,1.54-1.6,2.37-1.74,2.57-1.74,3.21ZM24.83,65.45c.04-2.63-4.09-2.63-4.05,0-.04,2.63,4.09,2.63,4.05,0Z" fill="#faf7f1"/><path d="M67.66,47.05c.4,1.68.42,4.87-.09,5.74l-6.49,1.51c-.59.14-2.58,1.02-2.26.55.71-1.02,3.92-5.91,4.67-7.04.74-.24,3.06-.78,4.17-.76Z" fill="#6f6e6e"/><path d="M76.43,58.55v2.14s-3.15.25-3.15.25l-.08-1.78c.63-.26,1.48-.53,1.58-1.06l.1-2.35.95-.21.6,3.01Z" fill="#cbc9c3"/><path d="M79.84,59.35l-.05-2.3,1.35.96c.26.23.75,1.21.92,1.53s-1.19.79-1.45.54l-.76-.74Z" fill="#cbc9c3"/><path d="M7.05,85.06c.55,1.79,1.25,8.63,1.47,10.6,0,0-1.75.42-1.75.42-.59-2.15-1.61-8.67-1.98-10.95,0,0,2.25-.07,2.25-.07Z" fill="#f6f1e7"/><path d="M25.15,129.8s.29,2.31.29,2.31-2.01.72-2.01.72c-.55-1.28-1.77-3.09-2.86-4.7-7.19-9.17-11.46-21.18-13.79-32.05,0,0,1.75-.42,1.75-.42,2.79,11.92,7.87,27.59,16.63,34.14Z" fill="#cbc9c3"/><path d="M49.31,46.65l.05,1.2-3.74,2.09c-.35.19-1.94-.59-2.26-.88s.48-1.74.91-1.8l5.05-.61Z" fill="#965d2f"/><path d="M50.02,44.91c.17-.09.7-.93.71-1.21l.09-6.8c2.31,2.48,1.47,7.51.74,7.67l-1.53.34Z" fill="#d09256"/><path d="M80.37,85.84c1.01,1.17.45,3.29.42,4.67,0,0-.88.15-.88.15l-2.88.96-6.35,25.37.72,2.73c-3.44,8.05-9.15,11.04-16.59,15.33-.49-.09-2.27-.05-2.79-.06,0,0-.85-.99-.85-.99h-13.46s-.67.97-.67.97c-1.35-.77-10.21-4.52-11.89-5.16-10.36-8.3-16.24-27.82-17.53-42,2.24.56,5.77,1.81,8.06,1.96-.07.98-1.08,2.6-1.03,4.2,0,0,2.46,10.88,2.46,10.88,1.64,7.25,6.29,18.51,10.44,19.22.67.11,1.7-1.93,1.48-2.72l-4.3-15.74s-1.84-12.59-1.84-12.59c0,0-2.13-1.09-2.13-1.09,0,0-.75-1.97-.75-1.97.41.3,13.96,2.51,14.81,2.69,0,0,13.44.33,13.44.33l13.34-1.34s10.94-2.91,10.94-2.91c1.92-.78,5.87-2.24,7.83-2.9ZM67.55,114.88l-7.42,12.28c2.88.71,8.79-8.93,7.42-12.28ZM30.53,126.32l-.48.48.48.48.48-.48-.48-.48Z" fill="#d09256"/><path d="M79.91,90.66s.07,2.09.07,2.09c-1.68,1.81-2.15,5.2-2.02,7.63,0,0-.78,1.18-.78,1.18-.09.16,0,.49-.03.67-1.7,5.8-2.96,12-5.75,17.49,0,0-.72-2.73-.72-2.73l6.35-25.37,2.88-.96Z" fill="#753d14"/><path d="M54.47,137.36l-.45-2.37c.42.27,4.98-.85,5.51-.93,0,0-.09,1.86-.09,1.86l-4.98,1.45Z" fill="#565552"/><path d="M77.98,98.48c.01-1.76.83-4.52,2.01-5.74l-1.14,4.58c-.08.32-.67,1.52-.86,1.16Z" fill="#d09256"/><path d="M76.17,105.37l.99-3.15-.99,3.15Z" fill="#d09256"/><path d="M77.19,101.55l.78-1.18c0,.41-.44,1.09-.78,1.18Z" fill="#d09256"/><path d="M76.18,66.66s-.83,2.37-.83,2.37c0,0-1.34.42-1.34.42-2.69-.54-4.89,1.06-6.7,2.98l-14.01,2.41c-.45.08-1.65.88-1.28,1s2.05.77,2.43.71l12.93-2.11.99,2.43c.32.78-2.27,1.6-2.68,1.57-2.74.71-11.6,1.62-14.54,1.94-.58.06-2.57-.39-2.65-.96l-.33-2.3,2.32-1.92-22.14-1.16.1,1.68-1.83-.2s-.31-3.21-.31-3.21c-3.17.39-1.78-1.55-.58-1.52,0,0,9.1,1.13,9.1,1.13,5.74-.09,17.27-.19,22.99-.18,0,0,7.53-1.13,7.53-1.13.69-.1,2.49-1.64,2.15-2.21l-1.02-1.59c3.29.31,6.79-1.29,6.85-4.22,2.34.36,2.07,1.83,2.83,4.07Z" fill="#f8dfbd"/><path d="M76.44,60.7l1.98,3.64c.42.77-1.57,2.18-2.23,2.32-.75-2.25-.48-3.71-2.83-4.07l-.07-1.65,3.16-.25Z" fill="#565552"/><path d="M75.85,71.72l-1.66.12-.17-2.39c.84-.24,2.97-.99,3.82-1.3.38-.1,1.43,1.94.93,2.17l-2.91,1.39Z" fill="#5e5d5d"/><path d="M77.1,84.08l1.65.22,1.62,1.53c-1.98.66-5.9,2.11-7.83,2.9,0,0-1.28-3.9-1.28-3.9l5.84-.75Z" fill="#cbc9c3"/><path d="M78.75,84.3s-1.65-.22-1.65-.22c.27-2.93.5-7.38.75-10.29,0,0,1.38.04,1.38.04l1.07,1.34-1.55,9.15Z" fill="#565552"/><path d="M17.89,140.32l-.32,1.57-8.68-4.22-.42-1.21c.04,1.12.03.93-.05-1.23l1.16,1.34,8.31,3.75Z" fill="#7b7c7d"/><path d="M34.86,133.83c.49.21,1.66,1.13,2.19,1.13l14.98.02s2,0,2,0l.45,2.37s-.09,1.29-.09,1.29l-6.46.78c-7.09.02-15.87-.58-22.34-3.71-.74-.31-1.84-2.17-2.15-2.9,0,0,2.01-.72,2.01-.72l9.41,1.72Z" fill="#d9d8d5"/><path d="M59.82,65.71l1.67,2.24,3.07-2.07c.33.22,1.4.88,1.94.93l1.02,1.59c.35.57-1.45,2.11-2.15,2.21l-7.53,1.13-11.22.04c-.28-.57-.4-2.53.2-2.8l1.66-.73c1.14-.75,4.97-.22,6.26-.22.46.02,1.6,1.15,1.76.72l.46-2.16s2.86-.87,2.86-.87Z" fill="#faf7f1"/><path d="M48.4,53.21c-.58,1.59-1.8,1.21-3.04.99-2.09-2.36-5.92,2.72-11.51.43l-5.09-2.09c-2-.82-5.67,2.12-6.15.23,0,0-.55-2.17-.55-2.17,0,0,3.45-.7,3.45-.7,1.41-.31,3.71,1.15,5.86,1.31l7.26.53,6.69.11c2.41-.35,1.95-.84,3.08,1.36Z" fill="#7b7c7d"/><path d="M69.35,58.13l.77,1.61,3.09-.57c.03.85.11,2.57.15,3.43.06,3.48-5.85,5.61-8.79,3.29,0,0-.84-2.56-.84-2.56-.15-.47-1.83-.46-2.15-.48v-3.62c1.12-.2,6.53-.93,7.77-1.1Z" fill="#f6f1e7"/><path d="M40.64,62.66l.07,2.1-1.46.15-7.08-1.46c.05-.97.34-2.98.52-3.95,5.37-1.23,4.82,3.26,7.96,3.15Z" fill="#965d2f"/><path d="M32.32,61.71l-.16,1.74c-4.2-.87-8.98-2.41-12.63-4.14l-.77-3.29,8.9,4.49,4.67,1.2Z" fill="#aaae63"/><path d="M45.36,54.2c1.24.22,2.47.6,3.04-.99,0,0,2.08.46,2.08.46.54.12.87,2.05.68,2.56l-.93,2.42c-.25.66-2.77.29-3.14-.32l-1.73-4.13Z" fill="#5e5d5d"/><path d="M40.71,64.76l-.07-2.1,11.53-.4c-3.12,1.95-8.48,2.19-11.47,2.5Z" fill="#aaae63"/><path d="M14.39,60.94l-.85,3.21c-.26.66-3.35.86-3.26.17l.53-4.04,3.57.66Z" fill="#965d2f"/><path d="M74.88,55.76l-.1,2.35c-.4,1.22-3.61,1.34-4.67,1.63,0,0-.77-1.61-.77-1.61,1.05-1.94,3.49-2.93,5.54-2.37Z" fill="#6f6e6e"/><path d="M64.56,65.88l-3.07,2.07-1.67-2.24,1.75-2.86c.33.01,2,0,2.15.48l.84,2.56Z" fill="#965d2f"/><path d="M43.1,42.09c.55-.04-.11,2.56-.62,2.82-.62.31-2.17.5-2.91.46-.87-.05-.62-2.95.26-3.02l3.26-.25Z" fill="#6f6e6e"/><path d="M40.55,68.86l.12-2.93,2.84.36c.53.07,1.03,2.31.84,2.68l-3.8-.11Z" fill="#565552"/><path d="M59.14,47.31c-1.74.58-3.97-2.3-2.67-3.38,1.04-.86,3.77,2.71,2.67,3.38Z" fill="#aaae63"/><path d="M25.51,49.9l-3.45.7-.53-3.26c1.68.49,3.02,1.23,3.98,2.56Z" fill="#965d2f"/><path d="M63.3,58.96l-1.73.27-.85-1.65c-.21-.4.81-.87,1.26-.9.3-.02,1.29.31,1.3.61.01.34.04,1.67.03,1.68Z" fill="#d9b68b"/><path d="M56.96,66.58l-.46,2.16c-.15.43-1.3-.69-1.76-.72l2.22-1.45Z" fill="#7b7c7d"/><path d="M50.25,67.82c-.43-.02-1.37.26-1.77.44-.24.13.24-3.09.6-2.56l1.17,2.12Z" fill="#7b7c7d"/><path d="M53.73,61.43c.33-.02.97.03,1.29.1-.57.13-1.35.13-1.92,0,0,0,.63-.1.63-.1Z" fill="#aaae63"/><path d="M74.02,69.46s.17,2.39.17,2.39l-1.45,4.27,4.82,1.26s-.08,1.87-.08,1.87c-1.47-.08-4.61,1.11-5.84,2.13-1.37,1.8.33,5.5.9,7.35,0,0-10.94,2.91-10.94,2.91,0,0-13.34,1.34-13.34,1.34,0,0-13.44-.33-13.44-.33,0,0-13.26-2.29-13.26-2.29,0,0-.35-12.1-.35-12.1-.98-.48-2.58-1.09-2.61-1.64,0,0,.13-2.48.13-2.48,1.91.33,5.97,1.05,7.91,1.39.41.13,16.87,1.35,17.81,1.44,0,0,3.74.16,3.74.16l.33,2.3c.08.57,2.07,1.02,2.65.96l10.29-1.15,2.74,1.12c.68.17,1.39-1.41,1.51-1.92.41.03,3-.79,2.68-1.57l-.99-2.43s-.09-2.01-.09-2.01c1.81-1.92,4.01-3.52,6.7-2.98Z" fill="#f6f1e7"/><path d="M13.99,87.85l-5-2.55c.2-1.34-.29-4.87.98-5.63,0,0,3.03-.31,3.03-.31l.99,8.48Z" fill="#f6f1e7"/><polygon points="22.25 74.75 18.73 74.14 13.86 72.29 12.85 70.11 21.62 72.18 22.25 74.75" fill="#565552"/><path d="M8.99,85.31l5,2.55.69,1.84c-1.77-.44-5.31-1.39-7.06-1.9,0,0-.57-2.74-.57-2.74l1.94.24Z" fill="#965d2f"/><path d="M24.83,65.45c.04,2.63-4.09,2.63-4.05,0-.04-2.63,4.09-2.63,4.05,0Z" fill="#5e5d5d"/><polygon points="20.02 89.95 20.77 91.93 15.46 90.81 15.69 89.76 20.02 89.95" fill="#965d2f"/><polygon points="34.86 133.83 25.45 132.11 25.15 129.8 34.86 133.83" fill="#5e5d5d"/><path d="M20.77,91.93l2.13,1.09,1.84,12.59,4.3,15.74c.22.79-.81,2.83-1.48,2.72-4.16-.7-8.8-11.96-10.44-19.22l-2.46-10.88c-.15-.68.75-3.28.8-3.15l5.31,1.11Z" fill="#d9b68b"/><path d="M67.55,114.88c1.37,3.36-4.53,12.99-7.42,12.28l7.42-12.28Z" fill="#753d14"/><polygon points="52.03 134.98 37.04 134.96 37.71 133.98 51.17 133.99 52.03 134.98" fill="#965d2f"/><rect x="30.19" y="126.47" width=".68" height=".68" transform="translate(-80.72 58.73) rotate(-45)" fill="#d9b68b"/><path d="M48.19,77.13c-2.35.01-17.03-1.2-19.72-1.4,0,0-.1-1.68-.1-1.68l22.14,1.16-2.32,1.92Z" fill="#514f4c"/><path d="M67.31,72.44l.09,2.01-12.93,2.11c-.39.06-2.06-.59-2.43-.71s.82-.92,1.28-1l14.01-2.41Z" fill="#5e5d5d"/><path d="M65.71,78.45c-.12.51-.83,2.08-1.51,1.92l-2.74-1.12,4.25-.79Z" fill="#7b7c7d"/><polygon points="75.85 71.72 77.85 73.79 77.57 77.38 72.74 76.12 74.19 71.84 75.85 71.72" fill="#ece1cf"/><path d="M77.49,79.25l-.39,4.83-5.84.75c-.22-.7-.18-2.98.39-3.45,1.23-1.02,4.37-2.21,5.84-2.13Z" fill="#ece1cf"/></g></svg>