<svg xmlns="http://www.w3.org/2000/svg"
width="100%"
height="100%"
     viewBox="0 0 72.82 158.23"
     fill="black"
     stroke="currentColor"
     stroke-width="0.2"
     stroke-linecap="round"
     stroke-linejoin="round">

  <path
        d="M3.6,101.23c.89,15.59,2.08,34.88,3.29,50.52,3.96,8.85,27.43,5.76,35.63,6.48l11.1-2.04c1.75-.32,5.84-2.68,5.95-4.64,1.82-31.25,4.37-73.98,6.12-105.64.24-4.33-7.55-6.73-13.63-5.84,2.3-9.96,6.95-24.44,8.9-31.05l10.12-2.2c.99-.22,2.22-3.24,1.59-4.04l-2.14-2.76-3.87,1.48,4.08,1.24c.53.16.28,2.23-.26,2.36-1.75.23-8.28,2.9-8.9.08l1.89-3.05c-8.3-2.55-10.4,7.68-11.77,13.8l-5.76,22.31-8.33-.58c2.52-3.89,1.18-13.77,1.25-17.97-7.59,3.05-13.18,6.68-16.7,13.51-3.78-7.42-11-10.9-18.01-14.15-.46,6.25-1.14,15.43,2.74,20.96l-6.87,3.29c1.08,18.72,2.55,39.23,3.6,57.95ZM63.03,43.83l-12.19,2.6c.21-1.71.63-3.9,1.2-6.35l10.99,3.75ZM57.35,5.07l2.23-.12-1.37,2.68c-.19.38-1.59-.08-1.48-.48l.61-2.08ZM45.96,44.78c2.08-7.52,6.95-26.3,8.94-34.08.87-2.03.61-2.56,3.46-.74-1.5,5.78-4.65,17.56-6.22,23.36-.35,1.22-3.12,12-3.65,12.82-.22.57-2.7-.75-2.54-1.35ZM48.32,47.98l-2.59,9.13-1.61,5.95c-3.06.62-2.72-1.76-2.21-3.97l3.29-11.05,3.11-.07ZM48.33,60.29l7.81,1.59c-3.67,1.5-6.6,1.79-10.26,1.64-.24-.66,1.58-3.41,2.45-3.23ZM32.67,75.4c1.41-4.23,8.98-8.31,12.98-4.96l4.76,3.25.38,3.37c.99,13.31-20.33,11.48-18.11-1.66ZM25.98,94.12c-12.34,2.96-15.83-16.3-3.74-18.17,10.26-.23,15.31,14.72,3.74,18.17ZM45.23,40.05l-1.26,6.39-9.54-.19,4.66-5.84,6.14-.36ZM37.82,40.52l-6.16,5.17c-1.14.96-5.04.63-6.65.17,2.92-3.96,7.3-6.64,12.81-5.34ZM29.81,48.27l-4.38,3.62-.77-4.17,5.15.55ZM27.68,40l4.98-3.52-1.6-1.8,5.59-10.95c1.76,6.98,1.09,17.13-8.98,16.27ZM33.57,24.48c.8-.39,1.01-.17.69.4l-4.27,7.83c-.24.3-.47.59-.63.79.11-.13.24-.3.46-.57l-2.2-2.5-.04,6.57-3.86,7.51c-2.45-9.26.98-15.36,9.85-20.02ZM29.28,33.6c-.13.17-.16.2,0,0h0ZM23.78,50.86l1.04,4.32,7.56-7.18,10.41.47-2.6,10.66-6.47.7c-5.52.6-6.76-2.19-12.63-.51-2,.57-3.44.56-5.89.17-5.38-.86-8.72,2.98-10.05,3.29-.08.02.83,1.03,1.07,1.29,7.57-4.46,11.18-1.14,13.63-2.28,4.23-2.12,9.29-.28,13.39,1.1,1.27.29,8.74,1.93,9.83,2.19,1.61,3.65-12.22.97-12.42,12.11-13.32-9.17-23.1,4.7-15.02,16.55,4.37,1.87,7.49,3.83,12.93,1.4,0,0-3.58,12.51-3.58,12.5-.83,4.56,5.66,5.17,6.69,1.48,0,0,4.43-14.98,4.43-14.98.33-2.38.08-3.17-1.62-.77-.4,1.25-4.61,15.35-5.05,16.06-2.22,1.5-2.81-1.1-2.45-2.82,1.49-5.3,5.42-15.7,8.21-20.41,6.35,2.47,11,3.78,15.68-2.41,4.21-7.27,2.23-11.55-4.79-15.39-4.72-4.18,5.57-3.18,7.35-3.65l7.59-1.83c-4.08-2.78-7.68-3.97-13.69-4.61l3.13-10.56,13.2-1.87c-1.68,32.37-4.02,73.51-6.05,105.6-7.52,6.87-25.05,4.34-34.36,4.85-4.72-.73-10.89-1.64-14.86-4.49-.19-3.12-.64-15.75-1.47-18.6,0,0-.17-15.04-.17-15.04-.92-2.72-1.06-14.3-1.18-17.3-1.26-17.71-2.38-37.12-3.47-54.83,5.97.85,17.11.29,21.67,4.79ZM21.3,43.5l-2.92-3.21c-1.76-1.93-2.73-5.19-2.56-8.2-.08-1.73-1.23-2.07-1.9.84-.92.34-5.75-9.08-6.2-9.58,9.58,2.8,14.36,10.16,13.58,20.16ZM5.74,31.01l.15-7.55c.56,1.29,4.45,6.33,4.41,7.56l-1.34,1.21,6.04,4.85-2.4,1.26c-2.58-1.88-1.82.82-.72,1.04,4.07,1.05,6.44,2.67,8.57,6.32-7.46,2.55-14.83-8.27-14.7-14.7ZM10.18,44.84l-7.08-.83c2.61-1.38,4.85-3.28,7.08.83Z" />
    <path
        d="M16.78,136.97c4.78-1.84,8.92,5.51,18.33,4.45,21.5-2.58,23.74-31.52,5.54-39-4.6,9.52-10.61,22.7-17.96,30.39,14.64,15.75,37.17-10.37,21.79-22.36l3.23,10-12.62-.56c2.08-1.87,7.51-4.74,8.26-7.89l-7.26,4.1,5.6-11.38c11.23,6.14,12.34,24.73,1.86,31.57-13.96,9.5-29.74-2.88-28.58-19.29-5.37,6.07,4.11,13.41,1.81,19.97ZM32.54,135.94l-8.04-2.62,6.51-8.97,1.54-.12v11.71ZM35.35,121.93l11.97.18c.06,6.61-5.62,12.8-13.34,13.99l.02-13.07c2.06,1.7,6.43,7.28,9.48,7.39l-8.12-8.49Z" />
    <path d="M54.94,142.22c-14.03,4.76-29.96,5.62-43.65-.67,4.02,8.97,39.79,7.64,43.65.67Z" />
    <path
        d="M13.02,55.88c3.61.18,7.81-.63,10.21-3.49l-6.65-3.1-1.33.81,4.29,3.56c-3.08-.25-4.17-.67-7.15-2.37-.44-.26-2.1.6-1.38.78,2.43,2.05,1.94,1.68,2.01,3.81Z" />
    <polygon points="45.04 151.47 52.9 151.02 51.48 148.74 45.04 151.47" />
    <rect x="15.53" y="104.69" width="2.88" height="2.88" transform="translate(-1.34 .22) rotate(-.72)" />
    <path d="M51.96,97.54c.03-1.87-2.91-1.87-2.89,0-.03,1.87,2.91,1.87,2.89,0Z" />
    <path d="M15.09,151.21l4.15.38c-1.78-1.05-2.35-3.32-4.15-.38Z" />
    <path d="M23.68,118.9c-1.08-.92-1.71-1.46-1.6-1.37-1.93,2.49.23,3.27,1.6,1.37Z" />
    <path d="M15,70.04c-.13.57-.13,1.35,0,1.92.13-.57.13-1.35,0-1.92Z" />
    <path d="M47.64,139.16c.13-.57.13-1.35,0-1.92-.13.57-.13,1.35,0,1.92Z" />
    <path d="M26.21,80.88l-3.17-2.03c-.7,1.82,2.27,4.39,3.79,4.39,2.65-.93.48-1.57-.62-2.37Z" />
    <polygon points="27.91 92.3 30.1 88.43 26.39 89.87 27.91 92.3" />
    <path d="M21.27,88.32l.43,4.22c2.81-1.96,1.25-3.74-.43-4.22Z" />
    <path d="M41.91,74.84l.82-1.56.62-1.79c.14-.4-1.3-.85-1.5-.48l-.82,1.57-.62,1.79c-.14.4,1.3.85,1.5.48Z" />
    <path d="M37.06,74.85l2.08-2.45-2.75-.2c-.4,1.17-1.83,3.02.67,2.65Z" />

</svg>