<?xml version="1.0" encoding="UTF-8"?><svg id="Layer_2" xmlns="http://www.w3.org/2000/svg" viewBox="0 0 69.43 112.65"><g id="Layer_1-2"><path d="M21.2,111.88v-1.45c.79.25,2.97.65,3.84.63l13.4-.36c1.88-.05,5.58-1.08,7.43-2.03l3.67-1.89c.89-.46,2.98-1.46,3.6-2.34,2.57-3.64,4.8-8.39,5.44-12.79l1.37-9.46c1.42-9.81-.63-19.72-1.84-29.57l-2.42-19.56-5.63,1.98-2.82.7c-.7.17-1.22,1.91-1.45,2.7l-1.59,5.34-1.25,1.33-.47-.35,2.36-8.26-15.86.51-.18-1.99,16.36-.52,2.13-5.09,1.08,1.45.09,3.7c.95-1.33,2.08-3.09,2.45-4.3l2.89-9.46,1.51.18c-1.69,3.8-1.17,6.45,1.93,8.74l2.86,23.9c2.11,17.6,3.88,30.93-3.08,48.09-3.87,9.55-20.03,11.84-31.11,10.67l-4.69-.5ZM54.25,31.52c.53-.25.93-1.83.86-2.41s-1.92-.72-2.15-.18l-.66,1.59c-.16.37-.25,2.03.1,1.86l1.85-.87Z" fill="#595858"/><path d="M9.15,16.76l-2.22.98c-.3.12-1.19,1.02-1.18,1.34.04,7.02,2.82,14.77,8.84,14.14.23-2.44-2.32-5.03-4.78-5.39l.02-2.74,2.12-.74c1.6,1.48,2.95,3.53,3.65,5.75l1.52,3.3.21-3.13c.03-.47-.13-1.54-.26-2.04l1.37.07,1.27,2.27,4.41-4.28c.73-.71,2.7-1.95,3.2-2.21l.79,5.96.66,4.98.18,1.99c-1.03.03-3.29-.03-3.91.73l-2.83,3.1h-1.59s-1.9-1.31-1.9-1.31l-2.21-1.62c-.29-.21-2.08.18-2.08.55l-.13,1.52c-1.51-.83-3.44-2.25-3.95-3.6l5.88.89c1.05.05,1.3-2.46.02-1.96l-6.61-1.29-3.75-.99-1.85-1.6,1.7-4.6-.91-1.2c-.21-.37-.61-1.71-.59-2.19l.34-8.71,4.56,2.03ZM23.06,36.91c-.17-.66-2.95-.58-2.85.05.18,1.23,3.14,1.05,2.85-.05Z" fill="#4c4d4c"/><path d="M2.04,64.28l.15,21.72c.05,6.79,2.55,13.89,6.93,18.96,2.67,3.08,8.86,4.46,12.08,5.48v1.45c-5.23-.55-11.33-2.26-14.84-7.14C2.62,99.52-.02,92.87,0,86.31l.06-22.25,1.98.23Z" fill="#676665"/><path d="M55.29,20.98l-1.51-.18,4-13.3c.12-.41-1.75-.51-1.88-.07l-2.9,9.47-1.84-.31,2.87-10.35c.84-3.03,3.45-5.1,6.65-5.45L67.89,0c.91-.1,1.96,3.07,1.37,3.77s-2.05,1.66-3.03,1.89l-6.38,1.5-2.94,10.16-1.63,3.65ZM67.84,2.28l-2.6-.5-5.41,1.63c2.94,1.66,4.71,1.53,8.01-1.13Z" fill="#676665"/><path d="M5.92,33.03l-1.69,13.47-1.03,7.84-1,7.63-1.98-.21,2.12-16.88.94-7.28c.25-1.97.27-4.74.79-6.17l1.85,1.6Z" fill="#676665"/><path d="M53.78,20.81l-2.89,9.46c-.37,1.21-1.5,2.97-2.45,4.3l-.09-3.7-1.08-1.45.1-.97c.24.49,2.21-.96,2.4-1.56l3.23-9.97,2.9-9.47c.14-.44,2-.34,1.88.07l-4,13.3Z" fill="#d1d1cf"/><polygon points="47.39 24.54 47.38 26.46 29.28 25.14 29.5 23.11 36.32 23.4 47.39 24.54" fill="#747372"/><path d="M18.44,28.3l-1.37-.07c-.88-3.51-4.18-8.15-8.12-9.66-.21.91-.48,1.93-.1,2.15l-3.1-1.63c0-.33.89-1.22,1.18-1.34l2.22-.98c2.31,1.03,5.43,3.59,7.48,5.69,2.69,2.75,5.93,1.14,3.5,3.56l-1.69,2.28Z" fill="#676665"/><polygon points="11.95 24.35 9.83 25.09 8.85 20.71 11.95 24.35" fill="#676665"/><path d="M53,16.9l-3.23,9.97c-.19.6-2.16,2.05-2.4,1.56v-1.97s.02-1.92.02-1.92c.33-.18,1.84-1.82,2.07-2.56l1.7-5.4,1.84.31Z" fill="#595858"/><polygon points="2.2 61.97 2.04 64.28 .06 64.05 .22 61.75 2.2 61.97" fill="#747372"/><path d="M5.76,26.83l-.91-1.2.91,1.2Z" fill="#676665"/><path d="M54.84,51.34l-4.16.79-5.52,1.25c-.69.16-.95,1.99-.91,2.41l-1.93,8.27c-.71-.06-2.27-.52-3.01-.77l3.35-8.26c.47-.17-2.42-1.56-2.55-.87l-.53,2.95-4.06,7.96-.93-.72,3.9-9.92-7.47-.06c-.42,0-1.64-1.62-1.22-1.65l2.01-.11,8.71-.48-.16-5.8-.05-1.76,2.16.18.47.35,1.25-1.33,1.22,2.49,2.34-6.85c.34-1,1.53-3.04,2.37-3.44l-1.03,5.03-.92,4.49,6.96,1.96c1.02.29.19,3.44-.28,3.88ZM44.36,51.56l-.28-4.24-3,3.89,3.29.36ZM53.31,49.17l-1.84-.98-4.6-1.3-.84,4.59,7.28-2.31Z" fill="#615d59"/><path d="M42.46,44.76l-2.16-.18-7.02-1.2c-3.12-.54-6.59-.3-9.99.03l-1.07-2.57,2.83-3.1c.62-.76,2.88-.7,3.91-.73l15.86-.51-2.36,8.26Z" fill="#f1efed"/><path d="M58.1,52.63l-2.21-.47-1.82.27.78-1.08c.47-.43,1.3-3.59.28-3.88l-6.96-1.96.92-4.49,1.03-5.03-.08-.94,5.63-1.98,2.42,19.56Z" fill="#f5eee2"/><path d="M6.02,46.63l-.16,2.58-1.12,4.97-.84,8.76-.62,7.91-.34,9.23c-.02.5.99,2.44.96,2.31.05,8.16,2.41,17.9,8.67,21.95l.8.02c-.06.2-.14,1.93.4,2.06l2.72.65,5.67,1.01,15.5.2c1.98.03,5.58-1.13,7.69-1.87l3.75-.82.44,1.19-3.67,1.89c-1.85.95-5.55,1.98-7.43,2.03l-13.4.36c-.86.02-3.05-.38-3.83-.63-3.22-1.01-9.41-2.4-12.08-5.48-4.38-5.06-6.88-12.17-6.93-18.96l-.15-21.72.16-2.31,1-7.63,1.03-7.84,1.79.13Z" fill="#eae4d9"/><path d="M58.1,52.63c1.22,9.85,3.27,19.76,1.84,29.57l-1.23,2.06c-.17.51-.66,1.37-.88,1.8l.16-16.66-.91-9.28-1.2-7.96,2.21.47Z" fill="#eee4c9"/><path d="M49.53,106.78l-.44-1.19.39-2.24c2.51-2.57,4.93-6.14,6.46-9.62.99-2.25,1.88-5.34,1.9-7.67.22-.43.71-1.29.88-1.8l1.23-2.06-1.37,9.46c-.64,4.4-2.87,9.15-5.44,12.79-.62.88-2.7,1.88-3.6,2.34Z" fill="#d1d1cf"/><path d="M50.05,35.04l.08.94c-.84.4-2.03,2.45-2.37,3.44l-2.34,6.85-1.22-2.49,1.59-5.34c.23-.8.76-2.53,1.45-2.7l2.82-.7Z" fill="#d1d1cf"/><path d="M54.25,31.52l-1.85.87c-.36.17-.26-1.49-.1-1.86l.66-1.59c.23-.54,2.08-.4,2.15.18s-.33,2.16-.86,2.41Z" fill="#d1d1cf"/><path d="M9.67,34.02l.7,2.36c.51,1.34,2.44,2.77,3.95,3.6.64.35,1.88,1.14,2.53.82l1.88-1.27,1.9,1.31-.25,1.51c-.09.54-1.27.77-2.04.96l-5.5,1.39-6.82,1.93-1.79-.13,1.69-13.47,3.75.99Z" fill="#f1efed"/><path d="M22.22,40.84l1.07,2.57c3.4-.33,6.87-.57,9.99-.03l7.02,1.2.05,1.76-6.52-.8c-1.15-.22-2.84-.55-3.69-.49l-6.13.42c-3.65.25-7.75-.14-10.81.87l-.37-1.63,5.5-1.39c.77-.19,1.95-.42,2.04-.96l.25-1.51h1.59Z" fill="#595858"/><path d="M17.07,28.23c.13.51.29,1.57.26,2.04l-1.73-.17c-.7-2.22-2.04-4.28-3.65-5.75l-3.1-3.63c-.38-.21-.11-1.24.1-2.15,3.94,1.51,7.24,6.15,8.12,9.66Z" fill="#b8bc65"/><path d="M8.85,20.71l.98,4.37-.02,2.74c2.46.36,5.01,2.96,4.78,5.39-6.03.63-8.8-7.12-8.84-14.14l3.1,1.63Z" fill="#b8bc65"/><path d="M10.37,36.38l-.7-2.36,6.61,1.29c1.27-.5,1.03,2.01-.02,1.96l-5.88-.89Z" fill="#9c9c9b"/><path d="M18.73,39.53l-1.88,1.27c-.66.32-1.89-.47-2.53-.82l.13-1.52c0-.36,1.79-.76,2.08-.55l2.21,1.62Z" fill="#7c7c7b"/><path d="M23.06,36.91c.29,1.1-2.67,1.28-2.85.05-.09-.64,2.68-.71,2.85-.05Z" fill="#9c9c9b"/><polygon points="17.33 30.27 17.12 33.4 15.6 30.1 17.33 30.27" fill="#676665"/><path d="M67.84,2.28c-3.29,2.65-5.07,2.79-8.01,1.13l5.41-1.63,2.6.5Z" fill="#d1d1cf"/><path d="M40.35,46.33l.16,5.8-8.71.48-2.01.11c-.42.02.8,1.64,1.22,1.65l7.47.06-3.9,9.92.93.72,4.06-7.96.53-2.95c.12-.69,3.02.71,2.55.87l-3.35,8.26c.74.25,2.3.71,3.01.77l4.17.33c1.22.1,3.72-1.63,4-2.84s-.92-4.01-2.08-4.41l-4.16-1.35c-.03-.42.22-2.25.91-2.41l5.52-1.25,4.16-.79-.78,1.08.44,11.53.46,5.92-3.09,2.34c-4.11.43-9.44,1.67-13.4,3.15l-1.95.12.1-2.05c.06-1.16-1.57-3.24-2.72-3.09l-2.02.26-2.08.11c.69-2.74.48-5.7-1.27-8.34-1.98-3-6.52-5.59-9.72-3.95l-5.2,2.67-.81-5.93c-.12-.8,1.92-1.89,2.4-1.96l5.32.08c.89-.01,3.47.16,3.93-.61l3.21-5.4,2.47-2.24c.85-.06,2.54.27,3.69.49l6.52.8ZM32.89,58.17c0-.59-.48-1.07-1.07-1.07s-1.07.48-1.07,1.07.48,1.07,1.07,1.07,1.07-.48,1.07-1.07ZM33.45,67.43c.58.77,1.57,1.82,1.69,1.42l.49-1.69c.12-.4-1.11-.09-2.19.27ZM50.78,68.38c0-.73-.6-1.33-1.33-1.33s-1.33.6-1.33,1.33.6,1.33,1.33,1.33,1.33-.6,1.33-1.33ZM36.33,69.35c.58.77,1.57,1.82,1.69,1.42l.49-1.69c.12-.4-1.11-.09-2.19.28Z" fill="#eee4c9"/><path d="M42.31,64.06l1.93-8.27,4.16,1.35c1.16.4,2.36,3.2,2.08,4.41s-2.78,2.94-4,2.84l-4.17-.33Z" fill="#f1efed"/><polygon points="53.31 49.17 46.03 51.47 46.87 46.89 51.47 48.19 53.31 49.17" fill="#c3c4ac"/><polygon points="44.36 51.56 41.07 51.2 44.07 47.32 44.36 51.56" fill="#eee4c9"/><polygon points="55.89 52.16 57.09 60.12 58 69.4 54.96 69.87 54.5 63.95 54.07 52.42 55.89 52.16" fill="#e7d6b8"/><path d="M58,69.4l-.16,16.66c-.71.19-2.01.93-2.13,1.6l-.92,5.05,1.15,1.02c-1.53,3.47-3.95,7.04-6.46,9.62l-3.83,1.33-5.94,1.7c-.67.19-2.25,1.39-2.05,1.9l-15.5-.2-.16-1.42-8.62-2.3-.8-.02v-3.07s4.5-1.67,4.5-1.67c1.8,1.41,5.47,4.39,8.04,5.2,5.41,1.7,10.63-.85,13.28-5.7,1.17-2.15.77-6.47.4-9.22,8.93-.98,13.33-8.8,13.09-17.67l3.09-2.34,3.03-.47Z" fill="#b8bc65"/><path d="M22.15,108.07l-5.67-1.01-2.72-.65c-.54-.13-.45-1.86-.4-2.06l8.62,2.3.16,1.42Z" fill="#615d59"/><path d="M49.48,103.34l-.39,2.24-3.75.82c-2.11.74-5.71,1.89-7.69,1.87-.2-.51,1.39-1.71,2.05-1.9l5.94-1.7,3.83-1.33Z" fill="#615d59"/><path d="M57.84,86.06c-.02,2.33-.91,5.42-1.9,7.67l-1.15-1.02.92-5.05c.12-.67,1.42-1.42,2.13-1.6Z" fill="#6a553f"/><polygon points="12.83 44.7 13.2 46.33 8.61 47.84 10.67 50.75 8.36 51.23 5.86 49.21 6.02 46.63 12.83 44.7" fill="#7c7c7b"/><path d="M30.14,45.04l-2.47,2.24-3.21,5.4c-.46.78-3.04.6-3.93.61l-.32-1.28c-.45-.92-3.81-.76-4.03-.41l-.97,1.61c-.48.08-2.52,1.16-2.4,1.96l.81,5.93c-.82.42-2.51,2.33-2.48,3.31l.24,7.98.13,4.89-.06,5.14-4.01.8v-14.54s.05-5.61.05-5.61l.86-11.85,2.32-.48-2.06-2.92,4.59-1.51c3.06-1.01,7.16-.62,10.81-.87l6.13-.42Z" fill="#f5eee2"/><path d="M8.36,51.23l-.86,11.85-.04,5.61v14.54s4-.8,4-.8l.78-.32.15,2.02-.36,8.01-2.07-2.89c.14-.08-1.39-.35-1.41.1l-.13,3c.2,1.17.02,1.68-1.12.11l-.52-7.51c-.04-.6,0-2.45-.54-2.5l-2.35-.05c.03.14-.98-1.8-.96-2.31l.34-9.23.62-7.91.84-8.76,1.12-4.97,2.5,2.02Z" fill="#e7d6b8"/><path d="M12.02,92.13l1.21,2.5,1.19,2.98-1.03,1.06-1.06.38.22,2.22v3.07c-6.24-4.05-8.61-13.79-8.65-21.95l2.35.05c.53.05.5,1.9.54,2.5l.52,7.51c1.15,1.58,1.33,1.07,1.12-.11l.13-3c.02-.45,1.54-.18,1.41-.1l2.07,2.89ZM11.68,98.81l.73-1.35-.73,1.35Z" fill="#939e39"/><path d="M31.89,70.6l-.8,3.23-1.44,5.41-1.5.97-1.99.41,1.26,4.8c-5.6-1.18-9.07,1.96-10.55,6.05l-1.42,3.93-2.22-.79-1.21-2.5.36-8.01,3.84-1.11-3.99-.9-.78.32.06-5.14,3.33-2.15,4.48,1.18-.12-1.77,2.18.92c3.26,3.88,6.89-4.66,8.42-4.75l2.08-.11Z" fill="#e0bd7c"/><path d="M29.81,70.71c-1.53.08-5.16,8.63-8.42,4.75,2.16-1.06,5.03-2.61,6.46-5,1-1.68.15-6.11-.98-7.56s-4.24-3.53-6.48-3.05c-2.66.57-6.37,3.17-7.56,5.03-.72,1.12-.33,5.14.53,6.16,1.19,1.41,4.25,2.84,5.84,3.51l.12,1.77-4.48-1.18-3.46-2.74-.24-7.98c-.03-.98,1.66-2.89,2.48-3.31l5.2-2.67c3.2-1.64,7.74.95,9.72,3.95,1.75,2.64,1.95,5.59,1.27,8.34Z" fill="#676665"/><path d="M36.62,73.44c-.29-.05-1.16,0-1.32.31l-1.2,2.28-.19,2.14,2.61-2.68,1.95-.12-1.9,3.88-2.66.72-.86-1.41-2,6.72-2.38.25-.52-5.31,1.5-.97.6,2.98,2.72-8.45.93-3.42c1.15-.15,2.77,1.93,2.72,3.09Z" fill="#939e39"/><path d="M35.95,87.76l-1.34-2.74,7.04-.22-4.37-2.09,5.23-3.4c-1.58-.2-3.36.19-5.54,1.21l-.42-1.28c3.08-2.2,6.47-3.98,10.47-4.12l2.57-.09c.9-.03-.85,8.21-5.13,11.24-2.17,1.53-6.25,1.54-8.53,1.48ZM45.83,81.11l.28-4.98-2.11,2.87-.96,1.75c-.21.39,2.76.81,2.78.36Z" fill="#939e39"/><polygon points="33.91 70.34 32.98 73.77 30.25 82.22 29.65 79.24 31.09 73.83 31.89 70.6 33.91 70.34" fill="#503824"/><path d="M20.53,53.29l-5.32-.08.97-1.61c.22-.36,3.58-.52,4.03.41l.32,1.28Z" fill="#747372"/><circle cx="49.45" cy="68.38" r="1.33" fill="#747372"/><path d="M36.62,73.44l-.1,2.05-2.61,2.68.19-2.14,1.2-2.28c.16-.31,1.04-.36,1.32-.31Z" fill="#1e1d19"/><circle cx="31.82" cy="58.17" r="1.07" fill="#7c7c7b"/><path d="M33.45,67.43c1.08-.36,2.3-.68,2.19-.27l-.49,1.69c-.12.4-1.11-.64-1.69-1.42Z" fill="#6a553f"/><path d="M36.33,69.35c1.08-.36,2.3-.68,2.19-.28l-.49,1.69c-.12.4-1.11-.64-1.69-1.42Z" fill="#6a553f"/><polygon points="14.85 75.13 11.52 77.28 11.39 72.39 14.85 75.13" fill="#e7d6b8"/><polygon points="12.38 84.12 12.23 82.1 16.22 83 12.38 84.12" fill="#503824"/><path d="M51.88,72.22c.24,8.86-4.17,16.68-13.09,17.67.37,2.75.78,7.07-.4,9.22-2.65,4.85-7.87,7.4-13.28,5.7-2.58-.81-6.24-3.79-8.04-5.2l-4.52,1.67-.22-2.22-.65-.24.73-1.35.99,1.21,1.03-1.06-1.19-2.98,2.22.79,1.42-3.93,1.18.22c-.36.9-.21,3.07,0,4.03,1.37,6.13,9.72,9.94,15.48,6.33,2.07-1.3,4.17-4.61,4.19-6.88.02-2.44-1.39-5.17-2.91-7.46l1.14.05c2.28.06,6.36.05,8.53-1.48,4.28-3.03,6.03-11.27,5.13-11.24l-2.57.09c-4,.14-7.39,1.92-10.47,4.12l1.9-3.88c3.96-1.48,9.29-2.72,13.4-3.15Z" fill="#6a553f"/><path d="M37.29,82.71l-4.62,1.51,1.24-4.26,2.66-.72.42,1.28c2.18-1.02,3.95-1.41,5.54-1.21l-5.23,3.4Z" fill="#6a553f"/><path d="M21.39,75.46l-2.18-.92c-1.58-.66-4.64-2.1-5.84-3.51-.86-1.02-1.25-5.04-.53-6.16,1.19-1.86,4.9-4.46,7.56-5.03,2.23-.48,5.36,1.62,6.48,3.05s1.98,5.88.98,7.56c-1.43,2.39-4.29,3.95-6.46,5ZM23.29,63.93c0-.59-.48-1.07-1.07-1.07s-1.07.48-1.07,1.07.48,1.07,1.07,1.07,1.07-.48,1.07-1.07Z" fill="#eae4d9"/><path d="M28.15,80.21l.52,5.31-.43,1.38c-3.56-2.14-9.02,1.9-10.18,4.8l-1.18-.22c1.48-4.09,4.95-7.23,10.55-6.05l-1.26-4.8,1.99-.41Z" fill="#615d59"/><path d="M34.82,87.71c1.52,2.29,2.93,5.02,2.91,7.46-.02,2.28-2.12,5.59-4.19,6.88-5.76,3.61-14.11-.2-15.48-6.33,1.96.1,5.42-.82,6.68-2.02l2.53-2.42s1.98.11,2.08-.45l.38-3.25,5.09.12Z" fill="#e7d6b8"/><path d="M28.24,86.9l-.32,1.05-.64,3.34-2.53,2.42c-1.25,1.2-4.72,2.12-6.68,2.02-.21-.96-.37-3.12,0-4.03,1.16-2.9,6.62-6.95,10.18-4.8Z" fill="#f5eee2"/><polygon points="33.91 79.96 32.68 84.22 37.29 82.71 41.66 84.79 34.62 85.01 35.95 87.76 34.82 87.71 29.73 87.59 27.91 87.94 28.24 86.9 28.66 85.52 31.05 85.27 33.05 78.55 33.91 79.96" fill="#1e1d19"/><circle cx="22.22" cy="63.93" r="1.07" fill="#747372"/><path d="M29.73,87.59l-.38,3.25c-.11.55-2.05.48-2.08.45l.64-3.34,1.82-.36Z" fill="#615d59"/><path d="M45.83,81.11c-.03.45-2.99.03-2.78-.36l.96-1.75,2.11-2.87-.28,4.98Z" fill="#6a553f"/></g></svg>