<?xml version="1.0" encoding="UTF-8"?><svg id="Layer_2" xmlns="http://www.w3.org/2000/svg" viewBox="0 0 58.34 107.96"><g id="Layer_1-2"><path d="M51.88,70.63l-1.81.17.51-3.32,3.66-28.65-5.41,2.38-8.76,1.92-4.39,1.09-8.04-.26-13.43-1.25-7.36-1.48-5.53-2.17.56-2.45,3.05,1.55c1.42.74,4.52,1.7,6.38,1.94l13.97,1.81-2.69-1.08-1.8-1.47,4.91-.16c2.17,1.92,5.53,3.15,8.78,2.63l9-1.43,7.99-1.91c2.28-.54,3.7-4.55,2.34-5.96-1.83-1.9-2.94-3.46-3.71-5.25l-.78-1.83c-.16-.37-1.55.29-1.74.64l-3.31,6.16-1.96.35,1.19-2.54c.49-.63,1.38-1.95,1.66-2.75l2.87-8.39,3.88-12.52c.32-1.04-2.26-1.12-1.98-.05l-2.39,8.17-2.07,7.27-1.52,4.73c-.39-.61-.68-2.01-.5-2.93.38-2-.99-5.33-3.73-5.77l-2.01,1.85-.6-1.47c.09-1.23.02-3.62-.81-4.48-.71-.73-2.65-1.62-3.67-1.69l-1.49-.1-2.02-3.16-4.32-2.72.18-2.64c5.64,2.29,5.66,5.91,9.35,7.07,2.44.76,3.8,2.16,4.84,4.77l5.18,3.1,3.07-9.02L50.57.14,57.37,0c1.3-.03,1.26,4.28.05,4.84l-3.63,1.67-4.53,14.77c-.32,1.04,1.77,3.65,2.27,4.5l3.94,6.57c1.9,3.17.27,10.13-.27,14.02l-2.43,17.7-.9,6.55ZM56.77,2.4c0-.59-.48-1.07-1.07-1.07s-1.07.48-1.07,1.07.48,1.07,1.07,1.07,1.07-.48,1.07-1.07Z" fill="#615d59"/><path d="M4.67,63.03l.98,7.62,1.43,8.69.74,5.68,1.85,14.04c.6,4.59,10.62,7.04,13.28,6.9l14.58-.79c2.11-.11,5.86-1.67,7.44-3.27,1.13-1.14,1.48-4.77,1.71-6.35l.54-3.73,1.07-7.72,1.16,2.37-.47,3.24.09,1.14-.81,6.77c-.15,1.25-.53,4.5-1.49,5.27-8.24,6.63-23.79,6.21-34.97,1.9-2.4-.93-3.69-3.83-4.04-6.33l-3.98-28.84-1.98-14.37-1.06-7.72-.73-6.65,1.11-.15,1.01,3.64.95,6.91,1.59,11.76Z" fill="#615d59"/><path d="M16.07,13.68l1.17.32-2.67,5.7c2.6,1.7,6.75,3.16,8.81,2.56l5.45-1.61-.15,1.47c-3.71,2.84-11.69,2.78-16.48-1.62-1.31-1.03-5.36,3.45-4.11,4.72l4.57,4.66.1,1.32c-.19-.1-.46-.05-.71-.04l-5.76-4.23c-2.4.75-4.43,4.23-4.3,6.82l-1.9.21c.02-2.09,1.37-5.71,2.97-7.03,4.96-4.08,2.61-5.66,7.23-8.39,3.59-2.12,3.29-3.33,5.79-4.86Z" fill="#676665"/><path d="M29.13,8.78l-2.31,3.53,2.21,2.65c-.67.95-3.41,1.57-4.34.87l-3.05-2.31,2.09-2.94c.51-.65,1.42-1.76,1.34-2.41l-.26-2.12,4.32,2.72Z" fill="#eee4c9"/><polygon points="51.88 70.63 50.22 82.89 49.44 86.47 48.28 84.1 49.29 76.33 50.07 70.8 51.88 70.63" fill="#747372"/><circle cx="10.13" cy="9.1" r="2.68" fill="#3a3939"/><circle cx="16.88" cy="2.42" r="2.04" fill="#4c4d4c"/><path d="M21.64,13.52l-.69.07-3.71.41-1.17-.32,5.35-3.27,3.65-2.23c.08.65-.82,1.75-1.34,2.41l-2.09,2.94Z" fill="#615d59"/><path d="M1.98,33.75c.04.86.07,2.17-.09,2.86l-.56,2.45-.21,1.67-1.11.15.08-6.91,1.9-.21Z" fill="#1e1d19"/><path d="M49.06,90.85l-.09-1.14.09,1.14Z" fill="#747372"/><path d="M35.68,44.22c-.51.13-1.43,1.2-1.95,1.28l-4.98.79c5.77.58,11.24-.05,17.37-1.06l-1.54,7.47-.72,3.48-10.15,1.12-7.14.5-9.84-1.33-2.42-2.97c-.23-.3.16-2.23.52-2.35l2.46-.81,2.51-.83c.56-.18.39-2.4.22-2.9l-6.81-1.49-6.06-1.04-.29-2.85,7.36,1.48,13.43,1.25,8.04.26Z" fill="#eee4c9"/><path d="M12.04,31.16l-1.03.97c-.24.22-.63-.07-2.26-.95l-1.59,1.47,5.55,2.79,1.79-3.33,9.12,1.56c3.3.56,7.88-.58,10.96-1.35l.23,1.19c.06.31,1.5.85,1.81.76l5.68-1.67,1.96-.35.04,1.87-2.05,1.04-4.82,1.71-4.93,2.11-6.81.22-4.91.16,1.8,1.47,2.69,1.08-13.97-1.81c-1.86-.24-4.96-1.2-6.38-1.94l-3.05-1.55c.16-.69.13-2.01.09-2.86-.13-2.59,1.9-6.08,4.3-6.82l5.76,4.23Z" fill="#eae4d9"/><path d="M50.07,70.8l-.78,5.54-1,7.76-1.07,7.72-.54,3.73c-.51-.16-.82-.43-.91-.63-.3-.63-.69-1.92-.67-2.61l.18-5.36.75-3,.09-1.86.87-3.82.13-2.93.92-.85-.1-4.15.33-5.18.86-5.05.65-3.8v-2.23s-5.91,2.09-5.91,2.09l.72-3.48,1.54-7.47c-6.12,1.01-11.6,1.64-17.37,1.06l4.98-.79c.51-.08,1.43-1.15,1.95-1.28l4.39-1.09,8.76-1.92,5.41-2.38-3.66,28.65-.51,3.32Z" fill="#e7d6b8"/><path d="M6.86,41.23l.29,2.85,6.06,1.04,6.81,1.49c.18.5.34,2.72-.22,2.9l-2.51.83-2.46.81c-.37.12-.75,2.05-.52,2.35l2.42,2.97c-2.7-.36-5.59-.84-8.24-1.87l-2.88-1.12.3,2.37.34,6.97-1.58.21-1.59-11.76-.95-6.91-1.01-3.64.21-1.67,5.53,2.17Z" fill="#f5eee2"/><path d="M25.71,39.2l6.81-.22c.53.37,2.46,1.16,3.07.56l1.86-2.67,4.82-1.71c.97,1.91,5.35.35,7.28-2.77l-5.24,1.73-.04-1.87,3.31-6.16c.19-.35,1.59-1.01,1.74-.64l.78,1.83c.77,1.79,1.88,3.35,3.71,5.25,1.36,1.41-.06,5.42-2.34,5.96l-7.99,1.91-9,1.43c-3.25.52-6.61-.71-8.78-2.63Z" fill="#eccc92"/><path d="M37.12,18.2l-5.65,1.46-2.64.98-5.45,1.61c-2.06.61-6.21-.86-8.81-2.56l2.67-5.7,3.71-.41c-.19.2.64,2.26,1.07,2.65,1.38,1.27,5.55,1.48,7.64.48,1.96-.94,3.07-3.01,2.98-4.69,1.02.07,2.95.96,3.67,1.69.83.86.9,3.24.81,4.48Z" fill="#eee4c9"/><path d="M43.45,23.6c-.17.92.11,2.32.5,2.93l1.2.78c-.27.8-1.17,2.12-1.66,2.75,0-.71-.45-.51-1.61.01l-7.32,1.02c0-.47.84-.61,1.62-.97l5.25-2.42.88-.95c.25-.26-.14-1.35-.5-1.41s-1.16-.16-1.49-.03l-4.81,1.87c-.31.12-1.22-.83-.89-1.04l1.56-1.02,2.34-1.53h4.92Z" fill="#7c7c7b"/><path d="M45.16,27.31l-1.2-.78,1.52-4.73,2.07-7.27,2.39-8.17c-.29-1.07,2.3-.99,1.98.05l-3.88,12.52-2.87,8.39Z" fill="#d1d1cf"/><path d="M32.64,12.04c.1,1.68-1.01,3.75-2.98,4.69-2.08,1-6.26.8-7.64-.48-.43-.4-1.26-2.45-1.07-2.65l.69-.07,3.05,2.31c.93.7,3.67.09,4.34-.87l2.12-3.03,1.49.1Z" fill="#676665"/><path d="M43.45,23.6h-4.92s-.74-2.86-.74-2.86l-.08-1.06,2.01-1.85c2.74.45,4.1,3.77,3.73,5.77Z" fill="#e7d6b8"/><path d="M43.5,30.06l-1.19,2.54-5.68,1.67c-.31.09-1.75-.44-1.81-.76l-.23-1.19v-1.22s7.3-1.02,7.3-1.02c1.16-.53,1.6-.73,1.61-.01Z" fill="#eccc92"/><path d="M37.12,18.2l.6,1.47.08,1.06-2.93,2.1c-1.73-.89-4.88-1.74-6.2-.72l.15-1.47,2.64-.98,5.65-1.46Z" fill="#9c9c9b"/><polygon points="31.14 11.94 29.03 14.96 26.81 12.31 29.13 8.78 31.14 11.94" fill="#eccc92"/><circle cx="55.7" cy="2.4" r="1.07" fill="#d1d1cf"/><path d="M12.13,96.39c1.7,4,12.42,5.45,19.3,4.88l1.28-.11,2.75-.21-.81,2.39,5.9-.6c.41-.04,1.5-.73,1.8-.95s-.16-1.36-.53-1.39l-1.46-.12-.07-1.08,3.24-1.51c.46-.21.97-1.9.81-2.15l1.43-.63c.09.2.4.47.91.63-.23,1.59-.58,5.21-1.71,6.35-1.58,1.6-5.33,3.16-7.44,3.27l-14.58.79c-2.66.14-12.67-2.31-13.28-6.9l-1.85-14.04-.74-5.68,1.59-.31,1.31,9.4c.34,2.45,1.35,6.08,2.15,7.96ZM19.51,101.83l-4.57-.14,4.48,1.92c2.18-.69,1.54-1.19.08-1.78Z" fill="#eae4d9"/><polygon points="8.67 79.04 7.08 79.34 5.65 70.66 4.67 63.03 6.25 62.82 7.36 69.58 8.67 79.04" fill="#d1d1cf"/><path d="M28.67,22.11c1.33-1.02,4.48-.17,6.2.72l2.93-2.1.74,2.86-2.34,1.53-1.56,1.02c-.33.22.58,1.17.89,1.04l4.81-1.87,1.11,2.39-5.25,2.42c-.78.36-1.63.5-1.62.97l-12.21.9-4.22-.59c-1.74-.25-4.57-.59-5.5-1.54l-4.57-4.66c-1.25-1.28,2.8-5.75,4.11-4.72,4.8,4.4,12.77,4.46,16.48,1.62ZM20.13,26.47c-.44-1.14-2.93-.95-2.89.05.03.79,3.18.69,2.89-.05ZM30.63,27.22c-.37-.9-3.88-.81-3.78.04.16,1.42,3.99,1.36,3.78-.04Z" fill="#eee4c9"/><path d="M12.04,31.16c.25-.01.52-.06.71.04l1.75.91-1.79,3.33-5.55-2.79,1.59-1.47c1.64.88,2.02,1.17,2.26.95l1.03-.97Z" fill="#7c7c7b"/><path d="M34.57,31.1v1.22c-3.07.77-7.65,1.91-10.95,1.35l-9.12-1.56-1.75-.91-.1-1.32c.93.95,3.76,1.29,5.5,1.54l4.22.59,12.21-.9Z" fill="#6a553f"/><path d="M16.73,56.48l9.84,1.33,7.14-.5,10.15-1.12-.04,1.08c-7.5,2.46-21.78,2.25-29.45.77l-2.44-.47-6.02-1.71-.3-2.37,2.88,1.12c2.65,1.03,5.54,1.51,8.24,1.87Z" fill="#6a553f"/><path d="M42.27,35.17l2.05-1.04,5.24-1.73c-1.94,3.11-6.31,4.67-7.28,2.77Z" fill="#747372"/><path d="M37.45,36.87l-1.86,2.67c-.6.6-2.54-.18-3.07-.56l4.93-2.11Z" fill="#615d59"/><path d="M11.93,57.56c-1.04,2.19-1.23,5.37-1.08,8.08l.63,11.25,1.3,4.03,2.07,12.07,1.97.94c.39.19,1.22-.52,2.03-1.09l-2.81-29.84-1.67-4.98c7.67,1.48,21.95,1.68,29.45-.77l5.95-.95-.65,3.8c-.94.1-2.25.37-2.31,1.04l-.22,2.66-3.57,23.76-2.68,7.49,2.22-.59,2.52-2.16c-.02.69.37,1.98.67,2.61l-1.43.63c-8.06,3.96-17.5,5.44-26.4,2.54l-5.8-1.7c-.79-1.87-1.81-5.51-2.15-7.96l-1.31-9.4-1.32-9.45-1.11-6.77-.34-6.97,6.02,1.71Z" fill="#e4a55f"/><path d="M49.13,60.11l-.86,5.05-.33,5.18-.82,5-.13,2.93-.87,3.82-.09,1.86-.75,3-.18,5.36-2.52,2.16-2.22.59,2.68-7.49,3.57-23.76.22-2.66c.06-.67,1.37-.94,2.31-1.04Z" fill="#774a25"/><polygon points="49.78 56.31 43.82 57.26 43.87 56.18 49.78 54.08 49.78 56.31" fill="#a47148"/><polygon points="47.12 75.34 47.94 70.35 48.04 74.49 47.12 75.34" fill="#e4a55f"/><path d="M46.12,82.09l.87-3.82-.87,3.82Z" fill="#e4a55f"/><path d="M45.27,86.95l.75-3-.75,3Z" fill="#e4a55f"/><path d="M41.44,27.71l-1.11-2.39c.33-.13,1.14-.04,1.49.03s.74,1.15.5,1.41l-.88.95Z" fill="#e7d6b8"/><path d="M44.32,95.55c.16.25-.35,1.93-.81,2.15l-3.24,1.51-4.81,1.75-2.75.21-1.28.11c-6.88.57-17.6-.88-19.3-4.88l5.8,1.7c8.9,2.9,18.35,1.42,26.4-2.54Z" fill="#6a553f"/><path d="M35.46,100.96l4.01.33.87-1,1.46.12c.37.03.83,1.17.53,1.39s-1.38.91-1.8.95l-5.9.6.81-2.39Z" fill="#747372"/><path d="M19.51,101.83c1.46.58,2.1,1.09-.08,1.78l-4.48-1.92,4.57.14Z" fill="#747372"/><polygon points="40.28 99.21 40.35 100.29 39.48 101.29 35.46 100.96 40.28 99.21" fill="#e7d6b8"/><path d="M32.71,101.17l-1.28.11,1.28-.11Z" fill="#747372"/><path d="M30.63,27.22c.21,1.4-3.62,1.46-3.78.04-.1-.85,3.42-.94,3.78-.04Z" fill="#615d59"/><path d="M20.13,26.47c.29.74-2.86.84-2.89.05-.04-1,2.45-1.19,2.89-.05Z" fill="#747372"/><path d="M14.37,58.03l1.67,4.98,2.81,29.84c-.8.57-1.63,1.27-2.03,1.09l-1.97-.94-2.07-12.07-1.3-4.03-.63-11.25c-.15-2.72.04-5.89,1.08-8.08l2.44.47Z" fill="#eccc92"/></g></svg>