<?xml version="1.0" encoding="UTF-8"?><svg id="Layer_2" xmlns="http://www.w3.org/2000/svg" viewBox="0 0 80.24 169.05"><g id="Layer_1-2"><path d="M67.67,20.55h-1.82s2.21-9.63,2.21-9.63c.12-.51-.28-2.04-.43-2.51-.2-.63-2.09.98-2.26,1.64l-6.31,24c.07.31,1.77,1.23,2.11.87.46-.49,1.22-1.68,1.41-2.38l1.93.63c.25.2,1.55,1.03,2.02.99l4.64-.44.91,1.14-7.96,1.51c-.37.07-.92,1.38-1.06,1.73l-2.06-.67-1.8-.68c-.5-.19-1.22,1.47-1.39,1.98l-1.06,2.21-.9.33.25-4.21-29.85.08c-8.36.02-16.37-1.29-24.07-3.12l.88-1.64c8.11,1.71,16.44,3.12,25.08,3.02l28.74-.34,1.46-6.92c-11.84-.57-21.93-.97-33.17-.28l-22.12,3.12-.07-1.05c.11-.15,1.7-1.43,2.34-1.53l14.31-2.16,12.91-.93,22.39.74c1.17.04,3.78-.54,4.48-.95l5.13-19.32c.49-1.84,4.51-4.12,6.46-4.48L78.05.01c1.26-.23,2.63,3.58,2.06,4.75-.48,1-2.14,2.05-3.53,2.47l-6.05,1.84-2.87,11.49ZM77.82,1.69l-7.79,1.97.81,3.22,7.79-1.97-.81-3.22ZM69.35,6.02c-.03-1.9-2.86-1.9-2.89,0,.03,1.9,2.86,1.9,2.89,0Z" fill="#535251"/><path d="M71.41,142.78l-1.92.06c.37-5.34,5.41-83.81,5.77-85.9,0,0,1.03-22.67,1.03-22.67l-.88-4.27,3.21,1.04c-.68,16.03-6.05,94.14-7.21,111.75Z" fill="#4b4b4b"/><path d="M10.53,159.98l-.62,1.26c-1.01-.7-2.99-2.77-3.07-4.06l-3.06-48.23c-.51-11.42-1.22-27.91-2.26-39.17-.08-3.6-.36-16.3-.44-20.08,0,0,1.09-.16,1.09-.16l.67,10.45c1.56,21.71,2.65,47.36,4.11,69.13,0,0,1.57,24.24,1.57,24.24.14,2.1,1.21,5.01,2,6.62Z" fill="#4b4b4b"/><path d="M71.41,142.78l-1.14,16.98-4.27,2.42c-15.4,4.96-35.33,4.07-51.34,1.33-1.39-.24-3.63-1.48-4.75-2.27l.62-1.26c9.5,2.61,19.13,3.73,28.89,3.78,8.48.04,22.7-.93,27.45-4.56.87-.66,1.88-2.74,1.94-3.9l.69-12.47,1.92-.06Z" fill="#585755"/><path d="M14.66,163.5c15.72,2.55,41.83,4.65,55.61-3.75,0,0,.81,1.38.81,1.38.23.39-1.04,2.09-1.5,2.26l-11,3.95c-14.81,2.71-29.23,2.29-43.55-2.02l-.37-1.83Z" fill="#ded9d2"/><path d="M67.67,20.55l-1.62,6.47,7.78,1.72c.38.09,1.61,1.22,1.59,1.24l.88,4.27-4.23.6-.91-1.14c1.16-.11,2.92-1.2,4.62-2.32l-10.1-2.48-1.17,4.25-1.93-.63,3.27-12h1.82Z" fill="#605e5d"/><polygon points="11.54 21.35 10.66 19.32 19.91 18.07 19.99 19.95 11.54 21.35" fill="#6d6d6d"/><path d="M2.95,29.92c.06.59.09,1.85.09,2.45,0,0-.88,1.64-.88,1.64-1.22,2.44.01,8.75.11,11.53,0,0-1.92-.03-1.92-.03L0,34.01c-.03-.86.41-2.97,1.1-3.27l1.85-.82Z" fill="#4b4b4b"/><polygon points="2.27 45.54 2.17 49.54 1.09 49.7 .35 45.51 2.27 45.54" fill="#535251"/><path d="M76.29,34.26c-1.09,29.11-6.03,91.52-7.49,121.05-.06,1.16-1.07,3.23-1.94,3.9l-1.61-3.4c-.48-1.94-1.33-3.99-2.88-4.88,1.87-.75,3.61-4.87,4.01-7.39l-2.06,1.51c-.57,2.13-2.66,4.62-4.65,5.11-8.53,2.11-16.45,2.98-24.75,2.51l.05-5.57c5.57,2.13,13.19.54,17.77-3.95l3.84-3.77c7.53-7.39,6.94-18.85,2.29-27.19.47-1.37.86-3.4.99-4.99.5-8.06,1.85-19.04,2.6-27.07.21-7.61.94-23.05,1.52-30.6.04-.62.54-2.41,1.01-2.68,3.16.85,4.9,2.35,6.09,6.56l1.59-1.97c-1.34-2.49-2.78-5.16-5.09-5.87l-8.73-2.68c-.68-.21-2.16-1.67-2.12-1.94l1.06-2.21c.17-.51.89-2.17,1.39-1.98l1.8.68.7,4.19,1.35-3.52c.13-.35.69-1.66,1.06-1.73,2.69-.52,9.53-1.84,12.19-2.11Z" fill="#e4e4e3"/><path d="M55.84,41.26l.9-.33c-.04.27,1.44,1.73,2.12,1.94l8.73,2.68c2.31.71,3.75,3.38,5.09,5.87l-1.59,1.97c-1.52-5.81-4.52-6.06-8.97-7.48-1.4-.45-.74,3.54-3.03,4.13-.26.07-.62.04-.56-.23l.37-1.79c.15-.73.08-2.73-.59-3.05s-1.98.03-2.37.36l-1.22.26c.63-.03-.95-1.61-1.45-1.66l-8.72-.77c-11.8-1.05-22.51,1.19-33.52,5.44-1.86.72-3.19,2.73-4.18,4.78l-1.56-2.31c1.91-2.47,4.02-4.15,6.87-5.14,13.16-4.55,26.83-5.81,40.73-3.86.88.12,2.63-.41,2.94-.81Z" fill="#6d6d6d"/><path d="M65.84,20.54l-3.27,12c-.19.7-.95,1.89-1.41,2.38-.34.36-2.04-.56-2.11-.87l6.31-24c.17-.65,2.06-2.26,2.26-1.64.15.47.55,2,.43,2.51l-2.21,9.61Z" fill="#e4e4e3"/><path d="M71.15,33.72l-4.64.44c-.47.04-1.77-.78-2.02-.99l1.17-4.25,10.1,2.48c-1.7,1.11-3.45,2.2-4.62,2.32Z" fill="#e4e4e3"/><rect x="70.32" y="2.62" width="8.03" height="3.32" transform="translate(1.21 18.33) rotate(-14.17)" fill="#ded9d2"/><path d="M69.35,6.02c-.03,1.9-2.86,1.9-2.89,0,.03-1.9,2.86-1.9,2.89,0Z" fill="#c2bfb9"/><polygon points="63.04 38.09 61.69 41.61 60.99 37.42 63.04 38.09" fill="#4b4b4b"/><path d="M66.87,159.2c-4.75,3.63-18.97,4.6-27.45,4.56.32-1.59,2.33-2.84,3.89-3.28.48-.14,1.93-1.07,1.48-1.1l-2.11-.12c-.84-.05-3.63.37-3.73-.44l-.47-4.39,10.94-.49c4.05-.18,9.11-1.49,12.98-3.04,1.55.89,2.39,2.94,2.88,4.88l1.61,3.4ZM62.19,155.87l-10.23,2.26c3.69,1.29,7.17,1.34,10.23-2.26Z" fill="#e4ded7"/><path d="M41.36,94.26l-2.55.5-2.64-6.72-6.87,6.06c1.18-2.7,2.37-4.2,4.5-7-1.49-.9-6.86-2.16-8.58-.6l-7.39,6.69,8.42.84-.75,1.63-7.18-.49,1.42,9.01c5.13,5.24,12.24,4.92,12.08,3.86-.09-1.42-1.88-9.59-2.19-11.16,0,0,5.01,8.78,5.01,8.78l4.5-3.98c.81-.71.82-3.74.46-4.72l1.66-.36c.7,1.13,1.18,4.36.19,5.31l-6.9,6.64c-5.36,5.16-16.5-.82-17.03-4.85l-1.42-10.83c3.93-5.04,9.16-10.39,13.82-8.88l6.18,2c1.74.56,3.5,4.86,3.88,5.96l3.33-4.61c.11,2.96-.93,5.53-1.95,6.92Z" fill="#6d6d6d"/><path d="M62.38,150.92c-3.87,1.55-8.93,2.86-12.98,3.04l-10.94.49-9.51-.49c-4.62-.24-10.57-1.76-14.33-3.6l1.15-1.24c6.21,2.11,13.14,3.19,19.15,3.53,8.31.47,16.22-.4,24.75-2.51,1.99-.49,4.08-2.98,4.65-5.11l2.06-1.51c-.39,2.52-2.13,6.64-4.01,7.39Z" fill="#585755"/><path d="M27.58,139.21c6.96,6.28,18.8,6.02,24.67-1.36,1.21-.87,2.34-2.39,2.69-3.89,4.91-4.88,3.17-17.86.44-20.76l1.45-.63c5.25,7.62,4.77,17.41-.98,25.13-10.27,13.81-28.89,5.48-28.7,3.21l.43-1.7Z" fill="#efd8ab"/><path d="M55.96,124.21l.99.14c-.48,2.28-1.54,7.29-2.01,9.61-.25.04-1.58.15-1.64.66l.04,2.29-1.09.94c-4.19,1.41-6.87,2.98-11.94,3.95,0,0,.5-14.4.5-14.4l3.99,2.73,1.14-.5-3.84-4.53,13.86-.88ZM46.49,129.65l-.99,1.26,5.53,4.36.99-1.26-5.53-4.36Z" fill="#efd8ab"/><path d="M55.93,45.33c-.33,2.86-2.35,11.31-3.05,14.24,2.16,1.33,5.47,3.56,5.68,5.25.88,7.15-1.61,14.57-8.47,16.25l.06-1.18c1.65-1.26,4.58-3.12,5.34-5.15,0,0,1.85-8.83,1.85-8.83l-6.71.87c0-.21-.09-2.14-.08-1.83l5.51-.92-6.07-5.11c-1.53-1.29-6-1.39-7.55-.15-3.09,2.17-6.4,6.47-6.81,10.56-.42,5.44,4.11,9.42,7.66,9.77l.37,1.87c-6.87-.71-11.98-8.44-8.91-15.5l3.6-5.77c2.86-4.58,8.02-4.9,12.74-1.98l3.62-12.12,1.22-.26Z" fill="#605e5d"/><path d="M38.67,127.01l.21,15.06c-4.27-.99-7.55-2.33-10.58-4.18l-.15-2.52c.43.26,1.83.51,1.87,0l.15-1.41c.83-.22,2.21-1.05,2.8-1.68l2-2.16,2.05-2.81,1.66-.3Z" fill="#efd8ab"/><path d="M41.18,126.39c-.05.12-.37.85-.37,1.01l-.5,14.4c3.81-.83,6.25-1.63,8.88-2.87l1.07,1c-6.34,5.33-16.45,4.87-22.67-.72l-1.16-.49-.36-2.38c3.85,2.85,7.51,4.49,12.82,5.74,0,0-.21-15.06-.21-15.06l2.51-.63Z" fill="#6d6d6d"/><path d="M58.88,112.17c4.65,8.33,5.24,19.79-2.29,27.19l-3.84,3.77c-4.58,4.49-12.2,6.08-17.77,3.95l-5.6-2.14c-1.91-.73-3.98-2.95-5.36-4.22l1.41-1.66.98-.35,1.16.49-.43,1.7c-.18,2.27,18.43,10.6,28.7-3.21,5.74-7.72,6.22-17.51.98-25.13l2.05-.4Z" fill="#585755"/><path d="M25.44,139.07l-1.41,1.66c-4.62-4.25-7.09-10.17-5.91-17.16.39-2.28,3.13-3.95,5.55-3.55l1.49,2.13-4.6.59c-1.16,2.56-1.44,7.11.15,9.65l4.73,6.67Z" fill="#6d6d6d"/><path d="M10.3,100.32l-1.72-.18-.55-7.48c-.46-5.48-.92-16.57-.95-22.08,0,0,1.65-.02,1.65-.02l.52,12.52c.44,4.19.92,12.99,1.05,17.25Z" fill="#656565"/><path d="M52.25,137.85l1.09-.94-1.09.94Z" fill="#535251"/><path d="M55.38,113.19c2.73,2.9,4.47,15.88-.44,20.76.48-2.34,1.52-7.31,2.01-9.61,0,0,.12-2.02.12-2.02l-2.47-6.95c-.25-.69-2.35-1.96-2.66-1.6.11-.16.2-.57.31-.95l-3.23-5.04,1.19-.07,5.16,5.49Z" fill="#535251"/><path d="M54.94,133.96c-.19.92-1,2.3-1.6,2.95l-.04-2.29c.06-.51,1.4-.62,1.64-.66Z" fill="#535251"/><polygon points="52.25 137.85 50.26 139.93 49.19 138.93 52.25 137.85" fill="#535251"/><path d="M52.26,112.82c-.18,1.17-1.15,1.97-1.96,2.69,0,0-3.46,2.64-3.46,2.64l-3.74,2.24s-.03-.14-.07-.22l.21-2.6,5.28-2.59,3.74-2.16Z" fill="#6d6d6d"/><path d="M50.22,107.71l-1.19.07c-1.17.17-2.99,1.94-3.42,3.15-.58,1.63-2.62,7.39-3.19,8.9,0,0-1.81-2.15-1.81-2.15,1.95-4.63,4.13-8.53,7.42-13.32l2.2,3.35Z" fill="#6d6d6d"/><path d="M15.78,149.12l-1.15,1.24c-.95-.47-3.03-2.91-3.1-4.02l-.78-12.43,2.02,1.77.21,7.39c.04,1.55,1.33,5.55,2.81,6.05Z" fill="#6d6d6d"/><path d="M42.42,119.83c.29.18.72.29.68.56-.36.55-2.21,2.42-2.7,2.93,0,0,.78,3.07.78,3.07l-2.51.63-1.66.3,3.59-9.63,1.81,2.15Z" fill="#3e3e3e"/><path d="M28.93,159.56l-11.47-1.55-.29-1.83,7.35.96c1.56.28,2.54.29,4.4,2.42Z" fill="#656565"/><path d="M11.44,132.8l-1.33-10.55c-.44-3.47-.18-7.6.23-11.44l1.27,8.88c.59,4.11.22,8.89-.18,13.11Z" fill="#e4e4e3"/><path d="M58.85,92.98c-.05,2.9-4.37,2.9-4.42,0,.05-2.9,4.37-2.9,4.42,0Z" fill="#3e3e3e"/><path d="M46.49,79.32l3.66.57-.06,1.18c-1.9.47-3.35,1.37-6.13,2.96l-.3-3.08-.37-1.87c.78.09,2.42.2,3.21.23Z" fill="#4b4b4b"/><path d="M8.58,100.14l1.72.18c.14,3.2,1.6,5.89-.74,9.56l-.98-9.74Z" fill="#e4e4e3"/><path d="M18.81,63.42c.22,1.29.51,2.44.21,2.48l-1.88.29c-.47.07-.47-1.7-.42-2.59l2.09-.18Z" fill="#6d6d6d"/><path d="M37.01,127.31l-2.05,2.81.13-2.16c.09-.51,1.17-.8,1.92-.65Z" fill="#6d6d6d"/><path d="M41.26,96.59l-1.66.36-.79-2.19,2.55-.5c-.28.38-.36,1.92-.1,2.33Z" fill="#2f2f2f"/><path d="M30.16,133.97l-.15,1.41c-.04.5-1.44.26-1.87,0-.02-.38-.16-.83.14-.91l1.88-.49Z" fill="#6d6d6d"/><path d="M62.19,155.87c-3.07,3.59-6.54,3.55-10.23,2.26l10.23-2.26Z" fill="#656565"/><path d="M38.81,94.76l.79,2.19c.35.98.35,4-.46,4.72l-4.5,3.98-5.01-8.78c.32,1.61,2.09,9.69,2.19,11.16.16,1.06-6.96,1.38-12.08-3.86l-1.42-9.01,7.18.49.75-1.63-8.42-.84,7.39-6.69c1.72-1.56,7.09-.3,8.58.6-2.13,2.8-3.32,4.3-4.5,7l6.87-6.06,2.64,6.72Z" fill="#eeedec"/><path d="M50.15,79.89l-3.66-.57,2.02-5.79c.23.08-2.14-1.14-1.39-.7-2.08,2-1.7,1.72-4.36,3.12l.23,1.25,1.72,2.03c-4.41.04-9.38-3.75-9.08-9.9.26-3.41,3.18-7.67,5.61-9.61,1.77,2.14,3.25,3.7,6.42,5.3-1.77-2.88-3.2-4.48-5.22-6.25,1.55-1.23,6.02-1.14,7.55.15l6.07,5.11-5.51.92c-.01-.31.07,1.62.08,1.83l6.71-.87-1.85,8.83c-.76,2.03-3.69,3.88-5.34,5.15Z" fill="#e4e4e3"/><path d="M41.24,59.72l1.2-.95c2.02,1.77,3.45,3.37,5.22,6.25-3.17-1.6-4.65-3.16-6.42-5.3Z" fill="#6d6d6d"/><path d="M56,122.36l-.03,1.84-13.86.88,3.84,4.53-1.14.5-3.99-2.73c0-.16.33-.89.37-1.01l-.78-3.07c1.45.22,8-.21,9.58-.28,0,0,6.02-.67,6.02-.67Z" fill="#656565"/><path d="M57.08,122.33c-.56-.07-6.38.64-7.1.71,0,0-7.38.38-7.38.38l-.11-2.25.62-.77,3.74-2.24c1.27-1,4.24-3.02,5.11-4.38.31-.35,2.41.91,2.66,1.6l2.47,6.95Z" fill="#efd8ab"/><path d="M49.02,107.78l3.23,5.04-3.74,2.16-5.28,2.59,2.36-6.64c.43-1.21,2.25-2.98,3.42-3.15Z" fill="#e4e4e3"/><polygon points="43.03 120.17 42.42 119.83 43.24 117.57 43.03 120.17" fill="#e4e4e3"/><polygon points="56.95 124.35 55.96 124.21 56 122.36 57.08 122.33 56.95 124.35" fill="#c2bfb9"/><polygon points="42.6 123.41 40.4 123.32 42.48 121.16 42.6 123.41" fill="#c2bfb9"/><path d="M46.49,79.32l-1.79-.09-1.72-2.03-.23-1.25c2.66-1.4,2.28-1.12,4.36-3.12-.75-.44,1.62.78,1.39.7l-2.02,5.79Z" fill="#605e5d"/><rect x="47.96" y="128.93" width="1.61" height="7.05" transform="translate(-85.46 88.79) rotate(-51.77)" fill="#656565"/></g></svg>