<?xml version="1.0" encoding="UTF-8"?><svg id="Layer_2" xmlns="http://www.w3.org/2000/svg" viewBox="0 0 52.2 114.67"><g id="Layer_1-2"><path d="M35.05,22.2l-.54,4.36-.86,7.03-13.01.04-6.59-.86-11.13-2.15-.15-3.76,8.17-1.71,5.72-1,2.08-.02,5.87-.57,5.7-.5c.75-.06,2.5-.54,2.8-.67l1.93-.19Z" fill="#f1efed"/><path d="M43.36,1.48l1.05,1.63-.58,1.61,4.74-.11-.24,1.34-4.58,1.31-2.55,13.05c-.15.77.63,2.97,1.33,3.23l8.16,3.11c1.17.45,1.5,4.29,1.52,5.13l-1.89.05c-9.62,2.54-22.71,4.7-32.75,3.16l-11.53-1.77c-.61-.09-2.72-1.53-2.59-1.83l-.51-.78,11.13,2.15,6.59.86,13.01-.04.86-7.03.54-4.36.84-2.77,2.55-14.35c.34-1.89,3.32-3.17,4.92-3.6ZM42.81,4.92c0-.6-.48-1.08-1.08-1.08s-1.08.48-1.08,1.08.48,1.08,1.08,1.08,1.08-.48,1.08-1.08ZM38.08,27.69l2.56-14.19,1.04-5.76c.17-.7-1.87-.57-1.95.09l-1.17,6.5-1.77,9.73c-.6,3.32-.86,6.06-.52,10.02.81-1.95,1.36-3.87,1.82-6.38ZM50.63,29.12c-4.48-2.57-6.35-3.13-10.23-4.01l-1.37,7.76,11.6-3.75Z" fill="#595858"/><path d="M49.55,79.81l-1.62,27.82c-.12,2.11-4.84,4.52-6.92,4.89l-8.96,1.6c-4.35.78-9.89.73-14.04-.09l-8.15-1.6c-3.16-.62-5.75-3.74-5.65-6.54l1.85.06c.22,1.18,1.25,3.7,2.41,4.06,15.69,4.85,36.96,1.99,37.59-2.94.13-.99-.55-2.79-1.06-3.48-.14-.17-.47-.52-.45-.68.82.12,1.68-.17,1.72-.74l.16-2.11.73-9.8.38-7.65c.04-.73.58-2.42.8-2.92l1.2.12Z" fill="#615d59"/><polygon points="2.5 49.03 3.14 52.9 3.65 66.31 4.24 75.98 4.94 86.58 5.25 95.18 3.35 95.02 2.92 86.59 2.3 78.44 1.75 66.36 1.06 52.99 .45 43.34 2.33 42.38 2.5 49.03" fill="#747372"/><polygon points="52.2 31.79 50.67 61.32 50.27 71.18 48.43 71.14 48.52 61.79 49.28 57.55 49.47 49.06 50.31 31.83 52.2 31.79" fill="#615d59"/><path d="M2.45,25.6l.33,1.25.15,3.76.51.78-1.3.56c-.33.14-.37,1.24-.35,1.63l.53,8.8-1.88.97-.38-6.84L0,28.09c0-.71,1.81-2.2,2.45-2.49Z" fill="#4c4d4c"/><path d="M48.33,5.95l.24-1.34,1.28-2.49-5.44.99-1.05-1.63L48.54.04c.89-.25,3.31.73,3.51,1.63s.07,3.2-.81,3.45l-2.91.82Z" fill="#747372"/><circle cx="4.71" cy="18.73" r="2.25" fill="#595858"/><path d="M33.12,22.39c-.29.13-2.05.6-2.8.67l-5.7.5-5.87.57-.02-1.94,14.39.21Z" fill="#595858"/><path d="M10.03,23.28l.93,1.86-8.17,1.71-.33-1.25c1.86-.85,5.29-1.96,7.58-2.32Z" fill="#747372"/><polygon points="50.27 71.18 49.93 75.58 49.55 79.81 48.35 79.69 48.43 71.14 50.27 71.18" fill="#3a3939"/><circle cx="12.81" cy="12.44" r="1.81" fill="#4c4d4c"/><polygon points="16.65 22.24 16.68 24.14 10.96 25.14 10.03 23.28 16.65 22.24" fill="#595858"/><polygon points="5.25 95.18 5.3 101.8 4.33 101.9 3.82 98.38 3.35 95.02 5.25 95.18" fill="#4c4d4c"/><polygon points="6.07 105.95 4.22 105.89 4.33 102.84 5.48 102.81 6.07 105.95" fill="#4c4d4c"/><polygon points="18.73 22.19 18.75 24.13 16.68 24.14 16.65 22.24 18.73 22.19" fill="#747372"/><polygon points="5.48 102.81 4.33 102.84 4.33 101.9 5.3 101.8 5.48 102.81" fill="#615d59"/><path d="M3.45,31.39c-.14.3,1.97,1.74,2.59,1.83l11.53,1.77c10.03,1.54,23.13-.62,32.75-3.16l-.85,17.23-1.34-.06-4.52-1.99c-1.57-.69-4.94-.82-6.64-.9l1.45-8.17.37-1.91c.08-.42-1.82-.61-1.89-.18l-1.34,8.3-1.51,7.03-1.71,1.23-.14-3.38,1.44-6.24c.34-1.45.22-3.85-.2-5.4-1.1,2.95-2.15,6.39-2.21,8.55-.8-.26-3.57-.86-4.78-.79l-11.74.63c-.57.03-2.63,1.31-2.55,1.33l-2.16-.03c-1.54-.02-3.91.67-4.91,1.65-.25.25-.71.99-.77,1.34l-1.8-1.04-.16-6.65-.53-8.8c-.02-.39.02-1.49.35-1.63l1.3-.56Z" fill="#f1efed"/><path d="M38.08,27.69c-.45,2.51-1.01,4.43-1.82,6.38-.34-3.96-.08-6.7.52-10.02l1.77-9.73,1.17-6.5c.08-.66,2.12-.79,1.95-.09l-1.04,5.76-2.56,14.19Z" fill="#d1d1cf"/><path d="M50.63,29.12l-11.6,3.75,1.37-7.76c3.88.88,5.75,1.45,10.23,4.01Z" fill="#eae4d9"/><polygon points="48.57 4.61 43.83 4.71 44.41 3.11 49.85 2.11 48.57 4.61" fill="#d1d1cf"/><circle cx="41.73" cy="4.92" r="1.08" fill="#9c9c9b"/><path d="M4.3,50.07c-.09.47-.17,1.45-.11,1.92l.54,4.37.65,5.16-.15,1.97.03,4.79.61,4.9.69,13.31.53,8.75.59,8.06c.13,1.78,4.37,3.31,6.35,3.73l-2.51,1.58,7.34,1.43c1.04-.66,3.22-1.65,4.52-1.71l6.97-.3,7.6-.32-6.16,2.51,7.01-.48c.58-.04,1.68-2.21,1.85-2.63l4.37-3.53c.51.69,1.19,2.5,1.06,3.48-.63,4.94-21.9,7.79-37.59,2.94-1.17-.36-2.19-2.89-2.41-4.06l-.59-3.14-.18-1.01-.05-6.62-.31-8.6-.7-10.61-.6-9.66-.51-13.41-.64-3.88,1.8,1.04Z" fill="#d1d1cf"/><path d="M34.68,53.98l.32,5.98,5.63,3.82c.97.66,1.1,3.55,1.09,4.72l-5.95-6.64c-1.44,2.08-2.62,4.03-2.71,5.43l-6.05.64c-.9.12-1,3.68-.24,4.18l3.28,2.16.93,1.66c-1.45.14-3.3,2.19-3.7,3.71-.33,1.27.75,4.4,1.57,4.72,3.09-.72,7.26-.88,9.5.68,1.35.94,3.45,4.7,3.11,6.29l-1.49,6.81c-2.93,1.52-6.98,2.68-9.76,2.01-4.32-1.03-6.38-4.97-5.67-8.7l-6.72.91-3.86.31-1.13-1.72c-.27-.41-1.27-.49-1.74-.37l-1.63.42c-.27,3.05-.51,8.45-.11,11.54.2,1.53,4.02,3.23,5.59,3.32l14.2.86,7.41-.32c1.72-.07,5.78-1.65,6.02-3.36l.69-4.83.74-7.87.28-5.04.64-11.36.71-5.67.59-3.94.24,12.35-.75,4.21-.46,13.21-.68,8.79c-.01.16.32.51.45.68l-4.37,3.53c-.17.42-1.26,2.59-1.85,2.63l-7.01.48,6.16-2.51-7.6.32-6.97.3c-1.29.06-3.47,1.05-4.52,1.71l-7.34-1.43,2.51-1.58c-1.98-.42-6.22-1.95-6.35-3.73l-.59-8.06-.53-8.75-.69-13.31-.61-4.9,1.41.06c.36.03.45,1.25.46,1.78l.13,5.74c.02.85,1.4,2.87,1.82,2.95l-.26,1.67-1.05,6.88c.39.89,2.34.97,2.31.11l-.08-7.13c.98-1,2.97-2.94,2.92-4.3l4.57-1.28c.48-.16,2.02-.71,2.37-.35l1.63,1.72-2.62.69c-.83,2.62-1.87,4.79-3.56,6.03-.3-.11-1.96-.69-1.78-.63,2.43-1.83,3.11-2.23,3.58-4.78-1.76.22-5.26,1.97-5.23,3.31l.14,6.83c.02,1.2,2.48,2.83,3.65,3.02l5.39.87,1.59-2.59-2.48-.09c.36-1.26,1.12-3.28,1.82-3.08l3.03.82c1.05-2.09.52-4.98-1.03-7.01l-1.78-2.32,3.13-.34.41,2.13.95-1.76c.21-.39.72-1.28.49-1.51l-.82-.8c-.55-.53-1.57-2.12-1.62-2.91l-.34-4.63.96-.6c.28-.17.38-1.11.26-1.41,3.96-.85,1.35-5.88,3.91-9.96l.96,5.5c.58-.41,2.14-2.01,2.14-2.79l-.45-3.68,2.46-.46ZM32.22,64.28l-1.48-1.76-2.63,4.42,4.11-2.66ZM26.65,94.49c1.45,3.66,4.97,4.8,8.4,3.8,2.76-.8,4.9-2.84,4.94-6.07.03-2.56-1.65-4.76-3.88-5.95-2.09-1.12-4.83-1.08-6.34.79-.72.89-1.55,3.05-1.46,3.24l2.52-.69c.39-.11.75,1.3.36,1.39l-1.9.46-2.52.61c-.36.09-.26,2.07-.12,2.43ZM24.92,89.41l-.48.48.48.48.48-.48-.48-.48ZM14.73,108.14l4.06.07-4.06-.07Z" fill="#503824"/><path d="M10.03,57.81l.16,1.03v.74s-.34,5.09-.34,5.09c-.07,1.03,1.9,2.71,2.84,3.2,1.64.84,4.39,1.31,6.12.81,1.51-.71,3.17-1.93,3.85-3.12l1.87-3.15,1.12,2.97c-.27.27-1.31.31-1.28.63l.06,1.38-3.64,2.28c-1.72,1.08-5.87,1.41-8.02,1.36-.05-1.35-2.41-3.11-3.68-3.62l-1.09-9.75,2.03.16Z" fill="#503824"/><path d="M48.43,71.14l-.08,8.55c-.21.5-.76,2.19-.8,2.92l-.38,7.65-.73,9.8-.16,2.11c-.04.57-.9.87-1.72.74l.68-8.79.46-13.21.75-4.21-.24-12.35.99-6.02.31-6.2.61-3.13,1.34.06-.19,8.49-.76,4.23-.09,9.35Z" fill="#c3c4ac"/><path d="M45.49,51.81l-5.33,1.14-5.48,1.02-2.46.46-10.69.07-1.84-2.37,11.24-.1c.24,0,1.02.25,1.4.37l1.71-1.23.93.18,1.05-.07c.27.18,2.47.48,3.19.24l5.77-1.96.52,2.23Z" fill="#e0bd7c"/><path d="M48.13,49l-.61,3.13-2.03-.31-.52-2.23-5.77,1.96c-.71.24-2.92-.05-3.19-.24l.08-3.13,5.6-.07c.45,0,2.32-.64,1.92-1.09l4.52,1.99Z" fill="#d08537"/><path d="M31.21,45.94l-.06,2.2c-.17-.29-2.27-.95-3.03-.94l-9.16.1-7.06.85.25-1.04c-.08-.02,1.98-1.3,2.55-1.33l11.74-.63c1.21-.06,3.97.53,4.78.79Z" fill="#6a553f"/><path d="M36.96,46.11c1.71.08,5.08.21,6.64.9.41.45-1.47,1.08-1.92,1.09l-5.6.07-.08,3.13-1.05.07-.93-.18,1.51-7.03c.32.75.81,1.93,1.42,1.96Z" fill="#6a553f"/><path d="M32.18,49.03l-1.03.06v-.95s.06-2.2.06-2.2c.06-2.16,1.11-5.59,2.21-8.55.42,1.55.54,3.95.2,5.4l-1.44,6.24Z" fill="#615d59"/><path d="M36.96,46.11c-.61-.03-1.09-1.21-1.42-1.96l1.34-8.3c.07-.43,1.98-.24,1.89.18l-.37,1.91-1.45,8.17Z" fill="#595858"/><path d="M9.98,47.08l-.31,2.85-3.28-.73-1.33-.46c1-.98,3.37-1.67,4.91-1.65Z" fill="#6a553f"/><path d="M12.15,47.11l-.25,1.04.05,2.37c.03,1.22,4.07-.73,4.7.1l1.16,1.53-2.06.67-2.64.07c-.7-.94-2.29-2.71-3.43-2.97l.31-2.85,2.16.03Z" fill="#d08537"/><path d="M6.4,49.19l.03,1.81-2.24.99c-.06-.47.02-1.45.11-1.92.07-.35.52-1.09.77-1.34l1.33.46Z" fill="#d08537"/><path d="M32.32,52.41c-.38-.12-1.15-.38-1.4-.37l.23-2.95,1.03-.06.14,3.38Z" fill="#6a553f"/><path d="M8,57.65l1.09,9.75.25,5.61-.26,5.8c-.42-.09-1.8-2.1-1.82-2.95l-.13-5.74c-.01-.53-.1-1.74-.46-1.78l-1.41-.06-.03-4.79c.34.08,1.04-.79.79-1.12l-.64-.86-.65-5.16-.54-4.37,2.24-.99c.66,2.03,1.34,4.6,1.57,6.65Z" fill="#6e3b17"/><path d="M5.23,63.5l.15-1.97.64.86c.25.33-.45,1.2-.79,1.12Z" fill="#503824"/><path d="M44.92,73.96l-.64,11.36-.28,5.04-.74,7.87-.69,4.83c-.24,1.7-4.31,3.28-6.02,3.36l-7.41.32-14.2-.86c-1.58-.1-5.4-1.8-5.59-3.32-.4-3.1-.16-8.5.11-11.54l1.63-.42.66,7.27.69,3.47c.1.51,2.52.1,2.39-.37l-.88-3.22v-5.06s3.88-.31,3.88-.31l6.72-.91c-.71,3.72,1.35,7.67,5.67,8.7,2.78.66,6.83-.49,9.76-2.01l1.49-6.81c.35-1.59-1.75-5.35-3.11-6.29-2.24-1.56-6.41-1.4-9.5-.68-.82-.32-1.91-3.45-1.57-4.72.4-1.52,2.25-3.58,3.7-3.71l1.11-.11.27,1.46c.23,1.25,6.67,1.01,9.86-3.55l2.69.23Z" fill="#6e3b17"/><path d="M45.49,51.81l2.03.31-.31,6.2-.99,6.02-.59,3.94-.71,5.67-2.69-.23-.54-1.79.03-3.45c.01-1.17-.12-4.06-1.09-4.72l-5.63-3.82-.32-5.98,5.48-1.02,5.33-1.14ZM43.77,58.52c-.93-1.06-2.05-1.96-2.21-1.52l-.78,2.17,2.99-.65Z" fill="#774a25"/><path d="M15.32,82.84l.37,7.75c-1.17-.19-3.63-1.81-3.65-3.02l-.14-6.83c-.03-1.34,3.47-3.09,5.23-3.31-.47,2.55-1.15,2.95-3.58,4.78-.18-.06,1.48.52,1.78.63Z" fill="#d1d1cf"/><path d="M12.77,71.02l.17,5.02c.05,1.36-1.94,3.3-2.92,4.3l-1.19.15.26-1.67.26-5.8-.25-5.61c1.27.51,3.64,2.27,3.68,3.62Z" fill="#c3c4ac"/><path d="M13.96,92.68v5.06s-2.21.12-2.21.12l-.66-7.27c.47-.12,1.47-.04,1.74.37l1.13,1.72Z" fill="#eccc92"/><path d="M10.02,80.34l.08,7.13c.02.87-1.93.79-2.31-.11l1.05-6.88,1.19-.15Z" fill="#6e3b17"/><path d="M18.78,108.21l-4.06-.07,4.06.07Z" fill="#d1d1cf"/><path d="M31.15,48.14v.95s-.23,2.95-.23,2.95l-11.24.1-1.88.02-1.16-1.53c-.62-.83-4.67,1.12-4.7-.1l-.05-2.37,7.06-.85,9.16-.1c.76,0,2.86.66,3.03.94Z" fill="#a47148"/><path d="M32.21,54.44l.45,3.68c0,.79-1.56,2.38-2.14,2.79l-.96-5.5c-2.55,4.08.05,9.11-3.91,9.96l-1.12-2.97-1.24-1.72-.73-2.92-1.04-3.26,10.69-.07Z" fill="#774a25"/><path d="M26.39,74.92l-1.03,1.93-3.13.34-.73-1.07-1.63-1.72c-.34-.36-1.88.19-2.37.35l-4.57,1.28-.17-5.02c2.16.05,6.3-.28,8.02-1.36l3.64-2.28.34,4.63c.05.79,1.07,2.37,1.62,2.91Z" fill="#774a25"/><path d="M24.43,67.38l-.06-1.38c-.02-.32,1.01-.36,1.28-.63.11.3.01,1.24-.26,1.41l-.96.6Z" fill="#774a25"/><path d="M19.68,52.14l1.84,2.37,1.04,3.26.73,2.92-2.24-2.24-1.42-3.18c-.29-.65-2.27-.72-2.81-.7l-1.08-1.73,2.06-.67,1.88-.02Z" fill="#503824"/><path d="M9.68,49.93c1.13.25,2.72,2.03,3.43,2.97l-1.12,3.86-.05,1.74c-.34-.29-.6-.54-.76-.56l-1.14-.12-2.03-.16c-.23-2.05-.91-4.62-1.57-6.65l-.03-1.81,3.28.73Z" fill="#e7d6b8"/><path d="M41.72,68.5l-.03,3.45-2.02.39c-.51.13-.6,2.44-.99,2.8-1.25,1.16-4.76,1.36-6.58.69l-1.11.11-.93-1.66c2.29-2.09,2.82-3.95,3.01-6.98.09-1.41,1.27-3.35,2.71-5.43l5.95,6.64Z" fill="#d08537"/><path d="M41.69,71.94l.54,1.79c-3.19,4.56-9.63,4.8-9.86,3.55l-.27-1.46c1.82.67,5.33.48,6.58-.69.39-.36.47-2.68.99-2.8l2.02-.39Z" fill="#503824"/><path d="M13.95,97.75l.88,3.22c.13.47-2.29.88-2.39.37l-.69-3.47,2.2-.12Z" fill="#b8bc65"/><path d="M43.77,58.52l-2.99.65.78-2.17c.16-.45,1.28.45,2.21,1.52Z" fill="#a47148"/><path d="M26.65,94.49c-.14-.35-.23-2.34.12-2.43l2.52-.61,1.9-.46c.39-.09.03-1.5-.36-1.39l-2.52.69c-.1-.2.74-2.35,1.46-3.24,1.51-1.87,4.25-1.91,6.34-.79,2.22,1.19,3.91,3.39,3.88,5.95-.04,3.23-2.18,5.27-4.94,6.07-3.43,1-6.95-.14-8.4-3.8Z" fill="#c3c4ac"/><path d="M33.06,67.29c-.19,3.03-.72,4.89-3.01,6.98l-3.28-2.16c-.76-.5-.66-4.06.24-4.18l6.05-.64Z" fill="#d1d1cf"/><path d="M25.36,76.85l1.03-1.93.82.8c.23.23-.28,1.12-.49,1.51l-.95,1.76-.41-2.13Z" fill="#d08537"/><polygon points="32.22 64.28 28.11 66.94 30.74 62.51 32.22 64.28" fill="#e4a55f"/><rect x="24.58" y="89.55" width=".68" height=".68" transform="translate(-56.26 43.95) rotate(-45)" fill="#6e3b17"/><path d="M21.5,76.12l.73,1.07,1.78,2.32c1.55,2.03,2.08,4.91,1.03,7.01l-3.03-.82c-.7-.19-1.46,1.82-1.82,3.08l2.48.09-1.59,2.59-5.39-.87-.37-7.75c1.69-1.25,2.73-3.41,3.56-6.03l2.62-.69Z" fill="#e0bd7c"/><path d="M21.06,58.44l2.24,2.24,1.24,1.72-1.87,3.15-4.9-1.36-4.88.06c-.05-1.41-1.48-3.89-2.68-4.67v-.74s.97-.91.97-.91c.17.02.42.27.76.56l4.39-.45,4.74.4Z" fill="#e0bd7c"/><path d="M21.06,58.44l-4.74-.4-4.39.45.05-1.74,4.84-2.19c.54-.02,2.52.05,2.81.7l1.42,3.18Z" fill="#f5eee2"/><polygon points="15.74 52.83 16.82 54.56 11.98 56.75 13.1 52.89 15.74 52.83" fill="#7c7c7b"/><polygon points="10.2 58.84 10.03 57.81 11.17 57.93 10.2 58.84" fill="#7c7c7b"/><path d="M17.76,64.19l1.05,4.49c-1.73.49-4.48.03-6.12-.81l.18-3.62,4.88-.06Z" fill="#e4a55f"/><path d="M12.88,64.24l-.18,3.62c-.94-.48-2.91-2.16-2.84-3.2l.34-5.09c1.2.78,2.63,3.26,2.68,4.67Z" fill="#eae4d9"/><path d="M22.67,65.55c-.68,1.19-2.34,2.41-3.85,3.12l-1.05-4.49,4.9,1.36Z" fill="#a47148"/></g></svg>