<?xml version="1.0" encoding="UTF-8"?><svg id="Layer_2" xmlns="http://www.w3.org/2000/svg" viewBox="0 0 79.7 113.39"><g id="Layer_1-2"><path d="M12.58,49.38l.11,5.3c.78-.4,2.15-1.11,2.4-1.58l1.3-2.48c.51.19.83.46.86.73l.5,4.26.25,2.18c.41.06,1.86.2,1.96-.28l.24-2.11c-.06-.08.64-1.91,1.11-1.91l5.28.02,2.4,2.61-1.02,2.15.07,5.46c.02,1.24,1.47,3.02,2.95,4.61l-.94,5.12-1.88.09c-1.06-2.63-3.35-5.95-6.17-7.4-1.47-.76-5.13.07-6.47.89l.15-3.45c.12-1.3-1.37-3.5-3.35-4.7l-1.95,11c-2.28,2.93-2.45,7.36.52,10.23l-1.93,3.74c-.8,1.55.1,5.08.44,7.19l.89,5.63-3.35-1.04.72,2.13,2.99,4.63c.35.54,1.15,2.12,1.79,2.49,3.15,1.79,8.95,4.18,12.53,4.21l9.66.08,1.13-.89c3.35.09,6.99-1.06,10.61-3.01,1.09-.58,2.11-2.78,2.85-3.63l6.08-7.06-.13,2.97,4.63-.1c1.09-.02,3.24-.91,3.92-1.7l.92-1.06,1.73-1.99c.47-.54,1.44-1.42,2-1.69.65-.31,2.22-.4,2.37-1.11l.79-3.73.83-3.84.54-1.63c.13-.4-1.53-.7-1.63-.66l.11-1.78c.92-1.91-.08-5.15-1.78-6.74l-3.73.9c-.7-1.95-1.54-4.18-2.6-5.03-.59-.47-2.55-.46-3.39-.45l-5.03.05,1.97,10.1c.06.29.99,1.84,1.01,1.32l-.11,2.88-1.32-.13c-.36-.07-.45-1.26-.5-1.77l-.82-1.81-.88-4.47-2.01-8.77c-.06-.27-1.83-.09-1.83.18v1.35s-2.43,0-2.43,0l-.02-8.2-4.06-2.76c-.61-.42-1.81-1.35-1.72-1.9l.37-2.12,8.5-2.33c.2.4.65,1.39,1.12,1.06l.67,2.83.92,3.93.22,3.87.97.87v.94s.05,1.61.05,1.61l8.31-.62-.52,2.21c-.08.32,1.06.68,1.46.84l6.22,2.46,2.49,5.01c5.15,10.34.13,20.28-9.55,24.95-2.34,1.13-3.98,3.75-7.32,1.9l-1.52-.84c-.83-.46-3.15,5.68-8.42,8.34-9.7,4.9-26.06,4.77-34.17-1.14-7.92-5.77-10.76-15.36-9.93-25.52l.69-8.49c.05-.56-.23-2.8-.46-2.28l.11-.79c0,.32,1.14,1.14,1.26.77l.69-2.16,1.07-3.52c.94.04,2.26-2.43,2.62-3.62.22-.76-.84-3.43-1.4-2.89l.84-7.83,2.31-1.7,2.82.6Z" fill="#eae4d9"/><path d="M54.87,56.28l-1.13.12-.92-3.93-.67-2.83.08-12.33,1.13-9.55-4.11.97-2.49,8.97-1.61,6.32-1.48,5.05-1.81-.54,5.24-17.93c.35.23-1.13-.73-1.63-1.08l-5.3,17.24c-.13.44-.98,1.78-.97,1.8.01.02-.85-.95-.89-.99l.37-3.14-3.86.31.13-1.94,4.91-.41,3-10.2-.92-2.07-6.79.59-9.9.39-7.02-.71-.2-1.9,4.38.89,21.65-1.53,1.63-6.99-4.21-.81.12-1.56,4.7.29,4.07-14.59c.39-1.39,3.46-3.11,4.72-3.26L62.4,0c1-.12,2.28,2.95,1.75,3.82-.44.72-1.97,1.69-2.89,1.89l-5.89,1.23-3.57,13.54,3.81,2.21-.9,9.02c-.6,6.01-1.15,12.45-.48,18.64l.64,5.92ZM61.45,4.14c.04-1.86-.54-2.63-1.48-2.49l-5.23,2.4,6.71.09ZM48.54,24.67l4.62-16.9c.16-1.37-2.51-1.76-1.96-.02l-4.45,16.55-.48,1.78c-.11.39,1.43.98,1.56.6l.71-2.01ZM53.36,24.25c.21-.57-2.44-1.86-2.55-1.3l-.65,3.38c.16.47,2.85-1.13,3.2-2.08Z" fill="#595858"/><path d="M2.27,70.51c.24-.52.51,1.72.46,2.28l-.69,8.49c-.83,10.16,2.01,19.74,9.93,25.52,8.11,5.92,24.47,6.04,34.17,1.14,5.27-2.66,7.59-8.8,8.42-8.34l1.52.84c3.34,1.85,4.97-.77,7.32-1.9,9.68-4.66,14.7-14.6,9.55-24.95l-2.49-5.01-6.22-2.46c-.41-.16-1.54-.52-1.46-.84l.52-2.21-8.31.62-.04-1.61,4.76-1.2c9.58.22,17.91,7.32,19.6,16.54,1.37,7.43-.84,14.19-5.7,19.17-4.64,4.75-11.56,7.33-18.89,5.99-8.91,12.71-30.81,13.56-43.43,5.99C1.8,102.88-1.58,88.46.67,77.95l1.6-7.44ZM66.08,64.4l-.63.1.63.1h.65l.63-.1-.63-.1h-.65ZM76.99,77.59c.47-4.13-3.11-9.48-6.38-10.98l4.71,8.71c.31.58,1.03,1.51,1.67,2.27ZM73.94,93.32l2.55-4.88c.43-.83,1.52-3.39,1.47-4.3l-.33-6.75-1.75,9.71c-.27,1.48-1.69,3.99-2.78,5.97.15.04,1.2.34.85.24Z" fill="#615d59"/><path d="M6.84,40.03c.53,3.26.93,7.41.61,10.44l-.84,7.83-1.22,6.51-1.07,3.52-.69,2.16c-.12.37-1.25-.45-1.26-.77l2.86-17.16c.7-4.17.35-8.91-.28-12.48l1.88-.05Z" fill="#676665"/><path d="M41.62,18.47l-.12,1.56-7.06-.85c-4.78-.57-10.01-.3-15.1.42l-10.31,1.45-.21-1.31,6.63-1.5,12.65-1.08c2.97-.25,6.57.03,9.52.57l4,.74Z" fill="#676665"/><path d="M4.74,24.82l1.16,1.06-.19,1.69c0-.18-.64,1.53-.57,1.94l1.7,10.52-1.88.05-2.28-12.86c-.15-.86.05-2.8.31-3.53l1.75,1.14Z" fill="#595858"/><path d="M8.83,19.74l.21,1.31-2.15,1.61-2.14,2.16-1.75-1.14c.65-1.8,3.69-3.46,5.84-3.95Z" fill="#747372"/><polygon points="54.93 61.14 53.96 60.26 53.74 56.39 54.87 56.28 54.93 61.14" fill="#9c9c9b"/><path d="M50.38,65.88l.7,1.86,2.36,9.93,1.66-.08.82,1.81c.05.51.14,1.69.5,1.77l1.32.13-.43,5.87c-.19,2.56-.7,5.9-2,7.41l-6.08,7.06-3.45,1.41-7.76,3.82c-.89.44-1.88.85-2.25,1.41l-1.06-.03-9.56-.15-2-.69-9.62-3.8-2.88-1.22-2.99-4.63-.72-2.13,3.35,1.04c.18,1.12,1.84,2.52,2.64,3.32.89.89,2.82,2.15,4.2,2.54.42.12,2.39-.3,2.28-.68l-.55-1.98c-.2-.73-.84-3.05-.14-3.3l3.31-1.21,2.89,4.44c3.9,4.58,11.95,4.63,15.81.19,3.01-3.47,4.86-8.26,3.25-12.95-.74-2.16-4.42-4.82-6.34-5.62l-1.7-2.46c-.75-.91-1.53-3.47-.88-4.46l2.25-3.47c5.05.81,8.39-1.73,10.62-5.15h2.43Z" fill="#e7d6b8"/><path d="M18.26,30.37l7.02.71,9.9-.39,6.79-.59.92,2.07-3,10.2-4.91.41c-1.32.11-4.3.19-5.63-.39-4.22-1.84-8.88-2-13.29.42l-6.36,1.27.06,4.68-2.31,1.7c.33-3.03-.08-7.18-.61-10.44l-1.7-10.52c-.07-.4.57-2.12.57-1.94l12.56,2.79Z" fill="#f1efed"/><path d="M28.18,73.55l1.88-.09c.47-.02,1.56-.11,1.78-.53l1.07-2c.23-.43,1.38-1.37,1.64-1.09l-.88,4.4-.64,3.21-1.07.95-2.02-2.07-1.01,1.09-1.19,2.14c-1.06-.38-3.17.38-4.1.8l-2-1.23c-.75-.46-3.42.33-3.71.85l.72,3.34-4.15.65c-.4.06-1.34,1.17-1.45,1.57l-1.45,4.93c1.32.42,3.24,1.02,3.11,1.73h-2.5s.17,3.61.17,3.61c.01.3,1.41.6,1.58.49l-1.01,3.68c-.8-.8-2.46-2.2-2.64-3.32l-.89-5.63c-.33-2.11-1.23-5.65-.44-7.19l1.93-3.74c1.47-2.85-2.22-7.46,1.6-9.25l7.21-3.38c4.76.88,5.73,5.93,8.46,6.07Z" fill="#f8f6f4"/><path d="M34.84,44.73l3.86-.31-.37,3.14-2.3,1.69c-.71.52-2.52.72-4.52,1l-.08,1.22,3.58,2.21-.23.96-.72.03-5.06,1.45-2.4-2.61-5.28-.02c-.47,0-1.17,1.83-1.11,1.91l-2.45.21-.5-4.26,3.92.69c.81.15,2.64-.7,3.92-1.44l-6.64-1.68c-.38-.1-1.77,0-1.83.35l-.23,1.35-1.3,2.48c-.24.46-1.62,1.18-2.4,1.58l-.11-5.3c-.02-.78-.75-1.66-1.99-3.41l7.27-2.19c8.85-2.66,9.72,1.53,16.97.95ZM24.43,44.8l-3.75.75.45,2.28,3.75-.75-.45-2.28Z" fill="#f1efed"/><path d="M28.18,73.55c-2.74-.14-3.7-5.19-8.46-6.07l-7.21,3.38c-3.82,1.79-.13,6.4-1.6,9.25-2.98-2.87-2.8-7.29-.52-10.23l5.16-2.84c1.34-.82,5-1.65,6.47-.89,2.82,1.45,5.11,4.78,6.17,7.4Z" fill="#747372"/><path d="M34.98,42.79l-.13,1.94c-7.25.58-8.12-3.62-16.97-.95l-7.27,2.19c1.24,1.75,1.97,2.63,1.99,3.41l-2.82-.6-.06-4.68,6.36-1.27c4.41-2.42,9.07-2.26,13.29-.42,1.33.58,4.31.5,5.63.39Z" fill="#747372"/><path d="M15.55,67.04l-5.16,2.84,1.95-11c1.98,1.2,3.48,3.41,3.35,4.7l-.15,3.45Z" fill="#f1efed"/><path d="M34.71,69.04l-.16.8c-.25-.28-1.4.66-1.64,1.09l-1.07,2c-.22.42-1.31.5-1.78.53l.94-5.12c-1.48-1.59-2.94-3.36-2.95-4.61l1.89.35,1.87,2.51,2.15-3.8,1.76,1.87-3.41,2.19,2.39,2.17Z" fill="#7c7c7b"/><path d="M25.17,108.1l-.18.99c-3.59-.03-9.39-2.42-12.53-4.21-.64-.37-1.44-1.95-1.79-2.49l2.88,1.22,9.62,3.8,2,.69Z" fill="#747372"/><path d="M17.26,51.35c-.03-.27-.35-.54-.86-.73l.23-1.35c.06-.35,1.45-.44,1.83-.35l6.64,1.68c-1.28.74-3.11,1.59-3.92,1.44l-3.92-.69Z" fill="#747372"/><path d="M5.39,64.81l1.22-6.51c.56-.55,1.63,2.13,1.4,2.89-.35,1.18-1.68,3.66-2.62,3.62Z" fill="#f1efed"/><path d="M20.21,55.39l-.24,2.11c-.1.48-1.55.34-1.96.28l-.25-2.18,2.45-.21Z" fill="#7c7c7b"/><polygon points="29.94 64.09 28.05 63.74 27.98 58.27 28.9 58.15 29.94 64.09" fill="#3a3939"/><polygon points="34.05 54.67 28.9 58.15 27.98 58.27 29 56.12 34.05 54.67" fill="#7c7c7b"/><path d="M42.52,50.91l-.37,2.12c-.1.55,1.11,1.48,1.72,1.9l4.06,2.76.02,8.2c-2.23,3.42-5.57,5.96-10.62,5.15l-2.25,3.47-1.41-.27.88-4.4.16-.8,1.98-.1c.08.38,1.44.86,1.98.84,1.99-.05,5.41-1.64,6.81-3.21,1.32-1.48,2.35-6.72.66-7.8l-7.59-4.86-3.03,3.26-.77-2.52.23-.96,1.53-3.26c-.18-.14,1.6,1.12,2.73,1.92l2.89-2.8.37,1.36Z" fill="#615d59"/><path d="M52.14,49.64c-.47.33-.92-.66-1.12-1.06-.32-.63-.06-2.76-.67-2.99l-4.24-1.58c-.13-.05-.4-.01-.96.01l1.61-6.32,2.49-8.97,4.11-.97-1.13,9.55-.08,12.33Z" fill="#f1efed"/><path d="M69.29,82.31l1.9-.05,1.19.09-.83,3.84-3.16,4.83c-.56.26-1.53,1.15-2,1.69l-1.73,1.99-3.62-8.4-1.52.57c.01-.53.12-1.85.66-1.83l2.31.17,1.51.91.49-.52-2.22-1.33-.53-1.08c-.08-.17,0-.41.05-.68l7.5-.2ZM64.98,86.07l-.5.52.48.48.51-.51-.48-.49ZM65.68,87.78l.49-.51-.49.51Z" fill="#d6442d"/><path d="M58.86,77.45l1.21,2.15,3.54-3.76,1.16.72-2.21,2.83c-.3.43,1.38,1.14,1.72,1.19l1.51.3,3.51.36v1.08s-7.5.2-7.5.2l-.05.68.53,1.08.23.93-2.31-.17c-.53-.01-.65,1.3-.66,1.83l-.09,1.29-1.67,7.51,4.34.04,1.64.05c-.69.79-2.83,1.68-3.92,1.7l-4.63.1.13-2.97c1.3-1.51,1.82-4.85,2-7.41l.43-5.87.11-2.88.04-3.13.96,2.15Z" fill="#503824"/><path d="M63.3,67.41c1.06.84,1.9,3.08,2.6,5.03l3.73-.9c1.7,1.58,2.69,4.83,1.78,6.74l-2.3-4.84-4.33,3.12-1.16-.72-3.54,3.76-1.21-2.15.7-.9.87-7.53,2.87-1.61Z" fill="#a47148"/><path d="M71.4,78.28l-.11,1.78-.08,1.24-1.91-.07-3.51-.36-1.51-.3c-.33-.04-2.01-.75-1.72-1.19l2.21-2.83,4.33-3.12,2.3,4.84Z" fill="#d6442d"/><path d="M55.1,77.6l-1.66.08-2.36-9.93-.7-1.86v-1.35c0-.28,1.76-.45,1.83-.18l2.01,8.77.88,4.47Z" fill="#e0bd7c"/><path d="M49.24,101.64c-.74.85-1.76,3.05-2.85,3.63-3.62,1.95-7.26,3.09-10.61,3.01.36-.56,1.35-.97,2.25-1.41l7.76-3.82,3.45-1.41Z" fill="#4c4d4c"/><path d="M63.3,67.41l-2.87,1.61-2.45.35-.08,5.92-.04,3.13c-.02.51-.95-1.03-1.01-1.32l-1.97-10.1,5.03-.05c.83,0,2.8-.02,3.39.45Z" fill="#6a553f"/><path d="M51.02,48.58l-8.5,2.33-.37-1.36-.28-1.03,1.81.54,5.58-1.59-3.14-3.47,4.24,1.58c.61.23.35,2.36.67,2.99Z" fill="#7c7c7b"/><polygon points="64.66 94.69 63.74 95.75 62.1 95.7 61.7 93.57 60.56 89.92 59.43 88.16 59.52 86.87 61.04 86.3 64.66 94.69" fill="#6e3b17"/><polygon points="34.72 108.26 34.65 109.17 24.99 109.09 25.17 108.1 34.72 108.26" fill="#4c4d4c"/><path d="M68.39,91.02l3.16-4.83-.79,3.73c-.15.71-1.72.8-2.37,1.11Z" fill="#774a25"/><path d="M72.38,82.35l-1.19-.09v-.96s.09-1.24.09-1.24c.11-.03,1.77.26,1.63.66l-.54,1.63Z" fill="#503824"/><polygon points="34.65 109.17 34.72 108.26 35.78 108.28 34.65 109.17" fill="#747372"/><path d="M41.5,20.03l4.21.81-1.63,6.99-21.65,1.53-4.38-.89-12.16-2.59-1.16-1.06,2.14-2.16,2.15-1.61,10.31-1.45c5.09-.72,10.33-.99,15.1-.42l7.06.85Z" fill="#f1efed"/><path d="M41.87,48.53l.28,1.03-2.89,2.8c-1.13-.8-2.91-2.06-2.73-1.92l-1.53,3.26-3.58-2.21.08-1.22c2-.28,3.81-.47,4.52-1l2.3-1.69s.9,1.01.89.99c0-.01.84-1.36.97-1.8l5.3-17.24c.5.35,1.98,1.31,1.63,1.08l-5.24,17.93Z" fill="#d1d1cf"/><path d="M48.54,24.67l-.71,2.01c-.14.38-1.67-.2-1.56-.6l.48-1.78,4.45-16.55c-.55-1.73,2.11-1.35,1.96.02l-4.62,16.9Z" fill="#d1d1cf"/><polygon points="18.06 28.47 18.26 30.37 5.71 27.57 5.9 25.88 18.06 28.47" fill="#747372"/><path d="M43.68,49.07l1.48-5.05c.56-.03.82-.06.96-.01l3.14,3.47-5.58,1.59Z" fill="#d1d1cf"/><path d="M61.45,4.14l-6.71-.09,5.23-2.4c.94-.14,1.52.63,1.48,2.49Z" fill="#d1d1cf"/><path d="M53.36,24.25c-.35.95-3.04,2.55-3.2,2.08l.65-3.38c.11-.56,2.76.73,2.55,1.3Z" fill="#c3c4ac"/><path d="M76.99,77.59c-.64-.76-1.36-1.69-1.67-2.27l-4.71-8.71c3.28,1.5,6.86,6.85,6.38,10.98Z" fill="#9c9c9b"/><path d="M73.94,93.32c.35.1-.7-.2-.85-.24,1.09-1.98,2.51-4.49,2.78-5.97l1.75-9.71.33,6.75c.05.91-1.04,3.47-1.47,4.3l-2.55,4.88Z" fill="#b8bc65"/><polygon points="66.08 64.4 66.74 64.4 67.37 64.5 66.74 64.59 66.08 64.59 65.45 64.5 66.08 64.4" fill="#9c9c9b"/><path d="M22.05,95.36l-3.31,1.21c-.7.26-.06,2.58.14,3.3l.55,1.98c.11.39-1.86.8-2.28.68-1.38-.39-3.31-1.65-4.2-2.54l1.01-3.68.75-4.11c.13-.72-1.79-1.31-3.11-1.73l1.45-4.93c.12-.4,1.05-1.51,1.45-1.57,4.59,2.41,9.78,1.45,12.68-3.79l1.63,2.38-4.81,5.69c-1.32,1.56-2.08,5.38-1.96,7.11Z" fill="#eae4d9"/><path d="M34.17,78.44l-.35,1.02-.16,1.76,4.01.21c1.92.8,5.6,3.45,6.34,5.62,1.6,4.69-.24,9.48-3.25,12.95-3.87,4.45-11.92,4.39-15.81-.19l-2.89-4.44c-.12-1.74.63-5.55,1.96-7.11l4.81-5.69-1.63-2.38c-2.9,5.24-8.09,6.2-12.68,3.79l4.15-.65,2.89-.21c.9-.07,1.94-1.7,2.1-2.75.92-.42,3.04-1.18,4.1-.8l2.17.78.11,1.48c.03.38,1.47.87,1.51.49l.2-1.89.22-2.01,1.07-.95,1.15.99ZM40.89,97.05c2.09-3.35,3.07-7.86.65-10.96-3.38-4.33-9.06-3.35-13.01-.44-2.77,2.03-5.42,4.99-4.41,8.86.57,2.18,2.89,5.3,4.61,6.08,3.78,1.7,9.56.64,12.15-3.53Z" fill="#676665"/><path d="M37.67,81.42l-4.01-.21.16-1.76.35-1.02-1.15-.99.64-3.21,1.41.27c-.64.99.13,3.55.88,4.46l1.7,2.46Z" fill="#eae4d9"/><path d="M23.64,80.35c-.16,1.05-1.2,2.69-2.1,2.75l-2.89.21-.72-3.34c.29-.52,2.95-1.31,3.71-.85l2,1.23Z" fill="#eae4d9"/><path d="M14.71,92.21l-.75,4.11c-.18.1-1.57-.19-1.58-.49l-.17-3.61h2.5Z" fill="#4c4d4c"/><path d="M31.95,78.4l-.22,2.01-.2,1.89c-.04.38-1.48-.1-1.51-.49l-.11-1.48.03-2.88v-1.13s2.02,2.07,2.02,2.07Z" fill="#eae4d9"/><polygon points="29.9 80.34 27.73 79.56 28.92 77.42 29.93 77.46 29.9 80.34" fill="#4c4d4c"/><polygon points="29.93 77.46 28.92 77.42 29.93 76.33 29.93 77.46" fill="#676665"/><path d="M38.67,69.78l-.3-2.82c-.04-.22-1.68.02-1.68.39v1.58s-1.98.1-1.98.1l-2.39-2.17,3.41-2.19-1.76-1.87-2.15,3.8-1.87-2.51-1.04-5.94,5.15-3.48.72-.03.77,2.52,3.03-3.26,7.59,4.86c1.68,1.08.66,6.32-.66,7.8-1.4,1.56-4.82,3.15-6.81,3.21ZM39.94,59.53l1.33-2.52c.14-.27-1.04-.8-1.29-.61l-1.93,1.46,1.9,1.67Z" fill="#f5eee2"/><rect x="20.88" y="45.15" width="3.82" height="2.33" transform="translate(-8.6 5.34) rotate(-11.25)" fill="#747372"/><path d="M38.67,69.78c-.54.01-1.9-.47-1.98-.84v-1.58c0-.37,1.64-.61,1.68-.39l.3,2.82Z" fill="#7c7c7b"/><polygon points="62.49 85.2 62.27 84.27 64.49 85.59 64.98 86.07 65.47 86.56 66.17 87.28 65.68 87.78 64.96 87.07 64.48 86.59 64 86.11 62.49 85.2" fill="#774a25"/><polygon points="71.21 81.3 71.19 82.26 69.29 82.31 69.29 81.23 71.21 81.3" fill="#a47148"/><path d="M61.74,83.18l.05-.68c-.05.26-.13.51-.05.68Z" fill="#774a25"/><polygon points="62.1 95.7 57.76 95.66 59.43 88.16 60.56 89.92 61.7 93.57 62.1 95.7" fill="#d6442d"/><polygon points="60.43 69.02 59.55 76.55 58.86 77.45 57.9 75.3 57.98 69.37 60.43 69.02" fill="#d6442d"/><path d="M65.78,80.88l-1.51-.3,1.51.3Z" fill="#a47148"/><path d="M40.89,97.05c-2.6,4.18-8.37,5.23-12.15,3.53-1.72-.77-4.05-3.9-4.61-6.08-1.01-3.86,1.64-6.82,4.41-8.86,3.96-2.9,9.64-3.88,13.01.44,2.42,3.1,1.44,7.6-.65,10.96Z" fill="#f5eee2"/><path d="M33.83,79.45l.35-1.02-.35,1.02Z" fill="#e7d6b8"/><path d="M39.94,59.53l-1.9-1.67,1.93-1.46c.25-.19,1.43.35,1.29.61l-1.33,2.52Z" fill="#595858"/></g></svg>