<?xml version="1.0" encoding="UTF-8"?><svg id="Layer_2" xmlns="http://www.w3.org/2000/svg" viewBox="0 0 73.24 108.91"><g id="Layer_1-2"><path d="M41.85,16.7c.15,1.2.01,4.86-.65,6.15-1.44,2.76-6.34,3.9-9.96,5.14l7.1.02c-.75,3.16-4.65,3.02-5.09,8.84-4.08,1.28-7.2.76-10.36-2.81-.13,1.95.97,3.99,2.52,4.74,3.53,1.72,10.04-.1,14.57-2.85l2.96-1.73,2.94,1.97c-1.2-.08-2.92,1.07-4.15,3.28,2.12-.19,4.43-1.42,5.25-3.21l1.85.12c.29.23.86.67,1.22.5l1.61-.81.85.05,1.51,1.24,3.15-6.09,2.43,6.52-8.96,4.53-4.7,2.62c-1.79,1-4.64,1.67-6.67,1.85l-.56-2.28-.44,2.37-7.81.8c-3.67.37-7.52-.75-10.42-2.11.01-.78-.83-2.81-1.59-2.57l-2.53.81c-2.52.8-5.53,1.06-8.05.55l-2.84-1.89c-3.45-2.29-4.22-5.62-2.14-9.23l.69-2.14.77-.65c.23-.19,1.29-.25,1.53-.07,1.09.82,2.48,2.9,3.14,4.24l1.47,3c.16.33,1.94.53,2.14.21l.73-1.19-.65-.45-.79-.47-.64-.51.99-1.34.59,1.12.64.45.4.32h6.19c-1.34-3.06-10.67-.44-12.27-7.72-.67-3.07,2.47-5.93,5.12-5.68l.77.35.57-.59-.84-.8-.02-3.72c0-1.29,1.92-3.1,3.64-4.09l.89,5.61c-1.32,1.12-.4.34.32-.27l1.71-4.11c.44-1.07,1.7-2.95,2.42-3.94l5.27-7.19,3.21,5.45c2.39,4.06,6.43,1.97,10.98,7.72ZM31.11,20.63l5.08-2.37c.23-1.23-.75-4.9-1.33-5.22l-4.88,3.34c-.67.46-1.44,1.77-1.52,2.51-.06.56,2.13,1.98,2.65,1.74ZM19.5,20.59l-.48.48.48.48.48-.48-.48-.48ZM25.03,21.32l-5.17,1.07,6.49,2-1.32-3.06ZM14.78,22.6l-.51.44.74,4.44c-.76,1.45-.52.98.21-.4l2.26-1.62-2.7-2.85ZM28.41,29.18l-9.07-2.55-.41,1.86c3.38,1.36,7.03,2.15,11.05,2.12,1.69-1.66.36-3.47-1.58-1.43Z" fill="#eee4c9"/><path d="M57.57,82.89l-2.03.44,1-9.01.86-6.76,3.13-24.31c-4.77,2.1-8.73,4-13.44,4.45l-8.86.85-3.17.74-7.19-.05-7.01-.85c-4.35-.53-9.11-1.32-12.93-2.72l-.07-1.36c2.52.51,5.53.26,8.05-.55l.44,2.05,3.68-.29c2.9,1.36,6.75,2.49,10.42,2.11l7.81-.8,1-.09c2.04-.18,4.89-.85,6.67-1.85l4.7-2.62.53,2.88,8.42-3.67c.31-.13.83-1.93.69-2.24l-.69-1.51-2.43-6.52-3.15,6.09-1.51-1.24,2.37-5.75,5.91-17.5c.18-.54-.47-2.09-1.12-3.02l-4.47,13.48-3.54,12.75-1.61.81c-.36.18-.93-.27-1.22-.5l3.29-9.07-5.09-6.6.06-1.38c1.99.43,3.66,2.59,5.93,4.92l4.07-13.82c.35-1.2,1.82-3.71,2.68-4.67l9.43-1.98c1.02-.21,3.3.66,3.83,1.51.44.71.28,3.44-.53,3.6l-6.43,1.26c-.94.18-3.09,1.45-3.37,2.35l-4.77,15.47c-.36,1.16,1.64,3.58,2.06,4.47.67,1.4,2.24,4.87,2.15,6.43l-.75,12.59-3.8,31.46ZM69.26,8.3c.54.05,2.18-1.66,1.76-1.74l-2.39-.42c-1.65-.29-4.46.4-5.57,1.56l6.2.6Z" fill="#615d59"/><path d="M43.01,16.67l-1.16.03c-4.55-5.75-8.59-3.66-10.98-7.72l-3.21-5.45-5.27,7.19c-.72.99-1.98,2.87-2.42,3.94l-1.71,4.11c-.72.61-1.64,1.39-.32.27l-.89-5.61c-1.72.98-3.65,2.79-3.64,4.09l.02,3.72-.51,1.04c-2.64-.24-5.79,2.62-5.12,5.68,1.6,7.29,10.93,4.66,12.27,7.73h-6.19s-.54.87-.54.87l-.73,1.19c-.2.32-1.98.13-2.14-.21l-1.47-3c-.65-1.34-2.04-3.42-3.14-4.24l.11-4.79-.14-.84,3.59-3.19c3.8-3.15.28-8.38,6.98-9.31,4.21-.58,9.11-6.01,8.04-12.13,3.02-.63,6.75,3.91,8.46,8.89l6.08,2.6c1.71.73,3.96,3.44,4.03,5.13ZM11.26,35.14l.99-1.34-.99,1.34ZM12.84,34.92l-.94.74.79.47.79-.75-.64-.45Z" fill="#676665"/><path d="M3.57,31.03l-.69,2.14c-2.08,3.61-1.31,6.93,2.14,9.23l2.84,1.89.07,1.36-5.97-2.19,1.97,14.83,1.21,8.59,1.03,8.53,3.04,23.51-1.87.1-3.86-29.04L.64,47.6,0,36.68c-.13-2.17,1.96-4.91,3.56-5.65Z" fill="#676665"/><path d="M57.57,82.89l-.71,5.14-2.07,14.49c-1.89,1.85-5.86,4.05-8.49,4.63-11.96,2.62-25.8,2.8-36.04-2.78-1.29-.7-2.71-3.79-2.91-5.33l1.87-.1c.87,6.69,17.06,9.01,26.1,7.78l4.63-.63h1.22s8.43-2.04,8.43-2.04c1.45-.35,3.72-3.18,3.91-4.7l2.03-16.02,2.03-.44Z" fill="#595858"/><path d="M43.1,18.68l.86,2.02c-.7,2.29-2.22,4.74-4.09,6.16l-1.52,1.15-7.1-.02c3.62-1.25,8.52-2.38,9.96-5.14.67-1.28.8-4.94.65-6.15l1.16-.03.09,2.01Z" fill="#615d59"/><path d="M5.84,24.69l.14.84-4.17-.85,1.16-3.31c.22-.62,2.31-.29,2.94-.13l-.07,3.45Z" fill="#4c4d4c"/><polygon points="47.07 19.29 47.01 20.67 43.95 20.69 43.1 18.68 47.07 19.29" fill="#676665"/><path d="M47.01,20.67l5.09,6.6-3.29,9.07-1.85-.12-1.1-.07-2.94-1.97-.12-1.53c-.11-1.48-3.16,2.16-9.57,4.18.45-5.82,4.34-5.68,5.09-8.84l1.52-1.15c1.87-1.41,3.39-3.87,4.09-6.16l3.06-.02ZM44.64,27.93c.58.77,1.57,1.82,1.69,1.42l.49-1.69c.12-.4-1.11-.09-2.19.27Z" fill="#e7d6b8"/><path d="M52.5,36.08l-.85-.05,3.54-12.75,4.47-13.48c.65.93,1.31,2.48,1.12,3.02l-5.91,17.5-2.37,5.75Z" fill="#d1d1cf"/><path d="M42.93,34.19l-2.96,1.73c-4.53,2.75-11.04,4.57-14.57,2.85-1.55-.76-2.66-2.79-2.52-4.74,3.16,3.57,6.29,4.09,10.36,2.81,6.42-2.01,9.46-5.66,9.57-4.18l.12,1.53Z" fill="#615d59"/><path d="M31.11,20.63c-.53.25-2.71-1.18-2.65-1.74.07-.74.85-2.06,1.52-2.51l4.88-3.34c.59.31,1.57,3.99,1.33,5.22l-5.08,2.37Z" fill="#7c7c7b"/><path d="M59.58,37.74l.69,1.51c.14.31-.39,2.1-.69,2.24l-8.42,3.67-.53-2.88,8.96-4.53Z" fill="#eccc92"/><path d="M28.41,29.18c1.94-2.03,3.27-.23,1.58,1.43-4.02.03-7.66-.76-11.05-2.12l.41-1.86,9.07,2.55Z" fill="#615d59"/><path d="M45.87,36.16l1.1.07c-.82,1.78-3.13,3.01-5.25,3.21,1.24-2.21,2.95-3.35,4.15-3.28Z" fill="#676665"/><polygon points="25.03 21.32 26.35 24.38 19.86 22.39 25.03 21.32" fill="#747372"/><path d="M12.91,22.28l.51-1.04.84.8.52.56,2.7,2.85-2.26,1.62c-.73,1.38-.97,1.85-.21.4l-.74-4.44-.58-.41-.77-.35Z" fill="#7c7c7b"/><path d="M20.03,45.51l-3.68.29-.44-2.05,2.53-.81c.75-.24,1.6,1.79,1.59,2.57Z" fill="#7c7c7b"/><polygon points="39.26 46.74 38.25 46.83 38.7 44.46 39.26 46.74" fill="#7c7c7b"/><rect x="19.16" y="20.73" width=".68" height=".68" transform="translate(-9.19 19.96) rotate(-45)" fill="#747372"/><path d="M7.93,45.66c3.83,1.4,8.59,2.19,12.93,2.72l7.01.85,7.19.05-.77,1.87c-.23.61,1.33,1.92,1.68,2.47l2.74,4.29,3.93,1.72-4.59,2.9-2.59,1.96-4.01-3.54c-1.56-1.37-3.27,4.05-7.06,3.25l-7.16-1.51-1.02-9.69c-.1-1.05-1.64-3-2.62-3.12-.56-.07-2.65-.04-2.81.38-.24.62-.65,2.04-.71,2.71l-.54,7.98-2.98-1.06-.05,2.55.67,5.38,1.75,11.45.35,2.55.39,4.82,1.32,8.03c.13.8,1.68,2.3,2.24,2.9,2.83,3.02,9.06,4.33,14.16,4.41l8.15.14-.23,4.58c-9.04,1.23-25.24-1.09-26.1-7.78l-3.04-23.51-1.03-8.53-1.21-8.59-1.97-14.83,5.97,2.19ZM15.21,101.38l-.33,1.9,6.35,1.11.33-1.9-6.35-1.11Z" fill="#eae4d9"/><path d="M55.54,83.33l-2.03,16.02c-.19,1.52-2.46,4.34-3.91,4.7l-8.43,2.05h-1.22s-4.63.62-4.63.62l.23-4.58h1.73s2.85,1.38,2.85,1.38c1.77.65,4.08.47,7.55-.07.91-.36,1.13-2.36.17-2.01l-6.93.39,3.5-1.32c1.86-.7,4.55-1.72,5.57-2.91s1.66-3.41,1.87-4.8l.54-3.59.61-7.12.77-2.89,1.49-8.03.46-8.23-.59-2.61-4.73,3.5c-.19-.03-.49-.07-.66-.18l-1.72-1.12-5.36-2.86-3.93-1.72-2.74-4.29c-.35-.55-1.91-1.86-1.68-2.47l.77-1.87,3.17-.74,8.86-.85c4.7-.45,8.67-2.35,13.44-4.45l-3.13,24.31-.86,6.76-1,9.01Z" fill="#eee4c9"/><path d="M69.26,8.3l-6.2-.6c1.11-1.15,3.92-1.84,5.57-1.56l2.39.42c.42.07-1.22,1.79-1.76,1.74Z" fill="#d1d1cf"/><path d="M41.16,106.1h-1.22s1.22,0,1.22,0Z" fill="#eae4d9"/><path d="M44.64,27.93c1.08-.36,2.3-.68,2.19-.27l-.49,1.69c-.12.4-1.11-.64-1.69-1.42Z" fill="#676665"/><path d="M15,84.12l-.61,7.48c-.03.79.83,2.41,1.33,2.99.37.43,2.74-.33,2.77-.9.09-1.76-.06-5.41-.4-7.18l3.85-1.24c4.96-1.3,6.91,5.43,14.24-.25,2.69,1.11,6.31,1.5,8.76.24l3.56-1.83-1.58,5.48-1.04,3.51-.48,2.16c-.1.44-1.8.54-1.9.1l-.48-2.1-.46-2.03c-.09-.42-1.16.84-1.1,1.26l.72,7.51c-7.39,2-15.41,1.38-23.27-.56l-5.7-1.16c-.57-.6-2.11-2.1-2.24-2.9l-1.32-8.03-.39-4.82,5.74,2.27Z" fill="#eccc92"/><path d="M11.45,63.11l1.46,1.05.07,1.61c-.54,1.72-.64,3.87-.38,6.03l.08,3.98,1.56,6.37-5.32-2.84-1.75-11.45-.67-5.38,4.95.64Z" fill="#e0bd7c"/><path d="M17.23,62.72l-4.32,1.43-1.46-1.05c-.25-.78-1.19-1.87-1.92-2.13l.54-7.98c.06-.67.47-2.09.71-2.71.16-.41,2.25-.45,2.81-.38.98.12,2.53,2.07,2.62,3.12l1.02,9.69Z" fill="#f8f6f4"/><path d="M42.19,99.31l4.33-1.17,3.47-.54c-1.02,1.19-3.71,2.21-5.57,2.91l-3.5,1.32-3.64.31h-1.73s-8.15-.13-8.15-.13c-5.1-.09-11.33-1.4-14.16-4.41l5.7,1.16c7.87,1.94,15.88,2.56,23.27.56Z" fill="#615d59"/><path d="M35.46,64.5l1.69,1.12c.01.38.04,1.44.19,1.9l-2.02-.08-2.39-3.16c-.34-.41-1.54-1.85-1.93-1.51l-1.74,1.51c-3.51,3.05-2.91,6.96-.75,10.04.78,1.12,2.66,3.31,3.95,4s7.58-2.88,6.6-5.75l.9-.88c.4-.22,1.2.44,2.75,1.58l-7.7,6.9c-.9.8-3.68.24-4.4-.71l-4.42-5.86c-1.14-1.51-.89-5.52-.5-7.58l-6.86-1.38c-.6-.12-2.42.46-2.68.69l-3.17.44-.07-1.61,4.32-1.43,7.16,1.51c3.79.8,5.5-4.63,7.06-3.25l4.01,3.54Z" fill="#6a553f"/><path d="M42.64,59.64l5.36,2.86,1.72,1.12-.04,2.09c-3.98-2.47-6.19-6.04-10.48-3.03l-2.06,2.94-1.69-1.12,2.59-1.96,4.59-2.9Z" fill="#a47148"/><path d="M21.69,84.4l.25.86-3.85,1.24c-.19-.98-2.15-1.98-3.09-2.39l-5.74-2.27-.35-2.55,5.32,2.84,2.94,1.8.31-1.83,4.37-2.13,3.97-1.91c-1.1,1.29-2.42,2.71-3.28,3.2l-3.94,2.28,3.09.85Z" fill="#a47148"/><rect x="17.25" y="99.67" width="1.93" height="6.44" transform="translate(-86.27 103.17) rotate(-80.11)" fill="#7c7c7b"/><path d="M9.53,60.98c.73.26,1.67,1.35,1.92,2.13l-4.95-.64.05-2.55,2.98,1.06Z" fill="#676665"/><path d="M55.71,62.92l-.46,8.23-1.49,8.03-4.78,2.1-3.36-2.62,3.24-1.84-1-5.16,1.43-2.64c.36-.7.42-2.71.39-3.31l.04-2.09c.16.11.46.14.66.18l5.33-.88Z" fill="#e4a55f"/><path d="M52.99,82.08l-.61,7.12-.85-1.96-.46.04-2.49,6.32,3.26-.81c-.21,1.39-.89,3.66-1.87,4.8l-3.47.54-4.33,1.17-.72-7.51c-.05-.42,1.01-1.68,1.1-1.26l.46,2.03.48,2.1c.1.44,1.8.35,1.9-.1l.48-2.16,1.04-3.51,1.58-5.48,4.48-1.35Z" fill="#e0bd7c"/><path d="M53.76,79.19l-.77,2.89-4.48,1.35-3.56,1.83c-2.45,1.25-6.07.87-8.76-.24-7.34,5.68-9.29-1.05-14.24.25l-.25-.86c5.12-2.04,7.16,3.42,13.3-.63,2.21-1.46,5.98,3.47,13.99-2.48l4.78-2.1Z" fill="#6a553f"/><path d="M40.11,103.52c.11-.57.46-1.57.79-1.69l6.93-.39c.96-.34.74,1.65-.17,2.01-3.47.54-5.78.72-7.55.07Z" fill="#7c7c7b"/><polygon points="52.39 89.2 51.85 92.8 48.59 93.6 51.08 87.28 51.54 87.24 52.39 89.2" fill="#a47148"/><polygon points="55.71 62.92 50.38 63.8 55.11 60.31 55.71 62.92" fill="#6a553f"/><path d="M40.9,101.83c-.33.12-.68,1.12-.79,1.69l-2.85-1.38,3.64-.31Z" fill="#eae4d9"/><path d="M18.09,86.5c.34,1.78.49,5.42.4,7.18-.03.57-2.4,1.33-2.77.9-.5-.58-1.35-2.2-1.33-2.99l.61-7.48c.94.41,2.9,1.41,3.09,2.39Z" fill="#f5eee2"/><path d="M16.15,65.31l.95,4.33-.74,1.02c-.1.23.14.41.31.63l.81,10.81-.31,1.83-2.94-1.8-1.56-6.37-.08-3.98c-.26-2.16-.15-4.3.38-6.03l3.17-.44Z" fill="#eee4c9"/><path d="M47.87,71.66l1,5.16-3.24,1.84,3.36,2.62c-8.01,5.95-11.78,1.03-13.99,2.48-6.15,4.05-8.19-1.41-13.3.63l-3.09-.85,3.94-2.28c.86-.5,2.17-1.91,3.28-3.2l-3.97,1.91-4.37,2.13-.81-10.81h2.18c.36-.03.11-1.72-.26-1.7l-1.49.06-.95-4.33c.27-.22,2.08-.81,2.68-.69l6.86,1.38c-.38,2.06-.64,6.07.5,7.58l4.42,5.86c.72.95,3.5,1.51,4.4.71l7.7-6.9c-1.55-1.14-2.36-1.8-2.75-1.58l-.9.88-1.72-5.05c-.15-.45-.18-1.52-.19-1.9l2.06-2.94,2.69,1.54c1.26.54,3.92,2.6,4.43,3.82l1.53,3.62Z" fill="#eccc92"/><path d="M37.34,67.52l1.72,5.05c.98,2.87-5.27,6.47-6.6,5.75s-3.16-2.88-3.95-4l.96-2.88c.07-.51.07-2.33.58-2.3l2.56.11c.64.03,2.22.1,2.36-.42l.35-1.38,2.02.08Z" fill="#a47148"/><path d="M35.32,67.44l-.35,1.38c-.13.52-1.72.45-2.36.42l-2.56-.11c-.5-.02-.5,1.79-.58,2.3l-.96,2.88c-2.16-3.08-2.75-6.99.75-10.04l1.74-1.51c.39-.34,1.59,1.11,1.93,1.51l2.39,3.16Z" fill="#e4a55f"/><path d="M49.69,65.71c.03.61-.03,2.62-.39,3.31l-1.43,2.64-1.53-3.62c-.52-1.22-3.18-3.28-4.43-3.82l-2.69-1.54c4.29-3.02,6.5.55,10.48,3.03Z" fill="#eee4c9"/><path d="M16.67,71.29c-.17-.22-.41-.4-.31-.63l.74-1.02,1.49-.06c.37-.01.62,1.67.26,1.69h-2.18Z" fill="#a47148"/></g></svg>