<?xml version="1.0" encoding="UTF-8"?><svg id="Layer_2" xmlns="http://www.w3.org/2000/svg" viewBox="0 0 54.06 113.54"><g id="Layer_1-2"><path d="M46.15.76l-.04,1.62c-.05.56.37,1.89.97,1.86l4.8-.28-2.72,1.62c-1.8.64-3.83,2.08-4.26,4.27l-2.47,12.63c-.18.94,1.26,2.95,1.7,2.91l.75,1.83c-.61-.18-3,0-3.35.2l-1.29,6.16c1.24.03,3.41.18,3.97-.08l.46,1.28-8.06,1-9.57.78c-7.5.61-14.71-.85-21.46-2.42l.81-1.16c.27-.23,1.05-.3,1.4-.23l2.04.4,1.89.39c6.83,1.4,15.17,1.27,22.82.99l1.62-8.83-20.6.03c-.36.58.65-1.91,1.08-1.91l19.98-.13,3.59-17.86c.71-3.51,3.01-4.31,5.92-5.06ZM43.62,7.96c.1-.5-1.65-2.4-1.72-1.99l-.41,2.13-4.93,25.86,1.7-.06,5.37-25.93Z" fill="#595858"/><path d="M52.87,38.83l-.84,17.26c-.46-.21-1.16,2.15-1.09,2.87l.72,4.91-.37,7.47-1.22,1v12.55s.02,8.67.02,8.67l-1.04.85.46,8.94c.14,1.28-.3,5.31-1.78,6.13-4.05,2.24-10.05,4.1-14.8,4.07l-13.55-.08-10.95-2.57c-1.68-.4-3.65-3.09-3.93-4.45l.54-8.21-1.04-.86v-6.73s0-8.63,0-8.63l-1.04-1.05-.32-7.47.48-7.01.8-2.78.83,11.66.28,9.46.61,4.92.51,12.38.52,3.95c.61,4.59,13.65,6.47,21.32,5.81l9.72-.84,8.35-2.28,1.37-4.03.75-13.03.87-9.72.15-22.2.75-3.76.21-3.76.77-13.47,1.97.06Z" fill="#615d59"/><path d="M7.88,27.93l-5.9,1.69,3.13,3.64-3.2-.16,1.05,19.97-1.22,4.02c-.17.55,2.14,1.11,2.19.93l-.02,5.68-.8,2.78-.48,7.01-1.15-14.5L.06,34.06c-.09-1.52-.21-4.97.84-5.89,1.45-1.26,5.27-2.58,6.89-2.55.69.01.41,2.19.09,2.31Z" fill="#676665"/><path d="M52.87,38.83l-1.97-.06.34-6.01-6.57,2-.46-1.28,6.96-3.26c-2.44-1.43-4.78-2.58-6.29-3.02l-.75-1.83c2.22.18,7.7,1.52,8.53,3.7,1.2,3.13.33,7.03.2,9.74Z" fill="#747372"/><path d="M11.52,31.65l-1.67.33-.81-1.53,5.74-1.64,12.89-.71c1.33-.07,1.59,2.42-.03,1.85-6.33.04-11.16.54-16.12,1.69Z" fill="#9c9c9b"/><circle cx="4.44" cy="17.01" r="2.35" fill="#4c4d4c"/><path d="M7.88,27.93l-.08,4.82c-.35-.07-1.13,0-1.4.23l-.81,1.16-.47-.87-3.13-3.64,5.9-1.69Z" fill="#d1d1cf"/><path d="M51.88,3.96l.03-2.55-5.8.97.04-1.62c1.92-.5,5.48-1.22,7.14-.35.52.27,1.09,3.03.56,3.29l-1.97.26Z" fill="#676665"/><path d="M50.07,84.89v-12.55s1.21-1,1.21-1c.12.77.19,2.1.12,3.27l-.52,8.34c-.03.5-.45,2.36-.82,1.94Z" fill="#747372"/><path d="M49.51,103.34l-.46-8.94,1.04-.85v6.73c0,.74-.45,2.6-.57,3.06Z" fill="#747372"/><polygon points="4 90.64 3.08 89.74 2.95 80.97 3.99 82.02 4 90.64" fill="#676665"/><polygon points="4.51 106.44 4 104.01 4 97.38 5.05 98.23 4.51 106.44" fill="#676665"/><path d="M51.66,63.87l-.72-4.91c-.07-.72.63-3.08,1.09-2.87l-.37,7.78Z" fill="#747372"/><polygon points="11.52 31.65 11.73 33.53 9.84 33.14 9.85 31.98 11.52 31.65" fill="#d1d1cf"/><path d="M5.11,33.26l.47.87c6.75,1.57,13.96,3.03,21.46,2.42l9.57-.78,8.06-1,6.57-2-.34,6.01-.77,13.47-.83-2.44-1.76-1.86-.32,3.21-2.17.21-.47-1.43-5.01-.55-2.24-.16,1.99-10.8c.17.06-.98-.35-1.59-.58l-.83,3.85-1.84-.05-1.21-3.3-2.11,9.77,2.12-.46,1.78-.23-1.06,4.81-.2.52-2.53-1.7-.55-2.16c-2.83.07-6.55.23-8.81-.51-3.6-1.16-6.58-1.16-9.75.88l-5.05.33c-1.16.08-3.35,1.81-3.55,2.65l5.75.66-1.07,3.29-3.83-1.02-.99-.06-1.02-2.07-1.05-19.97,3.2.16Z" fill="#f5eee2"/><path d="M43.62,7.96l-5.37,25.93-1.7.06,4.93-25.86.41-2.13c.08-.41,1.83,1.5,1.72,1.99Z" fill="#d1d1cf"/><path d="M44.88,27.22c1.51.44,3.85,1.58,6.29,3.02l-6.96,3.26c-.56.26-2.73.11-3.97.08l1.29-6.16c.35-.21,2.74-.38,3.35-.2Z" fill="#eae4d9"/><path d="M51.88,3.96l-4.8.28c-.6.03-1.02-1.3-.97-1.86l5.8-.97-.03,2.55Z" fill="#d1d1cf"/><path d="M8.81,56.22l1.91,4.45c.25.59.99,1.65,1.41,2.15l.63-.59-1.2-1.46-.2-3.41,9.96,2.1,4.62-1.65c.4-.14,1.81,1,2.26.98l10.69-.53,6.68-1.41-.22,16-3.93-.95,1.58-5.15-9.7-.11,1.39-5.82-9.1.48c-4.06,6.68-6.9,12.79-9.12,20.17l7.99.84-4.77,15.46c-.1.32,1.03,1.63,1.24,1.42l1.5-1.57,4.49-5.93,8.58-12.16,7.07-.15c1.22-.06,2.4,3,2.22,4.36l-1.15,9.03c-.11.85-.88,2.47-1.37,3.15l-.61-2.43-.27-1.41c-.07-.37-1.72-.68-1.72-.3l.11,3.69-.02,1.95-5.87-.78c.21-.46-.17.37-1.01,2.15l4.07-.38c-.84,4.45-6.55,5.32-9.66,3.85l-2.61,1.04c-.66.26-.4,2.15-.12,2.9l-2.27-.28-1.36-.27c-2.99-.06-6.17-.91-8.93-2.48l-1.67-.95c-.32-.18-.67,1.03-.51,1.35s.9,1.18,1.25,1.28l7.22,2.24,17.42,1.13-1.95,1.68-14.2-.07c-.13-.46-2.12-2.21-2.89-2.29l-6.02-.65-3.97-.81-.52-3.95-.51-12.38-.61-4.92,1.44.03c.37-.02.3-1.33.24-1.82l-1.12-8.88c-.31-2.42.57-5.4,1.86-7.7l-2.15-2.19-.3-9.06,3.83,1.02ZM12.83,63.68l.45-.65c.11-.17-.3.43-.45.65ZM18.08,63.78l-3.78.51c.65,2.19,3.46,2.03,3.78-.51ZM13.08,69.27c-.09-.56-1.38-1.6-1.92-1.64s-1.67.85-1.47,1.35l.79,1.9c.22.53,1.1,1.44,1.57,1.79.32.23,1.53-.41,1.46-.8l-.44-2.59ZM40.96,81.05l-.48.48.48.48.48-.48-.48-.48ZM15.73,88.22l-3.13.06.05,2.41,3.13-.06-.05-2.41ZM12.99,98.94c3.01-2.22,2.02-5.27-.32-6.43l.32,6.43Z" fill="#eeab24"/><path d="M39.57,49.4l-1.04,1.75,3.41.74c.76.17,2.69-.29,3.11-.51l2.17-.21,1.07,2.94c.21.57,1.33,1.98,1.63,1.9l-.75,3.76-.15,22.2-.87,9.72-.75,13.03-3.17,1.38.42-2.13c1.05-2.3,1.38-5.34,1.62-8.49l.71-9.65.45-19.25.88-8.7c.06-.59-.31-2.1-.8-2.3l-1.36-.56c-.23-.13-2.17-.77-2.88-.75l-7.46.28.72-2.34.79-2.98,2.24.16Z" fill="#e4a55f"/><path d="M6.66,106.08l3.97.81,3.95,2.07c1.13.43,3.76.87,4.97.88l14.2.07c8.7.04,8.05-2.91,10.51-3.8l3.17-1.38-1.37,4.03-8.35,2.28-9.72.84c-7.67.67-20.71-1.22-21.32-5.81Z" fill="#e7d6b8"/><path d="M5.02,84.82l-.28-9.46-.83-11.66.02-5.68.05-2.88.99.06.3,9.06,2.15,2.19c-1.29,2.3-2.17,5.28-1.86,7.7l1.12,8.88c.06.49.13,1.8-.24,1.82l-1.44-.03Z" fill="#e4a55f"/><path d="M50.14,52.25l-.21,3.76c-.29.08-1.42-1.33-1.63-1.9l-1.07-2.94.32-3.21,1.76,1.86.83,2.44Z" fill="#eccc92"/><path d="M3.98,55.14l-.05,2.88c-.05.19-2.36-.38-2.19-.93l1.22-4.02,1.02,2.07Z" fill="#615d59"/><path d="M31.85,51.08l-2.27,4.1,6.24-.61,7.46-.28c.71-.03,2.65.62,2.88.75l-.6,1.83-6.68,1.41-10.69.53c-.44.02-1.85-1.12-2.26-.98l2.51-1.45-4.56-.38c.33-.82.93-3.08.47-3.9l-1.86-3.68c2.26.73,5.98.58,8.81.51l.55,2.16Z" fill="#eccc92"/><path d="M22.49,48.41l1.86,3.68c.46.82-.14,3.08-.47,3.9-2.99.44-.03-5.23-4.1-6.66-2.12-.74-5.04.38-5.83,2.02s-1.1,2.38-1.59,2.82l-.26-1.98.63-2.89c3.18-2.04,6.16-2.05,9.75-.88Z" fill="#a47148"/><path d="M37.33,49.24l-.79,2.98-1.96.03,1.06-4.81,1.26-5.73.83-3.85c.61.22,1.76.64,1.59.58l-1.99,10.8Z" fill="#6a553f"/><path d="M12.74,49.3l-.63,2.89-2.22.74-5.75-.66c.21-.84,2.39-2.57,3.55-2.65l5.05-.33Z" fill="#eccc92"/><polygon points="35.06 41.66 33.86 47.67 31.73 48.13 33.85 38.36 35.06 41.66" fill="#747372"/><path d="M12.37,54.17l-1.23,1.11c-.43.39.17,1.51.21,2.08l.2,3.41c-.12-.15-.44-.13-.84-.11l-1.91-4.45,1.07-3.29,2.22-.74.26,1.98Z" fill="#503824"/><path d="M45.05,51.38c-.42.22-2.36.68-3.11.51l-3.41-.74,1.04-1.75,5.01.55.47,1.43Z" fill="#d08537"/><polygon points="36.91 41.71 35.64 47.44 33.86 47.67 35.06 41.66 36.91 41.71" fill="#d1d1cf"/><path d="M44.66,103.98c-6.48,1.39-13.96,2.98-20.12,2.22-.28-.75-.54-2.63.12-2.9l2.61-1.04c3.11,1.47,8.83.6,9.66-3.85l-4.07.38c.83-1.77,1.22-2.6,1.01-2.15l5.87.78c.76.1,2.05-.86,2.51-1.5.48-.68,1.26-2.29,1.37-3.15l1.15-9.03c.17-1.35-1-4.42-2.22-4.36l-7.07.15,2.48-5.54-7.17-.47,2.5-6.88,9.7.11-1.58,5.15,3.93.95.22-16,.6-1.83,1.36.56c.49.2.86,1.71.8,2.3l-.88,8.7-.45,19.25-.71,9.65c-.23,3.15-.57,6.2-1.62,8.49Z" fill="#d08537"/><path d="M33.29,66.65l-2.5,6.88,7.17.47-2.48,5.54-8.58,12.16-4.49,5.93-1.5,1.57c-.2.21-1.34-1.09-1.24-1.42l4.77-15.46-7.99-.84c2.21-7.38,5.06-13.49,9.12-20.17l9.1-.48-1.39,5.82ZM25.32,80.63c.18.89.84,2.97.54,3.89l-2.28,7.09c.19,1.25.36,2.3.21,1.34l11.38-16-1.78-1.76-5.22-.43,4.18-11.83-3.21-.24c-1.23.08-3.67,1.45-4.23,2.62l-4.14,8.68-2.22,6.35,6.77.27Z" fill="#774a25"/><path d="M23.88,55.99l4.56.38-2.51,1.45-4.62,1.65-9.96-2.1c-.04-.58-.64-1.69-.21-2.08l1.23-1.11c.49-.44.81-1.22,1.59-2.82s3.71-2.76,5.83-2.02c4.06,1.43,1.11,7.1,4.1,6.66Z" fill="#eee4c9"/><path d="M20.91,105.65l1.36.27,2.27.28c6.16.76,13.64-.83,20.12-2.22l-.42,2.13c-2.46.89-1.8,3.84-10.51,3.8l1.95-1.68-17.42-1.13-7.22-2.24c-.34-.11-1.08-.96-1.25-1.28s.19-1.53.51-1.35l1.67.95c2.76,1.57,5.94,2.42,8.93,2.48Z" fill="#774a25"/><path d="M13.08,69.27l.44,2.59c.07.39-1.15,1.04-1.46.8-.47-.35-1.35-1.26-1.57-1.79l-.79-1.9c-.21-.5.93-1.38,1.47-1.35s1.83,1.08,1.92,1.64Z" fill="#e0bd7c"/><path d="M19.54,109.83c-1.21,0-3.83-.45-4.97-.88l-3.95-2.07,6.02.65c.77.08,2.76,1.83,2.89,2.29Z" fill="#a47148"/><path d="M12.99,98.94l-.32-6.43c2.34,1.16,3.33,4.21.32,6.43Z" fill="#e0bd7c"/><path d="M42.25,95.92c-.46.64-1.75,1.6-2.51,1.5l.02-1.95,1.88-1.98.61,2.43Z" fill="#503824"/><rect x="12.62" y="88.25" width="3.13" height="2.41" transform="translate(-1.8 .3) rotate(-1.16)" fill="#d08537"/><path d="M18.08,63.78c-.33,2.54-3.13,2.7-3.78.51l3.78-.51Z" fill="#774a25"/><path d="M41.64,93.49l-1.88,1.98-.11-3.69c0-.38,1.65-.06,1.72.3l.27,1.41Z" fill="#d08537"/><path d="M10.71,60.66c.39-.02.71-.05.84.11l1.2,1.46.53.79c.11-.17-.3.43-.45.65l-.71-.86c-.41-.5-1.15-1.56-1.41-2.15Z" fill="#774a25"/><path d="M22.27,105.91l-1.36-.27,1.36.27Z" fill="#d08537"/><rect x="40.62" y="81.19" width=".68" height=".68" transform="translate(-45.65 52.84) rotate(-45)" fill="#d08537"/><polygon points="34.58 52.25 36.54 52.22 35.82 54.56 29.58 55.18 31.85 51.08 34.38 52.77 34.58 52.25" fill="#b8bc65"/><path d="M25.32,80.63c-.62-3,.09-8.73,1.59-11.88l2.22-6.04,3.21.24-4.18,11.83,5.22.43,1.78,1.76-11.38,16c.15.96-.01-.09-.21-1.34l2.28-7.09c.3-.92-.36-2.99-.54-3.89Z" fill="#e0bd7c"/><path d="M29.13,62.71l-2.22,6.04c-1.5,3.15-2.21,8.88-1.59,11.88l-6.77-.27,2.22-6.35,4.14-8.68c.56-1.17,3-2.54,4.23-2.62Z" fill="#eccc92"/></g></svg>