<?xml version="1.0" encoding="UTF-8"?><svg id="Layer_2" xmlns="http://www.w3.org/2000/svg" viewBox="0 0 64.86 125.16"><g id="Layer_1-2"><path d="M42.55,27.74c.23-.27,1.46-1.84,1.62-2.55l.71-3.15.39-1.81,4.1-14.46c.37-1.32,2.28-3.58,3.51-3.86L60.93.04c1.2-.28,3.76,1.12,3.91,2.32.23,1.99-1.34,3.48-3.28,3.87l-6.59,1.31-3.43,13.41c3.14,1.15,7.24,2.62,8.99,4.48.89.95.7,4.59.61,5.91l-1.37,21.1-.59,10.71-.73,7.59-.75,10.93-1.16,16.96-.62,7.87-1.16,11.45c-.16,1.56-3.78,3.68-5.03,4.3-12.69,3.93-25.23,3.87-37.91-.01-1.67-.82-5-3.24-5.14-4.99l-.96-11.54-.95-11.74-1.18-15.58-1.01-13.61-.72-9.8-1.09-15.2L.03,29.52c-.44-6.13,3.95-7.25,10.8-8.58-.05,1.32-.11,2.76-.07,1.69l-8.76,3.77c11.48,7.58,40.34,5.74,40.4,4.5l.15-3.16ZM62.43,1.59l-7.36,1.92.59,2.28,7.36-1.92-.59-2.28ZM47.03,29.95l5.71-20.97c.15-.54-1.53-2.73-1.46-2.41l-6.25,22.33c-.72,1.04,1.05,2.6,1.99,1.05ZM59.74,26.67l-8.72-4.04-2.27,8.15c4.75-1.09,6.56-1.47,10.99-4.1ZM44.05,46.89l-1.12-.13,1.37-6.51,1.85-7.39-2.39,1.48-3.4,11.63c-.31,1.05-.73,2.88-.65,3.78l.27,1.88-2.63-.96.24-2.09,4.22-14.83-20.4-.09-7.62-.91-11.53-2.71.89,14.11,1.19,12.73.41,10.05,3.32,47.2c.09,1.25,1.18,4.4,2.26,4.91,7.53,3.55,16.73,4.46,24.53,3.87,5.68-.43,11.53-1.21,16.93-4.37,1.53-.89,1.77-4.83,1.9-6.5l.68-8.62.85-12.08,1.3-18.64.71-8.67.82-12.37,1.02-15.38.44-6.65-11.16,2.99-2.97,10.55-1.33,3.71Z" fill="#595858"/><path d="M44.17,25.19c-.16.7-1.4,2.27-1.62,2.55l-4.05-1.04c-9.31-.25-17.8.32-26.88,1.38.75-3.56,15.17-3.73,23.62-3.38l8.93.5Z" fill="#7c7c7b"/><path d="M45.27,20.23l-.39,1.81c-9.41-1.24-18.55-1.04-28.77-.33l-.19-1.83c9.71-1.19,19.59-1.3,29.36.35Z" fill="#676665"/><circle cx="16.78" cy="15.73" r="1.31" fill="#9c9c9b"/><path d="M37.58,48.57l-5.88.29-.95.02v-3.4c0-5.2-7.11-2.23-10.08-4.82-1.53-1.33-4.26-1.99-5.49-.59-1.36,1.55-.45,4.7.9,5.78l-.71,2.91-1.11-.21-6.5.83c.13,1.31.13,1.91.47,2.02l1.64.53-4.02,1.05.6,4.57.31,9.38-2.02.02-.41-10.05-1.19-12.73-.89-14.11,11.53,2.71,7.62.91,20.4.09-4.22,14.83Z" fill="#f8f6f4"/><path d="M6.77,66.92l.57,6.76.67,9.56.62,8.68.68,7.87,1.07,11.18c.28,2.93,12.71,6.78,20.26,6.02l.55,3.79,3.66,2.14c-7.79.6-16.99-.32-24.53-3.87-1.09-.51-2.17-3.67-2.26-4.91l-3.32-47.2,2.02-.02ZM14.87,116.94l-.24,2.1,6.43.74.24-2.1-6.43-.74Z" fill="#eae4d9"/><path d="M59.07,36.3l-1.02,15.38-.82,12.37-.71,8.67-1.3,18.64-.85,12.08-.68,8.62-2.09-1.04.55-8.53.68-10.56.63-9.62.52-7.72.52-3.76.94-14.6c.08-1.18-.37-3.44-.65-4.47-.16-.8-.4-2.5-.34-3.34l.75-9.29c.07-.87.28-3,.96-3.01l2.9.18Z" fill="#eae4d9"/><path d="M59.07,36.3l-2.9-.18c-.69,0-.89,2.13-.96,3.01l-.75,9.29-6.01.16c-1.25-.11-3.78-1.22-4.4-1.68l1.33-3.71,2.97-10.55,11.16-2.99-.44,6.65Z" fill="#f1efed"/><path d="M37.35,50.67l2.63.96.97,1.76c.16.29,1.01-.56,1.2-.82l1.82-2.61c.3-.44,1.91-.01,2.43.11l7.27,1.7.13,1.8-8.83,1.72-3.87.78c-.82.16-1.63,1.57-2.16,2.55l-2.11,3.88-.41-1.4-.08-2.79c-.01-.44-1.02-1.27-1.34-1.47l-4.27-1.09-1.63-4.72,1.66-2.14.95-.02.25,1.11c.07.3,1.04.3,1.48.34l3.91.35Z" fill="#eee4c9"/><path d="M53.68,112.05c-.13,1.66-.38,5.6-1.9,6.5-5.4,3.16-11.25,3.94-16.93,4.37l-3.66-2.14-.55-3.79,13.45-1.35c2.54-.26,5.86-3.05,7.5-4.62l2.09,1.04ZM47.64,116.92l-7.4,1.35.36,1.95,7.4-1.35-.36-1.95Z" fill="#e7d6b8"/><path d="M47.03,29.95c-.95,1.55-2.71,0-1.99-1.05l6.25-22.33c-.07-.32,1.61,1.86,1.46,2.41l-5.71,20.97Z" fill="#eae4d9"/><path d="M44.05,46.89c.62.46,3.15,1.57,4.4,1.68l6.01-.16c-.07.85.17,2.55.34,3.34l-1.13.02-7.27-1.7c-.52-.12-2.12-.55-2.43-.11l-1.82,2.61c-.18.26-1.04,1.11-1.2.82l-.97-1.76-.27-1.88c.39.2,1.66-.93,2.04-1.43l1.17-1.56,1.12.13Z" fill="#676665"/><path d="M59.74,26.67c-4.43,2.63-6.24,3.02-10.99,4.1l2.27-8.15,8.72,4.04Z" fill="#eae4d9"/><path d="M42.92,46.76l-1.17,1.56c-.38.5-1.65,1.63-2.04,1.43-.09-.9.34-2.73.65-3.78l3.4-11.63,2.39-1.48-1.85,7.39-1.37,6.51Z" fill="#d1d1cf"/><rect x="55.24" y="2.51" width="7.61" height="2.36" transform="translate(.98 15.01) rotate(-14.61)" fill="#c3c4ac"/><path d="M37.58,48.57l-.24,2.09-3.91-.35c-.44-.04-1.41-.04-1.48-.34l-.25-1.11,5.88-.29Z" fill="#747372"/><path d="M30.76,48.88l-1.66,2.14c-.46-1.34-2.66-3.04-4.22-3.34.11-1.27-2.29-2.7-3.53-2.49l-5.26.65c-1.35-1.08-2.26-4.23-.9-5.78,1.23-1.39,3.96-.74,5.49.59,2.96,2.59,10.08-.38,10.08,4.82v3.4Z" fill="#f5eee2"/><path d="M24.88,47.69l3.12,6.04c.93,1.79.36,4.08-.71,5.66l-3.13,4.62-8.66-.62-.27,1.74.1,6.55.03,2.01.07,4.68c.01.7.54,1.98,1.21,2.27l-2.93,2.59-1.58-20.06c2.51-2.57-1.58-7.93.74-11.85l1.4-2.78,1.11.21,3.43.29-3.45,3.52-1.25,1.28c-.74.75,3.58,1.67,8.03-6.39l2.74.24Z" fill="#f5eee2"/><path d="M9.61,81.32l-.04,6.82,1.21.95-.4,3.59.84,8.79.93,9.85,7.15,2.56c6.35,2.27,19.18,1.36,26.92-.72,2.61-.7,3.68-3.14,3.83-5.72l.27-4.82.32-4.35.21-8.41c.06-2.4.47-5.61.9-7.62l1.7.05-.63,9.62-.68,10.56-.55,8.53c-1.63,1.56-4.95,4.36-7.5,4.62l-13.45,1.35c-7.55.76-19.98-3.09-20.26-6.02l-1.07-11.18-.68-7.87-.62-8.68-.67-9.56-.57-6.76-.31-9.38,1.14.72.73,6.84,1.03,9.65.25,6.58Z" fill="#6a553f"/><path d="M12.14,63.17l1.58,20.06.5,3.06c-1.03,1.27-1.19,4.43-1,6.26l-2.83.13.4-3.59.99-4.68c.09-.45,0-2.36-.34-2.52l-1.81-.57-.25-6.58-1.03-9.65-.73-6.84-1.14-.72-.6-4.57,4.02-1.05c.32.1.05.64.27,1.73l1.98,9.53Z" fill="#eccc92"/><path d="M24.88,47.69l-2.74-.24c-4.45,8.06-8.77,7.14-8.03,6.39l1.25-1.28,3.45-3.52-3.43-.29.71-2.91,5.26-.65c1.24-.21,3.64,1.23,3.53,2.49Z" fill="#615d59"/><path d="M29.1,51.02l1.63,4.72c-2.72,6.44-5.6,11.13-12.13,9.86l-3.37-.48.27-1.74,8.66.62,3.13-4.62c1.07-1.58,1.64-3.87.71-5.66l-3.12-6.04c1.56.29,3.76,1.99,4.22,3.34Z" fill="#615d59"/><path d="M14.27,48.54l-1.4,2.78c-2.32,3.92,1.77,9.28-.74,11.85l-1.98-9.53c-.23-1.09.05-1.63-.27-1.73l-1.64-.53c-.35-.11-.35-.71-.47-2.02l6.5-.83Z" fill="#615d59"/><rect x="16.91" y="115.12" width="2.11" height="6.47" transform="translate(-101.67 122.72) rotate(-83.46)" fill="#747372"/><path d="M53.45,82.3l-1.7-.05c.31-.76.9-2.7.92-3.7l.5-18.39.62-6.59-.13-1.8,1.13-.02c.27,1.03.72,3.29.65,4.47l-.94,14.6-.52,3.76-.52,7.72Z" fill="#a47148"/><path d="M53.79,53.57l-.62,6.59-.5,18.39c-.03,1-.61,2.94-.92,3.7l-3.87,1.02-5.81,1.38c-.92.21-.78,3.26-.43,3.01l6.43-1.48c.03,1.41-.45,4.36-.87,5.74-.2.66-2.69,1.16-2.87.77l-8.77-2.02-2.16-.94c-.03-1.73-.67-4.83-1.32-6.84-.25-1.1.56-3.58,1.26-5.21l3.98,2.84c3.01,2.15,7.86.12,8.92-2.82.43-.13,1.41-.39,1.47-.86l.25-2.05c1.15-1.48,2.01-6.49.44-7.86l-4.3-3.73c-.57-.49-2.7-1.08-3.74-1.42l.73-5.72,3.87-.78,8.83-1.72ZM51.73,60.43l-1.2-3.15c-.15-.4-2.15.42-2.12.86l.34,4.45,2.99-2.16Z" fill="#e0bd7c"/><path d="M41.09,56.07l-.73,5.72c1.03.34,3.17.92,3.74,1.42l4.3,3.73c1.57,1.36.71,6.37-.44,7.86l-.66-3.09c-.01-.82.35-3.41-.32-3.85l-2.33-1.55-4.54-2.76c-1.17,2.82-1.73,4.2-2.62,4.88l-1.63,1.26c-.27.21-1.19-.41-1.17-.62l2-4.46c-2.7.95-3.8,2.28-4.72,4.86-.77,2.15-.18,4.81,1.55,6.05l4.69,3.38,1.67.85c.33.17,1.54-.4,1.9-.56l4.46-1.47c-1.05,2.94-5.9,4.97-8.92,2.82l-3.98-2.84c-.7,1.62-1.52,4.1-1.26,5.21.65,2,1.28,5.11,1.32,6.84l-.92.98-2.85,2.89-3.73,3.57-9.17-1.96-1.34-2.56,7.42,2.44c.45.15,2.41-.24,2.35-.67l-.23-1.6.77-.08.85,1.38,4.6-5.06c2.11-2.32-2.36-9.05-6.9-10.22l-6.81,3.49-3.23,3.96-.5-3.06,2.93-2.59.8-.16c1.23-.79,4.17-3.34,5.76-3.22l5.51.52.5,1.68c.12.41,1.52.82,1.44.68l1.35-4.97-3.38,1.07,2.6-10.48,3.15-2.86.61-6.05c.32.2,1.32,1.03,1.34,1.47l.08,2.79.41,1.4,2.11-3.88c.54-.98,1.34-2.38,2.16-2.55Z" fill="#6a553f"/><path d="M34.99,56.84l-.61,6.05-3.15,2.86-2.6,10.48c-.08.31,0,1.24.09,1.54l-5.51-.52c-1.58-.12-4.52,2.43-5.76,3.22l-.73-1.83c-.15-.31-1.04-.39-1.29-.27l-.07-4.68,2.91.02c.74,0,2.18-.48,3.41-1-1.23-.52-2.67-1-3.41-1.01l-2.94-.02-.1-6.55,3.37.48c6.52,1.27,9.41-3.42,12.13-9.86l4.27,1.09Z" fill="#e0bd7c"/><path d="M36.81,62.49l-.41-1.4.41,1.4Z" fill="#e0bd7c"/><rect x="40.35" y="117.58" width="7.53" height="1.98" transform="translate(-20.58 9.85) rotate(-10.35)" fill="#7c7c7b"/><polygon points="18.27 71.7 18.27 73.71 15.36 73.69 15.33 71.68 18.27 71.7" fill="#eccc92"/><path d="M17.45,80.47l-.8.16c-.67-.29-1.2-1.56-1.21-2.27.25-.12,1.14-.04,1.29.27l.73,1.83Z" fill="#eccc92"/><path d="M13.21,92.55l.91,9.04,1.33,6.3c.22.19,1.94.16,2.4.07l2.26-.41c.72-.13.83-2.79.1-2.81l-2.69-.02c-.05-.6-.64-1.73-1.16-2.03l.38-7.49,9.17,1.96,3.73-3.57-.14,4.33-.65,1-2.15.09c-.52.02-.85,2.05-.63,2.51.5,1.02,1.84,2.31,2.58,2.66,2.44,3.78,7.14,5.87,12.22,3.52,4.69-2.16,5.79-7.84,4.57-11.59.45-.37,1.21-.08,1.37.26l.9,1.94,2.91-.06-.32,4.35-.27,4.82-4.62,1.22.79,4.5c-7.73,2.07-20.56,2.99-26.92.72l-7.15-2.56-.93-9.85-.84-8.79,2.83-.13Z" fill="#e0bd7c"/><path d="M51.75,82.25c-.44,2-.84,5.22-.9,7.62l-.21,8.41-2.91.06-.9-1.94c-.16-.33-.91-.63-1.37-.26l-1.12-3.46c.18.4,2.67-.11,2.87-.77.41-1.38.9-4.33.87-5.74l-.19-2.91,3.87-1.02Z" fill="#e4a55f"/><path d="M50.05,107.44c-.15,2.58-1.21,5.02-3.83,5.72l-.79-4.5,4.62-1.22Z" fill="#e4a55f"/><path d="M10.78,89.09l-1.21-.95.04-6.82,1.81.57c.35.15.43,2.07.34,2.52l-.99,4.68Z" fill="#e0bd7c"/><path d="M25.71,92.73l2.17-3.81c-2.09.53-2.96,2.21-2.93,3.89l.23,1.6c.06.43-1.9.82-2.35.67l-7.42-2.44,1.34,2.56-.38,7.49-2.24-1.1-.91-9.04c-.18-1.84-.03-5,1-6.26l3.23-3.96,6.81-3.49c4.54,1.17,9,7.91,6.9,10.22l-4.6,5.06-.85-1.38ZM21.02,84.74c1.9-1.37,1.12-3.53-1.37-1.6-.09-.11.44.51,1.37,1.6Z" fill="#f1efed"/><path d="M44.34,92.68l1.12,3.46c1.22,3.74.12,9.42-4.57,11.59-5.09,2.34-9.78.25-12.22-3.52l.19-5.27.65-1,.52,1.94c.29,1.63,1.12,4.39,2.02,5.58,1.8,2.38,8.19,1.95,10.82-1.37,1.9-2.41,1.57-7.47-.37-9.51-1.05-1.1-4.2-1.86-6.25-2.38l-1.76,2.13-.32,2.6c-.05.45-1.42-.79-1.42-1.26l-.26-4.95.92-.98,2.16.94,8.77,2.02Z" fill="#774a25"/><path d="M44.64,66.29l2.33,1.55c.67.44.31,3.03.32,3.85l.66,3.09-.25,2.05c-.06.47-1.03.73-1.47.86l-4.46,1.47c-.36.16-1.57.73-1.9.56l-1.67-.85,2.59-4.75c1.24-2.28-.01-6.11,3.85-7.83Z" fill="#e7d6b8"/><path d="M47.88,83.27l.19,2.91-6.43,1.48c-.34.26-.49-2.8.43-3.01l5.81-1.38Z" fill="#e7d6b8"/><path d="M51.73,60.43l-2.99,2.16-.34-4.45c-.03-.44,1.97-1.26,2.12-.86l1.2,3.15Z" fill="#e7d6b8"/><path d="M29.5,97.93l.14-4.33,2.85-2.89.26,4.95c0,.47,1.36,1.71,1.42,1.26l.32-2.6,1.76-2.13c2.05.51,5.2,1.28,6.25,2.38,1.95,2.04,2.27,7.1.37,9.51-2.62,3.33-9.02,3.75-10.82,1.37-.9-1.19-1.74-3.95-2.02-5.58l-.52-1.94Z" fill="#d08537"/><path d="M44.64,66.29c-3.86,1.72-2.6,5.55-3.85,7.83l-2.59,4.75-4.69-3.38c-1.72-1.24-2.31-3.9-1.55-6.05.92-2.57,2.02-3.91,4.72-4.86l-2,4.46c-.02.2.9.83,1.17.62l1.63-1.26c.88-.68,1.44-2.06,2.62-4.88l4.54,2.76Z" fill="#f1efed"/><path d="M28.72,77.77c-.09-.3-.17-1.23-.09-1.54l3.38-1.07-1.35,4.97c.08.15-1.32-.26-1.44-.68l-.5-1.68Z" fill="#d1d1cf"/><path d="M25.71,92.73l-.77.08c-.03-1.68.85-3.36,2.93-3.89l-2.17,3.81Z" fill="#7c7c7b"/><path d="M18.27,73.71v-2.01c.74,0,2.18.48,3.41,1.01-1.23.52-2.66,1-3.41,1Z" fill="#6a553f"/><path d="M28.85,98.93l-.19,5.27c-.75-.35-2.08-1.64-2.58-2.66-.22-.46.11-2.49.63-2.51l2.15-.09Z" fill="#a47148"/><path d="M16.36,102.69c.52.3,1.1,1.43,1.16,2.03l.33,3.25c-.46.08-2.18.12-2.4-.07l-1.33-6.3,2.24,1.1Z" fill="#eccc92"/><path d="M17.85,107.97l-.33-3.25,2.69.02c.74.03.62,2.68-.1,2.81l-2.26.41Z" fill="#503824"/><path d="M21.02,84.74c-.93-1.09-1.46-1.71-1.37-1.6,2.49-1.93,3.27.23,1.37,1.6Z" fill="#7c7c7b"/></g></svg>