<?xml version="1.0" encoding="UTF-8"?><svg id="Layer_2" xmlns="http://www.w3.org/2000/svg" viewBox="0 0 56.34 88.05"><g id="Layer_1-2"><path d="M35.6,73.99l2.27,2.74c-5.99.19-7.9-8.21-5.86-15.47l3.23-3.11,7.03-3.67c4.86-2.53,7.8-7.43,9.75-12.57,1.49-3.91,2.74-8.81,2.11-13.15l-2.43-16.68c-11.39,8.31-33.2,7.86-43.73,2.14l-3.86-2.1-1.88,11.11-.15,9.29c-.2,12.04,7.9,21.25,19,25.42,2.52.95,4.52,5.57,4.31,8.02l-.36,4.33-1.65-.68c.85-2.9-.04-8.77-3.17-9.96C9.61,55.63,2.17,47.73.67,36.04c-.53-4.11-1.08-9.61-.22-13.76L3.45,7.73c1.86-9.03,47.12-12.59,49.96,3.02l2.41,13.22c2.35,12.89-3.35,28.63-15.79,33.82-4.58,1.91-7.43,4.72-6.85,10.66.14,1.48,1.47,4.4,2.42,5.55ZM32.28,10.21l13.21,3.05c1.7-.03,5.28-2.63,5.44-4.6C41.29-.54,15.08-.06,5.6,7.65c-1.04.85.84,4.54,2.07,5.02,2.2.86,3.94.47,6.02,0l11.37-2.59c1.82-.42,4.8-.42,7.23.14ZM40.33,13.08l-8.27-1.14-7.02-.09c-4.11-.05-6.95.92-11.38,2.65,5.76,1.52,9.82,2.32,15.5,1.87l11.97-.95c.55-.04,1.97-1.47,1.55-1.6l-2.35-.75Z" fill="#615d59"/><path d="M52.03,41.91c-.75.32-1.05.3-1.18.06l-.79-1.57,2.16-10.39c.1-.57-.78-2.48-1.27-2.65l-1.69-.62c-.94-1.64-3.58-3.13-5.72-3.88l-6.92-2.46-17.83-.11c-1.86-.01-5.7,2.18-7.06,2.77l1.06,7.31-1.2.53-3.88-1.5,1.8-3.68c.47.3-.71-.45-1.26-.8l-3.97,3.43c-.7,6.06,1.04,14.06,5.42,16.01-.02.51,0,2.47.23,2.9.48.87,2.03,2.58,2.97,3.44,4.93,4.51,9.63,5.93,16.47,5.99l-.02,3.44c.1.68,2.11,1.4,2.66,1.12-2.05,7.26-.14,15.66,5.86,15.47l-2.27-2.74,1.11-.3c7.15.37,13.41,4.9,11.38,7.1l-1.71,1.86-2-2.12-4.69,1.4-6.71.97c.12-2.57-1.61-4.82-3.7-5.32l-5.99-1.73,1.73-5.55.36-4.33c.21-2.45-1.79-7.07-4.31-8.02C9.99,53.78,1.89,44.57,2.09,32.53l.15-9.29,1.88-11.11,3.86,2.1c10.53,5.72,32.34,6.16,43.73-2.14l2.43,16.68c.63,4.34-.62,9.24-2.11,13.15Z" fill="#f5eee2"/><path d="M12.62,82.73l.07.75c.08.43,1.21,1.14,1.7,1.23l8.65,1.55h10.91s8.73-1.64,8.73-1.64c1.03-.19,2.96-1.41,3.71-1.96l1.71-1.86c2.03-2.2-4.23-6.73-11.38-7.1l.14-2.21c3.92.96,7.95,2.15,11.27,4.28,2.62,1.69,2.68,6.1.08,7.83-3.81,2.54-8.69,4.31-13.39,4.35l-11.64.1c-6.2.05-16.07-3.33-16.27-7.97-.05-1.26,1.33-3.88,2.43-4.51l4.41-2.5.85,1.46-5.24,3.67c-.76.53-.44,3.67.47,3.88l2.8.65Z" fill="#615d59"/><path d="M44.39,80.53c.39.5-1.51,2.67-2.34,2.82l-8.13,1.48c-3.85.4-7.12.74-10.73-.03l-9.6-2.06c.2-.63,2.01-1.16,2.66-1.03l4.98,1.01c4.17.84,8.2.68,11.77.16l6.71-.97,4.69-1.4Z" fill="#595858"/><path d="M25.04,70.29l-1.73,5.55-3.28,1.51-.86-1.27c2.12-2.23,3.46-3.82,4.23-6.47l1.65.68Z" fill="#676665"/><polygon points="12.69 83.48 12.62 82.73 13.58 82.75 12.69 83.48" fill="#f5eee2"/><path d="M32.28,10.21c-2.43-.56-5.4-.55-7.23-.14l-11.37,2.59c-2.08.47-3.82.86-6.02,0-1.23-.48-3.11-4.17-2.07-5.02C15.08-.06,41.29-.54,50.93,8.66c-.15,1.96-3.74,4.57-5.44,4.6l-13.21-3.05Z" fill="#f1efed"/><path d="M46.28,40.24l3.79.17.79,1.57c.12.24.42.26,1.18-.06-1.96,5.14-4.9,10.04-9.75,12.57l-7.03,3.67-3.23,3.11c-.55.29-2.56-.44-2.66-1.12l.02-3.44c3.47.03,7.72-1.6,10.92-3.58,3-1.86,4.83-3.8,6.84-7.01l-4.51.37c-.55.05-1.94.75-2.42,1.01-.32.17.52,1.01,1.63,1.89l-6.01-.57-.88-1.63-3.96,1.71c-1.13-5.73,3.86-3.35,4.64-9.35l.66-5.13h2.73s-.37-.92-.37-.92l.09-.86,1.12-2.14c5.49,4.35,4.29,9.12,5,9.68.02.02,1.06.05,1.42.06ZM42.9,40.27l-.48.48.48.48.48-.48-.48-.48Z" fill="#eee4c9"/><path d="M40.33,13.08l2.35.75c.42.13-1,1.56-1.55,1.6l-11.97.95c-5.68.45-9.73-.35-15.5-1.87,4.43-1.73,7.27-2.7,11.38-2.65l7.02.09,8.27,1.14Z" fill="#eae4d9"/><path d="M46.39,82.65c-.75.56-2.69,1.77-3.71,1.96l-8.73,1.65h-10.91s-8.65-1.56-8.65-1.56c-.49-.09-1.62-.8-1.7-1.23l.89-.73,9.6,2.06c3.62.77,6.88.43,10.73.03l8.13-1.48c.83-.15,2.73-2.32,2.34-2.82l2,2.12Z" fill="#c3c4ac"/><path d="M11.79,46.42c.1.27.22,1.59.4,1.72l5.23,3.82c5.23,3.82,14.78,3.78,20.4.63l2.48.53c-3.19,1.99-7.45,3.62-10.92,3.58-6.84-.07-11.54-1.48-16.47-5.99-.94-.86-2.49-2.56-2.97-3.44l1.85-.85Z" fill="#4c4d4c"/><path d="M43.55,22.86l-2.76,2.62,4.01-.42,4.47,1.68,1.69.62c.48.18,1.37,2.08,1.27,2.65l-2.16,10.39-3.79-.17c-.06-3.96-1.58-7.62-4.41-11-5.32-6.35-16.36-6.8-21.18-2.86l-4.84,3.94c-1.05.85-3.45,1.3-4.24.59l1.2-.53-1.06-7.31c1.37-.6,5.2-2.78,7.06-2.77l17.83.11,6.92,2.46Z" fill="#eccc92"/><path d="M46.28,40.24c-.35-.02-1.39-.05-1.42-.06-.71-.56.49-5.33-5-9.68-.46-.55-1.77-2.13-2.45-2.55-8.26-4.99-18.81-.56-21.76,5.72l-1.56,3.32c-.63,1.33-2.33,3.37-2.4,4.64s1.76,3.76,2.98,4.22l4.53,1.36.03,1.46c0,.56-1.99.34-2.54.19l-4.48-.72c-.18-.13-.3-1.45-.4-1.72-.27-.74-1.5-2.04-2.08-2.04.07-1.65.2-4.86.97-6l3.43-5.1-7.85-3.01c-.61.35.6-.34,1.47-.85l3.88,1.5c.79.71,3.2.26,4.24-.59l4.84-3.94c4.82-3.93,15.86-3.49,21.18,2.86,2.83,3.37,4.35,7.04,4.41,11Z" fill="#615d59"/><path d="M7.73,29.42c-.88.5-2.08,1.2-1.47.85l7.85,3.01-3.43,5.1c-.77,1.14-.89,4.35-.97,6-4.38-1.95-6.12-9.95-5.42-16.01l3.97-3.43c.55.34,1.73,1.09,1.26.8l-1.8,3.68Z" fill="#eccc92"/><path d="M49.27,26.75l-4.47-1.68-4.01.42,2.76-2.62c2.14.76,4.78,2.24,5.72,3.88Z" fill="#a47148"/><path d="M11.79,46.42l-1.85.85c-.23-.42-.25-2.39-.23-2.9.58,0,1.81,1.31,2.08,2.04Z" fill="#e7d6b8"/><path d="M39.86,30.49l-1.12,2.14-1.88-1.07-.58,2.84-.66,5.13c-.78,6-5.77,3.62-4.64,9.35l-1.11,1.6c-.4.58-2.35-.02-3.1-.35l-3.77-1.21c-.46-1.25-1.55-2.91-2.68-4.11l-1.14,2.38-4.53-1.36c-1.22-.46-3.05-2.95-2.98-4.22s1.78-3.31,2.4-4.64l1.56-3.32c2.95-6.28,13.5-10.71,21.76-5.72.69.41,2,2,2.45,2.55ZM26.21,29.71c0-.59-.48-1.07-1.07-1.07s-1.07.48-1.07,1.07.48,1.07,1.07,1.07,1.07-.48,1.07-1.07ZM18.9,43.15l-.48.48.48.48.48-.48-.48-.48Z" fill="#f5eee2"/><path d="M23.01,48.94c.57,1.54,2.9,3.35,4.8,3.49,1.39.1,3.88-1.25,5.23-2.08l2.79-1.53,6.01.57c.03-2.25,0,.06-.01.96l-4.01,2.24c-5.62,3.15-15.17,3.19-20.4-.63l-5.23-3.82,4.48.72c.55.15,2.55.36,2.54-.19l-.03-1.46,1.14-2.38c1.13,1.2,2.22,2.86,2.68,4.11Z" fill="#e7d6b8"/><path d="M35.82,48.81l-2.79,1.53c-1.35.83-3.84,2.18-5.23,2.08-1.9-.13-4.23-1.95-4.8-3.49l3.77,1.21c.75.33,2.69.93,3.1.35l1.11-1.6,3.96-1.71.88,1.63Z" fill="#676665"/><path d="M40.29,53.13l-2.48-.53,4.01-2.24c.01-.9.04-3.22.01-.96-1.11-.87-1.95-1.71-1.63-1.89.48-.26,1.87-.97,2.42-1.01l4.51-.37c-2.02,3.22-3.85,5.15-6.84,7.01Z" fill="#747372"/><polygon points="38.74 32.64 38.65 33.49 39.01 34.41 36.28 34.41 36.87 31.57 38.74 32.64" fill="#9c9c9b"/><rect x="42.56" y="40.41" width=".68" height=".68" transform="translate(-16.25 42.27) rotate(-45)" fill="#615d59"/><path d="M39.01,34.41l-.37-.92.37.92Z" fill="#f5eee2"/><circle cx="25.14" cy="29.71" r="1.07" fill="#9c9c9b"/><rect x="18.56" y="43.29" width=".68" height=".68" transform="translate(-25.32 26.15) rotate(-45)" fill="#e7d6b8"/></g></svg>