<?xml version="1.0" encoding="UTF-8"?><svg id="Layer_2" xmlns="http://www.w3.org/2000/svg" viewBox="0 0 83.54 119.61"><g id="Layer_1-2"><path d="M53.36.58l.16,1.67c-.24-.21-3.38,1.4-2.66,1.83,1.15.68,2.76,1.27,3.51.97v1.11c-2.52.42-4.14,2.41-4.74,5.19l-2.85,13.11,3.91,1.86c1.07.51,4.05,2.06,4.18,3.24.22,2.03-.12,5.41-.34,7.16l-1.86.05-.42-2.67-8.08,2.33-2.92,12.18c.53.36,2.55,1.43,3.34,1.76l4.45,2.35c-.82.24-2.23-.2-3.68-.44l-4.63-.76c-.98,1.85-1.65,3.12-3.03,3.84l3.98-16.43c.12-.5-.07-1.92-.12-2.38s-1.73.84-1.83,1.29l-2.59,11.28-1.92.08,2.54-11.87c-12.79.99-23.71.43-35.68-3.38l3.22,20.99.89,5.24-.05,21.8-.71,7.63-.61,7.21c-.67,7.87,2.42,16.68,10.29,18.81,9.08,2.45,19,2.95,28.03.21l4.58-1.39.93-.28c.09.67-1.53,2.2-2.11,2.37l-7.32,2.17c-6.42,1.9-18.65.62-26.4-1.97-8.09-2.7-10.54-12.93-9.79-22.23l1.48-18.34.09-8.58L.06,33.82c-.18-1.31.02-3.79.65-4.7l1.68-.03c-.38.81.67,3.08,1.63,3.36l6,1.76c5.9,1.73,12.31,1.8,18.37,1.53l9.91-.43,2.06-9.63-6.09-1.22-15.47.08c-2.13.01-5.77.5-7.49,1.16l-.13-1.3,9.02-1.62c3.34-.6,8.43-.47,11.96-.12l8.96.88,1.5.11-2.08,10.11c-.21,1.02,2.33,1.1,2.29-.12l5.59-24.89c.27-1.21,0-4.18-.22-5l-.32-1.58,5.49-1.58ZM54.32,30.83c-4.55-2.99-5.15-3.13-8.22-4.11l-1.45,7.78,9.67-3.67Z" fill="#595858"/><path d="M54.53,36.72l-1.23,9.81-.35,19.31c9.44-1.87,17.07.67,23.15,6.97,1.38,1.43,3.3,3.51,4.17,5.22,2.93,5.75,4.12,13.77,2.61,17.26l-2.29,5.28-.19-1.31.62-4.19c2.24-15.12-5.96-26.01-19.83-27.88-4.04-.54-7.72-.25-8.66,2.28l-1.56-.64c-.28-.16-.44-.95-.5-1.18l.12-13.37.13-2.4,1.95-15.12,1.86-.05Z" fill="#615d59"/><path d="M80.4,99.27l.19,1.31c-1.66,3.83-4.62,7.98-8.76,10.32-5.07,2.86-11.24,5.09-16.92,3.96-2.48-.49-4.33-.76-6.24-.69l-.93.28,3.15-4.41c3.68.23,7.05.45,10.3-.13,4.25-.76,9.97-3.57,12.09-7.07l2.23-3.69c2.86-4.74,2.73-12.82.14-19.02l-1.86-4.93c1.45.68,2.57,2.31,3.37,4.16,4.28,9.92,2.56,20.23-5.85,27.36-2.47,2.1-6.79,4.68-9.92,4.87l-8.14.49c3.17,2.95,13.05.36,15.88-1.69l4.76-3.44c1.51-1.09,3.5-3.87,4.63-5.54l1.87-2.15Z" fill="#6a553f"/><path d="M47.87,2.16l.32,1.58-4.03,13.34-1.55,6.57-1.5-.11,1.61-8.16,2.29-10.14c.24-1.05,1.88-2.79,2.86-3.08Z" fill="#676665"/><path d="M54.39,6.16v-1.11s2.64-1.06,2.64-1.06c.57-.23,1.36-2.08,1.24-2.27l-4.74.53-.16-1.67c1.41-.41,4.32-.87,5.92-.35,1.16.38,1.08,4.57.27,5.06l-5.16.87Z" fill="#676665"/><path d="M11.18,24.41l.13,1.3-8.93,3.38-1.68.03c.83-1.21,3.37-2.98,4.89-3.35l5.58-1.36Z" fill="#676665"/><path d="M35.22,49.19l-.58,1.52-8.63-.33-.69-.47-.74.87,1.08.75c-.06.11,1.38,1.65,1.94,1.61l5.52-.43.24,4.26-.66,2.04-6.46.66c-1.42.23-4.03-1.29-5.39-1.45.28,0-.23-1.78-.55-1.85l-6.08-1.18-.05,2.53.32,11.73-.44,14.56,1.29,1.86-.99,3.14-1.67-.14c-.44-.04-1.12-1.72-1.1-2.23l.36-8.61-.87-21.58c-.03-.83-1.21-2.52-1.75-3.17l2.34-2.73-3.93.46c-.86.1-.77,2.12-1.24,2.83l-1.17,1.11-3.22-20.99c11.97,3.81,22.89,4.37,35.68,3.38l-2.54,11.87ZM16.83,42.43c-.16-.62-2.93-.51-2.84.1.17,1.19,3.16,1.16,2.84-.1ZM24.65,49.45c-.42-.66-3.2-1.94-4.34-1.55l-6,2.01.89,1.35c4.28-1.09,6.26-1.43,8.81-1.31l.65-.5Z" fill="#f1efed"/><path d="M2.39,29.1l8.93-3.38c1.73-.65,5.37-1.15,7.49-1.16l15.47-.08,6.09,1.22-2.06,9.63-9.91.43c-6.06.26-12.47.2-18.37-1.53l-6-1.76c-.96-.28-2.01-2.56-1.63-3.36ZM32.71,31.17c.48,0,2.16-1.5,1.75-1.58l-2.3-.45-13.25.11c-3.3.03-6.07.76-8.56,2.94l11.52-1.23,10.83.2Z" fill="#eae4d9"/><path d="M7.24,55.06l.81,10.74.24,11.17-.78,4.17-.47,9.34c-.38,7.46-1.86,14.25,5.21,20.91.87.82,3.25,2.51,4.65,2.59l17.45.97,8.29-.17,2.13-.7c.32-.1-.3-1.04-.6-1.18l-1.38-.61,2.29-1.42c2.13-1.32,5.49-3.72,6.24-5.78h2.03c0,.14.08,1.05.35,1.17l1.47.69,1.96.92,1.14,1.11.9-1.14,1.04-.02c.26,0,.95.23,1.17.11l-.19,1.97c-3.25.58-6.62.36-10.3.13l-3.15,4.41-4.58,1.39c-9.03,2.74-18.96,2.24-28.03-.21-7.88-2.12-10.96-10.94-10.29-18.81l.61-7.21.71-7.63.05-21.8-.89-5.24,1.17-1.11.75,1.23Z" fill="#eae4d9"/><path d="M52.68,36.77l-1.95,15.12-1.69.83-4.45-2.35c-.79-.33-2.82-1.4-3.34-1.76l2.92-12.18,8.08-2.33.42,2.67Z" fill="#f5eee2"/><path d="M49.05,52.72l1.69-.83-.13,2.4-2.05,1.73-4.55.6-4.64.2c-.41.09-1.86.8-2.08,1.33l-2.86,6.82.37-6.99c.02-.46-1.04-.93-1.43-1.03l-.24-4.26.93.15,1.34,2.94,1.75-6.68,2.59-11.28c.1-.45,1.78-1.76,1.83-1.29s.24,1.89.12,2.38l-3.98,16.43c1.38-.73,2.05-2,3.03-3.84l4.63.76c1.45.24,2.86.68,3.68.44Z" fill="#c3c4ac"/><path d="M42.61,23.65l1.55-6.57,4.03-13.34c.23.82.5,3.79.22,5l-5.59,24.89c.04,1.23-2.5,1.14-2.29.12l2.08-10.11Z" fill="#eae4d9"/><path d="M54.32,30.83l-9.67,3.67,1.45-7.78c3.07.98,3.68,1.12,8.22,4.11Z" fill="#eae4d9"/><path d="M54.37,5.05c-.75.3-2.36-.29-3.51-.97-.72-.43,2.41-2.04,2.66-1.83l4.74-.53c.13.18-.67,2.04-1.24,2.27l-2.65,1.06Z" fill="#d1d1cf"/><polygon points="37.14 49.12 35.39 55.8 34.05 52.86 34.64 50.71 35.22 49.19 37.14 49.12" fill="#615d59"/><path d="M48.56,56.03l1.07,1.1-.05,8.41c0,.47.88,2.21.9,2.13.05.23.22,1.02.5,1.18l1.56.64-.38,1.02c-.21.32-.62,2.74-.46,3.77l1.47,9.37-2.34.27-1.94-12.49c-.12-.74-1.77-2.72-1.79-2.47l.18,5.01-1.84,2.37-.26-6.86-7.81-5.47,2-7.18,4.64-.2,4.55-.6Z" fill="#e7d6b8"/><path d="M80.4,99.27l-1.87,2.15c-1.13,1.67-3.12,4.45-4.63,5.54l-4.76,3.44c-2.83,2.05-12.71,4.64-15.88,1.69l8.14-.49c3.14-.19,7.45-2.78,9.92-4.87,8.41-7.13,10.13-17.45,5.85-27.36-.8-1.86-1.93-3.48-3.37-4.16l-2.12-1c-2.38-2.8-8.53-5.04-10.52-4.73l.06-2.27c13.87,1.86,22.06,12.75,19.83,27.88l-.62,4.19Z" fill="#eeab24"/><path d="M61.19,67.2l-.06,2.27-3.19.49-5.79.54.38-1.02c.94-2.53,4.62-2.83,8.66-2.28Z" fill="#eee4c9"/><path d="M50.48,67.67c-.02.08-.91-1.66-.9-2.13l.05-8.41-1.07-1.1,2.05-1.73-.12,13.37Z" fill="#f5eee2"/><path d="M75.51,99.14l-2.23,3.69c-2.12,3.5-7.84,6.31-12.09,7.07l.19-1.97,2.91-1.56c1.96-1.05,5.04-2.54,6.63-3.92.74-.64,1.7-2.3,2.05-3.14l.7-1.02c.06.41.24.58.52.65l1.32.2Z" fill="#c3c4ac"/><path d="M11.06,56.44l.87,21.58-.36,8.61c-.02.51.66,2.19,1.1,2.23l1.67.14c-.76,2.39.07,5.54,1.95,8.18,1.13,1.59,4.14,2.21,5.22,1.3l1.42-.29-.2,2.78,2.98-.74.13,1.52c.05.58-1.43,1.28-2.03,1.43l-2.16.53c-.64.16.47,2.75,1.13,2.68.77-.08,2.55-1.43,2.99-2.07l3.92-5.76c1.44-2.12,3.57-4.68,4.28-7.19.36-1.28-1.42-3.77-2.42-5.13-.87-1.18.74-4.56,2.02-5.25l3.77,1.06c.88.25,3.33-.12,3.93-.82l4.2-4.87,1.84-2.37,1.61,8.89.34,1.83c.08.45,1.67-.72,1.6-.76l2.34-.27.51,2.1-1.35,2.86-1.11.35c-.32.1-.73,1.3-.72,1.64l.14,5.58,2,.09c.34.65.9,2.75.6,3.59l-1.9,5.24c-.75,2.06-4.11,4.45-6.24,5.78l-2.29,1.42-1.42-.76c-4.33,1-8.32,1.41-12.89,1.56l-10.57-1.02-5.65-.69c-7.07-6.66-5.58-13.45-5.21-20.91l.47-9.34.78-4.17-.24-11.17-.81-10.74,3.82,1.38ZM43.74,98.11c-.07-.6-.39-3.45-.37-3.31l-2.65,2.12c-.42.34,1.32.92,3.02,1.18ZM17.73,102.34c.05-.69-2.5-1.19-2.41-.5l.32,2.33c.07.52,2.03-1.04,2.09-1.83ZM41.52,101.78l-3.72-.58c-.36-.06-.08.38-.11,2.03.12.15,2.29.76,2.71.16.39-.56,1.59-2.28,1.12-1.6Z" fill="#eccc92"/><path d="M20.85,58.22c1.36.16,3.97,1.67,5.39,1.45l6.46-.66c-.26,1.52-.97,4.53-1.96,5.77-3.52,4.36-5.88,8.93-3.39,13.5l-1.88,5.01-2.86-.37c-.06-.39-2.62-.98-3.28-.43l-4.01,3.37-1.29-1.86.44-14.56-.32-11.73,6.68.5ZM19.8,66.56c0-.84-.68-1.52-1.52-1.52s-1.52.68-1.52,1.52.68,1.52,1.52,1.52,1.52-.68,1.52-1.52Z" fill="#eccc92"/><path d="M39.37,56.83l-2,7.18,7.81,5.47.26,6.86-4.2,4.87c-.6.7-3.06,1.07-3.93.82l-.09-1.83,4.76-2.15c1.1-.64,2.22-3.86,1.98-5.11-.28-1.45-1.67-3.34-2.96-4.49-1.73-1.55-4.72-2.79-7.34-2.78-1.02.83-3.1,2.44-3.59,3.34l-2.54,4.63c1.2,3.93,5.23,4.27,6.02,7.33-1.28.69-2.89,4.07-2.02,5.25,1.01,1.36,2.79,3.85,2.42,5.13-.71,2.51-2.84,5.07-4.28,7.19l-3.92,5.76c-.44.64-2.21,1.99-2.99,2.07-.66.07-1.77-2.52-1.13-2.68l2.16-.53c.61-.15,2.08-.85,2.03-1.43l-.13-1.52-.16-1.87c.94-.07,2.59-.7,3.13-1.46s.95-2.7,1.09-3.47l1.86-1.65c.57-.5-.34-2.73-.84-3.3l-2.21-2.57c1.07-2.25,1.58-4.04,1.68-7.2-1.92,2.35-2.47,4.46-2.77,7.13-.49-.03-1.7-.16-1.76-.65l-.24-1.88,1.88-5.01c-2.48-4.57-.12-9.13,3.39-13.5,1-1.24,1.71-4.25,1.96-5.77l.66-2.04c.39.1,1.46.57,1.43,1.03l-.37,6.99,2.86-6.82c.22-.53,1.67-1.24,2.08-1.33Z" fill="#615d59"/><path d="M22.61,82.92l-2.8,1.87c-2.21.97-4.03,2.94-4.14,5.83-.11,2.71,1.53,5.29,3.52,6.27l2.31,1.59c-1.08.91-4.08.29-5.22-1.3-1.88-2.64-2.71-5.79-1.95-8.18l.99-3.14,4.01-3.37c.66-.55,3.22.03,3.28.43Z" fill="#a47148"/><path d="M26.01,50.38l-.35,1.15-1.08-.75-.58-.83c-2.54-.12-4.53.22-8.81,1.31l-.89-1.35,6-2.01c1.14-.38,3.92.89,4.34,1.55l.67.46.69.47Z" fill="#615d59"/><path d="M34.64,50.71l-.59,2.15-.93-.15-5.52.43c-.57.04-2-1.5-1.94-1.61l.35-1.15,8.63.33Z" fill="#e7d6b8"/><path d="M11.06,56.44l-3.82-1.38-.75-1.23c.46-.71.38-2.73,1.24-2.83l3.93-.46-2.34,2.73c.54.66,1.71,2.34,1.75,3.17Z" fill="#7c7c7b"/><path d="M20.85,58.22l-6.68-.5.05-2.53,6.08,1.18c.33.06.83,1.84.55,1.85Z" fill="#747372"/><path d="M16.83,42.43c.32,1.26-2.67,1.29-2.84.1-.09-.62,2.68-.72,2.84-.1Z" fill="#9c9c9b"/><path d="M32.71,31.17l-10.83-.2-11.52,1.23c2.48-2.18,5.25-2.92,8.56-2.94l13.25-.11,2.3.45c.41.08-1.28,1.59-1.75,1.58Z" fill="#747372"/><path d="M42.78,112.29l1.38.61c.3.14.92,1.07.6,1.18l-2.13.7-8.29.17-17.45-.97c-1.4-.08-3.77-1.77-4.65-2.59l5.65.69,10.57,1.02c4.57-.15,8.56-.56,12.89-1.56l1.42.76Z" fill="#615d59"/><path d="M61.14,69.47c1.99-.31,8.14,1.94,10.52,4.73-2.65-1.25-6.4-3.21-9.55-3.59l-5.85,1.02-1.99.21c-.53.06-.99,1.86-.85,2.47l2.54,11.46,1.41-1.6,2.9-10.73.92-.86c.2-.19.56.04.65.29l.45,1.3-3.3,12.17,8.43-5.69,2.85-3,1.41,2.47-4.7,2.68-6.79,5.49,14.65-.67c.09.1.95,1.2.57,1.38l-1.68.8-8.57-.03h-1.24s-2.55-.07-2.55-.07c-.42-.01-1.43-.02-1.46.39l-.11,1.3-3.46-.24.07,4.27-.61,7.16-.61,4.35-1.47-.69c-.27-.13-.35-1.04-.35-1.17l.91-4.19.17-12.05-.76-3.11-.51-2.1-1.47-9.37c-.16-1.03.25-3.45.46-3.77l5.79-.54,3.19-.49Z" fill="#6a553f"/><path d="M61.34,89.71c-.3.26.7,2.16,1.23,2.56l6.88,5.17,3.52,1.87c-.35.84-1.31,2.5-2.05,3.14.17-1-.72-3.12-1.52-3.63l-4.06-2.61-6.02-3.89,2.17,7.47,2.8,6.58-2.91,1.56c-.23.12-.92-.11-1.17-.11l1.67-2.54-3.04-7.47c-.35-.87-1.72-2.56-2.46-2.38l-.07-4.27,3.46.24.11-1.3c.03-.41,1.05-.4,1.46-.39Z" fill="#774a25"/><path d="M60.2,107.82l-1.04.02-.92.02h-1.11s-1.96-.91-1.96-.91l.61-4.35.61-7.16c.73-.18,2.1,1.51,2.46,2.38l3.04,7.47-1.67,2.54Z" fill="#e4a55f"/><path d="M53.34,105.09h-2.03s1.9-5.24,1.9-5.24c.31-.84-.25-2.94-.6-3.59l-.3-7.66,1.35-2.86.76,3.11-.17,12.05-.91,4.19Z" fill="#e7d6b8"/><polygon points="58.27 108.98 58.24 107.86 59.16 107.84 58.27 108.98" fill="#c3c4ac"/><polygon points="58.27 108.98 57.13 107.87 58.24 107.86 58.27 108.98" fill="#e7d6b8"/><path d="M50.82,83.91c.06.04-1.52,1.21-1.6.76l-.34-1.83-1.61-8.89-.18-5.01c.03-.25,1.67,1.73,1.79,2.47l1.94,12.49Z" fill="#6a553f"/><path d="M71.66,74.2l2.12,1,1.86,4.93c2.59,6.19,2.73,14.28-.14,19.02l-1.32-.2c-.28-.08-.46-.24-.52-.65.16-.74.51-2.63.44-3.42l-.39-5.05,1.68-.8c.39-.18-.48-1.28-.57-1.38-.25-1.39-.97-3.66-1.67-4.89l-1.49-2.62-1.41-2.47c-.68-1.19-2.68-3.36-4.08-3.39l-3.9-.09-.45-1.3c-.09-.25-.45-.48-.65-.29l-.92.86-4.01-1.81,5.85-1.02c3.16.37,6.9,2.34,9.55,3.59Z" fill="#e7d6b8"/><path d="M70.92,102.45c-1.59,1.38-4.66,2.87-6.63,3.92l-2.8-6.58-2.17-7.47,6.02,3.89,4.06,2.61c.8.51,1.69,2.63,1.52,3.63Z" fill="#eeab24"/><path d="M63.9,89.78h1.24s8.57.03,8.57.03l.39,5.05c.06.79-.29,2.69-.44,3.42l-.7,1.02-3.52-1.87-6.88-5.17c-.52-.39-1.53-2.29-1.23-2.56l2.55.07Z" fill="#e4a55f"/><path d="M25.47,83.29l.24,1.88c.06.49,1.27.61,1.76.65l1.09.07,2.21,2.57c.49.57,1.4,2.8.84,3.3l-1.86,1.65c-1.17-.51-4.34-.04-4.71,1.16l-.99,3.37-1.14.24-1.42.29-2.31-1.59c-1.99-.98-3.62-3.56-3.52-6.27.11-2.89,1.93-4.86,4.14-5.83l2.8-1.87,2.86.37Z" fill="#f5eee2"/><path d="M40.99,68.44l-3.97,3.28.19,8.48.09,1.83-3.77-1.06c-.79-3.07-4.82-3.4-6.02-7.33l2.54-4.63c.49-.9,2.58-2.51,3.59-3.34,2.62,0,5.61,1.23,7.34,2.78ZM34.67,73.28l1.31-5.3-4.9.89,3.59,4.41Z" fill="#f5eee2"/><path d="M52.32,88.6l.3,7.66-2-.09-.14-5.58c0-.35.41-1.54.72-1.64l1.11-.35Z" fill="#d08537"/><path d="M41.52,101.78c.47-.68-.73,1.04-1.12,1.6-.42.6-2.59,0-2.71-.16.03-1.65-.24-2.08.11-2.03l3.72.58Z" fill="#b8bc65"/><path d="M43.74,98.11c-1.7-.27-3.44-.85-3.02-1.18l2.65-2.12c-.02-.14.31,2.71.37,3.31Z" fill="#a47148"/><path d="M17.73,102.34c-.06.79-2.02,2.35-2.09,1.83l-.32-2.33c-.09-.69,2.46-.19,2.41.5Z" fill="#6a553f"/><polygon points="24.06 97.95 25.53 98.35 25.69 100.22 22.71 100.96 22.91 98.18 24.06 97.95" fill="#a47148"/><circle cx="18.28" cy="66.56" r="1.52" fill="#4c4d4c"/><path d="M29.75,93.42c-.14.77-.54,2.71-1.09,3.47s-2.19,1.39-3.13,1.46l-1.48-.4.99-3.37c.37-1.2,3.53-1.67,4.71-1.16Z" fill="#eccc92"/><path d="M28.56,85.88l-1.09-.07c.31-2.67.86-4.78,2.77-7.13-.1,3.17-.62,4.95-1.68,7.2Z" fill="#e7d6b8"/><path d="M74.83,87.63l-14.65.67,6.79-5.49,4.7-2.68,1.49,2.62c.7,1.23,1.42,3.5,1.67,4.89Z" fill="#eeab24"/><path d="M70.26,77.65l-2.85,3-8.43,5.69,3.3-12.17,3.9.09c1.4.03,3.4,2.2,4.08,3.39Z" fill="#eeab24"/><path d="M56.25,71.63l4.01,1.81-2.9,10.73-1.41,1.6-2.54-11.46c-.14-.61.32-2.42.85-2.47l1.99-.21Z" fill="#e4a55f"/><path d="M63.9,89.78h1.24s-1.24,0-1.24,0Z" fill="#774a25"/><path d="M37.21,80.2l-.19-8.48,3.97-3.28c1.29,1.16,2.69,3.05,2.96,4.49.24,1.25-.88,4.48-1.98,5.11l-4.76,2.15Z" fill="#eee4c9"/><polygon points="34.67 73.28 31.08 68.87 35.97 67.98 34.67 73.28" fill="#747372"/></g></svg>