<?xml version="1.0" encoding="UTF-8"?><svg id="Layer_2" xmlns="http://www.w3.org/2000/svg" viewBox="0 0 75.24 81.69"><g id="Layer_1-2"><path d="M75.23,13.96l-.33,7.51-6.61,49.83c-3.05,6.34-16.48,10.32-23.76,10.34l-12.55.04c-8.2.03-23.98-4.38-25-11.94l-3.68-27.31,1.94.52.4,2.57.66,3.3.42,4.34,2.36,17.24c.31,2.26,4.74,4.92,6.78,5.68,9.18,3.42,18.34,4.64,27.71,3.87,8.49-.7,22.32-4.81,22.95-9.59l4.97-37.34,1.39-11.47-2.53-2.04c.54-.41,1.74-1.27,1.96-1.92l1.36-4.42,1.54.79Z" fill="#595858"/><path d="M75.23,13.96l-1.54-.79-2.15-2.38c-.49-.54-1.6-1.67-2.3-2.04C55.3,1.27,33.65.55,16.98,4.36c-3.62.83-7.61,2.18-10.09,4.32l-4.36,3.76c-1.11.96.59,4.71,1.66,5.14l1.58,2.21,1.3,1.74-4.76-1.41,1.81,14.8,1.12,8.03-1.94-.52L.02,14.25c-.29-2.49,3.56-6.5,5.67-7.53,28.26-13.88,70.03-3.66,69.55,7.24Z" fill="#676665"/><path d="M71.54,10.8l.29,2.75c.2,1.04.06,3.31-.46,4.09l-.83-.09.42-.82-3.19-6.32c-.42.35.44-.37.68-.58l3.08.96Z" fill="#676665"/><path d="M43.57,79.95l-.98-5.95,6.74-.85c4.76-.6,10.18-3.06,13.95-5.89l1.26-5.37.44-3.86,2.1-8.48c1.08-4.37,1.53-9.07,1.3-13.4l1.42-6.85.59-3.28c.12-.69-1.33-1.99-1.98-2.34l-1.86-1.29,2.02-1.53,1.78-1.35,2.53,2.04-1.39,11.47-4.97,37.34c-.64,4.79-14.47,8.9-22.95,9.59ZM50.97,76.55l7.11-2.19-.72-1.72-7.4,2.46-1.68.56c-.39.13.16,1.67.55,1.55l2.14-.66Z" fill="#eee4c9"/><path d="M8.97,48.21l1.43,9.86c-.06,1.09-.03,3.42.51,4.47l1.69,3.31c1.97,6.66,21.1,9.27,29.99,8.15l.98,5.95c-9.37.77-18.53-.45-27.71-3.87-2.04-.76-6.47-3.42-6.78-5.68l-2.36-17.24-.42-4.34,2.67-.61ZM25.79,75.13l-8.41-1.84c2.21,2.5,5.2,3.21,8.41,1.84Z" fill="#eae4d9"/><path d="M7.07,21.53l-.19.86-.23,1.05c-.17.14-.83.61-.92.89-.32.98-.65,2.82-.7,3.87-.27,5.54,1.5,6.67,6.12,8.83l1.6,2.96-.17,9.07-3.61-.86-2.67.61-.66-3.3c.45.08,1.38-.26,1.37-.67l-.09-2.23-.99-6.65c-.22-.39-1.46-1.15-1.81-1.04l-1.81-14.8,4.76,1.41Z" fill="#e7d6b8"/><path d="M5.64,45.52l-.4-2.57-1.12-8.03c.36-.11,1.59.65,1.81,1.04l.99,6.65.09,2.23c.02.41-.92.75-1.37.67Z" fill="#eae4d9"/><path d="M71.54,10.8l-3.08-.96.79-1.08c.7.38,1.81,1.51,2.3,2.04Z" fill="#d1d1cf"/><path d="M73.69,13.17l-1.36,4.42-.96.05c.52-.78.66-3.05.46-4.09l-.29-2.75,2.15,2.38Z" fill="#d1d1cf"/><path d="M72.33,17.59c-.23.65-1.42,1.5-1.96,1.92l-1.78,1.35,1.95-3.31.83.09.96-.05Z" fill="#c3c4ac"/><path d="M69.24,8.75l-.79,1.08c-.25.21-1.1.93-.68.58l3.19,6.32c-5.47-.27-9.97-4.16-18.15-5.63l-9.29-1.67-6.04-1.23c-2.32-.47-6.9,2.01-9.25,2.38l-7.73,1.22-2.95.85-2.05.75-9.93,3.26c-.04-1.5.77-4.1,1.82-5.05l1.61-1.45c.13-.74-.85-.41-.99-.05l-1.02-.06-.1-1.37c2.48-2.14,6.47-3.49,10.09-4.32,16.67-3.81,38.32-3.09,52.26,4.39ZM20.11,8.3l10.89-2.09c-4.99-1.63-8.15-.41-13.38.54-.4.44-.76,2.64-.29,2.09l2.78-.53ZM60.24,7.87l-4.58-2.34c-.52-.26-2.42-.42-2.59.01l-.67,1.77,7.84.56Z" fill="#f1efed"/><path d="M8.01,10.1l.99.05-1.61,1.45c-1.05.95-1.86,3.55-1.82,5.05l.66,1.95,2.76-1,1.93,4.42v1.51s-4.03-1.14-4.03-1.14l.19-.86-1.3-1.74-1.58-2.21c-1.85-2.58-.01-6.45,2.79-7.53l1.02.06Z" fill="#7c7c7b"/><path d="M6.99,10.05c-2.8,1.08-4.64,4.95-2.79,7.53-1.08-.43-2.78-4.18-1.66-5.14l4.36-3.76.1,1.37Z" fill="#d1d1cf"/><path d="M70.96,16.73l-.42.82-1.95,3.31-2.02,1.53c-5.82,1.95-12.48,4.67-19.12,4.7l-18.46.1-9.74-1.53-8.35-2.12v-1.51s2.7-.62,2.7-.62l4.89,2.01,12.81,2.49-3.05-5.94-3.92,2.42-7.66-1.95-.14-1.76-1.02-2.15,3.15.66c.48-1.02,1.83-3.26,2.51-2.76.61.45,2.83,2.08,1.99,1.47l-4.42,3.18h7.44s-1.25-2.99-1.25-2.99l.39-1.85c.34-1.6,3.66,1.74,4.22,1.41l2.12-1.25,3.96-2.34,5.29.73.32-.85c-.83-1.05-3.45-2.83-4.7-2.33l-4.99,1.98c-1.71.68-4.44,1.47-5.95,1.42l-5.11-.15v-1.04s7.73-1.22,7.73-1.22c2.36-.37,6.93-2.86,9.25-2.38l6.04,1.23,9.29,1.67c8.18,1.47,12.68,5.37,18.15,5.63ZM52.12,15.81c1.26-.43,3.75.17,5.05,1.09-2.3.96-4.68,1.37-8.24,1.66l-.43.87,3.22.97c.5.15.13,2.33-.36,2.15l-3.1-1.14c-.95-.35-2.46-.71-3.28-.8s-.5,2.83-.25,4.46l7.34-.99,5.83-.78c.38-.05,1.24-1.17.89-1.39l-1.7-1.06c-.28-.17.69-1.48.57-1.2l5.9,2.03.2-3.27,2.31.18.49-.53-6.95-3.23-9.37-2.4-5.6-1.4c-.66-.17-2.32,2.06-2.32,2.19l-.6.19.41,1.38c.1.34,1.1-1.02,1.41-1.16l2.39-1.1c1.74-.8,2.24,4.58,3.67,4.09l2.5-.85ZM34.78,15.5c-.16-.64-2.95-.5-2.86.12.2,1.32,3.16,1.1,2.86-.12ZM35.55,17.3c.58.77,1.57,1.82,1.69,1.42l.5-1.69c.12-.4-1.11-.09-2.19.27ZM44.28,15.86l-3.69,2.91,1.15,1.46,3.69-2.91-1.15-1.46ZM33.21,19.68c-.34-.44-1.41-1.46-1.63-1.18l-1.45,1.9,3.08-.71ZM67.32,18.83l-.54.48.54-.48Z" fill="#503824"/><path d="M10.84,26.16l.07,1.36-4.2.69h-1.69c.05-1.05.39-2.89.7-3.87l5.12,1.82Z" fill="#c3c4ac"/><path d="M10.9,23.53l8.35,2.12,9.74,1.53,18.46-.1c6.63-.03,13.3-2.75,19.12-4.7l1.86,1.29c.65.35,2.1,1.65,1.98,2.34l-.59,3.28-2.34.89c.12-.68-.53-1.91-1.1-2.15l-1.73-.75,3.21-3.51-5.28,2.37-14.23,2.76-16.36.18-15.16-1.92-5.98-1.02-4.2-2.72.23-1.05,4.02,1.14Z" fill="#c3c4ac"/><path d="M42.6,74c-8.89,1.12-28.02-1.5-29.99-8.15l3.66,2.02c9.28,4.21,19.06,4.83,29.19,3.81l8.7-1.87c2.26-.49,6.32-2.03,7.51-3.95l2.88-3.96-1.26,5.37c-3.77,2.83-9.2,5.29-13.95,5.89l-6.74.85Z" fill="#676665"/><path d="M68.4,36.15l-4.78,1.53-6.12,2.42-13.13,2.19c-3.79.63-9.44.66-13.1.05l-12.8-1.88-.79-1.83,12.66,1.81,12.15.14,15.13-2.44,9.83-3.77,1.03-2.21-3.5-.46,2.51-1.51,2.34-.89-1.42,6.85Z" fill="#503824"/><path d="M67.1,49.56l-2.55.43c-.54.19.13,1.75.3,2.3l-1.19.08c.1-.58-1.39-1.44-1.95-1.2l1.91-13.48,4.78-1.53c.23,4.34-.22,9.04-1.3,13.4Z" fill="#c3c4ac"/><path d="M64.55,61.9l-2.88,3.96c-1.2,1.92-5.25,3.47-7.51,3.95.92-4.75,5.84-3.98,5.51-9.72l5.32-2.06-.44,3.86Z" fill="#eccc92"/><path d="M67.1,49.56l-2.1,8.48-5.32,2.06c-.58.25-1.91.05-2.54.02.28-.54.7-1.57.72-2.08l5.35-1.61c1.07-.38,1.98-3.06,1.65-4.14-.17-.55-.85-2.11-.3-2.3l2.55-.43Z" fill="#503824"/><path d="M50.97,76.55l-2.14.66c-.39.12-.94-1.42-.55-1.55l1.68-.56,7.4-2.46.72,1.72-7.11,2.19Z" fill="#7c7c7b"/><path d="M20.17,59.89c-.05.7,1.23,1.91,1.9,2.13l4.41,1.47,9.14.86,3.17-1.35,10.91.82,2.65-2.9,2.66-.89,2.12.08c.63.02,1.96.22,2.54-.02.33,5.74-4.59,4.96-5.51,9.72l-8.7,1.87c-10.14,1.02-19.92.4-29.19-3.81l-3.66-2.02-1.69-3.31c-.54-1.05-.57-3.38-.51-4.47l3.62.91c.53.14,1.64-.8,1.94-1.08l2.55-.55c.68-.15,1.04-2.16,1.06-2.7l1.19.12-.59,5.11Z" fill="#eee4c9"/><path d="M12.58,49.07l2.43,2.9c-.76.09-1.31,2.65-.89,3.45l1.85,2.48c-.3.27-1.41,1.22-1.94,1.08l-3.62-.91-1.43-9.86,3.61.86Z" fill="#774a25"/><path d="M25.79,75.13c-3.2,1.36-6.2.65-8.41-1.84l8.41,1.84Z" fill="#9c9c9b"/><path d="M17.66,38.64l.79,1.83.33,11.63-3.77-.13-2.43-2.9.17-9.07c-.21-.15.56-1.85,1-1.8l3.91.44Z" fill="#f5eee2"/><path d="M6.72,28.2l2.61,2.49,2.64,1.88-.82,4.47c-4.62-2.16-6.39-3.3-6.12-8.83h1.69Z" fill="#6a553f"/><path d="M15.71,33.7l1.96,4.95-3.91-.44c-.44-.05-1.21,1.65-1,1.8l-1.6-2.96.82-4.47,3.74,1.12Z" fill="#b8bc65"/><path d="M20.11,8.3l-2.78.53c-.47.55-.11-1.64.29-2.09,5.23-.95,8.39-2.17,13.38-.54l-10.89,2.09Z" fill="#676665"/><polygon points="15.49 13.4 15.66 14.85 14.58 15.59 8.98 17.61 6.22 18.6 5.56 16.66 15.49 13.4" fill="#4c4d4c"/><path d="M60.24,7.87l-7.84-.56.67-1.77c.17-.44,2.07-.28,2.59-.01l4.58,2.34Z" fill="#7c7c7b"/><polygon points="17.53 12.65 18.57 12.79 15.66 14.85 15.49 13.4 17.53 12.65" fill="#503824"/><polygon points="20.49 11.8 20.49 12.84 18.57 12.79 17.53 12.65 20.49 11.8" fill="#4c4d4c"/><path d="M9,10.16l-.99-.05c.13-.36,1.11-.69.99.05Z" fill="#d1d1cf"/><path d="M14.58,15.59l.2,2.29c.09.54,1.26.72,1.74.79l.14,1.76c-.78-.2-2.37.61-3.07.97l-2.69.62-1.93-4.42,5.59-2.02Z" fill="#eccc92"/><path d="M62.58,26.16l1.07,1.02-4.23,1.6-4.33,2.56-6.26.73-8.47.73c-1.82.16-3.88.1-5.85-.37l-6.45-1.53c-1.15-.27-3.79,1.28-4.1,1.81l-1.72-2.2-5.94-1.95c-1.77-.58-4.07-1.26-5.37-1.05l-.07-1.36,5.98,1.02,15.16,1.92,16.36-.18,14.23-2.76Z" fill="#6a553f"/><path d="M10.84,26.16l-5.12-1.82c.09-.28.76-.76.92-.89l4.2,2.72Z" fill="#6a553f"/><path d="M50.25,12.46l1.87,3.35-2.5.85c-1.43.49-1.94-4.89-3.67-4.09l-2.39,1.1c-.31.14-1.31,1.5-1.41,1.16l-.41-1.38-.81-.67-5.29-.73-3.96,2.34-2.12,1.25c-.56.33-3.88-3.01-4.22-1.41l-.39,1.85,1.25,2.99h-7.44s4.42-3.18,4.42-3.18c.84.62-1.38-1.02-1.99-1.47-.68-.5-2.03,1.73-2.51,2.76l-3.15-.66,1.02,2.15c-.48-.07-1.66-.25-1.74-.79l-.2-2.29,1.08-.74,2.92-2.06,1.91.06,5.11.15c1.52.05,4.24-.74,5.95-1.42l4.99-1.98c1.25-.5,3.88,1.28,4.7,2.33l1.09,1.33c0-.14,1.65-2.36,2.32-2.19l5.6,1.4Z" fill="#774a25"/><path d="M63.78,18.44l-.2,3.27-5.9-2.03c.12-.28-.85,1.02-.57,1.2l1.7,1.06c.34.21-.51,1.33-.89,1.39l-5.83.78-7.34.99c-.24-1.64-.56-4.55.25-4.46s2.33.45,3.28.8l3.1,1.14c.49.18.86-2,.36-2.15l-3.22-.97.43-.87c3.55-.3,5.94-.7,8.24-1.66l2.84-.62c1.1-.24,3.39,1.44,3.77,2.15Z" fill="#774a25"/><path d="M16.67,20.43l7.66,1.95,3.92-2.42,3.05,5.94-12.81-2.49-4.89-2.01c.7-.36,2.29-1.17,3.07-.97Z" fill="#774a25"/><path d="M63.78,18.44c-.38-.72-2.67-2.39-3.77-2.15l-2.84.62c-1.3-.92-3.8-1.52-5.05-1.09l-1.87-3.35,9.37,2.4,6.95,3.23.75.73-.54.48-.7-.68-2.31-.18Z" fill="#b8bc65"/><rect x="40.67" y="17.11" width="4.7" height="1.86" transform="translate(-1.92 30.57) rotate(-38.33)" fill="#774a25"/><path d="M34.78,15.5c.29,1.22-2.66,1.44-2.86.12-.09-.62,2.71-.76,2.86-.12Z" fill="#774a25"/><path d="M35.55,17.3c1.08-.36,2.3-.68,2.19-.27l-.5,1.69c-.12.4-1.11-.64-1.69-1.42Z" fill="#774a25"/><path d="M33.21,19.68l-3.08.71,1.45-1.9c.21-.28,1.29.74,1.63,1.18Z" fill="#774a25"/><path d="M63.65,27.18l1.01.12,1.73.75c.57.25,1.21,1.47,1.1,2.15l-2.51,1.51-12.41,3.52c-7.97,2.26-16.35,2.15-24.34.71l-12.51-2.24-3.74-1.12-2.64-1.88-2.61-2.49,4.2-.69c1.3-.21,3.6.47,5.37,1.05l5.94,1.95,1.72,2.2c.31-.53,2.95-2.08,4.1-1.81l6.45,1.53c1.97.47,4.03.52,5.85.37l8.47-.73,6.26-.73,4.33-2.56,4.23-1.6Z" fill="#eee4c9"/><polygon points="64.65 27.3 63.65 27.18 62.58 26.16 67.86 23.79 64.65 27.3" fill="#676665"/><path d="M63.62,37.69l-1.91,13.48-3.16,1.79-.74-.02c-.76.39-2.64,1.53-3.59,1.28l-4.92-1.29c-2.3-.6-6.04,1.26-8.11,2.61-1.56,1.01-5.42.19-7.39-.03l-7.02-.8-7.11-2.07-.87-.53-.33-11.63,12.8,1.88c3.66.61,9.32.58,13.1-.05l13.13-2.19,6.12-2.42ZM56.84,45.29c-.15-.62-2.93-.52-2.84.11.17,1.2,3.15,1.16,2.84-.11ZM39.2,47.53c-.94-1.53-1.76-2.63-1.86-2.22l-.66,2.89c.28,1.58,2.1,1.02,2.51-.67Z" fill="#eee4c9"/><path d="M64.97,31.71l3.5.46-1.03,2.21-9.83,3.77-15.13,2.44-12.15-.14-12.66-1.81-1.96-4.95,12.51,2.24c8,1.43,16.37,1.55,24.34-.71l12.41-3.52Z" fill="#774a25"/><path d="M63.66,52.37l1.19-.08c.33,1.08-.58,3.76-1.65,4.14l-5.35,1.61-.05-5.1.74.02,5.11-.59Z" fill="#774a25"/><path d="M61.71,51.17c.56-.24,2.05.63,1.95,1.2l-5.11.59,3.16-1.79Z" fill="#503824"/><path d="M57.81,52.94l.05,5.1c-.02.51-.44,1.54-.72,2.08l-2.12-.08-.97-4.06.17-1.76c.95.25,2.83-.89,3.59-1.28Z" fill="#a47148"/><path d="M54.04,55.98l.97,4.06-2.66.89-4.58,1.53c-4.43,1.48-7.82-3.4-11.64-.27-1.84.34-5.8.74-7.67.15l-8.29-2.45.59-5.11,5.16,1.65,8.64.87c4.19.42,7.01.88,10.4-2.09,1.06-.93,3.79-.87,5.12-.36l3.96,1.14Z" fill="#774a25"/><path d="M54.21,54.21l-.17,1.76-3.96-1.14c-1.33-.5-4.05-.57-5.12.36-3.39,2.97-6.21,2.51-10.4,2.09l-8.64-.87-5.16-1.65-1.19-.12.09-2.02,7.11,2.07,7.02.8c1.97.23,5.83,1.05,7.39.03,2.08-1.35,5.82-3.21,8.11-2.61l4.92,1.29Z" fill="#503824"/><path d="M52.35,60.93l-2.65,2.9-10.91-.82-3.17,1.35-9.14-.86-4.41-1.47c-.67-.22-1.95-1.44-1.9-2.13l8.29,2.45c1.88.59,5.83.19,7.67-.15,3.82-3.14,7.21,1.74,11.64.27l4.58-1.53Z" fill="#503824"/><path d="M18.78,52.1l.87.53-.09,2.02c-.02.54-.38,2.56-1.06,2.7l-2.55.55-1.85-2.48c-.42-.8.14-3.36.89-3.45l3.77.13Z" fill="#c3c4ac"/><path d="M39.2,47.53c-.41,1.69-2.24,2.25-2.51.67l.66-2.89c.09-.41.92.69,1.86,2.22Z" fill="#7c7c7b"/><path d="M56.84,45.29c.31,1.26-2.67,1.31-2.84.11-.09-.63,2.69-.73,2.84-.11Z" fill="#9c9c9b"/></g></svg>