<?xml version="1.0" encoding="UTF-8"?><svg id="Layer_2" xmlns="http://www.w3.org/2000/svg" viewBox="0 0 69.97 115.7"><g id="Layer_1-2"><path d="M8.13,27.1l1.35,2.48-1.53-.32c-.41-.09-.38,1.23-.36,1.7l.72,17.82-.53,3-1.15,6.85-3.16,18.9-1.44,10.84c-1.68,12.59,6.26,23.73,17.41,24.58l15.85,1.21,4.01-.61,8.52-1.3c7.79-1.19,14.37-8.21,15.15-15.11l1.51-.07c-.48,2.12-1.16,5.22-2.37,7.32-3.44,5.94-9.4,9.07-15.92,9.96l-7.96,1.08-6.66.24c-6.44.24-12.8-.93-18.66-2.92C1.11,108.75-1.42,95.68.66,83.22l4.57-27.31c.94-5.64,1.14-11.43.96-17.09l-.28-8.91c-.04-1.35.5-3.4,1.34-4.17l.89,1.36Z" fill="#615d59"/><path d="M38.66,33.05c.14-.13.24-.23.33-.25l3.27,1.56-2.02,7.95-9.77.21-5.53-.57c-2.08-.22-6.07,1.1-7.72,2.58l-1.55.06-4.58.22c-.85.04-1.15,3.21-.98,3.38l-.49.81-1.31-.22-.72-17.82,4.36,1.11c7.37,2.27,15.57,2.62,23.54,2.65,1.06,0,3.13-1.21,3.18-1.68Z" fill="#f1efed"/><path d="M49.87,19.22l1.25.04c-.05.62.05,2.74.82,2.99l2.49.8-.65,1.2c-.57-.44-2.21-.77-3.26-1.05l-1.59,7.85,5.65-.68-.07,1.36-4.26,1.17c-1.06.29-2.66,2.1-2.82,3.18l-1.05,7.03-1.16,3.05-1.05,3.95-1.86-1.12,1.5-5.16,2.38-8.18c.13-.43-.25-2.26-.66-2.13s-1.61.63-1.69,1.04l-.92,4.54-2.15,10.57-1.64.25-.6-.62,1.72-6.99,2.02-7.95-3.27-1.56,3.85-.6,1.93-8.02c1.11-4.6-12.83-.15-20.64-3.14,7.22-1.48,14.52-.76,21.57-.59l3.14-12.75,1.38,1.51-2.17,9.22-3.16,13.39c.93-.03,2.5-1.31,2.68-2.1l2.28-10.49Z" fill="#615d59"/><path d="M65.39,93.1l-.22.97-.69,3-1.51.07.2-1.77.93-4.62c.52-2.58-.63-6.81-1.78-9.14l.61-3.11c-.1.72,1.77,2.52,2.58,2.44,4.74-9.63,3.38-23.46-4.18-30.87l-2.85-2.8.94-1.18c10.41,8.32,14.61,26.31,5.78,36.8l.71,5.6c.15,1.17-.24,3.75-.5,4.62Z" fill="#503824"/><path d="M9.48,29.58l10.62,2.23,18.56,1.24c-.05.47-2.12,1.69-3.18,1.68-7.97-.04-16.16-.38-23.54-2.65l-4.36-1.11c-.02-.47-.05-1.79.36-1.7l1.53.32Z" fill="#676665"/><path d="M51.12,19.27l-1.25-.04,1.97-7.79.83-5.37,1-2.28,1.86.13s.86.55,1.06.52l5.54-.8.15-1.75V0c.88-.14,2.17,1.67,2.19,2.55s-1.5,2.76-2.41,2.96l-7.12,1.55-2.77,10.81c-.08.33-.79,1.74-1.04,1.38Z" fill="#676665"/><path d="M51.55,5.92l1.11.14-.83,5.37-1.97,7.79-2.28,10.49c-.17.79-1.74,2.07-2.68,2.1l3.16-13.39,2.17-9.22-1.38-1.51.51-2.09,2.19.32Z" fill="#d1d1cf"/><path d="M59.39,46.08l-.94,1.18-.83.23-.24-16.19-2.88.45.07-1.36,3.43-2.89-4.22-3.24.65-1.2c3.85,1.24,5.4,4.14,5.3,8.7l-.33,14.32Z" fill="#676665"/><path d="M36.99,26.85l-18.38,1.55c-.62.05-1.89-.72-1.54-.91s1.73-1.01,2.2-1.05l16.21-1.41c.69.58,1.39,1.4,1.51,1.81Z" fill="#7c7c7b"/><path d="M9.66,24.98l-1.35-.22c.25-2.41,3.02-4.98,6.02-5.54.78-.15,2.73.44,3.29.95s.42,2.77-.32,2.95l-7.65,1.86Z" fill="#3a3939"/><path d="M62.29,0v1.88s-6.76,2.02-6.76,2.02l-1.86-.13c-.36-.02-1.25-.12-1.4.2l-.71,1.94-2.19-.32c.28-1.16,1.76-3.72,2.95-3.92L62.29,0Z" fill="#595858"/><circle cx="59.95" cy="15.28" r="2.01" fill="#4c4d4c"/><polygon points="9.66 24.98 8.13 27.1 7.25 25.74 8.31 24.76 9.66 24.98" fill="#676665"/><path d="M65.16,94.07l.22-.97-.22.97Z" fill="#615d59"/><path d="M9.62,49l-.29,5.51-1.64,10.01-1.53,9.36-1.79,14.42-.2,5.79c-.2,5.82,4.29,11,10.1,12.15l-1.05,3.1,7.92,2.35-2.05-2.22,7.76.57,11.19.81c1.66.12,3.93.45,5.68.17,2.88-.45,8.06-1.52,9.74-3.37l4.81-5.28,3.41-6.27,1.48-.74-.2,1.77c-.79,6.91-7.36,13.92-15.15,15.11l-8.52,1.3-4.01.61-15.85-1.21c-11.15-.85-19.09-11.99-17.41-24.58l1.44-10.84,3.16-18.9,1.15-6.85.53-3,1.31.22Z" fill="#e7d6b8"/><path d="M13.41,49.71l.79,5.92-1.13,2.31c-1.02,2.71-.61,5.93,1.19,7.26l-.1.88-.31,1.15c-1.13,4.24-2.4,9.07-2.33,13.8-1.5,1.14-2.69,5.14-2.26,7.01l1.11,3,1.76,2.35c1.47,1.96,4.8,4.63,7.46,4.24l6.44-.84c-.19.15-.29,1.02-.32,1.18.69,4.98,4.48,8.07,9.16,10.35-3.06.41-6.64.69-8.87.24l-11.73-2.33c-5.81-1.16-10.3-6.33-10.1-12.15l1.36-1.76,1.13-10.32,1.24-5.7c.07-.32.27-1.28.03-1.47l-1.77-.95,1.53-9.36,1.64-10.01.29-5.51.49-.81,3.31,1.52ZM10.72,101.47l-4.35-8.27-.06,5.43,4.41,2.83ZM14.79,102.52l-.26,2.17,8.11.97.26-2.17-8.11-.97Z" fill="#eeab24"/><path d="M30.61,44.54l.77,1.45c.26.49-1.43.95-1.72.91l-1.62-1.07c-.49-.25-1.56,1.71-1.32,1.8l2.98.79,8.83.87.6.62v1.01s-3.83.15-3.83.15c-.42.02-1.54.09-1.62.4l-.31,1.24c-.41.23-2.06.92-2.71.94l-3.66.11-.98-2.08c-.25-.54-.48-1.68-1.07-1.71l-1.52-1.05c-.46-.18-1.51.57-1.45.86l-1.73-.11-3.24-.8-.46-2.65-.86-1.64,1.55-.06c2.19.86,3.86-1.4,10.68-.24l2.71.25Z" fill="#eee4c9"/><path d="M40.24,42.31l-1.72,6.99-8.83-.87-.04-1.52c.29.03,1.98-.42,1.72-.91l-.77-1.45-.14-2.02,9.77-.21Z" fill="#eccc92"/><path d="M30.47,42.52l.14,2.02-2.71-.25c-6.83-1.16-8.5,1.09-10.68.24,1.65-1.48,5.65-2.79,7.72-2.58l5.53.57Z" fill="#6a553f"/><path d="M15.66,44.59l.86,1.64-4.4.05,2.35,2.31-.27,1.27-.79-.15-3.31-1.52c-.17-.18.13-3.34.98-3.38l4.58-.22Z" fill="#676665"/><path d="M57.63,47.5l-1.94,1.6.11-2.08c.05-.54-.24-1.49-.61-1.87-.25-.26-1.16-.45-1.68-.56l-7.14-1.46,1.05-7.03c.16-1.08,1.76-2.89,2.82-3.18l4.26-1.17,2.88-.45.24,16.19Z" fill="#f5eee2"/><path d="M55.69,49.09l-1.09.89-9.28,1.71c-.36.07-1.65.78-1.95.99-.45.31.41,1.99.95,2.09,6.87,1.26,11.85,7.56,9.73,13.9l-3.37,1.19-2.86,1.01-1.71.14-.46-.75,7.08-3.04c.49-3.76-1.49-6-3.52-8.02-1.28-1.28-3.83-3.17-5.36-2.46l-4.41,2.04c-.82.38-3.01,1.66-2.86,2.53l.77,4.05h-1.46c-.36-.02-.4,1.34-.44,1.75l-.23,2.23c-.06.55-1.23.72-1.68.81l2.34-10.25,1.47-5.25.49.97c.2.39,1.41,1.66,1.62,1.27l1.75-4.17c.56-.26,1.04-1.18,1.05-1.8l.03-1.93,1.86,1.12c3.7-.36,8-1.52,11.64-3.11l-.11,2.08Z" fill="#6a553f"/><path d="M55.8,47.01c-3.64,1.59-7.94,2.75-11.64,3.11l1.05-3.95,1.16-3.05,7.14,1.46c.52.11,1.44.3,1.68.56.37.39.65,1.34.61,1.87Z" fill="#eccc92"/><path d="M53.78,24.26l4.22,3.24-3.43,2.89-5.65.68,1.59-7.85c1.05.28,2.69.61,3.26,1.05Z" fill="#eae4d9"/><path d="M42.3,48.99l-.03,1.93h-3.14s0-1,0-1l1.64-.25,2.15-10.57.92-4.54c.08-.4,1.28-.9,1.69-1.04s.79,1.7.66,2.13l-2.38,8.18-1.5,5.16Z" fill="#d1d1cf"/><path d="M49.07,77.82c.66.3,1.53,1.5,2.32,2.4l6.2,1.3c.65.14,2.4-.64,2.39-.82l2.34.91c1.15,2.33,2.3,6.57,1.78,9.14l-.93,4.62-1.48.74-3.46,1.45c-1.17.49-4.19-.9-5.42-1.34-.01,1.54-.39,5.83-1.86,6.39l-5.9,2.27c-7.39,2.84-14.66,1.05-17.55-6.29l2.58-.52,2.09,5.4,6.57-.4c1.12-.07,3.54-1.3,4.22-1.79,5.01-2.43,9.31-14.76,7.14-17.27l-3.91-4.52-2.04-3.03c.41-.06,1.59-.16,2.06.05l2.85,1.3ZM49.73,100.62c1.39-.39,1.47-.41,0,0-.64.77-1.19,1.44,0,0Z" fill="#d6442d"/><path d="M61.24,59.48l-3.64-1.38-.21,8.02c1.39-.95,2.84-2.19,3.14-3.11l1.62-.11.35,5.15.32,6.76.1,3.68-.61,3.11-2.34-.91.23-3.31-2.38,1.86-6.31-2.22c-.95-.33-.9-2.99-.86-3.98,1.23.67,3.44-1.85,4.15-2.73l4.52,3.81c2.23-1.88,2.54-5.38,1.6-7.11l-4.3.42-.91-4.71c-.33-1.63.19-4.76.81-6.33,1.58-.12,4.71,1.59,4.69,3.08Z" fill="#774a25"/><path d="M62.92,78.49l-.1-3.68,2-.43,1.27,1.6.03-12.58-2.52-7.03c-.29-.81-1.7-2.38-2.13-2.72l-1.05.1-.95-2.99,1.84-.69c7.56,7.41,8.93,21.24,4.18,30.87-.81.08-2.67-1.72-2.58-2.44Z" fill="#eeab24"/><path d="M62.27,1.89l-.15,1.75-5.54.8c-.2.03-1.07-.5-1.06-.52l6.75-2.02Z" fill="#d1d1cf"/><path d="M53.66,3.78l-1,2.28-1.11-.14.71-1.94c.15-.32,1.05-.22,1.4-.2Z" fill="#9c9c9b"/><path d="M61.31,50.06l-1.84.69c-.5.16-1.61,1.31-1.22,1.66l2.18,1.33,1.05-.1.73,2.23,2.2,6.37-2.26.65-1.62.11c.29-.89.7-2.66.71-3.52.02-1.5-3.11-3.2-4.69-3.08.1-.3.25-.64.19-.81l-1.37-2.74-.77-2.85,1.09-.89,1.94-1.6.83-.23,2.85,2.8Z" fill="#eccc92"/><path d="M30.08,98.08l-2.58.52c2.89,7.34,10.16,9.13,17.55,6.29l5.9-2.27c1.47-.57,1.85-4.85,1.86-6.39,1.23.44,4.25,1.83,5.42,1.34l3.46-1.45-3.41,6.27-4.81,5.28c-1.68,1.85-6.86,2.92-9.74,3.37-1.75.27-4.02-.05-5.68-.17l-11.19-.81-7.76-.57,2.05,2.22-7.92-2.35,1.05-3.1,11.73,2.33c2.23.44,5.81.17,8.87-.24-4.68-2.28-8.46-5.37-9.16-10.35l3.09-2.02,1.26,2.12Z" fill="#774a25"/><path d="M4.17,94.09l.2-5.79,1.79-14.42,1.77.95c.24.19.04,1.15-.03,1.47l-1.24,5.7-1.13,10.32-1.36,1.76Z" fill="#a47148"/><path d="M28.36,60.29l-3.29,2.42c-2.77,2.45-5.46.52-7.93,4.76l-2.97-1.39.1-.88.68-7.46,1.27-.15.93-.11-.83,2.56c1.93-1.09,3.77-2.22,4.74-3.22l1.02-1.51c1.08,0,3.59.21,4.28,1.1s1.55,2.74,2,3.89Z" fill="#f5eee2"/><path d="M28.9,84.29l-.68,2.36-3.18-4.26c-2.15-2.91-5.51-3.67-8.31-2.13l-2.41,1.33c-.99.54-3.16,2.23-3.28,3.38l-.65,6.07-1.11-3c-.43-1.88.75-5.87,2.26-7.01l2.76-2.1,4.48-1.51c4.29-1.45,7,3.79,10.13,6.88Z" fill="#a47148"/><path d="M15.19,69.03l-.9,9.89-2.76,2.1c-.07-4.72,1.2-9.56,2.33-13.8l1.33,1.81Z" fill="#eccc92"/><path d="M15.22,50.05l5.02,1.07,1.79.97c-2.82,1.5-4.53,2.63-5.99,4.19l.18,1.31-1.27.15-.46.06-.27-2.17-.79-5.92.79.15,1.01.19Z" fill="#e7d6b8"/><path d="M13.27,93.14l-1.13.26-1.76-2.35.65-6.07c.12-1.14,2.3-2.83,3.28-3.38l-.71,5.89-.33,5.65Z" fill="#e7d6b8"/><path d="M39.12,65.37l2.02,3.71c-2.57-.66-3.32,2.28-4.01,7.03l7.64-2.13,1.34-2.98,2.96,6.82-2.85-1.3c-.46-.21-1.65-.1-2.06-.05-5.26-.85-12.09,4.88-13.5,8.79l-.97,2.68-.61.78c-.15.19.06.33.26.56l-.46,5.85-2.83,1.65-6.44.84c-2.66.38-5.99-2.28-7.46-4.24l1.13-.26c2.4,3.04,7.77,3.31,10.55,2.27,1.04-.39,3.48-1.27,3.41-2.23l-.21-2.88-.11-.97,1.31-2.67.68-2.36,1.49-5.15,1.12-3.87-2.97-1.84,4.02-.32,2.41,1.5c.53.33,3.2-4,2.4-9.25h1.77ZM33.77,75.52l-2.14,3.32,1.81,1.17,2.14-3.32-1.81-1.17Z" fill="#774a25"/><path d="M21.96,49.79l2.97.19c.59.04.82,1.18,1.07,1.71l-2.59,1.52c.84.21,2.62.57,3.58.56l3.49,6.09c1.1,1.93-.42,7.39-2.27,8.64l-3.4,2.63-2.24-.05h-.67s-3.7-1.14-3.7-1.14l-3.01-.91-1.33-1.81.31-1.15,2.97,1.39c.92.79,2.96,1.69,4.85,1.89,2.7.29,5.29-1.44,6.1-3.83.63-1.86.74-4.04.27-5.24s-1.31-3-2-3.89-3.2-1.1-4.28-1.1c-.8-.15-2.6-.55-3.32-.12l-2.72,1.09c1.45-1.56,3.17-2.69,5.99-4.19l-1.79-.97v-1.44s1.73.11,1.73.11Z" fill="#6a553f"/><polygon points="10.72 101.47 6.31 98.64 6.37 93.2 10.72 101.47" fill="#774a25"/><rect x="17.63" y="100.01" width="2.19" height="8.17" transform="translate(-86.86 110.35) rotate(-83.2)" fill="#774a25"/><path d="M14.95,57.74l-.68,7.46c-1.81-1.33-2.21-4.55-1.19-7.26l1.41-.15.46-.06Z" fill="#6a553f"/><path d="M28.87,95.15c-.02.21.06.7-.06.81l-3.09,2.02c.03-.16.14-1.03.32-1.18l2.83-1.65Z" fill="#a47148"/><polygon points="14.48 57.79 13.07 57.94 14.21 55.62 14.48 57.79" fill="#e0bd7c"/><path d="M37.36,54.65l-1.47,5.25-2.34,10.25-.99,2.96-4.02.32-3.72-2.3,3.4-2.63c1.84-1.25,3.37-6.71,2.27-8.64l-3.49-6.09,3.66-.11c.66-.02,2.3-.71,2.71-.94l2.64-.52c.85-.08,1.47,1.79,1.35,2.46Z" fill="#e4a55f"/><path d="M39.13,50.93h3.14c0,.62-.49,1.54-1.05,1.8-.45.21-1.88.42-1.91.92l.16,3.25c-.21.38-1.43-.88-1.62-1.27l-.49-.97c.11-.66-.5-2.54-1.35-2.46l-2.64.52.31-1.24c.08-.31,1.2-.39,1.62-.4l3.83-.15Z" fill="#a47148"/><polygon points="16.53 46.23 16.99 48.88 15.33 48.72 14.48 48.59 12.13 46.28 16.53 46.23" fill="#f1efed"/><polygon points="16.99 48.88 20.23 49.68 20.23 51.12 15.22 50.05 15.33 48.72 16.99 48.88" fill="#e0bd7c"/><path d="M26.01,51.69l.98,2.08c-.95,0-2.73-.35-3.58-.56l2.59-1.52Z" fill="#e0bd7c"/><path d="M29.66,46.91l.04,1.52-2.98-.79c-.24-.09.83-2.05,1.32-1.8l1.62,1.07Z" fill="#9c9c9b"/><path d="M24.94,49.98l-2.97-.19c-.05-.29,1-1.03,1.45-.86l1.52,1.05Z" fill="#e0bd7c"/><polygon points="15.22 50.05 14.21 49.86 14.48 48.59 15.33 48.72 15.22 50.05" fill="#eeab24"/><path d="M54.6,49.98l.77,2.85.33,1.43,1.04,1.31c.05.18-.09.51-.19.81-.63,1.57-1.15,4.7-.81,6.33l.91,4.71-2.59,1.24c2.13-6.34-2.86-12.65-9.73-13.9-.54-.1-1.4-1.78-.95-2.09.3-.21,1.58-.92,1.95-.99l9.28-1.71Z" fill="#e4a55f"/><path d="M49.21,59.19l-1.1,3.41c-.14.99-1.87,2.81-2.88,2.8l-6.11-.04h-1.77s-.77-4.06-.77-4.06c-.15-.87,2.04-2.15,2.86-2.53l4.41-2.04c1.53-.71,4.07,1.18,5.36,2.46ZM40.83,59.66c.37-.18-1.34.65-1.89.92-.09,2.58,3.51,2.71,1.89-.92Z" fill="#e7d6b8"/><path d="M45.65,70.25l-4.51-1.17-2.02-3.71,6.11.04c1.01,0,2.74-1.81,2.88-2.8l1.1-3.41c2.03,2.02,4.01,4.25,3.52,8.02l-7.08,3.04Z" fill="#eccc92"/><path d="M47.82,70.87l2.84,2.19c-.05.99-.1,3.64.86,3.98l6.31,2.22,2.38-1.86-.23,3.31c.01.18-1.74.96-2.39.82l-6.2-1.3c-.79-.9-1.66-2.1-2.32-2.4l-2.96-6.82,1.71-.14Z" fill="#503824"/><path d="M50.66,73.06l.02-3.2,3.37-1.19,2.59-1.24,4.3-.42c.94,1.74.63,5.23-1.6,7.11l-4.52-3.81c-.71.88-2.92,3.41-4.15,2.73Z" fill="#eeab24"/><path d="M41.14,69.08l4.51,1.17.46.75-1.34,2.98-7.64,2.13c.68-4.76,1.44-7.7,4.01-7.03Z" fill="#eeab24"/><path d="M37.35,65.36c.8,5.25-1.87,9.58-2.4,9.25l-2.41-1.5.99-2.96c.45-.09,1.62-.26,1.68-.81l.23-2.23c.04-.42.08-1.77.44-1.77h1.46Z" fill="#e0bd7c"/><path d="M41.22,52.73l-1.75,4.17-.16-3.25c.02-.5,1.46-.72,1.91-.92Z" fill="#e0bd7c"/><polygon points="50.68 69.86 50.66 73.06 47.82 70.87 50.68 69.86" fill="#e4a55f"/><path d="M50.11,84.02c2.17,2.5-2.14,14.84-7.14,17.27l.07-2.4,1.25-6.12-1.12-.57.86-.9.54.86,1.14.95c.41.34,1.44-.99,1.62-1.48l.63-1.78c.3-.85-3.45-2.02-9.13,1.57l-5.13,3.24-1.28-1.28c-.25-.25.7-.57,1.09-.5l7.67-3.76c-3.32-1.58-5.81-2.69-7.95-2.86l-.15-1.19,5.39,1.21,4.14.75,2.51-1.65.17,2.21c.32.04,2.21-.28,2.39-.86l.5-2.29,1.96-.39Z" fill="#d08537"/><polygon points="46.05 84.58 45.1 85.36 45.34 83.1 46.05 84.58" fill="#d08537"/><path d="M31.54,86.36l-.13,7.82c-.02,1.41.96,4.83,1.85,6.08s5.01.94,6.36.2l3.42-1.57-.07,2.4c-.68.49-3.1,1.72-4.22,1.79l-6.57.4-2.09-5.4-1.26-2.12c.12-.11.04-.6.06-.81l.46-5.85.35-1.35.97-2.68c.16.06.89.77.88,1.09Z" fill="#eccc92"/><path d="M44.16,76.47l2.04,3.03,3.91,4.52-1.96.39-2.11.17-.71-1.48c.2-1.15-2.43-4.79-4.14-4.64-3.61.32-6.99,3.99-8.14,6.59l.15,1.19-1.67.13c0-.32-.72-1.03-.88-1.09,1.42-3.91,8.25-9.64,13.5-8.79Z" fill="#e4a55f"/><path d="M49.73,100.62c-1.18,1.44-.63.77,0,0,1.47-.41,1.38-.39,0,0Z" fill="#774a25"/><path d="M64.41,62.24c.22.44.88,2.87.85,3.85l-.44,8.29-2,.43-.32-6.76-.35-5.15,2.26-.65Z" fill="#e7d6b8"/><path d="M61.24,59.48c-.01.86-.42,2.64-.71,3.52s-1.75,2.16-3.14,3.11l.21-8.02,3.64,1.38Z" fill="#eeab24"/><path d="M64.82,74.38l.44-8.29c.03-.97-.64-3.4-.85-3.85l-2.2-6.37-.73-2.23c.43.33,1.84,1.91,2.13,2.72l2.52,7.03-.03,12.58-1.27-1.6Z" fill="#d08537"/><path d="M60.43,53.74l-2.18-1.33c-.38-.35.72-1.51,1.22-1.66l.95,2.99Z" fill="#d08537"/><polygon points="56.74 55.58 55.7 54.27 55.37 52.84 56.74 55.58" fill="#6e3b17"/><path d="M17.13,67.47c2.47-4.24,5.16-2.31,7.93-4.76l3.29-2.42c.48,1.2.37,3.38-.27,5.24-.82,2.39-3.41,4.12-6.1,3.83-1.89-.2-3.94-1.1-4.85-1.89Z" fill="#e0bd7c"/><path d="M21.05,56.82c-.97,1-2.81,2.12-4.74,3.22l.83-2.56,3.91-.66Z" fill="#a47148"/><path d="M22.08,55.3l-1.02,1.51-3.91.66-.93.11-.18-1.31,2.72-1.09c.72-.43,2.52-.03,3.32.12Z" fill="#e0bd7c"/><path d="M26.92,89.32l.11.97c.05-.13-2.01-.18-2.1.16l-1.11,4.96c-2.78,1.05-8.16.78-10.55-2.27l.33-5.65.71-5.89,2.41-1.33,3.85.81c-.4,2.18.78,6.18,2.45,6.74l3.89,1.51Z" fill="#eeab24"/><path d="M21.9,71.07h.67s2.24.07,2.24.07l3.72,2.3,2.97,1.84-1.12,3.87-1.49,5.15c-3.13-3.09-5.84-8.32-10.13-6.88l-4.48,1.51.9-9.89,3.01.91,3.7,1.12Z" fill="#eeab24"/><path d="M28.22,86.66l-1.31,2.67-3.89-1.51c-1.68-.56-2.85-4.56-2.45-6.74l-3.85-.81c2.8-1.55,6.16-.78,8.31,2.13l3.18,4.26Z" fill="#e0bd7c"/><path d="M27.03,90.29l.21,2.88c.07.96-2.38,1.84-3.41,2.23l1.11-4.96c.09-.33,2.15-.29,2.1-.16Z" fill="#e4a55f"/><path d="M21.9,71.07h.67s-.67,0-.67,0Z" fill="#e4a55f"/><path d="M40.83,59.66c1.62,3.63-1.98,3.49-1.89.92.55-.27,2.26-1.1,1.89-.92Z" fill="#676665"/><rect x="31.63" y="76.68" width="3.95" height="2.15" transform="translate(-49.95 63.81) rotate(-57.15)" fill="#e0bd7c"/><path d="M29.34,89.29c-.2-.23-.41-.37-.26-.56l.61-.78-.35,1.35Z" fill="#a47148"/><path d="M33.21,86.24c2.14.17,4.63,1.29,7.95,2.86l-7.67,3.76c-.39-.07-1.34.25-1.09.5l1.28,1.28,5.13-3.24c5.69-3.58,9.43-2.41,9.13-1.57l-.63,1.78c-.17.5-1.21,1.82-1.62,1.48l-1.14-.95-.28.6-1.25,6.12-3.42,1.57c-1.34.74-5.45,1.07-6.36-.2s-1.87-4.67-1.85-6.08l.13-7.82,1.67-.13ZM43.16,92.19l.86-.9-.86.9Z" fill="#d6442d"/><path d="M48.15,84.42l-.5,2.29c-.17.57-2.07.9-2.39.86l-.17-2.21.95-.77,2.11-.17Z" fill="#d6442d"/><path d="M45.34,83.1l-.24,2.26-2.51,1.65-4.14-.75-5.39-1.21c1.15-2.6,4.53-6.27,8.14-6.59,1.71-.15,4.34,3.49,4.14,4.64ZM40.69,84.47l-.48.48.48.81.48-.81-.48-.48Z" fill="#d6442d"/><polygon points="40.69 84.47 41.17 84.95 40.69 85.77 40.21 84.95 40.69 84.47" fill="#d08537"/></g></svg>