<?xml version="1.0" encoding="UTF-8"?><svg id="Layer_2" xmlns="http://www.w3.org/2000/svg" viewBox="0 0 55.48 106.37"><g id="Layer_1-2"><path d="M4.4,89.26c.02-.59-.52-1.96-.93-2.06l-.35-13.27-.63-8.74-.55-7.89-.25-4.65-.43-10.34-.86-4.26,2,.29.3,5.64.85,7.73s-.93.88-.94.86c0-.03.58.93.72,1.16l.07,4.78.47,8.81.44,5.51.7,8.77.46,12.42,1.24,6.4c3.57,1.81,7.87,3.06,11.5,3.5,7.22.88,14.17.61,21.41-.34,2.95-.39,7.25-1.62,9.9-3.79l1.28-18.26.64-9.6.61-9.66.5-12.42.98-20.18-6.04,1.44-1.58-1.11,7.42-2.7-5.15-2.63c-.34-.11-1.08-1.02-1.59-1.95,2.37-.46,7.99,1.4,8.42,3.96.62,3.65.14,7.22,0,10.66l-.82,20.22-.56,7.67-.79,11.5-1.23,20.43c-.17,2.88-1.86,5.58-4.92,6.48-12.53,3.67-29.69,4.16-40.49-1.62-1.15-.61-2.06-3.86-2.03-5.09l.23-7.66Z" fill="#595858"/><path d="M52.56,49.84l-2.19-.2c-1.48-.87-3.89-1.82-5.44-1.87l-2.29-.07-3.84-1.08,1.2-6.07,1.55-8.41,4.63-.78,1.32-.28,6.04-1.44-.98,20.18Z" fill="#f1efed"/><path d="M38,20.52l-.16,2.46c-13-2.26-38.56,1.92-35.55,4.2.32.25,1.6,1.22,1.97,1.29l12.33,2.3.14,1.69-14.49-2.61.17,8.48-2-.29-.41-12.05c6.44-5.49,20.73-5.6,31.27-5.43l6.73-.03Z" fill="#676665"/><path d="M44.02,22.97l-1.75,6.57,3.9,1.83-4.63.78-1.55,8.41-1.2,6.07,3.84,1.08.03,1.07-4.5-.17-.19,3.33-2.21-.26,3.88-18.98h-3.62s-19.31-.26-19.31-.26l-.14-1.69,4.34.57c5.12.67,10.59.07,15.6-.58l1.31-7.77.16-2.46,1.29-3.03c.39-.93.56-3.16.73-4.21l1.42.25-1.3,6.54-1.49,9.18,1.26,1.21,2.02-7.08,2.09-.41Z" fill="#4c4d4c"/><path d="M51.53,5.6l.07-1.14,2.2-2.68-4.66.62c-.67.09-1.65,1.57-1.97,2.07l-2.53,2-1.18.4c-.32.11-.65,1.06-.75,1.45l-1.27,5.2-1.42-.25,1.47-8.69c.15-.88,2.16-2.82,2.98-2.98L52.34.02c.77-.16,2.57.79,2.98,1.47.31.52.2,2.72-.38,2.92l-3.4,1.19Z" fill="#676665"/><path d="M44.64,6.48l-.02,1.15-1.67,9.48-.4,4.05,1.34.79.13,1.02-2.09.41-2.02,7.08-1.26-1.21,1.49-9.18,1.3-6.54,1.27-5.2c.1-.39.42-1.34.75-1.45l1.18-.4Z" fill="#d1d1cf"/><polygon points="46.37 7.4 44.42 17.46 42.95 17.11 44.62 7.63 46.37 7.4" fill="#747372"/><polygon points="51.61 4.46 51.53 5.6 46.37 7.4 44.62 7.63 44.64 6.48 47.17 4.48 51.61 4.46" fill="#3a3939"/><polygon points="43.89 21.95 42.55 21.16 42.95 17.11 44.42 17.46 43.89 21.95" fill="#4c4d4c"/><path d="M4.4,89.26l-1.98-.54c-.46-.13.86-1.41,1.05-1.53.41.11.94,1.47.93,2.06Z" fill="#676665"/><path d="M16.72,32.45l19.31.26.27.78-1.24,3.79-1.42,7.29-1.19,3.38-11.76-.66-.36-2.14-9.32,1.71c-2.15.39-4.58,1.67-6.02,2.62l-.1,1.72.45,7.28-1.92.02-.07-4.78.21-2.02-.85-7.73-.3-5.64-.17-8.48,14.49,2.61Z" fill="#f1efed"/><path d="M52.56,49.84l-.5,12.42-.61,9.66-.64,9.6-1.28,18.26c-2.65,2.16-6.95,3.4-9.9,3.79l-.48-1.08,1.76-1.51-3.81-.39-.08,2.07c-.51.03-1.7-.05-1.8-.55l-.2-1.51,2.98-.66,6.09-1.62c3.57-.95,4.28-3.69,4.47-7.18l.57-10.66.52-9.56.38-7.42.42-3.91-.09-9.97,2.19.2Z" fill="#d1d1cf"/><path d="M5.33,58.47l.63,9.63.7,10.51.55,10.57c.23,4.5,1.03,8.46,6.05,9.58l5.47,1.22c.46.1,1.72.62,1.91.72l-2.4,3.21c-3.63-.44-7.93-1.69-11.5-3.5l-1.24-6.4-.46-12.42-.7-8.77-.44-5.51-.47-8.81,1.92-.02ZM15.74,101.29c-2.25-.21-2.08-.2.42.04,1.02.1.64.06-.42-.04Z" fill="#d1d1cf"/><path d="M35.03,100.61l.2,1.51c.09.5,1.29.58,1.8.55l2.13-.17.48,1.08c-7.23.95-14.19,1.22-21.41.34l2.4-3.21,14.4-.09Z" fill="#eae4d9"/><path d="M3.35,53.71c-.14-.23-.73-1.19-.72-1.16,0,.02.92-.85.94-.86l-.21,2.02Z" fill="#676665"/><path d="M37.98,51.95l4.17-.7c.5-.08.55-1.95.52-2.46l-.03-1.07,2.29.07c-.27.86.19,2.25.79,2.54l2.89,1.41-4.16.79-7.21,1.34-2.23.25-1.86.11-1.91.11-5.8.36c-.85.05-2.36-1.32-2.98-1.85l9.33-.29c.52-.01,2.11-.7,2.21-1.21l2.93-14.81c.14-.73-.49-3.11-.62-3.05l-.27-.78h3.62s-3.88,18.97-3.88,18.97l2.21.26Z" fill="#c3c4ac"/><path d="M50.36,49.64l.09,9.97-.42,3.91-.69-3.19.22-6.59c.01-.44-.59-1.82-.97-2l-2.89-1.41c-.6-.29-1.06-1.68-.79-2.54,1.55.04,3.95,1,5.44,1.87Z" fill="#6a553f"/><path d="M37.84,22.99l-1.31,7.77c-5.01.66-10.48,1.25-15.6.58l-4.34-.57-12.33-2.3c-.37-.07-1.64-1.04-1.97-1.29-3.01-2.27,22.55-6.45,35.55-4.2Z" fill="#f1efed"/><path d="M42.67,48.78c.03.51-.02,2.38-.52,2.46l-4.17.7.19-3.33,4.5.17Z" fill="#a47148"/><path d="M51.61,4.46l-4.43.02c.32-.51,1.3-1.98,1.97-2.07l4.66-.62-2.2,2.68Z" fill="#d1d1cf"/><path d="M32.46,47.95l-.68,4.61-9.33.29-1.46-1.25-5.34.68-1.57-.17-.92-4.08c1.88-.31,5.55-.88,7.55-.73l11.76.66Z" fill="#b8bc65"/><path d="M6.53,49.91l-.22,1.93.6,8.51.69,10.56.63,8.67.63,8.67.54,7.39,10.46,2.85,17.22.17,5.78-.9c1.25-.19,3.61-2.35,3.71-3.79l.53-7.67.63-9.5c.2-2.93.47-5.99-.65-7.82l-.68-2.07,1.39-2.26,1.55-4.34.69,3.19-.38,7.42-.52,9.56-.57,10.66c-.19,3.48-.9,6.23-4.47,7.18l-6.09,1.62-2.98.66-14.4.09c-.19-.1-1.45-.62-1.91-.72l-5.47-1.22c-5.01-1.12-5.81-5.08-6.05-9.58l-.55-10.57-.7-10.51-.63-9.63-.45-7.28.1-1.72,1.55.44Z" fill="#503824"/><path d="M31.78,52.55l.68-4.61,1.19-3.38,1.42-7.29,1.24-3.79c.13-.06.76,2.31.62,3.05l-2.93,14.81c-.1.5-1.69,1.19-2.21,1.21Z" fill="#4c4d4c"/><path d="M20.7,47.29c-1.99-.15-5.67.42-7.55.73l-2.15.86-4.46,1.03-1.55-.44c1.44-.94,3.88-2.23,6.02-2.62l9.32-1.71.36,2.14Z" fill="#6a553f"/><polygon points="39.15 102.49 37.02 102.66 37.1 100.59 40.92 100.98 39.15 102.49" fill="#503824"/><path d="M16.15,101.33c1.02.1.64.06-.42-.04-2.25-.21-2.08-.2.42.04Z" fill="#6e3b17"/><path d="M22.45,52.84c.63.53,2.14,1.91,2.98,1.85l5.8-.36-2.61,10.21-3.36,11.44-3.86-2.28-6.73,2.66-.37.22-.67-8.64c-1.18-.24-.73-.52.17-.71.23.18.78,1.07,1.16,1.12l3.65.55.51-3.45,2.76,1.98c1.51-.27,4.13-3.41,3.39-4.3-1.62-1.45-2.52-2.53-2.31-3.57.31-1.5-.61-3.67-1.78-4.36-2.64-1.59-6.82,1.24-6.86,1.45-.02.11-.7-1.5-1.16-2.59l5.13-.8-2.64-.98,5.34-.68,1.46,1.25Z" fill="#774a25"/><path d="M33.14,54.23l-.62,7.41c1.86-2.36,2.41-4.78,2.49-7.53l2.23-.25-.08,5.39c.02.66,1.84,1.96,2.14,2.13l-3.3.77c-.36.11-.85.72-.86,1.1l.05,1.08-.95,3.05c-.28-.08-1.02-.27-1.19-.6l-1.42-2.84-2.09,4.3-1.11,2.18c-.24.48,1.3,1.35,1.6,1.77l1.76,3.23-1.55,6.4-1.94,6.29-2.82,5.7c-.23.47-1.87,1.14-2.39,1.25s-1.32-1.49-1.11-1.47l3.92-3.64-2.23-.81-.05-1.94,4.41-2.25,1.84-11.47-3.37,1.22.66,3,.79,2.27c.17.49-1.79.58-2.81.57l-.2-2.02s-4.05-3.59-5.74-2.73l-4.43,1.88-.1-1.29,6.73-2.66,3.86,2.28,3.36-11.44,2.61-10.21,1.91-.11Z" fill="#503824"/><path d="M21.67,89.2l1.98-.07-.05,1.53c-.02.38-1.8.87-2.18.75l-5.55-2.34,5.8.13Z" fill="#503824"/><path d="M44.44,52.52l-.17,2.08-4.9.92,2.44,4c.3.5,1.95.87,2.45.53l2.73-1.69c.76,2.84-2.96,4.26-.59,8.56l.68,2.07-3.42,4.79c-.24.39-1.5.92-1.94,1.11l2.83-5.14c.24-.47.26-2.31-.13-2.62l-1.35-1.05c-.11-1.01-.87-3.11-1.88-3.45-.41-.14-2.07.59-2.03.17l.12-1.41c-.3-.17-2.12-1.47-2.14-2.13l.08-5.39,7.21-1.34Z" fill="#774a25"/><path d="M48.6,51.73c.38.19.98,1.57.97,2l-.22,6.59-1.55,4.34-1.39,2.26c-2.38-4.29,1.35-5.71.59-8.56l-.73-2.74c-.14-.53-1.62-.92-1.99-1.01l.17-2.08,4.16-.79Z" fill="#6e3b17"/><path d="M35,54.11c-.08,2.75-.63,5.17-2.49,7.53l.62-7.41,1.86-.11Z" fill="#774a25"/><path d="M11,48.88l-.83,3.66,3.9-.43,1.57.17,2.64.98-5.13.8c.46,1.08,1.14,2.7,1.16,2.59.05-.21,4.22-3.04,6.86-1.45,1.16.7,2.08,2.86,1.78,4.36l-4.1,1.89c-.69.42-2.33.81-4.03,1.25l-.06,4.3-.96.23c-.9.19-1.35.47-.17.71l.67,8.64-2.98,2.76-.46-8.26.62-4.16c-1.35-2.64-1.32-5.09-.74-7.62l-1.64-5.6c-.24-.83-1.91-2.05-2.78-1.86l.22-1.93,4.46-1.03Z" fill="#c3c4ac"/><polygon points="14.07 52.11 10.17 52.53 11 48.88 13.15 48.02 14.07 52.11" fill="#eee4c9"/><polygon points="23.6 87.18 23.65 89.13 21.67 89.2 20.52 86.42 23.6 87.18" fill="#6e3b17"/><path d="M14.3,76.57l.37-.22.1,1.29.03,1.18-3.29,2.23.29,5.1.13,2.32.26,4.63c.06.98,2.43,2.05,3.3,1.83.24-2.09.21-4.48-.76-5.25l.68-1.18c.2-.29.3.18.43.55l5.55,2.34c.38.12,2.16-.37,2.18-.75l.05-1.53,2.23.81-3.92,3.64c-.21-.02.59,1.58,1.11,1.47s2.16-.78,2.39-1.25l2.82-5.7,1.94-6.29,5-2.12c.88-.39,3.2.44,4.76.82l1.13-5.02c.06-.27.32-.47.61-.6.44-.19,1.7-.72,1.94-1.11l3.42-4.79c1.11,1.83.84,4.89.65,7.82l-.63,9.5-.53,7.67c-.1,1.43-2.46,3.59-3.71,3.79l-5.78.9-17.22-.17-10.46-2.85-.54-7.39-.63-8.67-.63-8.67-.69-10.56-.6-8.51c.88-.19,2.54,1.03,2.78,1.86l1.64,5.6c-.57,2.54-.6,4.98.74,7.62l-.62,4.16.46,8.26,2.98-2.76ZM33.45,84.78l-.11,2.88,2.75.1.11-2.88-2.75-.1Z" fill="#6e3b17"/><path d="M22.96,59.55c-.21,1.04.69,2.13,2.31,3.57.74.89-1.88,4.03-3.39,4.3l-2.76-1.98-.51,3.45-3.65-.55-.2-1.35.06-4.3c1.71-.45,3.34-.84,4.03-1.25l4.1-1.89Z" fill="#a47148"/><path d="M14.96,68.35c-.38-.06-.92-.94-1.16-1.12l.96-.23.2,1.35Z" fill="#6e3b17"/><path d="M23.6,87.18l-3.08-.77,1.15,2.78-5.8-.13c-.13-.37-.24-.84-.43-.55l-.68,1.18c-.62-.49-2.13-1.21-2.81-1.21l-.13-2.32,3.19,1.28-.2-8.61-.03-1.18,4.43-1.88c1.69-.86,5.74,2.78,5.74,2.73l.2,2.02c1.02,0,2.98-.08,2.81-.57l-.79-2.27-.66-3,3.37-1.22-1.84,11.47-4.41,2.25Z" fill="#774a25"/><path d="M34.22,67.37l.08,3.06,1.95-2.47.41,2.35,1.53,2.77c.29.53,2.51-1.04,2.56-1.64l.05-5.44,2.29.07,1.35,1.05c.39.31.38,2.15.13,2.62l-2.83,5.14c-.29.13-.55.32-.61.6l-4.41-.26-4.93.18-1.76-3.23c-.3-.43-1.85-1.3-1.6-1.77l1.11-2.18,2.09-4.3,1.42,2.84c.16.33.91.52,1.19.6Z" fill="#a47148"/><path d="M41.11,75.48l-1.13,5.02c-1.56-.38-3.88-1.21-4.76-.82l-5,2.12,1.55-6.4,4.93-.18,4.41.26Z" fill="#774a25"/><path d="M37.34,64.15l3.45,1.85-.05,5.44c-.06.6-2.27,2.17-2.56,1.64l-1.53-2.77-.41-2.35-1.95,2.47-.08-3.06.95-3.05c.44-.14,1.7-.42,2.16-.17Z" fill="#c3c4ac"/><path d="M39.29,61.38l-.12,1.41c-.04.42,1.62-.31,2.03-.17,1.01.34,1.77,2.44,1.88,3.45l-2.29-.07-3.45-1.85-1.35-2,3.3-.77Z" fill="#6e3b17"/><path d="M37.34,64.15c-.47-.25-1.73.03-2.16.17l-.05-1.08c.01-.37.5-.99.86-1.1l1.35,2Z" fill="#a47148"/><path d="M35.17,64.32l-.05-1.08.05,1.08Z" fill="#6e3b17"/><path d="M44.27,54.6c.37.09,1.85.49,1.99,1.01l.73,2.74-2.73,1.69c-.5.33-2.14-.04-2.45-.53l-2.44-4,4.9-.92Z" fill="#e0bd7c"/><polygon points="11.8 86.15 11.51 81.05 14.8 78.82 14.99 87.44 11.8 86.15" fill="#d1d1cf"/><path d="M14.75,89.69c.97.77,1,3.16.76,5.25-.87.22-3.25-.85-3.3-1.83l-.26-4.63c.69,0,2.2.72,2.81,1.21Z" fill="#c3c4ac"/><rect x="33.33" y="84.89" width="2.88" height="2.76" transform="translate(-52.72 117.83) rotate(-87.88)" fill="#a47148"/></g></svg>