<?xml version="1.0" encoding="UTF-8"?><svg id="Layer_2" xmlns="http://www.w3.org/2000/svg" viewBox="0 0 60.92 111.06"><g id="Layer_1-2"><path d="M53.8,67.16l-1.97-.03.59-5.68.52-9.67.45-5.78,1.29-14.98-13.03,3.06c-.83.19-1.93,2.19-2.16,3.03l-2.79,11.64-2.2-.1.28-2.55,3.17-11.48-22.19-.22-4.39-.89-.02-.89h27.41s2.46-8.82,2.46-8.82l.73-2.62,1.99-7.17,3.66-11.55L56.48.05c.97-.26,3.25.54,3.92,1.13s.76,3.2-.06,3.59c-4.85,2.32-8.36.71-9.44,4.83l-3.46,13.3,6.3,2.16c1.22.42,2.93,3.11,2.83,4.54l-.82,11.17-1.05,14.4-.9,11.98ZM58.32,1.94l-6.64.88.3,2.25,6.64-.88-.3-2.25ZM47.95,6.37l-7.22,25.44,2.01.5,6.2-21.6c.33-1.14.33-3.28.2-4.02l1.84-2.27c.19-.26-2.05-.82-2.23-.31l-.8,2.26ZM55.04,28.05l-8.23-3.53-2.1,7.35c4.65-.83,6.85-1.28,10.33-3.83Z" fill="#595858"/><path d="M53.8,67.16l-1.05,13.93-.82,10.89-1.32,11.56c-.61,5.34-18.93,8.38-25.8,7.33l-6-.91,2.34-1.36c10.14,1.85,27.47-1.61,27.79-5.35l1.17-13.76.67-7.95.66-7.73.39-6.68,1.97.03Z" fill="#615d59"/><path d="M41.93,21.16l-.73,2.62-8.77-.57c-8.53-.59-16.88.3-25.32,2.22l-5.31,2.37-1.13-.92c1.06-2.5,11.08-5.27,16.39-5.3l22.27-.1,2.59-.32Z" fill="#676665"/><path d="M4.43,69.08l.64,6.54.52,5.92.33,7.62,1.08,9.8c.55,5,2.54,7.52,7.57,8.43l6.57,1.2-2.34,1.36-9.08-2.1c-1.71-.39-4.08-3.86-4.23-5.72l-1.13-13.83-.81-8.72-.95-10.5h1.8Z" fill="#595858"/><path d="M1.79,27.79c.18.27,0,1.22.3,1.37l1.64.85-2.22.73c0-.07-.03.56-.05,1.09l.62,6.49.67,7.68.67,8.72.34,6.67h-1.84s-.44-9.42-.44-9.42l-.32-5.2-.64-7.56c-.32-3.7-1.07-9.49.15-12.34l1.13.92Z" fill="#615d59"/><polygon points="3.77 61.4 4.43 69.08 2.63 69.08 2.3 65.6 1.92 61.4 3.77 61.4" fill="#3a3939"/><path d="M11.35,33.49l4.39.89,22.19.22-3.17,11.48-3,.85-10.96.26,2.04,5.09c-.15.06-2.19.43-2.92.43l-.24-1.71-6.38-.73.86,2.38.03,2.13.18,11.23-3.03-.36-.6-6.11-1.33-8.46c-.1-.62-.75-1.79-1.17-2.65l.12-2.91c-.9.48-2.71,1.49-3.32,2.05s.38,2.28.41,3.1l.47,14.54.73,7.58-.05,1.16.31,6.23-1.31,1.36-.52-5.92-.64-6.54-.66-7.68-.34-6.67-.67-8.72-.67-7.68-.62-6.49c.03-.54.06-1.17.05-1.09.33.29,2.2,1.14,2.8,1.26l7.03,1.49ZM17.25,39.58c-1.92-.16-3.14-.26-2.99.13l.8,2.13,2.19-2.27ZM14.29,44.11v1.92h6.72v-1.92h-6.72Z" fill="#f1efed"/><path d="M51.83,67.13l-.39,6.68-.66,7.73-.67,7.95-1.17,13.76c-.32,3.73-17.64,7.19-27.79,5.35l-6.57-1.2c-5.04-.92-7.03-3.43-7.57-8.43l-1.08-9.8-.33-7.62,1.31-1.36.67,2.4,1.13,13.96c.07.91,1.01,2.95,1.55,3.55,1.75,1.93,6.41,3.82,9.54,3.94l12.09.46c1.29.05,2.55.56,4.26,1.9l7.41-1.19,1.56-4.34c1.32-.74,2.49-2.94,2.64-4.77l.79-9.81.62-7.54.64-6.72.57-6.03.77-8.27.54-5.84,1.25-.09-.52,9.67-.59,5.68ZM17.29,104.31l-3.15-.67c-.42-.09-1.34,1.33-.95,1.48l2.04.78,6.01.4c-1.18-.9-2.86-1.76-3.96-1.99Z" fill="#eee4c9"/><path d="M41.2,23.78l-2.46,8.82H11.33c-.09-.32-.49-.8-.76-1l.37-.89,9.9-1.87,11.73-.26-.05-1.67-9.43.16-8.04.87c-1.9.21-4.45,1.32-5.64,2.79l-5.67-.72-1.64-.85c-.29-.14-.12-1.1-.3-1.37l5.31-2.37c8.44-1.92,16.79-2.81,25.32-2.22l8.77.57Z" fill="#f1efed"/><path d="M52.93,51.77l-1.25.09.02-1.97c.12-.89-1-3.25-2.19-3.58l-7.28-2.05-1.14-.21,1.31-3.65.82-5.15-2.2,1.81-1.54.04c.24-.84,1.33-2.83,2.16-3.03l13.03-3.06-1.29,14.98-.45,5.78Z" fill="#f5eee2"/><path d="M46.97,49.78l-23.11,2.41,1.97,1.66,6.91-.43.19,1.43h-1.13s-17.6-.06-17.6-.06l-.03-2.13,5.77.05c.73,0,2.77-.37,2.92-.43l-2.04-5.09,10.96-.26c.05.45.18,1.69.66,1.69h2.06s2.2.11,2.2.11l1.64.15c2.37.21,1.85-3.3,3.29-2.92l7.78,2.02-2.43,1.8Z" fill="#eee4c9"/><path d="M47.95,6.37l1.19.32c.13.74.13,2.88-.2,4.02l-6.2,21.6-2.01-.5,7.22-25.44Z" fill="#d1d1cf"/><path d="M55.04,28.05c-3.48,2.54-5.69,3-10.33,3.83l2.1-7.35,8.23,3.53Z" fill="#eae4d9"/><polygon points="41.02 37.06 38.76 46.43 38.32 48.88 36.69 48.73 39.48 37.1 41.02 37.06" fill="#c3c4ac"/><path d="M9.4,30.73l1.16.87c.27.2.67.68.76.99l.02.89-7.03-1.49c-.6-.13-2.47-.97-2.8-1.26l2.22-.73,5.67.72Z" fill="#676665"/><rect x="51.8" y="2.38" width="6.7" height="2.27" transform="translate(.02 7.3) rotate(-7.57)" fill="#d1d1cf"/><path d="M34.77,46.08l-.28,2.55h-2.06c-.48,0-.61-1.25-.66-1.7l3-.85Z" fill="#c3c4ac"/><path d="M49.14,6.69l-1.19-.32.8-2.26c.18-.51,2.42.05,2.23.31l-1.84,2.27Z" fill="#9c9c9b"/><path d="M51.71,49.9l-.02,1.97-.54,5.84-.77,8.27-.57,6.03-2.86.85-4.42,1.39-2.41-3.31c-.76-1.01-3.51-2.29-4.67-2.98-.35-.2-1.54,1.48-1.2,1.67l2.23,1.25c1.35.76,2.97,1.9,3.63,3-2.49-.94-6.29.22-7.77,2.41l-1.46.15,1.29-5.92-1.35-.28-1.82,4.67-2.22-.16-2.15.1-5.87-.8.47-4.23c1.2-.27.36-2.11-.44-2.04h-3.87s-4.29.44-4.29.44l-.16,4.67-2.89-.25-.95.16-.73-7.58-.47-14.54,3.96.41,1.33,8.46.6,6.11,3.03.36-.18-11.23,17.6.07-1.08,3.69-2.19,5.77,2.52,1.54c.41.25,1.52,1.39,1.74.96l.96-1.9-2.61-1.58,2.04-6.91c.1-.34-.23-1.72-.26-1.57l-.19-1.43,3.09-.47.33,1.87-1.21,4.01c2.05-.95,2.7-2.5,2.69-3.76l-.02-2.07,9.42-1.82,4.67-1.27ZM46.98,62.81l-3.77-7.4c-1.22.49-2.46,1.01-2.41,1.52.18,2.04,1.13,7.25,6.18,5.88ZM21.43,67.88c.64-1.08,1.38-2.4,1.37-2.45l-1.37,2.45Z" fill="#e7d6b8"/><path d="M49.8,72.01l-.64,6.72-.62,7.54-.79,9.81c-.15,1.83-1.32,4.03-2.64,4.77l-10.82,1.73-13.22.03c-1.53,0-4.71-1.14-6.02-1.57l-4.79-.95c-.54-.6-1.48-2.64-1.55-3.55l-1.13-13.96-.67-2.4-.31-6.23.99-1.32,2.89.25c.55.05.76,1.39.77,2,.07,9.11,1.85,23.39,3.68,22.01l1.43-1.08,2.44,1.5c2.68,1.65,6.03,1.69,8.06-.21.63-.54,1.98-1.51,2.79-1.64l3.17-.51c.94-.15,1.76-1.91,2.01-2.93.29-1.17-.57-2.86-1.92-5.37,6.19-.75,10.02-5.78,9.2-11.66l.43-.75,4.42-1.39,2.86-.85ZM42.07,96.66l1.55-3.07c.22-.43-.96-1.52-1.19-1.34l-3.21,4.33,2.85.08Z" fill="#939e39"/><path d="M18.77,74.04l5.87.8-.69,4.66-3.29-2.21c-.02-.07-.85,2.27-.51,2.51l2.99,2.15.74.68-1.45.83-.29-.4-2.13-.43,1.74,3.01,1.62,3.45c.83-1.73,3.56-3.99,6.05-3.23,1.5.46,3.14,3.82,3.25,5.18.03.4-.3,1.88-.77,2.01l-2.36.65c-1.12.31-2.33,1.91-2.72,3.39-3.76.48-7.98-1.43-10.74-4.12l-.45-3.14-.46-15.22c.83-.33,2.6-.72,3.57-.59Z" fill="#939e39"/><path d="M9.41,51.09l-3.96-.41c-.03-.82-1.01-2.54-.41-3.1s2.42-1.57,3.32-2.05l-.12,2.91c.43.86,1.07,2.03,1.17,2.65Z" fill="#747372"/><polygon points="19.93 52.71 14.17 52.65 13.31 50.27 19.69 51 19.93 52.71" fill="#747372"/><rect x="14.29" y="44.11" width="6.72" height="1.92" fill="#c3c4ac"/><path d="M17.25,39.58l-2.19,2.27-.8-2.13c-.15-.39,1.07-.29,2.99-.13Z" fill="#747372"/><polygon points="6.59 73.96 6.64 72.8 7.59 72.64 6.59 73.96" fill="#c3c4ac"/><path d="M45.12,100.85l-1.56,4.34-7.41,1.19c-1.7-1.35-2.96-1.85-4.26-1.9l-12.09-.46c-3.14-.12-7.79-2-9.54-3.94l4.79.95c1.31.43,4.49,1.58,6.02,1.57l13.22-.03,10.82-1.73Z" fill="#6a553f"/><path d="M17.29,104.31c1.1.23,2.78,1.1,3.96,1.99l-6.01-.4-2.04-.78c-.39-.15.53-1.57.95-1.48l3.15.67Z" fill="#7c7c7b"/><path d="M10.57,31.6l-1.16-.87c1.19-1.47,3.74-2.59,5.64-2.79l8.04-.87,9.43-.16.05,1.67-11.73.26-9.9,1.87-.37.89Z" fill="#9c9c9b"/><path d="M51.71,49.9l-4.67,1.27-.07-1.39,2.43-1.8-7.78-2.02-.25-.72.88-.98,7.28,2.05c1.19.33,2.31,2.7,2.19,3.58Z" fill="#7c7c7b"/><path d="M41.09,44.05l.26,1.19.25.72c-1.44-.37-.92,3.13-3.29,2.92l.44-2.45,2.26-9.37,2.2-1.81-.82,5.15-1.31,3.65Z" fill="#615d59"/><polygon points="41.36 45.24 41.09 44.05 42.24 44.26 41.36 45.24" fill="#eee4c9"/><polygon points="46.97 49.78 47.03 51.17 37.61 52.99 37.63 55.06 36.15 54.81 35.83 52.94 32.74 53.42 25.82 53.85 23.85 52.19 46.97 49.78" fill="#676665"/><path d="M31.8,54.86h1.13c.03-.16.36,1.22.26,1.56l-2.04,6.91,2.61,1.58-.96,1.9c-.22.43-1.33-.71-1.74-.96l-2.52-1.54,2.19-5.77,1.08-3.69Z" fill="#747372"/><path d="M32.35,76.28l1.48,3.91,4.52.52-6.93,3.65c-.35-.2,1,.58,1.72.99,6.15-2.41,8.04-5.39,6.98-11.49l1.99,1.13c.82,5.88-3.02,10.9-9.2,11.66,1.35,2.51,2.21,4.19,1.92,5.37l-2.13-.97c-.11-1.36-1.75-4.72-3.25-5.18-2.49-.76-5.22,1.5-6.05,3.23l-1.62-3.45-1.74-3.01,2.13.43,1-1.11-2.99-2.15c-.34-.25.49-2.58.51-2.51l3.29,2.21.69-4.66,2.15-.1.36,5.15,1.86-4.99,1.82-4.67,1.35.28-1.29,5.92,1.46-.15ZM24.37,79.63l-.48.48.48.48.48-.48-.48-.48ZM22.44,83.47l1.45-.83-1.45.83Z" fill="#503824"/><path d="M40.11,73.87c1.05,6.1-.84,9.09-6.98,11.49-.71-.41-2.07-1.2-1.72-.99l6.93-3.65-4.52-.52-1.48-3.91c1.47-2.2,5.27-3.35,7.77-2.41Z" fill="#939e39"/><path d="M14.93,67.78l.53,1.83,3.78.2-.47,4.23c-.97-.13-2.74.25-3.57.59l-3.95.26c0-.61-.22-1.95-.77-2l.16-4.67,4.29-.43Z" fill="#f5eee2"/><path d="M46.98,62.81c-5.05,1.37-6-3.85-6.18-5.88-.05-.51,1.19-1.03,2.41-1.52l3.77,7.4Z" fill="#f8f6f4"/><path d="M42.53,74.24l-.43.75-1.99-1.13c-.67-1.1-2.28-2.24-3.63-3l-2.23-1.25c-.34-.19.85-1.88,1.2-1.67,1.16.69,3.91,1.97,4.67,2.98l2.41,3.31Z" fill="#615d59"/><path d="M19.24,69.81l-3.78-.2-.53-1.83h3.87c.81-.08,1.65,1.76.44,2.03Z" fill="#7c7c7b"/><path d="M37.63,55.06c.01,1.27-.64,2.81-2.69,3.76l1.21-4.01,1.48.24Z" fill="#595858"/><polygon points="29.01 74.9 27.14 79.89 26.79 74.74 29.01 74.9" fill="#939e39"/><path d="M21.43,67.88l1.37-2.45c.01.06-.72,1.38-1.37,2.45Z" fill="#7c7c7b"/><path d="M15.2,74.62l.46,15.22.45,3.14.24,2.83-1.43,1.08c-1.82,1.38-3.61-12.9-3.68-22.01l3.95-.26Z" fill="#e7d6b8"/><path d="M26.85,97.1c-2.04,1.89-5.38,1.86-8.06.21l-2.44-1.5-.24-2.83c2.76,2.7,6.99,4.6,10.74,4.12Z" fill="#774a25"/><path d="M29.56,93.72l.07,1.74c-.8.13-2.15,1.1-2.79,1.64.38-1.48,1.59-3.08,2.72-3.39Z" fill="#774a25"/><path d="M42.07,96.66l-2.85-.08,3.21-4.33c.23-.18,1.41.91,1.19,1.34l-1.55,3.07Z" fill="#774a25"/><path d="M34.82,92.02c-.25,1.02-1.07,2.78-2.01,2.93l-3.17.51-.07-1.74,2.36-.65c.47-.13.79-1.62.77-2.01l2.13.97Z" fill="#b8bc65"/><rect x="24.03" y="79.77" width=".68" height=".68" transform="translate(-49.5 40.7) rotate(-45)" fill="#939e39"/></g></svg>