<?xml version="1.0" encoding="UTF-8"?><svg id="Layer_2" xmlns="http://www.w3.org/2000/svg" viewBox="0 0 65.42 122.99"><g id="Layer_1-2"><path d="M43.17,31.46l.27,1.27-1.97,3.98c-.17.48-.44,1.87-.85,1.8l-2.15-.38-8.74-1.49c-5.41-.92-10.42.8-15.63,2.26-2.71.76-7.03,1.97-9.07,3.03-.5.26.23,2.73.79,2.81l2.6.35-.68-2.84,13.07-3.28c6-1.51,13.49-.42,18.91,1.68.32,1.28.65,2.92,1.24,3.13l1.95.63-1.41,4.63-5.27-.7c-1.59-.21-4.23,1.86-4.76,3.14l-1.55,1.5c-4.47-.03-8.88-1.98-11.91-4.74l1.65-.27c.4-.03.94-1.4.55-1.49l-2.13-.48c-.33-.07-1.67.07-1.93.33l-.9.9c-.68.23-2.63,2.38-2.47,3.45l.61,4.09,1.13,2.81-.18,6.59,1.95,3.21.21,5.76-3.1,2.71-.23-6.93c-.01-.41-1.01-1.56-1.3-1.84s-1.11.63-1.21,1.04l-1.28,3.19-1.54-11.73c-1.77,5.36-.95,14.88,2.01,18.27.09,1.18.33,3.49.16,4.69l-.83,5.76c-.19,1.3-1.04,4.36-.81,5.68l1.15,6.84.11,4.85,1.1.99-.22,4.76c-.02.51-1.6,1.13-1.8.87l-.39-7.31-.66-6.09-.63-5.18c-.11-.9-.75-2.75-1.11-3.54l-1.23-2.71,1.33-.36-1.33-22.48-.64-8.02-.88-12.37-1.19-16.52c9.24,3.6,21.44,4.85,31.3,4.3l9.89-.55Z" fill="#f5eee2"/><path d="M35.56,122.99l.15-1.81,7.54-1.04,8.67-2.72c1.09-.34,2.7-3.1,2.78-4.5l1-19.73.68-10.64,2.31-37.11.94-17.08-10.32,2.41-2.65,7.23c2.24.69,6.68,1.92,8.5,2.75,1.03.47,1.83,3.61,1.36,4.45-.82-.11-1.47-1.24-2.25-2.91l-7.88-2.56-2.88,10.84c-.5,1.88,6.74,3.03,4.59,9.73-1.65,5.14-4.8,7.93-10.91,8.05l-2.99,9.34c-.4,1.25.33,4.72.52,5.81l-1.91-.1-.89-4.84c-.32-1.35-1.93-4.08-2.7-5.14l-4.44,3.5,1.29-5.01c-2.93-.4-6.28.38-7.79,2.12l-1.14-.97c.72-.84,3.33-2.83,4.78-3.15,3.71-.82,8.63,1.67,11.11,4.33l1.99-4.75-1.23-2.05-3.36-2.79.96-.65,3.06,1.35c.52.23,1.69.54,2.18.61l1.45.2c1.57.21,5.26-.31,6.28-1.54,1.41-1.72,1.93-4.86,2.02-6.72.13-2.53-1.8-4.73-4.14-5.12l-.83-.14-2.65-2c-.72-.54-3.07.54-3.38.98l-.77.04-2.19.13-.95-.33c.54-1.28,3.17-3.35,4.76-3.14l5.27.7,1.41-4.63,1.5-4.84,2.69-8.46-3.94.35-9.89.55c-9.86.54-22.06-.7-31.3-4.3l1.19,16.52.88,12.37h-1.96s-.96-12.45-.96-12.45L0,24.03c1.8-1.52,4.48-3.22,6.58-3.76,13.27-3.35,25.74-3.74,39.63-1.81l3.35-12.41c.47-1.73,2.68-4.13,4.28-4.44L61.82.03c1.47-.29,3.75,1.66,3.6,3.21-.11,1.16-2.07,2.54-3.26,2.77l-6.74,1.35-5.54,21.13,9.83-2.63-4.53-4.39c1.9.19,3.59.46,4.56.94s2,3.25,1.93,4.47l-5.4,88.97c-3.34,5.26-14,7.19-20.7,7.14ZM63.01,1.48l-7.27,1.47.47,2.32,7.27-1.47-.47-2.32ZM47.97,27.57l5.35-19.83-1.95-.42-5.21,19.13c-.18.66.18,2.24.27,2.69s1.38-.99,1.54-1.57ZM44.2,26.26l.58-1.71c.31-.91.53-3.22.53-4.6l-13.63-.85c-7.92-.49-23.49,1.12-29.86,5.88,10.73,6.91,41.02,5.27,41.36,4.27l1.03-2.99Z" fill="#615d59"/><path d="M7.66,98.87l.66,6.09.39,7.31.47,2.82,2.11,2.35c.58.65,3.18-.12,3.61-.47l.08,1.12c.05.5,1.38,1.46,2,1.55l9.7,1.52.08,1.75c-8.06-.06-19.76-2.68-20.13-9.37l-.81-14.73,1.85.06Z" fill="#676665"/><path d="M4.68,64.61l1.33,22.48-1.33.36c-.28-.62-.7-1.99-.74-2.77l-.44-10.02-.74-10.13,1.91.08Z" fill="#615d59"/><polygon points="34.41 121.04 35.71 121.18 35.56 122.99 26.75 122.92 26.67 121.17 28.02 120.85 34.41 121.04" fill="#3a3939"/><polygon points="4.05 56.59 4.68 64.61 2.77 64.53 2.09 56.6 4.05 56.59" fill="#4c4d4c"/><path d="M7.66,98.87l-1.85-.06.11-8.67c.36.79,1,2.64,1.11,3.54l.63,5.18Z" fill="#595858"/><path d="M18.01,48.23c3.03,2.76,7.44,4.71,11.91,4.74-1.92,1.86-3.3,5.75-2.25,8.78.34.98,2.01,2.28,2.76,2.91l3.36,2.79,1.23,2.05-1.99,4.75c-2.48-2.66-7.4-5.15-11.11-4.33-1.45.32-4.06,2.31-4.78,3.15l-.64.07-.21-5.76-1.95-3.21.18-6.59,1.73-.58c.33-.11.16-2.11-.19-2.14l-2.66-.09-.61-4.09c-.16-1.07,1.79-3.22,2.47-3.45l2.76,1.01Z" fill="#eee4c9"/><path d="M40.96,43.77c-.59-.21-.92-1.85-1.24-3.13-5.41-2.1-12.9-3.19-18.91-1.68l-13.07,3.28.68,2.84-2.6-.35c-.56-.08-1.29-2.55-.79-2.81,2.04-1.05,6.36-2.27,9.07-3.03,5.21-1.46,10.22-3.18,15.63-2.26l8.74,1.49,2.15.38c.41.07.67-1.32.85-1.8l1.97-3.98c.1-.23.7,2.02.52,2.59l-3,8.46Z" fill="#676665"/><path d="M18.27,74.03l-2.43,2.8,5.78.58c-.13-.5.1.38.41,1.6l-6.75-.28c.1,2.31.53,5.73,1.74,7.25,2.5,3.15,8.82,3.7,8.88,2.84l.09-1.33,1.94-.03,2.08-1.73,2.8-2.33,1.91.1-5.48,5.62c-3.63,3.72-13.38.68-14.85-4.38-.86-2.96-.9-6.14-.99-8.89l3.1-2.71.64-.07,1.14.97Z" fill="#747372"/><path d="M9.39,71.31l.47,6.53c-2.96-3.39-3.79-12.91-2.01-18.27l1.54,11.73Z" fill="#7c7c7b"/><path d="M31.47,51.47l.95.33-2.38,4.59c-1.29,2.28-.44,5.92,1.35,7.63l-.96.65c-.75-.62-2.42-1.93-2.76-2.91-1.05-3.03.33-6.93,2.25-8.78l1.55-1.5Z" fill="#747372"/><path d="M42.92,44.4l-1.95-.63,3-8.46c.18-.57-.42-2.81-.52-2.59l-.27-1.27,3.94-.35-2.69,8.46-1.5,4.84Z" fill="#d1d1cf"/><path d="M10.73,106.65l-1.1-.99-.11-4.85,1.47.03c.36.03.87,1.64.77,1.98l-1.04,3.83Z" fill="#7c7c7b"/><path d="M18.01,48.23l-2.76-1.01.9-.9c.26-.26,1.6-.4,1.93-.33l2.13.48c.39.09-.16,1.46-.55,1.49l-1.65.27Z" fill="#676665"/><path d="M14.51,57.57l-1.13-2.81,2.66.09c.35.03.52,2.03.19,2.14l-1.73.58Z" fill="#4c4d4c"/><path d="M44.78,24.55l-8.57-.89c-7.62-.63-14.99.25-22.96,1.19-.89,3.39,9.75-.03,22.69.49l8.27.92-1.03,2.99c-.34,1-30.63,2.64-41.36-4.27,6.37-4.76,21.94-6.37,29.86-5.88l13.63.85c0,1.39-.22,3.69-.53,4.6Z" fill="#f1efed"/><path d="M58.69,45.43l-2.18-.24c.48-.84-.32-3.97-1.36-4.45-1.81-.83-6.26-2.06-8.5-2.75l2.65-7.23,10.32-2.41-.94,17.08Z" fill="#eae4d9"/><path d="M34.61,51.68c-.09.33.08,1.76.52,2.01l2.2,1.24.83.81c.22.22.44.25,1.27.26l-2.29,6.98-.51,2.99c-.49-.07-1.66-.38-2.18-.61l-3.06-1.35c-1.79-1.7-2.64-5.34-1.35-7.63l2.38-4.59,2.19-.13Z" fill="#f1efed"/><path d="M44.78,24.55l-.58,1.71-8.27-.92c-12.94-.51-23.59,2.9-22.69-.49,7.97-.94,15.35-1.82,22.96-1.19l8.57.89Z" fill="#7c7c7b"/><path d="M47.97,27.57c-.16.58-1.44,2.03-1.54,1.57s-.45-2.04-.27-2.69l5.21-19.13,1.95.42-5.35,19.83Z" fill="#d1d1cf"/><path d="M44.61,57.38l-4.06.24-2.48,8.55-1.45-.2.51-2.99,2.29-6.98,1.99-3.35.83.14-.33,1.59c-.02.57,1.17,1.01,2.42,1.48l.29,1.52Z" fill="#9c9c9b"/><path d="M38.4,116.21c.57.08,1.41.62,1.91.95.67.45,2.13,1,2.99,1.02l-.04,1.97-7.54,1.04-1.3-.14,1.95-5.13,2.04.3Z" fill="#f5eee2"/><path d="M41.41,52.65l-1.99,3.35c-.83-.01-1.04-.04-1.27-.26l-.83-.81-1.95-3.3c.31-.44,2.66-1.52,3.38-.98l2.65,2Z" fill="#d1d1cf"/><rect x="55.9" y="2.19" width="7.42" height="2.37" transform="translate(.51 11.89) rotate(-11.44)" fill="#d1d1cf"/><path d="M46.38,57.91c-.47-.27-1.35-.55-1.77-.52l-.29-1.52c-1.24-.47-2.44-.91-2.42-1.48l.33-1.59c2.34.39,4.27,2.59,4.14,5.12Z" fill="#d1d1cf"/><path d="M37.32,54.93l-2.2-1.24c-.44-.25-.61-1.68-.52-2.01l.77-.04,1.95,3.3Z" fill="#747372"/><path d="M26.89,115.12l1.13,5.73-1.35.32-9.7-1.52c-.62-.1-1.95-1.05-2-1.55l5.01-.63-.36-1.9c-.05-.28.15-.42.71-.81l6.55.36Z" fill="#f5eee2"/><path d="M18.6,114.17l-2.34,1.39c-.57-.06-1.53-.17-1.5.11l.13,1.31c-.42.35-3.02,1.12-3.61.47l-2.11-2.35,4.47-1.94,4.96,1.02Z" fill="#f5eee2"/><path d="M20.34,114.76c-.56.39-.77.54-.71.81l.36,1.9-5.01.63-.08-1.12-.13-1.31c-.03-.28.93-.17,1.5-.11l2.34-1.39,1.74.59Z" fill="#eee4c9"/><path d="M36.36,115.91l-1.95,5.13-6.39-.19-1.13-5.73,7.54.16c.4,0,1.94.6,1.92.63Z" fill="#eee4c9"/><path d="M43.56,84.74l.44,1.43,2.93.64c1.73,1.99,4.46,6.9,4.13,9.52l-1.13,6.73-1.11-.25-.08-9.63-.68.5c.12,7.81-.85,12.86-7.93,15.51-5.35,2-10.03,1.74-14.61-1.28l-2.69-1.34.12-1.6,4.24.46c1.4.15,3.05-2.81,3.61-4.57l-3.34.96,2.33-3.8,3.12-5.14,6.29-.91,1.67.67c.02.1.24,1.03.15,1.04l-1.51.26-3.64.67,6.13,2.78c-.02.2-.21,1.84-.11,1.02l-5.11-.5,6.58,6.54c3.73-3.79,3.7-8.92,1.44-12.74l-3.94-6.66,2.72-.32ZM47.51,92.67c.06,1,.05.98-.06-1.2l.06,1.2ZM41.85,106.62l-2.53-2.81-4.95-5.5.18,10.25,7.3-1.94Z" fill="#6e3b17"/><path d="M51.06,96.34c.33-2.63-2.4-7.54-4.13-9.52l-2.93-.64-.44-1.43.6-2.55c.12-.51-1.42-1.16-1.96-1.45l-5.77-3.11,1.34-4.77c2.01-.35,5.63,1.12,6.17,2.83l.87,2.77c.21.68,2.85.52,3.09-.15l.91-2.48,3.67-2.51.43-17.33c-.54-1.45,2.18-1.34,1.79-.03l.17,15.15-.41,12.39-1.06,13.3-2.33-.47Z" fill="#e7d6b8"/><path d="M27.98,113.64c4.32,1.22,10.08,1.01,14.36-.81l5.56-1.53,4.19-.88c-.75.89-2.88,2.52-4.01,2.81l-7.77,2.04-1.92.95-2.04-.3s-1.53-.62-1.92-.63l-7.54-.16-6.55-.36-1.74-.59-4.96-1.02-1.15-2.57c5.5,1.85,10.25,2.83,15.48,3.06Z" fill="#4c4d4c"/><path d="M44.79,91.72c2.26,3.82,2.3,8.95-1.44,12.74l-6.58-6.54,5.11.5c-.09.82.09-.82.11-1.02l-6.13-2.78,3.64-.67,1.51-.26c.09-.02-.13-.94-.15-1.04l3.93-.92Z" fill="#d6442d"/><path d="M17.05,97.03l.85,1.83-.05,2.31c-1.44,1.55.55,5.57,2.61,6.92l-.57,2.16-4.28-.48-.66-5.7-1.54-5.15c.35.09,1.67-.12,1.8-.65l.4-2.2,1.44.96Z" fill="#e7d6b8"/><path d="M52.1,110.41l-4.19.88-5.56,1.53,1.4-1.96c2.18-1.63,5.36-5.28,5.08-8.05l1.11.25,1.59,1.37c1.26,1.09,1.73,4.6.58,5.97Z" fill="#e7d6b8"/><path d="M39.2,91.97l-6.29.91c1.64-2.7,2.58-5.85,5.16-8.17l-1.69,6.97,4.3-2.81.71.91-2.19,2.19Z" fill="#676665"/><path d="M22.94,104.97l-.12,1.6c-.02,3.15,11,8.18,17.93,4.11,2.95-1.73,6.11-5.42,8.07-7.86.28,2.77-2.9,6.43-5.08,8.05l-1.4,1.96c-4.29,1.83-10.05,2.03-14.36.81l-2.91-2.53-4.61-3.02c-2.06-1.35-4.05-5.37-2.61-6.92l1.84,1.95,1.31,2.03c.28.43,1.44-.23,1.94-.17Z" fill="#774a25"/><path d="M43.3,118.17c-.86-.02-2.32-.57-2.99-1.02l9.82-1.99c-1.67,1.97-4.95,3.04-6.82,3Z" fill="#747372"/><path d="M48.81,75.85l-.91,2.48c-.25.67-2.88.83-3.09.15l-.87-2.77,4.87.14Z" fill="#4c4d4c"/><path d="M15.61,96.06l-.4,2.2c-.13.54-1.45.75-1.8.65l.13-4.59c.01-.38,1.74-.18,1.8.19l.26,1.54Z" fill="#4c4d4c"/><path d="M17.9,98.86l-.85-1.83,2.62-.56c.14.18,0,1.86-.46,2l-1.3.4Z" fill="#9c9c9b"/><path d="M32.8,83.39l-2.8,2.33-2.08,1.73-1.27-3.68-.67,3.71-.09,1.33c-.05.86-6.37.31-8.88-2.84-1.21-1.52-1.64-4.94-1.74-7.25l6.75.28c-.31-1.22-.54-2.1-.41-1.6l-5.78-.58,2.43-2.8c1.51-1.74,4.87-2.52,7.79-2.12l-1.29,5.01,4.44-3.5c.77,1.06,2.39,3.79,2.7,5.14l.89,4.84Z" fill="#f1efed"/><polygon points="27.91 87.45 25.98 87.48 26.64 83.78 27.91 87.45" fill="#3a3939"/><path d="M44.61,57.38c.41-.02,1.3.25,1.77.52-.09,1.86-.61,5-2.02,6.72-1.01,1.23-4.71,1.75-6.28,1.54l2.48-8.55,4.06-.24Z" fill="#f5eee2"/><path d="M48.82,102.82c-1.96,2.44-5.12,6.12-8.07,7.86-6.93,4.07-17.95-.95-17.93-4.11l2.69,1.34c4.59,3.01,9.26,3.28,14.61,1.28,7.08-2.65,8.05-7.7,7.93-15.51l-.55-1.01c.06,1,.05.98-.06-1.2l1.3,1.71.08,9.63Z" fill="#d6442d"/><polygon points="41.85 106.62 34.55 108.56 34.37 98.31 39.32 103.81 41.85 106.62" fill="#d6442d"/><path d="M56.51,45.2l2.18.24-2.31,37.11-.68,10.64-1,19.73c-.07,1.4-1.69,4.16-2.78,4.5l-8.67,2.72.04-1.97c1.87.04,5.15-1.03,6.82-3l-9.82,1.99c-.5-.33-1.34-.86-1.91-.95l1.92-.95,7.77-2.04c1.13-.3,3.26-1.92,4.01-2.81,1.16-1.38.68-4.89-.58-5.97l-1.59-1.37,1.13-6.73,2.33.47,1.06-13.3.41-12.39-.17-15.15c.38-1.31-2.33-1.41-1.79.03l-.43,17.33-3.67,2.51-4.87-.14c-.53-1.71-4.15-3.18-6.17-2.83l-1.34,4.77,5.77,3.11c.54.29,2.08.93,1.96,1.45l-.6,2.55-2.72.32,3.94,6.66-3.93.92-1.67-.67,2.19-2.19-.71-.91-4.3,2.81,1.69-6.97c-2.58,2.32-3.52,5.47-5.16,8.17l-3.12,5.14-2.33,3.8,3.34-.96c-.56,1.76-2.21,4.72-3.61,4.57l-4.24-.46c-.5-.05-1.67.6-1.94.17l-1.31-2.03-1.84-1.95.05-2.31,1.3-.4c.46-.14.6-1.82.46-2l-2.62.56-1.44-.96-.26-1.54c-.06-.38-1.79-.57-1.8-.19l-.13,4.59,1.54,5.15.66,5.7,4.28.48.57-2.16,4.61,3.02,2.91,2.53c-5.23-.24-9.98-1.22-15.48-3.06l1.15,2.57-4.47,1.94-.47-2.82c.2.26,1.78-.36,1.8-.87l.22-4.76,1.04-3.83c.09-.34-.41-1.96-.77-1.98l-1.47-.03-1.15-6.84c-.22-1.32.63-4.38.81-5.68l.83-5.76c.17-1.2-.08-3.51-.16-4.69l-.47-6.53,1.28-3.19c.1-.41.92-1.32,1.21-1.04s1.28,1.43,1.3,1.84l.23,6.93c.09,2.75.13,5.93.99,8.89,1.47,5.06,11.22,8.1,14.85,4.38l5.48-5.62c-.19-1.09-.92-4.57-.52-5.81l2.99-9.34c6.11-.11,9.26-2.91,10.91-8.05,2.16-6.7-5.09-7.84-4.59-9.73l2.88-10.84,7.88,2.56c.78,1.67,1.42,2.8,2.25,2.91Z" fill="#eee4c9"/></g></svg>