<?xml version="1.0" encoding="UTF-8"?><svg id="Layer_2" xmlns="http://www.w3.org/2000/svg" viewBox="0 0 61.24 101.52"><g id="Layer_1-2"><path d="M9.81,28.1l.94-.36c-.15.43,1.48,1.58,2.07,1.67l5.91.97,17.95.23,2.87.82.58,1.19-19.8-.31-5.64-.6-12.84-3.18,2.42,22.1,1.05,9.6.78,7.71,1.45,15.52,1.44,10.77c.07.53,1.86,2.22,2.33,1.96l2.35-1.29,2.83,2.09,2,1.75c9.8,1.53,18.93,1.18,28.54-1.13l5.27-3.02,1.88-13.9,1.62-.1-1.45,13.07c-.23,2.12-4.33,4.89-6.47,5.46-11.68,3.08-23.15,3.32-34.76.1-2.34-.65-6.07-3.4-6.31-5.48l-.9-8-.96-8.64-1.01-9.38-1-9.8-1.14-11.13L0,26.2c-.19-2.18,5.12-4.78,7.29-4.73l2.32.05c.33,0-.63.88-.94,1.03l-6.66,3.11c2.72,2.23,5.65,3.27,7.8,2.45Z" fill="#615d59"/><path d="M56.73,71.6l-1.67,1.12.15-8.6c.02-.9.73-3.16.93-4.04l3.04-31.41-7.05,1.83-4.76,1.24,1.85-3.31c3.37.72,6.59-.1,9.94-2.36-2.18-1.51-4.09-2.81-5.36-3.05l-9.13-1.76-.86,4.29,4.97,1.73-5.35.49c-.55.02-.8,2.41-.18,2.38,1.08-.04,2.22-.12,2.45.27l.77,1.55-4.13.18-2.77-.73-2.87-.82.43-4.55-16.69-.37-4.15.96.2-1.96c4.58-.83,9.42-1.04,14.46-.6l7.75.68.02-3.76c0-.54-.6-1.53-.88-2.01l3.39.21-1.32,5.87-1.08,4.8,1.86.58,2.02-8.39,1.8-8.57,1.57-7.49-3.42-.44c.1-2.15,1.66-4.59,4.19-5.26,1.59-.42,4.33-.47,5.48.1.74.37.64,3.34-.14,3.64l-3.3,1.31c-1.38.55-2.04,3.87-2.26,5.39l-1.36,9.16,6.87,1.17c3.27.56,7.39,1.93,9.09,4.68l-2.95,29.61-1.56,16.21ZM50.83,3.32c.46-.06.07-2.07-.42-2.11l-1.38-.11-1,2.08c-.19.39,1.94.25,2.79.14Z" fill="#595858"/><path d="M41.22,19.22l.29-1.2.93-3.8.25-1.02-1.6-2.89.17-.93c.65.22,2.56-.57,2.29-1.23l-.8-1.95-.11-.63,3.42.44-1.57,7.49-1.8,8.57-2.02,8.39-1.86-.58,1.08-4.8,1.32-5.87Z" fill="#d1d1cf"/><path d="M37.84,19.01c.28.47.88,1.46.88,2.01l-22.22-.14,1.78-1.92,19.56.06Z" fill="#615d59"/><path d="M16.48,24.7l-.2,1.96-5.53,1.08-.94.36c-.08-.47.49-2.28,1.02-2.37l5.65-1.03Z" fill="#747372"/><polygon points="42.7 13.21 42.45 14.23 41.52 18.03 40.34 17.13 41.11 10.32 42.7 13.21" fill="#595858"/><polygon points="55.81 80.58 54.19 80.68 54.83 75.66 56.28 75.68 55.81 80.58" fill="#595858"/><polygon points="56.28 75.68 54.83 75.66 55.05 72.72 56.73 71.6 56.28 75.68" fill="#615d59"/><path d="M41.27,9.38l1.5-3.17.8,1.95c.27.66-1.64,1.45-2.29,1.23Z" fill="#595858"/><path d="M40.14,32.62l-1.61,7.31-.86,5.02c-.71.35-2.02-1.87-2.17-2.46-2.81,1.41-6.24,2.35-9.45,2.32v-.87s-.29-1.99-.29-1.99c-.08-.52-1.93-1.02-2.46-1l-6.54.2c-.47.01-2.15.93-2.03,1.38l.4,1.56.74,2.89-5.23.28-2.65-1.36,2.18-2.78-4.49,2.62.62,6.82.98,9.56.71,6.93c.28,2.74,2.57,5.72,5.15,5.75l3.87.04c-.17.35,1.08,1.62,1.57,1.65l3.84.28,5.65,1.06.29,3.54c1.28-1.95,3.93-4.44,6.19-4.81l6.79-1.09c.43,1.66.74,4.89.16,6.29l-.84,2.04c-.15.36,1.87.63,2,.27l2.18-6.06c2,2.77.97,6.37-2.2,8.45-1.57,3.15-4.98,6.09-8.74,6.22l-9.65.34-2.47,2.26-6.64-1.32-1.47.92-2.35,1.29c-.47.26-2.26-1.43-2.33-1.96l-1.44-10.77-1.45-15.52-.78-7.71-1.05-9.6L1.85,28.53l12.84,3.18,5.64.6,19.8.31ZM35.98,33.42l-1.61,7.18,2.21.5,1.61-7.18-2.21-.5ZM19,80.8l-2.57,1.46,2.16,3.8,2.57-1.46-2.16-3.8ZM34.82,84.28v1.92h4.8v-1.92h-4.8Z" fill="#f5eee2"/><path d="M56.14,60.08c-.21.87-.92,3.13-.93,4.04l-.15,8.6-.22,2.94-.65,5.02-1.88,13.9-5.27,3.02c-9.61,2.31-18.74,2.66-28.54,1.13l-2-1.75h5.52s-.25-1.69-.25-1.69l2.47-2.26,9.65-.34c3.76-.13,7.16-3.07,8.74-6.22,3.17-2.07,4.2-5.68,2.2-8.45l-2.18,6.06c-.13.36-2.15.09-2-.27l.84-2.04c.58-1.4.27-4.64-.16-6.29l1.24-.57c4.19,1.53,5.77.33,9.55-2.31l1.19-7.37.83-7.88,1.99,2.75ZM51.14,76.6h-1.92v6.72h1.92v-6.72ZM48.69,93.94l-3.93-.11-7.24,2.39c4.24.74,6.81.32,11.17-2.28Z" fill="#eee4c9"/><path d="M36.69,30.61l-17.95-.23-5.91-.97c-.59-.1-2.22-1.24-2.07-1.67l5.53-1.08,4.15-.96,16.69.37-.43,4.55Z" fill="#f8f6f4"/><path d="M42.33,32.16l-2.22,9.69c-.23.98-1.55,2.66-2.45,3.1l.86-5.02,1.61-7.31-.58-1.19,2.77.73Z" fill="#676665"/><polygon points="21.77 95.3 22.02 96.99 16.5 96.99 13.67 94.9 15.14 93.98 21.77 95.3" fill="#7c7c7b"/><path d="M56.14,60.08l-1.99-2.75.92-10.5c.07-.81-1.21-3.02-2.07-3.17l-12.89-1.82,2.22-9.69,4.13-.18.9-.23,4.76-1.24,7.05-1.83-3.04,31.41Z" fill="#f5eee2"/><path d="M49.21,28.43l-.44-1.15-4.97-1.73.86-4.29,9.13,1.76c1.27.25,3.18,1.54,5.36,3.05-3.35,2.26-6.57,3.08-9.94,2.36Z" fill="#eae4d9"/><path d="M48.77,27.28l.44,1.15-1.85,3.31-.9.23-.77-1.55c-.23-.39-1.37-.31-2.45-.27-.62.03-.37-2.37.18-2.38l5.35-.49Z" fill="#c3c4ac"/><path d="M50.83,3.32c-.85.11-2.98.25-2.79-.14l1-2.08,1.38.11c.49.04.87,2.05.42,2.11Z" fill="#d1d1cf"/><path d="M42.45,14.23l.25-1.02-.25,1.02Z" fill="#f8f6f4"/><path d="M42.53,58.66l3.04,4.44c.34.98-.12,3.2-.69,4.08l-1.49,2.91-1.07.55c-1.13.58-3.8,1.27-5.03.87l-2.02-.67c-.4-.13-.92,1.49-.5,1.54l1.97.22,5.17.83.65,1.45-1.24.57-6.79,1.09c-2.26.36-4.91,2.86-6.19,4.81l-.29-3.54-5.65-1.06-1.88-3.33c-.57-.9-1.71-1.39-3.9-2.26l-.35-4.11,4.86-.71c1.03-.13,3.39-.86,3.93-1.74l1.59,2.92c.28.48,2.11.13,2.6.43l3.06,1.85,1.52.61,1.46-1.58-.52-6.57.04-2.08,1.04-1.13c.77-.83,2.29-2.73,3.33-2.31l3.34,1.89ZM32.34,73.18c.19-.43-2.32-1.58-2.3-1.18l.32,5.59,1.98-4.41Z" fill="#b8bc65"/><path d="M26.05,43.95v.87s-.48,2.4-.48,2.4l14.39-.13c1.69-.02,4.11-1.41,5.93-3l4.5,1.49,2.57,1.35-6.6,1.93-10.67.51-13.15-.37-2.29-.27-3.54-.09-2.14,1.09-3.94-.03v-2.44s5.23-.28,5.23-.28l-.74-2.89,10.93-.15ZM18.2,45.54c.58.78,1.57,1.82,1.69,1.42l.5-1.69c.12-.4-1.11-.09-2.19.27Z" fill="#e7d6b8"/><path d="M10.63,47.27v2.44s0,5.74,0,5.74c-1.48,3.01-1.06,6.74,1.4,8.96l1.11,10.39c-2.58-.02-4.87-3.01-5.15-5.75l-.71-6.93-.98-9.56-.62-6.82,4.49-2.62-2.18,2.78,2.65,1.36Z" fill="#939e39"/><path d="M37.66,44.95c.9-.43,2.21-2.11,2.45-3.1l12.89,1.82c.86.15,2.14,2.36,2.07,3.17l-2.11.08-2.57-1.35-4.5-1.49c-1.82,1.59-4.24,2.98-5.93,3l-14.39.13.47-2.4c3.21.03,6.64-.91,9.45-2.32.15.59,1.46,2.81,2.17,2.46Z" fill="#e0bd7c"/><path d="M15.66,64.9l.61,2.18.35,4.11c2.2.87,3.34,1.36,3.9,2.26-.59.89-2.6,1.4-3.53,1.39l-3.87-.04-1.11-10.39.77-.09,2.87.58Z" fill="#e7d6b8"/><path d="M26.05,43.95l-10.93.15-.4-1.56c-.12-.45,1.56-1.36,2.03-1.38l6.54-.2c.54-.02,2.38.48,2.46,1l.3,1.99Z" fill="#eccc92"/><rect x="32.6" y="36.12" width="7.35" height="2.27" transform="translate(-8.01 64.5) rotate(-77.36)" fill="#595858"/><rect x="17.31" y="81.25" width="2.96" height="4.37" transform="translate(-38.75 20.16) rotate(-29.59)" fill="#747372"/><path d="M22.41,76.77l-3.84-.28c-.49-.04-1.75-1.3-1.57-1.65.93,0,2.94-.51,3.53-1.39l1.88,3.33Z" fill="#676665"/><rect x="34.82" y="84.28" width="4.8" height="1.92" fill="#9c9c9b"/><path d="M55.07,46.84l-.92,10.5-.83,7.88-1.19,7.37c-3.79,2.64-5.37,3.84-9.55,2.31l-.65-1.45.41-2.8,1.07-.55c1.37-.1,3.32-2.11,4.01-3.87.13-.33.29-2.37-.04-2.49l-1.78-.63-3.04-4.44c.36-.55.88-1.31.46-1.52l-2.69-1.36-3.24-1.86-3.46,4.8,2.27.36-1.04,1.13-2.46,2.67,2.43-.59.52,6.57-1.46,1.58-2.47-3.8c-.48-.55-2.56-1.58-2.78-1.57l.67,2.91c-.5-.3-2.32.05-2.6-.43l-1.59-2.92,2.79-4.5c.18-.29.34-1.95.03-2.09l-1.69-.77-.08-1.75c-.08-1.73-1.86-3.94-3.7-4l.13-2.51,13.15.37,10.67-.51,6.6-1.93,2.11-.08Z" fill="#939e39"/><path d="M48.69,93.94c-4.35,2.61-6.93,3.02-11.17,2.28l7.24-2.39,3.93.11Z" fill="#747372"/><rect x="49.22" y="76.6" width="1.92" height="6.72" fill="#9c9c9b"/><path d="M25.06,64.62c-.54.88-2.9,1.61-3.93,1.74l-4.86.71-.61-2.18,3.6.23,2.37-.07c.55-.02.93-1.27.85-1.88,2.46-.45,3.83-3.28,3.71-5.91l1.69.77c.31.14.15,1.81-.03,2.09l-2.79,4.5Z" fill="#6a553f"/><path d="M42.53,58.66l-3.34-1.89c-1.05-.42-2.57,1.48-3.33,2.31l-2.27-.36,3.46-4.8,3.24,1.86,2.69,1.36c.42.21-.1.97-.46,1.52Z" fill="#6a553f"/><path d="M43.39,70.09l1.49-2.91c.57-.88,1.03-3.1.69-4.08l1.78.63c.33.12.17,2.16.04,2.49-.69,1.76-2.64,3.77-4.01,3.87Z" fill="#6a553f"/><path d="M33.83,70.43l-1.52-.61-3.06-1.85-.67-2.91c.23,0,2.3,1.02,2.78,1.57l2.47,3.8Z" fill="#6a553f"/><path d="M42.32,70.64l-.41,2.8-5.17-.83-1.97-.22c-.42-.05.1-1.67.5-1.54l2.02.67c1.22.4,3.9-.29,5.03-.87Z" fill="#6a553f"/><path d="M32.34,73.18l-1.98,4.41-.32-5.59c-.02-.4,2.49.75,2.3,1.18Z" fill="#503824"/><polygon points="34.78 62.29 32.35 62.88 34.81 60.21 34.78 62.29" fill="#6a553f"/><path d="M22.54,49.01l-.13,2.51c0,1.56,1.98,3.84,3.7,4l.08,1.75c.12,2.63-1.25,5.46-3.71,5.91l-.18-1.44c-.05-.36-1.35-.91-1.45-.56l-.46,2.03c-.62,0-1.13,1.3-1.12,1.92l-3.6-.23-2.87-.58-1.7-5.42.71-3.39,1.94-1.89,2.38-1.65,4.52-1.76-.39-1.47,2.29.27Z" fill="#f5eee2"/><polygon points="14.56 49.73 14.74 51.57 13.74 53.61 11.8 55.5 10.62 55.45 10.62 49.71 14.56 49.73" fill="#eee4c9"/><polygon points="20.25 48.73 20.64 50.2 16.12 51.96 14.74 51.57 14.56 49.73 16.71 48.64 20.25 48.73" fill="#6a553f"/><path d="M18.2,45.54c1.08-.36,2.3-.68,2.19-.27l-.5,1.69c-.12.4-1.11-.64-1.69-1.42Z" fill="#b8bc65"/><path d="M16.71,48.64l-2.14,1.09,2.14-1.09Z" fill="#939e39"/><path d="M11.8,55.5l-.71,3.39,1.7,5.42-.77.09c-2.46-2.22-2.88-5.95-1.4-8.96l1.18.05Z" fill="#6a553f"/><path d="M26.11,55.51c-1.72-.16-3.69-2.44-3.7-4,1.84.05,3.62,2.26,3.7,4Z" fill="#6a553f"/><path d="M22.47,63.17c.08.62-.3,1.87-.85,1.88l-2.37.07c0-.62.5-1.91,1.12-1.92l2.09-.03Z" fill="#e7d6b8"/><path d="M22.47,63.17l-2.09.03.46-2.03c.09-.35,1.4.2,1.45.56l.18,1.44Z" fill="#747372"/><polygon points="13.74 53.61 14.74 51.57 16.12 51.96 13.74 53.61" fill="#939e39"/></g></svg>