<?xml version="1.0" encoding="UTF-8"?><svg id="Layer_2" xmlns="http://www.w3.org/2000/svg" viewBox="0 0 60.49 127.83"><g id="Layer_1-2"><path d="M12.87,30.02l1.37-.54,1.06,2.11,8.62.78.24,1.94c-7.1.14-13.62-1.58-21.79-3.53l1.74,26.22.63,7.68,1.1,20.16.96,16.51,1.1,17.83c.06.93,1.98,3.02,2.89,3.27l6.55,1.83.12,1.99-7.58-2.08c-3.91-1.07-4.03-5.19-4.23-8.53l-.88-14.52-.94-15.44-.87-13.61-.8-12.65-1.18-20.07L.01,29.75c-.12-1.15.66-4.46,1.73-4.86l8.32-3.08c.14.48.55,1.86.5,1.69l-8.57,3.73,7.68,3.27c.57.24,2.59-.26,3.19-.49Z" fill="#615d59"/><path d="M21.52,127.01l.11-1.89,9.31.25c6.29.17,11.82-.63,17.47-2.18,1.68-.46,4.64-2.49,4.79-4.14l.77-8.25.12-1.94.91-16.33,1.18-21.11.93-15.35.95-16.06.52-8.94-2.73-.25.13-1.72,2.28-1.58-4.11-2.35-.95-.38-1.61-1.91,2.97.65s-.01,0,.08,0c1.64.06,5.96,2.44,5.85,4.37l-1.05,18.58-2.59,45.06-1.48,25.79c-.17,2.98-1.59,6.19-4.77,7.23-9.56,3.12-19.55,4.18-29.08,2.46Z" fill="#595858"/><path d="M55.39,6.18l-.28-1.29,1.89-.73c.37-.14.55-1.1.75-2.08l-5.71.96c-.5.08-1.1,2.06-1.05,2.16l-1.57.75c-.65.31-2.2,1.49-2.38,2.29l-2.82,12.29-1.57.05,2.9-15.27c.25-1.25,2.76-3.37,4.03-3.63L57.66.01c1.41-.29,2.74,4.62,1.46,5.18l-3.74.99Z" fill="#676665"/><path d="M42.65,20.58l1.57-.05-1.59,10.44,1.77.14c.72.06,2.3.1,3.01-.06l-.82,2.08-1.37.19-1.77.23-3.96.45-15.35.31-.24-1.94,16.27-.35,1.48-7.55c.12-.59-.91-2.62-1.02-2.63l-.06-1.46,2.07.19Z" fill="#595858"/><path d="M14.24,29.48l-1.37.54.74-2.5,22.45-1.37c2,.23,2.47,2.1-.11,1.93-6.79-.07-16.8-.53-21.71,1.4Z" fill="#9c9c9b"/><path d="M50.11,11.99l-2.42,11.92-.28,7.14c-.71.16-2.29.12-3.01.06l1.38-6.12,1.89-10.24c.16-.85.92-2.63,1.17-2.95l1.27.18Z" fill="#676665"/><polygon points="40.58 20.39 40.64 21.85 36.83 21.56 21.02 21.44 21.26 19.81 36.8 19.51 40.58 20.39" fill="#4c4d4c"/><circle cx="21.57" cy="9.52" r="2.53" fill="#3a3939"/><circle cx="12.44" cy="16.04" r="2.3" fill="#4c4d4c"/><polygon points="55.99 29.08 55.86 30.81 46.59 33.14 47.41 31.06 55.99 29.08" fill="#615d59"/><path d="M55.11,4.89l.28,1.29c-.96.25-3.74.19-4.01,1.16l-1.27,4.65-1.27-.18.57-5.86,1.57-.75,4.12-.31Z" fill="#4c4d4c"/><polygon points="21.62 125.12 21.52 127.01 17.45 126.27 17.33 124.29 21.62 125.12" fill="#4c4d4c"/><path d="M21.02,21.44l.24-1.64-.24,1.64Z" fill="#595858"/><path d="M24.15,34.31l15.35-.31-.1,2.09-2.3,11.31-7.25-.58c-.63-.08-1.77-2.27-2.38-2.1l-2.31.65c-2.52-1.16-6.29-1.06-8.84.59l-2.43,1.58-5.28-.24-1.84,1.84,4.46.58-1.17,1.7-4.6-.06.68,10.09c.02.27.8,1.06.95,1.28l.02,6.73.6,10.56.78,14.48.86,12.46.68,12.55-2.13-.33-1.1-17.83-.96-16.51-1.1-20.16-.63-7.68-1.74-26.22c8.17,1.96,14.69,3.68,21.79,3.53Z" fill="#f5eee2"/><path d="M10.03,119.52l2.75,1.14c2.3.95,5.09,1.63,7.64,1.94,6.29.78,13.14,1.04,19.11.02l7.54-.53,1.34,1.1c-5.66,1.55-11.18,2.35-17.47,2.18l-9.31-.25-4.29-.83-6.55-1.83c-.9-.25-2.83-2.34-2.89-3.27l2.13.33Z" fill="#eee4c9"/><path d="M58.06,39.99l-.95,16.06-.93,15.35-1.18,21.11-.91,16.33-1.03-1.92-.81-1.92.49-7.54.09-1.53.53-14.82.63-9.7c.56-.19,1.2-1.75,1.03-2.42l-.93-2.37.69-4.73.31-8.74.07-2.03.23-.78c.11-.36-.37-1.34-.71-1.51l-1.89-.94,1.12-8.37,1.33-2.02,2.81,2.47Z" fill="#d1d1cf"/><polygon points="58.06 39.99 55.25 37.52 53.92 39.55 52.8 47.91 48.61 47.23 43.53 46.44 44.84 38.54 45.22 33.33 46.59 33.14 55.86 30.81 58.59 31.06 58.06 39.99" fill="#f5eee2"/><path d="M53.2,119.04c-.15,1.65-3.11,3.68-4.79,4.14l-1.34-1.1c.41-.67,1.07-1.74,1.15-2.43l-.03-2c.65-.25,1.73-1.54,2.07-1.96l1.13-.08,1.81,3.43Z" fill="#e7d6b8"/><polygon points="53.97 110.79 53.2 119.04 51.39 115.61 51.88 110.83 53.97 110.79" fill="#d1d1cf"/><polygon points="54.09 108.85 53.97 110.79 51.88 110.83 52.25 105.01 53.06 106.93 54.09 108.85" fill="#e7d6b8"/><path d="M48.84,11.81c-.25.32-1.01,2.1-1.17,2.95l-1.89,10.24-1.38,6.12-1.77-.14,1.59-10.44,2.82-12.29c.18-.79,1.73-1.98,2.38-2.29l-.57,5.86Z" fill="#d1d1cf"/><path d="M55.11,4.89l-4.12.31c-.05-.1.55-2.08,1.05-2.16l5.71-.96c-.19.98-.38,1.94-.75,2.08l-1.89.73Z" fill="#d1d1cf"/><path d="M45.22,33.33l-.38,5.22-1.32,7.89-.03,1.81-2.29,4.13-.72-2.06.4-1.94,2.67-12.15c.1-.48.07-2.78-.1-2.67l1.77-.23Z" fill="#615d59"/><path d="M43.46,33.56c.18-.1.21,2.19.1,2.67l-2.67,12.15-2.18.13,2.84-12.47-2.16.05.1-2.09,3.96-.45Z" fill="#d1d1cf"/><path d="M10.05,51.43l1.61,10.13c-.31,1.54-1.35,5.09-1.1,6.75l1.55,10.08,1.06-5.83c.28-1.53.21-4.78,0-6.35l-.41-4.45,3.64,2.93c2.37,1.91,6.83,1.91,7.93,6.22-3.88,1.17-7.96,3.17-9.47,7.51-.82,2.34,0,7.36,1.69,9.27,1.1,1.25,5.12,2.94,6.73,2.57l5.87-1.35-.62,2.85.67,5.41-1.69-.24-3.88-2.6c-3.47-2.33-8.05,1.48-9.61,4.89-2.09,4.56,2,9.72,5.19,10.58.88.23,2.94-.5,3.3-.74l6.26-1.16c2.18,4.01,8.57,6.35,12.98,2.98,7.01-5.36,9.5-13.42,5.65-13.61l-.97-.1c.34-1.42-.89-4.3-2.12-5.27l-5.39-4.26c-.29-.23-2.43-.26-2.56.09l-.65,1.79-1.13,1.83-4.15,2.78-.31-1.06,2.56-4.92c1.23-2.36,1.97-5.99,2.4-8.93,1.31.48,4.7,1.63,6.24,1.5l3.8-.28.23,1.34c.24,1.35-1.95.74-3.91,3.36-.4.53,1.02,2.44,1.67,2.29l2.09-.5,1.46-.38c.51-.13.49-1.11.62-1.8.41-2.17,2.62-4.58,4.8-4.93l-.58,5.12-.42,7.6-1,18.31-1.05,4.5c-9.79,4.48-24.44,4.19-36.46.33.46,1.11,2.45,2.72,3.66,2.96l8.02,1.53,14.29-.05c2.96-.01,7.38-1.57,9.66-2.46l.03,2-6.29,1.07c-.63.11-2,1.38-2.4,1.9-5.98,1.02-12.83.77-19.11-.02.03-.65-1.34-1.88-1.96-2.05l-4.2-1.22-1.48,1.33-2.75-1.14-.68-12.55-.86-12.46-.78-14.48-.6-10.56.94-3.04c.19-.9-.43-2.93-.96-3.68-.15-.22-.93-1.01-.95-1.28l-.68-10.09,4.6.06ZM19.34,111.44c-.16-.69-2.94-.44-2.85.24.16,1.2,3.17,1.09,2.85-.24Z" fill="#e4a55f"/><path d="M25.16,45.37l2.81,3.98c.63.84,1.29,2.77,1.42,3.88l-1.18-.12-1.63-2.31-3.52-4.13-6.42,6.54,1.98-5.64-6.27,2.64,3.2,2.47-3.65.17c.22,2.2,1,6.62,2.35,8.49.97,1.35,5.21,1.82,6.92,1.88l.23,1.87-4.99-.36-3.64-2.93-1.09-.21-1.61-10.13,1.17-1.7,2.66-2.18,2.43-1.58c2.55-1.65,6.32-1.75,8.84-.59Z" fill="#6a553f"/><path d="M37.1,47.4l-.41,2.02-8.72-.08-2.81-3.98,2.31-.65c.61-.17,1.76,2.02,2.38,2.1l7.25.58Z" fill="#e0bd7c"/><polygon points="38.72 48.5 36.69 49.43 37.1 47.4 39.4 36.09 41.56 36.04 38.72 48.5" fill="#615d59"/><polygon points="13.89 47.54 11.23 49.72 6.77 49.14 8.61 47.31 13.89 47.54" fill="#e4a55f"/><path d="M7.1,69.47l-.02-6.73c.52.75,1.15,2.78.96,3.68l-.94,3.04Z" fill="#d08537"/><path d="M48.21,119.65c-.08.69-.74,1.76-1.15,2.43l-7.54.53c.4-.52,1.77-1.79,2.4-1.9l6.29-1.07Z" fill="#6a553f"/><path d="M20.41,122.6c-2.55-.32-5.34-.99-7.64-1.94l1.48-1.33,4.2,1.22c.61.18,1.99,1.41,1.96,2.05Z" fill="#a47148"/><path d="M54.1,66.64l-.1,4.79-.63,9.7-.53,14.82-.09,1.53-.49,7.54-.37,5.81-.5,4.78-1.13.08c.61-.58-.95-.47-1.24-.34l1.05-4.5,1-18.31.42-7.6.58-5.12.03-5.52v-1.93s.01-3.84.01-3.84v-.96s0-.96,0-.96l1.02-.87-.09-6.81-.18-4.97,2.26-.78-.31,8.74-.69,4.73Z" fill="#a47148"/><path d="M52.8,47.91l1.89.94c.34.17.82,1.15.71,1.51l-.23.78-1.46-.48-4.73-1.29-5.49-1.13.03-1.81,5.08.8,4.19.68Z" fill="#a47148"/><polygon points="53.72 50.67 55.17 51.15 55.1 53.17 52.84 53.95 49.95 53.91 53.72 50.67" fill="#e4a55f"/><path d="M54,71.43l.1-4.79.93,2.37c.16.67-.47,2.23-1.03,2.42Z" fill="#eccc92"/><path d="M52.74,97.48l.09-1.53-.09,1.53Z" fill="#e7d6b8"/><path d="M50.25,115.68c-.34.42-1.42,1.71-2.07,1.96-2.27.89-6.69,2.45-9.66,2.46l-14.29.05-8.02-1.53c-1.21-.23-3.2-1.85-3.66-2.96,12.02,3.86,26.67,4.15,36.46-.33.28-.13,1.84-.23,1.24.34Z" fill="#774a25"/><path d="M53.72,50.67l-3.77,3.24-4.22.26-4.3.6-2.37.5-2.25.62-1.87.28-.14-2.04-4.18.05-1.23-.96c-.13-1.11-.79-3.04-1.42-3.88l8.72.08.63,1.77,3.18-.88.72,2.06,2.29-4.13,5.49,1.13,4.73,1.29Z" fill="#f5eee2"/><polygon points="40.89 48.38 40.49 50.32 37.32 51.2 36.69 49.43 38.72 48.5 40.89 48.38" fill="#676665"/><path d="M41.43,54.77l-1.38,6.63c1.8,1.46,4.83,3.14,6.94,3.76l2.99,3.42c-.45,4.15-2.48,8.28-4.87,11.86l-3.8.28c-1.53.14-4.93-1.01-6.24-1.5-.43,2.95-1.18,6.58-2.4,8.93l-2.56,4.92.31,1.06,4.15-2.78,6,.22.04,1.85-4.61-.66c-1.54-.22-4.98,4.01-4.37,4.21l2.06.69,1.67.56c.33.11.06,1.13-.05,1.57l-2.58,1.3-.8-.07c-.1-1.11-1.53-2.83-2.69-3.23l-.04-.62-.67-5.41.62-2.85-5.87,1.35c-1.6.37-5.63-1.32-6.73-2.57-1.68-1.91-2.51-6.93-1.69-9.27,1.51-4.34,5.59-6.34,9.47-7.51l3.82,2.24,2.74,1.08,1.01,2.97c-.57.09-1.88.24-2.21-.24l-1.72-2.5c-1.16-1.68-5.84-1.08-7.54.36l-3.62,3.07,5.52-2.13-.49,2.31c-.12.57-1.71.88-2.32.95l-3.22.38c.12,1.62.53,4.92,1.23,6.44.79,1.71,5.74,3.59,7.32,2.52,1.2-.82,2.97-3.16,4.36-4.87l2.68,2.58.71-8.97.88-2.97c2.14,2.04,4.16,3.78,5.94,4.42,3.24,1.16,6.77-1.77,6.93-2.61l1.19-6.04c.23-1.14-1.37-3.37-2.6-3.91l-5.41-2.42-1.08,5.32c.17,1.68-.33,2-.84.26-.81-.79-1.93-1.67-1.71-2.1l1.68-3.22c-.23-.16-2.87-.11-3.77.31-1.08.51-1.73,2.86-2.01,4.25l-.64,3.11-1.01-2.12c-.58-2.99.98-6.03,4.22-7.25l.54-5.93,1.87-.28.31,5.2,1.94-5.83,2.37-.5Z" fill="#6a553f"/><path d="M46.41,97.18l-.8,3.37c-.11.45-1.18,1.4-1.45,1.63.4-2.16.37-5.29-.4-6.86-.69-1.41-1.86-2.89-3.21-3.75-.79-1.28-3.02-2-4.87-2.05l.65-1.79c.13-.35,2.27-.32,2.56-.09l5.39,4.26c1.23.98,2.46,3.85,2.12,5.27Z" fill="#6a553f"/><path d="M23.62,94.35l3.88,2.6c-.81.84-2.54,3.54-1.63,4.17l2.88,2.01c.77.54.32,2.94.09,3.63l-.08,1.15-6.26,1.16c-2.09-.65-5.54-2.37-6.57-4.26-1.95-3.59,1.37-8.98,7.69-10.47ZM27.24,105.01c0-.59-.48-1.07-1.07-1.07s-1.07.48-1.07,1.07.48,1.07,1.07,1.07,1.07-.48,1.07-1.07Z" fill="#f5eee2"/><path d="M34.94,56.19l-.54,5.93c-3.23,1.22-4.79,4.26-4.22,7.25l1.01,2.12c-.14.69-.48,2.07-.3,2.75l-2.74-1.08-3.82-2.24c-1.1-4.31-5.57-4.31-7.93-6.22l4.99.36c.46.11,2.23-.07,2.71-.61l6.64-7.42,4.2-.84Z" fill="#e0bd7c"/><path d="M52.09,68.53v3.84s-1.98.43-1.98.43c-.35.09.19,1.45.55,1.47l1.42.03-.03,5.52c-2.18.36-4.39,2.76-4.8,4.93l-1.68.69c-.29.15-.56.92-.4,1.49l-2.09.5c-.65.16-2.07-1.76-1.67-2.29,1.96-2.61,4.15-2.01,3.91-3.36l-.23-1.34c2.39-3.58,4.42-7.72,4.87-11.86l1.15-.05h.97Z" fill="#e0bd7c"/><path d="M23.62,94.35c-6.32,1.49-9.64,6.88-7.69,10.47,1.03,1.89,4.48,3.61,6.57,4.26-.36.24-2.42.98-3.3.74-3.19-.85-7.28-6.01-5.19-10.58,1.56-3.41,6.14-7.22,9.61-4.89Z" fill="#6a553f"/><path d="M35.65,110.79c.13-.99,1.35-2.44,2.17-2.75,2.17-.81,5.09-3.66,6.35-5.85.27-.23,1.34-1.18,1.45-1.63l.8-3.37.97.1c.1,4.27-1.3,9.4-5.45,11.98-1.62,1.01-4.74,1.71-6.28,1.53Z" fill="#a47148"/><path d="M11.66,61.56l1.09.21.41,4.45c.21,1.56.28,4.81,0,6.35l-1.06,5.83-1.55-10.08c-.26-1.66.79-5.21,1.1-6.75Z" fill="#eee4c9"/><path d="M28.75,107.91l.08-1.15,2.22.25c.07.61.44,1.67.9,2.08.79.69,2.65,1.58,3.69,1.7,1.54.18,4.65-.52,6.28-1.53,4.16-2.58,5.56-7.7,5.45-11.98,3.84.19,1.36,8.25-5.65,13.61-4.4,3.37-10.8,1.03-12.98-2.98Z" fill="#774a25"/><path d="M29.18,97.19l.04.62c-2.36,2.71,1.07,2.85,1.83,9.2l-2.22-.25c.23-.69.68-3.09-.09-3.63l-2.88-2.01c-.91-.64.82-3.33,1.63-4.17l1.69.24Z" fill="#7c7c7b"/><path d="M40.57,91.58l-6-.22,1.13-1.83c1.86.05,4.08.76,4.87,2.05Z" fill="#e7d6b8"/><path d="M43.77,95.33c-.95-.68-2.29-1.77-3.17-1.9l-.04-1.85c1.34.86,2.52,2.33,3.21,3.75Z" fill="#e7d6b8"/><path d="M19.34,111.44c.32,1.33-2.69,1.45-2.85.24-.09-.68,2.69-.93,2.85-.24Z" fill="#6a553f"/><path d="M47.26,84.75c-.13.69-.11,1.67-.62,1.8l-1.46.38c-.16-.57.11-1.35.4-1.49l1.68-.69Z" fill="#6a553f"/><path d="M28.21,53.1c1.62,5.98-4.1,6.15-4.11,11.35-.49.54-2.26.72-2.71.61l-.23-1.87c-1.71-.06-5.95-.53-6.92-1.88-1.35-1.88-2.13-6.3-2.35-8.49l3.65-.17-3.2-2.47,6.27-2.64-1.98,5.64,6.42-6.54,3.52,4.13,1.63,2.31Z" fill="#f5eee2"/><path d="M30.62,54.19l.12,2.83-6.64,7.42c0-5.19,5.73-5.36,4.11-11.35l1.18.12,1.23.96Z" fill="#676665"/><path d="M49.95,53.91l2.89.05.18,4.97-.96.88.03,6.8v.96s-.96.96-.96.96l-1.15.05-2.99-3.42,1.91-1.87c.62-.69-3.32-2.63-3.29-6.16l.12-2.96,4.22-.26Z" fill="#eccc92"/><polygon points="52.09 66.61 52.06 59.81 53.02 58.93 53.11 65.74 52.09 66.61" fill="#e4a55f"/><path d="M52.09,72.37v1.93s-1.42-.03-1.42-.03c-.36-.02-.9-1.37-.55-1.47l1.98-.43Z" fill="#e4a55f"/><polygon points="52.09 68.53 51.13 68.53 52.09 67.57 52.09 68.53" fill="#e4a55f"/><path d="M45.73,54.17l-.12,2.96c-.03,3.53,3.91,5.47,3.29,6.16l-1.91,1.87c-2.11-.62-5.15-2.3-6.94-3.76l1.38-6.63,4.3-.6Z" fill="#e0bd7c"/><polygon points="39.06 55.28 37.12 61.11 36.81 55.9 39.06 55.28" fill="#eccc92"/><polygon points="34.94 56.19 30.74 57.03 30.62 54.19 34.8 54.15 34.94 56.19" fill="#eccc92"/><path d="M31.9,77.21c.22-.03.84-.13.71-.11l-.71,8.97-2.68-2.58c-1.39,1.72-3.16,4.06-4.36,4.87-1.58,1.08-6.53-.8-7.32-2.52-.7-1.52-1.11-4.82-1.23-6.44l3.22-.38c.61-.07,2.2-.37,2.32-.95l.49-2.31-5.52,2.13,3.62-3.07c1.7-1.44,6.38-2.05,7.54-.36l1.72,2.5c.33.47,1.64.32,2.21.24Z" fill="#f1efed"/><path d="M47.56,69.9c-.62-.17-2.89-.27-3.3.38l-2.59,4.08-2.24,4.19c-1.79-.64-3.81-2.38-5.94-4.42l-.88,2.97c.13-.02-.49.08-.71.11l-1.01-2.97c-.18-.68.16-2.06.3-2.75l.64-3.11c.29-1.39.93-3.74,2.01-4.25.9-.42,3.54-.47,3.77-.31l-1.68,3.22c-.23.43.9,1.31,1.71,2.1.5,1.75,1,1.42.84-.26l1.08-5.32,5.41,2.42c1.22.55,2.82,2.77,2.6,3.91Z" fill="#f5eee2"/><path d="M40.6,93.43c.88.13,2.22,1.21,3.17,1.9.76,1.57.79,4.69.4,6.86-1.26,2.19-4.19,5.04-6.35,5.85l-2.23-6.46-2.87-.46,2.58-1.3c.11-.44.38-1.46.05-1.57l-1.67-.56-2.06-.69c-.61-.2,2.83-4.43,4.37-4.21l4.61.66Z" fill="#e0bd7c"/><path d="M37.82,108.04c-.82.31-2.03,1.76-2.17,2.75-1.04-.12-2.9-1.01-3.69-1.7l.6-1.12-.65-6.92.8.07,2.87.46,2.23,6.46Z" fill="#e4a55f"/><path d="M47.56,69.9l-1.19,6.04c-.17.84-3.69,3.77-6.93,2.61l2.24-4.19,2.59-4.08c.41-.64,2.68-.55,3.3-.38Z" fill="#eccc92"/><path d="M31.91,101.04l.65,6.92-.6,1.12c-.46-.4-.83-1.47-.9-2.08-.76-6.35-4.2-6.5-1.83-9.2,1.15.4,2.58,2.13,2.69,3.23Z" fill="#e7d6b8"/><circle cx="26.17" cy="105.01" r="1.07" fill="#9c9c9b"/></g></svg>