<?xml version="1.0" encoding="UTF-8"?><svg id="Layer_2" xmlns="http://www.w3.org/2000/svg" viewBox="0 0 68.92 119.73"><g id="Layer_1-2"><path d="M61.45,39.52l-1.56-1.38.58-6.63-7.66,2.19c-.94.27-2.01,2.83-2.26,3.83l-2,8.67-2.35.85,3.31-12.49c-1.15.25-2.48,1.23-2.67,1.88l-2.25,7.72-1.17-.83,1.7-7.08,3.47-13.57-17.74-1.11-5.76.72-4.3,1.19c-.11.02-1.9-.73-1.87-1.28l.15-3.82,2.03-.24.41,1.49c.16.36,1.16.51,1.55.51l10.54-.11,11.42.47,3.89.22c.79.04,1.09-2.54,1.3-3.29l2.66-9.6c.54-1.93,2.11-5.63,3.98-5.97L66.82,0c.95-.17,2.43,2.76,2.03,3.54-.48.93-2.13,2.13-3.24,2.4l-6.57,1.59-4.02,14.64c2.79.79,7.48,2.73,7.78,4.86.37,4.33-.87,8.7-1.35,12.49ZM66.53,1.64l-7.34,1.33.4,2.22,7.34-1.33-.4-2.22ZM55.27,5.66l-6.95,25.71,1.67,1.11,6.47-21.78c.26-.87.2-3.55.18-4.44l1.26-.54c.35-.15,1.14-1.23.76-1.31l-2.34-.48c-.38-.08-.94,1.3-1.05,1.72ZM62.49,27.99l-7.9-4.64-2.39,8.81,10.29-4.17Z" fill="#595858"/><path d="M15.37,21.23l.12,1.33c.03,1.62-4.75,1.02-8.52,4.39-.66.59,1.71,3.14,2.19,3.02l.11,1.64c-.27-.17-2.7.43-2.58,1.18l1.1,7.27.78,8.11-.23,6.69-1.07,6.44-4.01,17.4c-2.87,12.47.73,31.36,11.29,35.49l6.56,2.56.05,1.4c-6.38-.96-12.23-4.21-15.8-10.22-3.95-6.66-6.44-14.53-4.91-22.39l3.87-19.79c2.35-11.99,3.28-23.13-.4-35.03-.6-1.93.85-5.78,2.52-6.37l8.92-3.13Z" fill="#595858"/><path d="M10.48,49.14v1.96s-.63,6.82-.63,6.82l-3.57,16.78-1.71,9.81.11,8.17c.06,4.29,1.86,10.07,4.61,13.11l.93,1.03,3.53,3.97c.6.68,2.05,1.73,2.94,1.98l5.08,1.46,8.12.84,11.6-.07,6.08-.92c2.33-.35,4.84-1.87,6.31-3.17,1.94-1.72,5.01-4.06,6.16-6.14l1.89.27c-2.35,5.39-6.27,10.09-12.72,10.85l-14.73,1.73-8.68-.19-4.68-.67-6.56-2.56C3.99,110.07.39,91.18,3.26,78.71l4.01-17.4,1.07-6.44.23-6.69,1.91.96Z" fill="#eae4d9"/><path d="M61.45,39.52c-.4,3.14-.16,7.83.68,11.26l4.97,20.16c2.43,9.85,1.18,27.96-4.9,37.79-5.27,8.54-19.48,11.86-29.7,10.81l-6.82-.7.12-1.41,8.68.19,14.73-1.73c6.46-.76,10.37-5.46,12.72-10.85,1.8-4.12,3.29-8.54,3.65-13.45l.59-7.93-.72-9.61-3.59-16.73-1.34-5.4c-.11-.43-.77-1.61-.89-1.77l-.27-8.69.53-3.33,1.56,1.38Z" fill="#615d59"/><path d="M22.88,49.18l-3.53,2.32-2.4,2.28c-1.92,1.83-1.36,7.13.26,9.94s7.61,5.86,11.5,2.29l-2.02-1.79.7-1.81c.15-.4.64.44,1.28,1.78l1.67.55c-.1.76-1.05,2.81-1.92,3.34-3.09,1.9-7.57.8-10.35-.74l-1.1-1.75-2.96-5.17c-.1-1.91-.06-5.97,1.4-7.31l4.43-4.08,1.12-1.04,1.94,1.18Z" fill="#6a553f"/><path d="M30.32,46.13l3.18,4.58,2.05,4.33-1.57,6.23c-.27,1.09-2.49,2.55-3.65,3.48l2.71-6.4.8-2.02c.43-1.08-3.48.17-3.61-.04.02.03-.53-1.06-.63-1.28l3.64-1.37-3.26-4.86c-.7-1.04-2.53-2.75-3.79-2.8-1.63-.06-4.19,1.04-5.25,2.01l-1.07.07-1.79-.07c3.28-3.58,8.13-4.67,12.24-1.87Z" fill="#6a553f"/><path d="M22.87,34.85l.02-2.02,7.71.57,13.61.65c-.66.75-2.85,1.91-3.93,1.85l-17.4-1.05Z" fill="#595858"/><path d="M22.89,32.83l-.02,2.02c-4.48-.27-9.39-1.56-13.6-3.24l-.11-1.64,13.73,2.86Z" fill="#747372"/><path d="M44.59,44.15c-.53,1.81-.48,4.14.13,6.6l1.48-3.71,2.35-.85,2.06.78-1.63,1.48-2.41,1.68c-.62.44-.14,2.11.05,2.85l-.7-.29-5.52-.67.91-4.76-.25-2.09c.79-.07,2.03-1.24,2.36-1.85l1.17.83Z" fill="#676665"/><path d="M18.08,48l1.79.07-.05.97-4.43,4.08-3.71-2.23,1.8-1.57,1.68-1.54,1.56-.42c.4-.11,1.02.39,1.36.63Z" fill="#eae4d9"/><path d="M21.09,18.13l-2.03.24.56-4.83c1.92-.26,4.17.95,3.88,2.06-.25.96-1.43,2.36-2.41,2.53Z" fill="#4c4d4c"/><circle cx="29.56" cy="10.28" r="2.05" fill="#4c4d4c"/><path d="M41.05,45.17l.25,2.09h-5.96c-.68,0-2.72-.78-2.87-.95l8.59-1.14Z" fill="#e4a55f"/><path d="M50.21,17.41c-.21.75-.51,3.34-1.3,3.29l-3.89-.22c-.11-.39.4-2.65,1.1-2.71l4.09-.36Z" fill="#f1efed"/><path d="M15.16,47.79l-1.68,1.54-1.8,1.57-1.2.2v-1.96c1.03-1.28,3.57-1.94,4.68-1.35Z" fill="#615d59"/><polygon points="25.08 22.28 23.61 25.18 20.78 23.47 25.08 22.28" fill="#f1efed"/><path d="M21.92,27.01v.94s-4.71.92-4.71.92c-.31.06-1.69-.19-2.01-.23s1.07-1.44,1.42-1.45l5.31-.18Z" fill="#d1d1cf"/><polygon points="25.8 117.44 25.68 118.84 21.17 118.16 21.12 116.76 25.8 117.44" fill="#3a3939"/><path d="M15.49,22.56l-.12-1.33c-.04-.77,2.14-.51,1.91.12l-1.79,1.21Z" fill="#f1efed"/><path d="M21.91,27.95v-.94c.11-.16.77-1.22.59-.94s.68,1.33.4,1.5l-.99.39Z" fill="#f1efed"/><path d="M32.46,46.31c.15.16,2.2.94,2.87.94h5.96s-.91,4.76-.91,4.76l5.52.67-2.57,2.82h-1.96c.02-.09-.08-.29-.14-.44l-1.2-.14-.83-.06-3.67.18-2.05-4.33-3.18-4.58,2.14.18Z" fill="#e7d6b8"/><path d="M59.89,38.14l-.53,3.33.27,8.69-.92-.16-5-2.1-3.11-.93-2.06-.78,2-8.67c.25-.99,1.32-3.56,2.26-3.83l7.66-2.19-.58,6.63Z" fill="#f1efed"/><path d="M56.64,6.26c.02.88.08,3.57-.18,4.44l-6.47,21.78-1.67-1.11,6.95-25.71,1.37.61Z" fill="#d1d1cf"/><polygon points="62.49 27.99 52.19 32.16 54.58 23.35 62.49 27.99" fill="#eae4d9"/><path d="M46.19,47.03l-1.48,3.71c-.61-2.45-.65-4.79-.13-6.6l2.25-7.72c.19-.65,1.52-1.64,2.67-1.88l-3.31,12.49Z" fill="#d1d1cf"/><rect x="59.33" y="2.28" width="7.46" height="2.26" transform="translate(.4 11.26) rotate(-10.23)" fill="#c3c4ac"/><path d="M56.64,6.26l-1.37-.61c.11-.42.67-1.8,1.05-1.72l2.34.48c.38.08-.41,1.16-.76,1.31l-1.26.54Z" fill="#9c9c9b"/><path d="M15.39,53.12c-1.45,1.34-1.5,5.4-1.4,7.31l-.72,3.9-.6,9.91-2.89,3.26.68,4.24c.1.6.54,2.03,1.06,1.87.06.14.03.45.02.63l-.68,8.69c-.05.6.67,1.9,1.05,2.27s2.08-.79,2.1-1.32l.13-5.52,6.71,1.92c.34,1.17.32,1.24.75-.07l1.16.3,2.96-1,.89-1.11,2.04,1.12v2.18c-.51.06-.66.06-.73.39-.06.29-.25,1.45-.24,1.64-2.1,1.75-4.82,6.96-1.53,9.76l2.31,1.96-.89,3.3-5.17.09-1.26-.2-.59-2.86c-.19-.7-1.71-.92-2.42-.89l.17-1.13,1.01-3.76c.16-.58-.18-2.59-.75-2.82l-1.46-.61-2.94.1c-.69.02-1.26,2.92-.85,3.47l3.66,4.95.24.14.37.34.64.61.76.73-1.1.62-.45-.48-.62-.66-.33-.64-6.27,1.06-.93-1.03c.59.67.77-1.54.63-2l-3.21-10.57-2.04-.54-.11-8.17,1.71-9.81,3.57-16.78.62-6.82,1.2-.2,3.71,2.23Z" fill="#d08537"/><path d="M62.68,67.47l1.4,6.5.14,14.44-.61,4.15c-.64,4.33-1.59,8.62-3.56,12.21-1.15,2.08-4.22,4.42-6.16,6.14l-4.36.63-8.16,1.94-13.71-.23-6.23-.86,3.73-1.06,2.03-1.04-4.77-1.44,5.17-.09.89-3.3,3.04,3.58c1.88.63,6.2,1.26,8.59.39,5.47-2,12.91-5.97,15.58-9.83l-.67-.84-6.7,4.83c-5.65,4.08-15.33,5.77-16.19,3.33l-1.65-4.95,3.52-1.67,1.95,1.91-.44-2.66-1.67-5.69-3.14.58c-.11-5.58,1.1-9.76,6.06-13.41,1.8-.92,4.95,1.02,6.12,2.93,2.35,3.85,6.49-1.18,11.14,1.67,1.52.94,3.53,4.72,3.06,6.54l-1.62,6.25.65.65c2.98-3.68,3.47-9.24.64-13.25.88-.83,1.76-2.91,1.04-3.42-5.48-3.88-1.42-7.63-5.83-7.28-.38.03-1.46.16-1.67-.15l-.89-1.74,7.16.09c.65,0,2.35-.29,2.92-.52s.79-1.73.91-2.48l.47-2.75c.06-.35,1.61-.06,1.83-.11ZM35.04,84.35l-1.54,4.63,2.83.94,1.54-4.63-2.83-.94ZM41.58,91.9l-3.36.45.41,3.05,3.36-.45-.41-3.05ZM57.44,104.06l-2.88.17c-.6.03-.74,1.49-.77,3.34l3.65-3.5Z" fill="#d6442d"/><path d="M61.93,105.05l-1.89-.27c1.98-3.59,2.92-7.88,3.56-12.21l.61-4.15-.14-14.44-1.4-6.5c-1.02-4.7-2.4-9.9-4.13-14.43l.16-3.05.92.16c.12.16.79,1.34.89,1.77l1.34,5.4,3.59,16.73.72,9.61-.59,7.93c-.37,4.91-1.85,9.33-3.65,13.45Z" fill="#e7d6b8"/><path d="M18.09,111.31c.87.42,2.35.94,3.34,1.08l6.23.86,13.71.23,8.16-1.94,4.36-.63c-1.47,1.3-3.98,2.82-6.31,3.17l-6.08.92-11.6.07-8.12-.84-5.08-1.46c-.89-.26-2.33-1.31-2.94-1.98l4.33.52Z" fill="#774a25"/><path d="M21.15,108.65c-.87-.14-.98,2.38-1.72,2.53l-1.34.13-4.33-.52-3.53-3.97,6.27-1.06.73-.51-.24-.14,1.15-.2c.71-.04,2.23.19,2.42.89l.59,2.86ZM17.59,105.58l-.77.82.62.66.79-.87-.64-.61ZM17.89,107.54l1.1-.62-1.1.62Z" fill="#d6442d"/><path d="M9.29,105.79c-2.75-3.03-4.56-8.81-4.61-13.11l2.04.54,3.21,10.57c.14.45-.04,2.66-.63,2Z" fill="#6e3b17"/><path d="M39.22,54.86l-.53,3.94-1.65,4.57-.49,1.58-3.12,10.24,2.19.65.58-.26c1.06,4.55-3.99,5.63-5.16,8.38l-2.37,5.56-2.04-1.12-.14-1.04,1.24-1.78c.45-.66.94-1.93,1.2-2.71l.12-1.29,2.53-.37c-1.96-6.52-8.39-11.83-11.1-10.72l-4.44,1.82,2.03-4.96c2.78,1.55,7.26,2.64,10.35.74.87-.53,1.82-2.58,1.92-3.34,1.16-.93,3.38-2.39,3.65-3.48l1.57-6.23,3.67-.18Z" fill="#e4a55f"/><path d="M29.6,55.02c.11.22.65,1.31.63,1.28.13.21,4.04-1.04,3.61.04l-.8,2.02-2.71,6.4-1.67-.55c-.64-1.34-1.13-2.18-1.28-1.78l-.7,1.81,2.02,1.79c-3.88,3.57-9.93.4-11.5-2.29l.87-2.3c.28-.82,1.32-2.49,1.68-2.83h2.49c.53-.08,1.03-1.16,1.06-1.7l.17-3.08,6.13,1.21Z" fill="#e4a55f"/><path d="M26.58,49.05l2.69,3.39.97.43c.31.14.73-1.19.44-1.36l-1.13-.53.07-.69.35-1.5,3.26,4.86-3.64,1.37-6.13-1.21-.17,3.08-2.68-.19-.15-1.09c-.04-.29-.86-.73-1.15-.83l-2.38-.99,2.4-2.28,3.53-2.32,3.7-.13Z" fill="#eccc92"/><path d="M29.98,48.79l-.35,1.5-1.7-1.36c-.26-.2-1.13.04-1.35.12l-3.7.13-1.94-1.18c1.05-.97,3.61-2.08,5.25-2.01,1.26.05,3.09,1.75,3.79,2.8Z" fill="#e4a55f"/><polygon points="19.82 49.04 19.87 48.07 20.94 48 19.82 49.04" fill="#e4a55f"/><path d="M49.68,53.24l.18,1.81-1.02.45c-.54-.07-2.7,0-2.95.72l-1.21,3.53-1.28,3.43-2.83,7.9c-.66,1.21-1.52,3.37-1.36,5.44l-1.77-.4.77-4.09,3.5-10.07,1.63-6.46,2.57-2.82.7.29,3.07.27Z" fill="#6a553f"/><path d="M53.71,47.89l2.02,3.13-3.82,1.94c-.49.25-1.69.32-2.23.27l-3.07-.27c-.18-.74-.67-2.42-.05-2.85l2.41-1.68,1.63-1.48,3.11.93Z" fill="#eee4c9"/><polygon points="58.71 50 58.55 53.05 51.87 53.94 51.91 52.96 55.73 51.02 53.71 47.89 58.71 50" fill="#6a553f"/><path d="M51.95,75.14c4.4-.36.34,3.4,5.83,7.28.72.51-.16,2.59-1.04,3.42,2.83,4.01,2.34,9.56-.64,13.25l-.42.52c-2.67,3.86-10.11,7.83-15.58,9.83-2.39.87-6.71.25-8.59-.39l-3.04-3.58-2.31-1.96c-3.29-2.8-.56-8.01,1.53-9.76.41-.35.98-1.49.98-2.03v-2.18s2.36-5.56,2.36-5.56c1.17-2.75,6.23-3.83,5.16-8.38l1.25.54,1.77.4,5.39-2.13c1.17,1.99,1.85,4.41,2.76,4.32.3-.03,1.41-.42,1.62-.59l2.96-2.98ZM51.55,80.1c-1.07-.17-3.92.39-3.63.86.37.59,1.52,1.36,2.19,1.53s2.11-2.29,1.43-2.4ZM30.69,94.45c-1.42.89-3.01,1.84-3.65,2.99s-.27,4.83.1,6.09l3.31-1.55,1.65,4.95c.86,2.44,10.53.75,16.19-3.33l6.7-4.83.45-.32,1.62-6.25c.47-1.82-1.53-5.61-3.06-6.54-4.65-2.86-8.8,2.17-11.14-1.67-1.17-1.92-4.32-3.86-6.12-2.93-4.96,3.64-6.17,7.83-6.06,13.41Z" fill="#6e3b17"/><path d="M29.04,81.58c.16-1.76-1.02-4.75-2.59-5.96l-3.62-2.79c-1.45,2.68-2.02,3.61-2.99,4.65l.54-4.96-4.13,2.2-3.83,1.45.73,6.92c.18,1.66,2.17,3.91,3.88,4.62,1.55.65,3.77.74,4.87.13l2.05-.21,2.54-.27.14,1.04-.89,1.11-2.96,1-1.16-.3-.75.07-6.71-1.92c.03-1.26-1.77-3.14-2.59-4.13.01-.18.04-.49-.02-.63l-1.06-1.87-.68-4.24,2.89-3.26,3.35-1.93,4.44-1.82c2.71-1.12,9.14,4.2,11.1,10.72l-2.53.37Z" fill="#6a553f"/><polygon points="18.06 67.35 16.02 72.31 12.68 74.24 13.27 64.33 14 60.43 16.96 65.6 18.06 67.35" fill="#eee4c9"/><path d="M14.14,88.37l-.13,5.52c-.01.53-1.72,1.68-2.1,1.32s-1.1-1.67-1.05-2.27l.68-8.69c.82.99,2.62,2.87,2.59,4.13Z" fill="#e7d6b8"/><path d="M18.31,103.78l-3.78-4.19,2.59-3,1.46.61c.56.23.9,2.24.75,2.82l-1.01,3.76Z" fill="#e0bd7c"/><path d="M22.41,108.85l4.77,1.44-2.03,1.04-3.73,1.06c-.98-.14-2.46-.66-3.34-1.08l1.34-.13c.74-.15.85-2.67,1.72-2.53l1.26.2Z" fill="#6e3b17"/><path d="M17.12,96.58l-2.59,3,3.78,4.19-.17,1.13-1.15.2-3.66-4.95c-.41-.55.16-3.45.85-3.47l2.94-.1Z" fill="#774a25"/><path d="M25.73,89.51l-2.96,1,2.96-1Z" fill="#e4a55f"/><path d="M11.53,83.61c-.52.16-.96-1.27-1.06-1.87l1.06,1.87Z" fill="#e7d6b8"/><path d="M27.69,93.73c-.01-.18.18-1.35.24-1.64.07-.33.23-.33.74-.39,0,.54-.57,1.68-.98,2.03Z" fill="#e4a55f"/><path d="M20.85,90.29l.75-.07c-.44,1.31-.41,1.24-.75.07Z" fill="#e4a55f"/><path d="M58.55,53.05c1.73,4.53,3.11,9.73,4.13,14.43-.22.05-1.77-.24-1.83.11l-.47,2.75c-.13.74-.34,2.25-.91,2.48s-2.27.53-2.92.52l-7.16-.09-5.02-.57-3.79-1.59,2.83-7.9,3.17,2.9,5.23,1.15.55,1.6c.12.35,1.17.87,1.3.9l2.28.7-.11-3.04c2.84-9.99-1.9-9.31-2.22-9.72l-1.96-2.52.23-1.22,6.68-.89Z" fill="#e4a55f"/><path d="M49.38,73.25l.89,1.74c.21.31,1.3.18,1.67.15l-2.96,2.98c-.22.17-1.32.56-1.62.59-.91.09-1.59-2.33-2.76-4.32l-5.39,2.13c-.16-2.07.69-4.22,1.36-5.44l3.79,1.59,5.02.57Z" fill="#d08537"/><path d="M57.44,104.06l-3.65,3.5c.03-1.85.17-3.3.77-3.34l2.88-.17Z" fill="#6e3b17"/><path d="M29.04,81.58l-.12,1.29-1.2,2.71-1.24,1.78-2.54.27,2.55-5.71-.92-.76-4.52,2.68-1.41.84c-.3.18-.41,1.24-.37,1.24l2.62,1.93c-1.1.61-3.32.51-4.87-.13l-.85-7.11c.69.11,2.19-.11,2.5-.74l1.16-2.39c.97-1.04,1.54-1.97,2.99-4.65l3.62,2.79c1.57,1.21,2.75,4.21,2.59,5.96Z" fill="#e7d6b8"/><path d="M43.34,55.5l-1.63,6.46-3.5,10.07-.77,4.09-1.25-.54-.58.26,1.9-8.25c.2-.65.77-1.83.32-2.1l-1.29-.54.49-1.58c-.02.27,2.43-.28,2.56-.82l1.78-7.04h1.96Z" fill="#c3c4ac"/><path d="M35.61,75.84l-2.19-.65,3.12-10.24,1.29.54c.45.26-.13,1.44-.32,2.1l-1.9,8.25Z" fill="#6a553f"/><path d="M41.24,55.06c.06.16.16.36.14.46l-1.78,7.04c-.14.54-2.59,1.09-2.56.82l1.65-4.57.53-3.94.83.06,1.2.14Z" fill="#6a553f"/><path d="M27.72,85.57l1.2-2.71c-.26.78-.75,2.05-1.2,2.71Z" fill="#774a25"/><path d="M20.63,56.69l-.87,1.89c-.36.34-1.4,2.02-1.68,2.83l-.87,2.3c-1.63-2.8-2.18-8.11-.26-9.94l2.38.99c.28.1,1.11.54,1.15.83l.15,1.09Z" fill="#e7d6b8"/><path d="M23.31,56.88c-.03.54-.53,1.61-1.06,1.69h-2.49s.87-1.88.87-1.88l2.68.19Z" fill="#a47148"/><path d="M41.24,55.06l-1.2-.14,1.2.14Z" fill="#c3c4ac"/><path d="M29.63,50.28l-.07.69-.28,1.47-2.69-3.39c.22-.08,1.09-.32,1.35-.12l1.7,1.36Z" fill="#774a25"/><path d="M29.27,52.44l.28-1.47,1.13.53c.29.18-.13,1.5-.44,1.36l-.97-.43Z" fill="#e4a55f"/><path d="M51.65,55.16l1.96,2.52c.32.41,5.06-.27,2.22,9.72l-2.17,2.34c-.13-.04-1.18-.55-1.3-.9l-.55-1.6-5.23-1.15-3.17-2.9,1.28-3.43c2.09-.34,3.94-2.28,4.16-4.25l1.02-.45,1.78.11Z" fill="#eee4c9"/><path d="M48.84,55.5c-.21,1.97-2.06,3.91-4.16,4.25l1.21-3.53c.25-.73,2.4-.79,2.95-.72Z" fill="#e7d6b8"/><path d="M51.91,52.96l-.04.97-.23,1.22-1.78-.11-.18-1.81c.54.05,1.74-.03,2.23-.27Z" fill="#e7d6b8"/><path d="M30.45,101.97l-3.31,1.55c-.37-1.26-.74-4.94-.1-6.09s2.23-2.1,3.65-2.99l3.14-.58,1.67,5.69.44,2.66-1.95-1.91-3.52,1.67Z" fill="#e0bd7c"/><path d="M51.55,80.1c.68.11-.76,2.58-1.43,2.4s-1.82-.95-2.19-1.53c-.3-.47,2.55-1.04,3.63-.86Z" fill="#939e39"/><path d="M16.24,74.72l.35,1.09c-.19,1.36-.55,3.68-.41,4.8l.85,7.11c-1.72-.72-3.71-2.96-3.88-4.62l-.73-6.92,3.83-1.45Z" fill="#eee4c9"/><path d="M19.83,77.47l-1.16,2.39c-.3.63-1.81.85-2.5.74-.14-1.11.22-3.44.41-4.8l-.35-1.09,4.13-2.2-.54,4.96Z" fill="#eccc92"/><path d="M23.94,87.63l-2.05.21-2.62-1.93s.07-1.07.37-1.24l1.41-.84,4.52-2.68.92.76-2.55,5.71Z" fill="#eccc92"/><polygon points="53.66 69.73 55.82 67.39 55.93 70.43 53.66 69.73" fill="#774a25"/><rect x="33.24" y="85.65" width="4.88" height="2.99" transform="translate(-58.27 93.43) rotate(-71.56)" fill="#eccc92"/><rect x="38.41" y="92.11" width="3.39" height="3.08" transform="translate(-12.05 6.14) rotate(-7.61)" fill="#774a25"/></g></svg>