<?xml version="1.0" encoding="UTF-8"?><svg id="Layer_2" xmlns="http://www.w3.org/2000/svg" viewBox="0 0 56.24 98.64"><g id="Layer_1-2"><path d="M4.76,80.48l1.77.07,1.22,12.48c3.46,1.95,8.56,3.61,12.56,3.59l15.69-.09c3.4-.02,8.67-1.99,11.27-4.04l.96-12.86.64-8.7.65-8.76.46-11.26.66-4.11.34-13.17.74-4.1.21-6.58h1.73s-.84,17.54-.84,17.54l-.88,13.86-1.02,16.12-.58,9.2-1.46,13.51c-.21,1.95-5.15,3.56-7.16,4.01-13.81,3.14-35.88,1.1-36.27-5.31l-.69-11.4Z" fill="#676665"/><path d="M19.96,7.57h1.13s13.38.01,13.38.01l6.36.23.51,2.7-2.13,5.12c-12.37.14-26.85,1.8-37.03-4.05,4.16-1.86,7.18-2.87,11.13-3.3l6.67-.72Z" fill="#f1efed"/><path d="M19.96,7.57l-6.67.72c-3.95.43-6.96,1.44-11.13,3.3,10.18,5.85,24.66,4.19,37.03,4.05l2.13-5.12.64.14.81,4.7.38.61c-.62.16-2.29,1.06-2.47,1.7l-3.08,11.15c-.43,1.54-1.37,3.19-1.99,3.92l-.72.15.61-4.45-12.63.23.06-1.86,13.24.1,3.05-9.78c-12.52,1.59-24.05.72-36.95-2.32l.39,11.94-1.82.91L0,13.18c-.32-5.45,10.37-6.68,19.16-6.83l.79,1.21Z" fill="#676665"/><path d="M6.53,80.55l-.54-6.01-.33-6.49-.33-7.64-.61-9.65-.76-9.6-.68-5.44-.47-4.15h1.93c.17.38.63,1.46.65,1.97l.25,9.49.7,8.72.94,8.72.56,13.24.67,7.9.66,6.54c.06.64,1.69,2.05,2.31,2.21l7.51,1.87-.77.72-5.01.31c1.99,2.86,6.13,2.32,7.79-.23h14.46s.12,2.12.12,2.12l5.7-.84c.56-.08,2.35-1.18,1.94-1.53l-.96-.79-.11-1.07c3.57-.78,4.06-5.08,4.27-8.33l.55-8.8.61-8.67.3-9.62.6-4.94.73-6.49.41-11.18.06-2.2,2.05-1.15-.74,4.1-.34,13.17-.66,4.11-.46,11.26-.65,8.76-.64,8.7-.96,12.86c-2.6,2.05-7.87,4.02-11.27,4.04l-15.69.09c-4,.02-9.1-1.64-12.56-3.59l-1.22-12.48Z" fill="#eae4d9"/><path d="M49.68,30.68l-.06,2.2-5.65,2.3-4.75.41-1.28,6.7c2.96,1.5,4.95,3.67,5.12,6.57l-2.11-2.77c-.68-.89-3.45-2.08-4.08-2.16l-2.2,4.55.4-4.58c-.28-.04-2.49.13-3.12.5l-3.11,1.82-.51-1.12,3.52-3.8c.85-.92,1.83-3.74,2.09-4.71l-2.38-2.01c1.04.04,2.95-1.13,3.35-1.72l.72-.15v3.37s-1.08,6.28-1.08,6.28c2.11-1.87,2.79-3.98,2.67-6.18l-.1-1.82c-.02-.3.88-.69.99-.72,3.54.19,6.99-.45,10.08-2.56l-6.81-1.55.24-1.99,5.2,1.62,2.88,1.51Z" fill="#6a553f"/><path d="M52.54,9.46l.03,2-5.64-2.28-1.84,5.1c-.15.41-.11,1.42.17,1.84l-1.23-.21-.88.04-.38-.61,1.2-3,1.06-4.69c.25-1.11-2.28-.97-1.77.16l-1.29,2.84-.64-.14-.51-2.7-6.36-.23.08-1,8.07-.11c.7-5.11,7.43-7.11,12.64-6.3,1.03.16,1.34,3.71.51,4.36s-2.7,1.42-3.85,1.67l-3.67.8,4.29,2.46ZM53.58,2.35c-2.23-.67-3.84-.25-4.62.89,1.23.76,3.82.26,4.62-.89Z" fill="#595858"/><polygon points="3.97 41.16 4.73 50.76 5.34 60.41 5.66 68.05 3.74 68.03 1.93 41.17 3.97 41.16" fill="#747372"/><path d="M43.15,15.95l.88-.04.03,2.11c-.78-.17-2.19,1.76-2.43,2.56l-2.65,8.98-.85,2.87-.04,1.22c-.11.04-1.01.42-.99.72l.1,1.82-1.59-.1v-3.37c.62-.73,1.57-2.37,1.99-3.92l3.08-11.15c.18-.64,1.85-1.54,2.47-1.7Z" fill="#e7d6b8"/><polygon points="2.83 31.58 3.29 35.73 3.97 41.16 1.93 41.17 1.54 36.43 .85 27.64 2.66 26.72 2.83 31.58" fill="#4c4d4c"/><path d="M34.54,6.58l-.08,1h-13.38s.23-1.95.23-1.95l10.11.04c.71,0,2.68.74,3.12.91Z" fill="#7c7c7b"/><path d="M44.06,18.02l-1.21,4.88-1.25,4.65-.24,1.99c-.2-.04-.76.06-1,.09l-1.38-.06,2.65-8.98c.24-.8,1.65-2.73,2.43-2.56Z" fill="#595858"/><polygon points="52.57 11.46 52.74 12.52 51.8 13.59 47.5 13.92 45.09 14.29 46.93 9.18 52.57 11.46" fill="#eae4d9"/><polygon points="5.66 68.05 6 74.53 6.53 80.55 4.76 80.48 4.33 74.98 3.74 68.03 5.66 68.05" fill="#4c4d4c"/><path d="M51.8,13.59c-1.24,1.42-4.7,2.85-6.55,2.53-.28-.42-.32-1.43-.17-1.84l2.41-.36,4.31-.33Z" fill="#9c9c9b"/><path d="M52.74,12.52l-.17-1.06-.03-2c.46.27,1.55,1.03,1.27,1.45l-1.07,1.61Z" fill="#9c9c9b"/><path d="M22.94,26.78l-5.74-.05-1.07.84-9.29,1.01c-.86.09-2.63,2.67-2.09,3h-1.93s-.16-4.86-.16-4.86l-.39-11.94c12.91,3.04,24.43,3.91,36.95,2.32l-3.05,9.78-13.24-.1Z" fill="#f1efed"/><path d="M22.87,28.64l12.63-.23-.61,4.45c-.39.59-2.31,1.76-3.35,1.72l-8.67-.3-8.18-.49c-.42-.03.01,1.66.43,1.74l2.23.42c.42.08-.61.68-1.49,1.13-1.16.6-2.38,2.03-2.82,3.22-.31.19-1.16.68-1.63.81l-1.82.19-.1-7.68c-.01-.84-1.55-1.81-2.82-2.67.85-.33,4.36-2,5.9-2.04l10.29-.27Z" fill="#e7d6b8"/><path d="M22.94,26.78l-.06,1.86-10.29.27c-1.54.04-5.06,1.71-5.9,2.04,1.28.86,2.81,1.83,2.82,2.67l-4.11-.08c-.01-.5-.48-1.59-.65-1.96-.54-.34,1.23-2.91,2.09-3l9.29-1.01,1.07-.84,5.74.05Z" fill="#615d59"/><path d="M42.78,15.35l-.81-4.7,1.29-2.84c-.52-1.13,2.02-1.27,1.77-.16l-1.06,4.69-1.2,3Z" fill="#c3c4ac"/><path d="M9.51,33.62l.1,7.68-.13,5.53.55,3.99,1.89,14.74.3,4.36-2.25,3.53,2.38.43.26,11.52c.01.47,2.32.87,2.59.47l.94-1.4,1.71-.09c.51-.03.62-.66,1.23-2.5l-3.28-.18c-.19-1.16-.15-3.06.08-4.29l6.25.67,1.71-.4,2.92-.22-.45,8.24c-.29-.06.53.11,1.94.4l.53-9.28,5.2,4.38h6.12s-2.87,2.68-2.87,2.68l1.74,1.49c1.17,1,3.02-4.36-1.68-10.28.77-.71,4.6-4.2,4.47-6.14l-.5-7.32c-1.7.39-3.5.79-4.25,1.25l-8.67,4.97.88-3.12,3.72-9.07,1.65-.2.33,2.11c.12.52,1.72.57,2.42.59,3.75.11,6.2-1.83,6.98-5.61.09-.41.22-1.84-.12-2.02l-1.15-.61v-1.05c-.16-2.9-2.14-5.07-5.11-6.57l3.14-2.46c.7-.54,2.55.13,4.22.29,1.35.12.04-4.46-1.34-4.93l5.65-2.3-.41,11.18-.73,6.49-.6,4.94-1.31.39c-.52.15-.4,1.67-.45,2.4l-.73,10.79-.64,7.4-.1,9.2-4.12,1.09-.55,3.31-5.82.7c-3.52.42-8.54.75-11.99.12l-9.8-1.79-.89,1.27c-.62-.15-2.25-1.57-2.31-2.21l-.66-6.54-.67-7.9-.56-13.24-.94-8.72-.7-8.72-.25-9.49,4.11.08Z" fill="#b8bc65"/><path d="M28.34,67.86l-1.27,2.92c.24-.95.86-2.3,1.27-2.92Z" fill="#b8bc65"/><path d="M47.88,55.5l-.3,9.62-.61,8.67-.55,8.8c-.2,3.25-.69,7.54-4.27,8.33-.29-.24-1.56-.92-2.17-.85l.55-3.31,4.12-1.09.1-9.2.64-7.4.73-10.79c.05-.73-.06-2.25.45-2.4l1.31-.39Z" fill="#939e39"/><path d="M35.46,93.02l6.8-1.04.96.79c.41.34-1.38,1.44-1.94,1.53l-5.7.84-.12-2.12Z" fill="#747372"/><path d="M42.15,90.92l.11,1.07-6.8,1.04c-.13-.57,1.07-.87,1.66-1l5.03-1.1Z" fill="#9c9c9b"/><path d="M43.05,48.87v1.05s-.69-.37-.69-.37l-3.98,2.23-2.24,1.25c-.64.36-.95,1.8-.83,2.74l-.73-.31-1.65.2c.22-.54.13-1.99-.33-2.34l-4.9-3.83,1.13-3.26,3.11-1.82c.63-.37,2.84-.54,3.12-.5l-.4,4.58,2.2-4.55c.63.09,3.4,1.27,4.08,2.16l2.11,2.77ZM32.23,47.77c.74-2.6-1.86-2.21-1.59-.07,0,2.29.75,2.17,1.59.07ZM33.98,48.85l-.1.63v.65l.1.63.1-.63v-.65l-.1-.63Z" fill="#eccc92"/><path d="M31.55,34.58l2.38,2.01-13.73-.5,4.27,4.6c1.03,1.1,2.06,3.76,2.06,5.22-.46.21-1.31.46-1.82.42.16-.74-.37-3.24-1.05-3.92l-4.39-4.48-5.09,2.33-1.14.04c.44-1.19,1.66-2.62,2.82-3.22.88-.46,1.91-1.05,1.49-1.13l-2.23-.42c-.42-.08-.86-1.77-.43-1.74l8.18.49,8.67.3Z" fill="#676665"/><path d="M28.83,46.24l-1.13,3.26,4.9,3.83-2.53,4.3-3.8,9.56c-.16-4.33.71-7.1,3.16-11.1l-2.78-3.54-1.03-5.05c-.81,1.74-1.21,2.88-1.7,3.35l-1.27-2.19-2.26-2.66,4.33.34c.51.04,1.36-.21,1.82-.42l1.78-.81.51,1.12Z" fill="#939e39"/><path d="M33.93,36.6c-.26.97-1.24,3.8-2.09,4.71l-3.52,3.8-1.78.81c0-1.46-1.04-4.12-2.06-5.22l-4.27-4.6,13.73.5Z" fill="#e0bd7c"/><path d="M43.96,35.19c1.37.47,2.69,5.06,1.34,4.93-1.68-.15-3.52-.83-4.22-.29l-3.14,2.46,1.28-6.7,4.75-.41Z" fill="#eccc92"/><path d="M38.09,33.65l.04-1.22c.58.19,1.91.08,1.99-.45l.24-2.35c.24-.02.81-.13,1-.09l6.81,1.55c-3.09,2.12-6.55,2.75-10.08,2.56Z" fill="#c3c4ac"/><path d="M37.2,36.19c.12,2.2-.56,4.31-2.67,6.18l1.08-6.28,1.59.1Z" fill="#c3c4ac"/><path d="M53.58,2.35c-.81,1.15-3.39,1.65-4.62.89.78-1.14,2.39-1.56,4.62-.89Z" fill="#d1d1cf"/><path d="M40.35,29.63l-.24,2.35c-.08.53-1.41.65-1.99.45l.85-2.87,1.38.06Z" fill="#6a553f"/><path d="M39.98,90.07c.61-.07,1.87.6,2.17.85l-5.03,1.1c-.59.13-1.79.43-1.66,1h-14.46s-2.01-.79-2.01-.79l-7.51-1.87.89-1.27,9.8,1.79c3.45.63,8.46.3,11.99-.12l5.82-.7Z" fill="#6a553f"/><path d="M21,93.02c-1.65,2.55-5.8,3.1-7.79.23l5.01-.31.77-.72,2.01.79Z" fill="#7c7c7b"/><path d="M16.13,27.57l1.07-.84-1.07.84Z" fill="#676665"/><path d="M14.19,40.26l.45,5.31c.17,1.31,0,3.82-.14,5.02l-2.2.36-.87-9.83c.47-.13,1.32-.62,1.63-.81l1.14-.04Z" fill="#f5eee2"/><polygon points="11.43 41.12 12.3 50.95 10.04 50.83 9.48 46.84 9.61 41.3 11.43 41.12" fill="#615d59"/><path d="M12.3,50.95l2.2-.36-.14,1.14-.17,1.99.17,6.84c.02.65.6,2.01.78,2.62l-1.71,6.11.63.94,1.76,2.91-1.35,1.55,1.43,2.73c-.24,1.23-.28,3.13-.08,4.29l.34,2.77-.94,1.4c-.26.39-2.57,0-2.59-.47l-.26-11.52-.13-3.96-.3-4.36-1.89-14.74,2.26.12Z" fill="#e7d6b8"/><path d="M26.66,52.54l2.78,3.54c-2.45,4.01-3.32,6.77-3.16,11.1l3.8-9.56,2.53-4.3c.46.36.55,1.81.33,2.34l-3.72,9.07-.88,3.12c-.41.63-1.03,1.97-1.27,2.92l1.27-2.92,8.67-4.97c.74-.46,2.55-.86,4.25-1.25l.5,7.32c.13,1.95-3.7,5.43-4.47,6.14,4.7,5.92,2.85,11.28,1.68,10.28l-1.74-1.49,2.87-2.66h-6.12s-5.2-4.4-5.2-4.4l-.53,9.28c-1.4-.29-2.23-.46-1.94-.4l.45-8.24,3.18-1.64-1.44-4.48c-2.08,1.13-3.55,1.53-5.09,1.55l-1.51.3v-5.1c0-.67,1.67-2.24,2.07-2.76l2.38-6.38c.28-.76,1.15-2.26.73-2.72l-1.9-2.05c-.22-.24-.25-1.41.07-1.46l1.39-.18ZM32.81,71.62l-2.59,2c2.57.72,6.15.39,8.23-2.03,1.78-2.06,2.2-5.17,1.44-8.14-4.83,1.49-7.25,2.78-9.55,6.79l5.61-2.2-3.14,3.57ZM34.5,75.4l-3.91.75c2.04,2.3,5.34,3.9,7.25,3.49,1.33-.29-1.81-4.54-3.34-4.25Z" fill="#6a553f"/><path d="M21.91,73.2l1.51-.3.7,3.72-1.62.3c-.32.09-.39.55-.36,1.17l-6.25-.67-1.43-2.73,1.35-1.55-1.76-2.91,4.32,1.49,3.53,1.49Z" fill="#939e39"/><path d="M34.58,55.46l.73.31c1.53.55,4.4.89,5.68,0,1.39-.98,2.01-4.54,1.37-6.22l.68.37,1.15.61c.34.18.21,1.61.12,2.02-.79,3.78-3.23,5.72-6.98,5.61-.7-.02-2.3-.07-2.42-.59l-.33-2.11Z" fill="#6a553f"/><path d="M26.77,77.47l-2.92.22.27-1.07-.7-3.72c1.54-.02,3.01-.42,5.09-1.55l1.44,4.48-3.18,1.64Z" fill="#1e1d19"/><path d="M16.15,84.48l-.34-2.77,3.28.18c-.61,1.84-.72,2.48-1.23,2.5l-1.71.09Z" fill="#6a553f"/><polygon points="12.36 73.9 9.98 73.47 12.23 69.94 12.36 73.9" fill="#6a553f"/><path d="M24.12,76.62l-.27,1.07-1.71.4c-.03-.62.04-1.08.36-1.17l1.62-.3Z" fill="#6a553f"/><path d="M42.36,49.55c.64,1.68.02,5.23-1.37,6.22-1.28.9-4.15.56-5.68,0-.12-.93.19-2.38.83-2.74l2.24-1.25,3.98-2.23Z" fill="#b8bc65"/><path d="M32.23,47.77c-.84,2.1-1.6,2.22-1.59-.07-.27-2.14,2.34-2.54,1.59.07Z" fill="#747372"/><polygon points="33.98 48.85 34.07 49.48 34.07 50.13 33.98 50.76 33.88 50.13 33.88 49.48 33.98 48.85" fill="#6a553f"/><path d="M24.72,46.34l-4.33-.34,2.26,2.66-.38,2.13c-.21.73-2.29,1.27-3.12,1.22l-4.79-.28.14-1.14c.15-1.2.31-3.71.14-5.02l-.45-5.31,5.09-2.33,4.39,4.48c.67.69,1.21,3.18,1.05,3.92Z" fill="#eccc92"/><path d="M26.66,52.54l-1.39.18c-.32.06-.29,1.23-.07,1.46l1.9,2.05c.42.45-.45,1.95-.73,2.72l-2.38,6.38c-.4.52-2.07,2.09-2.08,2.76v5.1s-3.53-1.49-3.53-1.49l-4.32-1.49-.63-.94,1.71-6.11,4.22-1.93-1.16-1.71-3.84,1.03-.17-6.84,6.85-.11,2.89-2.77c.5-.48.89-1.62,1.7-3.35l1.03,5.05Z" fill="#b8bc65"/><path d="M23.92,50.85l-2.89,2.77-6.85.11.17-1.99,4.79.28c.83.04,2.91-.5,3.12-1.22l.38-2.13,1.27,2.19Z" fill="#615d59"/><path d="M15.14,63.18c-.18-.6-.77-1.97-.78-2.62l3.84-1.03,1.16,1.71-4.22,1.93Z" fill="#6a553f"/><path d="M32.81,71.62l3.14-3.57-5.61,2.2c2.3-4.01,4.72-5.31,9.55-6.79.76,2.97.34,6.08-1.44,8.14-2.08,2.41-5.66,2.74-8.23,2.03l2.59-2Z" fill="#939e39"/><path d="M34.5,75.4c1.53-.29,4.67,3.96,3.34,4.25-1.91.41-5.21-1.19-7.25-3.49l3.91-.75Z" fill="#939e39"/></g></svg>