<?xml version="1.0" encoding="UTF-8"?><svg id="Layer_2" xmlns="http://www.w3.org/2000/svg" viewBox="0 0 73.64 96.62"><g id="Layer_1-2"><path d="M66.46,80.93l-1.7.14.57-16.33.61-7.66.27-8.7.52-20.17c-.14-.27-1.51-2.89-.85-1.63l-13.72,3.67-2.36.26-2.75.33v-1.74s1.35-4.32,1.35-4.32c.16-.52.12-2.12.05-2.23l-.17-.75c.5-.05,2.38-1.3,2.55-2.15l.59-3.05-8.14-.72-.08-1.97,9.28.89,3.63-9.07c.54-1.36,2.29-4.72,3.78-4.84L71.51,0c1.05-.08,2.48,2.77,2.05,3.68s-2.25,2.06-3.27,2.17l-7.92.85-3.69,9.11,4.31,1.71c1.66.66,4.44,2.68,5.79,4.36l-.59,25.92-.6,18.93-1.13,14.21ZM71.13,2.74l-7.24-.37,1.79,2.4,5.45-2.03ZM55.92,17.51l3.72-9.13c.16-.38.13-2.27.07-2.67s-.97-.2-1.61,0l-8.75,23.19c4.38-2.59,4.7-6.82,6.56-11.39ZM62.89,25.34c.83.26,3.33-1.87,4.37-3.07l-9.55-4.78-1.48,5.74,6.66,2.11ZM60.47,26.47c-2.35-1.14-3.86-1.82-4.83-1.97-.87-.14-1.79,2.74-1.89,3.9l6.73-1.92Z" fill="#595858"/><path d="M7.47,25.69c.21.13,2.05,1.19,2.75,1.31l13.78,2.36-.16,1.51-5.64-.61c-5.91-.64-10.9-2.19-16.39-4.7l.42,11.81.38,7.27.21,3.81.03,12.51.96,19.27c.18,3.6,2.8,8.53,6.05,10.16,7.17,3.61,14.88,4.61,22.73,4.26l16.4-1.19,2.12.65-4.75,1.66-13.71.77c-10.82.61-26.84-2.32-29.61-11.32-1.42-4.6-1.58-8.99-1.76-13.7l-.5-12.43L0,22.35c-.04-2.01,4.66-4.58,6.61-4.74.33-.03,1.01,1.12.71,1.26l-1.7.79c-.91.42-2.5,1.71-4.12,3.12,2.3,1.61,4.13,2.45,5.97,2.91Z" fill="#676665"/><path d="M27.88,20.09h10.51s8.34.78,8.34.78c.29.03,1.82.62,1.54.93l.17.75-13.94-.82-19.35,1.58-7.68,2.39.97-2.55,9.75-2.19,9.69-.87Z" fill="#747372"/><polygon points="43.19 13.89 43.27 15.87 39.34 15.55 25.89 15.67 18.18 16.53 14.28 16.97 15.94 14.72 23.49 13.8 43.19 13.89" fill="#676665"/><path d="M11.57,88.63c.32.78,1.77,2.09,2.7,2.26l9.76,1.72,5.76-.02,9.58-.59,9.49-.56.14,2.02-16.4,1.19c-7.84.35-15.55-.65-22.73-4.26-3.25-1.64-5.87-6.56-6.05-10.16l-.96-19.27,1.92-.95.43,12.13.89,9.46c.29,3.13,4.01,3.5,5.48,7.02Z" fill="#eae4d9"/><path d="M56.62,87.5l.14,3.61-.94.61-.93-1.39c-.23-.34-1.47-.12-1.92,0l-4.12,1.11-9.49.56.06-1.78c.12-1.18,4.25.54,9.96-.89l7.22-1.82Z" fill="#6a553f"/><polygon points="25.89 15.67 26.82 17.75 27.88 20.09 18.18 20.95 18.18 16.53 25.89 15.67" fill="#f1efed"/><path d="M66.46,80.93c-.45,5.7-4.76,10.95-10.59,11.8.04-.56.1-.85-.05-1.01l.94-.61c3.52-1.57,7.85-5.7,8-10.04l1.7-.14Z" fill="#747372"/><path d="M55.82,91.72c.15.16.09.45.05,1.01l-.8.9c-.25.27-1.23-.18-1.35-.53s.09-1.45.45-1.41l1.65.04Z" fill="#eae4d9"/><path d="M23.84,30.88c7.64.83,15.53.88,23.21-.04l2.75-.33.17,1.77-5.26,10.7c-.2-.59-.33-2.86-.05-3.57l2.46-6.4-1.53-.09-2.26,4.33-7.84-.36h-4.88c-5.97.02-13.34.21-18.08,2.63l-2.16,1.1-3.09-.72c-1.46-.15-3.52,2.87-3.09,4.38l-1.58.37-.38-7.27-.42-11.81c5.48,2.52,10.48,4.06,16.39,4.7l5.64.61Z" fill="#f1efed"/><path d="M48.45,22.54c.07.11.11,1.71-.05,2.23l-1.36,4.32-23.04.28-13.78-2.36c-.7-.12-2.53-1.18-2.75-1.31l7.68-2.39,19.35-1.58,13.94.82Z" fill="#f1efed"/><path d="M66.21,48.37l-1.82.02.03-3.95c0-.54-.47-1.6-.8-1.98-.89-1.03-2.79-2.37-4.04-2.66l-3.96-.91-5.97-1.05,1.49-4.41,1.02-3.2,13.72-3.67c-.66-1.26.71,1.36.85,1.63l-.52,20.17Z" fill="#f5eee2"/><path d="M66.21,48.37l-.27,8.7-.61,7.66-.57,16.33c-.15,4.34-4.48,8.47-8,10.04l-.14-3.61c5.28-2.56,6.4-6.47,6.79-12.95l.59-9.82.39-16.34,1.82-.02Z" fill="#eae4d9"/><path d="M47.04,29.09v1.74c-7.67.93-15.56.87-23.2.04l.16-1.51,23.04-.28Z" fill="#7c7c7b"/><path d="M55.92,17.51c-1.86,4.57-2.19,8.8-6.56,11.39l8.75-23.19c.63-.2,1.55-.41,1.61,0s.09,2.29-.07,2.67l-3.72,9.13Z" fill="#eae4d9"/><path d="M43.27,15.87l8.14.72-.59,3.05c-.16.85-2.04,2.11-2.55,2.15.28-.31-1.26-.9-1.54-.93l-8.34-.79.95-4.52,3.93.31Z" fill="#f1efed"/><path d="M62.89,25.34l-6.66-2.11,1.48-5.74,9.55,4.78c-1.03,1.21-3.53,3.34-4.37,3.07Z" fill="#f1efed"/><path d="M60.47,26.47l-6.73,1.92c.11-1.16,1.02-4.04,1.89-3.9.97.16,2.48.84,4.83,1.97Z" fill="#d1d1cf"/><polygon points="71.13 2.74 65.68 4.77 63.89 2.37 71.13 2.74" fill="#f8f6f4"/><polygon points="52.16 30.24 51.14 33.43 49.97 32.27 49.8 30.5 52.16 30.24" fill="#7c7c7b"/><polygon points="4.82 48.48 4.78 60.01 2.86 60.97 2.82 48.45 4.82 48.48" fill="#f1efed"/><polygon points="5.02 44.26 4.82 48.48 2.82 48.45 2.61 44.64 4.19 44.27 5.02 44.26" fill="#eae4d9"/><polygon points="39.34 15.55 38.39 20.08 27.88 20.09 26.82 17.75 25.89 15.67 39.34 15.55" fill="#f8f6f4"/><path d="M43.26,60.13c1.07,1.57.88,5.46.28,8.18l-3.17-6.85.68,6.68c.07.04,1.06.63,1.04.8l-.22,2.71-.91-2.42c-.05-.14-.35-.54-.49-.64l-1.38-1.05-1.26-1.73c.25-1.59.67-4.39,1.46-5.95.9-.12,3.16-.13,3.96.27Z" fill="#939e39"/><path d="M9.04,46.01c-3.28,2.46-2.82,5.67-1.76,10.21.13.55,2.45,1.21,2.59.85l.84,5.8.26,1.16c-3.83,3.36-6.22,10.93-2.18,15.14l5.97,6.23,7.45,2.41c6.98,2.26,13.48-.22,14.08-3.97l.14-.85c.34.11,1.84-.01,1.91-.54l.33-2.71c.14-1.14.93-4.15,1.33-4.64,6.04.49,11.42.22,11.97-3.57l.95-1.19c.2.03.74-.31.82-1.03l3.39-3.4c.9-1.13-.3-5.12-1.75-5.28l-8.86,1.29c-1.25-.84-2.47-1.73-3.26-1.81l-2.14-3.14,2.28-3.53-1.85-1.42-4.77,9.2c-.59,1.14.33,3.8,1.06,4.58l1.26,1.73.56,4.07c.04.38-1.37,1.32-1.68,1.06l-1.94-1.63-3.49-4.16,6.04-13.1-1.39-1.47-2.51,5.73-3.85,8.81-6.69-1.38c-.13-.67-1.58-4.3-2.92-4.48l-6.51-.56v-5.25s-.19-5.88-.19-5.88c.37.06,1.01-.75.91-1.26l7.08.86c10.82,1.32,21.44.51,32.31-1.28,2.26-.37,5.11-1.8,6.64-2.77l2.97-.41-.03,3.95-.39,16.34-.59,9.82c-.39,6.48-1.52,10.38-6.79,12.95l-7.22,1.82c-5.71,1.44-9.84-.28-9.96.89l-.06,1.78-9.58.59-1.04-.68-12.7-2.48-4.49-.8c-1.47-3.52-5.18-3.89-5.48-7.02l-.89-9.46-.43-12.13.04-11.54.2-4.21c.2,0,.54-.03.66.03l3.35,1.71ZM54.05,54.69l4.22-1.98c.62-.29,1.17-2.14.86-2.13l-7.66,2.8-.42,2.26c-.07.37.75.56,1.05.36l1.95-1.3ZM22.11,57.04l2.69,5.38c2.02-2.01,3.28-3.69,3.89-5.45l-6.6-2.1-2,.78c-.35.1.2,1.47.57,1.47l1.46-.07ZM59.61,82.86l2.54-6.05-2.26.03c-1.53,7.25-7.59,6.97-6.98,10.16,2.65-.71,4.68-2.18,6.7-4.14ZM49.62,81.92l2.76-.55c.49-.1-.34-1.98-.6-2.37l-6.89,3.57c-.59.3-1.04,2.38-1.14,3.03-.47,3.27,2.9-3.1,5.86-3.69Z" fill="#939e39"/><path d="M53.74,69.33l-.82,1.03-.95,1.19-4.19,1.65c-1.27.5-4.51-.02-5.79-.25l7.38-2.99-5.38-.41,5.39-3.45-4.7.26c1.64-3.07,5.97-4.36,10.01-3.77.75.11.71,2.89.41,3.57l-1.37,3.18ZM49.58,65.18l-.63.1.63.1h.65l.63-.1-.63-.1h-.65Z" fill="#939e39"/><path d="M29.8,92.59l-5.76.02-9.76-1.72c-.94-.17-2.38-1.48-2.7-2.26l4.49.8,12.7,2.48,1.04.68Z" fill="#595858"/><path d="M43.32,37.24l-1.84,3.54-5.83-1.28c-.43-.05-2.26.46-2.18.88l.43,2.25,7.29-.02.17,2.07c-.6,2.92-6.32,3.65-11.56,2.87l-12.67-1.87c-1.39-.21-2.19-3.74-1.78-4.94.28-.16,1.57-.82,2.08-.91l8.99-1.51c5.05-.85,7.32,1.26,8.08.19l.98-1.62,7.84.36Z" fill="#e7d6b8"/><path d="M15.36,40.73c-.41,1.2.39,4.74,1.78,4.94l12.67,1.87c5.24.78,10.95.04,11.56-2.87l4.74.26c2.66,1.65,6.26,1.24,9.05-.89l5.2-.21,1.1,1.02c-1.53.97-4.38,2.4-6.64,2.77-10.87,1.79-21.49,2.6-32.31,1.28l-7.08-.86-6.39-2.04-3.35-1.71c-.16-.61,1.23-2.15,2.01-2.5l2.67-1.19,2.16-1.1,1.34,1.25c.32.13,1.18.02,1.49-.02Z" fill="#eee4c9"/><path d="M51.14,33.43l-1.49,4.41-3.55,7.1-4.74-.26-.17-2.07.28-1.83,1.84-3.54,2.26-4.33,1.53.09-2.46,6.4c-.27.71-.15,2.98.05,3.57l5.26-10.7,1.17,1.16Z" fill="#615d59"/><path d="M35.49,36.88l-.98,1.62c-.76,1.07-3.02-1.04-8.08-.19l-8.99,1.51c-.51.09-1.8.74-2.08.91-.31.04-1.17.16-1.49.02l-1.34-1.25c4.74-2.42,12.11-2.61,18.08-2.62h4.88Z" fill="#7c7c7b"/><path d="M10.37,40.61l-2.67,1.19c-.78.35-2.17,1.89-2.01,2.5-.13-.06-.46-.03-.66-.03h-.83c-.44-1.51,1.63-4.53,3.09-4.38l3.09.72Z" fill="#7c7c7b"/><path d="M47.11,33l-1.53-.09,1.53.09Z" fill="#7c7c7b"/><path d="M59.58,39.81c.24,1.23,2.35,2.53,4.04,2.66.33.38.8,1.44.8,1.98l-2.97.41-1.1-1.02-5.2.21c-2.79,2.14-6.38,2.54-9.05.89l3.55-7.1,5.97,1.05,3.96.91Z" fill="#e7d6b8"/><path d="M63.62,42.47c-1.69-.13-3.8-1.43-4.04-2.66,1.25.29,3.15,1.63,4.04,2.66Z" fill="#939e39"/><path d="M24.14,65.48l.93,1.94,2.64,3.53-4.49-1.12-.13,2.64-.11,2.12c-1.32.09-3.41,1.38-3.58,2.88l-2.27.8-1.29-.11-.42-6.53c2.15-1.1,3.69-2.91,5.23-5.99l-4.5,2.1-.8-5.04c1.3-.57,4.37-.82,5.4.17l3.38,2.61Z" fill="#eeab24"/><path d="M37.48,78.26l-5.27-2.86-.84,2.34c-.21.58,1.36,1.19,1.92,1.49l3.42,1.87-.29,1.91-.14.85-4.31,2.53c-2.75,1.73-7.88,1.31-10.97-1.43l2.16-.12-4.43-4.97.66-2.39c1.43-.24,3.51-1.54,3.58-2.88l2.24-1.18,2.97,1.06,1.56-6.1,4.71,2.59c2.04,1.12,3.59,5.22,3.03,7.3Z" fill="#eeab24"/><path d="M51.97,71.55l.95-1.19-.95,1.19Z" fill="#503824"/><path d="M52.91,70.36l.82-1.03c-.08.71-.63,1.06-.82,1.03Z" fill="#503824"/><path d="M39.09,67.55l1.38,1.05.58-.45-.68-6.68,3.17,6.85c.59-2.72.79-6.61-.28-8.18.79.07,2.01.97,3.26,1.81l8.86-1.29c1.45.16,2.64,4.15,1.75,5.28l-3.39,3.4,1.37-3.18c.29-.68.34-3.46-.41-3.57-4.04-.59-8.37.7-10.01,3.77l4.7-.26-5.39,3.45,5.38.41-7.38,2.99c1.28.23,4.52.76,5.79.25l4.19-1.65c-.55,3.79-5.93,4.06-11.97,3.57-.4.48-1.19,3.49-1.33,4.64l-.33,2.71c-.06.53-1.56.65-1.91.54l.29-1.91.76-2.84c.56-2.08-.99-6.18-3.03-7.3l-4.71-2.59-4.68-.95-.93-1.94,6.69,1.38,3.85-8.81,2.51-5.73,1.39,1.47-6.04,13.1,3.49,4.16,1.94,1.63c.31.26,1.72-.68,1.68-1.06l-.56-4.07ZM42.1,68.95l-1.13.29.91,2.42.22-2.71Z" fill="#503824"/><path d="M43.26,60.13c-.8-.39-3.06-.39-3.96-.27-.8,1.57-1.21,4.36-1.46,5.95-.73-.78-1.65-3.44-1.06-4.58l4.77-9.2,1.85,1.42-2.28,3.53,2.14,3.14Z" fill="#503824"/><path d="M39.09,67.55l-1.26-1.73,1.26,1.73Z" fill="#503824"/><path d="M10.65,67.56l-1.51,2.72c-1.97,5.3,2.31,10.47,7.53,14.18l.83-2.61,3.51,3.11c3.09,2.74,8.22,3.16,10.97,1.43l4.31-2.53c-.6,3.75-7.1,6.23-14.08,3.97l-7.45-2.41-5.97-6.23c-4.04-4.22-1.65-11.78,2.18-15.14l-.32,3.53Z" fill="#774a25"/><path d="M13.28,62.78l2.07-.08.8,5.04c-.18.92-.82,2.88-.74,3.89l.42,6.53-1.42.19c-.62-.7-2.26-2.47-2.43-3.42l-1.33-7.38.32-3.53-.26-1.16,2.57-.09Z" fill="#e7d6b8"/><path d="M14.51,49.31l.19,5.88v5.25s-1.42,2.34-1.42,2.34l-2.57.09-.84-5.8c-.34-2.38-.07-5.83.22-8.44l4.42.68Z" fill="#eee4c9"/><path d="M15.42,48.05c.09.51-.54,1.32-.91,1.26l-4.42-.68c-.29,2.6-.57,6.06-.22,8.44-.14.36-2.46-.3-2.59-.85-1.06-4.54-1.52-7.75,1.76-10.21l6.39,2.04Z" fill="#b8bc65"/><path d="M22.11,57.04c-.16-.33-.05-1.5-.02-2.17l6.6,2.1c-.61,1.76-1.87,3.44-3.89,5.45l-2.69-5.38Z" fill="#b8bc65"/><path d="M59.61,82.86c-2.02,1.96-4.05,3.43-6.7,4.14-.61-3.2,5.44-2.91,6.98-10.16l2.26-.03-2.54,6.05Z" fill="#774a25"/><path d="M54.05,54.69l-1.95,1.3c-.3.2-1.12,0-1.05-.36l.42-2.26,7.66-2.8c.31,0-.25,1.84-.86,2.13l-4.22,1.98Z" fill="#e0bd7c"/><path d="M49.62,81.92c-2.96.59-6.33,6.96-5.86,3.69.09-.66.55-2.73,1.14-3.03l6.89-3.57c.26.39,1.08,2.27.6,2.37l-2.76.55Z" fill="#b8bc65"/><path d="M24.14,65.48l-3.38-2.61c-1.04-.99-4.1-.74-5.4-.17l-2.07.08,1.42-2.34,6.51.56c1.34.18,2.79,3.82,2.92,4.48Z" fill="#774a25"/><path d="M22.09,54.86c-.03.67-.14,1.85.02,2.17l-1.46.07c-.37,0-.92-1.37-.57-1.47l2-.78Z" fill="#503824"/><path d="M41.48,40.77l-.28,1.83-7.29.02-.43-2.25c-.08-.42,1.74-.93,2.18-.88l5.83,1.28Z" fill="#f8f6f4"/><polygon points="29.75 68.38 28.18 74.47 25.22 73.41 23.08 72.47 23.22 69.84 27.71 70.95 25.07 67.43 29.75 68.38" fill="#eccc92"/><polygon points="15.83 78.16 17.12 78.27 18.74 79.86 23.17 84.84 21.01 84.96 17.5 81.85 14.41 78.36 15.83 78.16" fill="#eccc92"/><path d="M37.48,78.26l-.76,2.84-3.42-1.87c-.57-.3-2.13-.9-1.92-1.49l.84-2.34,5.27,2.86Z" fill="#e0bd7c"/><path d="M22.98,74.59c-.07,1.34-2.15,2.64-3.58,2.88.18-1.5,2.26-2.78,3.58-2.88Z" fill="#a47148"/><polygon points="19.39 77.47 18.74 79.86 17.12 78.27 19.39 77.47" fill="#a47148"/><polygon points="25.22 73.41 22.98 74.59 23.08 72.47 25.22 73.41" fill="#a47148"/><path d="M14.41,78.36l3.09,3.49-.83,2.61c-5.22-3.71-9.5-8.88-7.53-14.18l1.51-2.72,1.33,7.38c.17.95,1.81,2.71,2.43,3.42Z" fill="#eeab24"/><path d="M15.41,71.63c-.08-1.01.56-2.98.74-3.89l4.5-2.1c-1.54,3.08-3.09,4.89-5.23,5.99Z" fill="#774a25"/><polygon points="49.58 65.18 50.23 65.18 50.86 65.28 50.23 65.38 49.58 65.38 48.95 65.28 49.58 65.18" fill="#503824"/></g></svg>