<?xml version="1.0" encoding="UTF-8"?><svg id="Layer_2" xmlns="http://www.w3.org/2000/svg" viewBox="0 0 61.5 126.44"><g id="Layer_1-2"><path d="M5.51,102.91l1.81.04.34,5.86.94,8.61c.59,5.41,19.67,8.38,29.36,6.51l6.3-1.21,6.12-1.85c2.02-.61,3.38-2.7,3.55-4.87l1.01-13.5,1.26-19.58.92-13.51,2.45-38.98-7.03,2.24c-1.27.37-3.71.46-5.91.67l-3.82,17.96,3.21.45c-1.64,2.18-6.52,3.73-9.65,3.47l.02-2.43,4.01-18.84c-11.75.62-22.47,1.1-32.81-2.05l.98-1.27,15.2,1.64c5.55.6,11.47.07,17.09-.13l.95-4.8.41-2.06.31-1.59c.49-2.52-17.72-2.28-28.68-.46-.44-.23-1.12-.89-1.75-1.72,10.65-1.59,20.34-1.75,30.9-.95l3.48-16.3c.39-.76,2.88-2.27,3.68-2.45L58.27.02c.9-.2,2.53,1.22,2.89,2.04s-.45,3.45-1.42,3.67l-7.81,1.78-2.83,13.81c5.02,1.26,8.51,2.22,12.29,5.07.29,3.48.04,8.46-.23,12.23l-.81,11.39-.92,13.22-1.07,16.32-.97,14.39-.84,11.39-.94,12.74c-.78,10.6-47.68,11.92-48.81-.54l-.61-6.72-.66-7.89ZM53.65,5.22l6.28-1.99c-1.77-.91-4.03-.88-5.42-.37l-2.1.77c-.39.14.87,1.71,1.24,1.59ZM48.12,5.75l-5.28,26.22c1.12-.13,2.59-1.15,2.75-2.01l3.45-17.76.53-5.58.99-1.06c.27-.29-.27-1.82-.56-1.55l-1.88,1.75ZM59.64,28.32c-1.6-1.71-2.67-2.82-3.4-3.03l-7.43-2.17-1.83,8.83,12.66-3.63ZM41.23,49.62l2.97-14.35c.1-.46-1.49-1.9-1.64-1.45l-.67,1.92-3.47,17.67c1.82-.73,2.36-1.63,2.81-3.78Z" fill="#595858"/><path d="M3.6,26.32c-.63.27-1.37,1.52-1.28,2.19l.25,1.74c-.03-.22-.69,1.6-.64,2.16l1.95,21.92.54,6.84,1.03,15.01-1.8-.06L1,41.53,0,28.49c-.08-.98,1.68-3.17,2.54-3.57l1.05,1.4Z" fill="#4c4d4c"/><path d="M42.22,25.29l-.41,2.06-8.5-.36c-7.05-.13-13.05.57-20.48,1.82-.41-.19-.95-.73-1.74-1.74,7.54-1.5,14.32-2.28,21.75-1.98l9.37.2Z" fill="#7c7c7b"/><polygon points="5.44 76.18 6.11 84.83 7.11 98.32 7.32 102.95 5.51 102.91 5.04 95.26 4.23 82.91 3.64 76.12 5.44 76.18" fill="#3a3939"/><polygon points="8.57 30.64 7.59 31.91 2.57 30.26 2.32 28.52 8.57 30.64" fill="#747372"/><polygon points="3.6 26.32 2.54 24.93 6.74 23 6.86 24.91 3.6 26.32" fill="#747372"/><path d="M7.59,31.91c10.34,3.15,21.05,2.67,32.81,2.05l-4.01,18.84-3.11.41c-.5.04-1.07,1.57-1.08,1.81l-1.91,1.04-1.67-3.46c-1-2.08-4.96-4.26-7.71-4.42-.99-.06-3.12,2.02-3.07,2.67l4.32-.31c2.32-.17,6,3.91,6.42,6.5.19,1.17-.54,3.74-1.03,4.8l-2.06-.33c-.51-.2-1.85-.63-2.52-.64l-6.77-.1-.59,3.32c-.97-1.13-2.49-3.47-2.55-4.94-.07-1.85.96-3.72,2.23-6.63l-2.78.65c-.11-.39-3.08-1.28-3.38-.44l-1.17,3.36-1.34.62c-.26.12-.29.78-.4,1.04l-1.79,3.42-.54-6.84-1.95-21.92c-.05-.56.61-2.38.64-2.16l5.02,1.65ZM15.98,39.25l-3.34.06.04,2.34,3.34-.06-.04-2.34Z" fill="#f1efed"/><path d="M8.9,93.66l.57,9.48.69,5.28c.23,1.76.75,4.32,1.76,5.44,3.69,4.12,14.86,4.87,22.41,4.53l1.47,3.72c.48,1.08,3.34-.26,4.53-.46l7.84-1.32,2.22.53-6.12,1.85-6.3,1.21c-9.69,1.86-28.77-1.1-29.36-6.51l-.94-8.61-.34-5.86-.21-4.63-1-13.49-.66-8.65-1.03-15.01,1.79-3.42.65,10,2.04,25.91ZM21.81,120.17l-4.79-1.84-1.28,1.98,6.07-.14Z" fill="#eee4c9"/><path d="M53.93,115.99l-2.41-3.42.64-5,.67-8.32.66-8.69.65-8.7.69-15.65,1.05-10.03c.05-.52-1.87-1.17-2.39-1.22l-.04-2.42c1.81-4.05,1.83-9.87,1.7-14.81l-2.62-5.06,7.03-2.24-2.45,38.98-.92,13.51-1.26,19.58-1.01,13.5Z" fill="#eae4d9"/><path d="M52.54,32.67l2.62,5.06c.13,4.94.11,10.77-1.7,14.81l-3.79-.39c-.71-.62-3.03-1.23-3.66-.4l-3.21-.45,3.82-17.96c2.2-.21,4.64-.3,5.91-.67Z" fill="#f1efed"/><path d="M49.67,52.15l.16,2.4,3.67.42c-.06.81-.8,2.37-.76,3.13l-3.66,1.42-8.11.5-.24-1.59c-.07-.47-1.39.07-1.62.44l-1.73,5.79-1.36-3.55-5.89-.42c.47-1.07.68-3.55.17-4.62l1.91-1.04,1.19.3.94-.25,2.02.16c3.13.25,8.02-1.29,9.65-3.47.62-.83,2.95-.21,3.66.4Z" fill="#eee4c9"/><path d="M53.93,115.99c-.16,2.17-1.52,4.26-3.55,4.87l-2.22-.53.47-2.63-5.88,1.42c-.99.24-2.82,1.47-2.43,2.54-1.19.2-4.05,1.54-4.53.46l-1.47-3.72c4.4-.2,9.02-1.13,13.47-2.67l3.74-3.16,2.41,3.42Z" fill="#e7d6b8"/><path d="M49.56,6.61l-.53,5.58-3.45,17.76c-.17.86-1.63,1.88-2.75,2.01l5.28-26.22,1.45.86Z" fill="#d1d1cf"/><path d="M59.64,28.32l-12.66,3.63,1.83-8.83,7.43,2.17c.73.21,1.8,1.32,3.4,3.03Z" fill="#eae4d9"/><path d="M41.23,49.62c-.44,2.15-.98,3.05-2.81,3.78l3.47-17.67.67-1.92c.16-.45,1.74.99,1.64,1.45l-2.97,14.35Z" fill="#d1d1cf"/><path d="M53.65,5.22c-.36.12-1.63-1.45-1.24-1.59l2.1-.77c1.39-.51,3.65-.54,5.42.37l-6.28,1.99Z" fill="#d1d1cf"/><path d="M36.39,52.79l-.02,2.43-2.02-.16-.94.25-1.19-.3c0-.25.58-1.77,1.08-1.81l3.11-.41Z" fill="#7c7c7b"/><path d="M49.56,6.61l-1.45-.86,1.88-1.75c.29-.27.83,1.26.56,1.55l-.99,1.06Z" fill="#9c9c9b"/><path d="M7.95,56.1l1.65,8.4.97,7.79.64,6.14,1.12,14.71-3.42.53-2.04-25.91-.65-10c.11-.26.14-.92.4-1.04l1.34-.62Z" fill="#e0bd7c"/><path d="M12.5,53.18c-3.07,6.88.38,9.46.44,11.69l.34,11.37-2.08,2.19-.64-6.14-.97-7.79-1.65-8.4,1.17-3.36c.3-.85,3.27.05,3.38.44Z" fill="#eee4c9"/><path d="M30.29,56.06c.51,1.07.3,3.54-.17,4.62-.94,2.15-3.37,5.09-5.34,5.97-2.7,1.21-7.35.65-9.56-.71l-2.28-1.07c-.06-2.23-3.51-4.81-.44-11.69l2.78-.65c-1.27,2.9-2.3,4.77-2.23,6.63.06,1.47,1.58,3.8,2.55,4.94.56.65,1.91,1.31,3.29,1.64,3.55.85,7.52-1.45,8.65-3.89.49-1.06,1.22-3.63,1.03-4.8-.42-2.6-4.09-6.67-6.42-6.5l-4.32.31c-.05-.65,2.08-2.73,3.07-2.67,2.75.16,6.71,2.34,7.71,4.42l1.67,3.46Z" fill="#676665"/><path d="M22.97,60.88l1.09,3.32,1.43-2.68,2.06.33c-1.12,2.45-5.1,4.74-8.65,3.89-1.39-.33-2.74-1-3.29-1.64l.59-3.32,6.77.1Z" fill="#e7d6b8"/><rect x="12.67" y="39.28" width="3.34" height="2.34" transform="translate(-.67 .24) rotate(-.95)" fill="#747372"/><path d="M25.49,61.51l-1.43,2.68-1.09-3.32c.67.01,2.01.43,2.52.64Z" fill="#9c9c9b"/><path d="M51.52,112.57l-3.74,3.16c-4.44,1.54-9.06,2.47-13.47,2.67-7.54.34-18.71-.41-22.41-4.53l2.58-.16,2.42.89c8.69,3.2,18.81,2.41,28.12.16,1.39-.33,4.09-1.42,5.4-2.09l.52-11.3.49-7.52.81-8.16c.44-4.38.23-8.9.22-12.94l.68-6.3,1.69-.23-.69,15.65-.65,8.7-.66,8.69-.67,8.32-.64,5Z" fill="#6a553f"/><path d="M12.32,93.14l-.06,1.96-1.41.38c-.46.23-.62,1.26-.69,1.83l1.03.97c.22.28.67,1,.94.97l-.27,8.25-1.7.92-.69-5.28-.57-9.48,3.42-.53Z" fill="#6a553f"/><path d="M48.16,120.34l-7.84,1.32c-.38-1.06,1.44-2.3,2.43-2.54l5.88-1.42-.47,2.63Z" fill="#747372"/><path d="M14.49,113.71l-2.58.16c-1.01-1.13-1.53-3.68-1.76-5.44l1.7-.92,2.64,6.2Z" fill="#b8bc65"/><polygon points="21.81 120.17 15.74 120.3 17.02 118.33 21.81 120.17" fill="#6a553f"/><path d="M54.83,66.22l-1.69.23-.41-8.36c-.04-.76.69-2.32.76-3.13.52.06,2.44.7,2.39,1.22l-1.05,10.03Z" fill="#b8bc65"/><polygon points="53.46 52.54 53.5 54.96 49.83 54.55 49.67 52.15 53.46 52.54" fill="#7c7c7b"/><path d="M37.37,64.64l-4.43,1.88c-1.88,2.35-3.61,7.39-3.38,9.84,5,.88,5.92,5.45,12.98,5.64l-3.09,1.45-1.23,7.36-6.69.46,1.4-7.48.04-2.03c0-.42-1.9.48-1.94.9l-.56,5.94c-.05.5-1.49,1.13-1.95,1.32l.59-5.01-.53-2.06c.42.04,1.17-1.59.94-2.2l-2.33-6.02c-.32-.83-2.72-1.21-3.6-1.3l-.87-.08-1.05-2.58c-.12-.25-1.49.11-1.57.38l-.29.91c-1.2.35-3.49,1.39-4.43,2.28l-2.1,1.98-.34-11.37,2.28,1.07c2.2,1.36,6.86,1.92,9.56.71,1.97-.88,4.4-3.82,5.34-5.97l5.89.42,1.36,3.55Z" fill="#e0bd7c"/><path d="M52.74,58.09l.41,8.36-.68,6.3-3.03,2.75-.43-5.66c-.15-1.99-4.44-5.59-8.95-6.55l.9-3.28,8.11-.5,3.66-1.42Z" fill="#e0bd7c"/><path d="M40.96,60.02l-.9,3.28c4.51.96,8.8,4.56,8.95,6.55l.43,5.66-2.4,1.81.29-3.68c.03-.71-2.02-1.78-2.87-2.38l1.71-.84.96-.95c-1.22-1.45-4.86-3.64-6.98-4.03-1.01-.18-2.85,1.18-3.06,1.98-1.48.1-3.27.95-4.49,2.28-1.66,1.81-1.13,5.05.77,6.48,1.16.88,2.77,1.47,3.5,1.56.34.78,2.64,2.59,3.81,2.33l4.6-.9c-.61.9-1.8,2.39-2.74,2.84-7.06-.19-7.98-4.76-12.98-5.64-.23-2.45,1.5-7.5,3.38-9.84l4.43-1.88,1.73-5.79c.24-.36,1.55-.91,1.62-.44l.24,1.59ZM46.87,71.7l.78-1.62-.78,1.62Z" fill="#6a553f"/><path d="M33.4,55.31l.94-.25-.94.25Z" fill="#f1efed"/><path d="M19.81,71.98l2.9,1.29.87.08,1.74,2.93,3.06,4.53.07,1.08-1.32,2.55c-.31.65-1.88,1.72-2.83,2.27-3.91,2.23-6.12-1.42-8.42.91l.34,9.47c-.05.3-.47,1.91-1.03,1.95l-3.07.22.14-4.16.06-1.96-1.12-14.71,2.08-2.19,2.1-1.98c.95-.89,3.24-1.93,4.43-2.28ZM23.6,76.99c-.16-.62-2.94-.58-2.85.04.18,1.23,3.14,1.13,2.85-.04ZM15.01,79.89l-1.07,2.05c-.98,1.9-.2,4.64,2.13,5.24l-1.07-7.29Z" fill="#f5eee2"/><path d="M46.8,107.91c-.87,1.38-2.79,2.64-4.19,3.37-.13.11-.48,1.2-.16,1.2l1.47.02,1.11,2.26c-9.31,2.25-19.43,3.04-28.12-.16l.68-3.95,6.22-.63c6.73,2.64,8.32-2.31,10.5-1.51,1.98.73,7.04,2.07,8.41.47l3.66-4.25.42,3.19Z" fill="#b8bc65"/><path d="M17.59,110.65l-.68,3.95-2.42-.89-2.64-6.2.27-8.25,3.07-.22c.56-.04.98-1.66,1.03-1.95l1.4.84-.57,5.31c-.24,2.26.16,5.4.54,7.41Z" fill="#e7d6b8"/><path d="M51.44,93.86l-.49,7.52-.52,11.3c-1.31.67-4.01,1.76-5.4,2.09l-1.11-2.26,3.92-2.65c.33-.28-1.18-2.31-1.04-1.94l-.42-3.19.98-1.64c.36-.29,1.34-1.31,1.33-1.83l-.05-5.85c0-.77,2.22-1.65,2.81-1.54Z" fill="#939e39"/><path d="M12.26,95.1l-.14,4.16c-.27.02-.71-.7-.94-.97l-1.03-.97c.08-.57.23-1.6.69-1.83l1.41-.38Z" fill="#e0bd7c"/><path d="M11.19,98.28l-1.03-.97,1.03.97Z" fill="#b8bc65"/><path d="M52.47,72.76c.02,4.04.22,8.56-.22,12.94l-.81,8.16c-.59-.11-2.81.77-2.81,1.54l.05,5.85c0,.52-.97,1.54-1.33,1.83-.09-2.89-.69-5.48-1.65-8.06l-1.6,2.59-3.7.63c-.86.35-2.96,1.21-1.36.56l-4.53-6.44c-.74.45,1.07-.65,1.36-.82l8.13,3.14c-1.23-2-4.08-3.96-5.77-3.84l1.23-7.36,3.09-1.45c.94-.44,2.13-1.94,2.74-2.84.37-.55,1.23-1.45,1.76-1.85l2.4-1.81,3.03-2.75ZM47.68,86.39l-5.13-.59c-.66-.08-.48,2.49.18,2.44l2.39-.15c.6-.4,2.61-1.74,2.56-1.71Z" fill="#b8bc65"/><path d="M28.52,89.94c-2.01.84-6.08,2.56-7.52,4.19l-3.38,3.8-1.4-.84-.34-9.47c2.08.59,6.39,1.78,8.05.57l5.17-3.27-.59,5.01Z" fill="#b8bc65"/><path d="M32.38,105.83h-1.19c-.12.05-1.83-.1-1.68-.53l.71-2.08c.7.09,1.44.36,1.57.78l.58,1.84Z" fill="#6a553f"/><path d="M38.22,90.83c1.69-.12,4.54,1.84,5.77,3.84l-8.13-3.14c-.29.17-2.09,1.27-1.36.82l4.53,6.44c-1.6.66.5-.2,1.36-.56l3.7-.63,1.6-2.59c.96,2.58,1.56,5.18,1.65,8.06l-.98,1.64-3.66,4.25c-1.38,1.6-6.43.26-8.41-.47-2.18-.8-3.77,4.15-10.5,1.51l-6.22.63c-.38-2.01-.79-5.15-.54-7.41l.57-5.31,3.38-3.8c1.45-1.63,5.52-3.35,7.52-4.19.46-.19,1.91-.82,1.95-1.32l.56-5.94c.04-.42,1.95-1.32,1.94-.9l-.04,2.03-1.4,7.48,6.69-.46ZM31.44,107.24l.94-1.41,3.09-2.91c1.2-1.24,1.32-5.24.13-6.93s-3.58-2.85-5.03-2.82c-.22,0-1,.21-1.07.42l-.42-2.45c-2.68,1.32-7.23,3.81-8.87,6.22-.82,1.21-.95,5.29-.38,6.6,1.07,2.45,4.93,5.11,7.61,5.1,1.57,0,3.49-1.08,4-1.83ZM38.22,104.69l4.98-3.54-5.78.82c-.44.06-1.39,2.08-1,2.19l1.81.52Z" fill="#6a553f"/><path d="M29.51,80.66l-1.13.15-3.06-4.53-1.74-2.93c.88.08,3.28.47,3.6,1.3l2.33,6.02Z" fill="#615d59"/><path d="M22.71,73.27l-2.9-1.29.29-.91c.08-.27,1.45-.63,1.57-.38l1.05,2.58Z" fill="#615d59"/><path d="M28.58,82.86l.53,2.06-5.17,3.27c-1.67,1.21-5.98.02-8.05-.57,2.3-2.33,4.51,1.32,8.42-.91.95-.54,2.52-1.62,2.83-2.27l1.32-2.55.12.97Z" fill="#615d59"/><path d="M28.58,82.86l-.12-.97-.07-1.08,1.13-.15c.23.61-.52,2.24-.94,2.2Z" fill="#b8bc65"/><path d="M47.04,77.32c-.53.4-1.39,1.31-1.76,1.85l-4.6.9c-1.17.26-3.47-1.55-3.81-2.33l.24-7.34,1.95-.48c.52-.17.1-2.31-.45-2.36l-1.51-.14c.21-.8,2.05-2.16,3.06-1.98,2.12.39,5.76,2.58,6.98,4.03l.51.61-.78,1.62-.69-1.28-1.71.84c.84.6,2.89,1.67,2.87,2.38l-.29,3.68Z" fill="#c3c4ac"/><path d="M15.01,79.89l1.07,7.29c-2.34-.6-3.12-3.34-2.13-5.24l1.07-2.05Z" fill="#9c9c9b"/><path d="M23.6,76.99c.3,1.17-2.66,1.28-2.85.04-.09-.62,2.69-.67,2.85-.04Z" fill="#595858"/><path d="M43.92,112.5l-1.47-.02c-.32,0,.03-1.1.16-1.2,1.41-.72,3.32-1.99,4.19-3.37-.14-.37,1.37,1.66,1.04,1.94l-3.92,2.65Z" fill="#6a553f"/><path d="M47.68,86.39s-1.96,1.31-2.56,1.71l-2.39.15c-.66.04-.84-2.52-.18-2.44l5.13.59Z" fill="#6a553f"/><path d="M29.51,93.59l-.74,2.07c-.3.84-1.91,1.9-2.73,2.03l-1.92.31c-.47.08.3,1.91.79,1.81l3.74-.74c.6.71,1.98,2.99,1.57,4.16l-.71,2.08c-.15.44,1.56.59,1.68.54l.25,1.4c-.51.74-2.43,1.82-4,1.83-2.68,0-6.54-2.65-7.61-5.1-.57-1.32-.44-5.39.38-6.6,1.64-2.42,6.2-4.9,8.87-6.22l.42,2.45Z" fill="#f5eee2"/><polygon points="31.44 107.24 31.19 105.84 32.38 105.83 31.44 107.24" fill="#e7d6b8"/><path d="M32.38,105.83l-.58-1.84c-.13-.41-.88-.68-1.57-.78.4-1.18-.97-3.46-1.57-4.16l1.93-5.89c1.45-.03,3.8,1.08,5.03,2.82s1.07,5.69-.13,6.93l-3.09,2.91Z" fill="#e7d6b8"/><path d="M30.58,93.17l-1.93,5.89-3.74.74c-.49.1-1.27-1.73-.79-1.81l1.92-.31c.83-.13,2.43-1.19,2.73-2.03l.74-2.07c.07-.21.85-.41,1.07-.42Z" fill="#747372"/><path d="M37.09,67.43v2.98s-.22,7.34-.22,7.34c-.73-.09-2.34-.68-3.5-1.56-1.9-1.43-2.43-4.68-.77-6.48,1.22-1.32,3.01-2.18,4.49-2.28Z" fill="#eae4d9"/><path d="M37.11,70.41v-2.98s1.5.14,1.5.14c.55.05.97,2.18.45,2.36l-1.95.48Z" fill="#676665"/><path d="M38.22,104.69l-1.81-.52c-.39-.11.56-2.13,1-2.19l5.78-.82-4.98,3.54Z" fill="#d08537"/></g></svg>