<?xml version="1.0" encoding="UTF-8"?><svg id="Layer_2" xmlns="http://www.w3.org/2000/svg" viewBox="0 0 77.99 157.16"><g id="Layer_1-2"><path d="M70.84,117.27h-2.13s5.35-80.83,5.35-80.83l-9.74,2.01-.51-1.32,2.24-.89,6.33-1.7-5.79-3.47c4.81-.71,9.28,1.18,9.4,4.84l-5.14,81.36Z" fill="#585755"/><path d="M62.06,32.97l-1.93-.04c.27-1.38,5.28-23,5.16-23.74.11-.72-2.64-.55-2.84.23l-4.5,17.57-1.46-.93,4.78-19.84c.28-1.12,2.04-3.62,3.08-3.87L73.82.03c1.24-.3,3.95,1.45,4.15,2.66s-1.06,3.78-2.26,4.08l-7.93,1.99-5.73,24.21ZM75.23,1.31l-7.85,2.04.82,3.17,7.85-2.04-.82-3.17ZM66.06,5.92c0-1.4-2.13-1.4-2.14,0,0,1.4,2.13,1.4,2.14,0Z" fill="#585755"/><path d="M17.37,152.43l24.78,1.61c6.56.43,12.4-1.16,18.16-2.5,3.23-.43,6.52-1.95,8.44-4.64l2,.77c2.09.8-3.96,6.03-12.01,7.27l-13.86,2.15c-10.64.52-27.62-1.92-27.74-3.03l.23-1.63Z" fill="#eeedec"/><path d="M57.96,26.99c-1.41,5.88-3.35,14.25-4.68,20.13,0,0-1.39-1.19-1.39-1.19l1.57-6.51-9.5.46c-6.86.43-15.24-.13-22.18-.43,0,0,.02-1.98.02-1.98l6.77.43,8.46.79,16.88-.72,1.28-7.78-19-.94-27.64,2.15-.19-1.58,23.99-2.39h7.66s13.64.83,13.64.83c.63.04,2.17-.25,2.36-.78l.5-1.42,1.46.93Z" fill="#535251"/><path d="M40.97,151.94l17.94-1.82,1.39,1.42c-5.76,1.34-11.59,2.93-18.16,2.5l-24.78-1.61-2.62-.7,1.24-1.62c8.03,1.09,16.91,2.65,24.98,1.83Z" fill="#5a5a5a"/><path d="M15.99,150.11l-1.24,1.62-4.65-1.61c-2.54-.88-3.75-4.17-3.89-6.75-.54-10.89-1.65-23.9-2.34-34.79,0,0-.52-14.45-.52-14.45l-.99-5.66,2.02.16.78,8.58.6,15.17c.33,4.39,1.04,13.83,1.38,18.29.42,5.53,0,10.52,1.9,15.98.71,2.03,4.99,3.18,6.95,3.45Z" fill="#535251"/><path d="M2.52,85.57l-.21-7.34-.82-6c.59-.03,1.07-1.02,1.07-1.51s-.49-1.48-.85-1.5c-.12-3.98-.47-13.56-.8-17.42,0,0-.17-2.68-.17-2.68.01-.01,1.47-.33,1.5.05.6,7.19,1.36,19.49,1.64,26.76,0,0,.78,9.46.78,9.46l-2.13.19Z" fill="#535251"/><path d="M70.84,117.27c-.82,6.28-1.62,19.57-1.89,25.96,0,0-1.95.01-1.95.01l1.72-25.98h2.13Z" fill="#4b4b4b"/><path d="M3.36,33.97l3.93,1.76.22,1.75-5.55-1.16.5,10.72-1.85.08L0,36.1c-.06-1.16,1.46-3.14,2.28-3.72.21.65.73,1.43,1.08,1.59Z" fill="#535251"/><path d="M68.95,143.23l-.2,3.67c-1.93,2.69-5.21,4.21-8.44,4.64l-1.39-1.42,4.56-1.43c2.48-.78,3.35-2.84,3.52-5.45h1.95Z" fill="#535251"/><path d="M62.06,32.97l-.99,4.19,2.74-.04.51,1.32-4.39.81-1.85,8.83-1.78.29,1.11-4.13c.34-1.28.29-4.35.35-5.69.73-1.57,2.02-4.02,2.38-5.62l1.93.04Z" fill="#535251"/><path d="M8.35,29.83l.19,1.58-5.19,2.57c-.34-.15-.87-.93-1.08-1.59,1.39-.99,4.14-2.37,6.07-2.56Z" fill="#6d6d6d"/><path d="M1.49,72.23l-.76-1.51c-.2-.39.69-1.22.99-1.5.36.01.85,1.01.85,1.5s-.49,1.48-1.07,1.51Z" fill="#605e5d"/><path d="M47.51,65.3l1.55.23-1.32,5.79-3.04,12.35,3.58.08,2.13-9.88c.09-.4.42-1.6.8-1.57l1.51.11-3.1,12.65c6.88,1.41,11.67,6.23,12.65,12.94l-5.1,9.31c-4.5,2.81-9.94,1.32-13.66-.78l-4.98,5.6,2.88,7.03c.91-1.43,3.04-3.5,4.27-3.5,2.38,0,8.26,2.78,10.8,5.32,1.4,3.78.79,9.6-1.09,13.61l-10.55,2.16c-4.93,1.01-7.57-5.89-8.06-9.59-4.05,6.69-8.98,3.96-17.21.76l-2.15-9.77c-.34-1.53.6-4.51,1.45-5.97l6.77-4.74c2.59-1.84,7.52-.35,10.22,1.45l2.34-6.97c1.82-6.93,5.56-21.85,7.03-28.75,0,0,.61-1.63.61-1.63.13-.34-1.38-.38-1.93-.38l-19.29-.05-7.08-1.33-5.88-.46c-.23.06-.41.12-.52.11l.11-1.54c.02-.38-1.33-.97-1.44-.6l-.69,1.91c.01-.06-.16.63-.28,1.08.21,4.49.74,13.84,1.12,18.25.57,14.52,2.01,32.41,3.17,46.93.15,1.84,4.14,3.19,5.78,3.45l2.71.42c.63.25,2.12.82,2.87.9l7.16.76c8.6.92,17.5-.27,25.83-2.07,4.44-.96,5.43-4.26,5.62-8.14l.8-16.38c.36-5.01,1.23-15.34,1.76-20.27.22-6.33,1.11-19.12,1.72-25.44,0,0-8.05,1.81-8.05,1.81l-.21-1.36,6.06-1.35-5.71-1.6-1.12-.79,7.99.59c1.07.08,2.58,2.22,2.57,3.28-.43,0-1.65,1.04-1.22,1.38l1.19.75-.07,3.81c-.03,1.86-.48,4.92-.88,6.46-.25.41-1.18,1.14-1.06,1.63l1,2.3-.03,2.83c-.23-.09-.84.84-.85,1.21l-.21,12.11c-.55,4.92-1.32,15.36-1.61,20.36,0,0-.89,8.72-.89,8.72-.12,1.15.13,4.46-.68,5.29l-4.35,4.37-10.55,1.59c-4.57.67-10.53,1.6-15.19.95,0,0-8.9-1.03-8.9-1.03l-8.95-2.23c-3.14-.78-4.47-3.97-4.68-7.03l-.73-10.67-.59-8.68c-.45-8.51-1.27-20.28-1.95-28.74,0,0-.74-17.63-.74-17.63,2.3-1.09,5.9-1.98,8.01-1.81l-1.09,2.96,7.27.8c3.01.21,9.08.44,12.08.39.06.07,1.73.97,2.18.95l8.48-.35,2.63-.72c.65-.18-.16-2.95-.8-2.94l-12.39.1c-2.65.03-8,.02-10.65.04-.6,0-2.24-.64-2.62-.82.08-.42,2.26-1.13,3-1.13l15.87.02,8.58.8ZM49.15,106.32c1.79.28,6.15.73,6.93-.74l4.02-7.61c.46-.86-.44-6.89-5.3-8.92-1.59-.67-4.24-1.36-5.27-1.19-.05,3.96-.94,6.03-5.49,6.49l1.35-2.64-1.72-.46c-4.56,7.9-4.28,13.05,5.49,15.07ZM41.24,102.92c-1.91,1.37-3.78,3.96-3.82,5.38,0,.4.82,1.65,1.18,1.54,2.3-.69,3.43-3.79,2.63-6.91ZM25.25,128.04c1.68.6,6.25,2.63,7.26,1.09l4.26-6.49c2.15-3.27,3.23-6.69-.37-9.68l-4.32-3.59c-.1-.08-1.07-.15-1.68-.22-.14-.38-3.43-.64-4.32.03l-6.8,5.14,1.6,11.14c.16,1.13,3.37,2.22,4.36,2.57ZM43.66,134.69c2.8.23,7.68-.45,10-1.8,2.74-2.38,2.73-8.18,1.05-11.2-.76-1.36-4-3.1-5.49-3.46l-2.9-.7c-.8-.19-2.42,1.43-2.86,2.14l-1.31,2.11c-.33.54,1.33,1.68,1.54,1.82l-4.45,3.54c-1.11,2.58,1.34,7.29,4.41,7.55Z" fill="#4e3b30"/><path d="M59.24,140.49l3.94,1.84.3,6.36-4.56,1.43-17.94,1.82-.24-3.95,15.57-1.4c.5-.04,1.71-.74,2.05-.97s-.13-1.56-.52-1.43l-2,.65-6.69.8-.47-3.56,10.55-1.59Z" fill="#e4ded7"/><path d="M40.73,147.99l-21.38-1.42c-1.64-.97-1.32-1.32.18-1.25l20.55.85,9.07-.54,6.69-.8,2-.65c.39-.13.86,1.2.52,1.43s-1.55.92-2.05.97l-15.57,1.4Z" fill="#605e5d"/><polygon points="53.28 47.12 49.06 65.53 47.51 65.3 51.89 45.93 53.28 47.12" fill="#605e5d"/><path d="M20.05,65.61c.38.18,2.02.82,2.62.82l5.24-.02-.25,2.89-6.53-.34-7.27-.8,1.09-2.96,5.09.41Z" fill="#b8772f"/><path d="M21.79,37.47l-.02,1.98c-3.13-.19-11.08-1.44-14.26-1.96,0,0-.22-1.75-.22-1.75,1.04.47,3.21.76,4.77.9,2.38.21,7.38.64,9.73.84Z" fill="#585755"/><path d="M68.71,117.26l-1.72,25.98c-.17,2.61-1.04,4.67-3.52,5.45l-.3-6.36-3.94-1.84,4.35-4.37c.81-.83.56-4.13.68-5.29.6-4.87,1.39-15.33,1.67-20.29,0,0,.84-8.79.84-8.79l.21-12.11c.27-.2.84-.84.85-1.21l.03-2.83.06-3.93c.78-2.79.97-7.24.95-10.28,0,0,.03-2.13.03-2.13.02-1.06-1.5-3.2-2.57-3.28l-7.99-.59-3.15-1.01.38-4.39,2.5-11.92,1.85-8.83,4.39-.81,9.74-2.01-5.35,80.83Z" fill="#eeedec"/><path d="M60.13,32.93c-.36,1.6-1.65,4.05-2.38,5.62-.06,1.34,0,4.41-.35,5.69-.86,2.55-4.42,19.15-5.11,22.15-.19.88-1.4,2.64-.9,3.36l2.29,2.88-.97-.22-1.51-.11c-.37-.03-.71,1.17-.8,1.57l-2.13,9.88-3.58-.08c3.83-15.16,7.96-34.13,11.52-49.35,1.08-4.91,4.94-19.83,6.24-24.9.2-.78,2.95-.95,2.84-.23.15.51-4.93,22.55-5.16,23.74Z" fill="#e4e4e3"/><rect x="67.66" y="2.27" width="8.11" height="3.28" transform="translate(1.32 18.16) rotate(-14.57)" fill="#ded9d2"/><path d="M66.06,5.92c0,1.4-2.13,1.4-2.14,0,0-1.4,2.13-1.4,2.14,0Z" fill="#c2bfb9"/><path d="M21.79,37.47c-2.36-.2-7.35-.63-9.73-.84-1.56-.14-3.72-.43-4.77-.9l-3.93-1.76,5.19-2.57,27.64-2.15,19,.94-1.28,7.78-16.88.72c-3.76-.39-11.49-1.04-15.23-1.22Z" fill="#eeedec"/><path d="M21.61,139.33l-1.47-7.94c-.33-1.26-.61-2.66-.59-3.46,8.23,3.2,13.16,5.93,17.21-.76.5,3.7,3.13,10.6,8.06,9.59l10.55-2.16c1.88-4.01,2.49-9.84,1.09-13.61-2.54-2.54-8.42-5.32-10.8-5.32-1.23,0-3.36,2.06-4.27,3.5l-2.88-7.03,4.98-5.6c3.72,2.1,9.16,3.59,13.66.78l5.1-9.31c-.98-6.71-5.76-11.53-12.65-12.94l3.1-12.65.97.22,5.64-2.13,8.05-1.81c-.61,6.36-1.5,19.09-1.72,25.44-.53,4.9-1.4,15.3-1.76,20.27,0,0-.8,16.38-.8,16.38-.19,3.88-1.17,7.18-5.62,8.14-8.34,1.8-17.24,2.99-25.83,2.07l-7.16-.76c-.75-.08-2.24-.65-2.87-.9ZM25.46,133.92c.05-.02-1.67.51-2.02.62-.07,2.77,3.17,2.78,2.02-.62Z" fill="#6c482b"/><path d="M45.22,73.17c-2.36,10.16-5.84,25.89-9.37,35.72-2.7-1.79-7.63-3.28-10.22-1.45l-6.77,4.74v-11.15s7.81.85,7.81.85c4.02.47,7.11-1.95,9.26-4.95,2.47-3.44,2.79-6.27.58-9.75l-4.38-6.91c-3.28-5.26-9.45-.47-13.39,1.75,0,0-1.06-9.57-1.06-9.57,4.1.15,13.34.65,17.52.86,0,0,10.03-.14,10.03-.14Z" fill="#6c482b"/><path d="M45.22,73.17l-10.03.14c-4.21-.2-13.38-.71-17.52-.86,0,0,1.06,9.57,1.06,9.57-1.57.92-4.01,4.31-3.8,6.22l1.04,9.55c-.08.19-.43,1.56-.41,2.05l.48,15.03-2.64-1.09-.22-7.07-1.12-35.43-.4-1.95,5.88.46,7.08,1.33,19.29.05c.55,0,2.05.04,1.93.38l-.61,1.63Z" fill="#d5ad7c"/><path d="M11.14,69.44c.11.01.29-.05.52-.11l.4,1.95,1.12,35.43c.13,3.84.37,11.75.48,15.62.12,4.14,1.35,8.75,3.17,12.15l2.08,4.43c-1.64-.25-5.63-1.61-5.78-3.45-.46-5.74-1.54-19.34-1.91-24.91-.73-8.55-1.1-21.16-1.83-29.71,0,0-.56-10.56-.56-10.56.12-.45.3-1.14.28-1.08l2.02.23Z" fill="#6c482b"/><path d="M18.87,101.03v11.15c-.86,1.46-1.8,4.44-1.46,5.97,1.41,5.96,3.09,15.09,4.2,21.17,0,0-2.71-.42-2.71-.42l-2.08-4.43c-1.82-3.41-3.04-8.02-3.17-12.15l-.25-8.54,2.64,1.09-.48-15.03c-.02-.49.33-1.86.41-2.05,1.01.48,2.9,2.14,2.89,3.25Z" fill="#b8772f"/><path d="M49.15,106.32c.66-2.6,2.06-8.06,2.8-10.6,0,0,2.84-6.68,2.84-6.68,4.86,2.03,5.76,8.06,5.3,8.92l-4.02,7.61c-.78,1.47-5.14,1.02-6.93.74ZM54.91,103.69c1.13-.82,1.65-3.24.95-3.53-1.1.79-1.63,3.22-.95,3.53Z" fill="#ded9d2"/><path d="M33.21,69.35l.11-2.96,12.39-.1c.63,0,1.44,2.76.8,2.94l-2.63.72-8.48.35c-.45.02-2.13-.88-2.18-.95Z" fill="#6c482b"/><path d="M41.24,102.92c.79,3.13-.34,6.22-2.63,6.91-.36.11-1.19-1.14-1.18-1.54.04-1.41,1.91-4,3.82-5.38Z" fill="#c2bfb9"/><polygon points="33.32 66.39 33.21 69.35 27.67 69.31 27.92 66.41 33.32 66.39" fill="#d5ad7c"/><path d="M11.14,69.44l-2.02-.23.69-1.91c.12-.36,1.46.23,1.44.6l-.11,1.54Z" fill="#d5ad7c"/><polygon points="58.08 48.08 55.57 60 55.19 64.39 55.42 65.44 53.51 66.57 52.3 66.39 56.3 48.37 58.08 48.08" fill="#585755"/><path d="M67.86,85.6l-1-2.3c-.12-.48.8-1.22,1.06-1.63l-.06,3.93Z" fill="#4b4b4b"/><polygon points="58.35 65.4 55.42 65.44 55.19 64.39 58.35 65.4" fill="#4b4b4b"/><path d="M68.87,71.4l-1.19-.75c-.42-.34.79-1.39,1.22-1.38l-.03,2.13Z" fill="#4b4b4b"/><path d="M66.98,89.64c0-.37.62-1.3.85-1.21,0,.37-.58,1.01-.85,1.21Z" fill="#4b4b4b"/><path d="M59.12,69.13l.21,1.36-5.64,2.13-2.29-2.88c-.5-.72.7-2.48.9-3.36l1.21.18.06,2.75,5.54-.19Z" fill="#4b4b4b"/><path d="M25.46,133.92c1.15,3.4-2.08,3.39-2.02.62.35-.11,2.07-.63,2.02-.62Z" fill="#b8772f"/><path d="M18.87,101.03c0-1.1-1.89-2.77-2.89-3.25l-1.04-9.55c-.21-1.91,2.23-5.3,3.8-6.22,3.94-2.21,10.11-7.01,13.39-1.75,0,0,4.38,6.91,4.38,6.91,2.21,3.48,1.89,6.31-.58,9.75-2.15,3-5.24,5.42-9.26,4.95l-7.79-.85ZM17.95,84.73c-.8.6-1.82,1.61-1.79,2.51l.07,1.99.06,1.53c.01.29.27.47.74.57l1.96,7.67,6.52.94,4.45.07,1.85-5.21.11,3.82c1.42-1.66,4.89-4.98,4.41-7.24-2.57-5.37-6.25-15.55-13.89-10.02,0,0-4.51,3.37-4.51,3.37Z" fill="#4e3b30"/><path d="M54.91,103.69c-.68-.31-.16-2.74.95-3.53.7.29.18,2.71-.95,3.53Z" fill="#6d6d6d"/><polygon points="58.35 65.4 59.47 66.19 65.18 67.79 59.12 69.13 53.57 69.32 53.51 66.57 55.42 65.44 58.35 65.4" fill="#6c482b"/><path d="M30.41,109.15l-3.39,5.49-7.01.24c3.9,3.38,7.51,1.15,10.39-.56l.89,7.83c.07.61.14,2.65-.43,2.76l-2.76.5c-.63.11-2.17.43-2.34,1.01l-.51,1.63c-.99-.35-4.2-1.44-4.36-2.57l-1.6-11.14,6.8-5.14c.89-.67,4.18-.41,4.32-.03Z" fill="#eeedec"/><path d="M25.25,128.04l.51-1.63c.18-.58,1.72-.9,2.34-1.01l2.76-.5c.57-.1.5-2.15.43-2.76l-.89-7.83,1.68-4.95c5.22,4.36,9.27,6.3,4.69,13.27,0,0-4.26,6.49-4.26,6.49-1.01,1.54-5.57-.49-7.26-1.09Z" fill="#ded9d2"/><path d="M49.22,118.23l1.01,4.73c-.31,5.92-5.26,7.59-6.57,11.72-3.07-.25-5.52-4.97-4.41-7.55l4.45-3.54c-.22-.13-1.87-1.28-1.54-1.82l1.31-2.11c.44-.71,2.05-2.33,2.86-2.14l2.9.7Z" fill="#eeedec"/><path d="M43.66,134.69c1.32-4.13,6.26-5.8,6.57-11.72l-1.01-4.73c1.49.36,4.73,2.11,5.49,3.46,1.69,3.02,1.7,8.82-1.05,11.2-2.32,1.34-7.2,2.03-10,1.8Z" fill="#ded9d2"/><path d="M30.41,114.32c-2.88,1.71-6.49,3.94-10.39.56l7.01-.24,3.39-5.49c.61.07,1.58.14,1.68.22l-1.68,4.95Z" fill="#6d6d6d"/><path d="M33.61,85.65l-.94.21-3.13-3.45.4,5.04-2.07,3.32-4.77,6.92,2.43,2.23-6.52-.94-1.96-7.67-.8-2.1-.07-1.99c1.34-.03,5.09.55,6.46.76.97-.65,1.04-2.58,0-1.94l-4.67-1.33,4.51-3.37c4.82-3.75,8.99-.15,11.15,4.29Z" fill="#eeedec"/><path d="M25.52,99.93l-2.43-2.23,4.77-6.92,2.07-3.32,1.64-.32c.49-.09.82-.78,1.09-1.27l.94-.21,2.74,5.73c.57,1.18-1.7,4.24-2.59,5.22l-1.83,2.03-.11-3.82-1.85,5.21-4.45-.07Z" fill="#e4ded7"/><path d="M16.17,87.24c-.03-.9.99-1.91,1.79-2.51l4.67,1.33c1.05-.64.97,1.3,0,1.94-1.37-.21-5.11-.79-6.46-.76Z" fill="#656565"/><path d="M17.04,91.32c-.47-.1-.73-.28-.74-.57l-.06-1.53.8,2.1Z" fill="#656565"/><path d="M32.67,85.86c-.28.49-.61,1.18-1.09,1.27l-1.64.32-.4-5.04,3.13,3.45Z" fill="#6d6d6d"/></g></svg>