<?xml version="1.0" encoding="UTF-8"?><svg id="Layer_2" xmlns="http://www.w3.org/2000/svg" viewBox="0 0 52.73 99.65"><g id="Layer_1-2"><path d="M3.02,94.08l1.27-.58,3.59,2.03c6.23,1.9,15.31,3.52,22.26,1.9l10.25-2.4c1.18-.28,2.45-3.62,2.49-4.82l.44-11.49.76-18.37.57-13.37.91-21.21-8.35,2.18c-.37.1-1.71-.43-1.87-.09l-1.04,2.3-3.31,13.96-1.68-.23-.61-3.42c.33.1,1.41-1.61,1.56-2.13l2.81-9.68-14.74.13c-.93,0-3.3-.53-3.74-.69l.29-1.31,15.1.17,3.53-.52,1.98-7.63-26.47.16c-.12-.05,1.7-1.82,2.33-1.84l18.37-.45,6.51.31,2.92-11.77c.31-1.25,2.44-3.75,3.65-3.95L50.25,0c.95-.16,2.8,2.2,2.43,3.12-.31.76-1.78,2.09-2.61,2.28l-5.6,1.32-2.67,10.34c-.68,2.62,5.89,2.42,5.7,6.8l-2.85,67.45c-.48,11.33-38.6,9.92-41.63,2.75ZM50.76,3.44c-2.7-3.11-4.82-1.21-6.37.27l6.37-.27ZM40.32,10.18c-.38.57-1.26,2.23-1.48,3.08l-2.98,11.48c-.28,1.09,1.92,1.01,1.86,0l2.56-9.72,1.15-4.37.63-2.38c.11-.4.08-1.33.09-1.75s-1.52.62-1.56,1.05l-.27,2.59ZM46.15,22.89c-1.8-1.2-4.02-2.32-4.76-2-1.26.56-1.94,3.86-1.46,5.24l6.21-3.25Z" fill="#676665"/><path d="M14.9,26.77l-.29,1.31c-4.27-.26-7.92-.96-12.99-2.65l.56,14.81.65,11.57.45,19.17.09,4.75c.01.61.24,2.03.65,2.27l.27,15.5-1.27.58c-.35-.82-.67-2.63-.71-3.8l-.82-23.16L.1,36.27,0,22.35c-.01-1.66,3.94-3.74,5.53-3.71.16.08.62,1.51.28,1.68l-1.68.89-2.02,1.2c-.83.49,6.04,4.3,12.79,4.37Z" fill="#595858"/><path d="M32.45,23.57l-23.23.57c5.28-2.56,10.45-2.37,16.01-2.48,2.46-.05,5.15.25,7.21,1.91Z" fill="#7c7c7b"/><circle cx="2.47" cy="14.02" r="2.13" fill="#595858"/><path d="M14.61,28.08c.44.16,2.8.7,3.74.69l14.74-.13-2.81,9.68c-.15.53-1.23,2.23-1.56,2.13l-4.92-1.63c-.91-.3-2.64-1.62-3.5-1.5-1.38.19-3.86.87-4.68,2.04l-1.95-.03-2.29-.03c-.53,0-.64,1.38-.65,1.91l-.05,4.68-2.82.29c.05-.54-.61-1.57-.76-2.09l-.13-1.85,2.12-1.82-3.32-.11c-.73-.02-1.44,1.12-1.7,1.8v2.07s.07,10.26.07,10.26l.84,4.32.13,19.79.62,3.99.36,5.77c.11,1.8,3.93,3.56,5.55,3.82l-2.55,2.05,4.52,1.83c-.16.19,1.02-1.18,1.18-1.37l-2.05-1.63,4.73.38c4.42.52,8.59.69,12.58-.07l-.02,2.73.1,1.36c-6.96,1.63-16.03,0-22.26-1.9l-3.59-2.03-.27-15.5c-.01-.66-.45-2.38-.65-2.27l-.09-4.75-.45-19.17-.65-11.57-.56-14.81c5.07,1.69,8.72,2.39,12.99,2.65ZM15.47,33.49c-.31-1.11-3.82-.97-3.74,0,.11,1.29,4.08,1.19,3.74,0Z" fill="#f5eee2"/><path d="M30.16,97.42l-.1-1.36,8.11-2.08-3.44-1.53c.76-.14,2.52-.47,3.05-1.04l2.97-3.21.62-12.44.97-21.07c.37-.29,1.41-1.14,1.23-1.6l-.94-2.38-.02-5.67v-.91s-.88-.7-.88-.7l.88-.96c.32-.41-1.15-1.49-1.67-1.63l-5.49-1.71,1.94-6.72c.27-.94.15-3.58-.67-3.76l.52-.7,8.35-2.18-.91,21.21-.57,13.37-.76,18.37-.44,11.49c-.05,1.2-1.31,4.54-2.49,4.82l-10.25,2.4Z" fill="#eae4d9"/><path d="M28.72,40.46l.61,3.42,1.68.23.86.12,1.72.6,1.16-3.55,5.9,1.73-.25.76-4.76,1.5c-.98.24-2.98,1.13-3.8,1.57l-.86.07-4.89.39-4.71-.14c-.46-.01-2.23.41-2.09.86l-2.05-1.9c-.61-.57-2.38-1.4-3.19-1.19l-2.32.59c-.73.19-.65,2.22-.61,3.02l.3,5.31.25,4.46-3.32.04.3-5.64-1.26-1.85.45-4.66,2.82-.29.05-4.68,2.94-1.88,1.95.03c.31.1,2.01.26,2.99.3.33.01,1.52-.74,1.6-1.05l.08-1.28c.86-.12,2.59,1.2,3.5,1.5l4.92,1.63Z" fill="#eee4c9"/><path d="M41.43,10.67l-1.15,4.37-2.56,9.72c.06,1.01-2.14,1.08-1.86,0l2.98-11.48c.22-.85,1.09-2.51,1.48-3.08l1.11.49Z" fill="#d1d1cf"/><path d="M37.22,27.95l-.52.7-2.09,6.61-2.74,8.97-.86-.12,3.31-13.96,1.04-2.3c.16-.34,1.5.19,1.87.09Z" fill="#d1d1cf"/><path d="M46.15,22.89l-6.21,3.25c-.48-1.38.2-4.68,1.46-5.24.73-.33,2.95.79,4.76,2Z" fill="#eae4d9"/><path d="M50.76,3.44l-6.37.27c1.55-1.48,3.67-3.38,6.37-.27Z" fill="#d1d1cf"/><path d="M41.43,10.67l-1.11-.49.27-2.59c.04-.43,1.56-1.47,1.56-1.05s.02,1.35-.09,1.75l-.63,2.38Z" fill="#eae4d9"/><path d="M4.02,78c-.41-.24-.63-1.66-.65-2.27.19-.11.63,1.61.65,2.27Z" fill="#676665"/><path d="M7.11,44.1c.15.51.81,1.55.76,2.09l-.45,4.66,1.26,1.85-.3,5.64-.35,7.41-.22,6.21,1.06.83.38,4.67c.19,2.27.46,3.88.14,6.12l.94,6.32-4.22-1.58-.36-5.77-.62-3.99-.13-19.79-.84-4.32-.06-10.26,3-.09Z" fill="#939e39"/><path d="M10.33,89.91l2.26.35c5.48,3.2,17.9,2.34,24.57-.56l3.59-1.5-2.97,3.21c-.53.57-2.29.9-3.05,1.04l-4.65.88c-3.99.75-8.16.59-12.58.07l-4.73-.38-1.1-.87c-1.62-.26-5.44-2.02-5.55-3.82l4.22,1.58Z" fill="#6a553f"/><polygon points="30.06 96.07 30.07 93.34 34.72 92.46 38.16 93.99 30.06 96.07" fill="#747372"/><path d="M12.77,93.02l2.05,1.63c-.16.19-1.34,1.56-1.18,1.37l-4.52-1.83,2.55-2.05,1.1.87Z" fill="#7c7c7b"/><path d="M20.3,37.33l-.08,1.28c-.08.31-1.28,1.06-1.6,1.05-.98-.04-2.68-.2-2.99-.3.82-1.17,3.3-1.85,4.68-2.04Z" fill="#7c7c7b"/><path d="M6.98,42.25l-2.89-.14c.25-.68.97-1.82,1.7-1.8l3.32.11-2.12,1.82Z" fill="#747372"/><path d="M15.47,33.49c.34,1.19-3.63,1.29-3.74,0-.08-.97,3.43-1.11,3.74,0Z" fill="#676665"/><polygon points="6.98 42.25 7.11 44.1 4.1 44.19 4.09 42.11 6.98 42.25" fill="#eee4c9"/><path d="M13.67,39.34l-2.94,1.88c0-.53.12-1.92.65-1.91l2.29.03Z" fill="#b8bc65"/><path d="M42.59,44.13v.91s.03,5.67.03,5.67l-1.12,2.4c-.12.48.47,1.4.83,1.58l-.97,21.07-.62,12.44-3.59,1.5c-6.67,2.89-19.08,3.76-24.57.56v-11.6s6.73-.96,6.73-.96l-3.61,8.3c-.46.54,4.51,1.96,5.08.75l3.07-6.56,3.93,3.04-1.09-5.27c.92-.25,3.65.13,5.73.68.02,1.04,0,.26-.03-1.27l-4.94-1.25c.46-1.05,3.66-2.7,5.53-2.37,1.3.23,2.13,4.02,1.49,5.47-.42.97-2.05,2.14-3.34,2.88-.41-.26.93,1.71,1.35,1.38l1.94-1.52c3.12-2.44,2.91-8.03-.67-9.7s-7.11,2.73-7.31,5.12c-.04.45-1.78,2.01-1.79,1.56s-.12-1.73.02-2.22l2.98-10.28,5.5,1.52c.81.22,2.24-1.12,2.61-1.91l1.19-2.58,1.86-.67.94-2.2-2.09-.15.23-.9c.23,0,.95-2.26.52-2.74l-3.57-3.99.57-2.49,3.81,1.34,1.17-7.91.25-.76,1.06.42.88.7Z" fill="#939e39"/><path d="M35.43,39.13l-.69,2.15-1.16,3.55-1.72-.6,2.74-8.97,2.09-6.61c.82.18.94,2.81.67,3.76l-1.94,6.72Z" fill="#676665"/><path d="M41.71,43.43l-1.06-.42-5.9-1.73.69-2.15,5.49,1.71c.51.14,1.98,1.21,1.67,1.63l-.88.96Z" fill="#7c7c7b"/><path d="M42.33,54.69c-.37-.17-.95-1.09-.83-1.58l1.12-2.4.94,2.38c.18.46-.86,1.31-1.23,1.6Z" fill="#e0bd7c"/><path d="M42.6,45.04v-.91s0,.91,0,.91Z" fill="#e0bd7c"/><path d="M14.63,70.05c.23.41.28.66.61.74l1.28.38,1.74,2.34-4.64.83c2.21,2.5,4.46-1.27,8.92.18l.31,4.21-3.34-2.69-6.96.89c-.08-.21-.43-1.42-.38-1.83l.6-4.99,1.86-.05Z" fill="#939e39"/><path d="M30.99,46.91l.19,2.51c0,2.28-5.03.64-6.09,3.4-1.7,4.45-3.17,10.94-2.53,16.31l1.99-6.14,1.41.19c.49,1.13-.01,3.85-.4,5.11l-1.45,4.69c-.19.6-1.23,1.91-1.56,1.53l.13-3c.05-1.24-2.02-3.06-3.06-3.68-1.53-2.15-4.55-4.07-7.61-3.58l.53-1.99c3.5.15,6.39-1,8.6-4.1,1.73-2.42,1.32-5.44-.18-7.67l-1.66-2.47c-.14-.46,1.63-.88,2.09-.86l4.71.14,4.89-.39Z" fill="#939e39"/><path d="M19.61,67.83l-.05,3.96-3.04-.62c-.2-.26-.6-1.13-.57-1.11s-.99,0-1.32,0l-1.39-3.27.19-.59c.94.17,2.81.7,3.79,1.13l2.39.51Z" fill="#939e39"/><path d="M32.45,50.5l.16,1.32,2.24,1.01,3.57,3.99c.43.48-.29,2.73-.52,2.74l-1.88-3.43c-.54-1.19-3.66-2.69-4.61-2.77l-2.19,5.74-.98-.16c.35-2.46.59-4.71.51-5.89-5.1,1.89-3.9,7.59-2.8,10.13l-1.41-.19-1.99,6.14c-.64-5.37.83-11.87,2.53-16.31,1.06-2.77,6.09-1.12,6.09-3.4l-.19-2.51.86-.07.61,3.66Z" fill="#6a553f"/><path d="M14.06,44.93c-.18.32.47,1.67.81,1.94l4.65,3.75c.21.17.89,1.33.79,1.59l-.48,1.34-8.39.3-.3-5.31c-.05-.8-.13-2.83.61-3.02l2.32-.59Z" fill="#eccc92"/><path d="M34.85,52.83l-2.24-1.01-.16-1.32-.61-3.66c.82-.44,2.82-1.33,3.8-1.57l4.76-1.5-1.17,7.91-3.81-1.34-.57,2.49Z" fill="#e0bd7c"/><path d="M19.29,48.02l1.66,2.47c1.5,2.23,1.9,5.25.18,7.67-2.21,3.1-5.1,4.25-8.6,4.1l-.58-1.9c1.42.16,3.95-.15,5.63-.96,1.8-.87,2.68-4.46,2.26-5.86l.48-1.34c.1-.27-.59-1.43-.79-1.59l-4.65-3.75c-.34-.27-.99-1.62-.81-1.94.81-.21,2.58.63,3.19,1.19l2.05,1.9Z" fill="#6a553f"/><path d="M11.69,58.31l.25,2.06.58,1.9-.53,1.99-.24,1.42c-.08.47,1.2.44,1.66.52l-.19.59-.47,3.33-.6,4.99c-.05.41.3,1.62.38,1.83l.02,1.73v11.6s-2.24-.35-2.24-.35l-.94-6.32c.31-2.24.04-3.85-.14-6.12l-.38-4.67v-4.7c0-.51-.5-2.41-.84-2.34l.35-7.41,3.32-.04Z" fill="#eccc92"/><path d="M8.86,72.8l-1.06-.83.22-6.21c.34-.07.85,1.83.85,2.34v4.7Z" fill="#503824"/><path d="M19.83,53.55c.43,1.4-.45,4.99-2.26,5.86-1.68.81-4.21,1.12-5.63.96l-.25-2.06-.25-4.46,8.39-.3Z" fill="#b8bc65"/><path d="M35.76,66.05c-.36.79-1.8,2.13-2.61,1.91l-5.5-1.52-2.98,10.28c-.14.5-.04,1.77-.02,2.22s1.76-1.11,1.79-1.56c.2-2.39,3.61-6.84,7.31-5.12s3.78,7.25.67,9.7l-1.94,1.52c-.42.33-1.75-1.65-1.35-1.38,1.28-.74,2.91-1.91,3.34-2.88.64-1.46-.2-5.25-1.49-5.47-1.87-.33-5.07,1.32-5.53,2.37l4.94,1.25c.04,1.54.05,2.31.03,1.27-2.08-.54-4.81-.93-5.73-.68l1.09,5.27-3.93-3.04-3.07,6.56c-.57,1.21-5.53-.2-5.08-.75l3.61-8.3-6.75.96-.02-1.73,6.96-.89,3.34,2.69-.31-4.21c.33.37,1.38-.93,1.56-1.53l1.45-4.69c.39-1.26.89-3.98.4-5.11,2.29.21,2.4,3.75,9.8,2.87ZM19.85,85.81l.35-4.47-2.01,4.76,1.66-.28Z" fill="#503824"/><path d="M16.52,71.17l-1.28-.38c-.34-.08-.38-.33-.61-.74.33,0,1.34.01,1.32,0s.38.85.57,1.11Z" fill="#503824"/><path d="M22.54,74.52c-4.47-1.44-6.71,2.32-8.92-.18l4.64-.83-1.74-2.34,3.04.62.05-3.96c1.04.62,3.11,2.44,3.06,3.68l-.13,3Z" fill="#503824"/><polygon points="14.63 70.05 12.77 70.11 13.24 66.78 14.63 70.05" fill="#503824"/><path d="M19.61,67.83l-2.39-.51c-.99-.43-2.86-.96-3.79-1.13-.46-.08-1.74-.06-1.66-.52l.24-1.42c3.06-.49,6.08,1.43,7.61,3.58Z" fill="#503824"/><path d="M37.91,59.56l-.23.9-.72,3.01-1.19,2.58c-7.41.88-7.51-2.66-9.8-2.87-1.11-2.55-2.31-8.24,2.8-10.13.08,1.18-.16,3.44-.51,5.89l.98.16,2.19-5.74c.95.08,4.08,1.58,4.61,2.77l1.88,3.43Z" fill="#e0bd7c"/><polygon points="36.95 63.47 37.68 60.46 39.76 60.61 38.82 62.81 36.95 63.47" fill="#503824"/><path d="M32.62,51.81l-.16-1.32.16,1.32Z" fill="#939e39"/><polygon points="19.85 85.81 18.19 86.1 20.2 81.34 19.85 85.81" fill="#939e39"/></g></svg>