<?xml version="1.0" encoding="UTF-8"?><svg id="Layer_2" xmlns="http://www.w3.org/2000/svg" viewBox="0 0 64.4 105.1"><g id="Layer_1-2"><path d="M52.72,17.19l.07,1.51-2.5,2.24c-.28.25-.31,2.25.04,2.37l1.91.63-.24,1.7-5.84,1.17-4,.62-19.71.33-8.76-.77-11.58-2.91,1.23,16.46.67,9.01,1.01,12.66,2.52,29.23.55,6.23c.03.38-.7,1.16-1.09,1.33-.39-.55-.71-2.15-.8-3.06l-2.18-23.42-.86-9.78-1.1-13.64-.98-12.07-.84-10.26-.25-6.19c6.48-6.12,11.95-3.9,9.96-3.03l-1.48.65-6.76,2.97c3.42,2.02,5.1,2.56,7.98,3.12l11.66,1.85c5.46.87,10.8.48,16.33-.1l5.82-.61,1.11-4.55c.23-.95.2-2.79.09-3.76l-.2-1.73c0,.13,1.96-.96,2.15-1.47l4.53-12.07c8.11-3.02,14.41-2.18,13,1.27-1.5,3.67-6.95,1.69-8.75,3.68-1.61,1.77-2.88,6.74-2.72,10.4ZM63.1,1.61l-8.42,1.1,2.99,2.44,5.43-3.54ZM47.46,24.63l5.15-16.53c.11-.34.37-1.48.08-1.64l-1.3-.7-3.36,11.03-2.3,7.47,1.74.37Z" fill="#595858"/><path d="M58.82,27.17l-3.57,35.26-3.8,35.44c-.56,5.22-16.7,8.11-25.2,6.99l-5.91-.78-7.5-1.52.97-1.26c9.24,2.45,19.73,2.34,29.52.26,2.03-.43,4.8-2.23,6.35-3.62l2.13-19.68,1.05-10.27.8-7.86,2.65-25.22.77-7.82,1.74.09Z" fill="#595858"/><path d="M44.62,20.89l-1.11,4.55-5.82.61c-5.53.58-10.88.96-16.33.1l-11.66-1.85,1.19-1.32,6.67-.92,21.19-.17c.73,0,2.71-.82,2.89-1.03l2.99.04Z" fill="#d1d1cf"/><path d="M44.51,15.4l.2,1.73-9.5-.69-8.38-.03-10.58.45-.54-2.08c9.78-.86,19.3-.72,28.8.62Z" fill="#747372"/><path d="M41.64,20.85c-.18.21-2.16,1.03-2.89,1.03l-21.19.17-6.67.92c-.24-.5.47-1.76.96-1.83l6.68-1.03,19.11-.16,4,.89Z" fill="#676665"/><path d="M57.86,19.57c.42.31,1.34,1.82,1.31,2.34l-.35,5.26-1.74-.09c.09-.88-.48-2.69-.8-3.28l-.17-1.21.1-2.88,1.65-.15Z" fill="#3a3939"/><path d="M13.81,101.31l-.97,1.26c-1.87-.38-4.79-2.11-5.84-3.57.39-.17,1.13-.95,1.09-1.33,1.36,1.13,4.08,3.2,5.72,3.63Z" fill="#7c7c7b"/><path d="M57.86,19.57l-1.65.15-3.42-1.02-.07-1.51c1.86.39,3.97,1.5,5.14,2.38Z" fill="#747372"/><path d="M57.08,27.09l-.77,7.82-2.65,25.22-.8,7.86-1.05,10.27-2.13,19.68c-1.55,1.39-4.33,3.19-6.35,3.62-9.79,2.08-20.28,2.19-29.52-.26-1.64-.43-4.35-2.51-5.72-3.63l-.55-6.23-2.52-29.23-1.01-12.66,2.11-.08,1.71,18.42,1.85,22.78c.06.7.84,2.28.99,2.49.74,1.01,2.96,2.87,4.45,3.17l9.03,1.83c6.09,1.23,15.25-.32,20.84-2.67l.66-.28c.47-.2,1.99-1.54,2.09-2.33l1.85-14.08.87-9.83.92-9.55.99-9.7.58-5.71.09-3.71-7.77-2.28,2.73-8.56c.11-.34.11-1.59-.18-1.54l-1.33.23-.35-1.34,5.84-1.17,4.29-1.84c.32.59.88,2.4.8,3.28ZM20.2,98.7l-4.6-1.03c-.39-.09-1.4,1.49-.99,1.59l1.94.45,3.93.91c1.13.23.42-2.36-.28-1.92ZM44.64,99.59c-.52-.78-1.33-1.98-1.21-1.8l-5.73,1.04-1.99.36c-.41.08.83,1.72,1.24,1.65l7.69-1.25Z" fill="#eae4d9"/><polygon points="42.16 27.43 42.17 28.5 40.98 33.06 39.06 37.71 31.09 37.31 29.94 36.24 21.69 36.54 13.92 37.95 11.52 38.37 5.46 39.4 6.13 49.48 4.01 49.56 3.34 40.55 2.11 24.09 13.7 27 22.45 27.76 42.16 27.43" fill="#f1efed"/><path d="M47.46,24.63l-1.74-.37,2.3-7.47,3.36-11.03,1.3.7c.29.16.03,1.29-.08,1.64l-5.15,16.53Z" fill="#d1d1cf"/><path d="M46.16,26.81l.35,1.34-4.88,13.86-1.28-.11,3.01-10.52c.12-.43.29-1.83.01-2.11l-1.21-.79v-1.07s3.99-.62,3.99-.62Z" fill="#d1d1cf"/><path d="M52.79,18.7l3.42,1.02-.1,2.88-3.87,1.34-1.91-.63c-.35-.12-.32-2.12-.04-2.37l2.5-2.24Z" fill="#eae4d9"/><polygon points="63.1 1.61 57.67 5.15 54.68 2.71 63.1 1.61" fill="#d1d1cf"/><polygon points="56.11 22.6 56.28 23.81 52 25.65 52.24 23.94 56.11 22.6" fill="#747372"/><path d="M28.94,45.81l1.26.97,4.5-.29,1.25,1.41-1.32,3.57-1.4,3.65-3.37,5.56c4.01,1.66,4.8,4.18,4.03,7.31l-.97,1.92-1.15-.11-.69-4.36c-2.04,1.46-3.66,3.63-3.72,5.04l-.18,4.23-4.37-.55c-1.78-2.02-3.8-2.69-6.25-2.62l-.85-8.3,6.37-.91c3.5-.49,6.4-5.62,5.47-9.4-.55-2.23-2.99-5.13-4.46-6.39l.22-1.53,5.63.8Z" fill="#939e39"/><path d="M52.97,44.02l-.58,5.71-.99,9.7-.92,9.55-.87,9.83-1.85,14.08c-.72.01-2.21.04-2.25.59l.16,1.75-.66.28-6.52-.03-7.6,1.2c-1.69.27-5.67.41-7.41-.09l-8.11-2.3-4.68-1.12c-.16-.21-.94-1.79-.99-2.49l-1.85-22.78,4.76-.1,1.08,15.63-.75.82c-.25.27-.51,1.6-.14,1.65l2.35.2,1.99.26-.47-12.27,4.78.24-1.39,3.12,6.06-1.13c1.14.94,2.01,2.73,2.24,3.91l-3.62,4.52-2.02,2.63c-.38.5-2.6-.06-3.23-.02l-4.28.25-1.23,1.27.49,3.39,2.58-2.35,5.85-.31c.7-.04,2.22-1.71,2.62-2.14l2.22,2.87c.25-.85.71-2.82.75-3.68l.24-4.44,4.04-7.55,2.39-.34-1.33-1.59.04-2.82.06-1.92,2.14-2.88,3.29,2.11.22-2.22,4.3-3.57-4.87-4.22.34-.78,4.44,2.54,1.86,1.4.42,4.12c1.21-2.23,1.57-4.57,1.52-7.01l-.13-6.9,1.99-2.26c.41-.47-1.86-1.37-2-1.27l-.08-1.65,3.88-1.24,1.75-.15ZM45.56,64.35l-4.4,2.02c-.57.26,2.16,2.09,2.44,1.58l1.96-3.6ZM39.19,75.53c-2.12-.08-2.82.63-.66,1.42,1.41,1.39,3.63-.53.66-1.42ZM19.01,77.6l-.48.48.48.48.48-.48-.48-.48ZM39.45,90.49l4.01-4.17c.28-.29-.31-1.72-.46-2.1-.7-1.81-2.24,6.28-7.47,4.69l-1.69,1.72c1.45.3,4.83.67,5.61-.14Z" fill="#939e39"/><path d="M11.52,38.37l.73,1.6-5.44,1.52,3.49,1.57c.66.3.59,2.06.81,2.76-1.66,1.46-1.6,3.41-.4,4.97l.17,6.62c.02.89,1.48,3.07,1.83,3.62l-.11,6.76-4.76.1-1.71-18.42-.67-10.07,6.06-1.04Z" fill="#b8bc65"/><path d="M45.01,95.5c-5.58,2.34-14.75,3.9-20.84,2.67l-9.03-1.83c-1.48-.3-3.71-2.16-4.45-3.17l4.68,1.12,8.11,2.3c1.74.49,5.72.35,7.41.09l7.6-1.2,6.52.03Z" fill="#6a553f"/><path d="M52.97,44.02l-1.75.15v-1.13c.02-.36.16-1.36-.18-1.51l-2.56-1.13c-1.11-.49-3.89-.12-4.52.87l-1.1,1.73c-.25.4-1.15-.8-1.24-1l4.88-13.86,1.33-.23c.29-.05.29,1.21.18,1.54l-2.73,8.56,7.77,2.28-.09,3.71Z" fill="#676665"/><path d="M44.64,99.59l-7.69,1.25c-.41.07-1.65-1.57-1.24-1.65l1.99-.36,5.73-1.04c-.12-.18.69,1.02,1.21,1.8Z" fill="#747372"/><path d="M20.2,98.7c.71-.44,1.42,2.15.28,1.92l-3.93-.91-1.94-.45c-.41-.1.6-1.67.99-1.59l4.6,1.03Z" fill="#747372"/><path d="M47.76,92.89c-.1.79-1.63,2.13-2.09,2.33l-.16-1.75c.04-.55,1.53-.57,2.25-.59Z" fill="#6a553f"/><path d="M39.06,37.71c-.5,1.21-.59,3.66-.68,5.07l-.58,1.24-.37-.61-21.54-.39-3.64-3.06-.73-1.6,2.4-.42.36,1.97,7.39-1.46,6.54-.3c.71-.03,2.6-.65,2.89-.85l7.97.4Z" fill="#eccc92"/><path d="M31.09,37.31c-.28.19-2.18.81-2.89.85l-6.54.3-7.39,1.46-.36-1.97,7.77-1.41,8.26-.29,1.15,1.07Z" fill="#747372"/><path d="M40.36,41.91l-.6,1.14-1.38-.26c.09-1.41.18-3.86.68-5.07l1.92-4.66,1.19-4.56,1.21.79c.28.28.11,1.68-.01,2.11l-3.01,10.52Z" fill="#615d59"/><path d="M51.22,43.05l-4.3.46-4.27.57-1.46.1-.66-.09c.04-.39-.41-.9-.76-1.06l.6-1.14,1.28.11c.09.21.99,1.4,1.24,1l1.1-1.73c.63-.99,3.42-1.36,4.52-.87l2.56,1.13c.33.15.2,1.14.17,1.51Z" fill="#eccc92"/><path d="M51.22,43.05v1.13s-3.87,1.24-3.87,1.24l-3.4.33c-1.13.11-3.24,6.08-2.36,6.33l2.26.65c.36.1.34.95.41,2.13l-4.6-1.17-.35,2.76-.34.78-2.28.29c-1.27.16-3.69,1.48-4.62,2.37l3.44,2.8.8.11c.04.49.07,1.55.55,1.71l2.69.51-.22,2.22-3.29-2.11-2.14,2.88c.77-3.13-.03-5.65-4.03-7.31l3.37-5.56,1.4-3.65,1.32-3.57c.11-.31.06-1.12-.2-1.47.54-.4,1.46-1.09,2.03-1.31l2.73-1.02.66.09c.08.06.86.7.89.67l.57-.77,4.27-.57,4.3-.46Z" fill="#6a553f"/><polygon points="33.85 69.91 32.93 69.92 33.91 68 33.85 69.91" fill="#6a553f"/><polygon points="15.52 61.16 15.72 63.25 16.57 71.56 16.65 74.09 17.12 86.35 15.13 86.09 13.67 83.43 12.6 67.8 12.71 61.03 15.52 61.16" fill="#c3c4ac"/><path d="M47.35,45.41l.08,1.65-2.24,2.88,2.25.65.13,6.9h-1.78s-.16,2.89-.16,2.89l-1.86-1.4-4.44-2.54.35-2.76,4.6,1.17c-.07-1.18-.05-2.02-.41-2.13l-2.26-.65c-.88-.25,1.22-6.22,2.36-6.33l3.4-.33Z" fill="#b8bc65"/><path d="M28.71,82.21l-.24,4.44c-.05.86-.51,2.82-.75,3.68l-2.22-2.87c-.4.43-1.92,2.1-2.62,2.14l-5.85.31-1.84-2.31,4.28-.25c.63-.04,2.85.52,3.23.02l2.02-2.63,3.62-4.52.38,1.98Z" fill="#774a25"/><path d="M38.99,57.22l4.87,4.22-4.3,3.57-2.69-.51c-.47-.17-.51-1.22-.55-1.71l.74-3.41-.36-1.86,2.28-.29Z" fill="#b8bc65"/><path d="M33.85,69.91l-.04,2.82-1.06,1.93-4.04,7.55-.38-1.98c-.22-1.18-1.09-2.97-2.24-3.91l1.05-.65,1.87.12,1.13,1.06,1.68-6.07c.05-.19-.03-.75-.05-.98l1.15.11h.91Z" fill="#1e1d19"/><path d="M39.45,90.49c-.78.81-4.16.44-5.61.14l1.69-1.72c5.22,1.59,6.77-6.5,7.47-4.69.15.38.74,1.81.46,2.1l-4.01,4.17Z" fill="#503824"/><path d="M27.2,74.72l-.04.95-1.05.65-6.06,1.13,1.39-3.12-4.78-.24-.07-2.53c2.45-.07,4.47.6,6.25,2.62l4.37.55Z" fill="#774a25"/><path d="M47.58,57.49c.05,2.43-.31,4.77-1.52,7.01l-.42-4.12.16-2.89h1.78Z" fill="#6a553f"/><path d="M47.45,50.59l-2.25-.65,2.24-2.88c.14-.1,2.41.8,2,1.27l-1.99,2.26Z" fill="#eccc92"/><path d="M45.56,64.35l-1.96,3.6c-.28.52-3.01-1.32-2.44-1.58l4.4-2.02Z" fill="#6a553f"/><polygon points="15.19 87.6 17.03 89.91 14.46 92.26 13.97 88.87 15.19 87.6" fill="#b8bc65"/><path d="M39.19,75.53c2.97.88.75,2.81-.66,1.42-2.16-.79-1.46-1.49.66-1.42Z" fill="#6a553f"/><path d="M15.13,86.09l-2.35-.2c-.37-.05-.1-1.38.14-1.65l.75-.82,1.46,2.67Z" fill="#774a25"/><polygon points="32.75 74.66 33.81 72.74 35.14 74.32 32.75 74.66" fill="#6a553f"/><rect x="18.67" y="77.74" width=".68" height=".68" transform="translate(-49.64 36.31) rotate(-45)" fill="#774a25"/><path d="M37.8,44.03v1.09c-.58.21-1.5.9-2.04,1.31l-1.06.07-4.5.29c-.11-.33-.88-.92-1.26-.97l-5.63-.8-3.95-.09-4.55.11-.22,1.89v1.01s.38,2.75.38,2.75l4.63-3.35,1.86-.23,4.95,6.52c.52.71-.47,3.16-1.04,3.84l-2.01-2.45-3.72,3.77,3.96.8c-.38.46-2.1,1.59-3.1,1.59h-3.42c-1.18-.5-4.56-2.5-4.89-3.98-.39-1.74.21-4.92.45-6.44l-1.53-4.91c-.22-.7-.14-2.46-.81-2.76l-3.49-1.57,5.44-1.52,3.64,3.06,21.54.39.37.61Z" fill="#eee4c9"/><path d="M12.63,50.74c-.24,1.52-.84,4.7-.45,6.44.33,1.48,3.71,3.48,4.89,3.97h-1.56s-2.81-.12-2.81-.12c-.35-.55-1.8-2.73-1.83-3.62l-.17-6.62,1.92-.05Z" fill="#615d59"/><path d="M12.63,50.74l-1.92.05c-1.21-1.56-1.26-3.51.4-4.97l1.53,4.91Z" fill="#e0bd7c"/><path d="M40.52,44.1l-2.73,1.02v-1.09s.59-1.24.59-1.24l1.38.26c.35.16.8.66.76,1.06Z" fill="#d1d1cf"/><path d="M41.19,44.19l1.46-.1-.57.77s-.81-.6-.89-.67Z" fill="#d1d1cf"/><path d="M36.7,57.51l.36,1.86-1.54,3.31-3.44-2.8c.93-.89,3.35-2.21,4.62-2.37Z" fill="#e0bd7c"/><polygon points="36.33 62.78 35.52 62.68 37.07 59.37 36.33 62.78" fill="#939e39"/><path d="M35.96,47.9l-1.25-1.41,1.06-.07c.26.36.31,1.16.2,1.47Z" fill="#e0bd7c"/><path d="M23.1,46.55c1.48,1.26,3.92,4.16,4.46,6.39.93,3.78-1.97,8.92-5.47,9.4l-6.37.91-.2-2.1h1.56s3.42.01,3.42.01c1,0,2.72-1.13,3.1-1.59l1.78-2.12c.57-.68,1.57-3.14,1.04-3.84l-4.95-6.52s.55-1.07.57-1.03c.04.06.84.29,1.06.47Z" fill="#6a553f"/><path d="M31.78,69.81c.02.23.1.79.05.98-.64-.06-.85-.06-1-.28l-1.38-1.91-.42,7.19-1.87-.12.04-.95.18-4.23c.06-1.41,1.68-3.58,3.72-5.04l.69,4.36Z" fill="#6a553f"/><path d="M31.83,70.79l-1.68,6.07-1.13-1.06.42-7.19,1.38,1.91c.16.22.36.22,1,.28Z" fill="#939e39"/><polygon points="19.36 44.92 19.61 47.33 14.98 50.68 14.6 47.93 14.6 46.92 14.81 45.03 19.36 44.92" fill="#6a553f"/><polygon points="25.37 57.46 23.59 59.58 19.64 58.77 23.36 55.01 25.37 57.46" fill="#b8bc65"/><path d="M23.31,45.02l-.22,1.53c-.21-.18-1.02-.41-1.06-.47-.02-.04-.55.99-.57,1.03l-1.86.23-.25-2.4,3.95.09Z" fill="#e0bd7c"/><path d="M30.2,46.79l-1.26-.97c.38.05,1.15.64,1.26.97Z" fill="#e0bd7c"/><path d="M14.6,47.93v-1.01s0,1.01,0,1.01Z" fill="#e0bd7c"/></g></svg>