<?xml version="1.0" encoding="UTF-8"?>
<svg xmlns="http://www.w3.org/2000/svg"
id="icon-lemonade"
viewBox="0 0 110.49 164.39"
width="100%"
height="100%"
     fill="black"
     stroke="currentColor"
     stroke-width="0"
     stroke-linecap="round"
     stroke-linejoin="round">    
    <path
        d="M67.86,30.8c-.68,3.78-2.5,12.03-3.4,15.83-.08.36,1.37,1.55,1.63,1.28.4-.39,1.45-1.58,1.61-2.15l1.82-6.58c.43.28.99,1.38.93,1.84l-.8,6.29,11.31-1.23-.13,1.89c-2.75.33-8.97,1.06-11.78,1.4,0,0-2.26,9.36-2.26,9.36-.34,1.42-.81,2.36-2.28,3.73,0,0,2.23-12.92,2.23-12.92-.25-.12-2.9.04-3.05.51l-2.26,7.05-.24-7.29-18.36-.48-3.55.39-8.02-1.09c-.53-.05-2.14-.62-2.12-.65,0,0,.08-1.12.08-1.12,0,0,1.88-.05,1.88-.05.57-.01,3.99.05,4.65.06-.14.34,1.13,1.22,1.64,1.08l2.4-1.01,3.82.07c.65.01,1.43.71,2.55,1.71l3.12-3.78.12,2.92,12.55-.07s1.85-7.11,1.85-7.11l-12.44-.3c-.59-.01-2.14.69-2.14,1.1,0,0-.03,1.61-.03,1.61-.74-1.32-1.6-3.38-1.78-4.79l5.73.47h11.27s2.3-9.49,2.3-9.49l1.15,1.51Z"
        fill="#535251" />
    <path d="M38.18,31.59l-1.3-1.55,1.3,1.55Z" fill="#605e5d" />
    <path
        d="M12.46,30.25s.46,2.03.46,2.03c-9.05,6.72-8.72,23.32-.31,29.33l3.28,2.34,2.71,1.79.51,1.42C2.63,63.05-.67,39.94,12.46,30.25Z"
        fill="#605e5d" />
    <path d="M39.76,32.36l-1.58-.78c.99-.07,1.15.77,1.58.78Z" fill="#605e5d" />
    <path
        d="M47.42,38.3c.18,1.42,1.04,3.48,1.78,4.79l.08,1.85-3.12,3.78c-1.12-1-1.91-1.7-2.55-1.71l-.76-6.06s-1.91-4.79-1.91-4.79-1.18-3.81-1.18-3.81c.66.41,2.8,2.48,3.21,3.74l3.7,11.49c1.7-6.91-1.57-13.97-6.35-18.53-5.29-5.04-12.25-6.94-19.59-5.68C3.58,26.45-4.39,50.21,8.07,63.33c2.26,2.53,6.48,4.76,9.62,5.91l-.18,1.7c-5.93-.59-12.03-5.77-14.88-11.93C-2.6,47.67.05,34.59,9.86,26.48c12.03-10.6,35.02-4.9,37.56,11.83Z"
        fill="#605e5d" />
    <path d="M36.88,30.03l-4.17-1.15c-5.53-2.24-11.38-1.07-16.71.76l-3.54.6,4.61-3.03c4.81-3.17,15.25-2.63,19.81,2.81Z"
        fill="#605e5d" />
    <path
        d="M104.17,153.41c1.01,2.95-3.51,5.11-7.85,5.5-7.76.7-14.66,2.04-22.1,3.73-11.97,2.72-24.97,2.01-36.19-.45-1.29-.28-3.47-2.41-3.22-3.03,5.87.71,12,1.72,18.39,1.83,6.77.12,13.58-.8,20.33-1.71,1.83-.82,5.56-2.37,7.43-3.08,0,0,2.84-1.13,2.84-1.13,5.1,3.48,11.48,2.76,17.52-.43l2.83-1.23Z"
        fill="#ded9d2" />
    <path
        d="M86.96,43.88c.34.53.97,2.8.9,3.86,0,0-.5,7.46-.5,7.46-1.21,18.52-3.55,53.74-4.72,72.1,0,0-.11,1.62-.11,1.62-.04.56-1.59.55-2.15.44,1.57-20.2,3.49-48.89,4.83-69.02,0,0,.73-8.87.73-8.87.05-1.93-.37-4.43-1.27-5.99,0,0,.08-1.56.08-1.56l2.22-.05Z"
        fill="#4b4b4b" />
    <polygon points="17.79 39.07 15.6 39.22 16.82 38.05 17.79 39.07" fill="#4e3b30" />
    <path d="M19.66,41.05l-1.87-1.98,1.87,1.98Z" fill="#4e3b30" />
    <path d="M20.68,42.95c-.53-.22-1.08-1.21-1.02-1.9.39.41.86,1.35,1.02,1.9Z" fill="#4e3b30" />
    <path
        d="M26.15,36.46s-.37,6.83-.37,6.83c2.39-1.07,7.22-5.71,9.28-7.42,0,0-3.23,5.08-3.23,5.08,0,0,2.22.98,2.22.98-.43.39-1.77,1.41-2.34,1.55l-4.68,1.13c0,.36.01,1.45.01,1.38l3.98-.06.07.89-1.88.05c-.38.01-1,.51-1.1.91l-4.79-.99-.23,4.79-.82,4.79c-.13.74.76,3.23,1.41,3.04l.31,12.51c-1.25-.21-5.28-.94-6.48-.98,0,0,.18-1.7.18-1.7,1.01.37,3.13.36,4.81.34-.82-1.6-1.61-1.95-3.39-2.42l-.51-1.42s2.03-.3,2.03-.3c.51-.07,1.1-1.67,1.08-2.22,0,0-.21-8.69-.21-8.69-.02-.75-.67-2.77-.83-3.05-.01-.59-.05-2.96-.06-3.59,0,0-.84-1.94-.84-1.94l1.77-.14-.86-2.85,3.91,1.15-.14-10.48c0-.5.58-2.68,1.12-2.27l.57,5.12Z"
        fill="#4e3b30" />
    <path
        d="M51.3,159.14c8.37.55,17.71-.94,26.2-2.7,0,0-.19,1.22-.19,1.22l-3.77,1.63c-6.75.9-13.56,1.82-20.33,1.71-6.39-.11-12.52-1.12-18.39-1.83-5.35-.65-8.47-3.08-8.66-8.13,2.73.72,2.78,4.83,6.55,5.53,6.77,1.25,12.39,2.19,18.58,2.57Z"
        fill="#535251" />
    <path
        d="M96.89,139.32s-1.82.38-1.82.38l2.5,2.5c-1.24-.08-3.97.71-5.1,1.38,0,0-5.58,3.3-5.58,3.3l-4.31-1.97c-2.26-5.98-6.97-11.33-14.02-12.14l2.33,5.76-3.36-3.52c-.11-.27-.51-1.18-.47-1.22.04-.05.86-.61,1.75-1.23l-4.98-1.85s.47,5.95.47,5.95c.64,8.06,5.21,13.71,11.89,17.58l.02.7c-3.33-.8-7.18-.99-10.24-.37-.18-.52.12-1.52.64-1.63,0,0,2.85-.64,2.85-.64l-1.34-2.78c-1.24-1.33-4.82-.3-6.43-.17,0,0-.16-1.57-.16-1.57l4.07-1c-1.09-3.22-2.45-6.52-2.8-9.34l-1-7.01,1.11-1.24c.3-.34,1.52-.1,2.01.03l5.01,1.35,6.18,2.91c.76.9,2.56,2.58,3.47,2.93l5.26-8.83,4.75-4.08c2.3-1.97,5.56-3.47,9.05-5.02,2.05,7.42,1.33,14.52-1.75,20.85ZM95.21,123.3l-1.54.77c-.42-.12-2.85.39-3.47,1.01l-5.71,5.73c-3.91,3.93-3.45,9.68-.08,13.39l2.98-8.26.52-6.64,1.14,2.23c.25.48,1.16,1.17,1.66.94l-1.05,3.62,5.01.05-6.77,3.79c-.95.53-1.51,3.78-1.32,4.95,2.92-1.4,6.04-2.9,7.6-5.07,3.82-5.36,4.45-12.36,2.83-18.2-.08-.37-1.49.15-1.56.52l-.24,1.16Z"
        fill="#535251" />
    <path d="M93.59,127.68l1.72,2.64-4.6,2.15,2.5-6.25c.05.38.2,1.18.38,1.46Z" fill="#535251" />
    <path
        d="M76.15,2.62l.11,1.96c-.51.14-.94,1.37-.9,1.97l.12,1.85c-.12-.07-1.55-.12-1.64.24-.21.8-4.9,18.66-5.28,20.1,0,0-.69,2.07-.69,2.07l-1.15-1.51c1.42-6.06,4.46-18.19,6.09-24.19.26-1.01,2.61-2.33,3.35-2.47Z"
        fill="#605e5d" />
    <path
        d="M77.26,16.21l-5.13,21.17c-.2,1.06-.04,2.73.28,3.72,0,0-1.94-.09-1.94-.09.06-.46-.5-1.56-.93-1.84l5.19-20.72c.14-.55,1.03-2.04,1.23-2.34l1.3.09Z"
        fill="#605e5d" />
    <path
        d="M24.27,112.06c-.59-6.33-.79-25.63-.87-32.27,0-.56.71-2.82.86-1.97.5,6.33,1.18,19.23,1.4,25.6,0,0,.75,8.53.75,8.53l-2.15.11Z"
        fill="#535251" />
    <path
        d="M82.05,8.26l.04-1.74,4.56-1.17c.6-.15,1.81-.9,2.29-1.25s-.78-2.47-1.36-2.36l-8.44,1.56-.96-1.47c6.49-2.5,13.13-2.84,12.94,1.46-.04.83-.75,3.01-1.53,3.22l-7.54,1.74Z"
        fill="#605e5d" />
    <path
        d="M96.89,139.32c2.65.86,10.89,4.24,13.6,5.35-.32,1.02-1.52,3.1-2.36,3.94l-4.28,3.71-.79-1.19,4.82-5.5c-3.53-1.84-7.66-3.26-10.31-3.42l-2.5-2.5,1.82-.38Z"
        fill="#656565" />
    <path
        d="M78.19,1.84l.96,1.47.34,2.6c.1.74,1.87.8,2.6.62l-.04,1.74c-.47.18-2.86,1.32-3.09,2.13l-1.7,5.82-1.3-.09.44-3.95c.1-.93-.6-3.13-.91-3.78l-.12-1.85,3.15-.25-2.24-1.71-.11-1.96,2.04-.79Z"
        fill="#3e3e3e" />
    <path
        d="M103.06,151.13l.79,1.19.32,1.09-2.83,1.23c-6.04,3.19-12.43,3.91-17.52.43l.74-.86c6.17,2.73,13.25,1.3,18.51-3.09Z"
        fill="#4b4b4b" />
    <path d="M86.96,43.88l-2.22.05-10.21-1.93c-.51-.1-1.89-.76-2.12-.89l-.24-.96,12.99,2.1c.39.07,1.77,1.57,1.8,1.63Z"
        fill="#656565" />
    <path d="M27.3,132.18l-1.92.11-.31-9.54-.76-7.65,1.79.12c.25,4.23.85,12.74,1.2,16.96Z" fill="#535251" />
    <path d="M27.27,135.3l.82,12.99c.03.52-1.82,1.56-1.99,1.15l-.66-14.28,1.83.13Z" fill="#535251" />
    <path d="M53.93,18.78c-.05,2.83-4.26,2.83-4.31,0,.05-2.83,4.26-2.83,4.31,0Z" fill="#585755" />
    <path d="M24,71.92l.42,4.62c-.69.16-.99.22-1.12-.08l-.87-1.94c-.46-1.03-2.13-2.64-3.14-3.4l4.71.8Z"
        fill="#656565" />
    <polygon points="27.3 132.18 27.27 135.3 25.44 135.17 25.37 132.29 27.3 132.18" fill="#656565" />
    <path
        d="M82.63,127.3s2.2.27,2.2.27l-5.26,8.83c-.91-.35-2.71-2.03-3.47-2.93l1.28-5.89s1.16-13.44,1.16-13.44c.43-4.91,1.51-15.52,2.05-20.48,0,0,.88-13.04.88-13.04l-.04-10.84c-.01-3.38-6.21-4.81-12.21-2.23l-4.7,1.16c-1.05.26-2.5,1.53-2.85,2.86l-2.35,8.97c-.21.81-2.79,2.2-3.65,2.23l5.01-21.62.23-3.67c.23-.13.49-.25.52-.36,0,0,2.26-7.05,2.26-7.05.15-.46,2.81-.62,3.05-.51l-2.23,12.92c1.47-1.37,1.94-2.31,2.28-3.73l2.26-9.36s7.01-.84,7.01-.84l4.77-.56s4.44-1.19,4.44-1.19c.31,1.03.76,3.43.65,4.7l-.73,8.87-1.09,16.26c-.84,13.13-2.72,39.62-3.73,52.75.56.12,2.12.12,2.15-.44l.11-1.62ZM65.77,64.14c0-1.4-2.13-1.4-2.14,0,0,1.4,2.13,1.4,2.14,0Z"
        fill="#eeedec" />
    <path
        d="M33.05,68.88l.29,25.94c.34,5.19,1.16,16.19,1.69,21.29,0,0,1.66-.06,1.66-.06-2.16,4.9-2.16,9.38,1.67,13.06.82.79.41,3.37-.1,4.96.87.74,2.64,2.3,3.7,2.51,0,0-1.52,2.28-1.52,2.28,0,0,.2,7.66.2,7.66-2.17-.53-4.91-1.3-6.73-2.29,0,0-2.69-1.3-2.69-1.3-.39-5.19-1.09-15.88-1.41-21.12-.81-12.05-1.52-29.26-1.93-41.39,0,0-.64-9.34-.64-9.34-.04-.6,1.68-1.96,1.9-2.07l3.91-.12Z"
        fill="#f2eae0" />
    <path
        d="M48.41,68.72c-.06.24.47,2.15.99,2.15l6.83.18c-.97,4.11-2.97,12.8-3.94,16.85-.54.42-1.15,1.78-1.25,2.42l-1.2,8.25-2.82,8.54c-.61,1.84-4.63,2.5-6.38,2.42-.08-5.39-.28-20.18-.73-25.32-.1-1.85-.08-12.51-.09-14.59,0,0,2.77-3.57,2.77-3.57,0,0,5.81,2.66,5.81,2.66Z"
        fill="#f2eae0" />
    <path
        d="M60.69,61.13l-5.01,21.62c.86-.03,3.44-1.43,3.65-2.23l2.35-8.97c.35-1.33,1.81-2.6,2.85-2.86l-.18,1.26-2.33,7.05c-.15.45-.59,2.01-.23,2.16l2.37.98,3.38,1.42c-.17.27-.11,1.09.02,1.25l-2.98-.69c-1.22-.21-3.74.2-4.13,1.34l-1.77,5.08-3.08-2.62c-1.61,1.31-3.68,5.71-2.69,7.56l2.19,4.1s-.87.03-.87.03c-.16-.1-1.25-.67-1.55-.42l-1.51,1.29-1.33.08,1.2-8.25c.59-.16.86-.37.92-.71,0,0,.32-1.72.32-1.72l1.65-7.03c.29-1.36,2.58-10.59,2.54-11.76,0,0,1.43-4.15,1.43-4.15l1.37-3.98,1.41.17Z"
        fill="#5a5a5a" />
    <path
        d="M65.96,154.56c-.11.32-1.72,1.98-2.38,2.02-1.42.07-13.18.97-14.26.78,0,0-.12-5.95-.12-5.95l4.12-.09c.43,0,1.49-.79,1.79-1.07l6.58-.91c1.61-.12,5.2-1.16,6.43.17,0,0,1.34,2.78,1.34,2.78l-2.85.64c-.52.12-.81,1.12-.64,1.63Z"
        fill="#f1e3c8" />
    <path
        d="M40.64,146.51c6.26,1.54,14.52,1.85,20.88,1.26l.16,1.57-6.58.91c-3.01-.21-9.25-.75-12.28-1.04,0,0-7.7-1.86-7.7-1.86-1.74-.42-3.79-2.86-3.9-4.42,2.86,1.49,6.13,2.9,9.42,3.59Z"
        fill="#6d6d6d" />
    <path
        d="M76.2,154.93l1.3,1.51c-8.49,1.75-17.83,3.25-26.2,2.7,0,0,.09-1.76.09-1.76l12.19-.8c.66-.04,2.27-1.7,2.38-2.02,3.06-.62,6.91-.43,10.24.37Z"
        fill="#e4ded7" />
    <path d="M42.83,49.34l.06,2.06-4.16,7.83-6.67,1.92c.13-.33.28-2.04.22-2.39l2.86-.64-.94-7.05,5.09-1.35,3.55-.39Z"
        fill="#f2eae0" />
    <path
        d="M55.1,150.24c-.3.27-1.36,1.06-1.79,1.07l-4.12.09.12,5.95-5.15-.32c-.37-1.08-1.57-3.34-1.49-4.51,0,0,.15-3.32.15-3.32,3.04.29,9.27.83,12.28,1.04Z"
        fill="#e4ded7" />
    <path
        d="M32.28,58.76c.06.34-.09,2.06-.22,2.39-.43,1.08-2.29,2.66-3.65,3.35l-.72-14.76c.09-.36,3.01.58,3.15,1.34l1.43,7.68Z"
        fill="#f1e3c8" />
    <path d="M42.67,152.53c0,.43.16,1.25.32,1.63l-6.27-.41c-.4-.05-1.6-.67-1.97-.85s.88-1.33,1.28-1.27l6.64.89Z"
        fill="#6d6d6d" />
    <path d="M42.17,56.89c-.33,1.04-2.35,2.16-3.45,2.34l4.16-7.83.61.24-1.33,5.26Z" fill="#656565" />
    <path d="M43.46,58.38l2.07-4.88,1.62-2.67c1.17,4.86-2.69,8.61-3.7,7.55Z" fill="#6d6d6d" />
    <path d="M56.48,69.1l-.26,1.95-6.83-.18c-.52,0-1.05-1.91-.99-2.15l8.07.38Z" fill="#d5ad7c" />
    <path
        d="M35.93,67.97l-.08,1.9c-.31.03-.66.08-.84-.03l-1.07-.82c-.22-.13-.64-.15-.89-.13l-3.91.12.64-1.89c.13-.37,1.91-.26,2.3-.16l3.85,1.01Z"
        fill="#6d6d6d" />
    <polygon points="45.53 53.49 43.46 58.38 42.17 56.89 43.5 51.63 45.53 53.49" fill="#f2eae0" />
    <path d="M23.69,59.41c-.65.19-1.53-2.3-1.41-3.04l.82-4.79c.15,1.51.97,6.45.58,7.83Z" fill="#656565" />
    <path d="M38.12,69.64l-2.27.23.08-1.9c.72.19,1.96.89,2.19,1.67Z" fill="#c2bfb9" />
    <polygon points="60.69 61.13 59.28 60.96 60.92 57.46 60.69 61.13" fill="#535251" />
    <path d="M29.14,47.99l-1.02-.21c.1-.4.72-.9,1.1-.91l-.08,1.12Z" fill="#6d6d6d" />
    <path
        d="M75.48,8.39c.31.65,1.02,2.85.91,3.78l-.44,3.95c-.2.3-1.09,1.79-1.23,2.34l-5.19,20.72-1.82,6.58c-.16.57-1.21,1.76-1.61,2.15-.26.26-1.72-.92-1.63-1.28.9-3.85,2.71-12,3.4-15.83,1.15-3.18,5.06-18.95,5.97-22.17.1-.36,1.53-.31,1.64-.24Z"
        fill="#e4e4e3" />
    <path
        d="M42.85,40.96s.76,6.06.76,6.06c-1.96-.03-5.91-.1-7.87-.14,0,0-3.65-.06-3.65-.06,0-.28-.67-.89-1.06-.89l-3.98.06s-.01-1.38-.01-1.38l4.68-1.13c.57-.14,1.9-1.16,2.34-1.55l8.8-.97Z"
        fill="#efd8ab" />
    <path
        d="M72.4,41.11c.23.13,1.61.8,2.12.89l10.21,1.93-.08,1.56c-2.44.52-12.35,1.53-15.01,1.82,0,0,.8-6.29.8-6.29l1.94.09Z"
        fill="#e4e4e3" />
    <polygon points="84.66 45.49 85.28 46.78 80.84 47.97 80.96 46.08 84.66 45.49" fill="#656565" />
    <path d="M39.79,46.95l-2.4,1.01c-.51.13-1.78-.74-1.64-1.08l4.04.07Z" fill="#6d6d6d" />
    <path d="M32.09,46.82h-1s-.07-.89-.07-.89c.39,0,1.06.61,1.06.89Z" fill="#6d6d6d" />
    <path
        d="M36.88,30.03s1.3,1.55,1.3,1.55l1.58.78,1.18,3.81,1.91,4.79-8.8.97-2.22-.98,3.23-5.08c-2.09,1.69-6.88,6.37-9.28,7.42.12-3.17.83-8.96-.2-11.95-.55-.41-1.13,1.77-1.12,2.27l.14,10.48s-3.91-1.15-3.91-1.15c-.31-1.4-1.96-2.88-2.9-3.88,0,0-.96-1.02-.96-1.02-.42-2.02-1.91-4.06-3.9-5.77l-.46-2.03s3.54-.6,3.54-.6c5.33-1.84,11.18-3,16.71-.76,0,0,4.17,1.15,4.17,1.15Z"
        fill="#f0cf94" />
    <path
        d="M39.76,32.36c-.43-.01-.59-.85-1.58-.78,0,0-1.3-1.55-1.3-1.55-4.56-5.44-15-5.98-19.81-2.81l-4.61,3.03-3.02,2.59c-3.47,4.22-5.15,9.44-5.04,15.01.17,9.05,5.79,16.96,14.72,19.31,1.78.47,2.58.81,3.39,2.42-1.68.02-3.81.02-4.81-.34C-5.48,61.72-1.64,28,20.74,23.39c13.99-3.02,29.01,9.63,25.94,24.21,0,0-3.7-11.49-3.7-11.49-.41-1.26-2.55-3.33-3.21-3.74Z"
        fill="#f0cf94" />
    <path
        d="M15.6,39.22l2.18-.15,1.87,1.98c-.06.69.49,1.68,1.02,1.9l.86,2.85c-1.08.21-8.54.17-9.81.19,0,0-3.94-1.15-3.94-1.15.49-3.46,1.67-6.73,3.32-9.34l4.49,3.73Z"
        fill="#f0cf94" />
    <path
        d="M86.05,151.29l-.33.95-1.17,1.99-.74.86c-1.58.63-4.91,1.95-6.5,2.58,0,0,.19-1.22.19-1.22l-1.3-1.51-.02-.7,4.63-.5,2.97-3.08c.18.35,1.86.92,2.26.63Z"
        fill="#2f2f2f" />
    <path
        d="M16.82,38.05l-1.22,1.17-4.49-3.73c-1.65,2.61-2.83,5.89-3.32,9.34l3.94,1.15.42,1.17c.12.32,1.28.73,1.69.72h6.76s.04,2.71.04,2.71l-3.28,2.64-3.18,3.58.79,1.47-2.36,3.32c-8.41-6.01-8.74-22.61.31-29.33,1.99,1.71,3.48,3.76,3.9,5.77Z"
        fill="#efd8ab" />
    <path
        d="M18.6,65.74c-1.51-.94-4.54-3.07-5.99-4.13,2.14-3.2,5.5-7.26,8.06-10.14.16.28.81,2.31.83,3.05l.21,8.69c.01.56-.58,2.15-1.08,2.22,0,0-2.03.3-2.03.3Z"
        fill="#f0cf94" />
    <path d="M19.77,45.95l.84,1.94h-6.76c-.42,0-1.58-.41-1.69-.73l-.42-1.17,8.04-.05Z" fill="#b8772f" />
    <polygon points="20.65 50.6 20.67 51.47 17.83 54.75 14.98 58.29 14.19 56.82 17.37 53.24 20.65 50.6"
        fill="#d8974c" />
    <path d="M26.15,36.46l-.57-5.12c.4,1.27.65,3.67.57,5.12Z" fill="#6d6d6d" />
    <path d="M27.05,45.99c0,.07-.01-1.02-.01-1.38v1.38Z" fill="#6d6d6d" />
    <path
        d="M90.7,132.47l4.6-2.15-1.72-2.64c.31-.89,1.82-4.63,1.86-5.54.08-.37,1.49-.89,1.56-.52l.47,2.24c1.05,5-.03,11.39-3.3,15.96-1.55,2.17-4.68,3.67-7.6,5.07-.19-1.16.37-4.41,1.32-4.95l6.77-3.79-5.01-.05,1.05-3.62Z"
        fill="#c2bfb9" />
    <path
        d="M93.67,124.07l-.46,2.15-2.5,6.25c-.5.23-1.41-.46-1.66-.94l-1.14-2.23-.52,6.64-2.98,8.26c-3.37-3.71-3.82-9.46.08-13.39l5.71-5.73c.62-.62,3.05-1.13,3.47-1.01Z"
        fill="#c2bfb9" />
    <path d="M93.59,127.68c-.18-.28-.33-1.08-.38-1.46l.46-2.15,1.54-.77-1.62,4.38Z" fill="#6d6d6d" />
    <path d="M75.35,6.54c-.04-.59.39-1.82.9-1.97l2.24,1.71-3.15.25Z" fill="#e4ded7" />
    <path
        d="M82.09,6.53c-.73.19-2.51.12-2.6-.62l-.34-2.6,8.44-1.56c.58-.11,1.84,2.01,1.36,2.36s-1.69,1.09-2.29,1.25l-4.56,1.17Z"
        fill="#e4ded7" />
    <path
        d="M97.57,142.2c2.65.17,6.79,1.58,10.31,3.42l-4.82,5.5c-5.26,4.39-12.34,5.82-18.51,3.09l1.17-1.99c1.24-.42,4.19-1.02,5.49-.64l5.5,1.57-2.75-3.06,9.61-2.75-4.63-1.34-6.42,2.92.92-3.04-7.4,5.39c-.4.29-2.08-.29-2.26-.63l.27-1.29,2.84-2.48,5.58-3.3c1.13-.67,3.86-1.46,5.1-1.38Z"
        fill="#c2bfb9" />
    <path
        d="M81.44,69.76l.04,10.84-.88,13.04c-1.12,9.95-2.39,23.93-3.21,33.93,0,0-1.28,5.89-1.28,5.89,0,0-6.18-2.91-6.18-2.91.13-2.48.46-9.34.8-11.67.24-4.15.73-13.38.96-17.44,0,0,3.59-12.28,3.59-12.28l-3.07-3.68,1.57-15.52,3.41-1.35,4.26,1.13Z"
        fill="#efd8ab" />
    <path
        d="M81.44,69.76l-4.26-1.13c-.71-.41-3.15-.64-4.27-.34l-8.55,1.67.18-1.26,4.7-1.16c5.99-2.57,12.19-1.15,12.21,2.23Z"
        fill="#6d6d6d" />
    <path d="M65.77,64.14c0,1.4-2.13,1.4-2.14,0,0-1.4,2.13-1.4,2.14,0Z" fill="#6d6d6d" />
    <path
        d="M72.2,85.5l3.07,3.68s-3.59,12.28-3.59,12.28c-6.16,2.36-9.12,5.3-15.24-.73,0,0-2.24,5.31-2.24,5.31-.85,2.02-.35,4.86,1.08,6.88,3.14,4.44.1,12.09-4.85,16.96,0,0-3.15,7.72-3.15,7.72l-5.33-1.02c-1.06-.2-2.83-1.77-3.7-2.51.51-1.58.92-4.16.1-4.96-6.13-5.44-1.95-14.23,2.3-19.58,1.75.08,5.77-.58,6.38-2.42l2.82-8.54s1.33-.08,1.33-.08l-2.04,8.66c-.16.63,2.35,2.06,2.52,1.43l.57-2.14,2.01-8.83.87-.03,3.89,2.21c.67,1.89,3.94,3.52,6.05,2.48l5.29-2.63,2.87-10.03-5.63-6.82c-.13-.16-.19-.98-.02-1.25,1.6.62,3.48,2.68,4.66,3.94ZM54.35,118.36l.52-2.73c.12-.62-1.1-1.43-1.51-1.9-1-1.14-3.32-4.21-4.82-3.84l-7.4,1.87c-2.66,3.3-4.49,9.46-3.82,13.06.26,1.41,3.35,3.07,4.52,3.52l-1.53,4.76,5.49,2.54,4.28-8.98c.42-.88,3.1-2.13,3.27-3.01l1-5.27Z"
        fill="#656565" />
    <path
        d="M61.79,130.42l1,7.01c.35,2.82,1.71,6.13,2.8,9.34l-4.07,1c-6.37.59-14.63.28-20.88-1.26l-.2-7.66,1.52-2.28,5.33,1.02c1.04-.21,5.96-1.21,7.11-1.44,4.51-.92,3.85-5.56,7.4-5.74Z"
        fill="#efd8ab" />
    <path d="M39.85,81.35l.07,2.86-2.08-.35c-.47-.09-.83-1.58-.39-1.77l2.4-.74Z" fill="#605e5d" />
    <path d="M51.04,90.32c.09-.64.7-2,1.25-2.42l-.32,1.72c-.06.34-.33.55-.92.71Z" fill="#656565" />
    <path d="M35.01,69.84l-1.07-.82,1.07.82Z" fill="#f2eae0" />
    <path
        d="M64.59,82.12c-1.15,6.88,5.09,9.4,1.63,12.06l-7.23,5.62-3.89-2.21-2.19-4.1c-.99-1.85,1.08-6.25,2.69-7.56l3.08,2.62,1.77-5.08c.4-1.14,2.91-1.55,4.13-1.34Z"
        fill="#f7efe5" />
    <path
        d="M77.17,68.63s-3.41,1.35-3.41,1.35l-1.57,15.52c-1.18-1.28-3.07-3.3-4.66-3.94-1.38-.59-4.38-1.83-5.75-2.4-.36-.15.08-1.71.23-2.16l2.33-7.05,8.55-1.67c1.12-.29,3.55-.07,4.27.34Z"
        fill="#f1e3c8" />
    <path
        d="M67.56,82.81l5.63,6.82-2.87,10.03-5.29,2.63c-2.1,1.05-5.38-.58-6.05-2.48l7.23-5.62c3.46-2.66-2.79-5.18-1.63-12.06l2.98.69Z"
        fill="#f1e3c8" />
    <path
        d="M54.23,97.61c-.37,1.6-2.14,9.58-2.58,10.96-.17.62-2.67-.81-2.52-1.43l2.04-8.66,1.51-1.29c.29-.25,1.39.32,1.55.42Z"
        fill="#ded9d2" />
    <path
        d="M82.58,144.91l.23,4.49-1.45,1.27-3.79-5.53c-.86-1.26-.83-4.29-1.23-6.9l-1.63,1.96c.89,1.83.1,1.63-.78.67-.97-1.02-1.66-2.02-2.3-1.98l-3.7.23c-.06-.24.18.7.22.87l6.85,4.18-4.43,2.05,5.11,1.14c2.06.46,4.73,4.03,5.15,6.36l-4.63.5c-6.68-3.86-11.26-9.51-11.89-17.58l-.47-5.95,4.98,1.85c-.89.62-1.71,1.18-1.75,1.23-.04.04.36.94.47,1.22l3.36,3.52-2.33-5.76c7.05.81,11.77,6.16,14.02,12.14Z"
        fill="#d5ad7c" />
    <path
        d="M82.81,149.4l1.25-.03-.27,1.29-2.97,3.08c-.41-2.34-3.08-5.9-5.15-6.36l-5.11-1.14,4.43-2.05-6.85-4.18c-.04-.17-.28-1.11-.22-.87l3.7-.23c.63-.04,1.33.96,2.3,1.98.89.96,1.67,1.16.78-.67l1.63-1.96c.4,2.61.37,5.64,1.23,6.9l3.79,5.53,1.45-1.27Z"
        fill="#535251" />
    <path
        d="M85.72,152.23l.33-.95,7.4-5.39-.92,3.04,6.42-2.92,4.63,1.34-9.61,2.75,2.75,3.06-5.5-1.57c-1.31-.37-4.26.22-5.49.64Z"
        fill="#535251" />
    <polygon points="86.9 146.88 84.06 149.37 82.81 149.4 82.58 144.91 86.9 146.88" fill="#2f2f2f" />
    <path
        d="M71.68,101.46c-.23,4-.74,13.35-.96,17.44,0,0-2.49.67-2.49.67-.6.22-.32,2.41.31,2.52l1.83.25s-.44,8.23-.44,8.23l-5.01-1.35c-.49-.13-1.71-.37-2.01-.03l-1.11,1.24c-3.56.18-2.89,4.82-7.4,5.74-1.11.22-6.08,1.24-7.11,1.44,0,0,3.15-7.72,3.15-7.72,4.95-4.87,7.99-12.52,4.85-16.96-1.43-2.02-1.93-4.87-1.08-6.88l2.24-5.31c3.39,3.25,6.23,4.38,9.49,3.07l5.75-2.34Z"
        fill="#f1e3c8" />
    <path d="M70.72,118.89l-.36,3.44-1.83-.25c-.63-.11-.9-2.3-.31-2.52l2.49-.67Z" fill="#585755" />
    <path
        d="M53.36,113.73l-2.62,3.47,3.62,1.17-1,5.27c-.17.88-2.85,2.13-3.27,3.01l-4.28,8.98-5.49-2.54,1.53-4.76c-1.17-.45-4.26-2.1-4.52-3.52-.67-3.59,1.17-9.75,3.82-13.06l7.4-1.87c1.49-.38,3.82,2.7,4.82,3.84ZM46.86,112.28l-2.71.79.79,2.69,2.71-.79-.79-2.69Z"
        fill="#f2eae0" />
    <path d="M54.35,118.36l-3.62-1.17,2.62-3.47c.41.47,1.63,1.29,1.51,1.9l-.52,2.73Z" fill="#c2bfb9" />
    <rect x="44.49" y="112.62" width="2.82" height="2.81" transform="translate(-30.19 17.49) rotate(-16.32)"
        fill="#6d6d6d" />
</svg>