<svg xmlns="http://www.w3.org/2000/svg"
id="icon-ice_latte"
viewBox="0 0 76.1 165.22"
width="100%"
height="100%"
     fill="black"
     stroke="currentColor"
     stroke-width="0"
     stroke-linecap="round"
     stroke-linejoin="round">

    <path
        d="M15.19,67.24c-2.51,6.51,1,10.38.92,14.33-.14,6.71.07,14.11.99,20.7-1.38,4.21-.78,8.85.98,12.83l-.55,4.29c.26,6.02,1.02,18.36,1.58,24.32,0,0,8.2.66,8.2.66.76.06.88-2.87.82-3.62,0,0-.51-6.03-.51-6.03-.27-3.24.11-7.25-.9-9.62l-1.97-5.65c7.17,1.44,10.12-2.64,15.13-9.21-.89-5.03-3.46-10.73-7.42-14.06-1.7-.99-6.15-1.12-7.99-1.14l-.81-9.6,5.72-.11,7.65-8.24c1.01-1.09.84-4.64.35-5.92l-1.42-3.71,8.88-.35s-1.73,7.23-1.73,7.23c-.29,1.22,0,4.25.91,4.61,0,0-.23,3.01-.23,3.01-1,.4-3.06,1.97-3.43,2.99,0,0-2.6,7.12-2.6,7.12-.71,1.93.37,5.12,1.78,6.25,0,0,7.31,5.86,7.31,5.86,2.13,1.7,8.1-.92,9.28-3.39,0,0,2.58.38,2.58.38-.34,2.95-1.24,10.66-1.54,13.51,0,0-.46,4.41-.46,4.41.78,3.84,1.92,7.78,1.79,11.82l-.34,10.34c-.03.82-1.77,2.98-2.52,2.66,0,0-2.06-.88-2.06-.88.91-1.48,1.98-3.07,1.38-3.59l-2.37-2.07s.42-3.72.42-3.72c1.76-.19,4.74-3.46,4.22-5.43l-1.9-7.31c-1-3.85-10.55-7.7-15-4.27-2.8,2.16-4.56,4.52-6.11,7.45-3.6,6.81.97,11.16,7.59,16.23l-1.83,3.05s-4.8,2.78-4.8,2.78c-.46.27-1.16,1.88-.94,2.58-9.24-.41-19.68-1.24-20.17-8.27-.57-8.08-4.11-59.1-4.57-65.86-.06-.85-1.26-2.61-1.97-2.65l-.02-7.02c2.57.18,5.09,1.11,7.69,2.32Z"
        fill="#d5ad7c" />
    <path
        d="M70.67,83.92c.04,1.13-.52,10.04-.6,11.4-.23,4.76-.83,15.54-1.28,20.2-1.07,10.29-1.72,26.65-2.28,36.97-.07,1.36-2.13,3.44-3.35,3.82v-7.06s-3.18-1.57-3.18-1.57c2.81-.87,3.77-6.33,3.93-8.89l.67-10.91c.86-10.43,1.98-27.33,2.48-37.92.03-.54-.92-2.91-.91-2.44.58-3.64.92-7.51.85-11.22,1.16-1.37,2.4-5.09,1.68-6.77l-.8-6.12c-3.77-3.02-9.77-3.45-14.8-.53,0,0,2.36-13.36,2.36-13.36.17-.95-.58-3.63-1.15-3.25,0,0,.17-.78.17-.78l2.21-.45,1.45-7.56c.17-.44,2-1.82,2.93-1.97,0,0,9.27-1.52,9.27-1.52l3.36-.95c-.55,10.3-2.15,41.13-3.01,50.86Z"
        fill="#eeedec" />
    <path
        d="M18.66,34l-.68,1.86-15.91-2.4c.62,12.5,1.63,29.66,2.47,42.16,1.2,18.27,2.67,40.09,3.89,58.35,0,0,1.06,16.26,1.06,16.26.17,2.62.57,5.9,4,6.52,0,0,16.52,3.01,16.52,3.01,0,0,1.41-.14,1.41-.14,0,0-.17,1.84-.17,1.84s-15.4-1.87-15.4-1.87c-2.57-.31-6-2.04-8.16-4.27L1.45,58.88,0,30.13c2.87-2.41,6.96-3.43,10.59-3.73,0,0-.14,1.76-.14,1.76l-7.72,2.61c6.35,1.71,11.23,2.91,15.94,3.23Z"
        fill="#535251" />
    <path
        d="M9.48,74.6c.46,6.43,4.01,58.09,4.57,65.86.49,7.03,10.93,7.86,20.17,8.27,7.2.32,14.93-.16,22.24-1.95,4.35-1.07,5.57-4.15,5.78-8.26,0,0,.44-8.66.44-8.66l.61-10.61.84-6.52s1.09-19.4,1.09-19.4c0,0,.93-5.8.93-5.8-.01-.47.94,1.9.91,2.44,0,0-1.07,19.5-1.07,19.5-.7,8.67-1.59,20.62-2.07,29.32-.16,2.56-1.12,8.02-3.93,8.89-8.18,2.53-16.91,3.21-25.54,3.07-7.54-.12-20.01-2.27-21.28-6.25-1.36-4.25-1.43-9.17-1.74-13.64,0,0-.93-13.45-.93-13.45-.74-10.32-2.22-32.16-2.96-42.59,0,0,1.96-.22,1.96-.22Z"
        fill="#605e5d" />
    <path
        d="M59.98,147.68l3.18,1.57v7.06c-6.35,2.02-14.24,3.67-21.31,3.53l-10.44-.21-1.41.14,2.02-3.97-2.15-3.22,4.57-1.83c8.63.14,17.36-.54,25.54-3.07ZM59.64,152.31c-4.02.39-7.09.95-10.29,1.82,3.75,1.11,7.24,1.21,10.29-1.82Z"
        fill="#e4ded7" />
    <path
        d="M58.18,29l1.92.06-1.1,4.91,5.33-.61,5.82-1.06s.18,1.71.18,1.71l-9.27,1.52c-.93.15-2.75,1.53-2.93,1.97l-1.81.22c-.01-.35-.18-1.79-.68-1.69l-2.59.52c-1.36,6.05-4.06,18.25-5.37,24.3,0,0-1.3-1.04-1.3-1.04,0,0,1.35-7.67,1.35-7.67l3.37-15.42-10.45-.09.12-1.59,9.97-.63,1.88-4.59c.24-.6.18-2.7-.41-2.96-3.32-1.45-22.49-.65-31.38.36,0,0-.04-2-.04-2,10.84-1.02,21.78-1.14,32.86-.29l1.21-4.16c.31.22.77,2.93.61,3.78l-1.76,9.55,3.37-.09,1.09-4.98Z"
        fill="#4b4b4b" />
    <path
        d="M68.07,153.84c-.56,5.65-15.1,6.85-21.4,7.53,0,0-15.43.1-15.43.1l.17-1.84,10.44.21c7.07.14,14.96-1.51,21.31-3.53,1.21-.39,3.28-2.46,3.35-3.82.56-10.32,1.21-26.68,2.28-36.97.78-8.63,1.28-21.01,1.84-29.66,0,0,1.18.78,1.18.78-.15,6.18-.66,18.93-1.14,25-.73,11.76-1.68,30.46-2.59,42.2Z"
        fill="#4b4b4b" />
    <path
        d="M15.84,159.6s15.4,1.87,15.4,1.87l15.43-.1c6.3-.68,20.84-1.87,21.4-7.53,0,0,2.16.88,2.16.88,1.3.55-1.25,5.37-7.82,7.23-9.81,2.79-19.37,3.91-29.61,2.91-7.29-.71-16.51-1.85-16.96-5.26Z"
        fill="#ded9d2" />
    <path
        d="M70.67,83.92c.84-9.45,2.48-40.87,3.01-50.86,0,0-3.36.95-3.36.95,0,0-.18-1.71-.18-1.71l2.05-2.19s-8.76-2.06-8.76-2.06l.64-2.24,9.82,2.93c1.02.31,2.02,3.1,1.95,4.17l-1.26,20.43c-.05.95-1.86,30.21-1.86,30.14-.04.57-2.01.75-2.05.45Z"
        fill="#535251" />
    <path
        d="M68.68,69.53l-1.74-4.05c-.5-1.17-2.87-2.69-4.15-2.76-3.18-.16-7.76,1.53-10.81,2.52,0,0-1.73,9.42-1.73,9.42-.11.58-1.36,2.51-1.9,2.39-.11-.27-.14-2.14.01-2.87l1.85-8.76c-1.16-.02-3.27.15-3.38.64l-2.82,12.87c-.92-.36-1.2-3.38-.91-4.61.33-1.47,1.98-7.83,1.98-9.21.06-.46-1.75-.32-2.22-.42l-3.48-.73s5.3-.77,5.3-.77c.94-.14,1.25-2.53.93-3.31l.77-.09,1.3,1.04-.13,1.6c-.04.57,1,1.56,1.56,1.46s1.72-1.32,1.86-1.96l3.33-15.65c.57-.38,1.31,2.31,1.15,3.25l-2.36,13.36c5.04-2.92,11.03-2.49,14.8.53,0,0,.8,6.12.8,6.12Z"
        fill="#585755" />
    <path
        d="M60.1,29.06s-1.92-.06-1.92-.06l3.6-16.45c.22-1.77-.62-3.92-.7-5.5.19-.01,1.16-.11,1.3-.4l.56-1.69.76.02c.3.48,2.2,2.19,3.03,1.98l6.07-1.56c.46-.12,1.26-1.42,1.44-1.86.27-.66-1.9-1.57-2.63-1.42l-5.67,1.15-.13-1.63c2.34-.57,6.69-2.56,8.99-1.14,1.75,1.3,1.8,5.99-.44,6.54l-9.88,2.43-4.4,19.59Z"
        fill="#5a5a5a" />
    <path
        d="M61.3,8.72c.2.6.68,2.96.49,3.83-.8,3.65-3.96,18.07-4.7,21.43,0,0-3.37.09-3.37.09l1.76-9.55c.16-.84-.3-3.55-.61-3.78l.12-.48c.51.06,1.71-.3,1.83-.8.35-1.34,1.73-8.2,2.04-9.69.12-.57,2.21-1.52,2.45-1.06Z"
        fill="#e4e4e3" />
    <path
        d="M45.6,59.88c.32.78.02,3.17-.93,3.31l-5.3.77,3.48.73c.47.1,2.28-.05,2.22.42l-.25,1.98-8.88.35c-1.32-1.27-2.82-3.27-3.63-4.85l.13-1.69,13.15-1.02Z"
        fill="#efd8ab" />
    <path
        d="M11.15,61.84l4.04.78c2.34.46,5.79.1,8.27.03,0,0-1.93,1.64-1.93,1.64l-3.62,2.15-.77-1.71-5.89-1.09c-.66-.12-2.1-1.71-1.95-2.16l1.86.36Z"
        fill="#6d6d6d" />
    <path d="M17.99,35.86l.68-1.86,9.24.63c.49.03.78,2.09.29,2.05l-10.21-.82Z" fill="#4b4b4b" />
    <path
        d="M32.32,62.6c.81,1.58,2.31,3.59,3.63,4.85l1.42,3.71c.49,1.28.67,4.83-.35,5.92l-7.65,8.24-5.72.11-7.54-3.86c.09-3.95-3.43-7.83-.92-14.33l2.72-.81-.34,2.01.23,1.11c6.29,0,7.37-6.59,7.59-6.55l-1.93-.37h-.9c1.18-1.71,4.85-2.77,6.42-1.9l3.33,1.85ZM25.27,66.36l-2.27,2.79c-1.55,1.63-5.09,2.39-7.29,2.08.65,3.24,1.4,6.62,3.14,9.95.95,1.84,5.75,2.37,7.53,2.11.28.06,2.18.06,2.54-.31l7.65-7.82-2.44-6.5c-1.1-2.93-2.9-4.6-5.73-7.06l-3.13,4.75Z"
        fill="#605e5d" />
    <path d="M61.09,7.05l.22,1.67c-.24-.45-2.33.5-2.45,1.06l-1.57,7.66-1.84-.85,1.88-8.59,2.83-.96.94.02Z"
        fill="#6d6d6d" />
    <path
        d="M9.29,61.48c-.14.45,1.29,2.04,1.95,2.16l5.89,1.09.77,1.71-2.72.81c-2.6-1.21-5.11-2.14-7.69-2.32l.21-2.98c.03-.37,1.24-.53,1.58-.46Z"
        fill="#efd8ab" />
    <polygon points="26.73 20.15 17.66 21.2 17.02 19.29 26.85 18.64 26.73 20.15" fill="#c2bfb9" />
    <path d="M26.51,155.25l-6.51-.95-1.73-.25c-.38-.06-.31-1.76-.21-1.98l7.69,1,.76,2.18Z" fill="#6d6d6d" />
    <path
        d="M65.82,1.64l.13,1.63c-.7.14-1.8,1.06-2.24,1.72-.51-.09-2.4.16-2.94.22-.51.06-.74,1.32-.62,1.83l-2.83.96c.28-1.3,1.32-4.48,2.6-4.81l5.9-1.54Z"
        fill="#4b4b4b" />
    <path d="M20.79,25.2l.04,2-6.62.75c.08.11-.55-.78-1.42-2l8-.75Z" fill="#605e5d" />
    <path d="M34.26,35.16c-.13,2.37-3.65,2.34-4,.12l4-.12Z" fill="#4b4b4b" />
    <path d="M57.28,17.44l-.47,2.03c-.11.5-1.32.85-1.83.8l.45-3.68,1.84.85Z" fill="#4b4b4b" />
    <path d="M15.19,62.62l-4.04-.78,2.51-1.23c.68-.19,1.53,1.34,1.54,2.01Z" fill="#efd8ab" />
    <path d="M9.48,74.6l-1.96.22v-2.87c.7.04,1.9,1.8,1.96,2.65Z" fill="#efd8ab" />
    <path
        d="M66.94,65.48c-.03,6.62.43,15.61-.79,22.04,0,0-.93,5.8-.93,5.8,0,0-1.09,19.4-1.09,19.4l-.84,6.52c-.29,4.75-.82,14.55-1.05,19.27-.21,4.11-1.43,7.19-5.78,8.26-7.3,1.79-15.04,2.27-22.24,1.95-.22-.71.47-2.32.94-2.58l4.8-2.78,1.83-3.05,7.4-1.25c.57-.1,2.25-1.32,2.07-2,0,0,1.32.3,1.32.3,0,0,2.37,2.07,2.37,2.07.6.52-.47,2.11-1.38,3.59,0,0,2.06.88,2.06.88.75.32,2.5-1.85,2.52-2.66l.34-10.34c.13-4.05-1.01-7.99-1.79-11.82.5-4.97,1.41-12.89,2-17.91,0,0,.46-3.98.46-3.98,1.14-2.44,1.78-6.33,1.65-9.1,0,0-2.66-4.07-2.66-4.07l.97-3.19,1.45-14.36,2.22-3.71c1.28.06,3.65,1.58,4.15,2.76Z"
        fill="#d8974c" />
    <path
        d="M23.49,119.2l1.26.25,1.97,5.65c1.02,2.37.63,6.38.9,9.62l.51,6.03c.06.74-.06,3.68-.82,3.62l-8.2-.66-.88-11.09-.7-13.23.55-4.29c1.36,1.31,3.47,3.72,5.4,4.1ZM26.17,137.98c-.05-2.84-4.28-2.84-4.32,0,.05,2.84,4.28,2.84,4.32,0Z"
        fill="#f1e3c8" />
    <path
        d="M59.16,97.17l-.46,3.98-2.58-.38c-3.4-.23-7.83,4.18-10.28,1.54l-4.45-4.79c-.83-.89-1.96-3.12-1.71-4.24l1.25.08c.19.28.88,1.12,1.19.81l1.2-1.21,5.28-5.33c3.4,1.86,6.54,2.16,10.72.91l-1.04,5.91c-.11.65.64,2.4.87,2.72Z"
        fill="#f1e3c8" />
    <path
        d="M52.99,133.63l-.42,3.72-1.32-.3-10.59,1.04-6.56-8.92,2.44-4.09,3.16,1.35c-2,2.28-.48,6.91,2.92,8.22l5.51-6.2c.9-1.02.96-5.24-.27-5.82l-3.9-1.86-1.57-.11-3.48.27c.83-.92,2.99-3.11,4.16-3.49,2.84-.92,8.41.79,9.91,3.07l2.24,7.44-2.24,5.68ZM51.6,133.72c0-1.4-2.13-1.4-2.14,0,0,1.4,2.13,1.4,2.14,0Z"
        fill="#efd8ab" />
    <path
        d="M52.99,133.63l2.24-5.68-2.24-7.44c-1.5-2.29-7.07-4-9.91-3.07-1.17.38-3.32,2.57-4.16,3.49l3.48-.27,1.57.11-4.27,5.66-3.16-1.35-2.44,4.09,6.56,8.92,10.59-1.04c.18.68-1.5,1.9-2.07,2l-7.4,1.25c-6.62-5.08-11.19-9.43-7.59-16.23,1.55-2.93,3.31-5.29,6.11-7.45,4.46-3.43,14,.41,15,4.27l1.9,7.31c.51,1.97-2.46,5.24-4.22,5.43Z"
        fill="#6c482b" />
    <path
        d="M58.16,84l2.66,4.07c.13,2.77-.51,6.66-1.65,9.1-.23-.32-.98-2.07-.87-2.72l1.04-5.91c-4.18,1.25-7.32.96-10.72-.91-.88.89-5.71,5.77-6.48,6.54-.31.31-1-.53-1.19-.81l4.13-3.82c.93-.73,1-3.45.57-4.66,4.47.87,7.27,4.86,12.25,1.72l-5.2-3.31c-2.39-1.52-6.94-.73-8.26,1.29l-1.9.32c-.51.08-1.27,1.51-1.38,2.02,0,0-1.46,6.36-1.46,6.36-.26,1.12.88,3.35,1.71,4.24l4.45,4.79c2.45,2.64,6.88-1.77,10.28-1.54-1.18,2.47-7.15,5.09-9.28,3.39l-7.31-5.86c-1.41-1.13-2.49-4.31-1.78-6.25l2.6-7.12c.38-1.03,2.43-2.59,3.43-2.99l4.82-1.93,9.55,3.98Z"
        fill="#6c482b" />
    <path
        d="M23.65,85.44c.07.94.93,10.43.85,11.06-1.16.14-3.61,1.53-4.56,2.6l-2.84,3.18c-.92-6.59-1.14-13.99-.99-20.7l7.54,3.86Z"
        fill="#f1e3c8" />
    <path
        d="M24.75,119.45l-1.26-.25s.78-1.84.78-1.84l1,.26c4.89,1.26,9.11-3.05,12.84-7.86-1.5-5.88-4.29-11.78-8.35-11.73-1.38,0-4.16.06-5.53.16,0,0,.27-1.7.27-1.7l-.04-1.45c1.85.02,6.3.15,7.99,1.14,3.96,3.33,6.53,9.03,7.42,14.06-5,6.57-7.96,10.65-15.13,9.21Z"
        fill="#6c482b" />
    <path
        d="M24.5,96.49l-.27,1.7c-3.69.17-7.24,6.73-6.3,11.18.79,3.78,2.77,7.07,6.34,7.99l-.78,1.84c-.76-.15-2.25-1.01-2.84-1.59l-2.57-2.51c-1.77-3.97-2.36-8.62-.98-12.83l2.84-3.18c.95-1.07,3.4-2.46,4.56-2.6Z"
        fill="#6d6d6d" />
    <path
        d="M48.35,77.05l.25,2.96-4.82,1.93.23-3.01,2.82-12.87c.11-.49,2.22-.66,3.38-.64l-1.85,8.76c-.15.73-.12,2.6-.01,2.87Z"
        fill="#ded9d2" />
    <path
        d="M56.31,37.71c-1.37,5.37-4.17,18.64-5.35,24.22-.14.64-1.3,1.86-1.86,1.96s-1.61-.89-1.56-1.46c0,0,.13-1.6.13-1.6,1.32-6.06,4.02-18.25,5.38-24.3,0,0,2.59-.52,2.59-.52.5-.1.66,1.34.68,1.69Z"
        fill="#e4e4e3" />
    <polygon points="58.12 37.49 56.67 45.06 54.46 45.5 56.31 37.71 58.12 37.49" fill="#6d6d6d" />
    <path d="M68.68,69.53c.72,1.69-.52,5.4-1.68,6.77l-.06-10.82,1.74,4.05Z" fill="#605e5d" />
    <path d="M59.64,152.31c-3.05,3.04-6.54,2.93-10.29,1.82,3.19-.87,6.27-1.43,10.29-1.82Z" fill="#6d6d6d" />
    <path
        d="M62.79,62.72l-2.22,3.71-1.45,14.36s-.97,3.19-.97,3.19l-9.55-3.98-.25-2.96c.54.12,1.79-1.81,1.9-2.39l1.73-9.42c3.06-.99,7.62-2.69,10.81-2.52Z"
        fill="#d5ad7c" />
    <path
        d="M63.71,4.99c.44-.66,1.54-1.57,2.24-1.72l5.67-1.15c.73-.15,2.9.76,2.63,1.42-.18.44-.99,1.74-1.44,1.86l-6.07,1.56c-.83.21-2.73-1.5-3.03-1.98Z"
        fill="#ded9d2" />
    <path d="M62.95,4.96l-.56,1.69c-.52.52-1.6.38-2.23.39-.12-.51.11-1.78.62-1.83l2.17-.24Z" fill="#c2bfb9" />
    <path d="M17.79,69.57l-.23-1.11.34-2.01,3.62-2.15,1.93-1.64,1.93.37c-.22-.04-1.31,6.55-7.59,6.55Z" fill="#e4ded7" />
    <path
        d="M27.69,79.91l-1.13,1.95-.18,1.42c-1.79.25-6.58-.27-7.53-2.11-1.74-3.34-2.49-6.72-3.14-9.95l1.66.09c1.55-.07,4.65-.96,5.63-2.16l2.27-2.79,1.6.22c.88.16,2.23,7.3.82,13.33Z"
        fill="#f7efe5" />
    <path
        d="M26.38,83.29l.18-1.42,1.89-.43c.46-.12-.79-1.59-.76-1.52,1.41-6.04.06-13.17-.82-13.33l-1.6-.22,3.13-4.75c2.84,2.46,4.64,4.13,5.73,7.06l2.44,6.5-7.65,7.82c-.36.37-2.26.37-2.54.31Z"
        fill="#f1e3c8" />
    <path d="M26.17,137.98c-.05,2.84-4.28,2.84-4.32,0,.05-2.84,4.28-2.84,4.32,0Z" fill="#4e3b30" />
    <path
        d="M44.43,84.59l1.21.3c.43,1.2.36,3.93-.57,4.66l-4.13,3.82-1.25-.08,1.46-6.36c.12-.5.88-1.93,1.38-2.02l1.9-.32Z"
        fill="#d8974c" />
    <path d="M39.71,126.44l4.27-5.66,3.9,1.86c1.23.59,1.17,4.81.27,5.82l-5.51,6.2c-3.4-1.3-4.92-5.94-2.92-8.22Z"
        fill="#f7efe5" />
    <path d="M51.6,133.72c0,1.4-2.13,1.4-2.14,0,0-1.4,2.13-1.4,2.14,0Z" fill="#d5ad7c" />
    <path d="M45.64,84.88l-1.21-.3c1.32-2.02,5.86-2.81,8.26-1.29l5.2,3.31c-4.98,3.14-7.78-.86-12.25-1.72Z"
        fill="#b8772f" />
    <path d="M17.79,69.57l-.23-1.11.23,1.11Z" fill="#efd8ab" />
    <path d="M17.36,71.31l-1.66-.09,1.66.09Z" fill="#efd8ab" />
    <path
        d="M25.27,117.62c.71-4.97,2.41-9.12,5.41-13.93l-2.21-1.74,1.29-3.92c4.06-.05,6.85,5.85,8.35,11.73-3.73,4.8-7.96,9.11-12.84,7.86ZM33.02,111.04c-2.51.14-4.09,2.54-3.96,5.65,1.54-.84,3.04-2.94,3.96-5.65Z"
        fill="#efd8ab" />
    <polygon points="29.76 98.03 28.47 101.95 26.48 103.17 26.88 98.07 29.76 98.03" fill="#6d6d6d" />
    <path d="M26.56,81.86l1.13-1.95c-.02-.07,1.22,1.41.76,1.52l-1.89.43Z" fill="#605e5d" />
    <path d="M24.51,104.16c-2.05.49-2.26.54,0,0,1.3-1.45.77-.86,0,0Z" fill="#6d6d6d" />
    <path d="M33.02,111.04c-.92,2.71-2.42,4.81-3.96,5.65-.13-3.11,1.45-5.51,3.96-5.65Z" fill="#6d6d6d" />
</svg>